<svg width="24" height="24" viewBox="0 0 24 24" fill="none" xmlns="http://www.w3.org/2000/svg">
<g clip-path="url(#clip0_12120_1856)">
<path d="M22.5062 24H1.49378C0.661948 24 0 23.3263 0 22.4945V1.50549C0 0.673664 0.673664 0 1.49378 0H22.4945C23.3263 0 24 0.673664 24 1.50549V22.5062C24 23.3263 23.3263 24 22.5062 24Z" fill="#5465CF"/>
<path d="M6 6.5C6 6.8283 6.15519 7.15339 6.45672 7.45671C6.75825 7.76002 7.20021 8.03562 7.75736 8.26777C8.31451 8.49991 8.97595 8.68406 9.7039 8.8097C10.4319 8.93534 11.2121 9 12 9C12.7879 9 13.5681 8.93534 14.2961 8.8097C15.0241 8.68406 15.6855 8.49991 16.2426 8.26777C16.7998 8.03562 17.2417 7.76002 17.5433 7.45671C17.8448 7.15339 18 6.8283 18 6.5C18 6.1717 17.8448 5.84661 17.5433 5.54329C17.2417 5.23998 16.7998 4.96438 16.2426 4.73223C15.6855 4.50009 15.0241 4.31594 14.2961 4.1903C13.5681 4.06466 12.7879 4 12 4C11.2121 4 10.4319 4.06466 9.7039 4.1903C8.97595 4.31594 8.31451 4.50009 7.75736 4.73223C7.20021 4.96438 6.75825 5.23998 6.45672 5.54329C6.15519 5.84661 6 6.1717 6 6.5Z" fill="#E0EBFE"/>
<path d="M12 20C15.4785 20 19 19.1133 19 17.4194V6.58065C19 4.88671 15.4785 4 12 4C8.52154 4 5 4.88671 5 6.58065V17.4194C5 19.1133 8.52154 20 12 20ZM12 5.03226C15.8322 5.03226 17.9231 6.05471 17.9231 6.58065C17.9231 7.10658 15.8322 8.12903 12 8.12903C8.16777 8.12903 6.07692 7.10658 6.07692 6.58065C6.07692 6.05471 8.16777 5.03226 12 5.03226ZM6.07692 8.01703C7.38323 8.77058 9.69808 9.16129 12 9.16129C14.3019 9.16129 16.6168 8.77058 17.9231 8.01703V10.1935C17.9231 10.7195 15.8322 11.7419 12 11.7419C8.16777 11.7419 6.07692 10.7195 6.07692 10.1935V8.01703ZM6.07692 11.6299C7.38323 12.3835 9.69808 12.7742 12 12.7742C14.3019 12.7742 16.6168 12.3835 17.9231 11.6299V13.8065C17.9231 14.3324 15.8322 15.3548 12 15.3548C8.16777 15.3548 6.07692 14.3324 6.07692 13.8065V11.6299ZM6.07692 15.2428C7.38323 15.9964 9.69808 16.3871 12 16.3871C14.3019 16.3871 16.6168 15.9964 17.9231 15.2428V17.4194C17.9231 17.9453 15.8322 18.9677 12 18.9677C8.16777 18.9677 6.07692 17.9453 6.07692 17.4194V15.2428Z" fill="white"/>
</g>
<defs>
<clipPath id="clip0_12120_1856">
<rect width="24" height="24" fill="white"/>
</clipPath>
</defs>
</svg>
