<svg width="200" height="200" viewBox="0 0 200 200" fill="none" xmlns="http://www.w3.org/2000/svg">
<path d="M180 162.222C180 166.937 178.127 171.459 174.793 174.793C171.459 178.127 166.937 180 162.222 180H37.7778C33.0628 180 28.541 178.127 25.207 174.793C21.873 171.459 20 166.937 20 162.222V37.7778C20 33.0628 21.873 28.541 25.207 25.207C28.541 21.873 33.0628 20 37.7778 20H162.222C166.707 19.9986 171.027 21.6925 174.316 24.7422C177.605 27.7919 179.619 31.972 179.956 36.4444L180 37.7778V162.222ZM73.3333 135.556H37.7778V162.222H73.3333V135.556ZM117.778 135.556H82.2222V162.222H117.778V135.556ZM162.222 135.556H126.667V162.222H162.222V135.556ZM73.3333 100H37.7778V126.667H73.3333V100ZM117.778 100H82.2222V126.667H117.778V100ZM162.222 100H126.667V126.667H162.222V100ZM73.3333 64.4444H37.7778V91.1111H73.3333V64.4444ZM117.778 64.4444H82.2222V91.1111H117.778V64.4444ZM162.222 64.4444H126.667V91.1111H162.222V64.4444Z" fill="#FF8533"/>
</svg>
