<?xml version="1.0" standalone="no"?><!DOCTYPE svg PUBLIC "-//W3C//DTD SVG 1.1//EN" "http://www.w3.org/Graphics/SVG/1.1/DTD/svg11.dtd"><svg t="1764147723842" class="icon" viewBox="0 0 1024 1024" version="1.1" xmlns="http://www.w3.org/2000/svg" p-id="7450" width="32" height="32" xmlns:xlink="http://www.w3.org/1999/xlink"><path d="M960.2576 1024H63.7456A63.776 63.776 0 0 1 0.0016 959.776V64.224C0.0016 28.736 28.7376 0 63.7456 0h896C995.2976 0 1024.0016 28.736 1024.0016 64.224v896.032A64 64 0 0 1 960.2576 1024z" fill="#8080FF" p-id="7451"></path><path d="M504.6416 224c117.536 0 245.024 37.12 245.024 107.68v191.2l-6.72-9.888a144.288 144.288 0 0 0-40.384-37.216l-3.168-3.2 3.2-3.52c3.328-6.72 6.688-10.112 6.688-13.44v-63.776c-43.648 26.88-120.672 43.936-204.64 43.936-84 0-161.408-17.056-205.088-43.936v63.744c0 20.16 43.936 50.688 134.592 57.408h6.72l-3.552 6.72c-6.72 10.08-13.28 20.032-16.64 30.08v3.584h-3.52c-33.6-3.36-84-13.696-117.6-37.216v37.216c0 20.16 33.6 43.36 104.128 53.44h3.584v43.936h-6.752c-40.32-6.72-77.44-20.224-100.96-33.664v56.992c0 20.16 50.624 47.168 134.592 60.608h3.168c6.72 13.44 13.696 20 23.744 30.08l6.752 3.52-3.552 3.2c-6.72 3.36-9.92 6.72-16.64 6.72h-3.552C329.8576 768.16 256.0016 727.84 256.0016 674.08v-342.4C256.0016 261.152 383.6816 224 504.6416 224z m164.32 275.424c20.928 0 37.6 17.024 37.6 38.016 0 7.04-1.856 13.632-5.152 19.264l56.128 94.784c15.136 0.192 29.12 8.192 36.704 21.376a43.328 43.328 0 0 1-37.184 64.96c-23.68 0-42.784-19.392-42.784-43.168 0-14.72 7.36-27.808 18.56-35.584l-50.72-86.016a37.44 37.44 0 0 1-16.448 2.24l-42.56 111.392c12.384 9.216 20.384 24.064 20.384 40.8 0 28-22.336 50.688-50.24 50.688a50.752 50.752 0 0 1-38.848-83.2l-50.368-70.72a38.08 38.08 0 1 1-11.84-74.112 37.984 37.984 0 0 1 31.712 58.88l50.592 71.36a50.464 50.464 0 0 1 25.504-3.104l42.816-112.288a38.048 38.048 0 0 1 26.144-65.568z m-167.584-231.776c-134.368 0-205.056 40.256-205.056 63.744 0 23.52 67.36 63.744 205.056 63.744 137.696 0 204.64-40.224 204.672-63.744 0-23.488-70.304-63.744-204.672-63.744z" fill="#FFFFFF" p-id="7452"></path></svg>