<svg width="20" height="20" viewBox="0 0 20 20" fill="none"
    xmlns="http://www.w3.org/2000/svg">
    <g clip-path="url(#clip0_3429_20844)">
        <path d="M0.800049 2.00005C0.800049 1.33731 1.33731 0.800049 2.00005 0.800049H18C18.6628 0.800049 19.2 1.33731 19.2 2.00005V18C19.2 18.6628 18.6628 19.2 18 19.2H2.00005C1.33731 19.2 0.800049 18.6628 0.800049 18V2.00005Z" fill="#15CEAA"/>
        <path d="M4.31439 4.31439V6.50064C4.31439 6.61659 4.26833 6.72778 4.18634 6.80977C4.10436 6.89175 3.99316 6.93781 3.87722 6.93781C3.76127 6.93781 3.65008 6.89175 3.56809 6.80977C3.48611 6.72778 3.44005 6.61659 3.44005 6.50064V3.87681C3.44005 3.76097 3.48606 3.64988 3.56797 3.56797C3.64988 3.48607 3.76097 3.44005 3.8768 3.44005H6.50146C6.6173 3.44005 6.72839 3.48607 6.8103 3.56797C6.89221 3.64988 6.93822 3.76097 6.93822 3.87681C6.93822 3.99264 6.89221 4.10373 6.8103 4.18564C6.72839 4.26755 6.6173 4.31356 6.50146 4.31356H4.31356L4.31439 4.31439ZM16.4315 3.56778C16.5139 3.65019 16.56 3.76144 16.56 3.87763V6.50146C16.56 6.61752 16.5139 6.72882 16.4319 6.81088C16.3498 6.89294 16.2385 6.93905 16.1225 6.93905C16.0064 6.93905 15.8951 6.89294 15.8131 6.81088C15.731 6.72882 15.6849 6.61752 15.6849 6.50146V4.31521H13.4986C13.3826 4.31521 13.2713 4.26911 13.1892 4.18705C13.1072 4.10499 13.0611 3.99368 13.0611 3.87763C13.0611 3.76158 13.1072 3.65028 13.1892 3.56822C13.2713 3.48615 13.3826 3.44005 13.4986 3.44005H16.1225C16.1798 3.44 16.2367 3.45126 16.2897 3.47317C16.3427 3.49509 16.3909 3.52724 16.4315 3.56778ZM4.31439 15.6857H6.50146C6.61741 15.6857 6.7286 15.7318 6.81059 15.8137C6.89257 15.8957 6.93863 16.0069 6.93863 16.1229C6.93863 16.2388 6.89257 16.35 6.81059 16.432C6.7286 16.514 6.61741 16.56 6.50146 16.56H3.8768C3.81945 16.56 3.76265 16.5487 3.70967 16.5268C3.65668 16.5048 3.60853 16.4727 3.56797 16.4321C3.52741 16.3916 3.49524 16.3434 3.47329 16.2904C3.45135 16.2374 3.44005 16.1806 3.44005 16.1233V13.4995C3.44005 13.3835 3.48611 13.2723 3.56809 13.1903C3.65008 13.1083 3.76127 13.0623 3.87722 13.0623C3.99316 13.0623 4.10436 13.1083 4.18634 13.1903C4.26833 13.2723 4.31439 13.3835 4.31439 13.4995V15.6857ZM16.4315 16.4323C16.3491 16.5147 16.2387 16.5609 16.1225 16.56H13.4986C13.3828 16.56 13.2717 16.514 13.1898 16.4321C13.1079 16.3502 13.0619 16.2391 13.0619 16.1233C13.0619 16.0074 13.1079 15.8964 13.1898 15.8145C13.2717 15.7325 13.3828 15.6865 13.4986 15.6865H15.6849V13.4995C15.6849 13.3835 15.7309 13.2723 15.8129 13.1903C15.8949 13.1083 16.0061 13.0623 16.1221 13.0623C16.238 13.0623 16.3492 13.1083 16.4312 13.1903C16.5132 13.2723 16.5592 13.3835 16.5592 13.4995V16.1233C16.5592 16.2387 16.5139 16.3499 16.4315 16.4323ZM6.06471 13.4986H13.9362C14.0523 13.4986 14.1636 13.5447 14.2456 13.6268C14.3277 13.7089 14.3738 13.8202 14.3738 13.9362C14.3738 14.0523 14.3277 14.1636 14.2456 14.2456C14.1636 14.3277 14.0523 14.3738 13.9362 14.3738H6.06388C5.94794 14.3738 5.83674 14.3277 5.75476 14.2457C5.67277 14.1638 5.62671 14.0526 5.62671 13.9366C5.62671 13.8207 5.67277 13.7095 5.75476 13.6275C5.83674 13.5455 5.94794 13.4995 6.06388 13.4995L6.06471 13.4986ZM13.9362 11.75C14.0522 11.75 14.1634 11.796 14.2453 11.878C14.3273 11.96 14.3734 12.0712 14.3734 12.1871C14.3734 12.3031 14.3273 12.4143 14.2453 12.4962C14.1634 12.5782 14.0522 12.6243 13.9362 12.6243H6.06388C5.94794 12.6243 5.83674 12.5782 5.75476 12.4962C5.67277 12.4143 5.62671 12.3031 5.62671 12.1871C5.62671 12.0712 5.67277 11.96 5.75476 11.878C5.83674 11.796 5.94794 11.75 6.06388 11.75H13.9362ZM11.3116 9.5637H13.9354C14.0514 9.5637 14.1627 9.6098 14.2448 9.69187C14.3269 9.77393 14.373 9.88523 14.373 10.0013C14.373 10.1173 14.3269 10.2286 14.2448 10.3107C14.1627 10.3928 14.0514 10.4389 13.9354 10.4389H11.3116C11.1955 10.4389 11.0842 10.3928 11.0021 10.3107C10.9201 10.2286 10.874 10.1173 10.874 10.0013C10.874 9.88523 10.9201 9.77393 11.0021 9.69187C11.0842 9.6098 11.1955 9.5637 11.3116 9.5637ZM11.3116 7.81503H13.9354C14.0513 7.81503 14.1625 7.86109 14.2445 7.94307C14.3265 8.02506 14.3726 8.13625 14.3726 8.2522C14.3726 8.36814 14.3265 8.47934 14.2445 8.56132C14.1625 8.64331 14.0513 8.68937 13.9354 8.68937H11.3116C11.1956 8.68937 11.0844 8.64331 11.0024 8.56132C10.9204 8.47934 10.8744 8.36814 10.8744 8.2522C10.8744 8.13625 10.9204 8.02506 11.0024 7.94307C11.0844 7.86109 11.1956 7.81503 11.3116 7.81503ZM11.3116 6.06553H13.9354C14.0513 6.06553 14.1625 6.11159 14.2445 6.19358C14.3265 6.27556 14.3726 6.38676 14.3726 6.5027C14.3726 6.61865 14.3265 6.72984 14.2445 6.81183C14.1625 6.89381 14.0513 6.93987 13.9354 6.93987H11.3116C11.1956 6.93987 11.0844 6.89381 11.0024 6.81183C10.9204 6.72984 10.8744 6.61865 10.8744 6.5027C10.8744 6.38676 10.9204 6.27556 11.0024 6.19358C11.0844 6.11159 11.1956 6.06553 11.3116 6.06553ZM7.3758 9.99963V6.50146H6.50146V6.93822C6.50146 7.05427 6.45536 7.16557 6.3733 7.24764C6.29124 7.3297 6.17994 7.3758 6.06388 7.3758C5.94783 7.3758 5.83653 7.3297 5.75447 7.24764C5.67241 7.16557 5.6263 7.05427 5.6263 6.93822V6.06388C5.62619 6.00639 5.63744 5.94944 5.65939 5.8963C5.68134 5.84316 5.71357 5.79488 5.75423 5.75423C5.79488 5.71357 5.84316 5.68134 5.8963 5.65939C5.94944 5.63744 6.00639 5.6262 6.06388 5.6263H9.56288C9.62024 5.6263 9.67703 5.6376 9.73002 5.65955C9.78301 5.6815 9.83116 5.71367 9.87171 5.75423C9.91227 5.79478 9.94444 5.84293 9.96639 5.89592C9.98834 5.94891 9.99964 6.0057 9.99964 6.06306V6.93822C9.99964 7.05417 9.95358 7.16536 9.87159 7.24735C9.78961 7.32933 9.67841 7.37539 9.56247 7.37539C9.44652 7.37539 9.33533 7.32933 9.25334 7.24735C9.17136 7.16536 9.1253 7.05417 9.1253 6.93822V6.50146H8.25014V9.99963H8.68772C8.80377 9.99963 8.91507 10.0457 8.99714 10.1278C9.0792 10.2099 9.1253 10.3212 9.1253 10.4372C9.1253 10.5533 9.0792 10.6646 8.99714 10.7466C8.91507 10.8287 8.80377 10.8748 8.68772 10.8748H6.93905C6.82299 10.8748 6.71169 10.8287 6.62963 10.7466C6.54757 10.6646 6.50146 10.5533 6.50146 10.4372C6.50146 10.3212 6.54757 10.2099 6.62963 10.1278C6.71169 10.0457 6.82299 9.99963 6.93905 9.99963H7.3758Z" fill="white"/>
    </g>
    <defs>
        <clipPath id="clip0_3429_20844">
            <rect width="20" height="20" fill="white"/>
        </clipPath>
    </defs>
</svg>
