<svg width="200" height="200" viewBox="0 0 200 200" fill="none" xmlns="http://www.w3.org/2000/svg">
<rect width="200" height="200" rx="16" fill="#15CEAA"/>
<path d="M151.082 31.6711H137.811V26.296C137.811 22.8131 134.996 20 131.51 20C128.025 20 125.21 22.8131 125.21 26.296V31.6711H74.8067V26.296C74.8067 22.8131 71.9916 20 68.5063 20C65.0209 20 62.2059 22.8131 62.2059 26.296V31.6711H48.9013C38.4788 31.6711 30 40.144 30 50.5593V151.112C30 161.527 38.4788 170 48.9013 170H151.099C161.521 170 170 161.527 170 151.112V50.5593C169.983 40.144 161.504 31.6711 151.082 31.6711ZM48.9013 44.2632H62.2059V52.2672C62.2059 55.7502 65.0209 58.5633 68.5063 58.5633C71.9916 58.5633 74.8067 55.7502 74.8067 52.2672V44.2632H125.21V52.2672C125.21 55.7502 128.025 58.5633 131.51 58.5633C134.996 58.5633 137.811 55.7502 137.811 52.2672V44.2632H151.082C154.551 44.2632 157.382 47.0931 157.382 50.5593V65.3115H42.6008V50.5593C42.6008 47.0931 45.4159 44.2632 48.9013 44.2632ZM151.082 157.408H48.9013C45.4327 157.408 42.6008 154.578 42.6008 151.112V77.9203H157.399V151.129C157.382 154.578 154.567 157.408 151.082 157.408Z" fill="white"/>
<path d="M133.573 100H56.4273C52.8718 100 50 101.959 50 104.384C50 106.809 52.8718 108.768 56.4273 108.768H133.573C137.128 108.768 140 106.809 140 104.384C140 101.959 137.111 100 133.573 100ZM133.573 121.232H56.4273C52.8718 121.232 50 123.191 50 125.616C50 128.041 52.8718 130 56.4273 130H133.573C137.128 130 140 128.041 140 125.616C140 123.191 137.111 121.232 133.573 121.232Z" fill="white"/>
</svg>
