<svg width="20" height="20" viewBox="0 0 20 20" fill="none" xmlns="http://www.w3.org/2000/svg">
<g clip-path="url(#clip0_10312_6582)">
<path d="M2.72727 0H17.2727C17.996 0 18.6897 0.287337 19.2012 0.7988C19.7127 1.31026 20 2.00396 20 2.72727V17.2727C20 17.996 19.7127 18.6897 19.2012 19.2012C18.6897 19.7127 17.996 20 17.2727 20H2.72727C2.00396 20 1.31026 19.7127 0.7988 19.2012C0.287337 18.6897 0 17.996 0 17.2727L0 2.72727C0 2.00396 0.287337 1.31026 0.7988 0.7988C1.31026 0.287337 2.00396 0 2.72727 0ZM14.8021 13.4182C14.7359 13.2132 14.6074 13.034 14.4345 12.9055C14.2519 12.7699 14.0506 12.6614 13.837 12.5833C13.6084 12.4984 13.3762 12.4239 13.1409 12.36C12.916 12.2995 12.6945 12.2271 12.4773 12.143C12.25 12.0552 12.0724 11.9545 11.9455 11.8406C11.8185 11.7267 11.7267 11.6061 11.6697 11.4791C11.6151 11.3609 11.5818 11.234 11.5712 11.1042C11.5624 10.9815 11.5712 10.8588 11.5976 10.7364C11.6324 10.5345 11.6982 10.3921 11.7945 10.3091C11.8909 10.2258 12.0133 10.1227 12.1621 10C12.2324 9.94758 12.2915 9.87091 12.3397 9.7697C12.3879 9.66909 12.4336 9.56606 12.4776 9.46091C12.5212 9.34697 12.5606 9.22 12.5958 9.0797C12.6482 9.05333 12.6964 9.0097 12.74 8.94818C12.7839 8.89576 12.8233 8.81909 12.8582 8.71818C12.8933 8.61758 12.9197 8.47939 12.937 8.30394C12.9533 8.19525 12.96 8.08533 12.957 7.97545C12.9538 7.90065 12.9472 7.82603 12.9373 7.75182C12.9304 7.69793 12.9172 7.64503 12.8979 7.59424C12.8887 7.27317 12.8624 6.95282 12.8191 6.63455C12.7706 6.33399 12.7003 6.03735 12.6088 5.74697C12.5123 5.43571 12.3611 5.14417 12.1621 4.88606C12.0748 4.77212 11.9936 4.68424 11.9194 4.62303C11.8541 4.56677 11.7782 4.5243 11.6961 4.49818C11.6214 4.47615 11.5439 4.46503 11.4661 4.46515H11.2167C11.1565 4.40491 11.0974 4.34359 11.0394 4.28121C10.9803 4.21822 10.9116 4.16503 10.8358 4.12364C10.757 4.0797 10.6539 4.04242 10.527 4.01152C10.3648 3.9756 10.2002 3.9515 10.0345 3.93939C9.85061 3.93939 9.65818 3.95455 9.45667 3.98545C9.25182 4.01704 9.0513 4.07215 8.85909 4.1497C8.66212 4.22848 8.47151 4.34061 8.28788 4.48485C8.09244 4.64175 7.92004 4.82537 7.77576 5.0303C7.59865 5.27089 7.46925 5.54317 7.39455 5.83242C7.31576 6.13061 7.25879 6.40667 7.22394 6.66061C7.18892 6.96613 7.17132 7.27339 7.17121 7.58091C7.13399 7.65943 7.11179 7.74422 7.10576 7.83091C7.08818 7.9097 7.08606 8.00364 7.09909 8.11333C7.11212 8.22303 7.14061 8.34788 7.18455 8.48818C7.21698 8.59798 7.25646 8.70558 7.30273 8.8103C7.33788 8.88485 7.36848 8.94364 7.39455 8.98788C7.4297 9.03152 7.45606 9.06212 7.47333 9.0797C7.50848 9.22 7.54788 9.34697 7.59152 9.46091C7.63545 9.56606 7.68152 9.66909 7.7297 9.77C7.77758 9.87091 7.83697 9.94758 7.90697 10.0003C8.03818 10.1139 8.15849 10.2236 8.26788 10.3288C8.37758 10.4339 8.44091 10.5827 8.45848 10.7758C8.46727 10.9073 8.47152 11.0255 8.47152 11.1306C8.47152 11.2358 8.45182 11.3367 8.41242 11.433C8.37303 11.5294 8.30758 11.6258 8.21546 11.7221C8.12364 11.8185 7.99424 11.9194 7.82818 12.0245C7.61788 12.1648 7.37061 12.27 7.08576 12.34C6.81053 12.4074 6.53887 12.4886 6.27182 12.5833C6.02476 12.6692 5.79387 12.7959 5.58879 12.9582C5.39182 13.1158 5.27121 13.3436 5.22758 13.6415C5.14879 14.1676 5.13121 14.5948 5.17485 14.9233C5.21879 15.2521 5.28 15.4473 5.35879 15.5082C5.40273 15.5524 5.51879 15.5939 5.70697 15.6333C6.22591 15.7401 6.74977 15.8213 7.27667 15.8767C7.6003 15.9115 7.92667 15.9424 8.25485 15.9685C8.58333 15.9948 8.90273 16.017 9.21364 16.0342C9.52455 16.0518 9.79818 16.0606 10.0345 16.0606C10.2709 16.0606 10.5467 16.0539 10.8618 16.0409C11.177 16.0279 11.5012 16.0058 11.8339 15.9752C12.1674 15.9444 12.5002 15.9071 12.8321 15.8633C13.1351 15.8241 13.4372 15.7781 13.7382 15.7255C14.0097 15.677 14.2352 15.6245 14.4148 15.5679C14.5942 15.5106 14.7058 15.4515 14.7497 15.3903C14.8109 15.3024 14.857 15.1733 14.8876 15.0024C14.9182 14.8315 14.9336 14.6497 14.9336 14.457C14.9336 14.2639 14.9203 14.0733 14.8942 13.8848C14.8741 13.7274 14.8433 13.5715 14.8021 13.4182ZM10.5861 12.9842C10.5164 13.1245 10.457 13.2364 10.4088 13.3197C10.3699 13.3915 10.3188 13.456 10.2579 13.5103C10.2842 13.5979 10.3148 13.7164 10.3497 13.8652C10.3848 14.0142 10.4176 14.1676 10.4482 14.3252C10.4788 14.483 10.5073 14.6255 10.5336 14.7524C10.56 14.8797 10.573 14.9694 10.573 15.0221C10.573 15.0658 10.5533 15.1206 10.5139 15.1864C10.4745 15.2521 10.4264 15.3136 10.3694 15.3703C10.3146 15.4256 10.2553 15.4763 10.1921 15.5218C10.1309 15.5655 10.0785 15.5873 10.0345 15.5873C9.99091 15.5873 9.94061 15.5655 9.88364 15.5215C9.82253 15.4735 9.76738 15.4184 9.71939 15.3573C9.6702 15.2961 9.62418 15.2325 9.58152 15.1667C9.54212 15.1055 9.52242 15.0527 9.52242 15.0091C9.52242 14.9388 9.53333 14.8358 9.55515 14.7C9.6029 14.4042 9.66203 14.1103 9.73242 13.8191C9.76758 13.6745 9.79364 13.5627 9.81121 13.4839C9.75114 13.4203 9.70227 13.3469 9.66667 13.267C9.61514 13.1591 9.56261 13.0517 9.50909 12.9448C9.49616 12.9232 9.48882 12.8986 9.48771 12.8734C9.4866 12.8482 9.49176 12.823 9.50273 12.8003C9.52455 12.7476 9.55303 12.6994 9.58788 12.6558C9.62303 12.603 9.67121 12.5461 9.73242 12.4848H10.3367C10.3979 12.5461 10.4506 12.603 10.4942 12.6558C10.5379 12.7082 10.5709 12.763 10.5927 12.82C10.6036 12.8462 10.6087 12.8745 10.6075 12.9029C10.6063 12.9312 10.599 12.959 10.5861 12.9842Z" fill="#1AA5DD"/>
</g>
<defs>
<clipPath id="clip0_10312_6582">
<rect width="20" height="20" fill="white"/>
</clipPath>
</defs>
</svg>
