<svg width="32" height="32" viewBox="0 0 32 32" fill="none" xmlns="http://www.w3.org/2000/svg">
<g clip-path="url(#clip0_3706_1489)">
<path d="M30.0083 32H1.9917C0.882597 32 0 31.1018 0 29.9927V2.00732C0 0.898218 0.898218 0 1.9917 0H29.9927C31.1018 0 32 0.898218 32 2.00732V30.0083C32 31.1018 31.1018 32 30.0083 32Z" fill="#8080FF"/>
<path fill-rule="evenodd" clip-rule="evenodd" d="M15.5717 8.00001C16.9262 7.9987 18.0613 8.98724 18.1974 10.2867C18.3335 11.5861 17.4263 12.7735 16.099 13.0334V14.1438C16.9979 14.29 17.7878 14.803 18.2661 15.5513C18.7444 16.2996 18.8647 17.2105 18.5961 18.0506L19.7139 18.5936C20.7056 17.707 22.232 17.6876 23.2475 18.5487C24.2629 19.4099 24.438 20.8722 23.6528 21.9338C22.8675 22.9954 21.3766 23.312 20.2016 22.6666C19.0266 22.0212 18.5485 20.6232 19.0949 19.4304L18.1216 18.9586C17.5257 19.7413 16.5786 20.2032 15.5717 20.2022C14.591 20.2022 13.7136 19.7721 13.1337 19.0959L12.1371 19.6521C12.5658 20.8898 11.9531 22.2395 10.7192 22.7753C9.48527 23.3112 8.03101 22.8591 7.35393 21.7293C6.67686 20.5995 6.99689 19.1588 8.0945 18.3955C9.19211 17.6323 10.7108 17.7943 11.6088 18.7705L12.6053 18.2153C12.2762 17.3628 12.3588 16.4131 12.8306 15.6253C13.3024 14.8376 14.1142 14.294 15.0445 14.1428V13.0344C13.7146 12.7768 12.8045 11.5881 12.9408 10.2867C13.0771 8.98532 14.2153 7.99608 15.5717 8.00001ZM9.63492 18.9319C9.0698 18.9319 8.5476 19.2226 8.26504 19.6946C7.98248 20.1665 7.98248 20.7479 8.26504 21.2198C8.5476 21.6917 9.0698 21.9825 9.63492 21.9825C10.5085 21.9825 11.2167 21.2996 11.2167 20.4572C11.2167 19.6148 10.5085 18.9319 9.63492 18.9319ZM20.1389 19.6946C20.4215 19.2226 20.9437 18.9319 21.5088 18.9319C22.3824 18.9319 23.0906 19.6148 23.0906 20.4572C23.0906 21.2996 22.3824 21.9825 21.5088 21.9825C20.9437 21.9825 20.4215 21.6917 20.1389 21.2198C19.8563 20.7479 19.8563 20.1665 20.1389 19.6946ZM15.5716 15.1191C14.8181 15.1191 14.1219 15.5068 13.7451 16.136C13.3684 16.7652 13.3684 17.5405 13.7451 18.1697C14.1219 18.7989 14.8181 19.1865 15.5716 19.1865C16.7365 19.1865 17.6807 18.276 17.6807 17.1528C17.6807 16.0297 16.7365 15.1191 15.5716 15.1191ZM13.9899 10.5423C13.9899 9.6999 14.6981 9.01701 15.5717 9.01701C16.4453 9.01701 17.1535 9.6999 17.1535 10.5423C17.1535 11.3847 16.4453 12.0676 15.5717 12.0676C14.6981 12.0676 13.9899 11.3847 13.9899 10.5423Z" fill="white"/>
</g>
<defs>
<clipPath id="clip0_3706_1489">
<rect width="32" height="32" rx="4" fill="white"/>
</clipPath>
</defs>
</svg>
