<?xml version="1.0" standalone="no"?><!DOCTYPE svg PUBLIC "-//W3C//DTD SVG 1.1//EN" "http://www.w3.org/Graphics/SVG/1.1/DTD/svg11.dtd"><svg t="1755221875637" class="icon" viewBox="0 0 1024 1024" version="1.1" xmlns="http://www.w3.org/2000/svg" p-id="20449" xmlns:xlink="http://www.w3.org/1999/xlink" width="200" height="200"><path d="M0 0m123 0l778 0q123 0 123 123l0 778q0 123-123 123l-778 0q-123 0-123-123l0-778q0-123 123-123Z" fill="#14CEAA" p-id="20450"></path><path d="M352 424m28 0l264 0q28 0 28 28l0 0q0 28-28 28l-264 0q-28 0-28-28l0 0q0-28 28-28Z" fill="#14CEAA" p-id="20451"></path><path d="M352 540m28 0l264 0q28 0 28 28l0 0q0 28-28 28l-264 0q-28 0-28-28l0 0q0-28 28-28Z" fill="#14CEAA" p-id="20452"></path><path d="M352 656m28 0l264 0q28 0 28 28l0 0q0 28-28 28l-264 0q-28 0-28-28l0 0q0-28 28-28Z" fill="#14CEAA" p-id="20453"></path><path d="M404.588 609.953v168.44H249.676c-18.59-0.023-33.655-15.721-33.676-35.093V609.953h188.588z m188.588 0v168.44H431.53v-168.44h161.647z m-188.588-168.44v140.366H216V441.513h188.588z m188.588 0v140.366H431.53V441.513h161.647z m215.53 0v64.274H620.118v-64.274h188.588zM775.03 245c18.59 0.022 33.655 15.72 33.676 35.091V413.44H216V280.09c0.02-19.371 15.086-35.07 33.676-35.091zM768.862 543.73c48.955 0 92.393 11.349 119.7 28.854 18.796 12.071 29.924 27.075 29.924 43.282v163.51c0 39.82-67.003 72.136-149.624 72.136-82.62 0-149.624-32.317-149.624-72.136V615.77c0.046-16.207 11.175-31.163 29.924-43.186 27.307-17.505 70.745-28.854 119.7-28.854z m119.7 223.96c-27.307 17.505-70.745 28.854-119.7 28.854s-92.393-11.35-119.7-28.854v11.686c0 3.991 7.248 13.802 26.606 23.131 11.362 5.483 25.436 10.003 40.679 13.13 16.505 3.366 34.18 5.097 52.415 5.097s35.863-1.731 52.415-5.098c15.243-3.077 29.317-7.646 40.68-13.129 19.357-9.33 26.604-19.14 26.604-23.131z m0-54.968c-27.307 17.505-70.745 28.854-119.7 28.854s-92.393-11.35-119.7-28.854v11.686c0 3.991 7.248 13.802 26.606 23.131 11.362 5.483 25.436 10.003 40.679 13.13 16.505 3.366 34.18 5.097 52.415 5.097s35.863-1.731 52.415-5.098c15.243-3.078 29.317-7.646 40.68-13.129 19.357-9.33 26.604-19.14 26.604-23.131z m0-53.526c-27.307 17.505-70.745 28.855-119.7 28.855s-92.393-11.35-119.7-28.855v10.292c0 3.991 7.248 13.802 26.606 23.131 11.362 5.483 25.436 10.003 40.679 13.13 16.505 3.366 34.18 5.097 52.415 5.097s35.863-1.731 52.415-5.098c15.243-3.078 29.317-7.646 40.68-13.129 19.357-9.33 26.604-19.14 26.604-23.131z" fill="#FFFFFF" p-id="20454"></path></svg>