<svg width="20" height="20" viewBox="0 0 20 20" fill="none" xmlns="http://www.w3.org/2000/svg">
<g clip-path="url(#clip0_12120_1839)">
<path d="M18.8928 10.1834C19.7558 9.31941 19.8558 8.43881 19.7259 7.61621L18.7007 2.98381C18.5714 2.16031 17.7911 1.38101 16.9703 1.25021L12.3432 0.22601C12.2283 0.208413 12.1122 0.199787 11.996 0.20021C11.2206 0.20021 10.2874 0.54841 9.77779 1.05871L0.655994 10.192C0.0677937 10.7806 0.0677937 11.7451 0.655994 12.3346L7.63029 19.3158C7.92469 19.6102 8.31289 19.7576 8.70099 19.7576C9.08879 19.7576 9.47659 19.6104 9.77059 19.3158L18.8928 10.1834ZM8.70099 18.5874C8.64709 18.5874 8.54389 18.5745 8.45809 18.4888L1.48429 11.5081C1.35179 11.3754 1.35159 11.1515 1.48389 11.019L10.6059 1.88551C10.8846 1.60631 11.5213 1.37041 11.996 1.37041C12.057 1.37041 12.1125 1.37421 12.1601 1.38181L16.7874 2.40601C16.9358 2.43001 17.1194 2.53661 17.2671 2.68441C17.4151 2.83251 17.5215 3.01681 17.5448 3.16551L17.5449 3.16621L17.5451 3.16691L18.5701 7.79861C18.6562 8.34391 18.6032 8.81751 18.0649 9.35641L8.94209 18.4893C8.85699 18.5747 8.75449 18.5874 8.70099 18.5874Z" fill="#505050"/>
<path d="M13.9215 4.08008C12.8895 4.08008 12.0527 4.91688 12.0527 5.94888C12.0527 6.98188 12.8895 7.81778 13.922 7.81778C14.9536 7.81778 15.7908 6.98008 15.7904 5.94888C15.7895 4.91688 14.9527 4.08008 13.9215 4.08008Z" fill="#505050"/>
</g>
<defs>
<clipPath id="clip0_12120_1839">
<rect width="20" height="20" fill="white"/>
</clipPath>
</defs>
</svg>
