<svg width="20" height="20" viewBox="0 0 20 20" fill="none" xmlns="http://www.w3.org/2000/svg">
<path d="M10.1331 2.22677C12.447 2.22677 14.3295 4.10947 14.3295 6.42367C14.3295 8.73777 12.447 10.6207 10.133 10.6207C9.53403 10.6207 8.95553 10.4974 8.41473 10.2548C6.90943 9.57807 5.93663 8.07447 5.93663 6.42357C5.93663 4.10937 7.81913 2.22677 10.133 2.22677M10.133 1.15527C7.22333 1.15527 4.86523 3.51397 4.86523 6.42357C4.86523 8.56417 6.14203 10.408 7.97543 11.232C8.654 11.5362 9.38939 11.693 10.133 11.692C13.0437 11.692 15.4009 9.33267 15.4009 6.42357C15.4009 3.51397 13.0437 1.15527 10.133 1.15527Z" fill="#505050"/>
<path d="M10 11.7083C14.14 11.7083 17.511 14.8703 17.6695 18.8288H18.75C18.5909 14.2944 14.7368 10.6655 10 10.6655C5.265 10.6655 1.4092 14.2944 1.25 18.8288H2.3306C2.4891 14.8702 5.8613 11.7082 10 11.7082V11.7083Z" fill="#505050"/>
</svg>
