<svg width="14" height="14" viewBox="0 0 14 14" fill="none" xmlns="http://www.w3.org/2000/svg">
<path d="M12.8069 2.63458V7.46628C12.8374 8.06294 12.7855 8.66095 12.6526 9.24344C12.0798 11.1607 10.6277 12.2708 8.9796 13.1115C8.5579 13.3179 8.12605 13.503 7.68571 13.6659C7.48841 13.7504 7.28332 13.8154 7.07338 13.86C6.81039 13.8431 6.5532 13.7752 6.31613 13.6601C5.70631 13.441 5.11496 13.1735 4.54771 12.8602C3.01575 11.958 1.76327 10.9265 1.27838 8.96946C1.19523 8.48901 1.16637 8.00073 1.19234 7.51383V1.97567C1.1797 1.83843 1.19064 1.70003 1.22468 1.56648C1.26714 1.46876 1.33833 1.38629 1.4288 1.33002C1.56059 1.27654 1.69957 1.24285 1.84122 1.23007L2.70295 1.07092L6.98443 0.280029C7.16878 0.288387 7.35145 0.318905 7.52851 0.370925L8.50798 0.552716L11.3241 1.07545L12.1584 1.23007L12.5029 1.29832C12.6002 1.339 12.6826 1.40883 12.7387 1.49822C12.8567 1.6936 12.8069 2.31467 12.8069 2.63458ZM11.8365 6.57544V2.15617L7.03424 1.26532L2.16437 2.15617V6.57447C2.16437 7.46014 2.11197 8.44478 2.32287 9.11502C2.73497 10.4241 3.74615 11.2328 4.81684 11.8878C5.33451 12.1931 5.87772 12.4529 6.44035 12.6642C6.62858 12.749 6.82439 12.8159 7.02518 12.8641L7.57508 12.6642C7.95095 12.5274 8.31627 12.3633 8.6681 12.1731C8.87447 12.0521 9.0857 11.9567 9.28463 11.8322C10.3679 11.1558 11.3131 10.3248 11.7197 8.96881C11.9064 8.34419 11.8365 7.37345 11.8365 6.57544ZM9.88694 9.33724C9.86619 9.412 9.8264 9.48008 9.77146 9.53485C9.71652 9.58963 9.64831 9.6292 9.57349 9.64972C9.49591 9.6692 9.41458 9.6681 9.33755 9.64655C9.26051 9.62499 9.19043 9.58372 9.13422 9.5268L6.50245 6.89471C6.11815 7.11316 5.66761 7.18468 5.23455 7.09597C4.80149 7.00727 4.41536 6.76437 4.1479 6.41241C3.86965 6.06926 3.72857 5.6351 3.75195 5.19394C3.77534 4.75277 3.96153 4.33596 4.27451 4.02416C4.58748 3.71235 5.00498 3.52772 5.44623 3.50598C5.88748 3.48424 6.32111 3.62694 6.66322 3.90647C7.01293 4.17495 7.25392 4.5607 7.34182 4.99273C7.42973 5.42476 7.35864 5.87401 7.14163 6.25779L7.50522 6.62105L8.45202 5.67781C8.53889 5.59837 8.65312 5.55563 8.77079 5.55852C8.88847 5.56142 9.00046 5.60973 9.08331 5.69334C9.16617 5.77695 9.21347 5.88937 9.2153 6.00707C9.21713 6.12476 9.17335 6.2386 9.09314 6.32475L8.14634 7.26702L8.80881 7.92949L9.11934 7.61993C9.20483 7.53703 9.31951 7.49108 9.43859 7.49201C9.55768 7.49295 9.67162 7.54068 9.7558 7.62491C9.83999 7.70914 9.88767 7.8231 9.88854 7.94219C9.88941 8.06127 9.84341 8.17592 9.76046 8.26138L9.44411 8.57676L9.76467 8.89732C9.82264 8.95293 9.86459 9.02312 9.8861 9.10052C9.90762 9.17793 9.90791 9.25969 9.88694 9.33724ZM6.2068 4.70836C6.07967 4.58665 5.91944 4.50516 5.74619 4.47412C5.57295 4.44308 5.3944 4.46386 5.23292 4.53386C5.07143 4.60386 4.9342 4.71996 4.83842 4.86762C4.74264 5.01528 4.69257 5.18792 4.69448 5.36391C4.6964 5.53991 4.75022 5.71142 4.84919 5.85696C4.94816 6.00249 5.08789 6.11558 5.25085 6.18205C5.41382 6.24852 5.59278 6.26541 5.76531 6.2306C5.93784 6.1958 6.09625 6.11085 6.22071 5.9864C6.38786 5.81483 6.48024 5.58403 6.47764 5.34451C6.47503 5.10499 6.37765 4.87625 6.2068 4.70836Z" fill="black"/>
</svg>
