<svg width="24" height="24" viewBox="0 0 24 24" fill="none" xmlns="http://www.w3.org/2000/svg">
<path fill-rule="evenodd" clip-rule="evenodd" d="M12 24C18.6274 24 24 18.6274 24 12C24 5.37258 18.6274 0 12 0C5.37258 0 0 5.37258 0 12C0 18.6274 5.37258 24 12 24Z" fill="url(#paint0_linear_1117_3777)"/>
<path opacity="0.25" d="M12.4927 12.3004L16.0418 10.3035V13.8893C16.0418 14.0445 15.9296 14.2282 15.7959 14.3066L12.2449 16.3049V12.7196C12.2444 12.5663 12.3561 12.3787 12.4927 12.3004Z" fill="white"/>
<path d="M8.17512 9.49189L11.7835 7.46022C11.9204 7.39217 12.0814 7.39217 12.2184 7.46022L15.789 9.47181L11.6003 11.8316C11.4793 11.8988 11.3818 12.0609 11.3818 12.197V16.0948L8.17561 14.2894C8.05463 14.2204 7.95863 14.0578 7.95863 13.9211V9.85924C7.95814 9.72308 8.05561 9.559 8.17512 9.49189Z" fill="white"/>
<path fill-rule="evenodd" clip-rule="evenodd" d="M11.7781 5.05203L6.22041 8.26362C6.09943 8.33416 6 8.50607 6 8.64616V15.0679C6 15.208 6.09943 15.3804 6.22041 15.4504L11.7781 18.6625C11.8462 18.698 11.9222 18.7159 11.999 18.7144C12.0793 18.7144 12.1592 18.6968 12.2204 18.6625L17.7781 15.4484C17.9011 15.3784 18 15.2065 18 15.0664V8.64518C17.9916 8.48947 17.9091 8.34722 17.7781 8.26265L12.2204 5.05203C12.1531 5.01627 12.0777 4.99839 12.0015 5.00011C11.9239 4.99882 11.8472 5.01666 11.7781 5.05203ZM12.002 17.4532L7.03251 14.6526V9.05373L12.002 6.25405L16.9729 9.05324V14.6506L12.002 17.4532Z" fill="white"/>
<defs>
<linearGradient id="paint0_linear_1117_3777" x1="6.44417" y1="-3.60874" x2="-6.10646" y2="17.7247" gradientUnits="userSpaceOnUse">
<stop stop-color="#1C4DFA"/>
<stop offset="1" stop-color="#3FA9F5"/>
</linearGradient>
</defs>
</svg>
