<svg width="1em" height="1em" viewBox="0 0 14 14" fill="none" xmlns="http://www.w3.org/2000/svg">
<g clip-path="url(#clip0_3209_4160)">
<path d="M1.08321 6.815V11.714C1.08321 12.404 1.64157 12.963 2.32955 12.963H11.729C11.8926 12.9631 12.0547 12.9309 12.2059 12.8682C12.3571 12.8055 12.4945 12.7135 12.6103 12.5975C12.726 12.4815 12.8178 12.3438 12.8805 12.1922C12.9431 12.0406 12.9754 11.8781 12.9754 11.714V2.286C12.9754 2.12189 12.9431 1.9594 12.8805 1.8078C12.8178 1.6562 12.726 1.51846 12.6103 1.40247C12.4945 1.28648 12.3571 1.1945 12.2059 1.13179C12.0547 1.06908 11.8926 1.03687 11.729 1.037H7.23817C7.10499 1.03113 6.9792 0.973941 6.88702 0.877345C6.79485 0.78075 6.7434 0.652204 6.7434 0.5185C6.7434 0.384796 6.79485 0.25625 6.88702 0.159654C6.9792 0.0630592 7.10499 0.00586755 7.23817 0L11.729 0C12.0283 -1.79542e-09 12.3247 0.0591291 12.6013 0.174011C12.8778 0.288894 13.1291 0.457279 13.3407 0.669554C13.5524 0.881829 13.7203 1.13384 13.8348 1.41119C13.9494 1.68854 14.0083 1.9858 14.0083 2.286V11.714C14.0083 12.0142 13.9494 12.3115 13.8348 12.5888C13.7203 12.8662 13.5524 13.1182 13.3407 13.3304C13.1291 13.5427 12.8778 13.7111 12.6013 13.826C12.3247 13.9409 12.0283 14 11.729 14H2.32856C1.72404 14 1.14429 13.7592 0.716833 13.3304C0.289377 12.9017 0.0492351 12.3203 0.0492351 11.714V6.815C0.046169 6.74499 0.0572697 6.67509 0.081868 6.6095C0.106466 6.54392 0.144053 6.484 0.192361 6.43338C0.24067 6.38275 0.2987 6.34246 0.362953 6.31494C0.427206 6.28741 0.496352 6.27322 0.566221 6.27322C0.636089 6.27322 0.705235 6.28741 0.769488 6.31494C0.833741 6.34246 0.891771 6.38275 0.94008 6.43338C0.988388 6.484 1.02597 6.54392 1.05057 6.6095C1.07517 6.67509 1.08627 6.74499 1.08321 6.815Z" fill="currentColor"/>
<path d="M0.538803 1.68431L0.778102 1.69631C2.31343 1.77887 3.77366 2.3888 4.91353 3.42367C6.05341 4.45853 6.80348 5.85528 7.03776 7.37931C7.06327 7.5111 7.1387 7.62786 7.24821 7.70505C7.35773 7.78225 7.49282 7.81388 7.62509 7.7933C7.75737 7.77272 7.87655 7.70153 7.95761 7.59469C8.03866 7.48784 8.07528 7.35366 8.05977 7.22031C7.78901 5.46129 6.92304 3.84927 5.60727 2.65492C4.29149 1.46057 2.60605 0.756633 0.833939 0.661308L0.59464 0.648308C0.525668 0.642494 0.456234 0.650616 0.390447 0.672193C0.324661 0.69377 0.263858 0.728364 0.21164 0.773928C0.159421 0.819491 0.116846 0.875098 0.0864357 0.937457C0.0560254 0.999816 0.0383974 1.06766 0.034595 1.13697C0.0307926 1.20629 0.040893 1.27566 0.0642986 1.34099C0.0877042 1.40632 0.123939 1.46627 0.170859 1.51731C0.217779 1.56834 0.27443 1.60941 0.337459 1.6381C0.400488 1.66679 0.468614 1.6825 0.537806 1.68431H0.538803Z" fill="currentColor"/>
<path d="M7.51833 7.21443L5.30781 6.00243C5.18817 5.94397 5.05069 5.93399 4.92391 5.97456C4.79712 6.01512 4.6908 6.1031 4.62701 6.22024C4.56323 6.33737 4.54688 6.47465 4.58138 6.60355C4.61588 6.73245 4.69856 6.84307 4.81226 6.91243L7.18032 8.21043C7.3665 8.31243 7.58426 8.34005 7.7899 8.28775C7.99554 8.23545 8.17386 8.10709 8.28907 7.92843L9.76874 5.63443C9.80775 5.57726 9.83496 5.51284 9.84876 5.44496C9.86257 5.37708 9.86268 5.30712 9.84909 5.2392C9.83551 5.17128 9.8085 5.10677 9.76967 5.04948C9.73084 4.99219 9.68096 4.94328 9.62298 4.90562C9.565 4.86797 9.5001 4.84234 9.43209 4.83024C9.36407 4.81814 9.29434 4.81982 9.22698 4.83518C9.15963 4.85054 9.09602 4.87927 9.03991 4.91967C8.9838 4.96007 8.93633 5.01133 8.90028 5.07043L7.51733 7.21443H7.51833Z" fill="currentColor"/>
</g>
<defs>
<clipPath id="clip0_3209_4160">
<rect width="1em" height="1em" fill="white"/>
</clipPath>
</defs>
</svg>
