<svg viewBox="0 0 200 200" fill="none" xmlns="http://www.w3.org/2000/svg">
<rect width="200" height="200" fill="#EEEFFD"/>
<rect x="46" y="62" width="92" height="92" rx="10" fill="#7B70F5" fill-opacity="0.2"/>
<rect x="62" y="46" width="92" height="92" rx="10" fill="#7B70F5"/>
<path d="M102.938 71.4125C101.25 74.1125 102.263 77.825 105.3 79.5125C108 81.2 111.713 80.1875 113.4 77.4875C115.088 74.7875 114.075 71.075 111.375 69.3875C110.025 68.7125 108.338 68.375 106.988 68.7125C104.963 69.05 103.613 70.0625 102.938 71.4125ZM129.938 100.1C127.913 98.075 125.213 97.7375 122.85 99.0875C120.488 100.437 119.475 103.137 120.15 105.5C120.488 106.85 121.5 108.2 122.85 109.212C125.55 110.9 129.263 109.887 130.95 107.187C132.3 105.162 131.963 102.125 129.938 100.1ZM123.525 94.3625C124.875 94.025 126.563 94.025 127.913 94.3625V81.875L117.788 77.15C117.45 78.5 116.438 79.85 115.425 80.8625L123.525 84.2375V94.3625ZM84.7125 105.837C85.05 107.187 86.0625 108.537 87.4125 109.55C88.7625 110.225 90.45 110.562 91.8 110.225C93.15 109.887 94.5 108.875 95.5125 107.525C96.525 105.837 96.525 103.475 95.5125 101.787C94.5 100.1 92.475 98.75 90.45 98.75C88.425 98.75 86.4 99.7625 85.3875 101.787C84.375 102.8 84.0375 104.15 84.7125 105.837ZM92.475 94.3625V84.575L100.238 81.2C99.225 80.1875 98.55 78.8375 97.875 77.4875L87.75 82.2125V94.7C89.775 94.025 91.125 94.025 92.475 94.3625ZM108 110.562L100.238 107.187C99.9 107.862 99.5625 108.875 99.225 109.55C98.8875 110.225 98.55 110.562 98.2125 111.237L108.338 115.625L118.463 111.237C117.45 110.225 116.775 108.875 116.1 107.525L108 110.562Z" fill="white"/>
</svg>
