<svg viewBox="0 0 200 200" fill="none" xmlns="http://www.w3.org/2000/svg">
<rect width="200" height="200" fill="#E6F2FE"/>
<rect x="46" y="62" width="92" height="92" rx="10" fill="#55ADF9" fill-opacity="0.2"/>
<rect x="62" y="46" width="92" height="92" rx="10" fill="#55ADF9"/>
<path d="M129.394 72.8469L127.158 70.6109C127.074 70.5265 126.969 70.4896 126.858 70.4896C126.747 70.4896 126.642 70.5318 126.557 70.6109L122.544 74.624C120.767 73.4164 118.7 72.8152 116.633 72.8152C113.933 72.8152 111.233 73.8435 109.171 75.9054L103.797 81.2791C103.634 81.4426 103.634 81.7115 103.797 81.875L118.125 96.2029C118.209 96.2873 118.315 96.3242 118.426 96.3242C118.531 96.3242 118.642 96.282 118.726 96.2029L124.1 90.8293C127.733 87.1906 128.16 81.5638 125.381 77.4611L129.394 73.448C129.558 73.2793 129.558 73.0103 129.394 72.8469ZM121.558 88.2927L118.426 91.4252L108.575 81.5744L111.707 78.442C113.02 77.1289 114.771 76.4011 116.633 76.4011C118.494 76.4011 120.24 77.1236 121.558 78.442C122.871 79.7551 123.599 81.5058 123.599 83.3674C123.599 85.2289 122.871 86.9744 121.558 88.2927ZM111.528 93.8299C111.364 93.6664 111.095 93.6664 110.932 93.8299L107.42 97.342L102.658 92.5801L106.175 89.0627C106.339 88.8992 106.339 88.6302 106.175 88.4668L104.256 86.5472C104.092 86.3838 103.823 86.3838 103.66 86.5472L100.143 90.0646L97.875 87.797C97.7906 87.7127 97.6851 87.6758 97.5744 87.6758C97.4689 87.6758 97.3582 87.7179 97.2738 87.797L91.9054 93.1707C88.272 96.8094 87.8449 102.436 90.624 106.539L86.6109 110.552C86.4474 110.715 86.4474 110.984 86.6109 111.148L88.8468 113.384C88.9312 113.468 89.0367 113.505 89.1474 113.505C89.2582 113.505 89.3636 113.463 89.448 113.384L93.4611 109.371C95.2382 110.578 97.3054 111.179 99.3726 111.179C102.073 111.179 104.773 110.151 106.835 108.089L112.208 102.716C112.372 102.552 112.372 102.283 112.208 102.12L109.941 99.8521L113.458 96.3347C113.621 96.1713 113.621 95.9023 113.458 95.7388L111.528 93.8299ZM104.293 105.558C102.98 106.871 101.229 107.599 99.3673 107.599C97.5058 107.599 95.7603 106.876 94.4419 105.558C93.1289 104.245 92.4011 102.494 92.4011 100.633C92.4011 98.7711 93.1236 97.0256 94.4419 95.7072L97.5744 92.5748L107.425 102.426L104.293 105.558Z" fill="white"/>
</svg>
