<svg viewBox="0 0 200 200" fill="none" xmlns="http://www.w3.org/2000/svg">
<rect width="200" height="200" fill="#FCF1E1"/>
<rect x="46" y="62" width="92" height="92" rx="10" fill="#F1B957" fill-opacity="0.2"/>
<rect x="62" y="46" width="92" height="92" rx="10" fill="#F1B957"/>
<path d="M113.893 73.2793C115.948 73.2795 117.614 74.9459 117.614 77.0004V79.7096H124.608C126.663 79.7101 128.329 81.376 128.329 83.4307V107C128.328 108.926 126.863 110.511 124.987 110.701L124.608 110.721H91.392C89.3377 110.72 87.6716 109.054 87.6709 107V83.4307C87.6709 81.376 89.3374 79.71 91.392 79.7096H97.3147V77.0004C97.3151 74.9458 98.981 73.2793 101.036 73.2793H113.893ZM90.8284 105.928C90.829 106.831 91.5607 107.566 92.4631 107.567H123.537C124.439 107.566 125.171 106.831 125.172 105.928V95.7211H110.113V95.7507C110.112 96.9181 109.166 97.8633 108 97.8634C106.834 97.8634 105.888 96.9182 105.887 95.7507V95.7211H90.8284V105.928ZM92.4631 82.8638C91.5604 82.8643 90.8284 83.5989 90.8284 84.5018V92.5669H105.887V90.3949C105.887 89.2282 106.833 88.2822 108 88.2822C109.167 88.2823 110.113 89.2282 110.113 90.3949V92.5669H125.172V84.5018L125.139 84.1722C124.986 83.4268 124.327 82.8643 123.537 82.8638H92.4631ZM102.107 76.4368C101.204 76.4368 100.469 77.1688 100.469 78.0715V79.7096H114.457V78.0715L114.424 77.7419C114.271 76.9972 113.612 76.437 112.822 76.4368H102.107Z" fill="white"/>
</svg>
