<svg width="24" height="24" viewBox="0 0 24 24" fill="none" xmlns="http://www.w3.org/2000/svg">
<g clip-path="url(#clip0_186_581)">
<path d="M2.34375 0H21.6562C23.2187 0 24 0.78125 24 2.34375V21.6562C24 23.2187 23.2187 24 21.6562 24H2.34375C0.78125 24 0 23.2187 0 21.6562V2.34375C0 0.78125 0.78125 0 2.34375 0Z" fill="#EEB303"/>
<g clip-path="url(#clip1_186_581)">
<path d="M7.17013 4C8.33312 4 9.31362 4.8105 9.62312 5.91999H16.6506C18.8571 5.91999 20.0001 7.50098 20.0001 9.07247C20.0066 9.88474 19.6984 10.668 19.1401 11.258C18.5462 11.8498 17.7509 12.1959 16.9131 12.227C16.8036 13.5929 15.7061 14.6669 14.3691 14.6669C13.0331 14.6669 11.9366 13.5964 11.8241 12.232H7.39413C5.77614 12.232 5.05214 13.249 5.05214 14.2569C5.05214 15.2639 5.78564 16.3569 7.39463 16.3569H7.78263L7.79863 16.3124C8.17712 15.3574 9.04862 14.7214 10.0301 14.6699L10.1586 14.6669C11.2371 14.6669 12.1586 15.3639 12.5336 16.3499H16.9226V14.8799L18.9411 16.3494H19.0721L19.0716 16.4444L20.0001 17.1199L16.9226 19.3599V17.4399H12.7111C12.6731 18.4309 12.1111 19.3184 11.2541 19.7424L11.1366 19.7969C10.1821 20.2094 9.08362 19.9814 8.35262 19.2189C7.89509 18.7371 7.62958 18.1045 7.60613 17.4404H7.39513C5.16614 17.4399 4.00015 15.8349 4.00015 14.2489C3.99225 13.4423 4.30479 12.6654 4.86914 12.089C5.48864 11.464 6.36163 11.1415 7.39413 11.1415H11.9491C12.2921 10.0895 13.2456 9.33297 14.3686 9.33297C15.4886 9.33297 16.4396 10.085 16.7846 11.131L16.6511 11.1345C18.2311 11.1345 18.9481 10.0605 18.9481 9.05947C18.9481 8.05948 18.2381 7.00948 16.6511 7.00948H9.70312C9.58712 7.94748 8.99912 8.76147 8.14762 9.12947C7.19263 9.54247 6.09414 9.31447 5.36364 8.55148C4.63364 7.78998 4.41514 6.64249 4.81114 5.64649C5.18964 4.6915 6.06114 4.055 7.04213 4.0035L7.17013 4ZM10.1586 15.8954C9.79362 15.8954 9.44362 16.0469 9.18512 16.3169C8.92489 16.5913 8.78038 16.9553 8.78162 17.3334C8.78162 18.1274 9.39812 18.7709 10.1586 18.7709C10.9191 18.7709 11.5361 18.1279 11.5361 17.3334C11.5361 16.5394 10.9196 15.8954 10.1591 15.8954H10.1586ZM14.3686 10.562C13.6111 10.5675 13.0001 11.21 12.9986 12C12.9986 12.582 13.3346 13.107 13.8501 13.3285C14.1024 13.4368 14.3821 13.4647 14.6509 13.4083C14.9197 13.352 15.1645 13.2141 15.3521 13.0135C15.5454 12.8071 15.6757 12.5499 15.7278 12.2721C15.7799 11.9942 15.7515 11.7073 15.6461 11.445C15.4306 10.908 14.9261 10.56 14.3686 10.562ZM7.17063 5.22899C6.41063 5.23099 5.79464 5.87399 5.79364 6.66649C5.79364 7.46098 6.41013 8.10398 7.17063 8.10398C7.81713 8.10398 8.35962 7.63848 8.50762 7.01048H8.48762L8.48812 6.24799C8.31662 5.65849 7.79113 5.22999 7.17063 5.22999V5.22949V5.22899Z" fill="white"/>
</g>
</g>
<defs>
<clipPath id="clip0_186_581">
<rect width="24" height="24" fill="white"/>
</clipPath>
<clipPath id="clip1_186_581">
<rect width="16" height="16" fill="white" transform="translate(4 4)"/>
</clipPath>
</defs>
</svg>
