<?xml version="1.0" standalone="no"?><!DOCTYPE svg PUBLIC "-//W3C//DTD SVG 1.1//EN" "http://www.w3.org/Graphics/SVG/1.1/DTD/svg11.dtd"><svg t="1746762933698" class="icon" viewBox="0 0 1024 1024" version="1.1" xmlns="http://www.w3.org/2000/svg" p-id="1449" width="16" height="16" xmlns:xlink="http://www.w3.org/1999/xlink"><path d="M512 64C264.6 64 64 264.6 64 512s200.6 448 448 448 448-200.6 448-448S759.4 64 512 64z m271.5 719.5c-35.3 35.3-76.4 63-122.1 82.3-47.3 20-97.6 30.2-149.5 30.2s-102.2-10.1-149.5-30.2c-45.7-19.3-86.8-47-122.1-82.3s-63-76.4-82.3-122.1c-20-47.3-30.2-97.6-30.2-149.5s10.1-102.2 30.2-149.5c19.3-45.7 47-86.8 82.3-122.1s76.4-63 122.1-82.3c47.3-20 97.6-30.2 149.5-30.2s102.2 10.1 149.5 30.2c45.7 19.3 86.8 47 122.1 82.3s63 76.4 82.3 122.1c20 47.3 30.2 97.6 30.2 149.5s-10.1 102.2-30.2 149.5c-19.3 45.8-47 86.8-82.3 122.1z" p-id="1450"></path><path d="M705.4 353.4L456 602.7 342.6 489.4c-12.5-12.5-32.8-12.5-45.3 0s-12.5 32.8 0 45.3l136 136c6.2 6.2 14.4 9.4 22.6 9.4s16.4-3.1 22.6-9.4l272-272c12.5-12.5 12.5-32.8 0-45.3-12.4-12.5-32.6-12.5-45.1 0z" p-id="1451"></path></svg>