<svg width="200" height="200" viewBox="0 0 200 200" fill="none" xmlns="http://www.w3.org/2000/svg">
<path d="M118.633 60.3C118.633 57.0889 115.989 54.0667 112.778 54.0667H42.5111C39.3 54.0667 36.6555 57.0889 36.6555 60.3C36.6555 63.5111 39.3 66.5333 42.5111 66.5333H112.683C115.989 66.5333 118.633 63.5111 118.633 60.3ZM42.5111 90.5222C39.3 90.5222 36.6555 93.6389 36.6555 96.85C36.6555 100.061 39.3 103.178 42.5111 103.178H89.3555C92.5666 103.178 95.2111 100.061 95.2111 96.85C95.2111 93.6389 92.5666 90.5222 89.3555 90.5222H42.5111ZM77.6444 127.45H42.5111C39.3 127.45 36.6555 130.567 36.6555 133.778C36.6555 136.989 39.3 140.106 42.5111 140.106H77.6444C80.8555 140.106 83.5 136.989 83.5 133.778C83.5 130.567 80.8555 127.45 77.6444 127.45Z" fill="#FFBA31"/>
<path d="M77.6444 141.05H42.5111C38.9222 141.05 35.7111 137.65 35.7111 133.778C35.7111 129.906 38.9222 126.506 42.5111 126.506H77.6444C81.2333 126.506 84.4444 129.906 84.4444 133.778C84.4444 137.65 81.2333 141.05 77.6444 141.05Z" fill="#FFBA31"/>
<path d="M42.5111 128.395C39.9611 128.395 37.5999 130.945 37.5999 133.778C37.5999 136.611 39.9611 139.161 42.5111 139.161H77.6444C80.1944 139.161 82.5555 136.611 82.5555 133.778C82.5555 130.945 80.1944 128.395 77.6444 128.395H42.5111ZM89.3555 104.217H42.5111C38.9222 104.217 35.7111 100.817 35.7111 96.9446C35.7111 93.0724 38.9222 89.6724 42.5111 89.6724H89.3555C92.9444 89.6724 96.1555 93.0724 96.1555 96.9446C96.1555 100.817 92.9444 104.217 89.3555 104.217Z" fill="#FFBA31"/>
<path d="M42.5111 91.4668C39.9611 91.4668 37.5999 94.0168 37.5999 96.8501C37.5999 99.6834 39.9611 102.233 42.5111 102.233H89.3555C91.9055 102.233 94.2666 99.6834 94.2666 96.8501C94.2666 94.0168 91.9055 91.4668 89.3555 91.4668H42.5111ZM112.778 67.4779H42.5111C38.9222 67.4779 35.7111 64.0779 35.7111 60.3001C35.7111 56.5223 38.9222 53.1223 42.5111 53.1223H112.683C116.272 53.1223 119.483 56.5223 119.483 60.3001C119.578 64.1723 116.367 67.4779 112.778 67.4779Z" fill="#FFBA31"/>
<path d="M42.511 54.9167C39.8665 54.9167 37.5999 57.3723 37.5999 60.2056C37.5999 63.039 39.8665 65.4945 42.511 65.4945H112.683C115.328 65.4945 117.594 63.039 117.594 60.2056C117.594 57.3723 115.328 54.9167 112.683 54.9167H42.511Z" fill="#FFBA31"/>
<path d="M68.0111 175.9H30.3278C24.4722 175.9 19.6556 170.989 19.6556 164.944V35.5554C19.6556 29.511 24.4722 24.5999 30.3278 24.5999H137.711C143.567 24.5999 148.383 29.511 148.383 35.5554V68.2332C148.383 71.7277 151.028 74.561 154.239 74.561C157.45 74.561 160.094 71.7277 160.094 68.2332V35.5554C160.094 22.5221 150.083 11.9443 137.711 11.9443H30.3278C17.9556 11.9443 7.94446 22.5221 7.94446 35.5554V164.85C7.94446 177.883 17.9556 188.461 30.3278 188.461H68.0111C71.2222 188.461 73.8667 185.628 73.8667 182.133C73.8667 178.733 71.2222 175.9 68.0111 175.9Z" fill="#FFBA31"/>
<path d="M68.0111 189.5H30.3278C17.4833 189.5 7 178.45 7 164.944V35.5556C7 22.05 17.4833 11 30.3278 11H137.711C150.556 11 161.039 22.05 161.039 35.5556V68.2333C161.039 72.2 158.017 75.5056 154.239 75.5056C150.461 75.5056 147.439 72.2944 147.439 68.2333V35.5556C147.439 29.9833 143.094 25.5444 137.711 25.5444H30.3278C24.9444 25.5444 20.6 30.0778 20.6 35.5556V164.85C20.6 170.422 24.9444 174.861 30.3278 174.861H68.0111C71.7889 174.861 74.8111 178.072 74.8111 182.133C74.8111 186.194 71.7889 189.5 68.0111 189.5ZM30.3278 12.8889C18.5222 12.8889 8.88889 23.0889 8.88889 35.5556V164.85C8.88889 177.317 18.5222 187.517 30.3278 187.517H68.0111C70.75 187.517 72.9222 185.156 72.9222 182.133C72.9222 179.111 70.75 176.75 68.0111 176.75H30.3278C23.9056 176.75 18.7111 171.367 18.7111 164.85V35.5556C18.7111 28.9444 23.9056 23.6556 30.3278 23.6556H137.711C144.133 23.6556 149.328 29.0389 149.328 35.5556V68.2333C149.328 71.1611 151.5 73.6167 154.239 73.6167C156.978 73.6167 159.15 71.2556 159.15 68.2333V35.5556C159.15 23.0889 149.517 12.8889 137.711 12.8889H30.3278ZM142.433 153.8H136.106C135.633 153.8 135.161 153.989 134.783 154.461C134.406 154.933 134.217 155.5 134.217 156.067V159.844C134.217 160.411 134.406 160.978 134.783 161.45C135.161 161.922 135.633 162.111 136.106 162.111H142.433C142.906 162.111 143.378 161.922 143.756 161.45C144.133 160.978 144.322 160.411 144.322 159.844V156.067C144.322 155.5 144.133 154.933 143.756 154.461C143.378 153.989 142.906 153.8 142.433 153.8ZM134.878 147.472C135.256 147.756 135.728 147.944 136.2 147.944H142.433C142.906 147.944 143.378 147.756 143.756 147.472C144.133 147.189 144.322 146.811 144.322 146.433V119.044C144.322 118.667 144.133 118.289 143.756 118.006C143.378 117.722 142.906 117.533 142.433 117.533H136.106C135.633 117.533 135.161 117.722 134.783 118.006C134.406 118.289 134.217 118.667 134.217 119.044V146.433C134.311 146.811 134.5 147.189 134.878 147.472Z" fill="#FFBA31"/>
<path d="M191.733 158.711L151.406 88.9167C146.494 80.4167 132.706 80.4167 127.794 88.9167L87.4667 158.711C85.0111 162.961 85.0111 168.061 87.4667 172.311C89.9222 176.561 94.3611 179.111 99.2722 179.111H179.833C184.744 179.111 189.183 176.561 191.639 172.311C194.189 168.061 194.189 162.961 191.733 158.711ZM181.628 166.55C181.439 166.928 180.967 167.495 179.928 167.495H99.3667C98.4222 167.495 97.95 166.928 97.6667 166.55C97.4778 166.172 97.1944 165.511 97.6667 164.661L137.994 94.7723C138.939 93.0723 140.356 93.0723 141.3 94.7723L181.628 164.567C182.1 165.417 181.817 166.172 181.628 166.55Z" fill="#FFBA31"/>
</svg>
