<svg width="200" height="200" viewBox="0 0 200 200" fill="none"
    xmlns="http://www.w3.org/2000/svg">
    <path d="M99.1806 10V66.5248L99.1901 67.0901C99.3337 71.2642 101.062 75.2285 104.025 78.182C106.989 81.1355 110.967 82.8581 115.156 83.0018L115.726 83.0112H175.998L176 132.638C175.216 132.526 174.426 132.47 173.634 132.47L162.998 132.468V120.694C162.998 118.529 162.57 116.386 161.738 114.385C160.907 112.385 159.688 110.568 158.152 109.037C156.615 107.506 154.792 106.292 152.784 105.463C150.777 104.634 148.625 104.208 146.453 104.208L145.885 104.217C141.598 104.364 137.535 106.164 134.554 109.238C131.574 112.312 129.907 116.42 129.907 120.694V132.468L116.908 132.47C112.52 132.47 108.311 134.207 105.208 137.299C102.106 140.391 100.362 144.584 100.362 148.957L100.372 149.522C100.519 153.794 102.326 157.842 105.411 160.813C108.496 163.783 112.618 165.443 116.908 165.443L129.907 165.439V177.219C129.907 181.835 131.81 186.007 134.878 189L29.4544 188.995C27.0288 188.995 24.6959 188.066 22.9384 186.401C21.1809 184.735 20.1331 182.46 20.0118 180.046L20 179.574V19.4208C20 17.0038 20.9323 14.6792 22.604 12.928C24.2758 11.1767 26.5591 10.1326 28.9817 10.0118L29.4544 10H99.1806ZM113.362 12.4918L113.447 12.5672L173.031 68.5809C173.135 68.6775 173.237 68.7788 173.334 68.88H115.726L115.449 68.8635C114.922 68.8015 114.43 68.5642 114.055 68.1899C113.679 67.8156 113.441 67.3261 113.379 66.8004L113.362 66.5248V12.4918Z" fill="#FF8533"/>
    <path d="M146.683 114C148.566 114 150.372 114.738 151.704 116.05C153.035 117.363 153.783 119.143 153.783 121V141.998L173.9 142C175.783 142 177.589 142.738 178.92 144.05C180.252 145.363 181 147.143 181 149C181 150.857 180.252 152.637 178.92 153.95C177.589 155.263 175.783 156 173.9 156L153.783 155.998V177C153.783 178.857 153.035 180.637 151.704 181.95C150.372 183.263 148.566 184 146.683 184C144.8 184 142.994 183.263 141.663 181.95C140.331 180.637 139.583 178.857 139.583 177V155.998L117.1 156C115.217 156 113.411 155.263 112.08 153.95C110.748 152.637 110 150.857 110 149C110 147.143 110.748 145.363 112.08 144.05C113.411 142.738 115.217 142 117.1 142L139.583 141.998V121C139.583 119.143 140.331 117.363 141.663 116.05C142.994 114.738 144.8 114 146.683 114Z" fill="#FFBA00"/>
</svg>
