<svg width="20" height="20" viewBox="0 0 20 20" fill="none"
    xmlns="http://www.w3.org/2000/svg">
    <path d="M8.89997 7.89124L10.6825 18.2262C10.6825 18.2262 12 16.87 13.0875 15.9237L15.4787 19.125C15.575 19.255 15.785 19.2637 15.945 19.1462L16.9662 18.4C17.1275 18.2825 17.18 18.0812 17.0825 17.9512L14.7562 14.8375C15.9712 14.3475 17.9725 13.79 17.9725 13.79L8.89997 7.89124ZM6.02247 12.6637L3.36872 14.6037C2.96747 14.8975 2.89497 15.4625 3.21247 15.8812C3.52997 16.2987 4.11622 16.4087 4.51622 16.1162L7.16997 14.1762C7.57997 13.8762 7.64872 13.2875 7.33122 12.87C7.01497 12.4512 6.43247 12.3637 6.02247 12.6637ZM18.5487 4.66749C18.2312 4.24999 17.6575 4.15624 17.2387 4.46249L14.6037 6.38999C14.185 6.69624 14.1125 7.26249 14.43 7.67999C14.7475 8.09749 15.3337 8.20749 15.7525 7.90124L18.3875 5.97374C18.8062 5.66749 18.8662 5.08499 18.5487 4.66749ZM6.23622 2.67249C5.92497 2.26374 5.35247 2.16999 4.93247 2.47624C4.53997 2.76374 4.45872 3.33499 4.76997 3.74374L6.83122 6.45499C7.14247 6.86499 7.72372 6.95124 8.11622 6.66374C8.53497 6.35749 8.60872 5.79249 8.29747 5.38249L6.23622 2.67249ZM11.4412 5.89374C11.9525 5.97624 12.4225 5.63249 12.4887 5.12749L12.9025 1.84999C12.9687 1.34624 12.61 0.873742 12.0912 0.782492C11.58 0.699992 11.11 1.04374 11.0437 1.54749L10.6287 4.82624C10.565 5.33124 10.9237 5.80249 11.4412 5.89374ZM6.43997 9.55124C6.48997 9.04499 6.13122 8.57374 5.62872 8.48374L2.30747 7.93749C1.77872 7.86749 1.31747 8.20499 1.25997 8.70374C1.18372 9.22999 1.54247 9.70124 2.07122 9.77124L5.39247 10.3175C5.89497 10.405 6.35747 10.0675 6.43997 9.55124Z" fill="#FF8533"/>
</svg>
