<svg width="200" height="200" viewBox="0 0 200 200" fill="none" xmlns="http://www.w3.org/2000/svg">
    <path
        d="M85.375 41.125C85.375 45.5342 87.1266 49.7629 90.2443 52.8807C93.3621 55.9984 97.5908 57.75 102 57.75C106.409 57.75 110.638 55.9984 113.756 52.8807C116.873 49.7629 118.625 45.5342 118.625 41.125C118.625 36.7158 116.873 32.4871 113.756 29.3693C110.638 26.2516 106.409 24.5 102 24.5C97.5908 24.5 93.3621 26.2516 90.2443 29.3693C87.1266 32.4871 85.375 36.7158 85.375 41.125Z"
        fill="#3461EC" fill-opacity="0.75" />
    <path
        d="M174.25 150C175.606 147.631 176.357 144.965 176.438 142.237C176.52 139.509 175.928 136.803 174.715 134.357C173.503 131.912 171.707 129.803 169.486 128.216C167.266 126.629 164.689 125.614 161.983 125.259C159.276 124.904 156.524 125.221 153.97 126.181C151.415 127.142 149.136 128.717 147.334 130.766C145.532 132.816 144.263 135.278 143.638 137.935C143.013 140.592 143.051 143.362 143.75 146C144.306 148.117 145.277 150.103 146.608 151.841C147.938 153.58 149.601 155.036 151.5 156.125C155.335 158.305 159.875 158.885 164.134 157.738C168.393 156.592 172.029 153.811 174.25 150ZM162.5 107.875V112.25C166.898 112.53 171.174 113.812 175 116C176.817 100.51 173.591 84.8464 165.799 71.3354C158.008 57.8244 146.067 47.1862 131.75 41C131.745 45.33 130.762 49.603 128.875 53.5C139.017 58.4958 147.548 66.2443 153.494 75.8598C159.441 85.4752 162.561 96.5697 162.5 107.875ZM28.1251 136.875C27.1375 140.591 27.4686 144.535 29.0619 148.034C30.6552 151.533 33.4123 154.372 36.8636 156.067C40.3148 157.762 44.247 158.209 47.9903 157.33C51.7337 156.452 55.0569 154.303 57.394 151.25C59.731 148.197 60.9375 144.428 60.808 140.585C60.6784 136.742 59.2208 133.063 56.6833 130.174C54.1459 127.285 50.6856 125.365 46.8915 124.74C43.0975 124.116 39.2043 124.826 35.8751 126.75C33.9762 127.839 32.3131 129.295 30.9825 131.034C29.652 132.772 28.6806 134.758 28.1251 136.875ZM29.7501 115.875C33.5794 113.696 37.8534 112.413 42.2501 112.125V107.75C42.2242 96.5003 45.3484 85.4681 51.2689 75.9024C57.1895 66.3367 65.6699 58.6197 75.7501 53.625C73.8667 49.7266 72.8842 45.4545 72.8751 41.125C58.5579 47.3112 46.6172 57.9494 38.8259 71.4604C31.0346 84.9714 27.808 100.635 29.6251 116.125L29.7501 115.875ZM145.125 166.375C141.44 164.222 138.28 161.276 135.875 157.75C125.884 164.543 114.082 168.175 102 168.175C89.9186 168.175 78.1161 164.543 68.1251 157.75C65.717 161.273 62.5579 164.219 58.8751 166.375C71.3599 175.659 86.5042 180.673 102.063 180.673C117.621 180.673 132.765 175.659 145.25 166.375H145.125Z"
        fill="#3461EC" fill-opacity="0.75" />
</svg>