<svg width="14" height="14" viewBox="0 0 14 14" fill="none" xmlns="http://www.w3.org/2000/svg">
<path d="M11.4076 13.8374H2.66262C1.78637 13.8374 1.07349 13.1185 1.07349 12.2348V1.76665C1.07349 0.882957 1.78637 0.164062 2.66262 0.164062H11.4076C11.8318 0.164062 12.2311 0.331775 12.532 0.636207C12.8317 0.939381 12.9968 1.3409 12.9967 1.76678V12.2349C12.9967 13.1185 12.2838 13.8374 11.4076 13.8374ZM2.66262 1.00406C2.24955 1.00406 1.91349 1.34615 1.91349 1.76664V12.2348C1.91349 12.6553 2.24955 12.9974 2.66262 12.9974H11.4076C11.8207 12.9974 12.1567 12.6553 12.1567 12.2348V1.76671C12.1567 1.56337 12.0779 1.37163 11.9347 1.22674C11.7927 1.08317 11.6055 1.00406 11.4076 1.00406H2.66262Z" fill="black"/>
<path d="M9.79995 10.3609C9.79995 10.4764 9.70545 10.5709 9.58995 10.5709H4.40995C4.29445 10.5709 4.19995 10.4764 4.19995 10.3609V9.94086C4.19995 9.82536 4.29445 9.73086 4.40995 9.73086H9.58995C9.70545 9.73086 9.79995 9.82536 9.79995 9.94086V10.3609ZM9.79995 7.56086C9.79995 7.67636 9.70545 7.77086 9.58995 7.77086H4.40995C4.29445 7.77086 4.19995 7.67636 4.19995 7.56086V7.14086C4.19995 7.02536 4.29445 6.93086 4.40995 6.93086H9.58995C9.70545 6.93086 9.79995 7.02536 9.79995 7.14086V7.56086ZM9.79995 4.76086C9.79995 4.87636 9.70545 4.97086 9.58995 4.97086H4.40995C4.29445 4.97086 4.19995 4.87636 4.19995 4.76086V4.34086C4.19995 4.22536 4.29445 4.13086 4.40995 4.13086H9.58995C9.70545 4.13086 9.79995 4.22536 9.79995 4.34086V4.76086Z" fill="black"/>
</svg>
