<svg width="146" height="112" viewBox="0 0 146 112" fill="none" xmlns="http://www.w3.org/2000/svg">
<g id="&#231;&#188;&#150;&#231;&#187;&#132; 4">
<path id="Combined Shape" d="M72.5654 76C107.729 76 137.213 91.3432 145.131 112H0C7.91763 91.3432 37.4019 76 72.5654 76Z" fill="url(#paint0_linear_352_35892)"/>
<g id="&#231;&#188;&#150;&#231;&#187;&#132; 10">
<g id="undraw_complete_task_re_44tb 2">
<rect id="&#231;&#159;&#169;&#229;&#189;&#162;" x="19.3154" y="32.75" width="114.5" height="26.5" rx="3.25" fill="white" stroke="#779EEA" stroke-width="1.5"/>
<g id="&#231;&#188;&#150;&#231;&#187;&#132; 6">
<g id="&#231;&#188;&#150;&#231;&#187;&#132;">
<path id="&#232;&#183;&#175;&#229;&#190;&#132;" d="M50.497 40C49.9822 40.0007 49.5654 40.3363 49.5654 40.75C49.5654 41.1637 49.9822 41.4993 50.497 41.5H118.634C119.149 41.4993 119.565 41.1637 119.565 40.75C119.565 40.3363 119.149 40.0007 118.634 40H50.497Z" fill="#779EEA"/>
<path id="&#232;&#183;&#175;&#229;&#190;&#132;_2" d="M50.4924 45C49.9815 44.9991 49.5665 45.3342 49.5654 45.7484C49.5644 46.1626 49.9776 46.4991 50.4885 46.5H93.1843C93.5151 46.5005 93.8211 46.3576 93.9867 46.1254C94.1523 45.8931 94.1523 45.6069 93.9867 45.3746C93.8211 45.1424 93.5151 44.9995 93.1843 45H50.4924Z" fill="#779EEA"/>
<path id="&#232;&#183;&#175;&#229;&#190;&#132;_3" d="M50.211 50C49.8552 49.9991 49.5662 50.3342 49.5654 50.7484C49.5647 51.1626 49.8525 51.4991 50.2083 51.5H79.9428C80.1732 51.5005 80.3863 51.3576 80.5017 51.1254C80.617 50.8931 80.617 50.6069 80.5017 50.3746C80.3863 50.1424 80.1732 49.9995 79.9428 50H50.211Z" fill="#779EEA"/>
</g>
<circle id="&#229;&#189;&#162;&#231;&#138;&#182;&#231;&#187;&#147;&#229;&#144;&#136;" cx="37.5654" cy="46" r="7" fill="#779EEA"/>
</g>
</g>
<g id="undraw_complete_task_re_44tb 2_2">
<rect id="&#231;&#159;&#169;&#229;&#189;&#162;_2" x="29.3154" y="68.75" width="94.5" height="22.5" rx="3.25" fill="white" stroke="#E8EDF6" stroke-width="1.5"/>
<g id="&#231;&#188;&#150;&#231;&#187;&#132; 6_2" opacity="0.5938">
<path id="&#232;&#183;&#175;&#229;&#190;&#132;_4" d="M54.324 74.6211C53.9048 74.6218 53.5654 74.9574 53.5654 75.3711C53.5654 75.7848 53.9048 76.1204 54.324 76.1211H109.807C110.226 76.1204 110.565 75.7848 110.565 75.3711C110.565 74.9574 110.226 74.6218 109.807 74.6211H54.324Z" fill="#779EEA"/>
<rect id="&#231;&#159;&#169;&#229;&#189;&#162;_3" x="37.5654" y="74" width="12" height="12" rx="6" fill="#779EEA"/>
<path id="&#232;&#183;&#175;&#229;&#190;&#132;_5" d="M54.3145 79.1211C53.9017 79.1202 53.5663 79.4553 53.5654 79.8695C53.5646 80.2837 53.8985 80.6202 54.3114 80.6211H88.8166C89.0839 80.6216 89.3312 80.4787 89.4651 80.2465C89.5989 80.0142 89.5989 79.728 89.4651 79.4957C89.3312 79.2635 89.0839 79.1206 88.8166 79.1211H54.3145Z" fill="#779EEA"/>
<path id="&#232;&#183;&#175;&#229;&#190;&#132;_6" d="M54.0648 83.6211C53.7896 83.6202 53.566 83.9553 53.5654 84.3695C53.5649 84.7837 53.7875 85.1202 54.0627 85.1211H77.0662C77.2444 85.1216 77.4093 84.9787 77.4985 84.7465C77.5877 84.5142 77.5877 84.228 77.4985 83.9957C77.4093 83.7635 77.2444 83.6206 77.0662 83.6211H54.0648Z" fill="#779EEA"/>
</g>
</g>
<g id="undraw_complete_task_re_44tb 2_3">
<rect id="&#231;&#159;&#169;&#229;&#189;&#162;_4" x="29.3154" y="0.75" width="94.5" height="22.5" rx="3.25" fill="white" stroke="#E8EDF6" stroke-width="1.5"/>
<g id="&#231;&#188;&#150;&#231;&#187;&#132; 6_3" opacity="0.5938">
<path id="&#232;&#183;&#175;&#229;&#190;&#132;_7" d="M54.324 6.62109C53.9048 6.62183 53.5654 6.9574 53.5654 7.37109C53.5654 7.78478 53.9048 8.12035 54.324 8.12109H109.807C110.226 8.12035 110.565 7.78478 110.565 7.37109C110.565 6.9574 110.226 6.62183 109.807 6.62109H54.324Z" fill="#779EEA"/>
<rect id="&#231;&#159;&#169;&#229;&#189;&#162;_5" x="37.5654" y="6" width="12" height="12" rx="6" fill="#779EEA"/>
<path id="&#232;&#183;&#175;&#229;&#190;&#132;_8" d="M54.3145 11.1211C53.9017 11.1202 53.5663 11.4553 53.5654 11.8695C53.5646 12.2837 53.8985 12.6202 54.3114 12.6211H88.8166C89.0839 12.6216 89.3312 12.4787 89.4651 12.2465C89.5989 12.0142 89.5989 11.728 89.4651 11.4957C89.3312 11.2635 89.0839 11.1206 88.8166 11.1211H54.3145Z" fill="#779EEA"/>
<path id="&#232;&#183;&#175;&#229;&#190;&#132;_9" d="M54.0648 15.6211C53.7896 15.6202 53.566 15.9553 53.5654 16.3695C53.5649 16.7837 53.7875 17.1202 54.0627 17.1211H77.0662C77.2444 17.1216 77.4093 16.9787 77.4985 16.7465C77.5877 16.5142 77.5877 16.228 77.4985 15.9957C77.4093 15.7635 77.2444 15.6206 77.0662 15.6211H54.0648Z" fill="#779EEA"/>
</g>
</g>
</g>
</g>
<defs>
<linearGradient id="paint0_linear_352_35892" x1="-12.8501" y1="77.3867" x2="-12.8501" y2="119.762" gradientUnits="userSpaceOnUse">
<stop stop-color="#779EEA" stop-opacity="0.4"/>
<stop offset="1" stop-color="white" stop-opacity="0.01"/>
</linearGradient>
</defs>
</svg>
