<svg width="24" height="24" viewBox="0 0 24 24" fill="none" xmlns="http://www.w3.org/2000/svg">
<g clip-path="url(#clip0_1_234)">
<path d="M2.34375 0H21.6562C23.2188 0 24 0.78125 24 2.34375V21.6562C24 23.2188 23.2188 24 21.6562 24H2.34375C0.78125 24 0 23.2188 0 21.6562V2.34375C0 0.78125 0.78125 0 2.34375 0Z" fill="#07BAEA"/>
<path d="M17.9578 8H15.6986C15.6151 8.01622 15.5384 8.05705 15.4782 8.11725C15.418 8.17745 15.3772 8.25426 15.361 8.33783C15.3151 8.57139 15.4652 8.79668 15.6986 8.84241H17.9744C18.6287 8.84655 19.1582 9.37635 19.1623 10.0311V17.96C19.1623 18.6233 18.6246 19.1572 17.9661 19.1572H10.0341C9.37128 19.1531 8.84203 18.6109 8.84617 17.9519V14.849C8.81288 14.6781 8.67934 14.5486 8.50857 14.5112C8.27516 14.4652 8.05003 14.6154 8 14.849V17.9521C8 19.0825 8.91707 20 10.0465 20H17.9535C19.0831 20 20 19.0825 20 17.9521V10.0315C19.996 8.90527 19.079 8 17.9578 8Z" fill="white"/>
<path d="M16.2845 18.7019V12.2892C16.2643 12.1509 16.1596 12.0384 16.0308 12.017C15.8616 11.9868 15.7046 12.1076 15.6764 12.2892V18.6759C15.6804 18.853 15.8134 18.9957 15.9784 19C16.1313 19 16.2683 18.8705 16.2845 18.7019ZM14.1337 17.7252C14.3029 17.7252 14.4397 17.5825 14.4437 17.4011V13.5899C14.4236 13.4517 14.3189 13.3392 14.1901 13.3177C14.0209 13.2875 13.8598 13.4084 13.8357 13.5899V17.4013C13.8357 17.5784 13.9687 17.7166 14.1337 17.7252ZM18 16.4463V14.5407C17.9798 14.3979 17.8752 14.2899 17.7463 14.2685C17.5771 14.2383 17.4201 14.3634 17.3919 14.5407V16.4463C17.3959 16.6233 17.529 16.766 17.694 16.7703C17.8592 16.7703 17.996 16.6276 18 16.4463ZM8 8.71568H9.61503L8.8096 7L8 8.71568ZM12.0476 14.545V16.4506C12.0516 16.6276 12.1847 16.7703 12.3497 16.7746C12.5189 16.7746 12.6557 16.6319 12.6597 16.4506V14.545C12.6637 14.5105 12.6637 14.4715 12.6597 14.4369C12.6315 14.2554 12.4745 14.1345 12.3053 14.1647C12.1362 14.1905 12.0193 14.3634 12.0476 14.545Z" fill="white"/>
<path d="M14 11.7023V5.30551C14 4.58321 13.3526 4 12.5505 4H5.44947C4.64763 4 4 4.58321 4 5.30551V11.6945C4 12.4168 4.64743 13 5.44947 13H12.542C13.3439 13.0042 13.9957 12.4248 14 11.7023ZM11.6415 11.034C11.5728 11.0649 11.4956 11.0804 11.4141 11.0804C11.2212 11.0998 11.0326 11.0109 10.9381 10.8603L10.3464 9.74405H7.6406L7.01445 10.8603C6.93299 11.0959 6.65417 11.2233 6.39701 11.15C6.13541 11.0766 5.99396 10.8254 6.07542 10.5938C6.09265 10.5474 6.11838 10.501 6.14837 10.4623L8.54964 6.15156C8.69979 5.93525 9.01712 5.86954 9.25299 6.0048C9.31723 6.04349 9.37315 6.09369 9.41592 6.15156L11.8516 10.4547C11.9673 10.671 11.8731 10.9221 11.6415 11.034Z" fill="white"/>
</g>
<defs>
<clipPath id="clip0_1_234">
<rect width="24" height="24" fill="white"/>
</clipPath>
</defs>
</svg>
