<svg width="24" height="24" viewBox="0 0 24 24" fill="none" xmlns="http://www.w3.org/2000/svg">
<g clip-path="url(#clip0_1_213)">
<path d="M22.4196 0.0117188H1.58085C0.718552 0.0117188 0.0239258 0.706345 0.0239258 1.56864V22.4074C0.0239258 23.2697 0.718552 23.9644 1.58085 23.9644H22.4196C23.2819 23.9644 23.9766 23.2697 23.9766 22.4074V1.56864C23.9766 0.706345 23.2819 0.0117188 22.4196 0.0117188Z" fill="#07BAEA"/>
<g clip-path="url(#clip1_1_213)">
<path d="M12.8578 4H13.7576V19.996H12.8578V4ZM19.996 11.998C19.996 11.6081 19.6861 11.2982 19.2962 11.2982H14.7273V12.6978H19.2962C19.6861 12.6978 19.996 12.3879 19.996 11.998ZM4 7.46913V16.5269C4 16.9168 4.0768 17.3029 4.22602 17.6632C4.37524 18.0234 4.59395 18.3507 4.86968 18.6264C5.1454 18.9022 5.47272 19.1209 5.83297 19.2701C6.19322 19.4193 6.57933 19.4961 6.96926 19.4961H12.138V18.1365H6.96926C6.08948 18.1365 5.36966 17.4166 5.36966 16.5269V7.46913C5.36966 6.58935 6.08948 5.86953 6.96926 5.86953H12.138V4.49988H6.96926C6.18176 4.49988 5.42652 4.81271 4.86968 5.36955C4.31283 5.92639 4 6.68164 4 7.46913Z" fill="white"/>
<path d="M6.99927 8.94877C6.99927 9.25869 7.24921 9.50863 7.55913 9.50863H12.138V8.38891H7.55913C7.41064 8.38891 7.26824 8.44789 7.16325 8.55289C7.05825 8.65788 6.99927 8.80028 6.99927 8.94877ZM6.99927 11.998C6.99927 12.3079 7.24921 12.5579 7.55913 12.5579H12.138V11.4381H7.55913C7.41064 11.4381 7.26824 11.4971 7.16325 11.6021C7.05825 11.7071 6.99927 11.8495 6.99927 11.998ZM7.56213 14.4884C7.41364 14.4884 7.27124 14.5474 7.16625 14.6524C7.06125 14.7574 7.00227 14.8998 7.00227 15.0482C7.00227 15.1967 7.06125 15.3391 7.16625 15.4441C7.27124 15.5491 7.41364 15.6081 7.56213 15.6081H10.5054C10.6539 15.6081 10.7963 15.5491 10.9013 15.4441C11.0063 15.3391 11.0653 15.1967 11.0653 15.0482C11.0653 14.8998 11.0063 14.7574 10.9013 14.6524C10.7963 14.5474 10.6539 14.4884 10.5054 14.4884H7.56213ZM17.9885 4.49988H15.7001C15.3102 4.49988 15.0003 4.8098 15.0003 5.1997C15.0003 5.58961 15.3102 5.89953 15.7001 5.89953H17.9885C18.3184 5.89953 18.5984 6.16946 18.5984 6.50938V8.7978C18.5984 9.18771 18.9083 9.49763 19.2982 9.49763C19.6881 9.49763 19.998 9.18771 19.998 8.7978V6.50938C19.998 5.39965 19.0982 4.49988 17.9885 4.49988ZM19.2982 14.4984C18.9083 14.4984 18.5984 14.8083 18.5984 15.1982V17.4866C18.5984 17.8265 18.3184 18.0965 17.9885 18.0965H15.7001C15.3102 18.0965 15.0003 18.4064 15.0003 18.7963C15.0003 19.1862 15.3102 19.4961 15.7001 19.4961H17.9885C19.0982 19.4961 19.998 18.5964 19.998 17.4866V15.1982C19.998 14.8083 19.6881 14.4984 19.2982 14.4984Z" fill="white"/>
</g>
</g>
<defs>
<clipPath id="clip0_1_213">
<rect width="24" height="24" fill="white"/>
</clipPath>
<clipPath id="clip1_1_213">
<rect width="16" height="16" fill="white" transform="translate(4 4)"/>
</clipPath>
</defs>
</svg>
