<svg xmlns="http://www.w3.org/2000/svg" id="图层_1" x="0" y="0" version="1.1" viewBox="0 0 1024 1024" xml:space="preserve">
  <style>
    .st1{fill:#fff}
  </style>
  <path fill="#59a3ff" d="M957.8 1022.3H65.2c-35.1 0-63.8-28.7-63.8-63.8V66C1.5 31 30.2 2.3 65.2 2.3h892.5c35.1 0 63.8 28.7 63.8 63.8v892.5c0 35-28.7 63.7-63.7 63.7z"/>
  <path d="M687.2 404H335.5c-22.8 0-41.4 18.6-41.4 41.4v306.4c0 22.8 18.6 41.4 41.4 41.4h351.8c22.8 0 41.4-18.6 41.4-41.4V445.4c-.1-22.8-18.7-41.4-41.5-41.4zM458.8 692.6c0 13.2-10.8 24-24 24s-24-10.8-24-24v-188c0-13.2 10.8-24 24-24s24 10.8 24 24v188zm153 0c0 13.2-10.8 24-24 24s-24-10.8-24-24v-188c0-13.2 10.8-24 24-24s24 10.8 24 24v188zM759.1 279.9H580.8c.1-.6.1-1.2.1-1.9v-31.3c0-8.4-6.9-15.3-15.3-15.3H459.7c-8.4 0-15.3 6.9-15.3 15.3V278c0 .6.1 1.3.1 1.9H263.9c-16.2 0-29.4 13.2-29.4 29.4v7.4c0 16.2 13.2 29.4 29.4 29.4h495.2c16.2 0 29.4-13.2 29.4-29.4v-7.4c0-16.1-13.2-29.4-29.4-29.4z" class="st1"/>
</svg>
