<svg xmlns="http://www.w3.org/2000/svg" viewBox="0 0 1024 1024">
  <path fill="#59a3ff" d="M958.2 1022.6H65.7c-35.1 0-63.8-28.7-63.8-63.8V66.3C2 31.2 30.7 2.6 65.7 2.6h892.5c35.1 0 63.8 28.7 63.8 63.8v892.5c0 35-28.7 63.7-63.8 63.7z"/>
  <path fill="#fff" d="M678.8 558.3c-45.6 0-85.3 25-106.3 62.1l-152.2-76.1c3.9-10.9 5.9-22.4 5.9-34.1 0-14.6-3.1-28.9-9.2-42.1l191.9-92c17.7 27.7 48.7 46 84 46 55 0 99.7-44.6 99.7-99.7s-44.7-99.7-99.7-99.7c-55.1 0-99.7 44.6-99.7 99.7 0 2.6.1 5.2.3 7.8l-207.2 99.3c-17.1-13.1-38.5-20.9-61.7-20.9C268.5 408.5 223 454 223 510.1s45.5 101.6 101.6 101.6c26.7 0 50.9-10.3 69-27.1l163.9 81.9c-.5 4.6-.8 9.2-.8 13.9 0 67.4 54.7 122 122.1 122 67.4 0 122.1-54.6 122.1-122 0-67.5-54.7-122.1-122.1-122.1z"/>
</svg>
