<svg xmlns="http://www.w3.org/2000/svg" id="图层_1" x="0" y="0" version="1.1" viewBox="0 0 1024 1024" xml:space="preserve">
  <style>
    .st1{fill:#fff}
  </style>
  <path fill="#ffba31" d="M957.5 1021.6H65c-35.1 0-63.8-28.7-63.8-63.8V65.4C1.2 30.3 29.9 1.6 65 1.6h892.5c35.1 0 63.8 28.7 63.8 63.8v892.5c-.1 35-28.7 63.7-63.8 63.7z"/>
  <path d="M306.4 689.6c-19.8-1.2-38.5-9.2-51.8-22.5-15.2-15.2-22.6-33.8-22.6-56.8 0-21.7 8.3-42.4 22.6-56.8 15.2-15.2 33.8-22.6 56.8-22.6h47.2v-52.2h-47.2c-35.4 0-68.5 13.6-93.2 38.4-24.8 24.8-38.4 57.9-38.4 93.2s13.6 68.5 38.4 93.2c23.6 23.6 54.7 37.1 88.2 38.3v49.4l74.3-74.3-74.3-76.7v49.4zM804.3 307.9c-24.9-24.6-58-38.1-93.2-38.1h-47.2V322h47.2c21.7 0 42.4 8.3 56.8 22.6 15.2 15.2 22.6 33.8 22.6 56.8 0 22.9-7.4 41.5-22.6 56.8-14.1 14.1-31.1 21.5-51.8 22.5v-49.2l-74.4 74.4 74.4 74.4v-49.4c33.5-1.2 64.6-14.7 88.2-38.3 24.8-24.8 38.4-57.9 38.4-93.2.1-34.5-13.6-67-38.4-91.5zM586.2 232H434.7c-16.1 0-29.2 13.1-29.2 29.2v65c0 16.1 13.1 29.2 29.2 29.2h151.4c16.1 0 29.2-13.1 29.2-29.2v-65c.1-16.1-13-29.2-29.1-29.2zM586.2 439.8H434.7c-16.1 0-29.2 13.1-29.2 29.2v65c0 16.1 13.1 29.2 29.2 29.2h151.4c16.1 0 29.2-13.1 29.2-29.2v-65c.1-16.1-13-29.2-29.1-29.2zM586.2 655.2H434.7c-16.1 0-29.2 13.1-29.2 29.2v65c0 16.1 13.1 29.2 29.2 29.2h151.4c16.1 0 29.2-13.1 29.2-29.2v-65c.1-16.1-13-29.2-29.1-29.2z" class="st1"/>
</svg>
