<svg xmlns="http://www.w3.org/2000/svg" viewBox="0 0 1024 1024">
  <path fill="#15ceaa" d="M957.8 1021.5H65.2c-35.1 0-63.8-28.7-63.8-63.8V65.2c0-35.1 28.7-63.8 63.8-63.8h892.5c35.1 0 63.8 28.7 63.8 63.8v892.5c0 35.1-28.7 63.8-63.7 63.8z"/>
  <path fill="#fff" d="M751.8 651.5H271.2c-21.8 0-39.7 17.9-39.7 39.7v68.6c0 21.8 17.9 39.7 39.7 39.7h480.6c21.8 0 39.7-17.9 39.7-39.7v-68.6c0-21.8-17.9-39.7-39.7-39.7zm-404.3 111c-20.4 0-37-16.6-37-37s16.6-37 37-37 37 16.6 37 37-16.6 37-37 37zm404.3-539H271.2c-21.8 0-39.7 17.9-39.7 39.7v68.6c0 21.8 17.9 39.7 39.7 39.7h480.6c21.8 0 39.7-17.9 39.7-39.7v-68.6c0-21.8-17.9-39.7-39.7-39.7zm-404.3 111c-20.4 0-37-16.6-37-37s16.6-37 37-37 37 16.6 37 37-16.6 37-37 37zm404.3 103H271.2c-21.8 0-39.7 17.9-39.7 39.7v68.6c0 21.8 17.9 39.7 39.7 39.7h480.6c21.8 0 39.7-17.9 39.7-39.7v-68.6c0-21.8-17.9-39.7-39.7-39.7zm-404.3 111c-20.4 0-37-16.6-37-37s16.6-37 37-37 37 16.6 37 37-16.6 37-37 37z"/>
</svg>
