<svg width="200" height="200" viewBox="0 0 200 200" fill="none" xmlns="http://www.w3.org/2000/svg">
<g clip-path="url(#clip0_771_4918)">
<path d="M98.2111 0.894427C99.3373 0.331372 100.663 0.331372 101.789 0.894427L192.845 46.4223C195.793 47.8964 195.793 52.1036 192.845 53.5777L101.789 99.1056C100.663 99.6686 99.3373 99.6686 98.2111 99.1056L7.15541 53.5777C4.20722 52.1036 4.20722 47.8964 7.15542 46.4223L98.2111 0.894427Z" fill="white"/>
<path d="M86.6783 117.562C88.0335 118.239 88.8895 119.624 88.8895 121.139L88.889 195.528C88.8889 198.502 85.7597 200.435 83.1001 199.106L2.21209 158.662C0.856979 157.984 0.000967192 156.599 0.000929351 155.084L-0.000928648 80.6952C-0.00100292 77.7216 3.12825 75.7876 5.7879 77.1174L86.6783 117.562Z" fill="white"/>
<path d="M194.209 77.1171C196.868 75.7873 199.998 77.7213 199.998 80.6948L199.998 155.083C199.998 156.598 199.142 157.983 197.787 158.66L116.901 199.105C114.241 200.435 111.112 198.501 111.112 195.527L111.111 121.138C111.111 119.623 111.967 118.238 113.322 117.56L194.209 77.1171Z" fill="white"/>
</g>
<defs>
<clipPath id="clip0_771_4918">
<rect width="200" height="200" fill="white"/>
</clipPath>
</defs>
</svg>
