<svg xmlns="http://www.w3.org/2000/svg" viewBox="0 0 1024 1024">
  <path fill="#15ceaa" d="M957.8 1021.9H65.3c-35.1 0-63.8-28.7-63.8-63.8V65.7c0-35.1 28.7-63.8 63.8-63.8h892.5c35.1 0 63.8 28.7 63.8 63.8v892.5c-.1 35.1-28.8 63.7-63.8 63.7z"/>
  <path fill="#fff" d="M513.1 197.9L257.8 310.3v271.1S402.3 826 511.7 826c102 0 253.6-242 253.6-242V312.7L513.1 197.9zM651 461.7c-.1 0-.1 0 0 0L498.3 601l-2.5 2.3c-10 8-24.4 8-34.4-.4-.2-.2-.5-.4-.7-.6l-.7-.7-88.2-80.2c-10.7-10.1-11.4-26.9-1.5-37.9 9.9-10.9 26.8-11.8 37.8-2.2l.4.3 70.2 63.8 135.6-123.8c11.1-10.1 28.2-9.3 38.3 1.7 10.2 11.2 9.4 28.3-1.6 38.4z"/>
</svg>
