<?xml version="1.0" encoding="utf-8"?>
<!-- Generator: Adobe Illustrator 22.0.0, SVG Export Plug-In . SVG Version: 6.00 Build 0)  -->
<svg version="1.1" id="图层_1" xmlns="http://www.w3.org/2000/svg" xmlns:xlink="http://www.w3.org/1999/xlink" x="0px" y="0px"
	 viewBox="0 0 1024 1024" style="enable-background:new 0 0 1024 1024;" xml:space="preserve">
<style type="text/css">
	.st0{fill:#6C8FFF;}
	.st1{fill:#FFFFFF;}
</style>
<path class="st0" d="M957.8,1021.7H65.2c-35.1,0-63.8-28.7-63.8-63.8V65.5c0-35.1,28.7-63.8,63.8-63.8h892.5
	c35.1,0,63.8,28.7,63.8,63.8V958C1021.5,993,992.8,1021.7,957.8,1021.7z"/>
<path class="st1" d="M650,510l160-98.3L521,228.3L232,411.8l150.3,92.3L212.9,611.7l298.6,183.4l298.6-183.4L650,510z M326.1,610.9
	l113.1-71.8l81.8,50.2l72.1-44.3l103.7,65.9L511.5,724.7L326.1,610.9L326.1,610.9z"/>
</svg>
