<?xml version="1.0" encoding="utf-8"?>
<!-- Generator: Adobe Illustrator 22.0.0, SVG Export Plug-In . SVG Version: 6.00 Build 0)  -->
<svg version="1.1" id="图层_1" xmlns="http://www.w3.org/2000/svg" xmlns:xlink="http://www.w3.org/1999/xlink" x="0px" y="0px"
	 viewBox="0 0 1024 1024" style="enable-background:new 0 0 1024 1024;" xml:space="preserve">
<style type="text/css">
	.st0{fill:#15CEAA;}
	.st1{fill:#FFFFFF;}
</style>
<path class="st0" d="M958,1021.9H65.5c-35.1,0-63.8-28.7-63.8-63.8V65.7c0-35.1,28.7-63.8,63.8-63.8H958c35.1,0,63.8,28.7,63.8,63.8
	v892.5C1021.8,993.3,993.1,1021.9,958,1021.9z"/>
<g>
	<path class="st1" d="M609.1,628.9H424.4l-40,117.1H268.9l182.4-455.9h133.9L768.4,746H649.1L609.1,628.9z M584.4,558.1l-16.9-49.9
		c-17.7-47.4-33.1-99.8-50-149.1h-3.1c-14.6,49.9-31.6,101.7-48.5,149.1L449,558.1H584.4z"/>
</g>
</svg>
