<svg xmlns="http://www.w3.org/2000/svg" id="图层_1" x="0" y="0" version="1.1" viewBox="0 0 1024 1024" xml:space="preserve">
  <style>
    .st1{fill:#fff}
  </style>
  <path fill="#ffba31" d="M957.7 1021.5H65.2c-35.1 0-63.7-28.7-63.7-63.8V65.3c0-35.1 28.7-63.8 63.7-63.8h892.5c35.1 0 63.8 28.7 63.8 63.8v892.5c-.1 35.1-28.8 63.7-63.8 63.7z"/>
  <path d="M389.4 559.8h269.1c16.6 0 30.5-8.3 38.8-22.2 13.9-22.2 8.3-49.9-13.9-63.8l-61-41.6c16.6-19.4 25-44.4 25-69.4 0-63.8-55.5-113.7-122.1-113.7S403.2 299 403.2 362.8c0 25 8.3 49.9 25 69.4l-63.8 41.6c-13.9 8.3-22.2 22.2-22.2 38.8 0 25 22.2 47.2 47.2 47.2zM733.4 615.6H289.5c-45.8 0-83.2 35.7-83.2 79.2 0 43.6 37.5 79.2 83.2 79.2h443.9c45.8 0 83.2-35.7 83.2-79.2 0-43.6-37.5-79.2-83.2-79.2z" class="st1"/>
</svg>
