<svg width="52" height="52" viewBox="0 0 52 52" fill="none" xmlns="http://www.w3.org/2000/svg">
<circle cx="26" cy="26" r="26" fill="#FF6B3B"/>
<path d="M29 29C29 29.3978 29.158 29.7794 29.4393 30.0607C29.7206 30.342 30.1022 30.5 30.5 30.5C30.8978 30.5 31.2794 30.342 31.5607 30.0607C31.842 29.7794 32 29.3978 32 29C32 28.6022 31.842 28.2206 31.5607 27.9393C31.2794 27.658 30.8978 27.5 30.5 27.5C30.1022 27.5 29.7206 27.658 29.4393 27.9393C29.158 28.2206 29 28.6022 29 29Z" fill="white"/>
<path d="M35 14V38H17V14H35ZM33.5 15.5H18.5V36.5H33.5V15.5Z" fill="white"/>
<path d="M35 20V38H23V20H35ZM33.5 21.5H24.5V36.5H33.5V21.5Z" fill="white"/>
</svg>
