<svg width="52" height="52" viewBox="0 0 52 52" fill="none" xmlns="http://www.w3.org/2000/svg">
<circle cx="26" cy="26" r="26" fill="#7262FD"/>
<path d="M19.1961 14.0524L32.5241 14.0524C34.5317 14.0524 36.1641 15.6848 36.1641 17.6924L36.1641 34.5036C36.1641 36.5112 34.5317 38.1436 32.5241 38.1436L19.1975 38.1436C17.1899 38.1436 15.5575 36.5112 15.5575 34.5036L15.5575 17.6924C15.5561 15.6848 17.1899 14.0524 19.1961 14.0524ZM32.5241 36.4636C33.6049 36.4636 34.4841 35.5844 34.4841 34.5036L34.4841 17.6924C34.4841 16.6116 33.6049 15.7324 32.5241 15.7324L19.1975 15.7324C18.1167 15.7324 17.2375 16.6116 17.2375 17.6924L17.2375 34.5036C17.2375 35.5844 18.1167 36.4636 19.1975 36.4636L32.5241 36.4636Z" fill="white"/>
<path d="M25.4694 29.2788L30.8314 29.2788C31.2948 29.2788 31.6714 29.6554 31.6714 30.1188C31.6714 30.5822 31.2948 30.9588 30.8314 30.9588L25.4694 30.9588C25.006 30.9588 24.6294 30.5822 24.6294 30.1188C24.6294 29.6554 25.006 29.2788 25.4694 29.2788ZM20.9124 24.6686L30.8314 24.6686C31.2948 24.6686 31.6714 25.0452 31.6714 25.5086C31.6714 25.972 31.2948 26.3486 30.8314 26.3486L20.9124 26.3486C20.449 26.3486 20.0724 25.972 20.0724 25.5086C20.0724 25.0452 20.449 24.6686 20.9124 24.6686ZM20.9124 20.197L30.8314 20.197C31.2948 20.197 31.6714 20.5736 31.6714 21.037C31.6714 21.5004 31.2948 21.877 30.8314 21.877L20.9124 21.877C20.449 21.877 20.0724 21.5004 20.0724 21.037C20.0724 20.5736 20.449 20.197 20.9124 20.197Z" fill="white"/>
</svg>
