<svg width="52" height="52" viewBox="0 0 52 52" fill="none" xmlns="http://www.w3.org/2000/svg">
<circle cx="26" cy="26" r="26" fill="#FFC100"/>
<path d="M16.5136 16.6502C15.9412 17.2237 15.64 18.291 15.64 20.5366V31.7366C15.64 33.9822 15.9412 35.0496 16.5136 35.623C17.087 36.1954 18.1544 36.4966 20.4 36.4966H23.76C23.9827 36.4966 24.1964 36.5851 24.3539 36.7427C24.5115 36.9002 24.6 37.1139 24.6 37.3366C24.6 37.5594 24.5115 37.7731 24.3539 37.9306C24.1964 38.0881 23.9827 38.1766 23.76 38.1766H20.4C18.1656 38.1766 16.4329 37.9179 15.3264 36.8102C14.2187 35.7037 13.96 33.971 13.96 31.7366V20.5366C13.96 18.3022 14.2187 16.5696 15.3264 15.463C16.4329 14.3554 18.1656 14.0966 20.4 14.0966H22.08C22.9928 14.0966 23.6793 14.2288 24.2472 14.5693C24.7724 14.8851 25.1118 15.3387 25.403 15.7274L25.44 15.7766L27.1188 18.0144C27.3518 18.3224 27.4257 18.4042 27.5176 18.4602C27.5881 18.5027 27.7561 18.5766 28.24 18.5766H31.6C33.8344 18.5766 35.567 18.8354 36.6736 19.943C37.7812 21.0496 38.04 22.7822 38.04 25.0166C38.04 25.127 38.0182 25.2362 37.976 25.3381C37.9338 25.44 37.8719 25.5326 37.7939 25.6106C37.7159 25.6886 37.6233 25.7505 37.5214 25.7927C37.4195 25.8349 37.3103 25.8566 37.2 25.8566C37.0897 25.8566 36.9804 25.8349 36.8785 25.7927C36.7766 25.7505 36.684 25.6886 36.606 25.6106C36.528 25.5326 36.4661 25.44 36.4239 25.3381C36.3817 25.2362 36.36 25.127 36.36 25.0166C36.36 22.771 36.0587 21.7037 35.4864 21.1302C34.9129 20.5579 33.8456 20.2566 31.6 20.2566H28.24C27.6038 20.2566 27.0886 20.1626 26.6496 19.8982C26.2576 19.6608 26.0011 19.3226 25.814 19.075L25.7793 19.0291L25.776 19.0246L24.096 16.7846C23.7566 16.3322 23.5987 16.1395 23.3825 16.0096C23.1854 15.8909 22.8472 15.7766 22.08 15.7766H20.4C18.1544 15.7766 17.087 16.0779 16.5136 16.6502Z" fill="white"/>
<path d="M31.2751 30.7958C31.0256 30.7958 30.7863 30.895 30.6099 31.0714C30.4334 31.2478 30.3343 31.4871 30.3343 31.7366C30.3343 31.9862 30.4334 32.2255 30.6099 32.4019C30.7863 32.5783 31.0256 32.6774 31.2751 32.6774C31.5246 32.6774 31.7639 32.5783 31.9403 32.4019C32.1168 32.2255 32.2159 31.9862 32.2159 31.7366C32.2159 31.4871 32.1168 31.2478 31.9403 31.0714C31.7639 30.895 31.5246 30.7958 31.2751 30.7958ZM28.6543 31.7366C28.6543 31.0416 28.9304 30.375 29.4219 29.8835C29.9134 29.392 30.58 29.1158 31.2751 29.1158C31.9702 29.1158 32.6368 29.392 33.1283 29.8835C33.6198 30.375 33.8959 31.0416 33.8959 31.7366C33.8959 32.4317 33.6198 33.0983 33.1283 33.5898C32.6368 34.0813 31.9702 34.3574 31.2751 34.3574C30.58 34.3574 29.9134 34.0813 29.4219 33.5898C28.9304 33.0983 28.6543 32.4317 28.6543 31.7366Z" fill="white"/>
<path d="M29.501 27.0595L29.5659 27.1682C29.9243 27.7842 30.509 28.2792 31.2639 28.2792C32.0187 28.2792 32.6034 27.7842 32.9618 27.1682L33.0256 27.0618L33.0279 27.0595C33.0489 27.0239 33.0829 26.9978 33.1227 26.9865C33.1625 26.9753 33.2052 26.9798 33.2418 26.999L34.2565 27.5904C34.2893 27.6082 34.3182 27.6323 34.3416 27.6614C34.365 27.6904 34.3825 27.7238 34.3929 27.7597C34.4033 27.7955 34.4065 27.833 34.4023 27.8701C34.3981 27.9072 34.3866 27.9431 34.3685 27.9757L34.3674 27.979C34.009 28.5984 33.8712 29.3566 34.2487 30.0118C34.6272 30.6693 35.3519 30.9302 36.0687 30.9302C36.221 30.9302 36.3487 31.0579 36.3487 31.2102V32.2518C36.3487 32.4042 36.221 32.5318 36.0687 32.5318C35.3519 32.5318 34.6272 32.7928 34.2487 33.4502C33.8712 34.1066 34.009 34.8637 34.3674 35.4842L34.3685 35.4864C34.4045 35.5501 34.4142 35.6255 34.3953 35.6962C34.3765 35.767 34.3307 35.8276 34.2677 35.865L33.2373 36.4653L33.2306 36.4686C33.1779 36.5011 33.0816 36.4933 33.0279 36.4026L32.9618 36.2939C32.6034 35.6779 32.0187 35.184 31.2639 35.184C30.509 35.184 29.9243 35.6779 29.5659 36.2928L29.5021 36.4003L29.501 36.4026C29.4799 36.4384 29.4457 36.4648 29.4056 36.4761C29.3655 36.4873 29.3227 36.4827 29.2859 36.463L28.2712 35.8717C28.2384 35.8539 28.2095 35.8298 28.1861 35.8007C28.1627 35.7716 28.1452 35.7382 28.1348 35.7024C28.1244 35.6666 28.1212 35.629 28.1254 35.592C28.1296 35.5549 28.1411 35.519 28.1592 35.4864L28.1603 35.4842C28.5187 34.8637 28.6565 34.1066 28.2791 33.4502C27.9005 32.7928 27.1759 32.5318 26.4591 32.5318H26.4434C26.4075 32.5313 26.3721 32.5235 26.3392 32.5091C26.3064 32.4946 26.2768 32.4737 26.2522 32.4476C26.2275 32.4215 26.2084 32.3907 26.1958 32.3571C26.1833 32.3235 26.1776 32.2877 26.1791 32.2518V31.2102C26.1791 31.0579 26.3067 30.9302 26.4591 30.9302C27.1759 30.9302 27.9005 30.6693 28.2791 30.0118C28.6565 29.3555 28.5187 28.5984 28.1603 27.9779L28.1592 27.9757C28.1232 27.9119 28.1135 27.8366 28.1324 27.7658C28.1512 27.6951 28.197 27.6345 28.26 27.5971L29.2904 26.9968L29.2971 26.9923C29.3498 26.961 29.4461 26.9688 29.501 27.0595ZM30.9435 26.1982C30.4373 25.3504 29.3285 25.0222 28.4415 25.5464L27.4301 26.1355C27.2057 26.2637 27.0089 26.435 26.851 26.6395C26.6931 26.8441 26.5771 27.0778 26.5099 27.3273C26.4426 27.5768 26.4254 27.8372 26.4592 28.0934C26.4929 28.3496 26.577 28.5966 26.7066 28.8202C26.8298 29.0318 26.8264 29.1394 26.8208 29.173C26.7951 29.1954 26.7021 29.2502 26.4591 29.2502C25.3794 29.2502 24.4991 30.1306 24.4991 31.2102V32.2518C24.4976 32.5101 24.5474 32.7661 24.6457 33.005C24.7441 33.2438 24.8889 33.4607 25.0718 33.6431C25.2547 33.8255 25.472 33.9697 25.7111 34.0673C25.9502 34.1649 26.2064 34.2141 26.4647 34.2118C26.7043 34.2118 26.7951 34.2678 26.8208 34.2891C26.8264 34.3227 26.8287 34.4302 26.7066 34.6408C26.5774 34.864 26.4935 35.1105 26.4597 35.3662C26.4259 35.6219 26.4428 35.8817 26.5095 36.1308C26.5762 36.3799 26.6913 36.6135 26.8483 36.8181C27.0053 37.0227 27.2011 37.1943 27.4245 37.3232L28.4437 37.9168L28.4504 37.9202C28.8692 38.1589 29.3649 38.2238 29.831 38.1011C30.2971 37.9784 30.6966 37.6778 30.9435 37.2638V37.2627L31.0107 37.153L31.0163 37.1418C31.1373 36.9312 31.2314 36.8786 31.2639 36.8662C31.2963 36.8774 31.3904 36.9312 31.5103 37.1406L31.5842 37.2627C32.0904 38.1117 33.1992 38.4398 34.0863 37.9157L35.0976 37.3266C35.322 37.1984 35.5188 37.0271 35.6767 36.8225C35.8347 36.618 35.9506 36.3843 36.0178 36.1347C36.0851 35.8852 36.1023 35.6249 36.0685 35.3687C36.0348 35.1125 35.9507 34.8655 35.8211 34.6419C35.6979 34.4302 35.7013 34.3227 35.7069 34.2891C35.7327 34.2667 35.8256 34.2118 36.0687 34.2118C37.1483 34.2118 38.0287 33.3315 38.0287 32.2518V31.2102C38.0287 30.1306 37.1483 29.2502 36.0687 29.2502C35.8256 29.2502 35.7327 29.1942 35.7069 29.173C35.7013 29.1394 35.6991 29.0318 35.8211 28.8202C35.9503 28.597 36.0341 28.3506 36.0679 28.095C36.1017 27.8394 36.0848 27.5797 36.0181 27.3307C35.9515 27.0816 35.8363 26.8482 35.6793 26.6437C35.5223 26.4392 35.3266 26.2676 35.1032 26.1389L34.084 25.5453L34.0773 25.5419C33.6585 25.3032 33.1629 25.2382 32.6967 25.361C32.2306 25.4837 31.8311 25.7843 31.5842 26.1982V26.1994L31.517 26.3091L31.5114 26.3203C31.3904 26.5309 31.2963 26.5835 31.2639 26.5958C31.2314 26.5846 31.1373 26.5309 31.0175 26.3214L30.9435 26.1994V26.1982Z" fill="white"/>
</svg>
