<svg width="52" height="52" viewBox="0 0 52 52" fill="none" xmlns="http://www.w3.org/2000/svg">
<circle cx="26" cy="26" r="26" fill="#76523B"/>
<g clip-path="url(#clip0_9490_1977)">
<path d="M35.0479 23.372V15.944C35.0479 14.948 34.2439 14.144 33.2479 14.144H18.5479C17.5519 14.144 16.7479 14.948 16.7479 15.944V20.132C15.2359 20.492 14.1079 21.944 14.1079 23.672V34.22C14.1079 36.224 15.6319 37.844 17.5039 37.844H34.5199C36.3919 37.844 37.9159 36.212 37.9159 34.22V26.96C37.9039 25.148 36.6559 23.648 35.0479 23.372ZM18.5479 15.824H33.2479C33.3199 15.824 33.3679 15.872 33.3679 15.944V23.324H27.2599L26.4559 20.96C26.2759 20.42 25.7719 20.048 25.2079 20.048H18.4279V15.944C18.4279 15.884 18.4759 15.824 18.5479 15.824ZM36.2239 34.22C36.2239 35.3 35.4559 36.164 34.5079 36.164H17.4919C16.5439 36.164 15.7759 35.288 15.7759 34.22V23.684C15.7759 22.604 16.5439 21.74 17.4919 21.74H24.9439L25.7479 24.104C25.9279 24.644 26.4319 25.016 26.9959 25.016H34.5079C35.4559 25.016 36.2239 25.892 36.2239 26.96V34.22Z" fill="white"/>
<path d="M30.128 28.1718H28.448V29.8518H26C25.628 28.5678 24.452 27.6318 23.06 27.6318C21.368 27.6318 20 28.9998 20 30.6918C20 32.3838 21.368 33.7518 23.06 33.7518C24.452 33.7518 25.64 32.8158 26 31.5318H31.736V29.8518H30.128V28.1718ZM23.06 32.0718C22.304 32.0718 21.68 31.4478 21.68 30.6918C21.68 29.9358 22.304 29.3118 23.06 29.3118C23.816 29.3118 24.44 29.9238 24.44 30.6918C24.44 31.4598 23.816 32.0718 23.06 32.0718Z" fill="white"/>
</g>
<defs>
<clipPath id="clip0_9490_1977">
<rect width="24" height="24" fill="white" transform="translate(14 14)"/>
</clipPath>
</defs>
</svg>
