<svg width="52" height="52" viewBox="0 0 52 52" fill="none" xmlns="http://www.w3.org/2000/svg">
<circle cx="26" cy="26" r="26" fill="#5B8FF9"/>
<path d="M36.8271 33.7245C37.0318 33.7245 37.1963 33.8908 37.1963 34.0955V36.1307C37.1963 36.2287 37.1574 36.3226 37.0882 36.3918C37.0189 36.4611 36.925 36.5 36.8271 36.5H15.3668C15.269 36.4995 15.1754 36.4605 15.1062 36.3913C15.0371 36.3222 14.998 36.2285 14.9976 36.1307V34.0955C14.9976 33.8908 15.1638 33.7245 15.3668 33.7245H36.8271ZM36.8271 29.101C36.925 29.101 37.0189 29.1399 37.0882 29.2092C37.1574 29.2784 37.1963 29.3723 37.1963 29.4702V31.5055C37.1963 31.6034 37.1574 31.6974 37.0882 31.7666C37.0189 31.8358 36.925 31.8748 36.8271 31.8748H15.3668C15.269 31.8743 15.1754 31.8352 15.1062 31.7661C15.0371 31.6969 14.998 31.6033 14.9976 31.5055V29.4702C14.9976 29.4218 15.0071 29.3737 15.0257 29.3289C15.0442 29.2841 15.0714 29.2434 15.1057 29.2092C15.14 29.1749 15.1807 29.1477 15.2255 29.1291C15.2703 29.1106 15.3183 29.101 15.3668 29.101H36.8271ZM25.7898 15.5C25.9578 15.5 26.0961 15.6365 26.0961 15.8062V17.5212C26.0961 17.6025 26.0638 17.6804 26.0064 17.7378C25.9489 17.7952 25.871 17.8275 25.7898 17.8275H21.9626V26.6177C21.9626 26.699 21.9303 26.7769 21.8729 26.8343C21.8154 26.8917 21.7375 26.924 21.6563 26.924H19.4478C19.3666 26.924 19.2887 26.8917 19.2313 26.8343C19.1738 26.7769 19.1416 26.699 19.1416 26.6177V17.8275H15.3038C15.2226 17.8275 15.1447 17.7952 15.0873 17.7378C15.0298 17.6804 14.9976 17.6025 14.9976 17.5212V15.8062C14.9976 15.6365 15.1341 15.5 15.3038 15.5H25.7898ZM36.8253 22.8342C37.0301 22.8342 37.1946 23.0005 37.1946 23.2052V25.2405C37.1946 25.3384 37.1557 25.4324 37.0864 25.5016C37.0172 25.5708 36.9232 25.6097 36.8253 25.6097H29.0343C28.9365 25.6093 28.8429 25.5702 28.7737 25.5011C28.7046 25.4319 28.6655 25.3383 28.6651 25.2405V23.2052C28.6648 23.1566 28.6742 23.1084 28.6927 23.0634C28.7111 23.0184 28.7383 22.9775 28.7726 22.943C28.8069 22.9085 28.8477 22.8812 28.8926 22.8625C28.9375 22.8439 28.9857 22.8342 29.0343 22.8342H36.8253ZM36.8253 18.2108C36.9232 18.2108 37.0172 18.2497 37.0864 18.3189C37.1557 18.3881 37.1946 18.4821 37.1946 18.58V20.6152C37.1946 20.7132 37.1557 20.8071 37.0864 20.8763C37.0172 20.9456 36.9232 20.9845 36.8253 20.9845H29.0343C28.9365 20.984 28.8429 20.945 28.7737 20.8758C28.7046 20.8067 28.6655 20.713 28.6651 20.6152V18.58C28.6651 18.4821 28.704 18.3881 28.7732 18.3189C28.8425 18.2497 28.9364 18.2108 29.0343 18.2108H36.8253Z" fill="white"/>
</svg>
