<svg width="52" height="52" viewBox="0 0 52 52" fill="none" xmlns="http://www.w3.org/2000/svg">
<circle cx="26" cy="26" r="26" fill="#9661BC"/>
<path d="M32.3197 27.8889C31.3157 27.8888 30.3319 28.1709 29.4805 28.7032C28.6291 29.2354 27.9446 29.9962 27.5049 30.8989L20.8257 27.6462C21.0894 27.078 21.2364 26.4445 21.2364 25.7772C21.2364 25.0364 21.0544 24.3387 20.7359 23.725L29.1231 19.6779C29.658 20.6342 30.5324 21.355 31.5732 21.6976C32.614 22.0403 33.7455 21.9798 34.744 21.5283C35.7424 21.0768 36.5351 20.2671 36.9652 19.2592C37.3953 18.2514 37.4315 17.1188 37.0667 16.0856C36.7019 15.0523 35.9627 14.1935 34.9951 13.6791C34.0276 13.1647 32.9023 13.032 31.8417 13.3074C30.7811 13.5828 29.8624 14.2462 29.2674 15.1664C28.6724 16.0865 28.4444 17.1965 28.6284 18.2767L19.8247 22.5234C19.1838 21.9235 18.3799 21.5264 17.5141 21.3818C16.6482 21.2372 15.7589 21.3516 14.9579 21.7107C14.1568 22.0697 13.4797 22.6574 13.0114 23.3999C12.5432 24.1425 12.3047 25.0068 12.326 25.8844C12.3473 26.762 12.6273 27.6137 13.131 28.3327C13.6346 29.0517 14.3394 29.6059 15.157 29.9257C15.9745 30.2455 16.8682 30.3167 17.7261 30.1304C18.5839 29.944 19.3676 29.5084 19.9787 28.8782L27.0452 32.3187C26.91 33.0886 26.945 33.8788 27.1477 34.6337C27.3504 35.3886 27.7159 36.09 28.2186 36.6886C28.7212 37.2873 29.3488 37.7686 30.0573 38.0988C30.7658 38.429 31.538 38.6001 32.3197 38.6C33.7401 38.6 35.1023 38.0358 36.1067 37.0314C37.1111 36.0271 37.6753 34.6648 37.6753 33.2445C37.6753 31.8241 37.1111 30.4619 36.1067 29.4575C35.1023 28.4531 33.7401 27.8889 32.3197 27.8889ZM32.9392 14.751C33.679 14.752 34.3881 15.0463 34.9111 15.5695C35.434 16.0927 35.7281 16.802 35.7287 17.5417C35.7278 18.2811 35.4336 18.99 34.9106 19.5127C34.3876 20.0355 33.6786 20.3294 32.9392 20.33C32.1998 20.3294 31.4908 20.0355 30.9678 19.5127C30.4449 18.99 30.1506 18.2811 30.1497 17.5417C30.1503 16.802 30.4444 16.0927 30.9674 15.5695C31.4903 15.0463 32.1995 14.752 32.9392 14.751ZM16.7809 28.6484C16.0197 28.6475 15.2899 28.3447 14.7517 27.8064C14.2134 27.2682 13.9106 26.5384 13.9097 25.7772C13.9103 25.0158 14.213 24.2858 14.7513 23.7473C15.2896 23.2088 16.0195 22.9058 16.7809 22.9049C17.5422 22.9061 18.2719 23.2092 18.8102 23.7476C19.3484 24.286 19.6511 25.0159 19.6521 25.7772C19.6511 26.5384 19.3483 27.2682 18.8101 27.8064C18.2718 28.3447 17.5421 28.6475 16.7809 28.6484ZM32.3197 37.0157C31.3203 37.0148 30.3619 36.6176 29.6549 35.9112C28.9478 35.2048 28.5497 34.2468 28.5479 33.2474C28.5485 32.247 28.946 31.2877 29.6532 30.5801C30.3603 29.8726 31.3193 29.4744 32.3197 29.4732C33.3199 29.4748 34.2786 29.873 34.9855 30.5806C35.6924 31.2881 36.0898 32.2472 36.0904 33.2474C36.0904 35.3252 34.3987 37.0157 32.3197 37.0157Z" fill="white"/>
</svg>
