<svg width="52" height="52" viewBox="0 0 52 52" fill="none" xmlns="http://www.w3.org/2000/svg">
<circle cx="26" cy="26" r="26" fill="#F6BD16"/>
<path d="M26.0002 16.6667C20.8452 16.6667 16.6668 20.8451 16.6668 26C16.6668 31.1549 20.8452 35.3333 26.0002 35.3333C31.1551 35.3333 35.3335 31.1549 35.3335 26C35.3335 20.8451 31.1551 16.6667 26.0002 16.6667ZM14.3335 26C14.3335 19.5565 19.5567 14.3333 26.0002 14.3333C32.4437 14.3333 37.6668 19.5565 37.6668 26C37.6668 32.4435 32.4437 37.6667 26.0002 37.6667C19.5567 37.6667 14.3335 32.4435 14.3335 26Z" fill="white"/>
<path d="M21.3335 26C21.3335 24.7623 21.8252 23.5753 22.7003 22.7002C23.5755 21.825 24.7625 21.3333 26.0002 21.3333C27.2378 21.3333 28.4248 21.825 29.3 22.7002C30.1752 23.5753 30.6668 24.7623 30.6668 26C30.6668 27.2377 30.1752 28.4247 29.3 29.2998C28.4248 30.175 27.2378 30.6667 26.0002 30.6667C24.7625 30.6667 23.5755 30.175 22.7003 29.2998C21.8252 28.4247 21.3335 27.2377 21.3335 26Z" fill="white"/>
</svg>
