<svg width="52" height="52" viewBox="0 0 52 52" fill="none" xmlns="http://www.w3.org/2000/svg">
<circle cx="26" cy="26" r="26" fill="#F08BB4"/>
<g clip-path="url(#clip0_9486_1932)">
<path d="M25.9998 28.208C31.4238 28.208 35.8278 32.348 36.0318 37.532H37.4478C37.2438 31.592 32.1918 26.852 25.9998 26.852C19.8078 26.852 14.7558 31.604 14.5518 37.532H15.9678C16.1718 32.348 20.5758 28.208 25.9998 28.208Z" fill="white"/>
<path d="M26.0001 28.16C22.1961 28.16 19.1001 25.064 19.1001 21.26C19.1001 17.456 22.1961 14.372 26.0001 14.372C29.8041 14.372 32.9001 17.468 32.9001 21.272C32.9001 25.076 29.8041 28.16 26.0001 28.16ZM26.0001 15.812C22.9881 15.812 20.5401 18.26 20.5401 21.272C20.5401 24.284 22.9881 26.72 26.0001 26.72C29.0121 26.72 31.4601 24.272 31.4601 21.26C31.4601 18.248 29.0121 15.812 26.0001 15.812Z" fill="white"/>
</g>
<defs>
<clipPath id="clip0_9486_1932">
<rect width="24" height="24" fill="white" transform="translate(14 14)"/>
</clipPath>
</defs>
</svg>
