<?xml version="1.0" encoding="UTF-8"?>
<svg width="20px" height="20px" viewBox="0 0 20 20" version="1.1" xmlns="http://www.w3.org/2000/svg" xmlns:xlink="http://www.w3.org/1999/xlink">
    <!-- Generator: Sketch 63 (92445) - https://sketch.com -->
    <title>审核</title>
    <desc>Created with Sketch.</desc>
    <g id="审核" stroke="none" stroke-width="1" fill="none" fill-rule="evenodd">
        <g id="编组">
            <rect id="矩形" x="0" y="0" width="20" height="20"></rect>
            <g id="审核管理" transform="translate(2.000000, 1.000000)" fill="#000000" fill-rule="nonzero">
                <path d="M15.3155053,18 L0.684271664,18 C0.306367166,18 0,17.6903303 0,17.308258 C0,16.9261856 0.306367166,16.6165159 0.684271664,16.6165159 L15.3157401,16.6165159 C15.6935624,16.6165159 16,16.9261856 16,17.308258 C16,17.6903303 15.6935624,18 15.3155053,18 Z M15.3140964,15.2476311 L0.715913402,15.2476311 C0.338008904,15.2476311 0.031641738,14.9378427 0.031641738,14.5557704 L0.031641738,12.1096291 C0.031641738,10.9000301 1.00462225,9.91594755 2.20050383,9.91594755 L4.9660387,9.91594755 C4.92889048,9.18729204 4.6828246,8.01960348 4.46154377,7.76112603 C3.72911091,6.8085683 3.32987319,5.70486707 3.2833205,4.53995593 C3.27942252,3.26540819 3.79652719,2.05992783 4.70232624,1.20706023 C5.59367224,0.367391287 6.79779594,-0.0686625667 8.01641966,0.0092355617 C9.22514579,-0.0698257568 10.4230703,0.361599075 11.3132657,1.19268653 C12.2171979,2.03650972 12.7397856,3.2313196 12.7471824,4.47065116 C12.703741,5.67079035 12.3043154,6.77982088 11.5918773,7.70734629 C11.353537,7.98900446 11.1056865,9.1529898 11.0647107,9.88164531 L13.8296938,9.88164531 C15.0256223,9.88164531 15.9985911,10.8657279 15.9985911,12.0750895 L15.9985911,14.5560078 C15.9983563,14.9380801 15.6920361,15.2476311 15.3140964,15.2476311 Z M1.40019681,13.8640284 L14.6296016,13.8640284 L14.6296016,12.0748521 C14.6296016,11.6283295 14.2704473,11.264892 13.8292241,11.264892 L10.5968357,11.264892 C10.3739933,11.264892 10.1647704,11.1549824 10.0366771,10.970415 C9.84659187,10.6967092 9.72871319,10.3739833 9.69489938,10.0376077 C9.69196416,10.0081719 9.69102489,9.97849869 9.69172934,9.9483507 C9.7041747,9.51179833 9.89285104,7.58471282 10.5319085,6.83221192 C11.0465123,6.16108684 11.3464924,5.32769675 11.3787799,4.44862177 C11.3732617,3.6207865 11.0109374,2.79341413 10.3846775,2.20875681 C9.7600614,1.62572558 8.91776891,1.3287679 8.06749259,1.39205494 C8.03356138,1.39483235 7.99986498,1.39459496 7.96592202,1.39228045 C7.11265178,1.3257531 6.2609783,1.62966619 5.63517634,2.2189644 C5.0075428,2.81033974 4.64911646,3.64535592 4.65141768,4.5100572 C4.68580679,5.35944709 4.9859865,6.18914583 5.51914098,6.88414005 C6.14540083,7.61346023 6.32770186,9.54823704 6.33802211,9.9865698 C6.33871483,10.0118514 6.33778729,10.0373703 6.33573264,10.0624145 C6.30706135,10.3978406 6.18851343,10.7240086 5.99267514,11.0054294 C5.92946211,11.0962294 5.84563205,11.1701751 5.74821777,11.2213317 C5.65080348,11.2724883 5.54266975,11.2991942 5.43291577,11.2991942 L2.20072691,11.2991942 C1.75952719,11.2991942 1.40041988,11.6627505 1.40041988,12.1093917 L1.40041988,13.8640284 L1.40019681,13.8640284 Z" id="形状"></path>
            </g>
        </g>
    </g>
</svg>