<svg width="20" height="20" viewBox="0 0 20 20" fill="none" xmlns="http://www.w3.org/2000/svg">
    <g clip-path="url(#clip0_2399_24951)">
        <path d="M16.6679 0.833496C17.7312 0.833496 18.6844 1.51177 19.0327 2.53834C19.381 3.56491 19.0327 4.68314 18.1711 5.32475C17.3462 3.85822 16.1363 2.64833 14.6881 1.8234C15.1464 1.20013 15.8797 0.833496 16.6679 0.833496ZM2.79088 0.888491C3.76246 0.686843 4.7707 1.07181 5.33898 1.8784C3.89078 2.72165 2.71756 3.93154 1.89263 5.39807C1.08604 4.81146 0.682747 3.82155 0.884395 2.84998C1.06771 1.86007 1.81931 1.10847 2.79088 0.888491ZM9.55526 5.34308C9.33528 5.32475 9.09697 5.37974 8.93198 5.54473C8.767 5.69138 8.65701 5.91136 8.65701 6.14967V10.9526C8.65701 11.2275 8.87699 11.4475 9.15196 11.4475H12.7816C13.0199 11.4475 13.2399 11.3559 13.3866 11.1725C13.5332 11.0076 13.6065 10.7692 13.5882 10.5493C13.5332 10.146 13.1849 9.83433 12.7633 9.83433H10.2519V6.168C10.2519 5.74637 9.95855 5.39807 9.55526 5.34308ZM10.0685 1.75008C13.4966 1.75008 16.5763 3.91321 17.7495 7.15791C18.9227 10.4026 17.9695 14.0323 15.3481 16.2687L16.6679 17.5886C17.0346 17.9552 17.0346 18.5235 16.6679 18.8902C16.5029 19.0551 16.2646 19.1651 16.0263 19.1651C15.788 19.1651 15.5497 19.0735 15.3847 18.8902L13.8082 17.3136C11.4434 18.5419 8.63868 18.5235 6.2739 17.2953L4.67904 18.8902C4.51406 19.0551 4.27575 19.1651 4.03744 19.1651C3.79912 19.1651 3.56081 19.0735 3.39583 18.8902C3.0292 18.5235 3.0292 17.9552 3.39583 17.5886L4.73404 16.2504C2.09428 13.9956 1.15937 10.3659 2.35093 7.12125C3.54248 3.89488 6.6222 1.75008 10.0685 1.75008Z" fill="#1EAF69" />
    </g>
    <defs>
        <clipPath id="clip0_2399_24951">
            <rect width="20" height="20" fill="white" />
        </clipPath>
    </defs>
</svg>
    