<?xml version="1.0" standalone="no"?><!DOCTYPE svg PUBLIC "-//W3C//DTD SVG 1.1//EN" "http://www.w3.org/Graphics/SVG/1.1/DTD/svg11.dtd"><svg t="1669018991401" class="icon" viewBox="0 0 1024 1024" version="1.1" xmlns="http://www.w3.org/2000/svg" p-id="7625" xmlns:xlink="http://www.w3.org/1999/xlink" width="200" height="200"><path d="M98.133333 42.666667h827.733334c29.866667 0 55.466667 25.6 55.466666 55.466666v827.733334c0 29.866667-25.6 55.466667-55.466666 55.466666H98.133333c-29.866667 0-55.466667-25.6-55.466666-55.466666V98.133333C42.666667 68.266667 68.266667 42.666667 98.133333 42.666667z" fill="#476FF2" p-id="7626"></path><path d="M768 192H341.333333c-34.133333 0-64 29.866667-64 64v85.333333H256c-25.6 0-42.666667 17.066667-42.666667 42.666667v384c0 25.6 17.066667 42.666667 42.666667 42.666667h426.666667c25.6 0 42.666667-17.066667 42.666666-42.666667v-21.333333h42.666667c34.133333 0 64-29.866667 64-64V256c0-34.133333-29.866667-64-64-64zM341.333333 597.333333v-42.666666h106.666667v-106.666667h42.666667V554.666667H597.333333v42.666666h-106.666666v106.666667h-42.666667V597.333333H341.333333z m448 85.333334c0 12.8-8.533333 21.333333-21.333333 21.333333h-42.666667V384c0-25.6-17.066667-42.666667-42.666666-42.666667H320V256c0-12.8 8.533333-21.333333 21.333333-21.333333h426.666667c12.8 0 21.333333 8.533333 21.333333 21.333333v426.666667z" fill="#FFFFFF" p-id="7627"></path></svg>