<svg width="24" height="24" viewBox="0 0 24 24" fill="none" xmlns="http://www.w3.org/2000/svg">
<path d="M0 2C0 0.89543 0.895431 0 2 0H22C23.1046 0 24 0.895431 24 2V22C24 23.1046 23.1046 24 22 24H2C0.89543 24 0 23.1046 0 22V2Z" fill="#FF8934"/>
<path d="M20.5 14.8753V11.7083C20.4997 11.4322 20.3898 11.1674 20.1946 10.9721C19.9993 10.7768 19.7345 10.667 19.4583 10.6667H13V8.12474C13.9497 7.93125 14.6667 7.08945 14.6667 6.08333C14.6667 4.93464 13.732 4 12.5833 4C11.4346 4 10.5 4.93464 10.5 6.08333C10.5 7.08945 11.2169 7.93125 12.1667 8.12474V10.6667H5.70833C5.43216 10.667 5.16739 10.7768 4.97211 10.9721C4.77682 11.1674 4.66698 11.4322 4.66667 11.7083V14.8753C3.71693 15.0688 3 15.9105 3 16.9167C3 18.0654 3.93464 19 5.08333 19C6.23203 19 7.16667 18.0654 7.16667 16.9167C7.16667 15.9105 6.44974 15.0688 5.5 14.8753V11.7083C5.5 11.6531 5.52195 11.6001 5.56102 11.561C5.60009 11.5219 5.65308 11.5 5.70833 11.5H12.1667V14.8753C11.2169 15.0688 10.5 15.9105 10.5 16.9167C10.5 18.0654 11.4346 19 12.5833 19C13.732 19 14.6667 18.0654 14.6667 16.9167C14.6667 15.9105 13.9497 15.0688 13 14.8753V11.5H19.4583C19.5136 11.5 19.5666 11.5219 19.6056 11.561C19.6447 11.6001 19.6667 11.6531 19.6667 11.7083V14.8753C18.7169 15.0688 18 15.9105 18 16.9167C18 18.0654 18.9346 19 20.0833 19C21.232 19 22.1667 18.0654 22.1667 16.9167C22.1667 15.9105 21.4497 15.0688 20.5 14.8753V14.8753Z" fill="white"/>
</svg>
