<?xml version="1.0" encoding="utf-8"?>
<!-- Generator: Adobe Illustrator 22.0.0, SVG Export Plug-In . SVG Version: 6.00 Build 0)  -->
<svg version="1.1" id="图层_1" xmlns="http://www.w3.org/2000/svg" xmlns:xlink="http://www.w3.org/1999/xlink" x="0px" y="0px"
	 viewBox="0 0 96 96" style="enable-background:new 0 0 96 96;" xml:space="preserve">
<style type="text/css">
	.st0{fill:#EFF0FB;}
	.st1{fill:#6273C0;}
	.st2{fill:#F1EAEA;}
	.st3{fill:#E7DFDF;}
	.st4{fill:#F3EAE9;}
	.st5{fill:#6A6E7F;}
</style>
<title>Artboard</title>
<desc>Created with Sketch.</desc>
<g id="Artboard_1_">
	<g id="Group-4_1_" transform="translate(1.000000, 1.000000)">
		<g>
			<path class="st0" d="M48,57.6c16.5,0,30.7,6.9,37.2,16.8C90.7,66.7,94,57.2,94,47C94,21,73,0,47,0S0,21,0,47
				c0,10.9,3.7,20.9,9.9,28.9C15.9,65.2,30.7,57.6,48,57.6z"/>
			<path class="st1" d="M47,94c15.7,0,29.7-7.7,38.2-19.6C78.7,64.5,64.5,57.6,48,57.6c-17.3,0-32.1,7.6-38.1,18.3
				C18.5,86.9,31.9,94,47,94z"/>
		</g>
		<g>
			<g id="Mask_2_">
				<path id="path-3_3_" class="st2" d="M47.5,40.4L47.5,40.4c5.7,0,10.4,4.6,10.4,10.4c0,0.3,0,0.6,0,0.9c-0.1,1.6-0.2,3.1-0.2,4.5
					c0,0.6,0,1.3,0,1.9h0c0.3,5.6-4.1,10.4-9.7,10.6c-0.2,0-0.3,0-0.5,0l0,0c-5.6,0-10.2-4.6-10.2-10.2c0-0.2,0-0.3,0-0.5
					c0-0.8,0.1-1.7,0.1-2.5c0-1.4,0-2.7-0.1-4.1l0,0c-0.4-5.7,3.8-10.6,9.5-11C47,40.4,47.3,40.4,47.5,40.4z"/>
			</g>
			<path class="st3" d="M57.7,58.1c0-0.6,0-1.3,0-1.9c0-1.4,0.1-2.9,0.2-4.5c0-0.3,0-0.6,0-0.9c0-5.7-4.6-10.4-10.4-10.4
				c-0.2,0-0.5,0-0.7,0c-5.7,0.4-9.9,5.3-9.5,11c0.1,1.2,0.1,2.4,0.1,3.6c2.6,4.3,8.1,7.7,15.6,8c1.3,0,2.5,0,3.7-0.1
				C57.4,61.5,57.7,59.8,57.7,58.1L57.7,58.1z"/>
		</g>
		<path id="Oval-3_1_" class="st4" d="M47.5,59.9c4.3,0,11.2-2.2,13.9-18.2c1.9-10.7-2.8-16.8-13.9-18.5
			c-10.7,2.6-15.3,8.7-13.9,18.5C35.5,56.4,43.1,59.9,47.5,59.9z"/>
		<path id="Combined-Shape_2_" class="st5" d="M37.5,23.3c2.7-3.3,10.7-3.9,16.7-2.3c6,1.6,9.2,8.8,9.5,11.2
			c0.1,0.1,0.1,0.2,0.2,0.4c1.5,3.4,0.4,7.6-3.2,12.7c0.2-5.8-0.1-9.2-0.8-10.3c-2.8,0.8-6.8,1.2-10.4,0.8c-2.9-0.3-6.2-2-8.7-4.2
			c-1.3,1.9-5.3,3.2-6,4.3c-0.5,0.9-0.8,4-0.7,9.3c-2.1-4.2-3.1-7.9-3.1-11.2c0-4.9,0.5-9,6.4-10.7C37.4,23.4,37.4,23.4,37.5,23.3z"
			/>
	</g>
</g>
</svg>
