<?xml version="1.0" encoding="UTF-8"?>
<svg width="18px" height="18px" viewBox="0 0 18 18" version="1.1" xmlns="http://www.w3.org/2000/svg" xmlns:xlink="http://www.w3.org/1999/xlink">
    <!-- Generator: Sketch 60 (88103) - https://sketch.com -->
    <title>编组 6@3x</title>
    <desc>Created with Sketch.</desc>
    <g id="手动发起文档库同步" stroke="none" stroke-width="1" fill="none" fill-rule="evenodd" fill-opacity="0.75">
        <g id="配置同步计划策略" transform="translate(-568.000000, -253.000000)" fill="#3461EC" fill-rule="nonzero">
            <g id="编组-22备份" transform="translate(0.000000, -5.000000)">
                <g id="Group-8" transform="translate(298.000000, 106.000000)">
                    <g id="Group-14">
                        <g id="Group-27">
                            <g id="编组-6" transform="translate(271.000000, 153.000000)">
                                <path d="M8,-0.4 C3.3608081,-0.4 -0.4,3.3608081 -0.4,8 C-0.4,12.6391919 3.3608081,16.4 8,16.4 C12.6391919,16.4 16.4,12.6391919 16.4,8 C16.4,3.3608081 12.6391919,-0.4 8,-0.4 Z M8,0.4 C12.1973641,0.4 15.6,3.8026359 15.6,8 C15.6,12.1973641 12.1973641,15.6 8,15.6 C3.8026359,15.6 0.4,12.1973641 0.4,8 C0.4,3.8026359 3.8026359,0.4 8,0.4 Z" id="椭圆形"></path>
                                <path d="M11.1428571,5.65 C11.7694074,5.65 12.2821413,6.13344066 12.3437856,6.75001402 L12.35,6.875 L12.35,7.75 L11.65,7.75 L11.65,6.875 C11.65,6.61584769 11.4693072,6.40259578 11.2335864,6.35840588 L11.1428571,6.35 L6.85714286,6.35 C6.60962857,6.35 6.40143422,6.5344572 6.35822453,6.78021001 L6.35,6.875 L6.35,12.125 C6.35,12.3841523 6.53069277,12.5974042 6.76641356,12.6415941 L6.85714286,12.65 L11.1428571,12.65 C11.3903714,12.65 11.5985658,12.4655428 11.6417755,12.21979 L11.65,12.125 L11.65,11.25 L12.35,11.25 L12.35,12.125 C12.35,12.7577675 11.8764255,13.2807561 11.2665497,13.3436579 L11.1428571,13.35 L6.85714286,13.35 C6.23059259,13.35 5.71785867,12.8665593 5.65621439,12.249986 L5.65,12.125 L5.65,6.875 C5.65,6.24223254 6.12357453,5.71924391 6.73345029,5.65634208 L6.85714286,5.65 L11.1428571,5.65 Z" id="路径"></path>
                                <path d="M9.14285714,3.65 C9.78006642,3.65 10.2834737,4.19084533 10.3439105,4.86377422 L10.35,5 L10.35,6 L9.65,6 L9.65,5 C9.65,4.66706184 9.4555523,4.40691237 9.22195855,4.35821186 L9.14285714,4.35 L4.85714286,4.35 C4.61676729,4.35 4.39828203,4.57685565 4.35698873,4.8919067 L4.35,5 L4.35,11 C4.35,11.3329382 4.5444477,11.5930876 4.77804145,11.6417881 L4.85714286,11.65 L6,11.65 L6,12.35 L4.85714286,12.35 C4.21993358,12.35 3.7165263,11.8091547 3.65608948,11.1362258 L3.65,11 L3.65,5 C3.65,4.31127668 4.11358171,3.72738615 4.73157663,3.65709016 L4.85714286,3.65 L9.14285714,3.65 Z" id="路径"></path>
                                <path d="M12.125,9.56867984 L9,9.56867984 L9,8.76510841 L12.125,8.76510841 L12.125,8.08929368 C12.1249972,8.05512097 12.1444996,8.02394416 12.1752295,8.00899602 C12.2059594,7.99404787 12.2425259,7.99795077 12.2694085,8.01904814 L13.6426228,9.09664859 C13.6641956,9.11357431 13.6767949,9.13947392 13.6767949,9.16689413 C13.6767949,9.19431433 13.6641956,9.22021394 13.6426228,9.23713966 L12.2694085,10.3147401 C12.2425259,10.3358375 12.2059594,10.3397404 12.1752295,10.3247922 C12.1444996,10.3098441 12.1249972,10.2786673 12.125,10.2444946 L12.125,9.56867984 Z" id="路径"></path>
                            </g>
                        </g>
                    </g>
                </g>
            </g>
        </g>
    </g>
</svg>