<?xml version="1.0" encoding="UTF-8"?>
<svg width="16px" height="16px" viewBox="0 0 16 16" version="1.1" xmlns="http://www.w3.org/2000/svg" xmlns:xlink="http://www.w3.org/1999/xlink">
    <!-- Generator: Sketch 60 (88103) - https://sketch.com -->
    <title>形状结合@2x</title>
    <desc>Created with Sketch.</desc>
    <g id="手动发起文档库同步" stroke="none" stroke-width="1" fill="none" fill-rule="evenodd">
        <g id="画板备份-3" transform="translate(-472.000000, -369.000000)" fill="#90A7C9" fill-rule="nonzero">
            <g id="编组-2备份">
                <g id="编组-3" transform="translate(214.000000, 226.000000)">
                    <g id="编组-16">
                        <path d="M272.198519,143 C273.198815,143 273.99763,143.798815 273.99763,144.799111 L273.99763,157.200889 L274,157.200889 C274,158.201185 273.198815,159 272.200889,159 L259.799111,159 C258.798815,159 258,158.198815 258,157.200889 L258,144.799111 C258,143.798815 258.801185,143 259.799111,143 L272.198519,143 Z M265.634963,146.098074 L260.368,146.098074 L260.368,147.114963 L262.124444,147.114963 L262.124444,155.22163 L260.368,155.22163 L260.368,156.238519 L265.634963,156.238519 L265.634963,155.22163 L263.878519,155.22163 L263.878519,147.114963 L265.634963,147.114963 L265.634963,146.098074 Z M267.163852,155.022519 C266.886519,155.022519 266.663704,155.245333 266.663704,155.522667 C266.663704,155.79763 266.886519,156.022815 267.163852,156.022815 C267.438815,156.022815 267.664,155.8 267.664,155.522667 C267.664,155.247704 267.441185,155.022519 267.163852,155.022519 Z M269.164444,155.022519 C268.887111,155.022519 268.664296,155.245333 268.664296,155.522667 C268.664296,155.79763 268.887111,156.022815 269.164444,156.022815 C269.439407,156.022815 269.664593,155.8 269.664593,155.522667 C269.664593,155.247704 269.441778,155.022519 269.164444,155.022519 Z M271.162667,155.022519 C270.887704,155.022519 270.662519,155.245333 270.662519,155.522667 C270.662519,155.79763 270.885333,156.022815 271.162667,156.022815 C271.43763,156.022815 271.662815,155.8 271.662815,155.522667 C271.662815,155.247704 271.44,155.022519 271.162667,155.022519 Z" id="形状结合"></path>
                    </g>
                </g>
            </g>
        </g>
    </g>
</svg>