<?xml version="1.0" encoding="UTF-8"?>
<svg width="22px" height="22px" viewBox="0 0 22 22" version="1.1" xmlns="http://www.w3.org/2000/svg" xmlns:xlink="http://www.w3.org/1999/xlink">
    <!-- Generator: Sketch 60 (88103) - https://sketch.com -->
    <title>编组</title>
    <desc>Created with Sketch.</desc>
    <g id="手动发起文档库同步" stroke="none" stroke-width="1" fill="none" fill-rule="evenodd" fill-opacity="0.75">
        <g id="查看同步详情" transform="translate(-322.000000, -166.000000)" fill="#3461EC" fill-rule="nonzero">
            <g id="编组-2备份-3" transform="translate(0.000000, 0.000000)">
                <g id="编组-11" transform="translate(218.000000, 136.000000)">
                    <g id="编组" transform="translate(104.000000, 30.000000)">
                        <path d="M7.70052168,21.7352602 C7.32645932,22.0727021 6.76302139,22.0894184 6.36961471,21.7747462 L6.24787538,21.6595787 L0.266197061,15.0127662 C0.0126203962,14.7328213 -0.0670690915,14.3363739 0.0586375633,13.9801781 C0.184344218,13.6239823 0.495207546,13.3653875 0.868313196,13.3066413 L1.03118067,13.2951246 L20.9701084,13.2951246 C21.5080331,13.2953645 21.954853,13.7102196 21.9949878,14.2466856 C22.0351226,14.7831516 21.6550051,15.2598819 21.1231051,15.3401711 L20.9717535,15.3516878 L3.3376474,15.3516878 L7.77948773,20.2841492 C8.12002883,20.664202 8.12660933,21.2301683 7.81732563,21.6168021 L7.70216681,21.7369054 L7.70052168,21.7352602 Z" id="路径" opacity="0.398228237"></path>
                        <path d="M14.2991223,0.264739809 C14.6731846,-0.0727020891 15.2366226,-0.0894184477 15.6300292,0.225253794 L15.7517686,0.340421337 L21.7334469,6.98723378 C22.2927897,7.60913851 21.9144108,8.57490061 21.1313308,8.6917134 L20.9701084,8.70487541 L1.02789042,8.70487541 C0.490278003,8.70378238 0.0442643747,8.28868361 0.00458173334,7.75249602 C-0.035100908,7.21630844 0.344945456,6.74006463 0.876538826,6.65982891 L1.02789042,6.64831215 L18.6603514,6.6466669 L14.2234465,1.71585084 C13.8869547,1.34202522 13.8702512,0.779628432 14.1839634,0.386488354 L14.2991223,0.264739809 Z" id="路径"></path>
                    </g>
                </g>
            </g>
        </g>
    </g>
</svg>