<svg width="32" height="32" viewBox="0 0 32 32" fill="none" xmlns="http://www.w3.org/2000/svg">
    <path d="M27.6077 21.4823L15.2808 28.6289C13.9481 29.3951 12.2545 28.9354 11.4911 27.612L4.36974 15.2412C3.60625 13.9039 4.06435 12.2043 5.38311 11.4381L8.54813 9.59916C6.91009 8.48468 6.46588 6.24179 7.5903 4.58399C8.71471 2.9262 10.9358 2.50827 12.5877 3.62275C13.5039 4.24965 14.0869 5.25268 14.1563 6.35324L17.7239 4.29144C19.0566 3.52524 20.7501 3.98496 21.5136 5.30841L23.5265 8.81903C21.5414 8.86082 19.9728 10.5186 20.0144 12.5107C20.0561 14.5029 21.708 16.0771 23.6931 16.0353C24.9146 16.0074 26.0391 15.3527 26.6776 14.3079L28.6211 17.6792C29.3984 19.0165 28.9403 20.7161 27.6077 21.4823Z" fill="#6F5CDA"/>
</svg>
