<svg xmlns="http://www.w3.org/2000/svg" width="32" height="32">
  <g fill="none" fill-rule="evenodd">
    <circle cx="16" cy="16" r="16" fill="#000" fill-opacity=".05"/>
    <g opacity=".7">
      <path d="M8 8h16v16H8z"/>
      <path fill="#9197A9" fill-rule="nonzero" d="M8.8 19.387c0 .703.246 1.3.747 1.792l1.3 1.292c.492.492 1.09.729 1.792.729.712 0 1.31-.246 1.802-.747l1.818-1.827c.492-.492.73-1.09.73-1.793 0-.72-.255-1.335-.774-1.845l.773-.773a2.47 2.47 0 001.837.773 2.46 2.46 0 001.8-.738l1.837-1.836a2.46 2.46 0 00.738-1.8c0-.704-.246-1.301-.747-1.793l-1.3-1.292c-.492-.492-1.09-.729-1.792-.729-.712 0-1.31.246-1.802.747l-1.81 1.818c-.491.492-.729 1.09-.729 1.793 0 .72.255 1.335.774 1.845l-.774.773a2.47 2.47 0 00-1.836-.773 2.46 2.46 0 00-1.801.738l-1.836 1.836c-.501.5-.747 1.098-.747 1.81zm7.898-6.23c0-.236.08-.439.246-.597l1.82-1.827a.816.816 0 01.597-.246c.228 0 .43.079.597.237l1.31 1.292c.166.167.245.36.245.588 0 .237-.079.44-.246.598l-1.836 1.836a.815.815 0 01-.598.237.838.838 0 01-.632-.272l.167-.167c.096-.088.158-.158.193-.193.035-.036.08-.088.132-.167a.696.696 0 00.114-.229c.018-.07.035-.158.035-.246 0-.237-.079-.44-.246-.597a.852.852 0 00-.843-.211.792.792 0 00-.229.114c-.079.053-.131.097-.167.132l-.193.193c-.088.097-.15.15-.167.167a.811.811 0 01-.299-.641zm-6.202 6.23c0-.237.079-.44.246-.597l1.836-1.837a.816.816 0 01.597-.246c.246 0 .457.097.633.281l-.167.167c-.097.088-.158.158-.193.194-.035.035-.08.087-.132.167a.696.696 0 00-.114.228c-.018.07-.035.158-.035.246 0 .237.079.44.246.597a.816.816 0 00.597.246.792.792 0 00.474-.15c.08-.052.132-.096.167-.13l.194-.194c.088-.097.149-.15.167-.167.193.185.29.395.29.641 0 .238-.08.44-.246.598l-1.82 1.827a.815.815 0 01-.597.238.844.844 0 01-.597-.229l-1.3-1.291a.797.797 0 01-.246-.59z"/>
    </g>
  </g>
</svg>
