<svg xmlns="http://www.w3.org/2000/svg" viewBox="0 0 200 200">
  <path fill="#1dc2f3" d="M21 4h119.4c2 0 4 .8 5.4 2.1l38.6 35.8c1.6 1.5 2.6 3.6 2.6 5.9V188c0 4.4-3.6 8-8 8H21c-4.4 0-8-3.6-8-8V12c0-4.4 3.6-8 8-8z"/>
  <path fill="#fff" d="M149 107.7c0-7.6-1.8-15.3-5.5-22.2 1.8-5.1 4.1-10.7 4.1-16 0-10.2-7.3-13.4-16.2-13.4-7.7 0-17.1 3.5-23.7 6.5H105C85 62.5 67 77.1 62.6 97c5.9-6.7 14.8-16.2 23.2-19.7-10.7 9.5-19.4 21.3-26 33.6-1.8 3.5-5.7 10-6.2 13-1.6 5.1-2.7 10-2.7 15.3 0 9.3 3.9 14.8 13 14.8 6.8 0 15.3-3.2 21.4-6.3 6.2 3.2 12.8 4.6 19.4 4.6 18.7 0 35.1-12 41.3-29.7h-23c-3.2 6.3-10.3 9.7-17.3 9.7-10.7 0-20.1-8.3-20.1-19.2h63.1c.3-1.7.3-3.6.3-5.4zm-80.7 42.6c-6.4 0-10-3.2-10-9.7 0-5.8 3-13.2 5.5-18.5 3.4 10 10 18.1 19.1 23.6-4.6 2.3-9.6 4.6-14.6 4.6zm17.3-49.1c.5-10.7 9.3-18.5 19.6-18.5s19.6 8.1 19.8 18.5H85.6zm35.6-35c4.6-1.9 9.6-3.7 14.1-3.7 5.7 0 10 3.2 10 9.7 0 3.9-1.1 8.1-3 12-4.9-8.3-12-14.5-21.1-18z"/>
</svg>
