<!-- Generator: Adobe Illustrator 22.0.0, SVG Export Plug-In . SVG Version: 6.00 Build 0)  -->
<svg version="1.1" id="下载" xmlns="http://www.w3.org/2000/svg" xmlns:xlink="http://www.w3.org/1999/xlink" x="0px" y="0px"
	 viewBox="0 0 200 200" enable-background="new 0 0 200 200" xml:space="preserve">
<g>
	<path fill="#505050" d="M94.116,131.257c3.112,3.111,8.203,3.111,11.314,0l0.452-0.452l41.356-41.355
		c1.167-1.167,1.167-3.076,0-4.243l-4.95-4.95c-1.167-1.167-3.076-1.167-4.243,0l-31.546,31.546V5.081c0-1.65-1.35-2-3-2h-7
		c-1.65,0-3,0.35-3,2v107.174L61.954,80.709c-1.167-1.167-3.076-1.167-4.243,0l-4.95,4.95c-1.167,1.167-1.167,3.076,0,4.243
		L94.116,131.257z"/>
</g>
<g>
	<path fill="#505050" d="M174,197H26c-13.255,0-24-10.745-24-24v-37.41c0-1.657,1.343-3,3-3h6c1.657,0,3,1.343,3,3V173
		c0,6.627,5.373,12,12,12h148c6.627,0,12-5.373,12-12v-37.41c0-1.657,1.343-3,3-3h6c1.657,0,3,1.343,3,3V173
		C198,186.255,187.255,197,174,197z"/>
</g>
</svg>
