<svg xmlns="http://www.w3.org/2000/svg" viewBox="0 0 200 200">
  <path fill="#5d71a4" d="M21 4h119.4c2 0 4 .8 5.4 2.1l38.6 35.8c1.6 1.5 2.6 3.6 2.6 5.9V188c0 4.4-3.6 8-8 8H21c-4.4 0-8-3.6-8-8V12c0-4.4 3.6-8 8-8z"/>
  <path fill="#fff" d="M144.2 115.1l-8.6-4.7c.2-1.7.5-3.3.5-5.2 0-1.9-.2-3.5-.5-5.2l8.6-4.7c1.7-.9 2.4-3.1 1.2-4.7L135.8 74c-.5-.7-1.2-1.4-2.2-1.7-1-.2-1.9 0-2.6.5l-8.6 5c-2.6-2.1-5.8-3.8-8.9-5.2v-9.9c0-1.9-1.7-3.5-3.6-3.5H90.4c-1.9 0-3.6 1.7-3.6 3.5v9.9c-3.1 1.2-6 2.8-8.6 5l-8.9-5c-1.7-.9-4.1-.5-4.8 1.4l-9.6 16.6c-1 1.7-.5 3.8 1.2 4.7l8.6 4.7c-.2 1.7-.5 3.5-.5 5.2 0 1.7.2 3.3.2 5l-8.6 4.7c-1.7.9-2.4 3.1-1.4 5l9.6 16.6c.7.9 1.9 1.7 3.1 1.7.7 0 1.2-.2 1.9-.5l8.4-4.7c2.6 2.1 5.8 3.8 9.1 5.2v9.5c0 1.9 1.7 3.5 3.6 3.5h19.4c1.9 0 3.6-1.7 3.6-3.5V138c3.4-1.2 6.5-3.1 9.1-5.2l8.4 4.7c.5.2 1 .5 1.7.5h1c.7-.2 1.7-.7 2.2-1.7l9.6-16.6c1.5-1.3.8-3.5-.9-4.6zm-43.9 5.6c-8.9 0-15.8-7.1-15.8-15.6s7.2-15.6 15.8-15.6c8.6 0 15.8 7.1 15.8 15.6s-7.2 15.6-15.8 15.6z"/>
</svg>
