<svg xmlns="http://www.w3.org/2000/svg" viewBox="0 0 200 200"><title>file-ppt</title><path d="M21,4H140.4a8.1,8.1,0,0,1,5.4,2.1l38.6,35.8a8.09,8.09,0,0,1,2.6,5.9V188a8,8,0,0,1-8,8H21a8,8,0,0,1-8-8V12A8,8,0,0,1,21,4Z" style="fill:#ff764b"/><path d="M154,71H125V57a3.1,3.1,0,0,0-3.3-2.7l-76,7.9a3.11,3.11,0,0,0-2.7,3v79.6a3.11,3.11,0,0,0,2.7,3l76,7.9h.3a3,3,0,0,0,3-3V139h29a3,3,0,0,0,3-3V74A3,3,0,0,0,154,71ZM84.8,113.2H79.2V129H67.8V81.4H84.5c10.5,0,19.1,3.7,19.1,15.5C103.6,108.2,94.8,113.2,84.8,113.2ZM151,133H125V118h16v-7H125V98h16V91H125V77h26Z" style="fill:#fff"/><path d="M84,90.4H79.3v13.8h5c5.6,0,8.3-2.6,8.3-7.3S89.5,90.4,84,90.4Z" style="fill:#fff"/></svg>