<svg xmlns="http://www.w3.org/2000/svg" viewBox="0 0 200 200">
  <path fill="#03cdaa" d="M21 4h119.4c2 0 4 .8 5.4 2.1l38.6 35.8c1.6 1.5 2.6 3.6 2.6 5.9V188c0 4.4-3.6 8-8 8H21c-4.4 0-8-3.6-8-8V12c0-4.4 3.6-8 8-8z"/>
  <path fill="#fff" d="M154 71h-29V57.3 57c-.2-1.6-1.6-2.8-3.3-2.7l-76 7.9c-1.5.2-2.7 1.4-2.7 3v79.6c0 1.5 1.2 2.8 2.7 3l76 7.9h.3c1.7 0 3-1.3 3-3V139h29c1.7 0 3-1.3 3-3V74c0-1.7-1.3-3-3-3zm-62.5 58l-4.4-9.3c-1.2-2.5-2.2-5-3.5-7.9h-.3c-1.2 2.9-2.2 5.4-3.3 7.9l-4 9.3H63.7l13.1-24.5-12.3-23.1h12.7l3.8 8.5c1 2.2 2.1 4.7 3.5 7.8h.3c1.1-3.1 2.1-5.6 3.1-7.8l3.5-8.5h12.1L91.1 105l13.1 24H91.5zm59.5 4h-26v-15h16v-7h-16V98h16v-7h-16V77h26v56z"/>
</svg>
