<svg xmlns="http://www.w3.org/2000/svg" viewBox="0 0 200 200"><title>file-ai</title><rect x="32.6" y="32" width="129.9" height="143" style="fill:#fff"/><path d="M184.4,41.9,145.8,6.1A8.1,8.1,0,0,0,140.4,4H21a8,8,0,0,0-8,8V188a8,8,0,0,0,8,8H179a8,8,0,0,0,8-8V47.8A8.09,8.09,0,0,0,184.4,41.9Zm-57.9-5.4c4.7,0,8.1,3,8.1,7.4,0,4.2-3.4,7.3-8.1,7.3-4.9,0-8.2-3.1-8.2-7.3S121.7,36.5,126.5,36.5Zm7,21V103H119.3V57.5Zm-54.9-14H95.7L114.2,103h-15L95.7,89.3H78.1L74.7,103H60.1Zm70.5,102.2a9.24,9.24,0,0,1-8.5-5.6H119.7a41.92,41.92,0,0,1,22.1,37h-7.6a34.37,34.37,0,0,0-27.9-33.8,9.19,9.19,0,0,1-6.1,2.3,9,9,0,0,1-6.2-2.4A34.37,34.37,0,0,0,65.6,177H58a41.92,41.92,0,0,1,22.1-37H58.8a9.24,9.24,0,0,1-8.5,5.6A9.3,9.3,0,1,1,59,133H91.6a9.36,9.36,0,0,1,8.7-6,9.26,9.26,0,0,1,8.7,6h31.6a9.36,9.36,0,0,1,8.7-6,9.08,9.08,0,0,1,9.1,9.4A9.35,9.35,0,0,1,149.1,145.7Z" style="fill:#ff8934"/><path d="M91.7,73.3c-1.6-5.9-3.1-13-4.7-19.1h-.3c-1.4,6.2-3,13.2-4.6,19.1l-1.3,5H93Z" style="fill:#ff8934"/></svg>