<svg xmlns="http://www.w3.org/2000/svg" viewBox="0 0 200 200"><title>file-video</title><path d="M21.9,4H141.3a8.1,8.1,0,0,1,5.4,2.1l38.6,35.8a8.09,8.09,0,0,1,2.6,5.9V188a8,8,0,0,1-8,8H21.9a8,8,0,0,1-8-8V12A8,8,0,0,1,21.9,4Z" style="fill:#7e6aff"/><path d="M120,138H46a3,3,0,0,1-3-3V75a3,3,0,0,1,3-3h74a3,3,0,0,1,3,3v60A3,3,0,0,1,120,138Z" style="fill:#fff"/><path d="M94.9,103.1,76,89.2a2,2,0,0,0-3.2,1.6v27.9a2,2,0,0,0,3.2,1.6l18.9-13.9A2.06,2.06,0,0,0,94.9,103.1Z" style="fill:#7e6aff"/><path d="M153.4,124.7,139,120.5a3,3,0,0,1-2.2-2.9v-25a3.09,3.09,0,0,1,2.2-2.9l14.4-4.2a3,3,0,0,1,3.8,2.9v33.5A2.91,2.91,0,0,1,153.4,124.7Z" style="fill:#fff"/></svg>