
<svg width="16" height="16" xmlns="http://www.w3.org/2000/svg"><g fill="#333"><path d="M14.19.007H1.45C.861.007.364.368.14.865c-.227.543-.136 1.175.27 1.582l.045.045L5.32 6.184c.09.09.136.18.181.316V13c0 .542.271 1 .768 1.225l1.867 1.187c.226.136.452.18.723.18.407 0 .768-.135 1.04-.45.27-.272.406-.633.406-1.04v-7.5a.41.41 0 01.135-.315l4.79-3.795.044-.045c.407-.452.542-1.085.271-1.582-.225-.542-.768-.858-1.355-.858zM9.851 5.473c-.361.271-.542.678-.542 1.13v7.544c0 .136-.09.271-.18.362-.046.045-.136.045-.181.045-.09 0-.404-.009-.449-.054l-1.765-1.12c-.136-.046-.235-.2-.235-.38V6.5c0-.452-.139-.729-.5-1L1.359 1.814l-.18-.135a.44.44 0 01-.046-.407c.045-.136.18-.226.362-.226h12.694c.136 0 .271.09.362.226.09.136.09.271 0 .407L9.852 5.473z"/><path d="M11.84 12.656c-.271 0-.497-.225-.497-.542 0-.27.226-.542.497-.542h3.343c.271 0 .497.226.497.542a.513.513 0 01-.136.362c-.09.09-.225.135-.361.18H11.84zm0-2.349c-.271 0-.497-.226-.497-.542 0-.27.226-.542.497-.542h3.343c.271 0 .497.226.497.542a.513.513 0 01-.136.362c-.09.09-.225.135-.361.18H11.84zm0-2.349c-.271 0-.497-.226-.497-.542 0-.271.226-.542.497-.542h3.343c.271 0 .497.226.497.542a.513.513 0 01-.136.361c-.09.09-.225.136-.361.181H11.84z"/></g></svg>
