<?xml version="1.0" encoding="UTF-8"?>
<svg width="20px" height="20px" viewBox="0 0 20 20" version="1.1" xmlns="http://www.w3.org/2000/svg" xmlns:xlink="http://www.w3.org/1999/xlink">
    <!-- Generator: Sketch 63 (92445) - https://sketch.com -->
    <title>流转</title>
    <desc>Created with Sketch.</desc>
    <g id="流转" stroke="none" stroke-width="1" fill="none" fill-rule="evenodd">
        <g id="编组">
            <rect id="矩形" x="0" y="0" width="20" height="20"></rect>
            <g id="文档流转" transform="translate(2.000000, 3.000000)" fill="#000000" fill-rule="nonzero">
                <path d="M3.21017692,11.840517 C2.64970513,11.840517 2.089151,11.6348876 1.68149772,11.2235456 C1.27384444,10.8122036 1.07005897,10.2980054 1.07005897,9.68103402 C1.07005897,9.11549075 1.27384444,8.5498644 1.68149772,8.13852244 C2.089151,7.72718047 2.59873818,7.52155103 3.21017692,7.52155103 L4.2802359,7.52155103 L4.2802359,6.44180954 L3.21017692,6.44180954 C1.4267453,6.44180954 0,7.88146486 0,9.68103402 C0,11.4806032 1.4267453,12.9202585 3.21017692,12.9202585 L3.21017692,14 L4.78982308,12.4060603 L3.21017692,10.7606924 L3.21017692,11.840517 L3.21017692,11.840517 Z M12.7898231,1.09444711 L11.7197641,1.09444711 L11.7197641,2.17418861 L12.7898231,2.17418861 C13.3502949,2.17418861 13.910849,2.37981805 14.3185023,2.79116001 C14.7261556,3.20250197 14.929941,3.7167002 14.929941,4.3336716 C14.929941,4.950643 14.7260732,5.46484122 14.3185023,5.87618319 C13.910849,6.28752515 13.4013442,6.49315459 12.7898231,6.49315459 L12.7898231,5.41341309 L11.2101769,7.00735281 L12.7898231,8.60129253 L12.7898231,7.52155103 C14.5732547,7.52155103 16,6.08189571 16,4.28232655 C16,2.53410244 14.5732547,1.09444711 12.7898231,1.09444711 Z M9.92488756,3.15880052 L6.08499295,3.15880052 C5.67643396,3.15880052 5.34395488,2.82331298 5.34395488,2.41105711 L5.34395488,0.747743417 C5.34395488,0.335487547 5.67643396,0 6.08499295,0 L9.92488756,0 C10.3335289,0 10.6659256,0.335487547 10.6659256,0.747743417 L10.6659256,2.41105711 C10.6659256,2.82331298 10.3335289,3.15880052 9.92488756,3.15880052 Z M6.33200564,2.1618093 L9.67787487,2.1618093 L9.67787487,0.996991223 L6.33200564,0.996991223 L6.33200564,2.1618093 Z M9.92488756,8.47608705 L6.08499295,8.47608705 C5.67643396,8.47608705 5.34395488,8.14068258 5.34395488,7.72834363 L5.34395488,6.06502994 C5.34395488,5.65277407 5.67643396,5.31728652 6.08499295,5.31728652 L9.92488756,5.31728652 C10.3335289,5.31728652 10.6659256,5.65277407 10.6659256,6.06502994 L10.6659256,7.72834363 C10.6659256,8.14068258 10.3335289,8.47608705 9.92488756,8.47608705 Z M6.33200564,7.47909582 L9.67787487,7.47909582 L9.67787487,6.31427775 L6.33200564,6.31427775 L6.33200564,7.47909582 Z M9.92488756,13.9854605 L6.08499295,13.9854605 C5.67643396,13.9854605 5.34395488,13.6500561 5.34395488,13.2377171 L5.34395488,11.5744034 C5.34395488,11.1620645 5.67643396,10.82666 6.08499295,10.82666 L9.92488756,10.82666 C10.3335289,10.82666 10.6659256,11.1620645 10.6659256,11.5744034 L10.6659256,13.2377171 C10.6659256,13.6500561 10.3335289,13.9854605 9.92488756,13.9854605 Z M6.33200564,12.9884693 L9.67787487,12.9884693 L9.67787487,11.8236512 L6.33200564,11.8236512 L6.33200564,12.9884693 Z" id="形状"></path>
            </g>
        </g>
    </g>
</svg>