<svg xmlns="http://www.w3.org/2000/svg" id="图层_1" x="0" y="0" version="1.1" viewBox="0 0 128 128" xml:space="preserve">
  <g id="归档库_x5F_复制">
    <path fill="#89cbff" d="M9 13h52c1.3 0 2.6.7 3.3 1.8l13.8 27.5H5V17c0-2.2 1.8-4 4-4z"/>
    <path fill="#dceefe" d="M118.8 110.2H9c-2.2 0-4-1.8-4-4v-76c0-2.7 2.1-4.8 4.8-4.8h109c2.2 0 4 1.8 4 4v76.8c0 2.2-1.8 4-4 4z"/>
    <path fill="#89cbff" d="M118.8 115.2H9c-2.2 0-4-1.8-4-4V38.8c0-2.2 1.8-4 4-4h109.8c2.2 0 4 1.8 4 4v72.4c0 2.2-1.8 4-4 4z"/>
    <path fill="#3b96e8" d="M64.1 48.1c-15.3 0-27.7 12.4-27.7 27.7 0 15.3 12.4 27.7 27.7 27.7 15.3 0 27.7-12.4 27.7-27.7 0-15.3-12.4-27.7-27.7-27.7zM44.4 75.8c0-10.9 8.8-19.7 19.7-19.7 4 0 7.7 1.2 10.8 3.2L47.6 86.6c-2-3.1-3.2-6.8-3.2-10.8zm19.7 19.7c-4 0-7.7-1.2-10.8-3.2L80.6 65c2 3.1 3.2 6.8 3.2 10.8 0 10.9-8.8 19.7-19.7 19.7z"/>
  </g>
</svg>
