<svg xmlns="http://www.w3.org/2000/svg" xmlns:xlink="http://www.w3.org/1999/xlink" viewBox="0 0 200 200"><defs><linearGradient id="a" x1="0.5" y1="199.95" x2="0.5" y2="199.05" gradientTransform="matrix(192, 0, 0, -168, 4, 33616)" gradientUnits="userSpaceOnUse"><stop offset="0" stop-color="#71c7ff"/><stop offset="1" stop-color="#008fec"/></linearGradient></defs><title>知识库2</title><path d="M12,16H87.73a8,8,0,0,1,5,1.77l27.07,21.81a8,8,0,0,0,5,1.77H188a8,8,0,0,1,8,8V176a8,8,0,0,1-8,8H12a8,8,0,0,1-8-8V24A8,8,0,0,1,12,16Z" style="fill:url(#a)"/><g style="opacity:0.800000011920929"><path d="M48,80.26q29.6-6.83,46,7V150q-21-12.94-46-7Z" style="fill:#fff"/><path d="M152,80.26q-29.59-6.83-46,7V150q21-12.94,46-7Z" style="fill:#fff"/></g></svg>