<svg xmlns="http://www.w3.org/2000/svg" viewBox="0 0 200 200">
  <linearGradient id="a" x1=".5" x2=".5" y1="199.948" y2="199.047" gradientTransform="matrix(192 0 0 -168 4 33616)" gradientUnits="userSpaceOnUse">
    <stop offset="0" stop-color="#71c7ff"/>
    <stop offset="1" stop-color="#008fec"/>
  </linearGradient>
  <path fill="url(#a)" d="M12 16h75.7c1.8 0 3.6.6 5 1.8l27.1 21.8c1.4 1.1 3.2 1.8 5 1.8H188c4.4 0 8 3.6 8 8V176c0 4.4-3.6 8-8 8H12c-4.4 0-8-3.6-8-8V24c0-4.4 3.6-8 8-8z"/>
  <path fill="#fff" d="M151.7 131.9H145V117c0-4.4-3.6-8-8-8h-31V95h9c1.7 0 3-1.3 3-3V64c0-1.7-1.3-3-3-3H87c-1.7 0-3 1.3-3 3v28c0 1.7 1.3 3 3 3h9v14H65c-4.4 0-8 3.6-8 8v14.9h-8c-2.2 0-4 1.8-4 4v24c0 2.2 1.8 4 4 4h24c2.2 0 4-1.8 4-4v-24c0-2.2-1.8-4-4-4h-6V119h68v12.9h-7.3c-2.2 0-4 1.8-4 4v24c0 2.2 1.8 4 4 4h24c2.2 0 4-1.8 4-4v-24c0-2.2-1.8-4-4-4z" opacity=".8"/>
</svg>
