<svg width="64px" height="64px" viewBox="0 0 64 64" version="1.1" xmlns="http://www.w3.org/2000/svg" xmlns:xlink="http://www.w3.org/1999/xlink">
    <!-- Generator: Sketch 51.3 (57544) - http://www.bohemiancoding.com/sketch -->
    <title>请选择文档操作</title>
    <desc>Created with Sketch.</desc>
    <defs></defs>
    <g id="请选择文档操作" stroke="none" stroke-width="1" fill="none" fill-rule="evenodd">
        <g id="Group" transform="translate(1.000000, 8.000000)">
            <ellipse id="Oval" fill="#F1F2F4" cx="31" cy="40.5" rx="31" ry="7.5"></ellipse>
            <path d="M8.45388107,20.6453924 L17.9299092,9.09699933 C18.4997381,8.40255136 19.3507764,8 20.2490876,8 L40.6710482,8 C41.5628012,8 42.408333,8.39672035 42.9782963,9.08255219 L52.5381654,20.5858588 C52.8366147,20.9449802 53,21.3972097 53,21.8641574 L53,32.6958118 L8,33 L8,21.9140595 C8,21.451402 8.16040189,21.0030542 8.45388107,20.6453924 Z" id="Path-2" fill="#FFFFFF"></path>
            <path d="M52.25,21.8641574 C52.25,21.5723151 52.1478842,21.2896716 51.9613534,21.0652208 L42.4014842,9.56191414 C41.9740118,9.04754026 41.3398629,8.75 40.6710482,8.75 L20.2490876,8.75 C19.5753542,8.75 18.9370755,9.05191352 18.5097038,9.5727495 L9.03367567,21.1211426 C8.85025118,21.3446812 8.75,21.6248986 8.75,21.9140595 L8.75,32.2449131 L52.25,31.9508645 L52.25,21.8641574 Z M7.87408647,20.1696422 L17.3501146,8.62124916 C18.0624008,7.75318919 19.1261986,7.25 20.2490876,7.25 L40.6710482,7.25 C41.7857394,7.25 42.8426542,7.74590044 43.5551083,8.60319024 L53.1149774,20.1064969 C53.5253452,20.6002887 53.75,21.2221044 53.75,21.8641574 L53.75,33.4407592 L7.25,33.7550869 L7.25,21.9140595 C7.25,21.2779054 7.4705526,20.6614272 7.87408647,20.1696422 Z" id="Path-2" fill="#CFD1DB" fill-rule="nonzero"></path>
            <g id="Group-2" transform="translate(16.000000, 0.000000)">
                <rect id="Rectangle" fill="#FFFFFF" x="0" y="0" width="30" height="32" rx="3"></rect>
                <path d="M3,1.5 C2.17157288,1.5 1.5,2.17157288 1.5,3 L1.5,29 C1.5,29.8284271 2.17157288,30.5 3,30.5 L27,30.5 C27.8284271,30.5 28.5,29.8284271 28.5,29 L28.5,3 C28.5,2.17157288 27.8284271,1.5 27,1.5 L3,1.5 Z M3,0 L27,0 C28.6568542,-3.04359188e-16 30,1.34314575 30,3 L30,29 C30,30.6568542 28.6568542,32 27,32 L3,32 C1.34314575,32 2.02906125e-16,30.6568542 0,29 L0,3 C-2.02906125e-16,1.34314575 1.34314575,3.04359188e-16 3,0 Z" id="Rectangle" fill="#CFD1DB" fill-rule="nonzero"></path>
                <rect id="Rectangle-2-Copy" fill="#F1F2F4" x="8" y="11" width="15" height="1.5"></rect>
                <rect id="Rectangle-2-Copy-3" fill="#F1F2F4" x="8" y="6.5" width="15" height="1.5"></rect>
                <rect id="Rectangle-2-Copy-2" fill="#F1F2F4" x="8" y="15.5" width="15" height="1.5"></rect>
            </g>
            <path d="M8,22 L8,39 C8,40.6568542 9.34314575,42 11,42 L50,42 C51.6568542,42 53,40.6568542 53,39 L53,22 C53,21.4477153 52.5522847,21 52,21 L44.0631927,21 C42.419369,21 41.0867866,22.3325824 41.0867866,23.9764061 L41.0867866,24.9528121 C41.0867866,26.0573816 40.1913561,26.9528121 39.0867866,26.9528121 L23.3753126,26.9528121 C22.2707431,26.9528121 21.3753126,26.0573816 21.3753126,24.9528121 L21.3753126,23.9764061 C21.3753126,22.3325824 20.0427302,21 18.3989065,21 L9,21 C8.44771525,21 8,21.4477153 8,22 Z" id="Path" fill="#FAFAFA"></path>
            <path d="M7.25,22 C7.25,21.0335017 8.03350169,20.25 9,20.25 L18.3989065,20.25 C20.4569438,20.25 22.1253126,21.9183688 22.1253126,23.9764061 L22.1253126,24.9528121 C22.1253126,25.6431681 22.6849567,26.2028121 23.3753126,26.2028121 L39.0867866,26.2028121 C39.7771426,26.2028121 40.3367866,25.6431681 40.3367866,24.9528121 L40.3367866,23.9764061 C40.3367866,21.9183688 42.0051555,20.25 44.0631927,20.25 L52,20.25 C52.9664983,20.25 53.75,21.0335017 53.75,22 L53.75,39 C53.75,41.0710678 52.0710678,42.75 50,42.75 L11,42.75 C8.92893219,42.75 7.25,41.0710678 7.25,39 L7.25,22 Z M8.75,22 L8.75,39 C8.75,40.2426407 9.75735931,41.25 11,41.25 L50,41.25 C51.2426407,41.25 52.25,40.2426407 52.25,39 L52.25,22 C52.25,21.8619288 52.1380712,21.75 52,21.75 L44.0631927,21.75 C42.8335826,21.75 41.8367866,22.746796 41.8367866,23.9764061 L41.8367866,24.9528121 C41.8367866,26.4715952 40.6055697,27.7028121 39.0867866,27.7028121 L23.3753126,27.7028121 C21.8565295,27.7028121 20.6253126,26.4715952 20.6253126,24.9528121 L20.6253126,23.9764061 C20.6253126,22.746796 19.6285167,21.75 18.3989065,21.75 L9,21.75 C8.86192881,21.75 8.75,21.8619288 8.75,22 Z" id="Path" fill="#CFD1DB" fill-rule="nonzero"></path>
        </g>
    </g>
</svg>
