<?xml version="1.0" encoding="utf-8"?>
<!-- Generator: Adobe Illustrator 22.0.0, SVG Export Plug-In . SVG Version: 6.00 Build 0)  -->
<svg version="1.1" id="图层_1" xmlns="http://www.w3.org/2000/svg" xmlns:xlink="http://www.w3.org/1999/xlink" x="0px" y="0px"
	 viewBox="0 0 128 128" style="enable-background:new 0 0 128 128;" xml:space="preserve">
<style type="text/css">
	.st0{fill:#89CBFF;}
	.st1{fill:#DCEEFE;}
	.st2{fill:#3B96E8;}
</style>
<g id="个人文档">
	<path class="st0" d="M9,13h52c1.3,0,2.6,0.7,3.3,1.8l13.8,27.5H5V17C5,14.8,6.8,13,9,13z"/>
	<path class="st1" d="M118.8,110.2H9c-2.2,0-4-1.8-4-4v-76c0-2.7,2.1-4.8,4.8-4.8h109c2.2,0,4,1.8,4,4v76.8
		C122.8,108.4,121,110.2,118.8,110.2z"/>
	<path class="st0" d="M118.8,115.2H9c-2.2,0-4-1.8-4-4V38.8c0-2.2,1.8-4,4-4h109.8c2.2,0,4,1.8,4,4v72.4
		C122.8,113.4,121,115.2,118.8,115.2z"/>
	<path class="st2" d="M61,56.9c-0.4-0.2-0.8-0.3-1.2-0.5c-4.6-1.5-11.6-3.1-18.5-2.4c-1.1,0.1-1.9,1-1.9,2.1v38.1
		c0,0.6,0.3,1.1,0.7,1.5s1,0.6,1.6,0.6c6.7-0.5,13.3,0.6,19.2,3l0,0V56.9H61z M86.7,54c-6.9-0.6-13.9,1-18.5,2.4
		c-0.4,0.1-0.8,0.3-1.2,0.5v42.4l0,0c5.9-2.5,12.5-3.5,19.2-3c0.6,0.1,1.2-0.1,1.6-0.6c0.4-0.4,0.7-1,0.7-1.5v-38
		C88.7,55,87.8,54.1,86.7,54z"/>
</g>
</svg>
