<?xml version="1.0" encoding="UTF-8"?>
<svg width="104px" height="72px" viewBox="0 0 104 72" version="1.1" xmlns="http://www.w3.org/2000/svg" xmlns:xlink="http://www.w3.org/1999/xlink">
    <!-- Generator: Sketch 51.3 (57544) - http://www.bohemiancoding.com/sketch -->
    <title>Artboard Copy@2x</title>
    <desc>Created with Sketch.</desc>
    <defs>
        <rect id="path-1" x="4.875" y="1.6649514" width="74.75" height="52.4459691"></rect>
        <filter x="-9.4%" y="-9.5%" width="118.7%" height="126.7%" filterUnits="objectBoundingBox" id="filter-2">
            <feOffset dx="0" dy="2" in="SourceAlpha" result="shadowOffsetOuter1"></feOffset>
            <feGaussianBlur stdDeviation="2" in="shadowOffsetOuter1" result="shadowBlurOuter1"></feGaussianBlur>
            <feComposite in="shadowBlurOuter1" in2="SourceAlpha" operator="out" result="shadowBlurOuter1"></feComposite>
            <feColorMatrix values="0 0 0 0 0.105882353   0 0 0 0 0.117647059   0 0 0 0 0.560784314  0 0 0 0.2 0" type="matrix" in="shadowBlurOuter1"></feColorMatrix>
        </filter>
    </defs>
    <g id="Artboard-Copy" stroke="none" stroke-width="1" fill="none" fill-rule="evenodd">
        <g id="Group-15">
            <rect id="Rectangle-5" x="0" y="0" width="104" height="72"></rect>
            <g id="Group-14" transform="translate(2.166667, 1.127044)">
                <g id="Group-13" transform="translate(8.000000, 7.000000)">
                    <g id="Group-9">
                        <g id="Group-7" transform="translate(17.875000, 6.659806)">
                            <rect id="Rectangle" stroke="#B1B9D5" stroke-width="2" fill="#FFFFFF" x="1" y="1" width="40.25" height="35.4614065"></rect>
                            <g id="Group-5" fill="#0C0E56">
                                <rect id="Rectangle-3" x="0" y="0" width="4.78301887" height="37.4614065"></rect>
                            </g>
                        </g>
                        <rect id="Rectangle" stroke="#B1B9D5" stroke-width="2" fill="#FFFFFF" x="18.875" y="7.6598056" width="40.25" height="35.4614065"></rect>
                        <g id="Path">
                            <use fill="black" fill-opacity="1" filter="url(#filter-2)" xlink:href="#path-1"></use>
                            <rect stroke="#6B8BD1" stroke-width="2" stroke-linejoin="square" fill="#FFFFFF" fill-rule="evenodd" x="5.875" y="2.6649514" width="72.75" height="50.4459691"></rect>
                        </g>
                        <rect id="Path" fill="#6B8BD1" x="0" y="50.7810177" width="82.875" height="4.9948542"></rect>
                        <rect id="Rectangle-9" fill="#FFFFFF" x="36.5625" y="52.4459691" width="9.75" height="1.6649514"></rect>
                        <rect id="Path-Copy" fill="#6B8BD1" x="4.875" y="0" width="74.75" height="6.6598056"></rect>
                        <g id="Group-20" transform="translate(27.181818, 10.636364)">
                            <path d="M2.08333333,0.612978845 L7.37066341,0.612978845 C7.60005333,0.612978845 7.82246966,0.691843217 8.0006207,0.836349068 L9.86508936,2.34869853 C10.0432404,2.49320438 10.2656567,2.57206876 10.4950467,2.57206876 L14.8176899,2.57206876 C15.3699746,2.57206876 15.8176899,3.01978401 15.8176899,3.57206876 L15.8176899,12.594797 C15.8176899,13.1470818 15.3699746,13.594797 14.8176899,13.594797 L2.08333333,13.594797 C1.53104858,13.594797 1.08333333,13.1470818 1.08333333,12.594797 L1.08333333,1.61297884 C1.08333333,1.0606941 1.53104858,0.612978845 2.08333333,0.612978845 Z" id="Combined-Shape" fill="#FFCA59"></path>
                            <g id="Group-5备份" transform="translate(10.781818, 5.619497)">
                                <path d="M5.36498766,0 C8.32797821,0 10.7299753,2.4629504 10.7299753,5.50113008 C10.7299753,8.53930976 8.32797821,11.0022602 5.36498766,11.0022602 C2.4019971,11.0022602 0,8.53930976 0,5.50113008 C0,2.4629504 2.4019971,0 5.36498766,0" id="Fill-1" fill="#39AE36"></path>
                                <path d="M9.21251817,3.47065279 C8.96166064,3.17689718 8.53531607,3.15603402 8.26046722,3.42425819 C8.2603594,3.42431582 8.26030548,3.42443109 8.26019766,3.42454635 L4.88610193,6.71712198 L3.13910274,5.02034762 C3.13899491,5.02023235 3.13888708,5.02011709 3.13872534,5.01994419 C3.13856361,5.01977129 3.13845578,5.01971366 3.13834795,5.01959839 L3.12875143,5.01031947 L3.12832012,5.01083817 C2.85266258,4.75356427 2.43402758,4.77788542 2.18678222,5.06870174 C1.93953687,5.3595757 1.9569508,5.80744206 2.22290398,6.0761273 L2.22241877,6.07670363 L4.41775907,8.20901087 C4.42347386,8.21500471 4.4285956,8.22128671 4.43457995,8.22705001 C4.44051039,8.23281332 4.44692605,8.23771212 4.45296431,8.2432449 C4.7016114,8.46824429 5.06142725,8.46830192 5.30942738,8.25482914 L5.37234393,8.19339232 L9.16879467,4.48862519 C9.16895641,4.48856755 9.16906423,4.48845229 9.16917206,4.48839465 C9.4440209,4.22022812 9.46348352,3.76452366 9.21251817,3.47065279" id="Fill-3" fill="#FFFFFF"></path>
                            </g>
                        </g>
                        <g id="Group-20-Copy" transform="translate(27.181818, 29.152258)">
                            <path d="M2.08333333,0.612978845 L7.37066341,0.612978845 C7.60005333,0.612978845 7.82246966,0.691843217 8.0006207,0.836349068 L9.86508936,2.34869853 C10.0432404,2.49320438 10.2656567,2.57206876 10.4950467,2.57206876 L14.8176899,2.57206876 C15.3699746,2.57206876 15.8176899,3.01978401 15.8176899,3.57206876 L15.8176899,12.594797 C15.8176899,13.1470818 15.3699746,13.594797 14.8176899,13.594797 L2.08333333,13.594797 C1.53104858,13.594797 1.08333333,13.1470818 1.08333333,12.594797 L1.08333333,1.61297884 C1.08333333,1.0606941 1.53104858,0.612978845 2.08333333,0.612978845 Z" id="Combined-Shape" fill="#FFCA59"></path>
                            <g id="Group-5备份" transform="translate(10.781818, 5.619497)">
                                <path d="M5.36498766,0 C8.32797821,0 10.7299753,2.4629504 10.7299753,5.50113008 C10.7299753,8.53930976 8.32797821,11.0022602 5.36498766,11.0022602 C2.4019971,11.0022602 0,8.53930976 0,5.50113008 C0,2.4629504 2.4019971,0 5.36498766,0" id="Fill-1" fill="#39AE36"></path>
                                <path d="M9.21251817,3.47065279 C8.96166064,3.17689718 8.53531607,3.15603402 8.26046722,3.42425819 C8.2603594,3.42431582 8.26030548,3.42443109 8.26019766,3.42454635 L4.88610193,6.71712198 L3.13910274,5.02034762 C3.13899491,5.02023235 3.13888708,5.02011709 3.13872534,5.01994419 C3.13856361,5.01977129 3.13845578,5.01971366 3.13834795,5.01959839 L3.12875143,5.01031947 L3.12832012,5.01083817 C2.85266258,4.75356427 2.43402758,4.77788542 2.18678222,5.06870174 C1.93953687,5.3595757 1.9569508,5.80744206 2.22290398,6.0761273 L2.22241877,6.07670363 L4.41775907,8.20901087 C4.42347386,8.21500471 4.4285956,8.22128671 4.43457995,8.22705001 C4.44051039,8.23281332 4.44692605,8.23771212 4.45296431,8.2432449 C4.7016114,8.46824429 5.06142725,8.46830192 5.30942738,8.25482914 L5.37234393,8.19339232 L9.16879467,4.48862519 C9.16895641,4.48856755 9.16906423,4.48845229 9.16917206,4.48839465 C9.4440209,4.22022812 9.46348352,3.76452366 9.21251817,3.47065279" id="Fill-3" fill="#FFFFFF"></path>
                            </g>
                        </g>
                        <g id="Group-20-Copy-3" transform="translate(52.000000, 10.636364)">
                            <path d="M2.08333333,0.612978845 L7.37066341,0.612978845 C7.60005333,0.612978845 7.82246966,0.691843217 8.0006207,0.836349068 L9.86508936,2.34869853 C10.0432404,2.49320438 10.2656567,2.57206876 10.4950467,2.57206876 L14.8176899,2.57206876 C15.3699746,2.57206876 15.8176899,3.01978401 15.8176899,3.57206876 L15.8176899,12.594797 C15.8176899,13.1470818 15.3699746,13.594797 14.8176899,13.594797 L2.08333333,13.594797 C1.53104858,13.594797 1.08333333,13.1470818 1.08333333,12.594797 L1.08333333,1.61297884 C1.08333333,1.0606941 1.53104858,0.612978845 2.08333333,0.612978845 Z" id="Combined-Shape" fill="#FFCA59"></path>
                            <g id="Group-5备份" transform="translate(10.781818, 5.619497)">
                                <path d="M5.36498766,0 C8.32797821,0 10.7299753,2.4629504 10.7299753,5.50113008 C10.7299753,8.53930976 8.32797821,11.0022602 5.36498766,11.0022602 C2.4019971,11.0022602 0,8.53930976 0,5.50113008 C0,2.4629504 2.4019971,0 5.36498766,0" id="Fill-1" fill="#39AE36"></path>
                                <path d="M9.21251817,3.47065279 C8.96166064,3.17689718 8.53531607,3.15603402 8.26046722,3.42425819 C8.2603594,3.42431582 8.26030548,3.42443109 8.26019766,3.42454635 L4.88610193,6.71712198 L3.13910274,5.02034762 C3.13899491,5.02023235 3.13888708,5.02011709 3.13872534,5.01994419 C3.13856361,5.01977129 3.13845578,5.01971366 3.13834795,5.01959839 L3.12875143,5.01031947 L3.12832012,5.01083817 C2.85266258,4.75356427 2.43402758,4.77788542 2.18678222,5.06870174 C1.93953687,5.3595757 1.9569508,5.80744206 2.22290398,6.0761273 L2.22241877,6.07670363 L4.41775907,8.20901087 C4.42347386,8.21500471 4.4285956,8.22128671 4.43457995,8.22705001 C4.44051039,8.23281332 4.44692605,8.23771212 4.45296431,8.2432449 C4.7016114,8.46824429 5.06142725,8.46830192 5.30942738,8.25482914 L5.37234393,8.19339232 L9.16879467,4.48862519 C9.16895641,4.48856755 9.16906423,4.48845229 9.16917206,4.48839465 C9.4440209,4.22022812 9.46348352,3.76452366 9.21251817,3.47065279" id="Fill-3" fill="#FFFFFF"></path>
                            </g>
                        </g>
                        <g id="Group-8" transform="translate(8.272727, 10.636364)">
                            <rect id="Rectangle-8" fill="#6B8BD1" x="0.664772727" y="0.53516295" width="1.625" height="1.41818182"></rect>
                            <rect id="Rectangle-8-Copy" fill="#A6C7F4" x="4.72727273" y="0.53516295" width="6.5" height="1.41818182"></rect>
                            <rect id="Rectangle-8" fill="#6B8BD1" x="0.664772727" y="5.53001715" width="1.625" height="1.41818182"></rect>
                            <rect id="Rectangle-8-Copy" fill="#A6C7F4" x="4.72727273" y="5.53001715" width="6.5" height="1.41818182"></rect>
                            <rect id="Rectangle-8" fill="#6B8BD1" x="0.664772727" y="10.5248714" width="1.625" height="1.41818182"></rect>
                            <rect id="Rectangle-8-Copy" fill="#A6C7F4" x="4.72727273" y="10.5248714" width="6.5" height="1.41818182"></rect>
                            <rect id="Rectangle-8" fill="#6B8BD1" x="0.664772727" y="15.5197256" width="1.625" height="1.41818182"></rect>
                            <rect id="Rectangle-8-Copy" fill="#A6C7F4" x="4.72727273" y="15.5197256" width="6.5" height="1.41818182"></rect>
                            <rect id="Rectangle-8" fill="#6B8BD1" x="0.664772727" y="20.5145798" width="1.625" height="1.41818182"></rect>
                            <rect id="Rectangle-8-Copy" fill="#A6C7F4" x="4.72727273" y="20.5145798" width="6.5" height="1.41818182"></rect>
                        </g>
                    </g>
                    <g id="Group-12" transform="translate(60.125000, 0.000000)">
                        <rect id="Rectangle-5" fill="#FFFFFF" x="0" y="2.99691252" width="2.925" height="1"></rect>
                        <g id="Group-10" transform="translate(15.987089, 3.695691) rotate(-315.000000) translate(-15.987089, -3.695691) translate(13.623453, 1.332055)" fill="#FFFFFF">
                            <rect id="Rectangle-5-Copy" x="0" y="1.99794168" width="3.9" height="1"></rect>
                            <rect id="Rectangle-5-Copy-11" transform="translate(1.608834, 2.247684) rotate(-270.000000) translate(-1.608834, -2.247684) " x="-0.341166381" y="1.6567753" width="3.9" height="1"></rect>
                        </g>
                        <rect id="Rectangle-7" stroke="#FFFFFF" stroke-width="0.5" x="7.075" y="2.24794168" width="2.425" height="2.49691252"></rect>
                    </g>
                </g>
            </g>
        </g>
    </g>
</svg>