<svg viewBox="0 0 64 64" focusable="false" xmlns="http://www.w3.org/2000/svg">
    <g fill-rule="evenodd" fill="none" transform="translate(1 12)">
        <ellipse cx="31" cy="32.5" fill="#F1F2F4" rx="31" ry="7.5"/>
        <path d="M8.45 12.65L17.93 1.1A3 3 0 0120.25 0h20.42a3 3 0 012.3 1.08l9.57 11.5a2 2 0 01.46 1.28V24.7L8 25V13.91a2 2 0 01.45-1.26z" fill="#FFF"/>
        <path d="M52.25 13.86c0-.29-.1-.57-.29-.8L42.4 1.57a2.25 2.25 0 00-1.73-.81H20.25c-.67 0-1.31.3-1.74.82L9.03 13.12c-.18.22-.28.5-.28.8v10.32l43.5-.29V13.86zM7.87 12.17L17.35.62a3.75 3.75 0 012.9-1.37h20.42c1.12 0 2.17.5 2.89 1.35l9.55 11.5c.42.5.64 1.12.64 1.76v11.58l-46.5.32V13.9c0-.63.22-1.25.62-1.74z" fill-rule="nonzero" fill="#CFD1DB"/>
        <path d="M8 14v17a3 3 0 003 3h39a3 3 0 003-3V14a1 1 0 00-1-1h-7.94a2.98 2.98 0 00-2.97 2.98v.97a2 2 0 01-2 2H23.38a2 2 0 01-2-2v-.97A2.98 2.98 0 0018.4 13H9a1 1 0 00-1 1z" fill="#FAFAFA"/>
        <path d="M7.25 14c0-.97.78-1.75 1.75-1.75h9.4a3.73 3.73 0 013.73 3.73v.97c0 .7.55 1.25 1.25 1.25h15.7c.7 0 1.26-.56 1.26-1.25v-.97a3.73 3.73 0 013.72-3.73H52c.97 0 1.75.78 1.75 1.75v17A3.75 3.75 0 0150 34.75H11A3.75 3.75 0 017.25 31V14zm1.5 0v17c0 1.24 1 2.25 2.25 2.25h39c1.24 0 2.25-1 2.25-2.25V14a.25.25 0 00-.25-.25h-7.94c-1.23 0-2.22 1-2.22 2.23v.97a2.75 2.75 0 01-2.75 2.75H23.38a2.75 2.75 0 01-2.75-2.75v-.97c0-1.23-1-2.23-2.23-2.23H9a.25.25 0 00-.25.25z" fill-rule="nonzero" fill="#CFD1DB"/>
    </g>
</svg>
