<?xml version="1.0" encoding="UTF-8"?>
<svg width="48px" height="48px" viewBox="0 0 48 48" version="1.1" xmlns="http://www.w3.org/2000/svg" xmlns:xlink="http://www.w3.org/1999/xlink">
    <!-- Generator: Sketch 60 (88103) - https://sketch.com -->
    <title>切片</title>
    <desc>Created with Sketch.</desc>
    <g id="页面-1" stroke="none" stroke-width="1" fill="none" fill-rule="evenodd">
        <g id="编组-2备份-2" transform="translate(4.000000, 5.000000)" fill="#364676">
            <path d="M39.016129,0 C40.1117907,0 41,0.887435585 41,1.98214286 L41,1.98214286 L41,28.4107143 C41,29.5054216 40.1117907,30.3928571 39.016129,30.3928571 L39.016129,30.3928571 L26.4516129,30.3928571 L26.4516129,33.6964286 L29.0967742,36.3392857 L29.0967742,37 L11.9032258,37 L11.9032258,36.3392857 L14.5483871,33.6964286 L14.5483871,30.3928571 L1.98387097,30.3928571 C0.888209287,30.3928571 0,29.5054216 0,28.4107143 L0,28.4107143 L0,1.98214286 C0,0.887435585 0.888209287,0 1.98387097,0 L1.98387097,0 Z M38.3548387,2.64285714 L2.64516129,2.64285714 L2.64516129,25.1071429 L38.3548387,25.1071429 L38.3548387,2.64285714 Z" id="形状结合"></path>
            <path d="M24.9991872,16.7954207 C24.984533,16.8407373 24.7429227,17.6627419 24.1506451,18.5077779 C23.6381161,19.2367426 23.1076819,19.9720849 22.2697302,19.9848159 C21.4464082,19.9991112 21.1828288,19.5046474 20.2423468,19.5046474 C19.3035148,19.5046474 19.0081888,19.9720849 18.2296422,19.9991112 C17.4250135,20.0309267 16.805915,19.2025686 16.2917605,18.4767806 C15.2398322,16.9909825 14.4287262,14.265872 15.5156275,12.4398502 C16.0501256,11.525648 17.0109266,10.945316 18.0571655,10.9294083 C18.8463025,10.9143188 19.5955898,11.4509225 20.0747712,11.4509225 C20.5661439,11.4509225 21.4740665,10.8022185 22.4308037,10.8992052 C22.8318866,10.9150889 23.9529483,11.0629756 24.6753901,12.0860773 C24.6184479,12.1234521 23.3338498,12.8643537 23.3484794,14.3715948 C23.3671974,16.1920573 24.9821193,16.788273 25,16.7954207" id="形状"></path>
            <path d="M21.8043903,9.92380275 C22.2363826,9.40946023 22.5203054,8.70193844 22.445458,8 C21.828773,8.02382552 21.0786729,8.39985967 20.6312383,8.91100139 C20.2374702,9.35779013 19.8892657,10.0756363 19.9860823,10.7704271 C20.671088,10.8101844 21.3756491,10.4198549 21.8043657,9.92377868" id="路径"></path>
        </g>
    </g>
</svg>