<svg width="200" height="200" viewBox="0 0 200 200" fill="none" xmlns="http://www.w3.org/2000/svg">
<path d="M190 117.864V200H72.7878V196.227L21.8793 132.182C18.0541 125.136 20.0375 114.318 28.113 112.773C35.055 111.455 52.1032 111.5 65.3734 139.773L72.7878 151.455V53.591C72.7878 49.9744 74.2804 46.5059 76.9373 43.9486C79.5942 41.3913 83.1978 39.9546 86.9552 39.9546C90.7127 39.9546 94.3162 41.3913 96.9731 43.9486C99.6301 46.5059 101.123 49.9744 101.123 53.591V114.909C101.123 111.293 102.615 107.824 105.272 105.267C107.929 102.709 111.533 101.273 115.29 101.273C117.151 101.273 118.993 101.625 120.712 102.311C122.431 102.996 123.993 104.001 125.308 105.267C126.624 106.533 127.667 108.036 128.379 109.691C129.091 111.345 129.458 113.118 129.458 114.909C129.458 111.293 130.95 107.824 133.607 105.267C136.264 102.709 139.868 101.273 143.625 101.273C147.383 101.273 150.986 102.709 153.643 105.267C156.3 107.824 157.793 111.293 157.793 114.909C157.793 107.318 166.34 101.273 174.18 101.273C178.073 101.228 181.838 102.613 184.707 105.147C187.576 107.68 189.334 111.172 189.622 114.909V117.864H190ZM86.9552 8.35593e-05C75.5477 0.000341802 64.4792 3.73321 55.5663 10.586C46.6533 17.4388 40.4255 27.0045 37.905 37.7129C35.3844 48.4214 36.7209 59.6365 41.695 69.5175C46.6692 79.3986 54.9855 87.3585 65.279 92.091V79.0455C58.4374 74.5798 53.269 68.115 50.5371 60.6055C47.8052 53.096 47.6545 44.94 50.1074 37.3418C52.5602 29.7436 57.4866 23.106 64.159 18.4091C70.8313 13.7121 78.8961 11.2049 87.1623 11.2575C95.4286 11.3101 103.458 13.9199 110.065 18.7014C116.673 23.4829 121.507 30.1826 123.855 37.8114C126.204 45.4402 125.941 53.5935 123.106 61.0675C120.271 68.5416 115.014 74.9401 108.112 79.3182V92.2728C118.518 87.6484 126.968 79.7391 132.061 69.8569C137.155 59.9746 138.585 48.7133 136.115 37.9411C133.645 27.1688 127.424 17.533 118.482 10.632C109.54 3.73098 98.4163 -0.0204145 86.9552 8.35593e-05Z" fill="#126EE3"/>
</svg>
