<?xml version="1.0" standalone="no"?><!DOCTYPE svg PUBLIC "-//W3C//DTD SVG 1.1//EN" "http://www.w3.org/Graphics/SVG/1.1/DTD/svg11.dtd"><svg t="1704173278851" class="icon" viewBox="0 0 1024 1024" version="1.1" xmlns="http://www.w3.org/2000/svg" p-id="4680" xmlns:xlink="http://www.w3.org/1999/xlink" width="200" height="200"><path d="M107.52 20.48h611.15392a40.96 40.96 0 0 1 27.82208 10.90048l197.80608 183.06048A40.96 40.96 0 0 1 957.44 244.5056V962.56a40.96 40.96 0 0 1-40.96 40.96H107.52a40.96 40.96 0 0 1-40.96-40.96V61.44a40.96 40.96 0 0 1 40.96-40.96z" fill="#1FB2FF" p-id="4681"></path><path d="M291.84 348.16h440.32v61.44H291.84zM291.84 512h440.32v61.44H291.84zM291.84 675.84h256v61.44H291.84z" fill="#FFFFFF" p-id="4682"></path></svg>