<?xml version="1.0" encoding="UTF-8"?>
<svg width="18px" height="18px" viewBox="0 0 18 18" version="1.1" xmlns="http://www.w3.org/2000/svg" xmlns:xlink="http://www.w3.org/1999/xlink">
    <!-- Generator: Sketch 60 (88103) - https://sketch.com -->
    <title>移动@3x</title>
    <desc>Created with Sketch.</desc>
    <g id="手动发起文档库同步" stroke="none" stroke-width="1" fill="none" fill-rule="evenodd" fill-opacity="0.75">
        <g id="配置同步计划策略" transform="translate(-569.000000, -150.000000)" fill="#3461EC" fill-rule="nonzero">
            <g id="编组-22备份" transform="translate(0.000000, -5.000000)">
                <g id="Group-8" transform="translate(298.000000, 106.000000)">
                    <g id="Group-14">
                        <g id="Group-27">
                            <g id="移动" transform="translate(272.088504, 50.000000)">
                                <path d="M8,-0.4 C3.3608081,-0.4 -0.4,3.3608081 -0.4,8 C-0.4,12.6391919 3.3608081,16.4 8,16.4 C12.6391919,16.4 16.4,12.6391919 16.4,8 C16.4,3.3608081 12.6391919,-0.4 8,-0.4 Z M8,0.4 C12.1973641,0.4 15.6,3.8026359 15.6,8 C15.6,12.1973641 12.1973641,15.6 8,15.6 C3.8026359,15.6 0.4,12.1973641 0.4,8 C0.4,3.8026359 3.8026359,0.4 8,0.4 Z" id="椭圆形"></path>
                                <g id="编组" transform="translate(3.911496, 4.000000)">
                                    <path d="M3.60737515,0.00187540591 C3.72027559,0.00187540591 3.82486433,0.0610467107 3.88304615,0.157917459 L4.68987361,1.50104671 L7.46419643,1.50104671 C8.12814201,1.50104671 8.66642277,2.03932748 8.66642277,2.70327306 L8.66642277,6.85911721 C8.66642277,7.52850497 8.12368932,8.07123842 7.45430156,8.07123842 L1.21331207,8.07123842 C0.54392432,8.07123842 0.00119086271,7.52850497 0.00119086271,6.85911721 L0.00119086271,1.21399662 C0.00119086271,0.544608863 0.54392432,0.00187540591 1.21331207,0.00187540591 L3.60737515,0.00187540591 Z M3.42540855,0.645041763 L1.21331207,0.645041763 C0.899051098,0.645041763 0.64435722,0.899735641 0.64435722,1.21399662 L0.64435722,6.85911721 C0.64435722,7.17337819 0.899051098,7.42807207 1.21331207,7.42807207 L7.45430156,7.42807207 C7.76856254,7.42807207 8.02325642,7.17337819 8.02325642,6.85911721 L8.02325642,2.70327306 C8.02325642,2.3945532 7.77291628,2.14421307 7.46419643,2.14421307 L4.50780805,2.14421307 C4.39490762,2.14421307 4.29031888,2.08504176 4.23213706,1.98817101 L3.42540855,0.645041763 Z M5.27080125,3.24155382 L5.27466025,3.24521492 L6.77670107,4.71460268 C6.90315747,4.83838747 6.90573013,5.0407375 6.78342958,5.16758969 L6.77966953,5.17144869 L5.27762871,6.67922853 C5.15226075,6.80509124 4.94862438,6.80548703 4.82286062,6.68011907 C4.69828425,6.55603743 4.69670107,6.35527058 4.81830898,6.22911103 L4.82206903,6.22535098 L5.77761634,5.26604362 L2.19033125,5.26604362 C2.01449946,5.26604362 1.87161758,5.12494281 1.86874807,4.94980367 L1.86874807,4.94446044 C1.86874807,4.76862865 2.00984887,4.62574677 2.18498802,4.62287726 L5.76326878,4.62287726 L4.82493854,3.70493045 C4.69927373,3.58193725 4.69581053,3.3811704 4.81623106,3.25402136 L4.81989216,3.25016236 C4.94288536,3.12449755 5.14365221,3.12103434 5.27080125,3.24155382 L5.27080125,3.24155382 Z" id="形状"></path>
                                </g>
                            </g>
                        </g>
                    </g>
                </g>
            </g>
        </g>
    </g>
</svg>