<?xml version="1.0" encoding="UTF-8"?>
<svg width="12px" height="14px" viewBox="0 0 12 14" version="1.1" xmlns="http://www.w3.org/2000/svg" xmlns:xlink="http://www.w3.org/1999/xlink">
    <!-- Generator: Sketch 60 (88103) - https://sketch.com -->
    <title>编组</title>
    <desc>Created with Sketch.</desc>
    <g id="页面-3" stroke="none" stroke-width="1" fill="none" fill-rule="evenodd" opacity="0.6">
        <g id="web端登录+修改密码" transform="translate(-716.000000, -320.000000)" fill="#6C798C" fill-rule="nonzero">
            <g id="编组-4" transform="translate(140.000000, 79.000000)">
                <g id="图层-8备份-6">
                    <g id="编组-3" transform="translate(560.000000, 105.000000)">
                        <g id="Group-3">
                            <g id="Group-4-Copy" transform="translate(0.000000, 127.000000)">
                                <g id="编组" transform="translate(16.000000, 9.000000)">
                                    <path d="M10.7618438,5.88065625 L1.01784375,5.88065625 C0.46344375,5.88065625 0.00984375,6.33425625 0.00984375,6.88865625 L0.00984375,12.9366562 C0.00984375,13.4910562 0.46344375,13.9446562 1.01784375,13.9446562 L10.7618438,13.9446562 C11.3162437,13.9446562 11.7698437,13.4910562 11.7698437,12.9366562 L11.7698437,6.88865625 C11.7698437,6.33425625 11.3162437,5.88065625 10.7618437,5.88065625 L10.7618438,5.88065625 Z M5.88984375,12.7938562 C5.10024375,12.7938562 4.46184375,12.1554562 4.46184375,11.3658562 C4.46184375,10.7694562 4.82304375,10.2570562 5.34384375,10.0470562 L5.34384375,7.87985625 C5.34384375,7.57745625 5.58744375,7.33385625 5.88984375,7.33385625 C6.19224375,7.33385625 6.43584375,7.57745625 6.43584375,7.87985625 L6.43584375,10.0470562 C6.95664375,10.2654562 7.31784375,10.7694562 7.31784375,11.3658562 C7.31784375,12.1554563 6.67944375,12.7938562 5.88984375,12.7938562 Z" id="形状"></path>
                                    <path d="M9.70344375,5.93105625 L8.61144375,5.93105625 L8.61144375,3.80585625 C8.61144375,2.30225625 7.39344375,1.08425625 5.88984375,1.08425625 C4.38624375,1.08425625 3.16824375,2.31065625 3.16824375,3.80585625 L3.16824375,5.93105625 L2.07624375,5.93105625 L2.07624375,3.80585625 C2.07624375,1.70585625 3.78984375,0.00065625 5.88984375,0.00065625 C7.98984375,0.00065625 9.70344375,1.71425625 9.70344375,3.81425625 L9.70344375,5.93105625 Z" id="路径"></path>
                                </g>
                            </g>
                        </g>
                    </g>
                </g>
            </g>
        </g>
    </g>
</svg>