<?xml version="1.0" encoding="UTF-8"?>
<svg width="11px" height="16px" viewBox="0 0 11 16" version="1.1" xmlns="http://www.w3.org/2000/svg" xmlns:xlink="http://www.w3.org/1999/xlink">
    <!-- Generator: Sketch 60 (88103) - https://sketch.com -->
    <title>形状结合</title>
    <desc>Created with Sketch.</desc>
    <g id="页面-3" stroke="none" stroke-width="1" fill="none" fill-rule="evenodd">
        <g id="重置密码1" transform="translate(-496.000000, -182.000000)" fill="#6C798C">
            <g id="编组-4备份-4">
                <g id="编组-3备份-3" transform="translate(435.000000, 70.000000)">
                    <g id="Group-12" transform="translate(45.000000, 104.000000)">
                        <g id="手机或邮箱" transform="translate(16.000000, 3.000000)">
                            <g id="编组-2" transform="translate(0.000000, 5.000000)">
                                <path d="M11,11 L11,15 C11,15.5522847 10.5522847,16 10,16 L1,16 C0.44771525,16 6.76353751e-17,15.5522847 0,15 L0,11 L11,11 Z M6,12 C5.44771525,12 5,12.4477153 5,13 C5,13.5522847 5.44771525,14 6,14 C6.55228475,14 7,13.5522847 7,13 C7,12.4477153 6.55228475,12 6,12 Z M10,0 C10.5522847,-1.01453063e-16 11,0.44771525 11,1 L11,10 L0,10 L0,1 C-6.76353751e-17,0.44771525 0.44771525,1.01453063e-16 1,0 L10,0 Z" id="形状结合"></path>
                            </g>
                        </g>
                    </g>
                </g>
            </g>
        </g>
    </g>
</svg>