<svg width="200" height="200" viewBox="0 0 200 200" fill="none" xmlns="http://www.w3.org/2000/svg">
<g clip-path="url(#clip0_4474_18092)">
<path d="M186.831 0.0975342H13.1741C5.98826 0.0975342 0.199707 5.88609 0.199707 13.0719V186.728C0.199707 193.914 5.98826 199.703 13.1741 199.703H186.831C194.016 199.703 199.805 193.914 199.805 186.728V13.0719C199.805 5.88609 194.016 0.0975342 186.831 0.0975342Z" fill="#8894FF"/>
<path d="M169.895 54.1188V49.5922C169.895 44.1219 165.462 39.6891 159.994 39.6891H39.9843C34.4843 39.6891 30.0265 44.1485 30.0265 49.65V56.6047C30.0093 56.9125 30.0015 57.2235 30.0015 57.536V143.102C29.9999 152.591 37.7202 160.313 47.2108 160.313H152.216C162.022 160.313 170 152.333 170 142.525V55.9172C170 55.3094 169.964 54.7094 169.895 54.1188ZM90.014 47.5016C92.603 47.5016 94.7015 49.6 94.7015 52.1906C94.7015 54.7813 92.603 56.8797 90.014 56.8797C87.4249 56.8797 85.3265 54.7813 85.3265 52.1906C85.3265 49.6 87.4249 47.5016 90.014 47.5016ZM70.0093 47.5016C72.5983 47.5016 74.6968 49.6 74.6968 52.1906C74.6968 54.7813 72.5983 56.8797 70.0093 56.8797C67.4202 56.8797 65.3218 54.7813 65.3218 52.1906C65.3218 49.6 67.4202 47.5016 70.0093 47.5016ZM50.0062 47.5016C52.5952 47.5016 54.6937 49.6 54.6937 52.1906C54.6937 54.7813 52.5952 56.8797 50.0062 56.8797C47.4171 56.8797 45.3187 54.7813 45.3187 52.1906C45.3187 49.6 47.4171 47.5016 50.0062 47.5016ZM160 142.525C160 146.817 156.508 150.311 152.216 150.311H47.2108C43.2343 150.311 39.9999 147.075 39.9999 143.098V63.5469H160V142.525Z" fill="white"/>
<path d="M77.9687 135C76.6874 135 75.4077 134.511 74.4296 133.533L50.9921 110.059C49.0437 108.108 49.0437 104.945 50.9921 102.994L74.3593 79.5922C76.3108 77.6375 79.4765 77.6359 81.4296 79.5875C83.3843 81.5391 83.3858 84.7047 81.4358 86.6578L61.5968 106.527L81.5062 126.467C83.4577 128.422 83.4546 131.588 81.4999 133.538C80.5249 134.513 79.2468 135 77.9687 135ZM122.656 135C121.378 135 120.1 134.513 119.123 133.538C117.169 131.586 117.167 128.42 119.119 126.467L139.028 106.527L119.191 86.6578C117.239 84.7031 117.242 81.5375 119.195 79.5875C121.148 77.6359 124.316 77.6391 126.266 79.5922L149.631 102.994C151.58 104.945 151.58 108.108 149.631 110.059L126.194 133.533C125.219 134.511 123.937 135 122.656 135ZM92.3437 135.314C91.7905 135.314 91.2296 135.222 90.678 135.027C88.0749 134.106 86.7093 131.25 87.6296 128.647L104.192 81.7719C105.112 79.1688 107.969 77.8031 110.572 78.7234C113.175 79.6437 114.541 82.5 113.62 85.1031L97.0577 131.978C96.3327 134.031 94.403 135.314 92.3437 135.314Z" fill="white"/>
</g>
<defs>
<clipPath id="clip0_4474_18092">
<rect width="200" height="200" fill="white"/>
</clipPath>
</defs>
</svg>
