<svg width="1em" height="1em" viewBox="0 0 201 201" fill="currentColor"
    xmlns="http://www.w3.org/2000/svg">
    <path d="M173.206 37.4521H163.195C159.289 37.4521 156.128 40.6124 156.128 44.5186C156.128 48.4247 159.289 51.585 163.195 51.585H173.206C173.637 51.585 173.991 51.9383 173.991 52.3701V149.671C173.991 150.102 173.637 150.456 173.206 150.456H119.756C117.675 150.456 115.693 151.378 114.338 152.968L100.245 169.731L86.7599 153.066C85.4251 151.418 83.4033 150.456 81.2638 150.456H27.8535C27.4217 150.456 27.0684 150.102 27.0684 149.671V52.3701C27.0684 51.9383 27.4217 51.585 27.8535 51.585H37.8054C41.7115 51.585 44.8718 48.4247 44.8718 44.5186C44.8718 40.6124 41.7115 37.4521 37.8054 37.4521H27.8535C19.629 37.4521 12.9355 44.1456 12.9355 52.3701V149.671C12.9355 157.895 19.629 164.589 27.8535 164.589H77.9072L94.6703 185.277C96.0051 186.907 97.9876 187.868 100.088 187.888H100.147C102.227 187.888 104.21 186.966 105.564 185.376L123.054 164.589H173.206C181.43 164.589 188.124 157.895 188.124 149.671V52.3701C188.124 44.1456 181.43 37.4521 173.206 37.4521Z" fill="currentColor" />
    <path d="M68.4854 57.6896C72.3915 57.6896 75.5518 54.5294 75.5518 50.6232C75.5518 37.4915 86.7795 26.8134 100.559 26.8134C107.449 26.8134 113.808 29.1688 118.48 33.4283C123.054 37.5896 125.566 43.282 125.566 49.4455C125.566 62.165 118.991 66.3656 110.648 71.7047C103.013 76.5923 93.4926 82.6772 93.4926 96.2605C93.4926 100.167 96.6528 103.327 100.559 103.327C104.465 103.327 107.625 100.167 107.625 96.2605C107.625 90.9214 110.55 88.5659 118.264 83.6194C127.313 77.8289 139.699 69.9185 139.699 49.4651C139.699 28.8548 122.504 12.7002 100.559 12.7002C78.9672 12.7002 61.4189 29.7185 61.4189 50.6429C61.4189 54.5294 64.5792 57.6896 68.4854 57.6896Z" fill="currentColor" />
    <path d="M92.707 118.186C92.707 120.268 93.5342 122.265 95.0067 123.737C96.4792 125.21 98.4762 126.037 100.559 126.037C102.641 126.037 104.638 125.21 106.11 123.737C107.583 122.265 108.41 120.268 108.41 118.186C108.41 116.103 107.583 114.106 106.11 112.634C104.638 111.161 102.641 110.334 100.559 110.334C98.4762 110.334 96.4792 111.161 95.0067 112.634C93.5342 114.106 92.707 116.103 92.707 118.186Z" fill="currentColor" />
</svg>