<svg width="200" height="200" viewBox="0 0 200 200" fill="none" xmlns="http://www.w3.org/2000/svg">
<path d="M28.3145 12.4727H59.4492C69.8659 12.4727 75.0742 17.681 75.0742 28.0977V61.1582C75.0742 71.5749 69.8659 76.7832 59.4492 76.7832H28.3145C17.8978 76.7832 12.6895 71.5749 12.6895 61.1582V28.0977C12.6895 17.681 17.8978 12.4727 28.3145 12.4727Z" fill="#C3DDFF"/>
<path d="M136.205 120.611H172.982C182.446 120.611 187.178 125.343 187.178 134.807V173.143C187.178 182.606 182.446 187.338 172.982 187.338H136.205C126.742 187.338 122.01 182.606 122.01 173.143V134.807C122.01 125.343 126.742 120.611 136.205 120.611Z" fill="#C3DDFF"/>
<path d="M144.367 36.2129H142.574V48.6172C142.574 51.4238 140.402 53.7012 137.725 53.7012H60.875C58.1973 53.7012 56.0254 51.4258 56.0254 48.6172V36.2129H54.2324C46.6348 36.2129 40.4746 42.668 40.4746 50.6328V151.979C40.4746 159.941 46.6348 166.398 54.2324 166.398H144.365C151.963 166.398 158.123 159.943 158.123 151.979V50.6328C158.123 42.6699 151.963 36.2129 144.365 36.2129H144.367Z" fill="#4894FD"/>
<path d="M69.3711 45.8437H128.998C131.676 45.8437 133.848 43.5684 133.848 40.7598V32.6113C133.848 29.8047 131.676 27.5273 128.998 27.5273H69.3711C66.6934 27.5273 64.5215 29.8027 64.5215 32.6113V40.7598C64.5215 43.5664 66.6934 45.8437 69.3711 45.8437Z" fill="#4894FD"/>
<path d="M98.8671 129.848L66.0214 104.916C63.9589 103.352 63.5566 100.41 65.121 98.3477C66.6855 96.2852 69.6269 95.8829 71.6894 97.4473L96.9453 116.619L125.963 77.0782C127.494 74.9903 130.428 74.5411 132.516 76.0723C134.603 77.6036 135.053 80.5372 133.521 82.6251L98.8671 129.846V129.848Z" fill="white"/>
<path d="M68.5313 187.387H64.6152V181.918H68.5313C68.7852 181.918 69.0371 181.881 69.2754 181.811L70.8457 187.049C70.0948 187.273 69.3151 187.387 68.5313 187.387ZM59.9277 187.387H54.459V181.918H59.9277V187.387ZM49.7715 187.387H44.3027V181.918H49.7715V187.387ZM39.6152 187.387H34.1465V181.918H39.6152V187.387ZM75.957 182.459L70.918 180.334C71.0508 180.018 71.1191 179.68 71.1191 179.332C71.1191 178.037 71.2441 176.742 71.4922 175.48L76.8594 176.533C76.6795 177.455 76.5892 178.393 76.5898 179.332C76.5898 180.414 76.377 181.467 75.959 182.459H75.957ZM78.1328 172.822L73.252 170.354C74.207 168.465 75.4531 166.746 76.9551 165.246L80.8203 169.115C79.7321 170.201 78.8242 171.453 78.1309 172.824L78.1328 172.822ZM83.9531 166.738L81.2676 161.975C83.1172 160.932 85.1113 160.197 87.1934 159.789L88.2422 165.156C86.7362 165.45 85.2874 165.984 83.9512 166.738H83.9531ZM158.312 164.889H153.322V159.42H158.312C158.449 159.42 158.584 159.42 158.719 159.414L158.863 164.881C158.68 164.885 158.496 164.889 158.312 164.889ZM148.635 164.889H143.166V159.42H148.635V164.889ZM138.479 164.889H133.01V159.42H138.479V164.889ZM128.322 164.889H122.854V159.42H128.322V164.889ZM118.166 164.889H112.697V159.42H118.166V164.889ZM108.01 164.889H102.541V159.42H108.01V164.889ZM97.8535 164.889H92.3848V159.42H97.8535V164.889ZM164.176 164.053L162.641 158.805C164.127 158.369 165.539 157.711 166.828 156.852L169.859 161.402C168.11 162.568 166.193 163.462 164.176 164.053ZM173.914 157.871L169.822 154.242C170.852 153.083 171.7 151.775 172.338 150.361L177.322 152.611C176.459 154.525 175.311 156.295 173.914 157.871ZM178.883 147.459L173.486 146.568C173.623 145.738 173.693 144.889 173.693 144.041V141.561H179.162V144.041C179.162 145.187 179.068 146.336 178.883 147.459ZM179.162 136.871H173.693V131.402H179.162V136.871ZM179.162 126.715H173.693V121.246H179.162V126.715ZM179.162 116.559H173.693V111.09H179.162V116.559ZM179.162 106.402H173.693V100.934H179.162V106.402ZM179.162 96.2461H173.693V90.7773H179.162V96.2461ZM179.162 86.0898H173.693V80.6211H179.162V86.0898ZM179.162 75.9336H173.693V70.4648H179.162V75.9336Z" fill="#A3E3FF"/>
</svg>
