<?xml version="1.0" encoding="utf-8"?>
<!-- Generator: Adobe Illustrator 22.0.0, SVG Export Plug-In . SVG Version: 6.00 Build 0)  -->
<svg version="1.1" id="搜索" xmlns="http://www.w3.org/2000/svg" xmlns:xlink="http://www.w3.org/1999/xlink" x="0px" y="0px"
	 viewBox="0 0 200 200" enable-background="new 0 0 200 200" xml:space="preserve">
<g>
	<path fill="currentColor" d="M83.837,20.052c35.725,0,64.79,29.062,64.79,64.784c0,35.719-29.065,64.778-64.79,64.778
		c-35.722,0-64.784-29.059-64.784-64.778C19.053,49.114,48.114,20.052,83.837,20.052 M83.837,7.667
		c-42.617,0-77.17,34.553-77.17,77.17C6.667,127.459,41.22,162,83.837,162c42.635,0,77.176-34.541,77.176-77.163
		C161.013,42.22,126.472,7.667,83.837,7.667L83.837,7.667z"/>
</g>
<path fill="currentColor" d="M131.994,142.009l9.192-9.192l51.562,51.562c1.172,1.172,1.172,3.071,0,4.243l-4.95,4.95
	c-1.172,1.172-3.071,1.172-4.243,0L131.994,142.009z"/>
<g>
	<path fill="currentColor" d="M83.838,36.682c-26.592,0-48.153,21.561-48.153,48.153c0,26.596,21.561,48.149,48.153,48.149
		c26.603,0,48.157-21.553,48.157-48.149C131.994,58.243,110.441,36.682,83.838,36.682L83.838,36.682z"/>
</g>
</svg>
