<svg xmlns="http://www.w3.org/2000/svg" id="图层_1" x="0" y="0" version="1.1" viewBox="0 0 200 200" xml:space="preserve">
  <path fill="#59a3ff" d="M187 0H13C5.8 0 0 5.8 0 13v174c0 7.2 5.8 13 13 13h174c7.2 0 13-5.8 13-13V13c0-7.2-5.8-13-13-13z"/>
  <path d="M110.1 72.7c-.2 10-3.3 19-9.6 26.8-5.3 6.6-4 10.2 3.4 13.7 7.6 3.5 14.9 7.8 21.8 12.5 2.6 1.8 4.6 5.5 5.2 8.7 1.5 6.8-1.1 11.8-8 13.7-8.8 2.5-18.1 4.1-27.2 4.8-14 1.1-28.1.6-41.9-2.8-2.2-.5-4.3-1.3-6.3-2.3-7.6-3.8-10-12.8-4.2-19 4.1-4.4 9.5-7.8 14.6-11.1 3.4-2.2 7.3-3.5 11.1-5.1 5.7-2.5 6.9-7.3 3-12.2-7.1-8.9-11.1-18.8-10.3-30.4 1-14.1 11.2-23.7 24.8-23.5 13.5.2 23 9.9 23.6 24.1v2.1z" class="st1"/>
  <path d="M158.7 117.2c-6.1-6.1-13.5-10.2-21.6-12.6-3.4-1-4.1-2.9-3-5.6 1.3-3.1 3-6 4.8-8.8 4.2-6.9 6.8-14.1 6.1-22.4-1.2-14.3-14.4-23.6-26.8-19.5l.3.6c4 4.1 6.4 9.9 6.8 16.8v2.1c0 4.9-.8 9.5-2.3 13.9-1.3 5.4-3.5 10.7-6.8 15.7-4 6.2-2.9 9.3 3.9 11.5 8.6 2.8 16.2 7.3 22.2 14.1 6.6 7.5 6.6 10.5.3 18.1-.2.2-.2.5-.5 1.6 4-.9 7.6-1.4 11.1-2.5 11.9-3.7 14.4-14.1 5.5-23z" class="st1"/>
</svg>
