<?xml version="1.0" encoding="UTF-8"?>
<svg width="16px" height="16px" viewBox="0 0 16 16" version="1.1" xmlns="http://www.w3.org/2000/svg" xmlns:xlink="http://www.w3.org/1999/xlink">
    <!-- Generator: Sketch 60 (88103) - https://sketch.com -->
    <title>形状结合</title>
    <desc>Created with Sketch.</desc>
    <g id="手动发起文档库同步" stroke="none" stroke-width="1" fill="none" fill-rule="evenodd">
        <g id="跨域详情" transform="translate(-1016.000000, -199.000000)" fill="#547EE8" fill-rule="nonzero">
            <g id="Group-Copy备份-2" transform="translate(25.000000, 26.000000)">
                <g id="Group-19" transform="translate(275.000000, 56.000000)">
                    <g id="Group-14" transform="translate(0.000000, 50.000000)">
                        <g id="Group-27">
                            <g id="编组-4备份-10" transform="translate(17.000000, 61.000000)">
                                <g id="Group-17-Copy备份">
                                    <g id="Group-10-Copy" transform="translate(32.000000, 0.000000)">
                                        <g id="编组" transform="translate(667.000000, 6.000000)">
                                            <path d="M8,0 C12.418278,0 16,3.581722 16,8 C16,12.418278 12.418278,16 8,16 C3.581722,16 0,12.418278 0,8 C0,3.581722 3.581722,0 8,0 Z M11.36536,8.83352 C11.1932681,8.83352 11.05376,8.97302807 11.05376,9.14512 L11.05376,9.14512 L11.05376,10.89776 C11.05376,10.9838281 10.9839881,11.0536 10.89792,11.0536 L10.89792,11.0536 L9.2776,11.0536 C9.10550807,11.0536 8.966,11.1931081 8.966,11.3652 C8.966,11.5372919 9.10550807,11.6768 9.2776,11.6768 L9.2776,11.6768 L10.89792,11.67696 C11.3281719,11.67696 11.67696,11.3281719 11.67696,10.89792 L11.67696,10.89792 L11.67696,9.14512 C11.67696,8.97302807 11.5374519,8.83352 11.36536,8.83352 Z M4.63464,8.83352 C4.46254807,8.83352 4.32304,8.97302807 4.32304,9.14512 L4.32304,9.14512 L4.32304,10.89776 C4.32304,11.1043743 4.40511719,11.3025261 4.55121553,11.4486245 C4.69731387,11.5947228 4.89546575,11.6768 5.10208,11.6768 L5.10208,11.6768 L6.6912,11.67696 C6.86329193,11.67696 7.0028,11.5374519 7.0028,11.36536 C7.0028,11.1932681 6.86329193,11.05376 6.6912,11.05376 L6.6912,11.05376 L5.10208,11.05376 C5.01601194,11.05376 4.94624,10.9839881 4.94624,10.89792 L4.94624,10.89792 L4.94624,9.14512 C4.94624,8.97302807 4.80673193,8.83352 4.63464,8.83352 Z M11.6768,7.61824 L4.3232,7.61824 C4.15110807,7.61824 4.0116,7.75774807 4.0116,7.92984 C4.0116,8.10193193 4.15110807,8.24144 4.3232,8.24144 L4.3232,8.24144 L11.6768,8.24144 C11.8488919,8.24144 11.9884,8.10193193 11.9884,7.92984 C11.9884,7.75774807 11.8488919,7.61824 11.6768,7.61824 L11.6768,7.61824 Z M10.89792,4.32368 L9.2776,4.32368 C9.10550807,4.32368 8.966,4.46318807 8.966,4.63528 C8.966,4.80737193 9.10550807,4.94688 9.2776,4.94688 L9.2776,4.94688 L10.89792,4.94688 C10.9839881,4.94688 11.05376,5.01665194 11.05376,5.10272 L11.05376,5.10272 L11.05376,6.64512 C11.05376,6.81719365 11.1932064,6.95671167 11.36528,6.9568 C11.5375136,6.95671167 11.67696,6.81719365 11.67696,6.64512 L11.67696,6.64512 L11.67696,5.10272 C11.67696,4.67246809 11.3281719,4.32368 10.89792,4.32368 L10.89792,4.32368 Z M6.69136,4.32368 L5.10224,4.32368 C4.89562575,4.32368 4.69747387,4.40575719 4.55137553,4.55185553 C4.40527719,4.69795387 4.3232,4.89610575 4.3232,5.10272 L4.3232,5.10272 L4.3232,6.64512 C4.3232,6.81719365 4.46264638,6.95671167 4.63472,6.9568 C4.71736797,6.9568 4.79662856,6.92395729 4.85505449,6.86550134 C4.91348043,6.8070454 4.94628245,6.72776796 4.94624,6.64512 L4.94624,6.64512 L4.94624,5.10272 C4.94624,5.01665194 5.01601194,4.94688 5.10208,4.94688 L5.10208,4.94688 L6.69136,4.94688 C6.86345193,4.94688 7.00296,4.80737193 7.00296,4.63528 C7.00296,4.46318807 6.86345193,4.32368 6.69136,4.32368 L6.69136,4.32368 Z" id="形状结合"></path>
                                        </g>
                                    </g>
                                </g>
                            </g>
                        </g>
                    </g>
                </g>
            </g>
        </g>
    </g>
</svg>