<svg xmlns="http://www.w3.org/2000/svg" width="200" height="200">
  <circle cx="100" cy="100" r="99" fill="#EB7930"/>
  <path fill="#FFF" d="M92.599 110.225c-2.561-.029-38.66.303-40.892.344-2.001.037-4.446 2.449-4.466 4.468-.029 3.069-.336 39.01-.342 40.799-.009 2.231 2.542 1.935 4.459.019 1.478-1.479 39.082-39.082 41.224-41.227 2.112-2.114 1.893-4.383.017-4.403zM148.674 45.264l-40.926 40.969c-2.096 2.098-1.879 4.354-.016 4.373 2.541.029 38.379-.3 40.596-.342 1.986-.037 4.413-2.434 4.434-4.438.028-3.052.334-38.768.34-40.546.007-2.219-2.525-1.921-4.428-.016z"/>
  <g fill="#FFF">
    <path d="M63.188 95.322C65.489 77.034 81.087 62.884 100 62.884c8.828 0 16.93 3.087 23.301 8.233l11.738-11.738c-9.402-8.118-21.643-13.038-35.04-13.038-28.058 0-51.072 21.538-53.444 48.981h16.633zM136.977 103.12c-1.586 19.037-17.527 33.996-36.977 33.996a36.934 36.934 0 01-22.589-7.675L65.642 141.21c9.309 7.771 21.285 12.449 34.358 12.449 28.587 0 51.947-22.357 53.564-50.539h-16.587z"/>
  </g>
</svg>
