<svg width="200" height="200" viewBox="0 0 200 200" fill="none" xmlns="http://www.w3.org/2000/svg">
<path d="M42.5256 40.7803C74.7816 9.84726 126.365 9.90426 158.566 40.8953C165.334 47.3978 170.958 54.9941 175.202 63.3653L175.203 31.0133C175.202 30.612 175.281 30.2147 175.435 29.844C175.588 29.4733 175.813 29.1365 176.097 28.8528C176.381 28.569 176.718 28.344 177.088 28.1905C177.459 28.0371 177.856 27.9581 178.258 27.9583L183.975 27.9593C184.785 27.9598 185.561 28.2819 186.134 28.8547C186.707 29.4275 187.028 30.2043 187.029 31.0143L187.02 73.5623C187.02 73.6493 187.008 73.7363 187.006 73.8223H187.017C187.017 80.3553 181.723 85.6523 175.19 85.6503L132.411 85.6493C131.6 85.649 130.824 85.327 130.251 84.7542C129.678 84.1813 129.356 83.4044 129.356 82.5943L129.357 76.8833C129.356 76.4822 129.435 76.085 129.589 75.7144C129.742 75.3438 129.967 75.0071 130.251 74.7235C130.534 74.4398 130.871 74.2149 131.242 74.0615C131.612 73.908 132.01 73.8291 132.411 73.8293L166.994 73.8253C163.223 64.6703 157.496 56.1313 149.783 48.8663C121.523 22.2503 76.5896 23.0963 49.3006 50.7063C21.5056 78.8303 21.6076 124.164 49.6046 152.161C77.0246 179.582 121.07 180.245 149.295 154.151C149.862 153.626 150.611 153.342 151.384 153.357C152.157 153.373 152.894 153.688 153.44 154.235L157.564 158.359C157.994 158.792 158.283 159.345 158.393 159.946C158.502 160.546 158.427 161.166 158.177 161.722C158.01 162.091 157.771 162.423 157.474 162.698C124.616 193.227 73.2186 192.501 41.2416 160.524C8.10159 127.385 8.52859 73.3843 42.5256 40.7813V40.7803Z" fill="black"/>
</svg>
