<?xml version="1.0" encoding="utf-8"?>
<!-- Generator: Adobe Illustrator 22.0.0, SVG Export Plug-In . SVG Version: 6.00 Build 0)  -->
<svg version="1.1" id="图层_1" xmlns="http://www.w3.org/2000/svg" xmlns:xlink="http://www.w3.org/1999/xlink" x="0px" y="0px"
	 viewBox="0 0 200 200" style="enable-background:new 0 0 200 200;" xml:space="preserve">
<style type="text/css">
	.st0{fill:#3C3C3C;}
</style>
<path class="st0" d="M112.6,106.2V170l12.4,4.6v-49.4l9.7,5.3l4.9-9.3l-26.9-19 M89.4,189.7v-66.8L77,116.3v54.4l-9.7-5.3l-4.9,9.3
	l26.9,19"/>
<path class="st0" d="M162.3,61.9C158.3,30.8,131.6,7,99.8,7C68,7,41.4,30.8,37.3,61.9C16.6,68.6,1.9,88.4,1.9,110.4
	c0,24.4,17.3,44.9,40.2,49.9v-12.4c-16.3-4.7-28.2-19.7-28.2-37.5c0-18,12.7-34,30.3-38l4.4-1l0.3-4.5C50.5,40,72.9,19,99.8,19
	s49.3,21,50.9,47.9l0.3,4.5l4.4,1c17.6,4.1,30.3,20,30.3,38c0,17.8-11.9,32.8-28.2,37.5v12.4c23-5,40.2-25.4,40.2-49.9
	C197.7,88.4,183.1,68.6,162.3,61.9z"/>
</svg>
