<svg width="200" height="200" viewBox="0 0 200 200" fill="none" xmlns="http://www.w3.org/2000/svg">
<path d="M192.966 152.715H161.359V121.279H152.965V152.715H121.357V161.109H152.965V192.888H161.359V161.109H192.966V152.715Z" fill="#126EE3"/>
<path d="M75 18.75C108.656 18.75 135.938 46.0313 135.938 79.6875C135.938 113.344 108.656 140.625 75 140.625C41.3438 140.625 14.0625 113.344 14.0625 79.6875C14.0625 46.0313 41.3438 18.75 75 18.75ZM75 42.1875C73.8519 42.1877 72.7437 42.6092 71.8858 43.3721C71.0278 44.135 70.4796 45.1863 70.3453 46.3266L70.3125 46.875V84.375C70.3124 84.9973 70.4362 85.6135 70.6768 86.1874C70.9173 86.7614 71.2697 87.2817 71.7135 87.7181C72.1572 88.1544 72.6834 88.498 73.2614 88.7288C73.8393 88.9596 74.4574 89.0731 75.0797 89.0625H103.125C104.32 89.0612 105.469 88.6037 106.338 87.7835C107.206 86.9634 107.729 85.8424 107.799 84.6497C107.869 83.457 107.481 82.2826 106.714 81.3664C105.948 80.4502 104.86 79.8614 103.673 79.7203L103.125 79.6875L79.6875 79.6828V46.875C79.6873 45.7269 79.2658 44.6187 78.5029 43.7608C77.74 42.9028 76.6887 42.3546 75.5484 42.2203L75 42.1875ZM93.75 4.6875C94.9932 4.6875 96.1855 5.18136 97.0646 6.06044C97.9436 6.93951 98.4375 8.1318 98.4375 9.375C98.4375 10.6182 97.9436 11.8105 97.0646 12.6896C96.1855 13.5686 94.9932 14.0625 93.75 14.0625H56.25C55.0068 14.0625 53.8145 13.5686 52.9354 12.6896C52.0564 11.8105 51.5625 10.6182 51.5625 9.375C51.5625 8.1318 52.0564 6.93951 52.9354 6.06044C53.8145 5.18136 55.0068 4.6875 56.25 4.6875H93.75Z" fill="#126EE3"/>
</svg>
