<?xml version="1.0" encoding="UTF-8"?>
<svg width="14px" height="13px" viewBox="0 0 14 13" version="1.1" xmlns="http://www.w3.org/2000/svg" xmlns:xlink="http://www.w3.org/1999/xlink">
    <!-- Generator: Sketch 60 (88103) - https://sketch.com -->
    <title>编组</title>
    <desc>Created with Sketch.</desc>
    <g id="页面-3" stroke="none" stroke-width="1" fill="none" fill-rule="evenodd" fill-opacity="0.6">
        <g id="重置密码2" transform="translate(-496.000000, -224.000000)" fill="#6C798C" fill-rule="nonzero">
            <g id="编组-4备份-4">
                <g id="编组-3备份-3" transform="translate(435.000000, 70.000000)">
                    <g id="Group-12" transform="translate(45.000000, 144.000000)">
                        <g id="编组" transform="translate(16.000000, 10.000000)">
                            <path d="M13.5575781,2.9323125 L12.7175781,2.9323125 L12.7175781,2.14522159 C12.7175781,1.43613068 12.1505781,0.854676136 11.4435781,0.854676136 L2.12657812,0.854676136 C1.42657813,0.854676136 0.852578125,1.42903977 0.852578125,2.14522159 L0.852578125,2.93940341 L0.012578125,2.93940341 L0.012578125,2.14522159 C0.012578125,0.968130682 0.957578125,0.00376704545 2.12657812,0.00376704545 L11.4505781,0.00376704545 C12.6125781,0.00376704545 13.5645781,0.961039773 13.5645781,2.14522159 L13.5575781,2.9323125 Z M11.4435781,12.9304943 L2.12657812,12.9304943 C0.964578125,12.9304943 0.012578125,11.9732216 0.012578125,10.7890398 L0.012578125,9.99485795 L0.852578125,9.99485795 L0.852578125,10.7890398 C0.852578125,11.4981307 1.41957813,12.0795852 2.12657812,12.0795852 L11.4505781,12.0795852 C12.1505781,12.0795852 12.7245781,11.5052216 12.7245781,10.7890398 L12.7245781,9.99485795 L13.5645781,9.99485795 L13.5645781,10.7890398 C13.5575781,11.9732216 12.6125781,12.9304943 11.4435781,12.9304943 Z M2.59557813,7.73285795 L3.42157813,7.73285795 L3.42157813,5.26522159 L2.72157813,5.26522159 L2.72157813,4.78303977 C3.10657813,4.71213068 3.37257813,4.60576705 3.61757813,4.45685795 L4.18457812,4.45685795 L4.18457812,7.73285795 L4.90557812,7.73285795 L4.90557812,8.35685795 L2.59557813,8.35685795 L2.59557813,7.73285795 Z M5.45857813,7.91722159 C6.50157813,6.96703977 7.11757813,6.23667614 7.11757813,5.63394886 C7.11757813,5.23685795 6.90757813,5.00285795 6.53657813,5.00285795 C6.25657813,5.00285795 6.01857813,5.18722159 5.82957813,5.40703977 L5.41657813,4.98867614 C5.77357813,4.60576705 6.11657813,4.40013068 6.64157813,4.40013068 C7.36957813,4.40013068 7.85257813,4.87522159 7.85257813,5.59849432 C7.85257813,6.30758523 7.27157813,7.0663125 6.57157813,7.76122159 C6.76757813,7.73994886 7.01957813,7.71867614 7.19457813,7.71867614 L8.03457813,7.71867614 L8.03457813,8.37103977 L5.45857813,8.37103977 L5.45857813,7.91722159 Z M8.43357813,7.89594886 L8.79057813,7.40667614 C9.02157813,7.63358523 9.30157813,7.81085795 9.65157813,7.81085795 C10.0435781,7.81085795 10.3095781,7.6123125 10.3095781,7.26485795 C10.3095781,6.88194886 10.0855781,6.64085795 9.24557813,6.64085795 L9.24557813,6.08067614 C9.95257813,6.08067614 10.1835781,5.83249432 10.1835781,5.48503977 C10.1835781,5.18013068 9.99457813,5.00285795 9.66557813,4.99576705 C9.39257812,5.00285795 9.16857812,5.13049432 8.93757812,5.34322159 L8.54557813,4.86813068 C8.88157813,4.5703125 9.24557813,4.38594886 9.70057812,4.38594886 C10.4425781,4.38594886 10.9465781,4.75467614 10.9465781,5.42122159 C10.9465781,5.83958523 10.7155781,6.15158523 10.3025781,6.31467614 L10.3025781,6.34303977 C10.7365781,6.46358523 11.0725781,6.78976705 11.0725781,7.3003125 C11.0725781,8.01649432 10.4565781,8.43485795 9.72157812,8.43485795 C9.11257813,8.43485795 8.69957812,8.20794886 8.43357813,7.89594886 Z" id="形状"></path>
                        </g>
                    </g>
                </g>
            </g>
        </g>
    </g>
</svg>