<?xml version="1.0" encoding="UTF-8"?>
<svg width="18px" height="18px" viewBox="0 0 18 18" version="1.1" xmlns="http://www.w3.org/2000/svg" xmlns:xlink="http://www.w3.org/1999/xlink">
    <!-- Generator: Sketch 63 (92445) - https://sketch.com -->
    <title>侧边栏审核</title>
    <desc>Created with Sketch.</desc>
    <g id="侧边栏审核" stroke="none" stroke-width="1" fill="none" fill-rule="evenodd">
        <g id="编组-2备份-2">
            <rect id="矩形" x="0" y="0" width="18" height="18"></rect>
            <g id="编组" transform="translate(2.000000, 1.000000)">
                <path d="M15.15625,13 C15.6242675,13 16,13.3758462 16,13.8439561 L16,15.1560439 C16,15.6263956 15.6242675,16 15.15625,16 L7.84375,16 C7.37573242,16 7,15.6241538 7,15.1560439 L7,13.8439561 C7,13.3758462 7.37573242,13 7.84375,13 L15.15625,13 Z M14.9672412,14.1252967 L8.03051758,14.1252747 L8.03051758,15.0637583 L14.9672412,15.0637583 L14.9672412,14.1252967 Z" id="形状结合备份" fill="#FFFFFF" fill-rule="nonzero"></path>
                <path d="M11.5,8 C12.2256115,8 12.790613,8.5561756 12.790613,9.27046132 C12.790613,9.66666665 12.6300317,9.98474708 12.3881581,10.2228422 L14,13 L13.0325056,12.9199777 L11.7418642,10.4590402 L11.3944328,10.4590402 L11.3944328,10.4590402 L11.3393713,10.5390253 L9.94509439,13 L9,13 L10.6118231,10.2228422 C10.3699494,9.98474708 10.2093492,9.66666665 10.2093492,9.27046132 C10.2093492,8.5561756 10.7743698,8 11.5,8 Z M11.4999906,8.47427456 C11.0974977,8.47429316 10.7743698,8.79237352 10.7743698,9.18857887 C10.7743698,9.50665925 10.9349889,9.7447545 11.1768625,9.82286083 C11.3381116,9.87618431 11.4458209,9.902846 11.4999906,9.902846 C11.9024834,9.902846 12.2256115,9.58476567 12.2256115,9.18856027 C12.2256115,8.87237724 11.9024834,8.47427456 11.4999906,8.47427456 Z" id="形状结合备份-2" fill="#FFFFFF" fill-rule="nonzero"></path>
                <path d="M4.93740931,15 L1.93303721,15 C0.879038797,15 0,14.1117541 0,13.046716 L0,1.95326313 C0,0.888225084 0.879018211,0 1.93301662,0 L11.0669833,0 C12.1209817,0 13,0.888225084 13,1.95326313 L13,6.83540171" id="路径备份" stroke="#FFFFFF"></path>
                <path d="M9.54009593,3.10960251 L3.45986095,3.10960251 C3.18348662,3.10960251 3,3.26538392 3,3.5 C3,3.73461608 3.18350822,3.89041583 3.45988254,3.89041583 L9.54011748,3.89041583 C9.81649176,3.89041583 10,3.73461608 10,3.5 C10,3.34608819 9.8164702,3.10958418 9.54009593,3.10958418 L9.54009593,3.10960251 Z" id="路径备份-2" fill="#FFFFFF" fill-rule="nonzero"></path>
                <path d="M9.54011607,6.10961167 L3.45986236,6.10961167 C3.18348719,6.10961167 3,6.26541142 3,6.5000275 C3,6.73464359 3.18348719,6.89040667 3.45986236,6.89040667 L9.54011607,6.89040667 C9.81649119,6.89040667 10,6.73460693 10,6.5 C10,6.26537476 9.81646964,6.10959334 9.54009439,6.10959334 L9.54011607,6.10961167 Z" id="路径备份-3" fill="#FFFFFF" fill-rule="nonzero"></path>
            </g>
        </g>
    </g>
</svg>