<!-- <svg xmlns="http://www.w3.org/2000/svg" viewBox="0 0 200 200">
  <path fill="#2890f8" d="M187.2-.2h-174C6-.2.2 5.6.2 12.8v174c0 7.2 5.8 13 13 13h174c7.2 0 13-5.8 13-13v-174c0-7.2-5.8-13-13-13z"/>
  <path fill="#fff" d="M167.7 58.1c-1.3-2.1-3.7-3.4-6.2-3.4h-43c-2.7 0-5.1 1.5-6.4 3.8L78 121.9 50.9 69.2h25.4L86.2 88l8.4-15.3-7.5-14.2c-1.3-2.4-3.7-3.9-6.4-3.9H39c-2.5 0-4.9 1.3-6.2 3.5-1.3 2.2-1.4 4.9-.3 7.1l38.8 75.6c1.2 2.4 3.7 3.9 6.4 3.9s5.2-1.4 6.5-3.8l38.6-71.8h26.9l-27.2 54.3-11.1-15.5-7.8 14.1 14.1 19.6c1.4 1.9 3.6 3 5.9 3h.6c2.5-.2 4.8-1.7 5.9-4L168 65.2c1.1-2.3 1-4.9-.3-7.1z"/>
</svg> -->


<svg xmlns="http://www.w3.org/2000/svg" viewBox="0 0 250 230" xml:space="preserve">
  <path fill="#2890f8" d="M133.9 172.4c3.6-19 20.5-33.4 40.6-33.4 9.9 0 19 3.5 26.1 9.3V13.9c0-7.2-5.8-13-13-13H14C6.8 1 1 6.8 1 13.9v173.7c0 7.2 5.8 13 13 13h98.9c.3-13.1 9-24.3 21-28.2z" />
  <path fill="#fff" d="M167.7 58.1c-1.3-2.1-3.7-3.4-6.2-3.4h-43c-2.7 0-5.1 1.5-6.4 3.8L78 121.9 50.9 69.2h25.4L86.2 88l8.4-15.3-7.5-14.2c-1.3-2.4-3.7-3.9-6.4-3.9H39c-2.5 0-4.9 1.3-6.2 3.5s-1.4 4.9-.3 7.1l38.8 75.6c1.2 2.4 3.7 3.9 6.4 3.9s5.2-1.4 6.5-3.8l38.6-71.8h26.9l-27.2 54.3-11.1-15.5-7.8 14.1 14.1 19.6c1.4 1.9 3.6 3 5.9 3h.6c2.5-.2 4.8-1.7 5.9-4L168 65.2c1.1-2.3 1-4.9-.3-7.1zM177.7 163c-11.5 0-21.6 8.2-23.7 19.6l-.8 3.7-3.6 1.2c-6.6 2.2-11.2 8.5-11.2 15.3 0 8.7 7.4 16 16 16h70.5c8.7 0 16-7.4 16-16 0-7.3-4.9-13.7-11.8-15.6l-2.7-.8-1.3-2.4c-3.1-5.7-9.1-9.3-15.6-9.3-1.7 0-3.5.2-5.1.8l-4.6 1.4-2.7-3.9c-4.4-6.2-11.7-10-19.4-10z" />
  <path fill="#2890f8" d="M222.2 228.7h-65c-14.8 0-26.8-12-26.8-26.8 0-10.4 6-19.8 15.3-24.2 4.3-14.4 17.6-24.5 32.9-24.5 9.7 0 18.8 4.1 25.2 11.2 1.4-.2 2.8-.3 4.2-.3 9.6 0 18.5 4.8 23.7 12.7 10.3 3.9 17.3 13.9 17.3 25.1 0 14.8-12 26.8-26.8 26.8zm-43.6-63.5c-10.6 0-19.9 7.6-21.9 18.1l-.7 3.4-3.3 1.1c-6.1 2-10.3 7.8-10.3 14.1 0 8 6.8 14.8 14.8 14.8h65c8 0 14.8-6.8 14.8-14.8 0-6.7-4.5-12.6-10.9-14.4l-2.5-.7-1.2-2.2c-2.9-5.3-8.4-8.6-14.4-8.6-1.6 0-3.2.2-4.7.7l-4.2 1.3-2.5-3.6c-4.1-5.7-10.9-9.2-18-9.2z" />
</svg>
