<svg width="20" height="20" viewBox="0 0 20 20" fill="none"
    xmlns="http://www.w3.org/2000/svg">
    <path d="M1.20002 1.59998H8.77282C8.95539 1.59999 9.13245 1.66245 9.27462 1.77698L11.9824 3.95828C12.1246 4.07283 12.3017 4.13528 12.4843 4.13528H18.8C19.0122 4.13528 19.2157 4.21956 19.3657 4.36959C19.5157 4.51962 19.6 4.7231 19.6 4.93528V17.6C19.6 17.8121 19.5157 18.0156 19.3657 18.1657C19.2157 18.3157 19.0122 18.4 18.8 18.4H1.20002C0.987851 18.4 0.784368 18.3157 0.634339 18.1657C0.48431 18.0156 0.400024 17.8121 0.400024 17.6V2.39998C0.400024 2.1878 0.48431 1.98432 0.634339 1.83429C0.784368 1.68426 0.987851 1.59998 1.20002 1.59998V1.59998Z" fill="#126EE3" />
</svg>