<svg width="200" height="200" viewBox="0 0 200 200" fill="none" xmlns="http://www.w3.org/2000/svg">
<path d="M100 25C144.875 25 181.25 61.375 181.25 106.25C181.25 151.125 144.875 187.5 100 187.5C55.125 187.5 18.75 151.125 18.75 106.25C18.75 61.375 55.125 25 100 25ZM100 56.25C98.4692 56.2502 96.9916 56.8122 95.8477 57.8295C94.7037 58.8467 93.9729 60.2484 93.7937 61.7688L93.75 62.5V112.5C93.7499 113.33 93.915 114.151 94.2357 114.917C94.5564 115.682 95.0263 116.376 95.618 116.957C96.2097 117.539 96.9112 117.997 97.6818 118.305C98.4524 118.613 99.2766 118.764 100.106 118.75H137.5C139.093 118.748 140.625 118.138 141.784 117.045C142.942 115.951 143.639 114.457 143.732 112.866C143.826 111.276 143.308 109.71 142.286 108.489C141.263 107.267 139.813 106.482 138.231 106.294L137.5 106.25L106.25 106.244V62.5C106.25 60.9692 105.688 59.4916 104.671 58.3477C103.653 57.2037 102.252 56.4729 100.731 56.2937L100 56.25ZM125 6.25C126.658 6.25 128.247 6.90848 129.419 8.08058C130.592 9.25268 131.25 10.8424 131.25 12.5C131.25 14.1576 130.592 15.7473 129.419 16.9194C128.247 18.0915 126.658 18.75 125 18.75H75C73.3424 18.75 71.7527 18.0915 70.5806 16.9194C69.4085 15.7473 68.75 14.1576 68.75 12.5C68.75 10.8424 69.4085 9.25268 70.5806 8.08058C71.7527 6.90848 73.3424 6.25 75 6.25H125Z" fill="#126EE3"/>
</svg>
