<?xml version="1.0" standalone="no"?><!DOCTYPE svg PUBLIC "-//W3C//DTD SVG 1.1//EN" "http://www.w3.org/Graphics/SVG/1.1/DTD/svg11.dtd"><svg class="icon" width="32px" height="32.00px" viewBox="0 0 1024 1024" version="1.1" xmlns="http://www.w3.org/2000/svg"><path fill="#666666" d="M852.098977 0.458419a22.819721 22.819721 0 0 1 16.497116 2.911255 18.539163 18.539163 0 0 1 13.80614 17.544931l28.975627 52.343069 9.418419 17.009117 1.988465 3.595907c5.465302 9.870884 9.501767 17.193674 13.526326 24.528372 7.245395 13.198884 14.437209 26.433488 29.767442 54.670883l0.029767 0.053582 27.183628 50.033116c1.446698 2.565953 2.536186 5.316465 3.250605 8.17414C1010.842791 253.142326 1018.046512 282.314419 1018.046512 318.618791l-0.273861 0.220279c0.327442 189.112558 0.327442 378.391814 0 567.831814 0 92.505302-42.906791 135.501395-136.412279 135.501395-79.717209 0.214326-159.404651 0.142884-239.12186 0.071442h-0.273861c-39.775256-0.035721-79.556465-0.071442-119.349581-0.071442H147.700093C46.603907 1022.005581 5.953488 981.045581 5.953488 879.979163v-564.807442C5.953488 280.504558 12.478512 252.648186 25.540465 231.590698c0.726326-2.887442 1.815814-5.667721 3.238698-8.275349l27.576558-50.818977c15.08614-27.802791 22.206512-40.930233 29.386419-54.016l1.381209-2.518325c6.013023-10.936558 12.42493-22.504186 23.849674-43.115163 7.930047-14.288372 18.241488-32.898977 32.49414-58.629954a24.498605 24.498605 0 0 1 27.505116-13.43107c4.822326-0.476279 9.668465-0.678698 14.520558-0.607255h654.556279c3.905488 0 8.031256 0 12.049861 0.27386z m-39.328744 249.201116H214.980465v26.814512a15.651721 15.651721 0 0 1-15.354046 15.681488h-1.154977a15.705302 15.705302 0 0 1-11.543814-4.197209 15.604093 15.604093 0 0 1-4.953302-11.210419v-26.814512H159.970233c-56.546233 0-77.008372 20.730047-77.008373 77.758512v544.63107a111.616 111.616 0 0 0 7.64428 46.449116l77.008372-132.703256a13.157209 13.157209 0 0 1 18.158139-4.88186l5.167628 2.958883c3.083907 1.726512 5.346233 4.619907 6.26307 8.025303a13.061953 13.061953 0 0 1-1.369302 10.073302l-81.241303 140.383256a108.871442 108.871442 0 0 0 45.43107 7.727628h707.363721a115.420279 115.420279 0 0 0 44.008186-6.959628l-56.986791-98.321861a13.252465 13.252465 0 0 1 4.893768-18.045023l5.501023-3.012465a13.276279 13.276279 0 0 1 18.098605 4.822326l53.301581 91.904c6.102326-11.787907 8.799256-27.636093 8.799256-48.199442V327.584744c0-57.195163-20.24186-77.925209-77.008372-77.925209h-22.498233v39.316837a15.705302 15.705302 0 0 1-15.729116 15.681488h-1.321675c-4.167442 0-8.162233-1.649116-11.103255-4.596093a15.592186 15.592186 0 0 1-4.572279-11.085395v-39.316837zM528.050605 342.212465c56.159256 0 96.256 40.031256 96.256 96.017861v3.99479c-0.059535 13.419163-0.696558 21.373023-7.977675 36.036465l80.312558 119.92707c16.002977-23.909209 48.128-39.971721 80.24707-39.971721a135.501395 135.501395 0 0 1 96.928744 39.424 134.697674 134.697674 0 0 1 39.709768 96.565582c0 72.05507-64.303628 128.041674-136.578977 128.041674h-2.881488a135.382326 135.382326 0 0 1-94.065117-39.489488 134.578605 134.578605 0 0 1-39.57879-96.500093l0.005953-4.578233c0.065488-14.496744 0.756093-29.023256 8.025302-43.460465L568.147349 518.292837a61.309023 61.309023 0 0 1-40.096744 15.955349c-24.040186 0-48.187535-8.001488-64.190512-32.077395L319.464186 622.264558c8.031256 15.955349 8.031256 23.962791 8.031256 40.031256-0.88707 57.171349-47.163535 103.30493-104.513489 104.186046-56.212837 0-112.372093-47.979163-112.372093-104.186046s48.181581-104.192 112.372093-104.192a151.438884 151.438884 0 0 1 64.35721 16.395907l144.389953-128.315535v-7.95386c0-48.032744 40.150326-96.01786 96.315535-96.017861z m248.724837 272.056558c-48.128 0-80.253023 32.077395-80.253023 80.056558 0 47.985116 32.125023 80.062512 80.253023 80.062512 48.133953 0 80.306605-32.023814 80.306605-80.062512 0-48.032744-32.11907-80.056558-80.306605-80.056558z m-553.662512 0c-32.178605 0-56.159256 23.962791-56.159256 48.032744a54.760186 54.760186 0 0 0 16.098233 39.941954 55.081674 55.081674 0 0 0 40.061023 16.044651c32.11907 0 48.128-23.962791 48.128-55.986605 0-24.069953-24.040186-48.032744-48.128-48.032744z m304.925768-216.075907a40.156279 40.156279 0 0 0-37.137861 24.671256 39.941953 39.941953 0 0 0 8.668279 43.645023 40.245581 40.245581 0 0 0 43.764093 8.704 40.025302 40.025302 0 0 0 24.802233-36.989023c0-24.075907-23.980651-40.031256-40.096744-40.031256zM845.389395 66.67907v115.152372h35.970977c9.323163 0.01786 18.634419 0.589395 27.892093 1.702698l-7.191814-13.186977-1.869395-3.42921a25801.067163 25801.067163 0 0 0-27.850419-50.830883l-0.714418-1.321675-2.804093-5.096186c-2.899349-5.328372-5.822512-10.656744-8.739721-15.973209l-0.005954-0.011907c-4.947349-9.019535-9.882791-18.015256-14.687256-27.005023zM182.581581 55.337674c-6.947721 13.812093-14.395535 27.403907-21.819534 40.96-2.452837 4.482977-4.905674 8.96-7.334698 13.437024l-3.077954 5.810604-0.440558 0.607256-37.072372 66.738605a238.996837 238.996837 0 0 1 25.73693-1.428837h44.008186zM345.957209 43.645023H215.093581v137.906605c86.76614-0.166698 176.002977-0.261953 265.483907-0.279814h67.119628c89.457116 0.01786 178.604651 0.113116 265.192186 0.279814V43.63907l-11.79386 0.011907h-6.388093l-3.31014 0.005953h-6.846511l-3.530419 0.005954h-7.275163l-3.73879 0.005953h-11.609303l-3.988837 0.005954-16.550698 0.005953h-4.274604l-26.671628 0.005954H578.476651l-45.859721-0.005954h-34.911256l-4.893767-0.005953-28.737488-0.005954h-27.392l-4.405582-0.005953h-25.385674l-4.036465-0.005954h-25.522605l-2.899349-0.005953H348.27907l-2.309954-0.005954z" /></svg>