<?xml version="1.0" standalone="no"?><!DOCTYPE svg PUBLIC "-//W3C//DTD SVG 1.1//EN" "http://www.w3.org/Graphics/SVG/1.1/DTD/svg11.dtd"><svg class="icon" width="32px" height="32.00px" viewBox="0 0 1024 1024" version="1.1" xmlns="http://www.w3.org/2000/svg"><path fill="#666666" d="M245.4016 130.56h523.41248c33.8944 0 67.18464 9.7024 86.05184 33.28l0.08704 0.11264 0.1024 0.09728c23.86944 23.86944 33.52576 52.54656 38.38464 86.44096v523.2128c0 33.42336-14.30016 62.18752-33.59744 86.3488-23.87456 23.81312-52.49536 33.38752-86.13888 33.38752H250.29632c-31.01184 0-60.96384-14.32576-83.18464-36.55168-22.22592-22.22592-36.55168-52.1728-36.55168-83.18464v-48.91136c0-6.40512 3.18464-11.82208 8.18688-15.71328 5.02784-3.91168 11.8016-6.19008 18.60096-6.19008 6.80448 0 13.57824 2.2784 18.60608 6.19008 5.00224 3.8912 8.18688 9.30816 8.18688 15.71328v48.91136c0 35.79392 30.63296 61.26592 61.2608 61.26592h523.41248c35.79392 0 61.2608-30.63808 61.2608-61.26592V250.29632c0-35.7888-30.63808-61.26592-61.2608-61.26592H250.29632c-35.7888 0-61.26592 30.63808-61.26592 61.26592v248.84224c-2.25792 4.18816-6.61504 8.53504-12.20608 11.89376-5.79584 3.47648-12.68736 5.74976-19.47648 5.74976-13.08672 0-22.07744-8.53504-26.78784-22.35392V250.29632c0-66.08896 51.0976-118.08768 111.93344-119.69536l2.90816-0.04096zM692.77696 473.6c2.44224 0 5.7856 0.0256 9.09312 0.56832 3.5072 0.57856 6.54848 1.67936 8.43264 3.54304 1.94048 1.91488 3.00032 4.89984 4.28032 8.69376 1.03424 3.05664 2.23232 6.7328 4.52096 9.5744l-34.0224 134.4256-0.08192 0.31232v0.31744c0 0.47616-0.29696 1.4848-1.21856 2.95936-0.8704 1.38752-2.11968 2.90304-3.54304 4.31104a25.2672 25.2672 0 0 1-4.36736 3.50208c-1.48992 0.91136-2.52928 1.21344-3.03616 1.21344-2.46784 0-5.95456-0.00512-9.40032-0.56832-3.5072-0.57856-6.54848-1.67936-8.43264-3.54304l-29.45024-29.09184-1.80224-1.77152-1.79712 1.77152-147.2512 145.45408c-6.77376 6.68672-17.10592 10.16832-27.648 10.16832-10.5472 0-20.8896-3.4816-27.65824-10.16832l-14.72512-14.54592-112.896-111.50848-1.792-1.78176-1.80224 1.78176-107.9808 106.65984c-7.08096 6.9888-13.83936 10.16832-20.29568 10.16832-6.4512 0-13.2096-3.17952-20.28544-10.16832-2.2016-2.176-4.5056-5.5552-6.26688-9.03168-1.80224-3.5584-2.7904-6.74304-2.7904-8.54016s0.98816-4.98176 2.7904-8.54016c1.75616-3.47648 4.06528-6.85568 6.26688-9.03168l0.04096-0.04096 0.04096-0.04608 49.08544-53.32992 53.73952-53.08416 14.49984-9.54368 0.21504-0.13824 0.1792-0.17408c9.53344-9.4208 18.7392-13.81376 27.648-13.81376 8.99584 0 18.1248 4.4032 27.95008 9.25184l127.32416 125.76768 1.7664 1.7408 1.79712-1.71008 137.43616-130.90304 1.90976-1.8176-1.87392-1.85856-34.36032-33.94048c-1.87904-1.85344-2.99008-4.84352-3.56864-8.29952-0.57344-3.39456-0.57856-6.83008-0.57856-9.2672 0-4.44928 1.12128-7.31648 2.92352-9.09312s4.72064-2.8928 9.2416-2.8928h0.31232l0.29696-0.0768 137.13408-33.86368z" /></svg>