<?xml version="1.0" standalone="no"?><!DOCTYPE svg PUBLIC "-//W3C//DTD SVG 1.1//EN" "http://www.w3.org/Graphics/SVG/1.1/DTD/svg11.dtd"><svg class="icon" width="32px" height="32.00px" viewBox="0 0 1024 1024" version="1.1" xmlns="http://www.w3.org/2000/svg"><path fill="#666666" d="M850.42176 387.65568c52.03456 0 94.21824-41.74848 94.21824-93.25568V170.05568c0-51.5072-42.18368-93.25568-94.21824-93.25568H168.45824C116.4288 76.8 74.24 118.54848 74.24 170.05568V294.4c0 51.5072 42.18368 93.25568 94.22336 93.25568H322.9184V512a31.0784 31.0784 0 0 0 31.08864 31.08352h279.77216v93.2608H168.46336c-52.03968 0-94.22336 41.74848-94.22336 93.25568v124.34432c0 51.5072 42.18368 93.25568 94.22336 93.25568h681.9584c52.03456 0 94.21824-41.74848 94.21824-93.25568V729.6c0-51.5072-42.18368-93.25568-94.21824-93.25568h-154.46528V512a31.0784 31.0784 0 0 0-31.08864-31.08352H385.09568V387.65568h465.32608z m0 310.8608c17.34144 0 31.39584 13.9264 31.39584 31.08352v124.34432c0 17.15712-14.0544 31.08352-31.39584 31.08352H168.45824c-17.34144 0-31.39584-13.9264-31.39584-31.08352V729.6c0-17.15712 14.0544-31.08352 31.40096-31.08352h681.9584zM137.0624 294.4V170.05568c0-17.15712 14.0544-31.08352 31.40096-31.08352h681.9584c17.34144 0 31.39584 13.9264 31.39584 31.08352V294.4c0 17.15712-14.0544 31.08352-31.39584 31.08352H168.45824c-17.34144 0-31.39584-13.9264-31.39584-31.08352zM315.61216 803.84h377.41568a31.6928 31.6928 0 0 0 22.24128-9.07264 30.74048 30.74048 0 0 0 9.21088-21.90336 30.74048 30.74048 0 0 0-9.21088-21.90336 31.6928 31.6928 0 0 0-22.24128-9.07264H315.61216a31.6928 31.6928 0 0 0-22.24128 9.07264 30.74048 30.74048 0 0 0-9.21088 21.90336c0 8.2176 3.31264 16.09216 9.216 21.90336A31.6928 31.6928 0 0 0 315.60704 803.84zM724.48 215.296a30.74048 30.74048 0 0 0-9.21088-21.90336A31.70304 31.70304 0 0 0 693.02784 184.32H315.61216c-8.3456 0-16.34304 3.26144-22.24128 9.07264A30.74048 30.74048 0 0 0 284.16 215.296c0 8.2176 3.31264 16.09216 9.216 21.90336a31.69792 31.69792 0 0 0 22.23616 9.07264h377.41568a31.70304 31.70304 0 0 0 22.24128-9.07264 30.74048 30.74048 0 0 0 9.21088-21.90336z" /></svg>