<?xml version="1.0" standalone="no"?><!DOCTYPE svg PUBLIC "-//W3C//DTD SVG 1.1//EN" "http://www.w3.org/Graphics/SVG/1.1/DTD/svg11.dtd"><svg class="icon" width="32px" height="32.00px" viewBox="0 0 1024 1024" version="1.1" xmlns="http://www.w3.org/2000/svg"><path fill="#666666" d="M984.23296 112.64H38.3488C17.04448 112.64 0 126.85312 0 142.4896V881.5104C0 897.14688 17.04448 911.36 38.3488 911.36h947.3024c21.30432 0 38.3488-12.78976 38.3488-29.84448V142.48448c-1.41824-15.63136-18.46272-29.84448-39.76704-29.84448z m-36.92544 220.288H436.0192V172.32896h511.28832v160.59904zM436.0192 639.90784H653.312v211.7632H436.01408v-211.7632z m0-59.68896v-187.5968H653.312V581.632H436.01408v-1.41824z m292.56704-187.5968h217.29792V581.632h-217.29792V392.61696zM359.3216 172.32384v160.59904H75.27424V172.32896H359.3216zM75.27424 392.61696H359.3216v460.47232H75.27424V392.61696z m653.312 459.05408v-211.7632h217.29792v211.7632h-217.29792z" /></svg>