<?xml version="1.0" standalone="no"?><!DOCTYPE svg PUBLIC "-//W3C//DTD SVG 1.1//EN" "http://www.w3.org/Graphics/SVG/1.1/DTD/svg11.dtd"><svg t="1755236902690" class="icon" viewBox="0 0 1024 1024" version="1.1" xmlns="http://www.w3.org/2000/svg" p-id="4110" xmlns:xlink="http://www.w3.org/1999/xlink" width="32" height="32"><path d="M903.899429 873.325714c0 30.72-138.971429 90.697143-393.508572 90.697143S117.028571 904.045714 117.028571 873.325714V677.302857v33.426286c76.068571 50.395429 239.104 73.728 393.508572 73.508571 154.477714-0.219429 317.44-24.064 393.362286-74.605714v163.693714z m0-406.235428v209.993143l-0.073143-33.426286c0 30.866286-138.752 90.989714-393.289143 91.355428-254.244571 0.365714-393.069714-59.245714-393.508572-90.038857V434.834286v33.426285C193.097143 518.582857 356.205714 541.988571 510.537143 541.769143c154.477714-0.292571 317.44-24.137143 393.362286-74.605714z m-393.508572-187.172572c154.477714 0 317.44-23.552 393.508572-74.093714v228.790857l-0.073143-33.426286c0 30.793143-138.752 90.916571-393.289143 91.355429C256.292571 492.909714 117.467429 433.298286 117.028571 402.505143V205.824c75.995429 50.468571 238.957714 74.093714 393.435429 74.093714z m0-230.692571c254.537143 0 393.508571 59.977143 393.508572 90.697143 0 30.866286-138.971429 90.770286-393.508572 90.770285S117.028571 170.715429 117.028571 139.995429C117.028571 109.129143 255.853714 49.225143 510.464 49.225143z m437.394286 90.697143C947.785143 43.885714 721.042286 0 510.390857 0 299.885714 0 73.142857 43.812571 73.142857 139.995429V873.325714c0 96.182857 226.742857 139.922286 437.321143 139.922286 210.651429 0 437.321143-43.739429 437.321143-139.922286V139.995429z" p-id="4111"></path></svg>