<?xml version="1.0" standalone="no"?><!DOCTYPE svg PUBLIC "-//W3C//DTD SVG 1.1//EN" "http://www.w3.org/Graphics/SVG/1.1/DTD/svg11.dtd"><svg t="1745306102026" class="icon" viewBox="0 0 1024 1024" version="1.1" xmlns="http://www.w3.org/2000/svg" p-id="4108" xmlns:xlink="http://www.w3.org/1999/xlink" width="200" height="200"><path d="M871.04 921.6H145.28A76.16 76.16 0 0 1 64 851.84V761.6a75.52 75.52 0 0 1 78.08-72.96h736.64A75.52 75.52 0 0 1 960 757.76v90.88a87.68 87.68 0 0 1-88.96 72.96z m-88.96-180.48a58.24 58.24 0 1 0 59.52 58.24 58.24 58.24 0 0 0-59.52-58.24z m88.96-108.8H145.28A81.28 81.28 0 0 1 64 559.36V471.68a75.52 75.52 0 0 1 78.08-72.96h736.64A75.52 75.52 0 0 1 960 468.48v90.88a94.72 94.72 0 0 1-88.96 72.96z m-88.96-174.72a56.96 56.96 0 0 0-51.84 58.24 59.52 59.52 0 0 0 119.04 0 71.68 71.68 0 0 0-67.2-58.24z m88.96-122.24H145.28A75.52 75.52 0 0 1 64 266.24V175.36A75.52 75.52 0 0 1 142.08 102.4h736.64A76.16 76.16 0 0 1 960 172.16V262.4a87.68 87.68 0 0 1-88.96 72.96z m-140.8-116.48a59.52 59.52 0 0 0 58.88 60.16 59.52 59.52 0 0 0 0-118.4c-37.12 7.68-59.52 28.8-59.52 58.24z" fill="#363636" p-id="4109"></path></svg>