<svg width="448" height="96" viewBox="0 0 448 96" fill="none" xmlns="http://www.w3.org/2000/svg">
<path d="M30.0638 31.4738C30.056 32.9466 31.2435 34.1469 32.7163 34.1549C34.189 34.1629 35.3893 32.9755 35.3971 31.5028C35.4049 30.03 34.2174 28.8296 32.7447 28.8217C31.2719 28.8137 30.0717 30.0011 30.0638 31.4738ZM120.072 31.9622C120.064 33.4349 121.251 34.6353 122.724 34.6433C124.197 34.6513 125.397 33.4639 125.405 31.9911C125.413 30.5184 124.225 29.318 122.752 29.31C121.28 29.302 120.08 30.4894 120.072 31.9622ZM32.7305 31.4883L32.7278 31.9883L122.736 32.4766L122.738 31.9767L122.741 31.4767L32.7331 30.9883L32.7305 31.4883Z" fill="black" fill-opacity="0.45"/>
<path d="M321.571 83.6133C321.571 85.086 322.765 86.2799 324.238 86.2799C325.71 86.2799 326.904 85.086 326.904 83.6133C326.904 82.1405 325.71 80.9466 324.238 80.9466C322.765 80.9466 321.571 82.1405 321.571 83.6133ZM412.603 83.6133C412.603 85.086 413.797 86.2799 415.27 86.2799C416.742 86.2799 417.936 85.086 417.936 83.6133C417.936 82.1405 416.742 80.9466 415.27 80.9466C413.797 80.9466 412.603 82.1405 412.603 83.6133ZM324.238 83.6133V84.1133H415.27V83.6133V83.1133H324.238V83.6133Z" fill="black" fill-opacity="0.45"/>
<rect y="18.582" width="24.5479" height="24.5479" rx="4" fill="#126EE3"/>
<g clip-path="url(#clip0_429_13664)">
<path d="M12.2805 22.668C8.5953 22.678 5.59912 25.6143 5.59912 29.2238C5.59912 31.3407 8.08025 34.2548 8.36329 34.5802C8.91876 35.2191 9.00783 35.3585 9.1875 35.6372C9.42935 36.0123 9.79226 36.5794 11.3257 38.5368C11.5752 38.8443 11.9171 39.014 12.2805 39.0227C12.644 39.014 12.9859 38.8442 13.2354 38.5368C14.7688 36.5795 15.1317 36.0124 15.3736 35.6372C15.5533 35.3586 15.6423 35.2191 16.1978 34.5802C16.4809 34.2548 18.962 31.3407 18.962 29.2238C18.962 25.6143 15.9658 22.678 12.2805 22.668ZM15.402 33.9185C14.7988 34.6126 14.6888 34.7826 14.4894 35.092C14.2714 35.4299 13.9064 35.995 12.4071 37.9089C12.3676 37.9578 12.3235 37.9721 12.2805 37.9847C12.2375 37.9721 12.1934 37.9578 12.1539 37.9089C10.6547 35.995 10.2897 35.4299 10.0718 35.092C9.8723 34.7826 9.76217 34.6127 9.15901 33.9185C7.94677 32.5252 6.64261 30.4621 6.64261 29.2238C6.64261 26.1769 9.17016 23.6985 12.2805 23.6885C15.3908 23.6985 17.9183 26.1769 17.9183 29.2238C17.9184 30.4621 16.6142 32.5252 15.402 33.9185ZM12.2805 26.7575C10.8687 26.7575 9.72422 27.9021 9.72422 29.3138C9.72422 30.7257 10.8688 31.8702 12.2805 31.8702C13.6924 31.8702 14.8369 30.7257 14.8369 29.3138C14.8369 27.902 13.6924 26.7575 12.2805 26.7575ZM12.2805 30.8477C11.4333 30.8477 10.7468 30.1609 10.7468 29.3138C10.7468 28.4668 11.4334 27.78 12.2805 27.78C13.1276 27.78 13.8144 28.4668 13.8144 29.3138C13.8144 30.1609 13.1276 30.8477 12.2805 30.8477Z" fill="white"/>
</g>
<rect y="55.9688" width="24.5479" height="24.5479" rx="4" fill="#126EE3"/>
<g clip-path="url(#clip1_429_13664)">
<path d="M12.2805 60.0547C8.5953 60.0647 5.59912 63.001 5.59912 66.6106C5.59912 68.7275 8.08025 71.6415 8.36329 71.9669C8.91876 72.6058 9.00783 72.7452 9.1875 73.0239C9.42935 73.399 9.79226 73.9661 11.3257 75.9235C11.5752 76.2311 11.9171 76.4007 12.2805 76.4094C12.644 76.4007 12.9859 76.231 13.2354 75.9235C14.7688 73.9662 15.1317 73.3991 15.3736 73.0239C15.5533 72.7453 15.6423 72.6058 16.1978 71.9669C16.4809 71.6415 18.962 68.7275 18.962 66.6106C18.962 63.001 15.9658 60.0647 12.2805 60.0547ZM15.402 71.3052C14.7988 71.9993 14.6888 72.1693 14.4894 72.4787C14.2714 72.8167 13.9064 73.3817 12.4071 75.2957C12.3676 75.3445 12.3235 75.3588 12.2805 75.3715C12.2375 75.3589 12.1934 75.3446 12.1539 75.2957C10.6547 73.3817 10.2897 72.8167 10.0718 72.4787C9.8723 72.1693 9.76217 71.9994 9.15901 71.3052C7.94677 69.9119 6.64261 67.8489 6.64261 66.6106C6.64261 63.5636 9.17016 61.0852 12.2805 61.0752C15.3908 61.0852 17.9183 63.5636 17.9183 66.6106C17.9184 67.8489 16.6142 69.9119 15.402 71.3052ZM12.2805 64.1442C10.8687 64.1442 9.72422 65.2888 9.72422 66.7005C9.72422 68.1124 10.8688 69.2569 12.2805 69.2569C13.6924 69.2569 14.8369 68.1124 14.8369 66.7005C14.8369 65.2887 13.6924 64.1442 12.2805 64.1442ZM12.2805 68.2344C11.4333 68.2344 10.7468 67.5476 10.7468 66.7005C10.7468 65.8535 11.4334 65.1667 12.2805 65.1667C13.1276 65.1667 13.8144 65.8535 13.8144 66.7005C13.8144 67.5476 13.1276 68.2344 12.2805 68.2344Z" fill="white"/>
</g>
<rect x="423.339" y="70.25" width="24.6608" height="24.6608" rx="4" fill="#3B4573"/>
<g clip-path="url(#clip2_429_13664)">
<path d="M435.977 84.1192L436.08 83.7082C436.08 83.6055 436.08 83.6055 435.977 83.6055H435.361C435.258 83.6055 435.258 83.6055 435.258 83.7082L435.361 84.1192V84.3247L434.641 88.8459C434.641 88.9486 434.641 89.0514 434.744 89.1542L435.463 89.6679C435.566 89.7707 435.669 89.7707 435.772 89.6679L436.491 89.1542C436.594 89.0514 436.696 88.9486 436.696 88.8459L435.977 84.3247V84.1192Z" fill="white"/>
<path d="M437.93 82.4789C439.265 81.6569 440.293 80.2184 440.293 78.4716C440.293 75.9027 438.238 73.8477 435.669 73.8477C433.1 73.8477 431.045 75.9027 431.045 78.4716C431.045 80.2184 431.97 81.6569 433.408 82.4789C430.531 83.4037 428.476 86.0753 428.476 89.2607C428.476 89.5689 428.682 89.7744 428.99 89.7744C429.298 89.7744 429.504 89.5689 429.504 89.2607C429.504 85.8698 432.278 83.0955 435.669 83.0955C439.06 83.0955 441.834 85.8698 441.834 89.2607C441.834 89.5689 442.04 89.7744 442.348 89.7744C442.656 89.7744 442.862 89.5689 442.862 89.2607C442.862 86.0753 440.807 83.4037 437.93 82.4789ZM432.073 78.4716C432.073 76.5192 433.717 74.8752 435.669 74.8752C437.621 74.8752 439.265 76.5192 439.265 78.4716C439.265 80.4239 437.621 82.0679 435.669 82.0679C433.717 82.0679 432.073 80.4239 432.073 78.4716Z" fill="white"/>
</g>
<rect x="423.339" y="33.0859" width="24.6608" height="24.6608" rx="4" fill="#3B4573"/>
<g clip-path="url(#clip3_429_13664)">
<path d="M435.977 46.9552L436.08 46.5442C436.08 46.4414 436.08 46.4414 435.977 46.4414H435.361C435.258 46.4414 435.258 46.4414 435.258 46.5442L435.361 46.9552V47.1607L434.641 51.6818C434.641 51.7846 434.641 51.8873 434.744 51.9901L435.463 52.5039C435.566 52.6066 435.669 52.6066 435.772 52.5039L436.491 51.9901C436.594 51.8873 436.696 51.7846 436.696 51.6818L435.977 47.1607V46.9552Z" fill="white"/>
<path d="M437.93 45.3149C439.265 44.4928 440.293 43.0543 440.293 41.3075C440.293 38.7387 438.238 36.6836 435.669 36.6836C433.1 36.6836 431.045 38.7387 431.045 41.3075C431.045 43.0543 431.97 44.4928 433.408 45.3149C430.531 46.2397 428.476 48.9112 428.476 52.0966C428.476 52.4049 428.682 52.6104 428.99 52.6104C429.298 52.6104 429.504 52.4049 429.504 52.0966C429.504 48.7057 432.278 45.9314 435.669 45.9314C439.06 45.9314 441.834 48.7057 441.834 52.0966C441.834 52.4049 442.04 52.6104 442.348 52.6104C442.656 52.6104 442.862 52.4049 442.862 52.0966C442.862 48.9112 440.807 46.2397 437.93 45.3149ZM432.073 41.3075C432.073 39.3552 433.717 37.7111 435.669 37.7111C437.621 37.7111 439.265 39.3552 439.265 41.3075C439.265 43.2598 437.621 44.9039 435.669 44.9039C433.717 44.9039 432.073 43.2598 432.073 41.3075Z" fill="white"/>
</g>
<rect x="130.922" width="185.132" height="96" rx="3" fill="white"/>
<rect x="131.422" y="0.5" width="184.132" height="95" rx="2.5" stroke="black" stroke-opacity="0.25"/>
<path d="M130.922 3C130.922 1.34315 132.266 0 133.922 0H312.032C313.689 0 315.032 1.34315 315.032 3V18.5806H130.922V3Z" fill="#126EE3" fill-opacity="0.1"/>
<rect x="130.922" y="18.582" width="184.11" height="1.03226" fill="black" fill-opacity="0.15"/>
<rect x="130.922" y="44.3867" width="184.11" height="1.03226" fill="black" fill-opacity="0.1"/>
<rect x="222.977" y="18.582" width="1.02283" height="76.3871" fill="black" fill-opacity="0.1"/>
<rect x="130.922" y="69.1641" width="184.11" height="1.03226" fill="black" fill-opacity="0.1"/>
<rect x="161.607" y="26.8359" width="49.0959" height="10.3226" rx="5.16129" fill="#126EE3" fill-opacity="0.1"/>
<rect x="254.685" y="26.8359" width="49.0959" height="10.3226" rx="5.16129" fill="#126EE3" fill-opacity="0.1"/>
<rect x="254.685" y="52.6445" width="49.0959" height="10.3226" rx="5.16129" fill="#126EE3" fill-opacity="0.1"/>
<rect x="254.685" y="78.4492" width="49.0959" height="10.3226" rx="5.16129" fill="#126EE3" fill-opacity="0.1"/>
<rect x="161.607" y="52.6445" width="49.0959" height="10.3226" rx="5.16129" fill="#126EE3" fill-opacity="0.1"/>
<rect x="161.607" y="78.4492" width="49.0959" height="10.3226" rx="5.16129" fill="#126EE3" fill-opacity="0.1"/>
<rect x="236.274" y="24.7734" width="14.3196" height="14.4516" fill="white"/>
<path d="M242.612 31.4749V27.24C242.612 27.1906 242.621 27.1416 242.641 27.0961C242.66 27.0506 242.688 27.0096 242.724 26.9755C242.758 26.9397 242.799 26.9113 242.845 26.8921C242.89 26.8728 242.939 26.8631 242.988 26.8635H245.247C245.297 26.8617 245.347 26.8701 245.393 26.8882C245.44 26.9063 245.482 26.9338 245.518 26.9689C245.588 27.0397 245.623 27.13 245.623 27.24C245.625 27.2899 245.617 27.3398 245.599 27.3864C245.581 27.433 245.553 27.4754 245.518 27.511C245.482 27.5461 245.44 27.5736 245.393 27.5917C245.347 27.6098 245.297 27.6182 245.247 27.6164H243.365V29.1221H245.247C245.297 29.1202 245.347 29.1286 245.393 29.1467C245.44 29.1648 245.482 29.1923 245.518 29.2275C245.588 29.2982 245.623 29.3886 245.623 29.4985C245.625 29.5485 245.617 29.5983 245.599 29.6449C245.581 29.6915 245.553 29.7339 245.518 29.7695C245.482 29.8046 245.44 29.8321 245.393 29.8502C245.347 29.8684 245.297 29.8768 245.247 29.8749H243.365V31.3806C244.18 31.3961 244.866 31.6692 245.424 32.1982C245.981 32.7277 246.294 33.3957 246.365 34.2037C246.396 35.0193 246.166 35.723 245.677 36.3152C245.186 36.9074 244.541 37.2618 243.741 37.3792C242.926 37.466 242.208 37.2839 241.588 36.8327C240.969 36.382 240.573 35.7561 240.401 34.9566C240.267 34.1566 240.406 33.4308 240.818 32.7804C241.23 32.1299 241.827 31.6948 242.612 31.4749ZM243.365 36.6505C244.008 36.6344 244.541 36.4151 244.965 35.9915C245.388 35.5684 245.607 35.0354 245.623 34.3919C245.607 33.749 245.388 33.2155 244.964 32.7919C244.541 32.3688 244.008 32.1495 243.365 32.1334C242.722 32.149 242.188 32.3688 241.765 32.7924C241.342 33.2155 241.122 33.7485 241.106 34.3919C241.122 35.0354 241.342 35.5684 241.765 35.992C242.188 36.4151 242.722 36.6344 243.365 36.6505Z" fill="black" fill-opacity="0.85"/>
<rect x="236.274" y="50.582" width="14.3196" height="14.4516" fill="white"/>
<path d="M242.612 57.2796V53.0446C242.612 52.9952 242.621 52.9463 242.641 52.9008C242.66 52.8553 242.688 52.8142 242.724 52.7801C242.758 52.7444 242.799 52.716 242.845 52.6968C242.89 52.6775 242.939 52.6678 242.988 52.6682H245.247C245.297 52.6664 245.347 52.6748 245.393 52.6929C245.44 52.711 245.482 52.7385 245.518 52.7736C245.588 52.8444 245.623 52.9347 245.623 53.0446C245.625 53.0946 245.617 53.1444 245.599 53.1911C245.581 53.2377 245.553 53.2801 245.518 53.3157C245.482 53.3508 245.44 53.3783 245.393 53.3964C245.347 53.4145 245.297 53.4229 245.247 53.4211H243.365V54.9267H245.247C245.297 54.9249 245.347 54.9333 245.393 54.9514C245.44 54.9695 245.482 54.997 245.518 55.0321C245.588 55.1029 245.623 55.1933 245.623 55.3032C245.625 55.3531 245.617 55.403 245.599 55.4496C245.581 55.4962 245.553 55.5386 245.518 55.5742C245.482 55.6093 245.44 55.6368 245.393 55.6549C245.347 55.6731 245.297 55.6814 245.247 55.6796H243.365V57.1853C244.18 57.2008 244.866 57.4739 245.424 58.0029C245.981 58.5324 246.294 59.2004 246.365 60.0084C246.396 60.824 246.166 61.5277 245.677 62.1199C245.186 62.7121 244.541 63.0665 243.741 63.1839C242.926 63.2707 242.208 63.0885 241.588 62.6373C240.969 62.1866 240.573 61.5608 240.401 60.7613C240.267 59.9612 240.406 59.2355 240.818 58.5851C241.23 57.9346 241.827 57.4995 242.612 57.2796ZM243.365 62.4552C244.008 62.4391 244.541 62.2198 244.965 61.7962C245.388 61.3731 245.607 60.8401 245.623 60.1966C245.607 59.5537 245.388 59.0202 244.964 58.5966C244.541 58.1735 244.008 57.9542 243.365 57.9381C242.722 57.9537 242.188 58.1735 241.765 58.5971C241.342 59.0202 241.122 59.5532 241.106 60.1966C241.122 60.8401 241.342 61.3731 241.765 61.7967C242.188 62.2198 242.722 62.4391 243.365 62.4552Z" fill="black" fill-opacity="0.85"/>
<rect x="236.274" y="76.3867" width="14.3196" height="14.4516" fill="white"/>
<path d="M242.612 83.0882V78.8532C242.612 78.8038 242.621 78.7549 242.641 78.7094C242.66 78.6639 242.688 78.6228 242.724 78.5887C242.758 78.553 242.799 78.5246 242.845 78.5054C242.89 78.4861 242.939 78.4764 242.988 78.4768H245.247C245.297 78.475 245.347 78.4833 245.393 78.5015C245.44 78.5196 245.482 78.5471 245.518 78.5822C245.588 78.653 245.623 78.7433 245.623 78.8532C245.625 78.9032 245.617 78.953 245.599 78.9997C245.581 79.0463 245.553 79.0887 245.518 79.1243C245.482 79.1594 245.44 79.1869 245.393 79.205C245.347 79.2231 245.297 79.2315 245.247 79.2297H243.365V80.7353H245.247C245.297 80.7335 245.347 80.7419 245.393 80.76C245.44 80.7781 245.482 80.8056 245.518 80.8407C245.588 80.9115 245.623 81.0018 245.623 81.1118C245.625 81.1617 245.617 81.2116 245.599 81.2582C245.581 81.3048 245.553 81.3472 245.518 81.3828C245.482 81.4179 245.44 81.4454 245.393 81.4635C245.347 81.4816 245.297 81.49 245.247 81.4882H243.365V82.9939C244.18 83.0094 244.866 83.2825 245.424 83.8114C245.981 84.3409 246.294 85.009 246.365 85.817C246.396 86.6326 246.166 87.3363 245.677 87.9285C245.186 88.5207 244.541 88.8751 243.741 88.9925C242.926 89.0793 242.208 88.8971 241.588 88.4459C240.969 87.9952 240.573 87.3694 240.401 86.5699C240.267 85.7698 240.406 85.0441 240.818 84.3936C241.23 83.7432 241.827 83.308 242.612 83.0882ZM243.365 88.2638C244.008 88.2477 244.541 88.0284 244.965 87.6048C245.388 87.1817 245.607 86.6487 245.623 86.0052C245.607 85.3623 245.388 84.8288 244.964 84.4052C244.541 83.9821 244.008 83.7628 243.365 83.7467C242.722 83.7623 242.188 83.9821 241.765 84.4057C241.342 84.8288 241.122 85.3618 241.106 86.0052C241.122 86.6487 241.342 87.1817 241.765 87.6053C242.188 88.0284 242.722 88.2477 243.365 88.2638Z" fill="black" fill-opacity="0.85"/>
<rect x="143.197" y="24.7734" width="14.3196" height="14.4516" fill="white"/>
<path d="M149.534 31.4749V27.24C149.534 27.1906 149.543 27.1416 149.563 27.0961C149.582 27.0506 149.61 27.0096 149.646 26.9755C149.68 26.9397 149.721 26.9113 149.767 26.8921C149.812 26.8728 149.861 26.8631 149.911 26.8635H152.169C152.219 26.8617 152.269 26.8701 152.316 26.8882C152.362 26.9063 152.405 26.9338 152.44 26.9689C152.51 27.0397 152.546 27.13 152.546 27.24C152.547 27.2899 152.539 27.3398 152.521 27.3864C152.503 27.433 152.475 27.4754 152.44 27.511C152.405 27.5461 152.362 27.5736 152.316 27.5917C152.269 27.6098 152.219 27.6182 152.169 27.6164H150.287V29.1221H152.169C152.219 29.1202 152.269 29.1286 152.316 29.1467C152.362 29.1648 152.405 29.1923 152.44 29.2275C152.51 29.2982 152.546 29.3886 152.546 29.4985C152.547 29.5485 152.539 29.5983 152.521 29.6449C152.503 29.6915 152.475 29.7339 152.44 29.7695C152.405 29.8046 152.362 29.8321 152.316 29.8502C152.269 29.8684 152.219 29.8768 152.169 29.8749H150.287V31.3806C151.103 31.3961 151.789 31.6692 152.346 32.1982C152.903 32.7277 153.216 33.3957 153.287 34.2037C153.318 35.0193 153.089 35.723 152.599 36.3152C152.108 36.9074 151.463 37.2618 150.663 37.3792C149.848 37.466 149.13 37.2839 148.51 36.8327C147.891 36.382 147.495 35.7561 147.323 34.9566C147.189 34.1566 147.328 33.4308 147.74 32.7804C148.152 32.1299 148.75 31.6948 149.534 31.4749ZM150.287 36.6505C150.93 36.6344 151.463 36.4151 151.887 35.9915C152.31 35.5684 152.529 35.0354 152.546 34.3919C152.529 33.749 152.31 33.2155 151.887 32.7919C151.463 32.3688 150.93 32.1495 150.287 32.1334C149.644 32.149 149.111 32.3688 148.687 32.7924C148.264 33.2155 148.045 33.7485 148.029 34.3919C148.044 35.0354 148.264 35.5684 148.687 35.992C149.111 36.4151 149.644 36.6344 150.287 36.6505Z" fill="black" fill-opacity="0.85"/>
<rect x="143.197" y="50.582" width="14.3196" height="14.4516" fill="white"/>
<path d="M149.534 57.2796V53.0446C149.534 52.9952 149.543 52.9463 149.563 52.9008C149.582 52.8553 149.61 52.8142 149.646 52.7801C149.68 52.7444 149.721 52.716 149.767 52.6968C149.812 52.6775 149.861 52.6678 149.911 52.6682H152.169C152.219 52.6664 152.269 52.6748 152.316 52.6929C152.362 52.711 152.405 52.7385 152.44 52.7736C152.51 52.8444 152.546 52.9347 152.546 53.0446C152.547 53.0946 152.539 53.1444 152.521 53.1911C152.503 53.2377 152.475 53.2801 152.44 53.3157C152.405 53.3508 152.362 53.3783 152.316 53.3964C152.269 53.4145 152.219 53.4229 152.169 53.4211H150.287V54.9267H152.169C152.219 54.9249 152.269 54.9333 152.316 54.9514C152.362 54.9695 152.405 54.997 152.44 55.0321C152.51 55.1029 152.546 55.1933 152.546 55.3032C152.547 55.3531 152.539 55.403 152.521 55.4496C152.503 55.4962 152.475 55.5386 152.44 55.5742C152.405 55.6093 152.362 55.6368 152.316 55.6549C152.269 55.6731 152.219 55.6814 152.169 55.6796H150.287V57.1853C151.103 57.2008 151.789 57.4739 152.346 58.0029C152.903 58.5324 153.216 59.2004 153.287 60.0084C153.318 60.824 153.089 61.5277 152.599 62.1199C152.108 62.7121 151.463 63.0665 150.663 63.1839C149.848 63.2707 149.13 63.0885 148.51 62.6373C147.891 62.1866 147.495 61.5608 147.323 60.7613C147.189 59.9612 147.328 59.2355 147.74 58.5851C148.152 57.9346 148.75 57.4995 149.534 57.2796ZM150.287 62.4552C150.93 62.4391 151.463 62.2198 151.887 61.7962C152.31 61.3731 152.529 60.8401 152.546 60.1966C152.529 59.5537 152.31 59.0202 151.887 58.5966C151.463 58.1735 150.93 57.9542 150.287 57.9381C149.644 57.9537 149.111 58.1735 148.687 58.5971C148.264 59.0202 148.045 59.5532 148.029 60.1966C148.044 60.8401 148.264 61.3731 148.687 61.7967C149.111 62.2198 149.644 62.4391 150.287 62.4552Z" fill="black" fill-opacity="0.85"/>
<rect x="143.197" y="76.3867" width="14.3196" height="14.4516" fill="white"/>
<path d="M149.534 83.0882V78.8532C149.534 78.8038 149.543 78.7549 149.563 78.7094C149.582 78.6639 149.61 78.6228 149.646 78.5887C149.68 78.553 149.721 78.5246 149.767 78.5054C149.812 78.4861 149.861 78.4764 149.911 78.4768H152.169C152.219 78.475 152.269 78.4833 152.316 78.5015C152.362 78.5196 152.405 78.5471 152.44 78.5822C152.51 78.653 152.546 78.7433 152.546 78.8532C152.547 78.9032 152.539 78.953 152.521 78.9997C152.503 79.0463 152.475 79.0887 152.44 79.1243C152.405 79.1594 152.362 79.1869 152.316 79.205C152.269 79.2231 152.219 79.2315 152.169 79.2297H150.287V80.7353H152.169C152.219 80.7335 152.269 80.7419 152.316 80.76C152.362 80.7781 152.405 80.8056 152.44 80.8407C152.51 80.9115 152.546 81.0018 152.546 81.1118C152.547 81.1617 152.539 81.2116 152.521 81.2582C152.503 81.3048 152.475 81.3472 152.44 81.3828C152.405 81.4179 152.362 81.4454 152.316 81.4635C152.269 81.4816 152.219 81.49 152.169 81.4882H150.287V82.9939C151.103 83.0094 151.789 83.2825 152.346 83.8114C152.903 84.3409 153.216 85.009 153.287 85.817C153.318 86.6326 153.089 87.3363 152.599 87.9285C152.108 88.5207 151.463 88.8751 150.663 88.9925C149.848 89.0793 149.13 88.8971 148.51 88.4459C147.891 87.9952 147.495 87.3694 147.323 86.5699C147.189 85.7698 147.328 85.0441 147.74 84.3936C148.152 83.7432 148.75 83.308 149.534 83.0882ZM150.287 88.2638C150.93 88.2477 151.463 88.0284 151.887 87.6048C152.31 87.1817 152.529 86.6487 152.546 86.0052C152.529 85.3623 152.31 84.8288 151.887 84.4052C151.463 83.9821 150.93 83.7628 150.287 83.7467C149.644 83.7623 149.111 83.9821 148.687 84.4057C148.264 84.8288 148.045 85.3618 148.029 86.0052C148.044 86.6487 148.264 87.1817 148.687 87.6053C149.111 88.0284 149.644 88.2477 150.287 88.2638Z" fill="black" fill-opacity="0.85"/>
<path d="M122.74 55.3125C124.212 55.3127 125.407 56.5061 125.407 57.9785C125.407 59.451 124.212 60.6453 122.74 60.6455C121.43 60.6453 120.342 59.6996 120.118 58.4541C106.096 58.3253 80.9742 58.1802 74.7965 58.4785C70.6996 58.6764 69.4073 59.5617 68.8317 60.6533C68.5199 61.2448 68.3848 61.9502 68.2291 62.8301C68.0771 63.6893 67.9087 64.6845 67.5016 65.7334C66.7831 67.5838 65.6887 68.6221 64.6383 69.1592C65.6886 69.6964 66.7832 70.7346 67.5016 72.585C67.9087 73.6338 68.0772 74.6291 68.2291 75.4883C68.3848 76.3681 68.5198 77.0736 68.8317 77.665C69.4074 78.7565 70.7001 79.642 74.7965 79.8398C80.9743 80.1381 106.096 79.9931 120.118 79.8643C120.342 78.6186 121.43 77.673 122.74 77.6729C124.212 77.6731 125.407 78.8672 125.407 80.3398C125.406 81.8121 124.212 83.0056 122.74 83.0059C121.447 83.0057 120.368 82.0849 120.125 80.8633C106.113 80.992 80.9592 81.1388 74.7477 80.8389C70.5934 80.6382 68.79 79.7299 67.9469 78.1318C67.5497 77.3785 67.3943 76.5131 67.2438 75.6621C67.0896 74.7903 66.9352 73.8908 66.569 72.9473C65.416 69.9776 63.2649 69.5709 62.4567 69.6748C62.3941 69.6828 62.3329 69.6772 62.275 69.6631H35.3483C35.1141 70.8967 34.0319 71.8301 32.7301 71.8301C31.2575 71.8299 30.0631 70.6357 30.0631 69.1631C30.0633 67.6906 31.2576 66.4963 32.7301 66.4961C34.0317 66.4961 35.1139 67.4297 35.3483 68.6631H62.2438C62.3106 68.6421 62.3827 68.6341 62.4567 68.6436C63.2649 68.7474 65.4161 68.3404 66.569 65.3711C66.9352 64.4275 67.0896 63.528 67.2438 62.6562C67.3943 61.8052 67.5497 60.94 67.9469 60.1865C68.7899 58.5882 70.593 57.6802 74.7477 57.4795C80.9591 57.1795 106.113 57.3263 120.125 57.4551C120.368 56.2333 121.447 55.3127 122.74 55.3125Z" fill="black" fill-opacity="0.45"/>
<path d="M322.875 32.082C321.402 32.082 320.208 33.2755 320.208 34.748C320.208 36.2207 321.402 37.415 322.875 37.415C324.185 37.4148 325.273 36.4692 325.497 35.2236C339.519 35.0948 364.641 34.9497 370.818 35.248C374.915 35.4459 376.208 36.3312 376.783 37.4229C377.095 38.0144 377.23 38.7197 377.386 39.5996C377.538 40.4589 377.706 41.4539 378.113 42.5029C378.832 44.3533 379.926 45.3906 380.977 45.9277C379.926 46.4647 378.832 47.503 378.113 49.3535C377.706 50.4024 377.538 51.3976 377.386 52.2568C377.23 53.1366 377.095 53.8421 376.783 54.4336C376.208 55.5252 374.915 56.4105 370.818 56.6084C364.641 56.9067 339.519 56.7617 325.497 56.6328C325.273 55.3875 324.185 54.4419 322.875 54.4414C321.402 54.4414 320.208 55.6359 320.208 57.1084C320.208 58.581 321.402 59.7744 322.875 59.7744C324.168 59.774 325.247 58.8535 325.49 57.6318C339.502 57.7606 364.656 57.9074 370.867 57.6074C375.022 57.4067 376.825 56.4988 377.668 54.9004C378.065 54.147 378.221 53.2816 378.371 52.4307C378.525 51.5589 378.68 50.6593 379.046 49.7158C380.199 46.7464 382.35 46.3393 383.158 46.4434C383.214 46.4505 383.269 46.4463 383.321 46.4355H410.265C410.499 47.669 411.581 48.6024 412.883 48.6025C414.356 48.6025 415.55 47.4083 415.55 45.9355C415.55 44.4628 414.356 43.2686 412.883 43.2686C411.581 43.2687 410.499 44.2021 410.265 45.4355H383.376C383.308 45.4133 383.234 45.4034 383.158 45.4131C382.35 45.5171 380.199 45.1105 379.046 42.1406C378.68 41.197 378.525 40.2977 378.371 39.4258C378.221 38.5747 378.065 37.7095 377.668 36.9561C376.825 35.3576 375.022 34.4497 370.867 34.249C364.656 33.9491 339.502 34.0958 325.49 34.2246C325.247 33.0028 324.168 32.0823 322.875 32.082Z" fill="black" fill-opacity="0.45"/>
<defs>
<clipPath id="clip0_429_13664">
<rect width="16.3653" height="16.3653" fill="white" transform="translate(4.09119 22.668)"/>
</clipPath>
<clipPath id="clip1_429_13664">
<rect width="16.3653" height="16.3653" fill="white" transform="translate(4.09119 60.0547)"/>
</clipPath>
<clipPath id="clip2_429_13664">
<rect width="16.4405" height="16.4405" fill="white" transform="translate(427.449 73.332)"/>
</clipPath>
<clipPath id="clip3_429_13664">
<rect width="16.4405" height="16.4405" fill="white" transform="translate(427.449 36.168)"/>
</clipPath>
</defs>
</svg>
