<svg width="408" height="96" viewBox="0 0 408 96" fill="none" xmlns="http://www.w3.org/2000/svg">
<rect width="22.1346" height="22.1344" rx="4" fill="#126EE3"/>
<g clip-path="url(#clip0_429_13144)">
<path d="M11.0734 3.6875C7.75045 3.69655 5.04883 6.34418 5.04883 9.59881C5.04883 11.5076 7.28604 14.1351 7.54125 14.4285C8.04211 15.0046 8.12242 15.1303 8.28443 15.3816C8.5025 15.7199 8.82974 16.2312 10.2124 17.9961C10.4374 18.2734 10.7456 18.4264 11.0734 18.4342C11.4011 18.4264 11.7094 18.2733 11.9344 17.9961C13.317 16.2313 13.6442 15.7199 13.8624 15.3816C14.0244 15.1304 14.1047 15.0046 14.6056 14.4285C14.8608 14.1351 17.098 11.5076 17.098 9.59881C17.098 6.34418 14.3963 3.69655 11.0734 3.6875ZM13.888 13.8319C13.3441 14.4578 13.2449 14.611 13.0651 14.89C12.8686 15.1947 12.5394 15.7042 11.1875 17.43C11.1519 17.4741 11.1122 17.487 11.0734 17.4984C11.0346 17.487 10.9948 17.4741 10.9592 17.43C9.6074 15.7042 9.27825 15.1947 9.08176 14.89C8.90191 14.611 8.8026 14.4578 8.25874 13.8319C7.16567 12.5756 5.98973 10.7154 5.98973 9.59881C5.98973 6.85144 8.2688 4.61669 11.0733 4.60766C13.8779 4.61669 16.1569 6.85144 16.1569 9.59881C16.157 10.7154 14.981 12.5756 13.888 13.8319ZM11.0734 7.37497C9.80037 7.37497 8.76839 8.40698 8.76839 9.67994C8.76839 10.953 9.8004 11.985 11.0734 11.985C12.3464 11.985 13.3784 10.953 13.3784 9.67994C13.3784 8.40695 12.3464 7.37497 11.0734 7.37497ZM11.0734 11.063C10.3095 11.063 9.69039 10.4437 9.69039 9.67991C9.69039 8.91618 10.3095 8.29694 11.0734 8.29694C11.8372 8.29694 12.4564 8.91618 12.4564 9.67991C12.4564 10.4437 11.8372 11.063 11.0734 11.063Z" fill="white"/>
</g>
<rect y="36.9297" width="22.1346" height="22.1344" rx="4" fill="#126EE3"/>
<g clip-path="url(#clip1_429_13144)">
<path d="M11.0734 40.6172C7.75045 40.6262 5.04883 43.2739 5.04883 46.5285C5.04883 48.4373 7.28604 51.0648 7.54125 51.3582C8.04211 51.9343 8.12242 52.06 8.28443 52.3113C8.5025 52.6496 8.82974 53.1609 10.2124 54.9258C10.4374 55.2031 10.7456 55.3561 11.0734 55.3639C11.4011 55.3561 11.7094 55.203 11.9344 54.9258C13.317 53.1609 13.6442 52.6496 13.8624 52.3113C14.0244 52.0601 14.1047 51.9343 14.6056 51.3582C14.8608 51.0648 17.098 48.4373 17.098 46.5285C17.098 43.2739 14.3963 40.6262 11.0734 40.6172ZM13.888 50.7616C13.3441 51.3875 13.2449 51.5407 13.0651 51.8197C12.8686 52.1244 12.5394 52.6339 11.1875 54.3597C11.1519 54.4038 11.1122 54.4167 11.0734 54.428C11.0346 54.4167 10.9948 54.4038 10.9592 54.3597C9.6074 52.6339 9.27825 52.1244 9.08176 51.8197C8.90191 51.5407 8.8026 51.3875 8.25874 50.7616C7.16567 49.5053 5.98973 47.6451 5.98973 46.5285C5.98973 43.7811 8.2688 41.5464 11.0733 41.5374C13.8779 41.5464 16.1569 43.7811 16.1569 46.5285C16.157 47.6451 14.981 49.5053 13.888 50.7616ZM11.0734 44.3047C9.80037 44.3047 8.76839 45.3367 8.76839 46.6096C8.76839 47.8827 9.8004 48.9147 11.0734 48.9147C12.3464 48.9147 13.3784 47.8827 13.3784 46.6096C13.3784 45.3366 12.3464 44.3047 11.0734 44.3047ZM11.0734 47.9927C10.3095 47.9927 9.69039 47.3734 9.69039 46.6096C9.69039 45.8459 10.3095 45.2266 11.0734 45.2266C11.8372 45.2266 12.4564 45.8459 12.4564 46.6096C12.4564 47.3734 11.8372 47.9927 11.0734 47.9927Z" fill="white"/>
</g>
<rect y="73.8672" width="22.1346" height="22.1344" rx="4" fill="#126EE3"/>
<g clip-path="url(#clip2_429_13144)">
<path d="M11.0734 77.5547C7.75045 77.5637 5.04883 80.2114 5.04883 83.466C5.04883 85.3748 7.28604 88.0023 7.54125 88.2957C8.04211 88.8718 8.12242 88.9975 8.28443 89.2488C8.5025 89.5871 8.82974 90.0984 10.2124 91.8633C10.4374 92.1406 10.7456 92.2936 11.0734 92.3014C11.4011 92.2936 11.7094 92.1405 11.9344 91.8633C13.317 90.0984 13.6442 89.5871 13.8624 89.2488C14.0244 88.9976 14.1047 88.8718 14.6056 88.2957C14.8608 88.0023 17.098 85.3748 17.098 83.466C17.098 80.2114 14.3963 77.5637 11.0734 77.5547ZM13.888 87.6991C13.3441 88.325 13.2449 88.4782 13.0651 88.7572C12.8686 89.0619 12.5394 89.5714 11.1875 91.2972C11.1519 91.3413 11.1122 91.3542 11.0734 91.3655C11.0346 91.3542 10.9948 91.3413 10.9592 91.2972C9.6074 89.5714 9.27825 89.0619 9.08176 88.7572C8.90191 88.4782 8.8026 88.325 8.25874 87.6991C7.16567 86.4428 5.98973 84.5826 5.98973 83.466C5.98973 80.7186 8.2688 78.4839 11.0733 78.4749C13.8779 78.4839 16.1569 80.7186 16.1569 83.466C16.157 84.5826 14.981 86.4428 13.888 87.6991ZM11.0734 81.2422C9.80037 81.2422 8.76839 82.2742 8.76839 83.5471C8.76839 84.8202 9.8004 85.8522 11.0734 85.8522C12.3464 85.8522 13.3784 84.8202 13.3784 83.5471C13.3784 82.2741 12.3464 81.2422 11.0734 81.2422ZM11.0734 84.9302C10.3095 84.9302 9.69039 84.3109 9.69039 83.5471C9.69039 82.7834 10.3095 82.1641 11.0734 82.1641C11.8372 82.1641 12.4564 82.7834 12.4564 83.5471C12.4564 84.3109 11.8372 84.9302 11.0734 84.9302Z" fill="white"/>
</g>
<rect x="385.148" y="0.0078125" width="22.1346" height="22.1344" rx="4" fill="#3B4573"/>
<g clip-path="url(#clip3_429_13144)">
<path d="M396.491 12.4611L396.584 12.0922C396.584 12 396.584 12 396.491 12H395.938C395.846 12 395.846 12 395.846 12.0922L395.938 12.4611V12.6456L395.292 16.7036C395.292 16.7958 395.292 16.888 395.385 16.9802L396.03 17.4414C396.123 17.5336 396.215 17.5336 396.307 17.4414L396.953 16.9802C397.045 16.888 397.137 16.7958 397.137 16.7036L396.491 12.6456V12.4611Z" fill="white"/>
<path d="M398.244 10.9853C399.443 10.2475 400.365 8.95634 400.365 7.38849C400.365 5.08282 398.521 3.23828 396.215 3.23828C393.909 3.23828 392.065 5.08282 392.065 7.38849C392.065 8.95634 392.895 10.2475 394.186 10.9853C391.604 11.8154 389.759 14.2133 389.759 17.0723C389.759 17.349 389.943 17.5334 390.22 17.5334C390.497 17.5334 390.681 17.349 390.681 17.0723C390.681 14.0288 393.171 11.5387 396.215 11.5387C399.258 11.5387 401.749 14.0288 401.749 17.0723C401.749 17.349 401.933 17.5334 402.21 17.5334C402.486 17.5334 402.671 17.349 402.671 17.0723C402.671 14.2133 400.826 11.8154 398.244 10.9853ZM392.987 7.38849C392.987 5.63618 394.463 4.16055 396.215 4.16055C397.967 4.16055 399.443 5.63618 399.443 7.38849C399.443 9.1408 397.967 10.6164 396.215 10.6164C394.463 10.6164 392.987 9.1408 392.987 7.38849Z" fill="white"/>
</g>
<rect x="385.148" y="36.9297" width="22.1346" height="22.1344" rx="4" fill="#3B4573"/>
<g clip-path="url(#clip4_429_13144)">
<path d="M396.491 49.383L396.584 49.0141C396.584 48.9219 396.584 48.9219 396.491 48.9219H395.938C395.846 48.9219 395.846 48.9219 395.846 49.0141L395.938 49.383V49.5675L395.292 53.6254C395.292 53.7177 395.292 53.8099 395.385 53.9021L396.03 54.3633C396.123 54.4555 396.215 54.4555 396.307 54.3633L396.953 53.9021C397.045 53.8099 397.137 53.7177 397.137 53.6254L396.491 49.5675V49.383Z" fill="white"/>
<path d="M398.244 47.9072C399.443 47.1694 400.365 45.8782 400.365 44.3104C400.365 42.0047 398.521 40.1602 396.215 40.1602C393.909 40.1602 392.065 42.0047 392.065 44.3104C392.065 45.8782 392.895 47.1694 394.186 47.9072C391.604 48.7372 389.759 51.1351 389.759 53.9942C389.759 54.2709 389.943 54.4553 390.22 54.4553C390.497 54.4553 390.681 54.2709 390.681 53.9942C390.681 50.9507 393.171 48.4606 396.215 48.4606C399.258 48.4606 401.749 50.9507 401.749 53.9942C401.749 54.2709 401.933 54.4553 402.21 54.4553C402.486 54.4553 402.671 54.2709 402.671 53.9942C402.671 51.1351 400.826 48.7372 398.244 47.9072ZM392.987 44.3104C392.987 42.5581 394.463 41.0824 396.215 41.0824C397.967 41.0824 399.443 42.5581 399.443 44.3104C399.443 46.0627 397.967 47.5383 396.215 47.5383C394.463 47.5383 392.987 46.0627 392.987 44.3104Z" fill="white"/>
</g>
<path d="M26.8199 11.0856C26.8252 12.5583 28.0233 13.7506 29.4961 13.7487C30.9688 13.7467 32.1585 12.5512 32.1532 11.0785C32.148 9.60572 30.9498 8.41341 29.4771 8.41538C28.0043 8.41735 26.8147 9.61285 26.8199 11.0856ZM372.114 10.624C372.119 12.0968 373.317 13.2891 374.79 13.2871C376.262 13.2852 377.452 12.0897 377.447 10.6169C377.442 9.14417 376.243 7.95187 374.771 7.95384C373.298 7.9558 372.108 9.1513 372.114 10.624ZM29.4866 11.082L29.4884 11.582L374.782 11.1205L374.78 10.6205L374.778 10.1205L29.4848 10.582L29.4866 11.082Z" fill="black" fill-opacity="0.85"/>
<path d="M26.8199 48C26.8199 49.4728 28.0138 50.6667 29.4866 50.6667C30.9593 50.6667 32.1532 49.4728 32.1532 48C32.1532 46.5272 30.9593 45.3333 29.4866 45.3333C28.0138 45.3333 26.8199 46.5272 26.8199 48ZM375.129 48C375.129 49.4728 376.323 50.6667 377.796 50.6667C379.269 50.6667 380.462 49.4728 380.462 48C380.462 46.5272 379.269 45.3333 377.796 45.3333C376.323 45.3333 375.129 46.5272 375.129 48ZM29.4866 48V48.5H377.796V48V47.5H29.4866V48Z" fill="black" fill-opacity="0.85"/>
<path d="M26.8199 85.8521C26.8199 87.3249 28.0138 88.5188 29.4866 88.5188C30.9593 88.5188 32.1532 87.3249 32.1532 85.8521C32.1532 84.3794 30.9593 83.1855 29.4866 83.1855C28.0138 83.1855 26.8199 84.3794 26.8199 85.8521ZM204.563 85.8521V86.3521H205.063V85.8521H204.563ZM205.063 49.8516C205.063 49.5754 204.839 49.3516 204.563 49.3516C204.287 49.3516 204.063 49.5754 204.063 49.8516H204.563H205.063ZM29.4866 85.8521V86.3521H204.563V85.8521V85.3521H29.4866V85.8521ZM204.563 85.8521H205.063V49.8516H204.563H204.063V85.8521H204.563Z" fill="black" fill-opacity="0.85"/>
<defs>
<clipPath id="clip0_429_13144">
<rect width="14.7564" height="14.7563" fill="white" transform="translate(3.68909 3.6875)"/>
</clipPath>
<clipPath id="clip1_429_13144">
<rect width="14.7564" height="14.7563" fill="white" transform="translate(3.68909 40.6172)"/>
</clipPath>
<clipPath id="clip2_429_13144">
<rect width="14.7564" height="14.7563" fill="white" transform="translate(3.68909 77.5547)"/>
</clipPath>
<clipPath id="clip3_429_13144">
<rect width="14.7564" height="14.7563" fill="white" transform="translate(388.837 2.77734)"/>
</clipPath>
<clipPath id="clip4_429_13144">
<rect width="14.7564" height="14.7563" fill="white" transform="translate(388.837 39.6992)"/>
</clipPath>
</defs>
</svg>
