<svg width="200" height="200" viewBox="0 0 200 200" fill="none" xmlns="http://www.w3.org/2000/svg">
<path d="M195.322 51.0828C195.322 49.5402 194.412 47.9976 192.852 47.2857L102.404 0.533966C100.975 -0.177989 99.1553 -0.177989 97.7258 0.533966L7.27745 47.167C5.718 47.9976 4.80832 49.4215 4.80832 50.9641C4.80832 52.5067 5.718 54.0492 7.27745 54.7612L97.7258 100.92C98.5055 101.276 99.2852 101.513 100.065 101.513C100.845 101.513 101.624 101.394 102.404 100.92L192.852 54.7612C194.412 54.0492 195.322 52.6253 195.322 51.0828V51.0828ZM100.065 86.2059L28.46 50.9641L100.065 15.2477L170.5 50.9641L100.065 86.2059ZM87.9792 113.497L7.01754 74.34C5.58804 73.628 3.76868 73.628 2.33918 74.4586C0.909681 75.2892 0 76.7131 0 78.137V152.18C0 153.723 0.909681 155.147 2.33918 155.977L83.3008 199.407C84.0806 199.763 84.8603 200 85.77 200C86.5497 200 87.4594 199.763 88.1092 199.407C89.5387 198.576 90.4483 197.152 90.4483 195.61V117.295C90.5783 115.752 89.5387 114.328 87.9792 113.497V113.497ZM74.5939 177.336L16.1144 147.315V93.8001L74.5939 122.397V177.336ZM112.151 113.497C110.591 114.209 109.552 115.752 109.552 117.295V195.61C109.552 197.152 110.461 198.576 111.891 199.407C112.671 199.763 113.45 200 114.23 200C115.01 200 115.919 199.763 116.699 199.407L197.661 155.977C199.09 155.147 200 153.723 200 152.18V78.2557C200 76.7131 199.09 75.2892 197.661 74.5773C196.231 73.8653 194.412 73.7467 192.982 74.4586L112.151 113.497V113.497ZM125.536 122.397L184.016 93.8001V147.315L125.536 177.336V122.397Z" fill="black"/>
</svg>
