<?xml version="1.0" encoding="utf-8"?>
<!-- Generator: Adobe Illustrator 22.0.0, SVG Export Plug-In . SVG Version: 6.00 Build 0)  -->
<svg version="1.1" id="其它_1_" xmlns="http://www.w3.org/2000/svg" xmlns:xlink="http://www.w3.org/1999/xlink" x="0px" y="0px"
	 viewBox="0 0 200 200" enable-background="new 0 0 200 200" xml:space="preserve">
<g>
	<path fill="#505050" d="M68.316,87.374H28.434c-10.713,0-19.429-8.716-19.429-19.429V28.063c0-10.713,8.716-19.429,19.429-19.429
		h39.882c10.713,0,19.429,8.716,19.429,19.429v39.882C87.745,78.658,79.029,87.374,68.316,87.374z M28.434,20.292
		c-4.285,0-7.771,3.486-7.771,7.771v39.882c0,4.285,3.486,7.771,7.771,7.771h39.882c4.285,0,7.771-3.486,7.771-7.771V28.063
		c0-4.285-3.486-7.771-7.771-7.771C68.316,20.292,28.434,20.292,28.434,20.292z"/>
</g>
<g>
	<path fill="#505050" d="M170.905,87.374h-39.882c-10.713,0-19.429-8.716-19.429-19.429V28.063c0-10.713,8.716-19.429,19.429-19.429
		h39.882c10.713,0,19.429,8.716,19.429,19.429v39.882C190.333,78.658,181.618,87.374,170.905,87.374z M131.023,20.292
		c-4.285,0-7.771,3.486-7.771,7.771v39.882c0,4.285,3.486,7.771,7.771,7.771h39.882c4.285,0,7.771-3.486,7.771-7.771V28.063
		c0-4.285-3.486-7.771-7.771-7.771C170.905,20.292,131.023,20.292,131.023,20.292z"/>
</g>
<g>
	<path fill="#505050" d="M68.316,190.985H28.434c-10.713,0-19.429-8.716-19.429-19.429v-39.883c0-10.713,8.716-19.429,19.429-19.429
		h39.882c10.713,0,19.429,8.716,19.429,19.429v39.883C87.745,182.27,79.029,190.985,68.316,190.985z M28.434,123.902
		c-4.285,0-7.771,3.486-7.771,7.771v39.883c0,4.285,3.486,7.771,7.771,7.771h39.882c4.285,0,7.771-3.486,7.771-7.771v-39.883
		c0-4.285-3.486-7.771-7.771-7.771C68.316,123.902,28.434,123.902,28.434,123.902z"/>
</g>
<g>
	<path fill="#505050" d="M170.905,190.985h-39.882c-10.713,0-19.429-8.716-19.429-19.429v-39.883
		c0-10.713,8.716-19.429,19.429-19.429h39.882c10.713,0,19.429,8.716,19.429,19.429v39.883
		C190.333,182.27,181.618,190.985,170.905,190.985z M131.023,123.902c-4.285,0-7.771,3.486-7.771,7.771v39.883
		c0,4.285,3.486,7.771,7.771,7.771h39.882c4.285,0,7.771-3.486,7.771-7.771v-39.883c0-4.285-3.486-7.771-7.771-7.771
		C170.905,123.902,131.023,123.902,131.023,123.902z"/>
</g>
</svg>
