<!-- Generator: Adobe Illustrator 23.0.1, SVG Export Plug-In . SVG Version: 6.00 Build 0)  -->
<svg version="1.1" id="&#x56FE;&#x5C42;_1" xmlns="http://www.w3.org/2000/svg" xmlns:xlink="http://www.w3.org/1999/xlink"
    x="0px" y="0px" viewBox="0 0 96 96" style="enable-background:new 0 0 96 96;" xml:space="preserve">
    <path style="fill:#505050;" d="M41.258,4.582H27.336v21.946l13.922-0.069V4.582L41.258,4.582
	L41.258,4.582z M37.281,20.493h-5.967v-9.944h5.967V20.493L37.281,20.493z M71.092,4.582H57.17v21.877l13.922,0.068V4.582
	L71.092,4.582z M67.113,20.493h-5.967v-9.944h5.967V20.493L67.113,20.493z M77.059,12.537v5.967h7.955v65.633H13.415V18.504h7.955
	v-5.967H7.448v77.565H90.98V12.537H77.059L77.059,12.537z M53.191,12.537h-7.956v5.967h7.956V12.537L53.191,12.537z M71.092,42.371
	H27.336v5.966h43.755V42.371L71.092,42.371z M27.336,62.259h43.755v-5.967H27.336V62.259L27.336,62.259z" />
</svg>
