<svg xmlns="http://www.w3.org/2000/svg" xmlns:xlink="http://www.w3.org/1999/xlink" version="1.1" id="编辑_1_" x="0px" y="0px" viewBox="0 0 200 200" style="enable-background:new 0 0 200 200;" xml:space="preserve">
<style type="text/css">
	.st0{fill:#505050;}
</style>
<g>
	<path class="st0" d="M197,51.9h-12V40.8c0-10-8.1-18.2-18.2-18.2H33.7c-10,0-18.2,8.1-18.2,18.2V52h-12V40.8   c0-16.6,13.5-30.2,30.2-30.2h133.2c16.6,0,30.2,13.5,30.2,30.2L197,51.9L197,51.9z"/>
</g>
<g>
	<path class="st0" d="M166.8,192.9H33.7c-16.6,0-30.2-13.5-30.2-30.2v-11.2h12v11.2c0,10,8.1,18.2,18.2,18.2h133.2   c10,0,18.2-8.1,18.2-18.2v-11.2h12v11.2C197,179.4,183.5,192.9,166.8,192.9z"/>
</g>
<g>
	<path class="st0" d="M40.4,119.6h11.8V84.8h-10V78c5.5-1,9.3-2.5,12.8-4.6h8.1v46.2h10.3v8.8h-33V119.6z"/>
	<path class="st0" d="M81.3,122.2C96.2,108.8,105,98.5,105,90c0-5.6-3-8.9-8.3-8.9c-4,0-7.4,2.6-10.1,5.7l-5.9-5.9   c5.1-5.4,10-8.3,17.5-8.3c10.4,0,17.3,6.7,17.3,16.9c0,10-8.3,20.7-18.3,30.5c2.8-0.3,6.4-0.6,8.9-0.6h12v9.2H81.3V122.2z"/>
	<path class="st0" d="M123.8,121.9l5.1-6.9c3.3,3.2,7.3,5.7,12.3,5.7c5.6,0,9.4-2.8,9.4-7.7c0-5.4-3.2-8.8-15.2-8.8v-7.9   c10.1,0,13.4-3.5,13.4-8.4c0-4.3-2.7-6.8-7.4-6.9c-3.9,0.1-7.1,1.9-10.4,4.9l-5.6-6.7c4.8-4.2,10-6.8,16.5-6.8   c10.6,0,17.8,5.2,17.8,14.6c0,5.9-3.3,10.3-9.2,12.6v0.4c6.2,1.7,11,6.3,11,13.5c0,10.1-8.8,16-19.3,16   C133.5,129.5,127.6,126.3,123.8,121.9z"/>
</g>
</svg>
