<?xml version="1.0" encoding="UTF-8"?>
<svg width="12px" height="12px" viewBox="0 0 12 12" version="1.1" xmlns="http://www.w3.org/2000/svg" xmlns:xlink="http://www.w3.org/1999/xlink">
    <!-- Generator: Sketch 60 (88103) - https://sketch.com -->
    <title>编目</title>
    <desc>Created with Sketch.</desc>
    <g id="页面-2" stroke="none" stroke-width="1" fill="none" fill-rule="evenodd">
        <g id="图片-智能搜索备份-3" transform="translate(-40.000000, -869.000000)" fill="#000000" fill-rule="nonzero">
            <g id="编组-62备份-6-copy" transform="translate(32.000000, 597.000000)">
                <g id="编组-36">
                    <g id="编目" transform="translate(8.000000, 268.000000)">
                        <g transform="translate(0.000000, 4.000000)">
                            <rect id="矩形" opacity="0" x="0" y="0" width="12" height="12"></rect>
                            <path d="M7.29,6.36 L3.21,6.36 C3.11058875,6.36 3.03,6.27941125 3.03,6.18 L3.03,5.82 C3.03,5.72058875 3.11058875,5.64 3.21,5.64 L7.29,5.64 C7.38941125,5.64 7.47,5.72058875 7.47,5.82 L7.47,6.18 C7.47,6.27941125 7.38941125,6.36 7.29,6.36 Z M7.29,3.96 L3.21,3.96 C3.11058875,3.96 3.03,3.87941125 3.03,3.78 L3.03,3.42 C3.03,3.32058875 3.11058875,3.24 3.21,3.24 L7.29,3.24 C7.38941125,3.24 7.47,3.32058875 7.47,3.42 L7.47,3.78 C7.47,3.87941125 7.38941125,3.96 7.29,3.96 L7.29,3.96 Z" id="形状" fill-opacity="0.45"></path>
                            <path d="M9.72,9.84 L9.72,10.48632 C9.72,10.84674 9.4485,11.13996 9.11478,11.13996 L1.53522,11.13996 C1.2015,11.13996 0.93,10.84674 0.93,10.48632 L0.93,1.51362 C0.93,1.1532 1.2015,0.85998 1.53522,0.85998 L9.11478,0.85998 C9.27204,0.85998 9.42156,0.92604 9.5358,1.04604 C9.6546,1.17084 9.72,1.33692 9.72,1.51368 L9.72,3.9 L10.44,3.9 L10.44,1.51374 C10.44,1.15122 10.3041,0.8088 10.0572,0.54954 C9.8058,0.28542 9.47106,0.13998 9.11478,0.13998 L1.53522,0.13998 C0.80448,0.13998 0.21,0.75618 0.21,1.51362 L0.21,10.48632 C0.21,11.24376 0.80448,11.85996 1.53522,11.85996 L9.11478,11.85996 C9.84552,11.85996 10.44,11.24376 10.44,10.48632 L10.44,9.84 L9.72,9.84 Z" id="路径" fill-opacity="0.45"></path>
                            <path d="M10.425,5.53332 L11.1165,6.31476 C11.1106877,6.32053642 11.104705,6.32613889 11.09856,6.33156 L10.62798,6.7473 C10.6135403,6.76002539 10.5982662,6.77177157 10.58226,6.78246 L10.54794,6.80556 L10.5171,6.8331 L7.19214,9.804 L6.32694,9.87882 L6.51732,9.00846 L9.8286,6.07668 L9.86262,6.04656 L9.89172,6.0117 C9.90564519,5.99485365 9.92082879,5.97908838 9.93714,5.96454 L10.4061,5.54916 C10.41246,5.54352 10.41882,5.53824 10.425,5.53332 M10.50516,4.87992 C10.3551,4.87992 10.16952,4.95714 10.00806,5.10018 L9.53922,5.51544 C9.50029187,5.54997685 9.4640473,5.58742488 9.4308,5.62746 L5.973,8.68902 L5.56656,10.5468 L7.44288,10.38456 L10.91682,7.28046 C10.9552659,7.25470131 10.9919292,7.22637693 11.02656,7.19568 L11.49576,6.78114 C11.754,6.55188 11.8533,6.24066 11.71488,6.08556 L10.72386,4.9656 C10.67232,4.90764 10.5951,4.87992 10.50516,4.87992 L10.50516,4.87992 Z" id="形状" fill-opacity="0.45"></path>
                        </g>
                    </g>
                </g>
            </g>
        </g>
    </g>
</svg>
