<?xml version="1.0" encoding="UTF-8"?>
<svg width="16px" height="14px" viewBox="0 0 16 14" version="1.1" xmlns="http://www.w3.org/2000/svg" xmlns:xlink="http://www.w3.org/1999/xlink">
    <!-- Generator: Sketch 60 (88103) - https://sketch.com -->
    <title>形状@3x</title>
    <desc>Created with Sketch.</desc>
    <g id="客户端" stroke="none" stroke-width="1" fill="none" fill-rule="evenodd">
        <g id="触发搜索" transform="translate(-733.000000, -80.000000)" fill="#000000" fill-rule="nonzero">
            <g id="编组-2备份-4" transform="translate(18.000000, 13.000000)">
                <g id="搜索备份" transform="translate(122.000000, 56.000000)">
                    <g id="Group-16">
                        <g id="编组" transform="translate(593.000000, 11.000000)">
                            <path d="M0.70125,1.013125 L14.964375,1.013125 C15.34125,1.013125 15.64875,0.789837329 15.64875,0.513125 C15.64875,0.236412671 15.343125,0.013125 14.964375,0.013125 L0.70125,0.013125 C0.324375,0.013125 0.016875,0.236412671 0.016875,0.513125 C0.016875,0.789837329 0.324375,1.013125 0.70125,1.013125 Z M8.57142857,4 L0.428571429,4 C0.105535714,4 2.48637631e-13,4.12125 2.48637631e-13,4.5 C2.48637631e-13,4.876875 0.103928571,5 0.428571429,5 L8.57142857,5 C8.89446429,5 9,4.87875 9,4.5 C9,4.123125 8.89607143,4 8.57142857,4 Z M8.57142857,8 L0.428571429,8 C0.105535714,8 2.48637631e-13,8.22328767 2.48637631e-13,8.5 C2.48637631e-13,8.77671233 0.103928571,9 0.428571429,9 L8.57142857,9 C8.89446429,9 9,8.77671233 9,8.5 C9,8.22328767 8.89607143,8 8.57142857,8 Z M15,12 L0.5,12 C0.123125,12 2.48637631e-13,12.12125 2.48637631e-13,12.5 C2.48637631e-13,12.87875 0.12125,13 0.5,13 L14.964375,13.006875 C15.34125,13.006875 15.5,12.87875 15.5,12.5 C15.5,12.12125 15.37875,12 15,12 Z M10.3430535,5.36599795 L12.7543035,8.59662295 C12.8911785,8.78037295 13.1443035,8.77849795 13.2793035,8.59474795 L15.6549285,5.36412295 C15.8386785,5.11474795 15.6793035,4.73786605 15.3924285,4.73786605 L10.6055535,4.73786605 C10.3149285,4.73599795 10.1555535,5.11662295 10.3430535,5.36599795 Z" id="形状"></path>
                        </g>
                    </g>
                </g>
            </g>
        </g>
    </g>
</svg>