<svg width="16" height="16" viewBox="0 0 16 16" fill="none"
    xmlns="http://www.w3.org/2000/svg">
    <path d="M1.79688 14.9844H14.2031C14.4103 14.9844 14.609 14.9021 14.7556 14.7556C14.9021 14.609 14.9844 14.4103 14.9844 14.2031V1.79688C14.9844 1.58967 14.9021 1.39096 14.7556 1.24445C14.609 1.09794 14.4103 1.01562 14.2031 1.01562H1.79688C1.58967 1.01563 1.39096 1.09794 1.24445 1.24445C1.09794 1.39096 1.01563 1.58967 1.01562 1.79688V14.2031C1.01563 14.4103 1.09794 14.609 1.24445 14.7556C1.39096 14.9021 1.58967 14.9844 1.79688 14.9844V14.9844ZM1.95312 2.1875C1.95312 2.12534 1.97782 2.06573 2.02177 2.02177C2.06573 1.97782 2.12534 1.95312 2.1875 1.95312H13.8125C13.8747 1.95312 13.9343 1.97782 13.9782 2.02177C14.0222 2.06573 14.0469 2.12534 14.0469 2.1875V13.8125C14.0469 13.8747 14.0222 13.9343 13.9782 13.9782C13.9343 14.0222 13.8747 14.0469 13.8125 14.0469H2.1875C2.12534 14.0469 2.06573 14.0222 2.02177 13.9782C1.97782 13.9343 1.95312 13.8747 1.95312 13.8125V2.1875ZM7.06262 3.375C7.06262 3.25068 7.01324 3.13145 6.92533 3.04354C6.83742 2.95564 6.7182 2.90625 6.59387 2.90625H3.37512C3.2508 2.90625 3.13158 2.95564 3.04367 3.04354C2.95576 3.13145 2.90637 3.25068 2.90637 3.375V6.59375C2.90637 6.71807 2.95576 6.8373 3.04367 6.92521C3.13158 7.01311 3.2508 7.0625 3.37512 7.0625C3.49945 7.0625 3.61867 7.01311 3.70658 6.92521C3.79449 6.8373 3.84387 6.71807 3.84387 6.59375V3.84375H6.59387C6.7182 3.84375 6.83742 3.79436 6.92533 3.70646C7.01324 3.61855 7.06262 3.49932 7.06262 3.375ZM8.93738 12.7812C8.93738 12.9056 8.98676 13.0248 9.07467 13.1127C9.16258 13.2006 9.2818 13.25 9.40613 13.25H12.6249C12.7492 13.25 12.8684 13.2006 12.9563 13.1127C13.0442 13.0248 13.0936 12.9056 13.0936 12.7812V9.5625C13.0936 9.43818 13.0442 9.31895 12.9563 9.23104C12.8684 9.14314 12.7492 9.09375 12.6249 9.09375C12.5006 9.09375 12.3813 9.14314 12.2934 9.23104C12.2055 9.31895 12.1561 9.43818 12.1561 9.5625V12.3125H9.40613C9.2818 12.3125 9.16258 12.3619 9.07467 12.4498C8.98676 12.5377 8.93738 12.6569 8.93738 12.7812ZM8.93738 3.375C8.93738 3.25068 8.98676 3.13145 9.07467 3.04354C9.16258 2.95564 9.2818 2.90625 9.40613 2.90625H12.6249C12.7492 2.90625 12.8684 2.95564 12.9563 3.04354C13.0442 3.13145 13.0936 3.25068 13.0936 3.375V6.59375C13.0936 6.71807 13.0442 6.8373 12.9563 6.92521C12.8684 7.01311 12.7492 7.0625 12.6249 7.0625C12.5006 7.0625 12.3813 7.01311 12.2934 6.92521C12.2055 6.8373 12.1561 6.71807 12.1561 6.59375V3.84375H9.40613C9.2818 3.84375 9.16258 3.79436 9.07467 3.70646C8.98676 3.61855 8.93738 3.49932 8.93738 3.375V3.375ZM7.06262 12.7812C7.06262 12.9056 7.01324 13.0248 6.92533 13.1127C6.83742 13.2006 6.7182 13.25 6.59387 13.25H3.37512C3.2508 13.25 3.13158 13.2006 3.04367 13.1127C2.95576 13.0248 2.90637 12.9056 2.90637 12.7812V9.5625C2.90637 9.43818 2.95576 9.31895 3.04367 9.23104C3.13158 9.14314 3.2508 9.09375 3.37512 9.09375C3.49945 9.09375 3.61867 9.14314 3.70658 9.23104C3.79449 9.31895 3.84387 9.43818 3.84387 9.5625V12.3125H6.59387C6.7182 12.3125 6.83742 12.3619 6.92533 12.4498C7.01324 12.5377 7.06262 12.6569 7.06262 12.7812V12.7812Z" fill="#333333" />
</svg>