<?xml version="1.0" encoding="utf-8"?>
<!-- Generator: Adobe Illustrator 22.0.0, SVG Export Plug-In . SVG Version: 6.00 Build 0)  -->
<svg version="1.1" id="图层_1" xmlns="http://www.w3.org/2000/svg" xmlns:xlink="http://www.w3.org/1999/xlink" x="0px" y="0px"
	 viewBox="0 0 24 24" style="enable-background:new 0 0 24 24;" xml:space="preserve">
<style type="text/css">
	.st0{fill:#5B5D66;}
</style>
<title>联系人-线性</title>
<desc>Created with Sketch.</desc>
<g id="联系人-线性">
	<g id="Rectangle-19-Copy">
		<path class="st0" d="M20,23h-3V1h3c1.1,0,2,0.9,2,2v18C22,22.1,21.1,23,20,23z M18.2,21.8H20c0.4,0,0.8-0.4,0.8-0.8V3
			c0-0.4-0.4-0.8-0.8-0.8h-1.8V21.8z"/>
	</g>
	<g>
		<path class="st0" d="M3,9.9v4.1C3.2,14,3.3,14,3.5,14h0.7v-4H3.5C3.3,10,3.2,10,3,9.9z"/>
		<path class="st0" d="M5,1C3.9,1,3,1.9,3,3v2.1C3.2,5,3.3,5,3.5,5h0.7V3c0-0.4,0.4-0.8,0.8-0.8h8.8v19.6H5c-0.4,0-0.8-0.4-0.8-0.8
			v-2H3.5c-0.2,0-0.3,0-0.5-0.1V21c0,1.1,0.9,2,2,2h10V1H5z"/>
	</g>
	<g id="Group_1_" transform="translate(1.000000, 7.000000)">
		<path id="Rectangle-20_1_" class="st0" d="M0.6,0h5.8C6.7,0,7,0.3,7,0.6l0,0c0,0.3-0.3,0.6-0.6,0.6H0.6C0.3,1.2,0,0.9,0,0.6l0,0
			C0,0.3,0.3,0,0.6,0z"/>
		<path id="Rectangle-20-Copy_1_" class="st0" d="M0.6,9h5.8C6.7,9,7,9.3,7,9.6v0c0,0.3-0.3,0.6-0.6,0.6H0.6C0.3,10.2,0,9.9,0,9.6v0
			C0,9.3,0.3,9,0.6,9z"/>
	</g>
</g>
</svg>
