<svg xmlns="http://www.w3.org/2000/svg" id="图层_1" x="0" y="0" version="1.1" viewBox="0 0 200 200" xml:space="preserve">
  <style>
    .st0{fill:#333}
  </style>
  <path d="M181.6 19.7c-18.2-18.2-47.8-18.2-66.1 0L96.3 38.8l-.1.1c-2.4 2.4-2.4 6.3 0 8.8 2.4 2.4 6.3 2.4 8.8 0l.1-.1 19.3-19.3c13.3-13.3 35.2-13.3 48.6 0 13.3 13.3 13.3 35.2 0 48.6l-34 34c-13.3 13.3-35.2 13.3-48.6 0-2.4-2.4-6.3-2.4-8.8 0-2.4 2.4-2.4 6.3 0 8.8 18.2 18.2 47.8 18.2 66.1 0l34-34c18.1-18.2 18.1-47.8-.1-66z" class="st0"/>
  <path d="M18.4 180.3c18.2 18.2 47.8 18.2 66.1 0l19.3-19.3.1-.1c2.4-2.4 2.4-6.3 0-8.8-2.4-2.4-6.3-2.4-8.8 0l-.1.1-19.3 19.3c-13.3 13.3-35.2 13.3-48.6 0-13.3-13.3-13.3-35.2 0-48.6l34-34c13.3-13.3 35.2-13.3 48.6 0 2.4 2.4 6.3 2.4 8.8 0 2.4-2.4 2.4-6.3 0-8.8-18.3-18-47.9-18-66.1.2l-34 34c-18.2 18.1-18.2 47.8 0 66z" class="st0"/>
</svg>
