<svg xmlns="http://www.w3.org/2000/svg" viewBox="0 0 200 200">
  <path d="M115.3 5.3H30C16 5.3 4.5 16.8 4.5 30.9v81.2c0 14.1 11.5 25.5 25.5 25.5h11.5v-12H30c-7.5 0-13.5-6.1-13.5-13.5V30.9c0-7.5 6.1-13.5 13.5-13.5h85.2c7.5 0 13.5 6.1 13.5 13.5v81.2c0 7.5-6.1 13.5-13.5 13.5H99.5v12h15.8c14.1 0 25.5-11.5 25.5-25.5V30.9c0-14.1-11.5-25.6-25.5-25.6z"/>
  <path d="M84.8 194.4H170c14.1 0 25.5-11.5 25.5-25.5V87.7c0-14.1-11.5-25.5-25.5-25.5h-11.5v12H170c7.5 0 13.5 6.1 13.5 13.5v81.2c0 7.5-6.1 13.5-13.5 13.5H84.8c-7.5 0-13.5-6.1-13.5-13.5V87.7c0-7.5 6.1-13.5 13.5-13.5h15.8v-12H84.8c-14.1 0-25.5 11.5-25.5 25.5v81.2c0 14 11.4 25.5 25.5 25.5z"/>
</svg>
