<?xml version="1.0" encoding="UTF-8"?>
<svg width="12px" height="12px" viewBox="0 0 12 12" version="1.1" xmlns="http://www.w3.org/2000/svg" xmlns:xlink="http://www.w3.org/1999/xlink">
    <!-- Generator: Sketch 60 (88103) - https://sketch.com -->
    <title>形状备份 4</title>
    <desc>Created with Sketch.</desc>
    <g id="手动发起文档库同步" stroke="none" stroke-width="1" fill="none" fill-rule="evenodd" fill-opacity="0.55">
        <path d="M6.19338072,10.9714201 L4.64668016,10.1744666 C4.2653273,9.98656705 4.0292958,9.61817278 4.03299825,9.21923326 L4.03299825,4.68187472 C4.03040082,4.61281945 3.99541668,4.54902483 3.93858565,4.50971056 L0.364791004,1.85967843 L0.325915227,1.81617458 C-0.000935309296,1.51966876 -0.0929395729,1.04305651 0.100065475,0.646198817 C0.282411381,0.249110523 0.70541686,-0.00635886861 1.17192618,0.000120427557 L10.8168213,0.000120427557 C11.2842563,0.000120427557 11.7035593,0.251887364 11.8979382,0.646198817 C12.0901508,1.04047563 12.0055939,1.51376954 11.6887495,1.8171002 L11.6415432,1.85967843 L8.01961662,4.53747897 C7.96671299,4.57908246 7.93542068,4.64234736 7.93446016,4.70964313 L7.93446016,10.0087818 C7.9437163,10.6196869 7.41426524,11.101006 6.76078194,11.101006 C6.56362621,11.101006 6.36924733,11.0575021 6.1924551,10.9714201 L6.19338072,10.9714201 Z M0.976621685,1.21267443 L4.53745774,3.84141744 C4.81699309,4.04968053 4.9799011,4.35883552 4.9799011,4.68835401 L4.9799011,9.22571256 C4.9799011,9.30531534 5.01877688,9.38491812 5.09745405,9.42009144 L6.64322899,10.2031607 C6.71948896,10.2388068 6.8076286,10.2388068 6.88388856,10.2031607 C6.95538451,10.1645698 7.00011027,10.0900269 7.0005159,10.0087818 L7.0005159,4.71889927 C7.0005159,4.38845516 7.15694462,4.08022579 7.43555435,3.8719627 L11.0028697,1.21545127 C11.0568387,1.15059345 11.066342,1.0595813 11.0269357,0.984973445 C10.9844662,0.909049393 10.9038078,0.86250205 10.8168213,0.863694789 L1.17192618,0.863694789 C1.07936481,0.863694789 1.00161326,0.906296278 0.962737479,0.984973445 C0.919788919,1.05797893 0.926036666,1.14985756 0.978472913,1.21637688 L0.978472913,1.21267443 L0.976621685,1.21267443 Z" id="形状备份-4" fill="#000000" fill-rule="nonzero"></path>
    </g>
</svg>