<?xml version="1.0" encoding="utf-8"?>
<!-- Generator: Adobe Illustrator 22.0.0, SVG Export Plug-In . SVG Version: 6.00 Build 0)  -->
<svg version="1.1" id="图层_1" xmlns="http://www.w3.org/2000/svg" xmlns:xlink="http://www.w3.org/1999/xlink" x="0px" y="0px"
	 viewBox="0 0 200 200" enable-background="new 0 0 200 200" xml:space="preserve">
<g>
	<path fill="#505050" d="M143.774,33.199h-12v-8.483c0-6.046-4.919-10.966-10.966-10.966H78.394
		c-6.046,0-10.966,4.919-10.966,10.966v8.483h-12v-8.483c0-12.664,10.302-22.966,22.966-22.966h42.415
		c12.663,0,22.966,10.302,22.966,22.966L143.774,33.199L143.774,33.199z"/>
</g>
<g>
	<g>
		<path id="SVGID_1_" fill="#505050" d="M192.914,37.44c0,3.314-2.865,6-6.399,6H12.687c-3.534,0-6.399-2.686-6.399-6
			s2.865-6,6.399-6h173.828C190.049,31.44,192.914,34.127,192.914,37.44z"/>
	</g>
</g>
<g>
	<g>
		<path id="SVGID_3_" fill="#505050" d="M77.828,82.097L77.828,82.097c3.314,0,6,2.279,6,5.09v69.398c0,2.811-2.686,5.09-6,5.09
			s-6-2.279-6-5.09V87.186C71.828,84.375,74.515,82.097,77.828,82.097z"/>
	</g>
</g>
<g>
	<g>
		<path id="SVGID_5_" fill="#505050" d="M118.918,82.097L118.918,82.097c3.314,0,6,2.279,6,5.09v69.398c0,2.811-2.686,5.09-6,5.09
			s-6-2.279-6-5.09V87.186C112.918,84.375,115.604,82.097,118.918,82.097z"/>
	</g>
</g>
<path fill="#505050" d="M161.411,64.732l-7.36,110.407c-0.383,5.74-5.189,10.236-10.942,10.236H56.093
	c-5.753,0-10.559-4.496-10.941-10.236l-7.36-110.407H25.764l7.414,111.205c0.801,12.021,10.866,21.438,22.915,21.438h87.016
	c12.048,0,22.114-9.416,22.915-21.437l7.414-111.206H161.411z"/>
</svg>
