<svg xmlns="http://www.w3.org/2000/svg" viewBox="0 0 200 200">
  <path fill="#757575" d="M188.5 46.5l-30.7-30.7c-1.4-1.4-3.5-2.1-5.8-2.1-4.5 0-10.1 2.6-14.8 7.3l-12.9 12.9c-1.1 1.1-2.1 2.3-2.9 3.4l-94.8 94.8-8.5 54.6 54.1-8 95.2-96.1c1-.8 2.1-1.7 3-2.7l12.9-12.8c7.2-7.1 9.5-16.3 5.2-20.6zM66.6 167.4l-34 5 5.4-34.6 83-83.1 28.7 28.7-83.1 84zM174.9 58.6L162 71.5c-.5.5-1.2 1.1-1.8 1.6l-.7.5-.6.6-.8.8-28.7-28.7.5-.5.6-.6.5-.7c.6-.8 1.1-1.5 1.8-2.1l12.9-12.9c2-2 3.9-3.1 5.2-3.5l27.4 27.4c-.3 1.2-1.4 3.2-3.4 5.2z"/>
</svg>
