<?xml version="1.0" encoding="utf-8"?>
<!-- Generator: Adobe Illustrator 22.0.0, SVG Export Plug-In . SVG Version: 6.00 Build 0)  -->
<svg version="1.1" id="图层_1" xmlns="http://www.w3.org/2000/svg" xmlns:xlink="http://www.w3.org/1999/xlink" x="0px" y="0px"
	 viewBox="0 0 24 24" style="enable-background:new 0 0 24 24;" xml:space="preserve">
<style type="text/css">
	.st0{fill:#5B5D66;}
</style>
<title>锁-线性</title>
<desc>Created with Sketch.</desc>
<g id="锁-线性">
	<path class="st0" d="M19.3,9.4h-1.2V6.9c0-3.2-2.6-5.9-5.9-5.9S6.4,3.7,6.4,6.9v2.5H4.5c-1.4,0-2.6,1.2-2.6,2.6v8.4
		c0,1.4,1.2,2.6,2.6,2.6h14.8c1.4,0,2.6-1.2,2.6-2.6V12C21.9,10.6,20.8,9.4,19.3,9.4z M7.6,6.9c0-2.6,2.1-4.7,4.7-4.7
		c2.6,0,4.7,2.1,4.7,4.7v2.5H7.6V6.9z M20.7,20.4c0,0.8-0.6,1.4-1.4,1.4H4.5c-0.8,0-1.4-0.6-1.4-1.4V12c0-0.8,0.6-1.4,1.4-1.4h14.8
		c0.8,0,1.4,0.6,1.4,1.4V20.4z"/>
	<circle id="Oval-7" class="st0" cx="12" cy="16" r="2"/>
</g>
</svg>
