<svg width="16" height="16" viewBox="0 0 16 16" fill="none" xmlns="http://www.w3.org/2000/svg">
<g clip-path="url(#clip0_3546_16032)">
<path d="M13.7842 13.3602V0.344234C13.7842 0.288234 13.7362 0.240234 13.6802 0.240234H12.8882C12.8322 0.240234 12.7842 0.288234 12.7842 0.344234V15.3522M10.2562 0.960234H0.344195C0.264195 0.960234 0.200195 1.02423 0.200195 1.10423V1.81623C0.200195 1.89623 0.264195 1.96023 0.344195 1.96023H10.2482C10.3282 1.96023 10.3922 1.89623 10.3922 1.81623V1.10423C10.4002 1.02423 10.3362 0.960234 10.2562 0.960234ZM10.2562 7.79223H0.344195C0.264195 7.79223 0.200195 7.85623 0.200195 7.93623V8.64823C0.200195 8.72823 0.264195 8.79223 0.344195 8.79223H10.2482C10.3282 8.79223 10.3922 8.72823 10.3922 8.64823V7.93623C10.4002 7.85623 10.3362 7.79223 10.2562 7.79223ZM10.2562 14.3042H0.344195C0.264195 14.3042 0.200195 14.3682 0.200195 14.4482V15.1602C0.200195 15.2402 0.264195 15.3042 0.344195 15.3042H10.2482C10.3282 15.3042 10.3922 15.2402 10.3922 15.1602V14.4482C10.4002 14.3682 10.3362 14.3042 10.2562 14.3042Z" fill="black"/>
<path d="M12.7842 13.0562V15.3362C12.7842 15.5602 12.9602 15.7362 13.1842 15.7362C13.3202 15.7362 13.4402 15.6722 13.5202 15.5602L15.7362 12.5522C15.8562 12.3682 15.8082 12.1202 15.6242 12.0002C15.5282 11.9362 15.4162 11.9202 15.3042 11.9442L12.7842 13.0562Z" fill="black"/>
</g>
<defs>
<clipPath id="clip0_3546_16032">
<rect width="16" height="16" fill="white"/>
</clipPath>
</defs>
</svg>
