<svg width="200" height="200" viewBox="0 0 200 200" fill="none"
    xmlns="http://www.w3.org/2000/svg">
    <path d="M24.4 49.5514H34.27C36.0189 54.4495 39.2378 58.6867 43.4859 61.6826C47.734 64.6784 52.8034 66.2865 58 66.2865C63.1966 66.2865 68.266 64.6784 72.5141 61.6826C76.7622 58.6867 79.9811 54.4495 81.73 49.5514H175.6C177.828 49.5514 179.964 48.6655 181.54 47.0887C183.115 45.5119 184 43.3732 184 41.1433C184 38.9133 183.115 36.7747 181.54 35.1978C179.964 33.621 177.828 32.7351 175.6 32.7351H81.73C79.9811 27.837 76.7622 23.5998 72.5141 20.6039C68.266 17.6081 63.1966 16 58 16C52.8034 16 47.734 17.6081 43.4859 20.6039C39.2378 23.5998 36.0189 27.837 34.27 32.7351H24.4C22.1758 32.7445 20.0461 33.6365 18.478 35.2155C16.9005 36.7851 16.0094 38.9169 16 41.1433C16 43.3732 16.885 45.5119 18.4603 47.0887C20.0356 48.6655 22.1722 49.5514 24.4 49.5514ZM66.4 41.1433C66.4 42.8062 65.9074 44.4318 64.9843 45.8145C64.0613 47.1973 62.7494 48.2749 61.2145 48.9113C59.6796 49.5477 57.9907 49.7142 56.3612 49.3898C54.7318 49.0654 53.2351 48.2646 52.0603 47.0887C50.8855 45.9128 50.0855 44.4146 49.7614 42.7836C49.4373 41.1526 49.6036 39.462 50.2394 37.9256C50.8752 36.3892 51.9518 35.0761 53.3332 34.1522C54.7146 33.2283 56.3386 32.7351 58 32.7351C60.2278 32.7351 62.3644 33.621 63.9397 35.1978C65.515 36.7747 66.4 38.9133 66.4 41.1433ZM175.6 91.5919H165.73C163.981 86.6937 160.762 82.4566 156.514 79.4607C152.266 76.4648 147.197 74.8567 142 74.8567C136.803 74.8567 131.734 76.4648 127.486 79.4607C123.238 82.4566 120.019 86.6937 118.27 91.5919H24.4C22.1758 91.6013 20.0461 92.4933 18.478 94.0723C16.9005 95.6419 16.0094 97.7736 16 100C16 102.23 16.885 104.369 18.4603 105.945C20.0356 107.522 22.1722 108.408 24.4 108.408H118.27C120.019 113.306 123.238 117.543 127.486 120.539C131.734 123.535 136.803 125.143 142 125.143C147.197 125.143 152.266 123.535 156.514 120.539C160.762 117.543 163.981 113.306 165.73 108.408H175.6C177.828 108.408 179.964 107.522 181.54 105.945C183.115 104.369 184 102.23 184 100C184 97.77 183.115 95.6314 181.54 94.0546C179.964 92.4777 177.828 91.5919 175.6 91.5919V91.5919ZM133.6 100C133.6 98.337 134.093 96.7114 135.016 95.3287C135.939 93.946 137.251 92.8683 138.785 92.2319C140.32 91.5955 142.009 91.429 143.639 91.7534C145.268 92.0779 146.765 92.8787 147.94 94.0546C149.114 95.2305 149.914 96.7286 150.239 98.3597C150.563 99.9907 150.396 101.681 149.761 103.218C149.125 104.754 148.048 106.067 146.667 106.991C145.285 107.915 143.661 108.408 142 108.408C139.772 108.408 137.636 107.522 136.06 105.945C134.485 104.369 133.6 102.23 133.6 100V100ZM175.6 150.449H81.73C79.9811 145.55 76.7622 141.313 72.5141 138.317C68.266 135.322 63.1966 133.713 58 133.713C52.8034 133.713 47.734 135.322 43.4859 138.317C39.2378 141.313 36.0189 145.55 34.27 150.449H24.4C22.1758 150.458 20.0461 151.35 18.478 152.929C16.9005 154.499 16.0094 156.63 16 158.857C16 161.087 16.885 163.225 18.4603 164.802C20.0356 166.379 22.1722 167.265 24.4 167.265H34.27C36.0189 172.163 39.2378 176.4 43.4859 179.396C47.734 182.392 52.8034 184 58 184C63.1966 184 68.266 182.392 72.5141 179.396C76.7622 176.4 79.9811 172.163 81.73 167.265H175.6C177.828 167.265 179.964 166.379 181.54 164.802C183.115 163.225 184 161.087 184 158.857C184 156.627 183.115 154.488 181.54 152.911C179.964 151.334 177.828 150.449 175.6 150.449V150.449ZM49.6 158.857C49.6 157.194 50.0927 155.568 51.0157 154.185C51.9387 152.803 53.2506 151.725 54.7855 151.089C56.3204 150.452 58.0093 150.286 59.6388 150.61C61.2682 150.935 62.7649 151.735 63.9397 152.911C65.1145 154.087 65.9145 155.585 66.2386 157.216C66.5627 158.847 66.3964 160.538 65.7606 162.074C65.1248 163.611 64.0482 164.924 62.6668 165.848C61.2854 166.772 59.6614 167.265 58 167.265C55.7722 167.265 53.6356 166.379 52.0603 164.802C50.485 163.225 49.6 161.087 49.6 158.857V158.857Z" fill="black" />
</svg>