<?xml version="1.0" encoding="utf-8"?>
<!-- Generator: Adobe Illustrator 22.0.0, SVG Export Plug-In . SVG Version: 6.00 Build 0)  -->
<svg version="1.1" id="图层_1" xmlns="http://www.w3.org/2000/svg" xmlns:xlink="http://www.w3.org/1999/xlink" x="0px" y="0px"
	 viewBox="0 0 24 24" style="enable-background:new 0 0 24 24;" xml:space="preserve">
<style type="text/css">
	.st0{fill:#FFFFFF;}
	.st1{fill:#5B5D66;}
</style>
<title>流程审核</title>
<desc>Created with Sketch.</desc>
<g id="流程审核">
	<g id="Oval-8">
		<path class="st0" d="M9.1,5.7C6.1,7,4,10,4,13.5c0,0.5,0,1,0.1,1.5 M7.5,20.4c1.4,1,3.1,1.6,5,1.6c1.6,0,3.1-0.4,4.4-1.2
			 M20.9,15.1c0.1-0.5,0.1-1,0.1-1.6c0-3.5-2.1-6.4-5-7.8"/>
		<path class="st1" d="M12.5,22.6c-1.9,0-3.8-0.6-5.3-1.7l0.7-1c1.4,1,3,1.5,4.6,1.5c1.4,0,2.9-0.4,4.1-1.1l0.6,1
			C15.8,22.1,14.2,22.6,12.5,22.6z M21.4,15.2L20.3,15c0.1-0.5,0.1-1,0.1-1.5c0-3.1-1.8-5.9-4.7-7.2l0.5-1.1
			c3.3,1.5,5.4,4.7,5.4,8.3C21.6,14.1,21.5,14.6,21.4,15.2z M3.5,15.1c-0.1-0.5-0.1-1.1-0.1-1.6c0-3.6,2.1-6.9,5.5-8.3l0.5,1.1
			c-2.9,1.3-4.7,4.1-4.7,7.2c0,0.5,0,0.9,0.1,1.4L3.5,15.1z"/>
	</g>
	<g id="Oval-9">
		<path class="st1" d="M12.5,9.6c-2.3,0-4.1-1.8-4.1-4.1s1.8-4.1,4.1-4.1s4.1,1.8,4.1,4.1S14.8,9.6,12.5,9.6z M12.5,2.6
			c-1.6,0-2.9,1.3-2.9,2.9s1.3,2.9,2.9,2.9c1.6,0,2.9-1.3,2.9-2.9S14.1,2.6,12.5,2.6z"/>
	</g>
	<g id="Oval-9-Copy">
		<path class="st1" d="M4.5,22.6c-2.3,0-4.1-1.8-4.1-4.1s1.8-4.1,4.1-4.1s4.1,1.8,4.1,4.1S6.8,22.6,4.5,22.6z M4.5,15.6
			c-1.6,0-2.9,1.3-2.9,2.9s1.3,2.9,2.9,2.9s2.9-1.3,2.9-2.9S6.1,15.6,4.5,15.6z"/>
	</g>
	<g id="Oval-9-Copy-2">
		<path class="st1" d="M19.5,22.6c-2.3,0-4.1-1.8-4.1-4.1s1.8-4.1,4.1-4.1s4.1,1.8,4.1,4.1S21.8,22.6,19.5,22.6z M19.5,15.6
			c-1.6,0-2.9,1.3-2.9,2.9s1.3,2.9,2.9,2.9s2.9-1.3,2.9-2.9S21.1,15.6,19.5,15.6z"/>
	</g>
</g>
</svg>
