<svg width="200" height="200" viewBox="0 0 200 200" fill="none" xmlns="http://www.w3.org/2000/svg">
<path d="M77.8125 33.75C77.1875 33.75 75.625 33.75 75 34.375C74.375 34.375 73.75 35 72.8125 35.625L61.5625 46.875L18.75 4.0625C16.5625 1.875 13.125 1.875 11.25 4.0625L3.4375 11.5625C1.25 13.75 1.25 17.1875 3.4375 19.0625L47.1875 62.8125L35.9375 74.0625C35.3125 74.6875 34.6875 75.3125 34.6875 76.25C34.0625 76.875 34.0625 78.4375 34.0625 79.0625C34.0625 82.5 36.875 85.3125 40.3125 85.3125L83.125 90.625H83.75C85.9375 90.625 87.8125 89.375 88.75 87.8125C89.375 86.5625 90 85.625 90 83.75L83.75 40C84.0625 36.5625 81.25 33.75 77.8125 33.75ZM115.625 90H116.25L160 84.375C163.438 84.375 166.25 81.5625 166.25 78.125C166.25 77.5 166.25 75.9375 165.625 75.3125C165.625 74.6875 165 74.0625 164.375 73.125L153.125 62.1875L196.25 19.0625C198.437 16.875 198.437 13.4375 196.25 11.5625L188.75 4.0625C186.563 1.875 183.125 1.875 181.25 4.0625L137.812 46.875L126.562 35.625C125.937 35 125.312 34.375 124.375 34.375C123.75 34.375 123.125 33.75 121.563 33.75C118.125 33.75 115.313 36.5625 115.313 40L109.063 83.75C109.063 85 109.687 86.5625 110.312 87.1875C112.187 88.75 113.75 90 115.625 90ZM83.75 110H83.125L40.3125 115.625C36.875 115.625 34.0625 118.437 34.0625 121.875C34.0625 122.5 34.0625 124.062 34.6875 124.688C34.6875 125.313 35.3125 125.937 35.9375 126.875L47.1875 138.125L4.0625 180.938C1.875 183.125 1.875 186.562 4.0625 188.437L11.5625 195.937C13.75 198.125 17.1875 198.125 19.0625 195.937L62.5 153.125L73.75 164.375C74.375 165 75 165.625 76.5625 165.625C77.1875 165.625 77.8125 166.25 78.75 166.25C82.1875 166.25 85 163.437 85 160L90.625 116.25C90.625 115 90 113.437 89.375 112.812C87.1875 111.25 85.9375 110 83.75 110ZM196.563 180.625L152.813 138.437L164.062 127.187C164.687 126.562 165.313 125.937 165.313 125C165.938 124.375 165.937 122.812 165.937 122.187C165.937 118.75 163.125 115.937 159.687 115.937L116.562 109.687H115.937C113.75 109.687 112.5 110.937 110.937 112.5C110.312 113.75 109.687 114.687 109.687 115.937L115.937 159.687C115.937 163.125 118.75 165.937 122.187 165.937C122.812 165.937 123.437 165.938 125 165.312C125.625 165.312 126.25 164.687 127.188 164.062L138.437 152.812L181.25 195.937C183.437 198.125 186.875 198.125 188.75 195.937L196.25 188.437C198.437 186.25 198.438 182.812 196.563 180.625Z" fill="black"/>
</svg>
