<svg xmlns="http://www.w3.org/2000/svg" viewBox="0 0 200 200">
  <path d="M135.2 180.8v-44.6h26.3v-11.9h-26.3V78.5h64.2c-9.9-44.6-50.2-78-98.3-78C45.5.5.4 45 .4 100c0 54.9 45.1 99.5 100.7 99.5 47.1 0 86.7-32 97.7-75.2h-12.5c-7.5 25.6-26.5 46.3-51.1 56.5zM122 124.3H76v-46h46v46zm59.4-58H134V18.7c21.4 9 38.5 26.2 47.4 47.6zM122 14.7v51.6H76v-51c7.6-2.2 15.7-3.3 24.1-3.3 7.5-.1 14.9.9 21.9 2.7zm-58 4.9v46.7H42.4v12H64v46H15.5c-2.2-7.7-3.4-15.9-3.4-24.4 0-35.7 21.3-66.5 51.9-80.3zM19.9 136.3H64v43.9c-19.5-8.7-35.2-24.4-44.1-43.9zM76 184.6v-48.3h46v48.8c-7 1.8-14.4 2.8-21.9 2.8-8.4 0-16.5-1.1-24.1-3.3z" fill="#505050"/>
</svg>
