<?xml version="1.0" encoding="utf-8"?>
<!-- Generator: Adobe Illustrator 22.0.0, SVG Export Plug-In . SVG Version: 6.00 Build 0)  -->
<svg version="1.1" id="图层_1" xmlns="http://www.w3.org/2000/svg" xmlns:xlink="http://www.w3.org/1999/xlink" x="0px" y="0px"
	 viewBox="0 0 200 200" style="enable-background:new 0 0 200 200;" xml:space="preserve">
<style type="text/css">
	.st0{fill:#747575;}
	.st1{fill:none;stroke:#747575;stroke-width:12;stroke-miterlimit:10;}
</style>
<path class="st0" d="M109.9,86.2c13.9-7.7,23.3-22.5,23.3-39.5c0-24.9-20.2-45.1-45.1-45.1C63.2,1.5,43,21.7,43,46.6
	c0,16.7,9,31.3,22.5,39.1c-30.2,8.9-52.4,36.2-53.5,68.8h11.3c1.4-34.8,28.3-60.7,63.7-60.7c14.7,0,27.2,3.8,38.1,11.8
	c2.5-2,6.1-4.9,8.8-6.6C126.9,93.3,118.8,89,109.9,86.2z M55.8,46.6c0-17.9,14.5-32.4,32.4-32.4s32.4,14.5,32.4,32.4
	C120.5,64.5,106,79,88.1,79c-4.6,0-9.1-1-13.3-2.8C63.3,71,55.8,59.4,55.8,46.6z"/>
<line class="st1" x1="161" y1="96.3" x2="188.4" y2="96.3"/>
<path class="st0" d="M172.3,145v-19.7h16.2v-12h-16.2v-23h-12V145c-12.1,2.7-21.2,13.6-21.2,26.5c0,15,12.2,27.2,27.2,27.2
	s27.2-12.2,27.2-27.2C193.4,158.6,184.4,147.8,172.3,145z M166.3,186.7c-8.4,0-15.2-6.8-15.2-15.2s6.8-15.2,15.2-15.2
	c8.4,0,15.2,6.8,15.2,15.2S174.6,186.7,166.3,186.7z"/>
</svg>
