<svg id="图层_1" data-name="图层 1" xmlns="http://www.w3.org/2000/svg" viewBox="0 0 200 200"><title>未标题-1</title><path d="M188,21H12A12,12,0,0,0,0,33V145a12,12,0,0,0,12,12H188a12,12,0,0,0,12-12V33A12,12,0,0,0,188,21ZM12,145V33H188V145Z"/><path d="M140.7,57.33a6,6,0,1,0-8.11,8.84l25.72,23.57-25.57,22a6,6,0,1,0,7.81,9.1l29.86-25.62a7,7,0,0,0,.17-10.47Z"/><path d="M67.26,111.7l-25.57-22L67.41,66.17a6,6,0,1,0-8.11-8.84L29.42,84.71a7,7,0,0,0,.17,10.47L59.45,120.8a6,6,0,1,0,7.81-9.1Z"/><path d="M177,178.8H145.42v-2.19a7,7,0,0,0-7-7H61.58a7,7,0,0,0-7,7v2.19H23a6,6,0,0,0,0,12H177a6,6,0,0,0,0-12Z"/></svg>