<?xml version="1.0" encoding="UTF-8"?>
<svg width="14px" height="14px" viewBox="0 0 14 14" version="1.1" xmlns="http://www.w3.org/2000/svg" xmlns:xlink="http://www.w3.org/1999/xlink">
    <!-- Generator: Sketch 60 (88103) - https://sketch.com -->
    <title>编组</title>
    <desc>Created with Sketch.</desc>
    <g id="web端new" stroke="none" stroke-width="1" fill="none" fill-rule="evenodd">
        <g id="访问文件" transform="translate(-32.000000, -124.000000)" fill="#999999" fill-rule="nonzero">
            <g id="编组" transform="translate(32.000000, 119.000000)">
                <g transform="translate(0.000000, 5.000000)" id="形状">
                    <path d="M7,0 C3.14183809,0 0,3.13691448 0,7 C0,10.8630992 3.13691448,14 7,14 C10.8630992,14 14,10.8630855 14,7 C14,3.1369008 10.8581482,0 7,0 L7,0 Z M7.0000071,13.16 C3.56683058,13.16 0.77,10.39854 0.77,6.99746329 C0.77,3.59638658 3.56170162,0.84 7.0000071,0.84 C10.4383126,0.84 13.23,3.60147405 13.23,7.00253671 C13.2248852,10.39854 10.4331836,13.16 7.0000071,13.16 Z M6.86550293,7.14616602 C6.86550293,4.90056966 6.86550293,3.68559115 6.86550293,3.50123047 C6.86550293,3.22468945 6.71252832,2.9988147 6.43600098,2.9988147 C6.15944629,2.9988147 6.00000247,3.22468945 6.00000247,3.50123047 L6.00000247,7.50123828 C5.9996473,7.63362876 6.05207887,7.76070169 6.14569471,7.85431497 C6.23931055,7.94792825 6.36638492,8.00035633 6.49877539,8.00003698 L9.49630664,8.00003698 C9.77284766,8.00003698 9.99832764,7.83913013 9.99832764,7.56258911 C9.99337842,7.27616333 9.77284766,7.14615234 9.49630664,7.14615234 L6.86550293,7.14616602 Z"></path>
                </g>
            </g>
        </g>
    </g>
</svg>