<?xml version="1.0" encoding="utf-8"?>
<!-- Generator: Adobe Illustrator 22.0.0, SVG Export Plug-In . SVG Version: 6.00 Build 0)  -->
<svg version="1.1" id="锁定" xmlns="http://www.w3.org/2000/svg" xmlns:xlink="http://www.w3.org/1999/xlink" x="0px" y="0px"
	 viewBox="0 0 200 200" style="enable-background:new 0 0 200 200;" xml:space="preserve">
<style type="text/css">
	.st0{fill:none;stroke:#5581A7;stroke-width:12;stroke-miterlimit:10;}
	.st1{fill:#747575;}
	.st2{fill:#757575;}
</style>
<path class="st0" d="M186.7,46.3"/>
<path class="st1" d="M173.9,71.5H60.3V56.7c0-21.6,17.5-39.1,39.1-39.1c14.7,0,27.5,8.2,34.2,20.2h13.2c-7.5-18.8-26-32.2-47.4-32.2
	c-28.2,0-51.1,22.9-51.1,51.1v14.8H25.9c-9.9,0-18,8.1-18,18v85.9c0,9.9,8.1,18,18,18h148c9.9,0,18-8.1,18-18V89.5
	C191.9,79.6,183.8,71.5,173.9,71.5z M179.9,175.4c0,3.3-2.7,6-6,6h-148c-3.3,0-6-2.7-6-6V89.5c0-3.3,2.7-6,6-6h148c3.3,0,6,2.7,6,6
	V175.4z"/>
<g>
	<path class="st2" d="M99.9,158c-14.9,0-27-12.1-27-27s12.1-27,27-27c14.9,0,27,12.1,27,27S114.8,158,99.9,158z M99.9,116
		c-8.3,0-15,6.7-15,15s6.7,15,15,15s15-6.7,15-15S108.2,116,99.9,116z"/>
</g>
</svg>
