<svg version="1.1" id="锁定" xmlns="http://www.w3.org/2000/svg" x="0" y="0" viewBox="0 0 200 200" xml:space="preserve">
  <style>
    .st0{fill:none;stroke:#5581a7;stroke-width:12;stroke-miterlimit:10}.st1{fill:#505050}
  </style>
  <path class="st1" d="M79.4 153.9c-3.3 0-6.6-.6-9.9-1.8-14.4-5.4-21.8-21.6-16.3-36 1.1-2.8 4.2-4.3 7.1-3.2 2.8 1.1 4.3 4.2 3.2 7.1-3.3 8.8 1.2 18.6 9.9 21.8 4.2 1.6 8.9 1.4 13-.4 4.1-1.9 7.3-5.2 8.9-9.5 1.1-2.8 4.2-4.3 7.1-3.2 2.8 1.1 4.3 4.2 3.2 7.1-2.6 7-7.8 12.5-14.6 15.6-3.7 1.6-7.7 2.5-11.6 2.5z"/>
  <path class="st1" d="M142.4 155.3c-.6 0-1.3-.1-1.9-.4-2.8-1.1-4.3-4.2-3.2-7.1 1.6-4.2 1.4-8.8-.4-13-1.9-4.1-5.2-7.3-9.5-8.9-4.2-1.6-8.8-1.4-13 .4-4.1 1.9-7.3 5.2-8.9 9.5-1.1 2.8-4.2 4.3-7.1 3.2-2.8-1.1-4.3-4.2-3.2-7.1 2.6-7 7.8-12.5 14.6-15.6 6.8-3.1 14.4-3.3 21.4-.7 7 2.6 12.5 7.8 15.6 14.6 3.1 6.8 3.3 14.4.7 21.4-.8 2.3-2.9 3.7-5.1 3.7z"/>
  <path class="st1" d="M180.2 65.5h-17.4c-.5-35.3-28.3-63.7-62.6-63.7S38.1 30.2 37.6 65.5H20.2c-9.9 0-18 8.1-18 18v97c0 9.9 8.1 18 18 18h160c9.9 0 18-8.1 18-18v-97c0-9.9-8-18-18-18zm-80-51.7c27.6 0 50.1 23.1 50.6 51.7H49.6c.5-28.6 23-51.7 50.6-51.7zm86 166.7c0 3.3-2.7 6-6 6h-160c-3.3 0-6-2.7-6-6v-97c0-3.3 2.7-6 6-6h160c3.3 0 6 2.7 6 6v97z"/>
</svg>
