<svg version="1.1" id="图层_1" xmlns="http://www.w3.org/2000/svg" x="0" y="0" viewBox="0 0 18 14" xml:space="preserve">
  <style>
    .st0{fill:#505050}
  </style>
  <path class="st0" d="M16.9 0H1.1C.5 0 0 .5 0 1.2v11.7c0 .6.5 1.1 1.1 1.1h15.8c.6 0 1.1-.5 1.1-1.2V1.2c0-.7-.5-1.2-1.1-1.2zm0 11.9c0 .5-.4 1-1 1H2.1c-.5 0-1-.4-1-1V2.1c0-.5.4-1 1-1h13.8c.5 0 1 .4 1 1v9.8z"/>
  <path class="st0" d="M9 8c-.1 0-.2 0-.3-.1l-6-4.5c-.2-.1-.3-.5-.1-.7s.5-.3.7-.1L9 6.9l5.7-4.3c.2-.2.5-.1.7.1.2.2.1.5-.1.7l-6 4.5c-.1.1-.2.1-.3.1z"/>
</svg>
