<svg width="200" height="200" viewBox="0 0 200 200" fill="none" xmlns="http://www.w3.org/2000/svg">
<path d="M135 63H164C177.255 63 188 73.7452 188 87V163C188 176.255 177.255 187 164 187H87C73.7452 187 63 176.255 63 163V133" stroke="#3D3D3D" stroke-width="12" stroke-linecap="round"/>
<path d="M109.881 92.3086V20.6289C109.881 12.5352 103.346 6 95.25 6H23.5723C15.4785 6 8.94141 12.5352 8.94141 20.6289V92.2207C8.94141 100.314 15.4766 106.85 23.5723 106.85H95.1641C103.258 106.896 109.838 100.404 109.881 92.3086ZM86.0742 84.8203C85.3809 85.166 84.6016 85.3398 83.7793 85.3398C81.832 85.5566 79.9277 84.5605 78.9746 82.873L73.002 70.3652H45.6895L39.3691 82.873C38.5469 85.5137 35.7324 86.9414 33.1367 86.1191C30.4961 85.2969 29.0684 82.4824 29.8906 79.8867C30.0645 79.3672 30.3242 78.8477 30.627 78.4141L54.8652 30.1094C56.3809 27.6855 59.584 26.9492 61.9648 28.4648C62.6133 28.8984 63.1777 29.4609 63.6094 30.1094L88.1953 78.3281C89.3633 80.752 88.4121 83.5664 86.0742 84.8203Z" fill="#3D3D3D"/>
<line x1="159" y1="110" x2="159" y2="149" stroke="#3D3D3D" stroke-width="8" stroke-linecap="round"/>
<line x1="137" y1="98" x2="137" y2="160" stroke="#3D3D3D" stroke-width="8" stroke-linecap="round"/>
<line x1="115" y1="118" x2="115" y2="140" stroke="#3D3D3D" stroke-width="8" stroke-linecap="round"/>
<path d="M59 45L66.7942 58.5H51.2058L59 45Z" fill="#3D3D3D"/>
</svg>
