<?xml version="1.0" encoding="utf-8"?>
<!-- Generator: Adobe Illustrator 22.0.0, SVG Export Plug-In . SVG Version: 6.00 Build 0)  -->
<svg version="1.1" id="图层_1" xmlns="http://www.w3.org/2000/svg" xmlns:xlink="http://www.w3.org/1999/xlink" x="0px" y="0px"
	 viewBox="0 0 24 24" style="enable-background:new 0 0 24 24;" xml:space="preserve">
<style type="text/css">
	.st0{fill:#5B5D66;}
</style>
<title>我的共享-线性</title>
<desc>Created with Sketch.</desc>
<g>
	<path class="st0" d="M20.8,10.1c-1.2,0-2.2,0.6-2.8,1.6l-3.5-1.2c0-0.1,0-0.1,0-0.2c0-0.5-0.2-1-0.4-1.4l3.7-2.7
		c0.4,0.4,1,0.6,1.6,0.6c1.4,0,2.5-1.1,2.5-2.5s-1.1-2.5-2.5-2.5S17,2.8,17,4.2c0,0.3,0.1,0.6,0.2,0.9l-3.8,2.8
		c-0.5-0.3-1-0.5-1.6-0.5c-1.6,0-2.8,1.3-2.8,2.9s1.3,2.9,2.8,2.9c1.1,0,2-0.6,2.5-1.5l3.4,1.1c0,0.2-0.1,0.4-0.1,0.6
		c0,1.8,1.5,3.3,3.2,3.3s3.2-1.5,3.2-3.3S22.6,10.1,20.8,10.1z M19.5,2.9c0.7,0,1.3,0.6,1.3,1.3s-0.6,1.3-1.3,1.3s-1.3-0.6-1.3-1.3
		S18.8,2.9,19.5,2.9z M11.7,11.9c-0.9,0-1.6-0.7-1.6-1.7s0.7-1.7,1.6-1.7c0.9,0,1.6,0.7,1.6,1.7S12.6,11.9,11.7,11.9z M20.8,15.4
		c-1.1,0-2-0.9-2-2.1c0-1.1,0.9-2.1,2-2.1s2,0.9,2,2.1C22.9,14.5,21.9,15.4,20.8,15.4z"/>
	<path class="st0" d="M12,21.4c-5.2,0-9.4-4.2-9.4-9.4c0-5.2,4.2-9.4,9.4-9.4V1.4C6.2,1.4,1.4,6.2,1.4,12S6.2,22.6,12,22.6
		c2.4,0,4.8-0.8,6.7-2.4l-0.8-0.9C16.2,20.7,14.1,21.4,12,21.4z"/>
</g>
</svg>
