<?xml version="1.0" encoding="utf-8"?>
<!-- Generator: Adobe Illustrator 22.0.0, SVG Export Plug-In . SVG Version: 6.00 Build 0)  -->
<svg version="1.1" id="更多" xmlns="http://www.w3.org/2000/svg" xmlns:xlink="http://www.w3.org/1999/xlink" x="0px" y="0px"
	 viewBox="0 0 200 200" enable-background="new 0 0 200 200" xml:space="preserve">
<g>
	<path fill="#505050" d="M40.48,100.007c0,9.93-8.063,17.993-18,17.993c-9.941,0-18-8.063-18-17.993c0-9.948,8.06-18.007,18-18.007
		C32.417,82,40.48,90.059,40.48,100.007z"/>
</g>
<g>
	<path fill="#505050" d="M195.52,100.007c0,9.93-8.062,17.993-18,17.993c-9.937,0-18-8.063-18-17.993
		c0-9.948,8.063-18.007,18-18.007C187.458,82,195.52,90.059,195.52,100.007z"/>
</g>
<g>
	<path fill="#505050" d="M118,100.007c0,9.931-8.063,17.993-18,17.993c-9.938,0-18-8.063-18-17.993C82,90.059,90.063,82,100,82
		S118,90.059,118,100.007z"/>
</g>
</svg>
