<svg xmlns="http://www.w3.org/2000/svg" viewBox="0 0 200 200">
  <path d="M193.4 92.5l-24.7-24.7c-1.2-1.2-3.1-1.2-4.2 0l-4.2 4.2c-1.2 1.2-1.2 3.1 0 4.2L178.9 95H108V21.2l18.7 18.7c1.2 1.2 3.1 1.2 4.2 0l4.2-4.2c1.2-1.2 1.2-3.1 0-4.2L110.5 6.7c-4.7-4.7-12.3-4.7-17 0L68.8 31.4c-1.2 1.2-1.2 3.1 0 4.2l4.2 4.2c1.2 1.2 3.1 1.2 4.2 0L96 21.2V95H21l18.7-18.7c1.2-1.2 1.2-3.1 0-4.2l-4.2-4.2c-1.2-1.2-3.1-1.2-4.2 0L6.5 92.5c-4.7 4.7-4.7 12.3 0 17l24.7 24.7c1.2 1.2 3.1 1.2 4.2 0l4.2-4.2c1.2-1.2 1.2-3.1 0-4.2L21 107h75v72.2l-18.7-18.7c-1.2-1.2-3.1-1.2-4.2 0l-4.2 4.2c-1.2 1.2-1.2 3.1 0 4.2l24.7 24.7c4.7 4.7 12.3 4.7 17 0l24.7-24.7c1.2-1.2 1.2-3.1 0-4.2l-4.2-4.2c-1.2-1.2-3.1-1.2-4.2 0L108 179.2V107h70.9l-18.7 18.7c-1.2 1.2-1.2 3.1 0 4.2l4.2 4.2c1.2 1.2 3.1 1.2 4.2 0l24.7-24.7c4.8-4.6 4.8-12.2.1-16.9z" fill="#505050"/>
</svg>
