<svg width="200" height="200" viewBox="0 0 200 200" fill="none" xmlns="http://www.w3.org/2000/svg">
<path d="M51.6211 27.6563L105.41 62.6758L160.879 98.7695C161.074 98.8867 161.582 99.2383 161.582 100.078C161.582 100.918 161.074 101.27 160.879 101.387L105.43 137.5L51.6211 172.52C51.582 172.324 51.5625 172.109 51.5625 171.836V28.3398C51.5625 28.0859 51.6016 27.8516 51.6211 27.6563ZM51.1719 12.9297C44.043 12.9297 37.5 19.3555 37.5 28.3398V171.816C37.5 180.801 44.043 187.227 51.1719 187.227C53.4375 187.227 55.7812 186.582 57.9687 185.137L113.086 149.258L168.555 113.164C178.027 106.992 178.027 93.1445 168.555 86.9727L113.086 50.8789L57.9883 15.0195C55.7812 13.5938 53.457 12.9297 51.1719 12.9297Z" fill="black"/>
</svg>
