<?xml version="1.0" encoding="utf-8"?>
<!-- Generator: Adobe Illustrator 22.0.0, SVG Export Plug-In . SVG Version: 6.00 Build 0)  -->
<svg version="1.1" id="其它_1_" xmlns="http://www.w3.org/2000/svg" xmlns:xlink="http://www.w3.org/1999/xlink" x="0px" y="0px"
	 viewBox="0 0 200 200" enable-background="new 0 0 200 200" xml:space="preserve">
<path fill="none" stroke="#505050" stroke-width="12" stroke-miterlimit="10" d="M132.872,129.683
	c0,8.887-6.881,16.091-15.376,16.091c-8.497,0-15.379-7.205-15.379-16.091c0-8.891,6.882-16.095,15.379-16.095
	C125.991,113.588,132.872,120.792,132.872,129.683z"/>
<path fill="#505050" d="M117.496,89c22.368,0,49.497,24.914,63.69,40.706c-13.942,14.937-40.558,38.181-63.686,38.181
	c-23.387,0-49.997-23.36-63.818-38.274C67.442,113.876,94.137,89,117.496,89 M117.496,77C77.75,77,38,129.83,38,129.83
	s39.75,50.057,79.5,50.057c39.439,0,79.5-50.057,79.5-50.057S155.697,77,117.496,77L117.496,77z"/>
<path fill="#505050" d="M54.535,179.666H25.587c-5.562,0-10.087-4.887-10.087-10.894V29.227c0-6.007,4.525-10.894,10.087-10.894
	h143.326c2.621,0,5.113,1.101,7.017,3.101c1.98,2.08,3.07,4.848,3.07,7.794V69h12V29.229c0.001-6.042-2.265-11.749-6.38-16.07
	c-4.19-4.402-9.769-6.826-15.707-6.826H25.587C13.408,6.333,3.5,16.603,3.5,29.227v139.545c0,12.624,9.908,22.894,22.087,22.894
	h28.948V179.666z"/>
</svg>
