<?xml version="1.0" encoding="utf-8"?>
<!-- Generator: Adobe Illustrator 22.0.0, SVG Export Plug-In . SVG Version: 6.00 Build 0)  -->
<svg version="1.1" id="图层_1" xmlns="http://www.w3.org/2000/svg" xmlns:xlink="http://www.w3.org/1999/xlink" x="0px" y="0px"
	 viewBox="0 0 24 24" style="enable-background:new 0 0 24 24;" xml:space="preserve">
<style type="text/css">
	.st0{fill:#5B5D66;}
</style>
<title>隔离区-线性</title>
<desc>Created with Sketch.</desc>
<path class="st0" d="M22,14l-2.5-1.6l2.7-1.6c0.3-0.2,0.5-0.4,0.7-0.7c0.6-1,0.3-2.3-0.7-2.9l-9-5.5c-0.7-0.4-1.5-0.4-2.2,0l-9,5.5
	C1.7,7.3,1.4,7.6,1.3,7.9C1,8.3,0.9,8.9,1,9.4c0.1,0.5,0.5,1,0.9,1.3l2.6,1.6L2,14c-0.3,0.2-0.5,0.4-0.6,0.7c-0.3,0.5-0.4,1-0.2,1.5
	c0.1,0.5,0.4,1,0.9,1.2l8.9,5.5c0.3,0.2,0.7,0.3,1.1,0.3c0.4,0,0.7-0.1,1.1-0.3l8.9-5.5c0.3-0.2,0.5-0.4,0.6-0.6
	C23.2,15.8,22.9,14.5,22,14z M2.6,9.7C2.4,9.6,2.2,9.4,2.2,9.2c-0.1-0.2,0-0.5,0.1-0.7c0.1-0.1,0.2-0.2,0.3-0.3l9-5.5
	c0.1-0.1,0.3-0.1,0.5-0.1s0.3,0,0.5,0.1l9,5.5C21.9,8.4,22,9,21.8,9.4c-0.1,0.1-0.2,0.2-0.3,0.3l-3.2,2L13,8.4
	c-0.6-0.4-1.5-0.4-2.1,0l-5.2,3.2L2.6,9.7z M17.1,12.4l-4.6,2.9c-0.3,0.2-0.7,0.2-0.9,0l-4.7-2.9l4.7-2.9c0.1-0.1,0.3-0.1,0.4-0.1
	s0.3,0,0.4,0.1L17.1,12.4z M21.6,16.1c-0.1,0.1-0.2,0.2-0.3,0.3l-8.9,5.5c-0.3,0.2-0.6,0.2-0.8,0l-8.9-5.5c-0.2-0.1-0.3-0.3-0.4-0.5
	c0-0.2,0-0.4,0.1-0.6C2.4,15.1,2.5,15,2.6,15l3.1-1.9l5.2,3.2c0.3,0.2,0.7,0.3,1.1,0.3c0.4,0,0.8-0.1,1.1-0.3l5.2-3.2l3,1.9
	C21.7,15.2,21.8,15.7,21.6,16.1z"/>
</svg>
