<svg xmlns="http://www.w3.org/2000/svg" viewBox="0 0 200 200">
  <path d="M75.209 108.47c25.916 0 47-21.084 47-47s-21.084-47-47-47-47 21.084-47 47 21.084 47 47 47zm0-82.001c19.299 0 35 15.701 35 35s-15.701 35-35 35-35-15.701-35-35 15.701-35 35-35zM159.102 106.54c9.951-7.188 16.444-18.878 16.444-32.064 0-21.802-17.737-39.54-39.54-39.54a6 6 0 000 12c15.186 0 27.54 12.354 27.54 27.54s-12.354 27.54-27.54 27.54a6 6 0 000 12c.279 0 .555-.015.833-.021.139.01.277.021.419.021 27.703 0 50.241 26.46 50.241 58.983a6 6 0 0012 0c.001-30.376-16.822-56.347-40.397-66.459zM75.209 119.626c-40.804 0-74 26.916-74 60v6h148v-6c0-33.084-33.196-60-74-60zm-61.518 54c3.827-23.646 29.956-42 61.518-42s57.691 18.354 61.519 42H13.691z"/>
</svg>
