<svg width="200" height="200" viewBox="0 0 200 200" fill="none" xmlns="http://www.w3.org/2000/svg">
<g clip-path="url(#clip0_1361_15596)">
<path d="M42.5269 40.7809C74.783 9.84714 126.366 9.90371 158.567 40.8948C165.335 47.3975 170.959 54.9942 175.203 63.3659L175.204 31.013C175.204 30.2028 175.526 29.4259 176.099 28.8531C176.672 28.2802 177.449 27.9583 178.259 27.9583L183.976 27.959C184.786 27.9592 185.563 28.2813 186.136 28.8543C186.708 29.4272 187.03 30.2043 187.03 31.0144L187.021 73.5617C187.021 73.6494 187.009 73.7357 187.007 73.8226L187.018 73.8226C187.018 80.3549 181.724 85.6511 175.191 85.6504L132.412 85.649C131.602 85.6489 130.825 85.327 130.252 84.7542C129.679 84.1814 129.358 83.4044 129.357 82.5943L129.358 76.883C129.358 76.0731 129.68 75.2965 130.253 74.7238C130.826 74.1511 131.602 73.8293 132.412 73.829L166.995 73.8247C163.224 64.6698 157.497 56.1315 149.784 48.866C121.524 22.2498 76.591 23.0962 49.3024 50.7059C21.5067 78.8296 21.6093 124.164 49.6057 152.161C77.0266 179.582 121.071 180.245 149.296 154.151C149.863 153.627 150.612 153.342 151.385 153.358C152.158 153.374 152.895 153.688 153.441 154.235L157.565 158.359C157.851 158.646 158.076 158.988 158.227 159.364C158.378 159.74 158.451 160.143 158.443 160.548C158.434 160.953 158.344 161.352 158.178 161.722C158.011 162.091 157.772 162.423 157.475 162.698C124.617 193.227 73.2203 192.501 41.2428 160.524C8.10209 127.385 8.5299 73.3849 42.5269 40.7809Z" fill="black"/>
</g>
<defs>
<clipPath id="clip0_1361_15596">
<rect width="200" height="200" fill="white"/>
</clipPath>
</defs>
</svg>
