<?xml version="1.0" encoding="utf-8"?>
<!-- Generator: Adobe Illustrator 22.0.0, SVG Export Plug-In . SVG Version: 6.00 Build 0)  -->
<svg version="1.1" id="图层_1" xmlns="http://www.w3.org/2000/svg" xmlns:xlink="http://www.w3.org/1999/xlink" x="0px" y="0px"
	 viewBox="0 0 24 24" style="enable-background:new 0 0 24 24;" xml:space="preserve">
<style type="text/css">
	.st0{fill:#5B5D66;}
</style>
<title>定密申请</title>
<desc>Created with Sketch.</desc>
<g id="定密申请">
	<path class="st0" d="M20.4,15.5v-0.6c0-2-1.6-3.6-3.6-3.6s-3.6,1.6-3.6,3.6v0.6C12,15.6,11,16.7,11,18v2.4c0,1.4,1.2,2.6,2.6,2.6
		h6.2c1.4,0,2.6-1.2,2.6-2.6V18C22.4,16.8,21.5,15.8,20.4,15.5z M16.8,12.5c1.3,0,2.4,1.1,2.4,2.4v0.5h-4.8v-0.5
		C14.4,13.6,15.5,12.5,16.8,12.5z M21.2,20.5c0,0.8-0.6,1.4-1.4,1.4h-6.2c-0.8,0-1.4-0.6-1.4-1.4V18c0-0.8,0.6-1.4,1.4-1.4h6.2
		c0.8,0,1.4,0.6,1.4,1.4V20.5z"/>
	<g id="Path-10">
		<path class="st0" d="M7.4,22.9H4c-1.4,0-2.6-1.2-2.6-2.6V3.5c0-1.4,1.2-2.6,2.6-2.6h14.8c1.4,0,2.6,1.2,2.6,2.6v5.4h-1.2V3.5
			c0-0.8-0.6-1.4-1.4-1.4H4c-0.8,0-1.4,0.6-1.4,1.4v16.8c0,0.8,0.6,1.4,1.4,1.4h3.4V22.9z"/>
	</g>
	<path class="st0" d="M16.4,6.2H6.8c-0.2,0-0.3-0.1-0.3-0.3V5.3C6.5,5.1,6.6,5,6.8,5h9.6c0.2,0,0.3,0.1,0.3,0.3v0.6
		C16.7,6.1,16.5,6.2,16.4,6.2z"/>
	<path class="st0" d="M12.7,10H6.8c-0.2,0-0.3-0.1-0.3-0.3V9.1c0-0.2,0.1-0.3,0.3-0.3h5.9C12.9,8.8,13,9,13,9.1v0.6
		C13,9.9,12.9,10,12.7,10z"/>
</g>
</svg>
