<?xml version="1.0" encoding="utf-8"?>
<!-- Generator: Adobe Illustrator 22.0.0, SVG Export Plug-In . SVG Version: 6.00 Build 0)  -->
<svg version="1.1" id="图层_1" xmlns="http://www.w3.org/2000/svg" xmlns:xlink="http://www.w3.org/1999/xlink" x="0px" y="0px"
	 viewBox="0 0 24 24" style="enable-background:new 0 0 24 24;" xml:space="preserve">
<style type="text/css">
	.st0{fill:#5B5D66;}
</style>
<title>定密审核</title>
<desc>Created with Sketch.</desc>
<g>
	<path class="st0" d="M14.5,14.8c0.7-0.6,1.1-1.4,1.1-2.3c0-1.7-1.4-3.1-3.1-3.1c-1.7,0-3.1,1.4-3.1,3.1c0,0.9,0.4,1.8,1.1,2.3
		c-1.8,0.8-3.1,2.6-3.1,4.7h1.2c0-2.2,1.7-3.9,3.9-3.9s3.9,1.8,3.9,3.9h1.2C17.6,17.4,16.3,15.6,14.5,14.8z M10.6,12.5
		c0-1,0.9-1.9,1.9-1.9s1.9,0.9,1.9,1.9s-0.9,1.9-1.9,1.9S10.6,13.5,10.6,12.5z"/>
	<path class="st0" d="M19.3,7h-1.2V6.9c0-3.2-2.6-5.9-5.9-5.9S6.4,3.7,6.4,6.9V7H4.5C3.1,7,1.9,8.2,1.9,9.6v10.8
		c0,1.4,1.2,2.6,2.6,2.6h14.8c1.4,0,2.6-1.2,2.6-2.6V9.6C21.9,8.2,20.8,7,19.3,7z M7.6,6.9c0-2.6,2.1-4.7,4.7-4.7
		c2.6,0,4.7,2.1,4.7,4.7V7L7.6,6.9L7.6,6.9z M20.7,20.4c0,0.8-0.6,1.4-1.4,1.4H4.5c-0.8,0-1.4-0.6-1.4-1.4V9.6
		c0-0.8,0.6-1.4,1.4-1.4h14.8c0.8,0,1.4,0.6,1.4,1.4V20.4z"/>
</g>
</svg>
