<?xml version="1.0" encoding="utf-8"?>
<!-- Generator: Adobe Illustrator 22.0.0, SVG Export Plug-In . SVG Version: 6.00 Build 0)  -->
<svg version="1.1" id="图层_1" xmlns="http://www.w3.org/2000/svg" xmlns:xlink="http://www.w3.org/1999/xlink" x="0px" y="0px"
	 viewBox="0 0 24 24" style="enable-background:new 0 0 24 24;" xml:space="preserve">
<style type="text/css">
	.st0{fill:#5B5D66;}
</style>
<title>共享消息</title>
<desc>Created with Sketch.</desc>
<g>
	<path class="st0" d="M21.4,15.6V20c0,0.8-0.6,1.4-1.4,1.4H4c-0.8,0-1.4-0.6-1.4-1.4V6c0-0.8,0.6-1.4,1.4-1.4h6.8V3.4H4
		C2.6,3.4,1.4,4.6,1.4,6v14c0,1.4,1.2,2.6,2.6,2.6h16c1.4,0,2.6-1.2,2.6-2.6v-4.4H21.4z"/>
	<path class="st0" d="M16.6,6.4C11.3,7.2,7.4,11.7,7.4,17h1.2c0-4.7,3.5-8.7,8.2-9.4L20,7.1L16.1,11l0.8,0.8l5.4-5.4l-5.4-5.4
		L16.1,2L20,5.9L16.6,6.4z"/>
</g>
</svg>
