<?xml version="1.0" encoding="UTF-8"?>
<svg width="20px" height="20px" viewBox="0 0 20 20" version="1.1" xmlns="http://www.w3.org/2000/svg" xmlns:xlink="http://www.w3.org/1999/xlink">
    <!-- Generator: Sketch 60 (88103) - https://sketch.com -->
    <title>二维码</title>
    <desc>Created with Sketch.</desc>
    <g id="二维码" stroke="none" stroke-width="1" fill="none" fill-rule="evenodd">
        <g transform="translate(1.000000, 1.000000)" fill="#9197A9" fill-rule="nonzero" id="编组-6备份-2">
            <g>
                <path d="M2.44753404,8.49589769 L6.49775781,8.49589769 C7.60232731,8.49589769 8.49775781,7.60046719 8.49775781,6.49589769 L8.49775781,2.4456934 C8.49775781,1.3411239 7.60232731,0.445693397 6.49775781,0.445693397 L2.44753404,0.445693397 C1.34296454,0.445693397 0.44753404,1.3411239 0.44753404,2.4456934 L0.44753404,6.49589769 C0.44753404,7.60046719 1.34296454,8.49589769 2.44753404,8.49589769 Z M2.46010459,2.45824447 L6.48520674,2.45824447 L6.48520674,6.48334662 L2.46010459,6.48334662 L2.46010459,2.45824447 Z M9.50404309,2.4456934 L9.50404309,6.49591717 C9.50404309,7.60048667 10.3994736,8.49591717 11.5040431,8.49591717 L15.5542669,8.49591717 C16.6588364,8.49591717 17.5542669,7.60048667 17.5542669,6.49591717 L17.5542669,2.4456934 C17.5542669,1.3411239 16.6588364,0.445693397 15.5542669,0.445693397 L11.5040431,0.445693397 C10.3994736,0.445693397 9.50404309,1.3411239 9.50404309,2.4456934 Z M15.5416963,6.48334662 L11.5165942,6.48334662 L11.5165942,2.45824447 L15.5416963,2.45824447 L15.5416963,6.48334662 Z M3.46637039,5.47708082 L5.47892146,5.47708082 L5.47892146,3.46451027 L3.46637039,3.46451027 L3.46637039,5.47708082 Z M2.44753404,17.5524067 L6.49775781,17.5524067 C7.60232731,17.5524067 8.49775781,16.6569762 8.49775781,15.5524067 L8.49775781,11.502183 C8.49775781,10.3976135 7.60232731,9.50218297 6.49775781,9.50218297 L2.44753404,9.50218297 C1.34296454,9.50218297 0.44753404,10.3976135 0.44753404,11.502183 L0.44753404,15.5524067 C0.44753404,16.6569762 1.34296454,17.5524067 2.44753404,17.5524067 Z M2.46010459,11.514734 L6.48520674,11.514734 L6.48520674,15.5398362 L2.46010459,15.5398362 L2.46010459,11.514734 Z M12.52286,3.46451027 L12.52286,5.47706134 L14.5354305,5.47706134 L14.5354305,3.46451027 L12.52286,3.46451027 Z M9.50404309,17.5524067 L11.5165942,17.5524067 L11.5165942,15.5398556 L9.50404309,15.5398556 L9.50404309,17.5524067 Z M11.5165942,11.514734 L11.5165942,15.5398362 L13.5291452,15.5398362 L13.5291452,11.514734 L11.5165942,11.514734 Z M15.5416963,15.5398556 L13.5291452,15.5398556 L13.5291452,17.5524067 L17.5542474,17.5524067 L17.5542474,13.5272851 L15.5416963,13.5272851 L15.5416963,15.5398556 Z M15.5416963,11.514734 L17.5542474,11.514734 L17.5542474,9.50218297 L15.5416963,9.50218297 L15.5416963,11.514734 Z M9.50404309,9.50218297 L9.50404309,11.514734 L11.5165942,11.514734 L11.5165942,9.50218297 L9.50404309,9.50218297 Z M3.46637039,14.5335704 L5.47892146,14.5335704 L5.47892146,12.5210193 L3.46637039,12.5210193 L3.46637039,14.5335704 Z" id="形状"></path>
            </g>
        </g>
    </g>
</svg>