<?xml version="1.0" encoding="utf-8"?>
<!-- Generator: Adobe Illustrator 22.0.0, SVG Export Plug-In . SVG Version: 6.00 Build 0)  -->
<svg version="1.1" id="图层_1" xmlns="http://www.w3.org/2000/svg" xmlns:xlink="http://www.w3.org/1999/xlink" x="0px" y="0px"
	 viewBox="0 0 24 24" style="enable-background:new 0 0 24 24;" xml:space="preserve">
<style type="text/css">
	.st0{fill:#5B5D66;}
</style>
<title>共享审核</title>
<desc>Created with Sketch.</desc>
<path class="st0" d="M19,14.8c-1.9,0-3.4,1.2-3.9,2.9l-6.4-2.4c0.2-0.5,0.3-1,0.3-1.5c0-0.8-0.2-1.5-0.7-2.1c3.1-2.4,5.3-4,6.6-4.8
	c0.7,0.8,1.7,1.4,2.8,1.4c2,0,3.6-1.6,3.6-3.6S19.6,1,17.6,1S14,2.6,14,4.6c0,0.4,0.1,0.8,0.2,1.2c-1.4,0.8-3.6,2.5-6.8,5
	C6.7,10.3,5.9,10,5,10c-2.1,0-3.9,1.7-3.9,3.8s1.7,3.8,3.9,3.8c1.2,0,2.2-0.5,2.9-1.3l6.9,2.6c0.1,2.2,1.9,3.9,4.1,3.9
	c2.3,0,4.1-1.8,4.1-4C23.1,16.6,21.2,14.8,19,14.8z M17.6,2.2c1.3,0,2.4,1.1,2.4,2.4S18.9,7,17.6,7s-2.4-1.1-2.4-2.4
	S16.3,2.2,17.6,2.2z M5,16.4c-1.5,0-2.7-1.2-2.7-2.6c0-1.5,1.2-2.6,2.7-2.6s2.7,1.2,2.7,2.6C7.7,15.2,6.5,16.4,5,16.4z M19,21.6
	c-1.6,0-2.9-1.3-2.9-2.8S17.4,16,19,16s2.9,1.3,2.9,2.8S20.6,21.6,19,21.6z"/>
</svg>
