<svg xmlns="http://www.w3.org/2000/svg" xmlns:xlink="http://www.w3.org/1999/xlink" width="16px" height="16px" viewBox="0 0 16 16" version="1.1">
    <title>联系人</title>
    <g id="联系人" stroke="none" stroke-width="1" fill="none" fill-rule="evenodd" fill-opacity="0.85">
        <g id="编组" transform="translate(0.500000, 0.000000)" fill="#000000">
            <rect id="矩形" x="0" y="5.2" width="3" height="1"/>
            <rect id="矩形备份" x="0" y="8" width="3" height="1" rx="0.5"/>
            <path d="M2,0 L14,0 C14.5522847,-1.01453063e-16 15,0.44771525 15,1 L15,15 C15,15.5522847 14.5522847,16 14,16 L2,16 C1.44771525,16 1,15.5522847 1,15 L1,13.5 C1,13.2238576 1.22385763,13 1.5,13 C1.77614237,13 2,13.2238576 2,13.5 L2,15 L2,15 L14,15 L14,1 L2,1 L2,3.5 C2,3.77614237 1.77614237,4 1.5,4 C1.22385763,4 1,3.77614237 1,3.5 L1,1 C1,0.44771525 1.44771525,1.01453063e-16 2,0 Z" id="路径"/>
            <path d="M12.5,12.1115011 C12.5,12.1115011 12.4646533,12.414214 12.005146,12.3616471 C11.8601339,12.3453332 11.7033395,12.1115011 11.7033395,12.1115011 C11.4368796,10.4057956 10.1063931,9.10793686 8.50128979,9.10793684 C6.89528015,9.10793684 5.56479362,10.4057956 5.29833378,12.1115011 C5.29833378,12.1115011 5.23670362,12.3417079 4.99652722,12.3616471 C4.43460512,12.408776 4.50257956,12.1115011 4.50257958,12.1115011 C4.55424015,10.5453699 5.56116831,9.21307065 6.97866214,8.64752325 C5.96685686,7.97597477 5.51448058,6.72085606 5.86519959,5.55821964 C6.2159186,4.39558322 7.28690628,3.6 8.50128978,3.6 C9.71567327,3.6 10.786661,4.39558322 11.13738,5.55821964 C11.488099,6.72085606 11.0357227,7.97597477 10.0239174,8.64752325 C11.4405049,9.21307065 12.4483394,10.5453699 12.5,12.1115011 L12.5,12.1115011 Z M10.5024575,6.35451853 C10.5024575,5.24830299 9.60569267,4.35153811 8.49947714,4.35153811 C7.3932616,4.35153811 6.49649672,5.24830299 6.49649672,6.35451853 C6.49649672,7.46073406 7.3932616,8.35749894 8.49947714,8.35749894 C9.60569267,8.35749894 10.5024575,7.46073406 10.5024575,6.35451853 L10.5024575,6.35451853 Z" id="形状" fill-rule="nonzero"/>
            <rect id="矩形备份-2" x="0" y="10.8" width="3" height="1" rx="0.5"/>
        </g>
    </g>
</svg>
