<?xml version="1.0" encoding="UTF-8"?>
<svg width="20px" height="20px" viewBox="0 0 20 20" version="1.1" xmlns="http://www.w3.org/2000/svg" xmlns:xlink="http://www.w3.org/1999/xlink">
    <!-- Generator: Sketch 60 (88103) - https://sketch.com -->
    <title>发送邮件</title>
    <desc>Created with Sketch.</desc>
    <g id="发送邮件" stroke="none" stroke-width="1" fill="none" fill-rule="evenodd">
        <g id="编组-3" transform="translate(0.000000, 3.000000)" fill="#9197A9" fill-rule="nonzero">
            <path d="M19.9824236,1.81557588 C19.9277414,2.27536458 19.7187775,2.70371474 19.3906845,3.02988963 L11.4734889,10.9072097 C10.6552095,11.7128223 9.34674348,11.7128223 8.52846402,10.9072097 L0.611268431,3.02988963 C0.281222537,2.70567965 0.0722585685,2.27732949 0.0175764086,1.81557588 C0.00585880285,1.90006697 0.00195293428,1.98652296 0,2.07101405 L0,12.6658032 C0.00976467142,13.8152749 0.941314325,14.7407471 2.08378088,14.7368297 L17.9162191,14.7368297 C19.0586857,14.7407471 19.9882824,13.8152749 20,12.6658032 L20,2.07101405 C20,1.98455806 19.9941412,1.89810206 19.9824236,1.81361098 M11.4734889,9.39815958 L19.7754126,1.1396472 C19.4160726,0.440139608 18.6993458,0 17.9181721,0 L2.08573382,0 C1.30260717,0 0.585880285,0.440139608 0.228493311,1.1396472 L8.53041695,9.39815958 C9.34674348,10.2037723 10.6552095,10.2037723 11.4734889,9.39815958" id="形状"></path>
        </g>
    </g>
</svg>