<?xml version="1.0" encoding="utf-8"?>
<!-- Generator: Adobe Illustrator 22.0.0, SVG Export Plug-In . SVG Version: 6.00 Build 0)  -->
<svg version="1.1" id="图层_1" xmlns="http://www.w3.org/2000/svg" xmlns:xlink="http://www.w3.org/1999/xlink" x="0px" y="0px"
	 viewBox="0 0 24 24" style="enable-background:new 0 0 24 24;" xml:space="preserve">
<style type="text/css">
	.st0{fill:#5B5D66;}
</style>
<title>共享申请</title>
<desc>Created with Sketch.</desc>
<g id="共享申请">
	<path class="st0" d="M16.4,6.2H6.8c-0.2,0-0.3-0.1-0.3-0.3V5.3C6.5,5.1,6.6,5,6.8,5h9.6c0.2,0,0.3,0.1,0.3,0.3v0.6
		C16.7,6.1,16.5,6.2,16.4,6.2z"/>
	<path class="st0" d="M12.7,10H6.8c-0.2,0-0.3-0.1-0.3-0.3V9.1c0-0.2,0.1-0.3,0.3-0.3h5.9C12.9,8.8,13,9,13,9.1v0.6
		C13,9.9,12.9,10,12.7,10z"/>
	<g>
		<path class="st0" d="M2.6,20.3V3.5c0-0.8,0.6-1.4,1.4-1.4h14.8c0.8,0,1.4,0.6,1.4,1.4v1.6h1.2V3.5c0-1.4-1.2-2.6-2.6-2.6H4
			c-1.4,0-2.6,1.2-2.6,2.6v16.8c0,1.4,1.2,2.6,2.6,2.6h5.4v-1.2H4C3.2,21.7,2.6,21.1,2.6,20.3z"/>
		<path class="st0" d="M20,17.5c-1.2,0-2.2,0.7-2.7,1.7l-3.1-1.9c0-0.1,0-0.2,0-0.2c0-0.5-0.1-0.9-0.3-1.3l3.6-2.5
			c0.5,0.4,1.1,0.7,1.8,0.7c1.6,0,2.8-1.3,2.8-2.8s-1.3-2.8-2.8-2.8s-2.8,1.3-2.8,2.8c0,0.4,0.1,0.8,0.3,1.2L13.1,15
			c-0.4-0.3-1-0.5-1.5-0.5c-1.5,0-2.7,1.2-2.7,2.7c0,1.5,1.2,2.7,2.7,2.7c1,0,1.8-0.5,2.3-1.3l3.1,1.9c0,0,0,0.1,0,0.1
			c0,1.7,1.4,3,3.1,3s3.1-1.4,3.1-3S21.7,17.5,20,17.5z M19.3,9.6c0.9,0,1.6,0.7,1.6,1.6s-0.7,1.6-1.6,1.6s-1.6-0.7-1.6-1.6
			S18.4,9.6,19.3,9.6z M11.5,18.6c-0.8,0-1.5-0.7-1.5-1.5s0.7-1.5,1.5-1.5s1.5,0.7,1.5,1.5S12.4,18.6,11.5,18.6z M20,22.4
			c-1,0-1.9-0.8-1.9-1.8c0-1,0.8-1.8,1.9-1.8c1,0,1.9,0.8,1.9,1.8C21.9,21.6,21.1,22.4,20,22.4z"/>
	</g>
</g>
</svg>
