<svg xmlns="http://www.w3.org/2000/svg" xmlns:xlink="http://www.w3.org/1999/xlink" width="16px" height="16px" viewBox="0 0 16 16" version="1.1">
    <title>用户组</title>
    <g id="用户组" stroke="none" stroke-width="1" fill="none" fill-rule="evenodd">
        <g id="编组" fill="#000000" fill-rule="nonzero">
            <g id="形状">
                <path d="M13.7526316,10.3918919 L13.7526316,8.52432432 C13.7526316,7.92432432 13.2657895,7.42432432 12.7789474,7.42432432 L8.48947368,7.42432432 L8.48947368,6.38378378 C10.0026316,6.15135135 11.1210526,4.84864865 11.1210526,3.21891892 C11.1210526,1.41621622 9.75526316,0.0162162162 8.00263158,0.0162162162 C6.25,0.0162162162 4.88421053,1.41891892 4.88421053,3.21891892 C4.88421053,4.84864865 6.00263158,6.15135135 7.51578947,6.38378378 L7.51578947,7.42432432 L3.22631579,7.42432432 C2.64210526,7.42432432 2.25263158,7.92432432 2.25263158,8.52432432 L2.25263158,10.3567568 C0.976315789,10.5486486 0.0105263158,11.6648649 0.0105263158,13.0297297 C0.0105263158,14.5324324 1.17894737,15.7324324 2.64210526,15.7324324 C4.10526316,15.7324324 5.27368421,14.5324324 5.27368421,13.0297297 C5.27368421,11.7324324 4.40526316,10.6621622 3.22631579,10.3918919 L3.22631579,8.42432432 L12.7789474,8.42432432 L12.7789474,10.3567568 C11.5026316,10.5486486 10.5368421,11.6648649 10.5368421,13.0297297 C10.5368421,14.5324324 11.7052632,15.7324324 13.1684211,15.7324324 C14.6315789,15.7324324 15.8,14.5324324 15.8,13.0297297 C15.8,11.7324324 14.9315789,10.6621622 13.7526316,10.3918919 Z M4.29736842,13.0297297 C4.29736842,14.0297297 3.61578947,14.7324324 2.63947368,14.7324324 C1.76052632,14.7324324 0.981578947,13.9297297 0.981578947,13.0297297 C0.981578947,12.127027 1.66578947,11.327027 2.63947368,11.327027 C3.51842105,11.327027 4.29736842,12.0297297 4.29736842,13.0297297 Z M5.76052632,3.21891892 C5.76052632,2.01891892 6.73421053,1.01621622 7.90526316,1.01621622 C9.07631579,1.01621622 10.05,2.01621622 10.05,3.21891892 C10.05,4.41891892 9.07631579,5.42162162 7.90526316,5.42162162 C6.73421053,5.42162162 5.76052632,4.42162162 5.76052632,3.21891892 L5.76052632,3.21891892 Z M13.2631579,14.7324324 C12.3842105,14.7324324 11.6052632,13.9297297 11.6052632,13.0297297 C11.6052632,12.127027 12.3868421,11.327027 13.2631579,11.327027 C14.1421053,11.327027 14.9210526,12.0297297 14.9210526,13.0297297 C14.9210526,14.0297297 14.1421053,14.7324324 13.2631579,14.7324324 Z"/>
            </g>
        </g>
    </g>
</svg>
