<svg xmlns="http://www.w3.org/2000/svg" viewBox="0 0 200 200">
    <path fill="#505050"
        d="M100 26.539l20.482 44.053 2.481 5.336 5.816.897 47.104 7.266-34.515 35.712-3.828 3.961.879 5.438 8.01 49.564-41.068-22.919-5.361-2.99-5.361 2.991-41.066 22.918 8.008-49.563.878-5.438-3.828-3.961-34.514-35.713 47.104-7.266 5.817-.897 2.481-5.337L100 26.539m0-26.092L69.544 65.954 1.443 76.458l49.279 50.99-11.633 71.999L100 165.454l60.914 33.993-11.635-71.999 49.278-50.99-68.101-10.504L100 .447z" />
</svg>
