<?xml version="1.0" encoding="UTF-8"?>
<svg width="14px" height="14px" viewBox="0 0 14 14" version="1.1" xmlns="http://www.w3.org/2000/svg" xmlns:xlink="http://www.w3.org/1999/xlink">
    <!-- Generator: Sketch 60 (88103) - https://sketch.com -->
    <title>路径</title>
    <desc>Created with Sketch.</desc>
    <g id="手动发起文档库同步" stroke="none" stroke-width="1" fill="none" fill-rule="evenodd">
        <g id="发起同步" transform="translate(-633.000000, -481.000000)" fill="#000000" fill-rule="nonzero">
            <g id="编组-22" transform="translate(486.000000, 286.000000)">
                <g id="编组" transform="translate(147.000000, 195.000000)">
                    <path d="M13.234738,1.33989537 L11.674808,13.0133958 C11.674808,13.1396812 11.6417936,13.1396812 11.509736,13.0765385 L8.10100012,11.1743657 C7.93592817,11.0796517 7.73784181,11.1427944 7.63879863,11.300651 C7.53975546,11.4585077 7.60578425,11.6479357 7.7708562,11.7426497 L11.1795921,13.6448225 C11.7078224,13.9289645 12.2360526,13.6763938 12.3350958,13.1081098 L13.994069,0.763718526 C14.0600978,0.163863198 13.5648819,-0.183421468 13.0036373,0.100720524 L0.425154099,6.47023701 C-0.136090561,6.754379 -0.136090561,7.322663 0.392139712,7.63837635 L3.1405878,9.21694301 C3.30565975,9.31165701 3.5037461,9.24851433 3.60278928,9.12222902 C3.70183246,8.96437236 3.63580367,8.77494435 3.5037461,8.68023035 L0.755298018,7.10166368 C0.65625484,7.03852101 0.65625484,7.07009235 0.755298018,7.03852101 L12.7065077,0.992610685 L5.29477685,10.1088332 L5.29477685,13.6842867 C5.29477685,13.8737147 5.42683441,14 5.62492075,14 C5.82300709,14 5.95506467,13.8737147 5.95506467,13.6842867 L5.95506467,10.2982612 L13.234738,1.33989537 Z" id="路径"></path>
                </g>
            </g>
        </g>
    </g>
</svg>