<svg width="200" height="200" viewBox="0 0 200 200" fill="none" xmlns="http://www.w3.org/2000/svg">
<path d="M148.6 185.34H53.4004C39.0604 185.34 27.4004 173.68 27.4004 159.34V39.26C27.4004 24.92 39.0604 13.26 53.4004 13.26H148.59C162.93 13.26 174.59 24.92 174.59 39.26V159.34C174.6 173.68 162.93 185.34 148.6 185.34ZM53.4004 25.26C45.6804 25.26 39.4004 31.54 39.4004 39.26V159.34C39.4004 167.06 45.6804 173.34 53.4004 173.34H148.59C156.31 173.34 162.59 167.06 162.59 159.34V39.26C162.59 31.54 156.31 25.26 148.59 25.26H53.4004Z" fill="black"/>
<path d="M103.79 76.5801H65.4902C62.1802 76.5801 59.4902 73.8901 59.4902 70.5801C59.4902 67.2701 62.1802 64.5801 65.4902 64.5801H103.79C107.1 64.5801 109.79 67.2701 109.79 70.5801C109.79 73.8901 107.1 76.5801 103.79 76.5801ZM136.34 109.51H65.4902C62.1802 109.51 59.4902 106.82 59.4902 103.51C59.4902 100.2 62.1802 97.5101 65.4902 97.5101H136.34C139.65 97.5101 142.34 100.2 142.34 103.51C142.34 106.82 139.65 109.51 136.34 109.51ZM136.34 141.45H65.4902C62.1802 141.45 59.4902 138.76 59.4902 135.45C59.4902 132.14 62.1802 129.45 65.4902 129.45H136.34C139.65 129.45 142.34 132.14 142.34 135.45C142.34 138.76 139.65 141.45 136.34 141.45Z" fill="black"/>
</svg>
