<svg width="200" height="200" viewBox="0 0 200 200" fill="none" xmlns="http://www.w3.org/2000/svg">
<path d="M100 33.3334C63.1795 33.3334 33.3337 63.1792 33.3337 100C33.3337 136.821 63.1795 166.667 100 166.667C136.821 166.667 166.667 136.821 166.667 100C166.667 63.1792 136.821 33.3334 100 33.3334ZM16.667 100C16.667 53.9751 53.9753 16.6667 100 16.6667C146.025 16.6667 183.334 53.9751 183.334 100C183.334 146.025 146.025 183.333 100 183.333C53.9753 183.333 16.667 146.025 16.667 100Z" fill="black"/>
<path d="M66.667 100C66.667 91.1595 70.1789 82.6811 76.4301 76.4299C82.6813 70.1786 91.1598 66.6667 100 66.6667C108.841 66.6667 117.319 70.1786 123.571 76.4299C129.822 82.6811 133.334 91.1595 133.334 100C133.334 108.841 129.822 117.319 123.571 123.57C117.319 129.822 108.841 133.333 100 133.333C91.1598 133.333 82.6813 129.822 76.4301 123.57C70.1789 117.319 66.667 108.841 66.667 100Z" fill="black"/>
</svg>
