<svg width="200" height="200" viewBox="0 0 200 200" fill="none" xmlns="http://www.w3.org/2000/svg">
<path d="M175.836 101.743C183.191 94.3799 184.043 86.8755 182.936 79.8654L174.199 40.3885C173.097 33.3707 166.448 26.7296 159.453 25.6149L120.022 16.8867C119.043 16.7368 118.054 16.6633 117.063 16.6669C110.456 16.6669 102.503 19.6342 98.1603 23.9829L20.4264 101.816C15.4139 106.832 15.4139 115.052 20.4264 120.075L79.8598 179.568C82.3686 182.077 85.6767 183.333 88.984 183.333C92.2888 183.333 95.5935 182.079 98.0989 179.568L175.836 101.743ZM88.984 173.361C88.5247 173.361 87.6453 173.251 86.9141 172.521L27.485 113.032C26.3558 111.901 26.3541 109.993 27.4815 108.864L105.217 31.0289C107.592 28.6495 113.018 26.6392 117.063 26.6392C117.583 26.6392 118.056 26.6716 118.462 26.7364L157.895 35.4645C159.159 35.669 160.724 36.5775 161.982 37.837C163.244 39.0991 164.15 40.6697 164.349 41.9369L164.35 41.9429L164.351 41.9488L173.086 81.4198C173.82 86.0668 173.368 90.1028 168.781 94.6953L91.0386 172.525C90.3134 173.253 89.44 173.361 88.984 173.361Z" fill="black"/>
<path d="M133.333 50C124.13 50 116.667 57.4627 116.667 66.6662C116.667 75.8787 124.13 83.3333 133.338 83.3333C142.538 83.3333 150.004 75.8626 150 66.6662C149.992 57.4627 142.53 50 133.333 50Z" fill="black"/>
</svg>
