<svg xmlns="http://www.w3.org/2000/svg" width="42" height="42">
  <g fill="none" fill-rule="evenodd">
    <circle cx="21" cy="21" r="20" fill="#000" opacity=".6"/>
    <path fill="#FFF" fill-rule="nonzero" d="M21 41.95C9.43 41.95.05 32.57.05 21 .05 9.43 9.43.05 21 .05 32.57.05 41.95 9.43 41.95 21c0 11.57-9.38 20.95-20.95 20.95Zm0-1.9c10.521 0 19.05-8.529 19.05-19.05S31.521 1.95 21 1.95 1.95 10.479 1.95 21 10.479 40.05 21 40.05Z"/>
    <path fill="#FFF" d="M16.525 27.674v-13.97a1 1 0 0 1 1.529-.849l11.223 6.985a1 1 0 0 1 0 1.698l-11.223 6.985a1 1 0 0 1-1.529-.849Z"/>
  </g>
</svg>
