<svg xmlns="http://www.w3.org/2000/svg" xml:space="preserve" viewBox="0 0 200 200">
  <path d="M192.7 6.6H7.2c-1.5 0-2.7.8-2.7 1.7v8.5c0 1 1.2 1.7 2.7 1.7h185.4c1.5 0 2.7-.8 2.7-1.7V8.3c.1-.9-1-1.7-2.6-1.7zM87.6 76.5h-82c-.6 0-1.1.8-1.1 1.7v8.5c0 1 .5 1.7 1.1 1.7h81.9c.6 0 1.1-.8 1.1-1.7v-8.5c.1-.9-.4-1.7-1-1.7zM51 155.4H5c-.3 0-.5.8-.5 1.7v8.5c0 1 .2 1.7.5 1.7h45.9c.3 0 .5-.8.5-1.7v-8.5c.1-.9-.1-1.7-.4-1.7zM129.7 163.2c-11.2 0-20.3-9.4-20.3-21s9.1-21 20.3-21c11.2 0 20.3 9.4 20.3 21 .1 11.6-9.1 21-20.3 21zm0-30.5c-4.9 0-8.9 4.3-8.9 9.6s4 9.6 8.9 9.6 8.9-4.3 8.9-9.6-3.9-9.6-8.9-9.6z"/>
  <path d="M129.7 103.6c19.2 0 42.4 23.6 54.5 38.6-11.9 14.1-34.7 36.3-54.5 36.3-20 0-42.8-22.2-54.6-36.4 11.8-14.8 34.6-38.5 54.6-38.5m0-11.4c-34 0-68.1 50.1-68.1 50.1s34.1 47.6 68.1 47.6c33.7 0 68.1-47.6 68.1-47.6s-35.4-50.1-68.1-50.1z"/>
</svg>
