<svg width="16" height="16" viewBox="0 0 16 16" fill="none" xmlns="http://www.w3.org/2000/svg">
<path d="M7.99975 2.75C8.13235 2.75 8.25953 2.69732 8.3533 2.60355C8.44707 2.50979 8.49975 2.38261 8.49975 2.25V1.25C8.49975 1.11739 8.44707 0.990215 8.3533 0.896447C8.25953 0.802678 8.13235 0.75 7.99975 0.75C7.86714 0.75 7.73996 0.802678 7.64619 0.896447C7.55242 0.990215 7.49975 1.11739 7.49975 1.25V2.25C7.49975 2.38261 7.55242 2.50979 7.64619 2.60355C7.73996 2.69732 7.86714 2.75 7.99975 2.75ZM2.06025 4.518C2.15455 4.60908 2.28085 4.65948 2.41195 4.65834C2.54305 4.6572 2.66845 4.60461 2.76116 4.51191C2.85386 4.41921 2.90644 4.2938 2.90758 4.1627C2.90872 4.0316 2.85833 3.9053 2.76725 3.811L2.06025 3.1035C1.96595 3.01242 1.83964 2.96202 1.70855 2.96316C1.57745 2.9643 1.45204 3.01689 1.35934 3.10959C1.26663 3.20229 1.21405 3.3277 1.21291 3.4588C1.21177 3.5899 1.26217 3.7162 1.35325 3.8105L2.06025 4.518ZM14.7677 3.6035C14.674 3.50976 14.5468 3.45711 14.4142 3.45711C14.2817 3.45711 14.1545 3.50976 14.0607 3.6035L13.3537 4.3105C13.2627 4.4048 13.2123 4.5311 13.2134 4.6622C13.2145 4.7933 13.2671 4.91871 13.3598 5.01141C13.4525 5.10411 13.5779 5.1567 13.709 5.15784C13.8401 5.15898 13.9664 5.10858 14.0607 5.0175L14.7677 4.3105C14.8615 4.21674 14.9141 4.08958 14.9141 3.957C14.9141 3.82442 14.8615 3.69726 14.7677 3.6035ZM14.2497 14.25H13.4997V8.75C13.4997 5.7125 11.0372 3.25 7.99975 3.25C4.96225 3.25 2.49975 5.7125 2.49975 8.75V14.25H1.74975C1.61714 14.25 1.48996 14.3027 1.39619 14.3964C1.30242 14.4902 1.24975 14.6174 1.24975 14.75C1.24975 14.8826 1.30242 15.0098 1.39619 15.1036C1.48996 15.1973 1.61714 15.25 1.74975 15.25H14.2497C14.3824 15.25 14.5095 15.1973 14.6033 15.1036C14.6971 15.0098 14.7497 14.8826 14.7497 14.75C14.7497 14.6174 14.6971 14.4902 14.6033 14.3964C14.5095 14.3027 14.3824 14.25 14.2497 14.25ZM8.49975 14.25V12.25C8.49975 12.1174 8.44707 11.9902 8.3533 11.8964C8.25953 11.8027 8.13235 11.75 7.99975 11.75C7.86714 11.75 7.73996 11.8027 7.64619 11.8964C7.55242 11.9902 7.49975 12.1174 7.49975 12.25V14.25H3.49975V8.75C3.49975 6.2645 5.51425 4.25 7.99975 4.25C10.4852 4.25 12.4997 6.2645 12.4997 8.75V14.25H8.49975Z" fill="black"/>
<path d="M8 7.25C7.46957 7.25 6.96086 7.46071 6.58579 7.83579C6.21071 8.21086 6 8.71957 6 9.25C6 9.78043 6.21071 10.2891 6.58579 10.6642C6.96086 11.0393 7.46957 11.25 8 11.25C8.53043 11.25 9.03914 11.0393 9.41421 10.6642C9.78929 10.2891 10 9.78043 10 9.25C10 8.71957 9.78929 8.21086 9.41421 7.83579C9.03914 7.46071 8.53043 7.25 8 7.25ZM8 10.25C7.86865 10.25 7.73858 10.2241 7.61724 10.1738C7.4959 10.1235 7.38565 10.0498 7.29279 9.95686C7.19993 9.86395 7.12628 9.75367 7.07604 9.6323C7.02581 9.51093 6.99997 9.38085 7 9.2495C7.00003 9.11815 7.02594 8.98808 7.07624 8.86674C7.12653 8.7454 7.20024 8.63515 7.29314 8.54229C7.38605 8.44943 7.49633 8.37578 7.6177 8.32554C7.73907 8.27531 7.86915 8.24947 8.0005 8.2495C8.26578 8.24957 8.52017 8.35501 8.70771 8.54264C8.89525 8.73027 9.00057 8.98472 9.0005 9.25C9.00043 9.51528 8.89499 9.76967 8.70736 9.95721C8.51973 10.1447 8.26528 10.2501 8 10.25Z" fill="black"/>
</svg>
