<svg width="48" height="48" viewBox="0 0 48 48" fill="none"
    xmlns="http://www.w3.org/2000/svg">
    <path d="M44.8833 47.9299H3.0118C1.35422 47.9299 0.0351562 46.5875 0.0351562 44.9299V3.10512C0.0351562 1.44754 1.37756 0.105133 3.0118 0.105133H44.8599C46.5175 0.105133 47.8599 1.44754 47.8599 3.10512V44.9533C47.8599 46.5875 46.5175 47.9299 44.8833 47.9299Z" fill="#FFBA31"/>
    <path d="M36.5894 35.7373V37.1731H24.8579V35.7373H36.5894ZM27.2976 10.7393C28.0271 10.7218 28.7333 11.002 29.2353 11.5039C29.7547 12.0234 30.0582 12.7004 30.0582 13.4241V20.679C29.7781 20.679 29.5154 20.6206 29.2353 20.6206C26.212 20.6031 23.7314 23.0661 23.7314 26.0895C23.7314 27.1517 24.0291 28.179 24.6244 29.072C22.5933 29.1303 20.9707 30.7704 20.9124 32.8015V36.14H13.4941C12.7645 36.1575 12.0583 35.8774 11.5564 35.3754C11.0369 34.856 10.7334 34.179 10.7334 33.4552V13.4358C10.7334 12.7063 11.0136 12 11.5564 11.5156C12.0758 10.9961 12.7704 10.716 13.4941 10.751H27.2976V10.7393V10.7393ZM30.7119 22.9377C32.4279 22.8794 33.9571 24.0584 34.2956 25.7335C34.6341 27.4144 33.7761 29.1128 32.1886 29.7607V31.4591H35.4746C35.959 31.4416 36.4434 31.6284 36.782 31.9786C37.138 32.3346 37.3248 32.7782 37.3248 33.2684V35.0019H24.0874V33.1926C24.0874 32.7256 24.2917 32.2587 24.6302 31.926C24.9863 31.5875 25.4532 31.4066 25.9201 31.4416H29.2061V29.7432C27.8637 29.2004 27.0057 27.8988 27.0232 26.4572C27.0933 24.4844 28.7333 22.8794 30.7119 22.9377V22.9377ZM22.3131 20.4747H15.1342C14.7431 20.4572 14.3696 20.6615 14.1653 21.0175C13.961 21.3735 13.961 21.7821 14.1653 22.1206C14.3696 22.4767 14.7256 22.6634 15.1342 22.6634H22.319C22.71 22.6809 23.0836 22.4767 23.2878 22.1206C23.4921 21.7646 23.4921 21.356 23.2878 21.0175C23.1011 20.6615 22.71 20.4397 22.3131 20.4747ZM26.1944 15.607H15.1342C14.7431 15.5895 14.3696 15.7938 14.1653 16.1498C13.961 16.5059 13.961 16.9144 14.1653 17.2529C14.3696 17.609 14.7256 17.7957 15.1342 17.7957H26.1594C26.5505 17.8132 26.924 17.609 27.1283 17.2529C27.3326 16.8969 27.3326 16.4883 27.1283 16.1498C26.9415 15.8113 26.568 15.5895 26.1944 15.607V15.607Z" fill="white"/>
</svg>
