<?xml version="1.0" standalone="no"?><!DOCTYPE svg PUBLIC "-//W3C//DTD SVG 1.1//EN" "http://www.w3.org/Graphics/SVG/1.1/DTD/svg11.dtd"><svg t="1737365708876" class="icon" viewBox="0 0 1024 1024" version="1.1" xmlns="http://www.w3.org/2000/svg" p-id="10312" xmlns:xlink="http://www.w3.org/1999/xlink" width="200" height="200"><path d="M991.36 114.432L615.68 490.24a14.848 14.848 0 0 1-21.504 0l-21.504-21.504a14.848 14.848 0 0 1 0-21.504l375.808-375.808a14.848 14.848 0 0 1 21.44 0l21.568 21.504a14.848 14.848 0 0 1 0 21.504z" fill="#666666" p-id="10313"></path><path d="M978.112 557.824h-30.72a15.104 15.104 0 0 0-15.36 15.36v258.56c0 33.792-27.712 61.44-61.44 61.44h-716.8a61.632 61.632 0 0 1-61.44-61.44V259.84c0-33.792 27.648-61.44 61.44-61.44h365.568c8.64 0 15.36-6.656 15.36-15.36v-30.72a15.104 15.104 0 0 0-15.36-15.36H153.664c-67.584 0-122.88 55.296-122.88 122.88v571.904c0 67.584 55.296 122.88 122.88 122.88h716.8c67.584 0 122.88-55.296 122.88-122.88v-258.56a15.104 15.104 0 0 0-15.36-15.36z" fill="#666666" p-id="10314"></path></svg>