<svg width="16" height="16" viewBox="0 0 16 16" fill="none" xmlns="http://www.w3.org/2000/svg">
<path d="M14.8541 12.7719H2.31261V2.13645C2.31261 2.11853 2.30883 2.10079 2.3015 2.08424C2.29416 2.06768 2.28341 2.05264 2.26986 2.03997C2.25631 2.0273 2.24022 2.01724 2.22252 2.01039C2.20481 2.00353 2.18583 2 2.16667 2H1.14594C1.10723 2 1.07011 2.01438 1.04274 2.03997C1.01538 2.06556 1 2.10026 1 2.13645V13.8635C1 13.9389 1.06533 14 1.14594 14H14.8541C14.8928 14 14.9299 13.9856 14.9573 13.96C14.9846 13.9344 15 13.8997 15 13.8635V12.9092C15 12.873 14.9846 12.8383 14.9573 12.8127C14.9299 12.7871 14.8928 12.7727 14.8541 12.7727V12.7719ZM3.91709 11.409H4.93697C4.97553 11.4088 5.01243 11.3943 5.03962 11.3687C5.0668 11.3432 5.08206 11.3086 5.08206 11.2725V8.81793C5.08206 8.78188 5.0668 8.74729 5.03962 8.72172C5.01243 8.69615 4.97553 8.68169 4.93697 8.68148H3.91624C3.87768 8.68169 3.84078 8.69615 3.8136 8.72172C3.78641 8.74729 3.77115 8.78188 3.77115 8.81793V11.2725C3.77115 11.3471 3.83648 11.409 3.91624 11.409H3.91709ZM6.68739 11.409H7.70812C7.74683 11.409 7.78395 11.3946 7.81132 11.369C7.83869 11.3434 7.85406 11.3087 7.85406 11.2725V5.81833C7.85406 5.78214 7.83869 5.74743 7.81132 5.72184C7.78395 5.69625 7.74683 5.68187 7.70812 5.68187H6.68739C6.66823 5.68187 6.64925 5.6854 6.63155 5.69226C6.61384 5.69912 6.59775 5.70917 6.5842 5.72184C6.57065 5.73451 6.5599 5.74955 6.55256 5.76611C6.54523 5.78266 6.54145 5.80041 6.54145 5.81833V11.2725C6.54145 11.3471 6.60764 11.409 6.68739 11.409ZM9.45855 11.409H10.4793C10.518 11.409 10.5551 11.3946 10.5825 11.369C10.6098 11.3434 10.6252 11.3087 10.6252 11.2725V7.14716C10.625 7.11111 10.6095 7.07661 10.5822 7.05119C10.5548 7.02577 10.5178 7.0115 10.4793 7.0115H9.45855C9.43938 7.0115 9.4204 7.01503 9.4027 7.02189C9.38499 7.02875 9.3689 7.0388 9.35535 7.05147C9.3418 7.06414 9.33105 7.07918 9.32372 7.09574C9.31638 7.11229 9.31261 7.13004 9.31261 7.14796V11.2725C9.31261 11.3471 9.37794 11.409 9.45855 11.409ZM12.2288 11.409H13.2504C13.289 11.4088 13.3259 11.3943 13.3531 11.3687C13.3803 11.3432 13.3955 11.3086 13.3955 11.2725V4.45458C13.3955 4.41839 13.3801 4.38368 13.3528 4.35809C13.3254 4.3325 13.2883 4.31813 13.2496 4.31813H12.2288C12.1903 4.31834 12.1534 4.33281 12.1262 4.35837C12.099 4.38394 12.0838 4.41853 12.0838 4.45458V11.2725C12.0838 11.3471 12.1491 11.409 12.2288 11.409Z" fill="black"/>
</svg>
