<svg width="16" height="16" viewBox="0 0 16 16" fill="none" xmlns="http://www.w3.org/2000/svg">
<path d="M4.02209 3.0139L7.91536 5.42492L11.9302 7.90991C11.9443 7.91797 11.9811 7.94218 11.9811 8C11.9811 8.05782 11.9443 8.08203 11.9302 8.09009L7.91677 10.5764L4.02209 12.9874C4.01926 12.974 4.01785 12.9592 4.01785 12.9404V3.06096C4.01785 3.04348 4.02067 3.02734 4.02209 3.0139ZM3.98957 2C3.47358 2 3 2.4424 3 3.06096V12.939C3 13.5576 3.47358 14 3.98957 14C4.15356 14 4.3232 13.9556 4.48153 13.8561L8.47093 11.3859L12.4858 8.90094C13.1714 8.47602 13.1714 7.52264 12.4858 7.09771L8.47093 4.61273L4.48295 2.14388C4.3232 2.04572 4.15497 2 3.98957 2Z" fill="black"/>
</svg>
