<svg width="200" height="200" viewBox="0 0 200 200" fill="none" xmlns="http://www.w3.org/2000/svg">
<path d="M71.8388 101.655H45.0055C41.5022 101.655 39.0855 98.1483 40.3322 94.8766L66.9955 24.8899C67.3562 23.9431 67.9961 23.1281 68.8304 22.5531C69.6646 21.9781 70.6539 21.6701 71.6672 21.6699H116.661C120.211 21.6699 122.631 25.2666 121.291 28.5549L105.766 66.6616H134.992C139.291 66.6616 141.584 71.7283 138.749 74.9583L67.0922 156.608C63.6088 160.578 57.1505 157.138 58.5022 152.033L71.8388 101.655Z" fill="#126EE3"/>
<path d="M192.966 152.715H161.359V121.279H152.965V152.715H121.357V161.109H152.965V192.888H161.359V161.109H192.966V152.715Z" fill="#126EE3"/>
</svg>
