<svg width="16" height="16" viewBox="0 0 16 16" fill="none" xmlns="http://www.w3.org/2000/svg">
<g clip-path="url(#clip0_12155_52852)">
<path d="M7.03377 16C7.01182 15.9999 6.98989 15.9983 6.96817 15.9952C5.48395 15.7956 4.08505 15.1852 2.92943 14.2327C1.7738 13.2802 0.907468 12.0236 0.428237 10.6048C-0.0509939 9.18594 -0.124036 7.66139 0.217358 6.20325C0.558752 4.74511 1.30098 3.41144 2.36026 2.35283C3.41953 1.29421 4.75365 0.552807 6.21201 0.212318C7.67036 -0.128172 9.19486 -0.0541843 10.6134 0.425926C12.0319 0.906037 13.288 1.77315 14.2398 2.92937C15.1915 4.08558 15.8011 5.48486 15.9997 6.9692C16.0161 7.10052 15.98 7.23298 15.8992 7.33783C15.8185 7.44268 15.6997 7.51144 15.5685 7.52918C15.5032 7.53795 15.4368 7.53375 15.373 7.51683C15.3093 7.4999 15.2495 7.47057 15.1972 7.43052C15.1448 7.39048 15.1008 7.34049 15.0678 7.28343C15.0347 7.22638 15.0132 7.16336 15.0046 7.098C14.83 5.79958 14.296 4.57579 13.4628 3.56474C12.6297 2.5537 11.5305 1.79565 10.2894 1.37614C9.04827 0.956628 7.7146 0.892358 6.43889 1.19058C5.16318 1.4888 3.99621 2.13765 3.06969 3.06389C2.14316 3.99014 1.49396 5.1569 1.19535 6.43252C0.89674 7.70814 0.960606 9.04183 1.37974 10.2831C1.79887 11.5243 2.55659 12.6237 3.56738 13.4572C4.57817 14.2907 5.8018 14.825 7.10017 15C7.22594 15.0175 7.34043 15.082 7.42059 15.1805C7.50074 15.279 7.54063 15.4042 7.53222 15.5309C7.5238 15.6576 7.46771 15.7764 7.37524 15.8634C7.28276 15.9505 7.16076 15.9992 7.03377 16ZM7.03377 12.4601C6.9917 12.4603 6.94978 12.4552 6.90898 12.4449C6.13523 12.2469 5.42758 11.8479 4.85771 11.2883C4.28784 10.7287 3.87602 10.0285 3.66396 9.25844C3.4519 8.48843 3.44714 7.67605 3.65017 6.90361C3.8532 6.13117 4.2568 5.42612 4.82008 4.8599C5.38335 4.29368 6.08629 3.8864 6.85766 3.67935C7.62903 3.47229 8.44143 3.47281 9.21253 3.68085C9.98364 3.88889 10.6861 4.29706 11.2486 4.864C11.8112 5.43094 12.2139 6.13651 12.4159 6.90921C12.4429 7.03566 12.42 7.16763 12.3521 7.27767C12.2843 7.38771 12.1766 7.46735 12.0515 7.50001C11.9264 7.53268 11.7935 7.51586 11.6805 7.45305C11.5675 7.39024 11.4831 7.28628 11.4447 7.16279C11.2874 6.56135 10.9739 6.01217 10.536 5.5709C10.0981 5.12963 9.55132 4.81195 8.95109 4.65005C8.35087 4.48814 7.71851 4.48776 7.11808 4.64894C6.51766 4.81012 5.97051 5.12714 5.53206 5.56788C5.09361 6.00862 4.77945 6.55742 4.62139 7.15867C4.46334 7.75993 4.46702 8.39228 4.63205 8.99165C4.79709 9.59103 5.11761 10.1361 5.56116 10.5717C6.0047 11.0074 6.55551 11.318 7.15776 11.4722C7.27727 11.5014 7.38187 11.5736 7.45165 11.6749C7.52142 11.7763 7.55152 11.8997 7.53621 12.0218C7.5209 12.1439 7.46125 12.2561 7.36861 12.337C7.27597 12.418 7.1568 12.4621 7.03377 12.4609V12.4601ZM11.2048 15.5272C10.981 15.5287 10.7633 15.455 10.5864 15.3179C10.4096 15.1808 10.2839 14.9883 10.2296 14.7712L9.08727 10.313C9.04294 10.1388 9.04629 9.95577 9.09694 9.78322C9.1476 9.61067 9.2437 9.45492 9.3752 9.33225C9.50669 9.20959 9.66875 9.12453 9.84439 9.08597C10.02 9.04742 10.2028 9.05678 10.3736 9.1131L14.7734 10.553C14.9539 10.612 15.114 10.721 15.235 10.8674C15.3561 11.0137 15.4331 11.1914 15.4572 11.3798C15.4814 11.5681 15.4516 11.7595 15.3713 11.9316C15.291 12.1037 15.1636 12.2495 15.0038 12.3521L13.2935 13.4521L12.0031 15.132C11.9101 15.2546 11.79 15.354 11.6522 15.4224C11.5144 15.4908 11.3626 15.5264 11.2088 15.5264L11.2048 15.5272ZM11.2048 14.5232L12.4951 12.8433C12.566 12.7521 12.6517 12.6734 12.7487 12.6105L14.459 11.5106L10.0632 10.0706L11.2 14.5216L11.2048 14.5232Z" fill="black"/>
</g>
<defs>
<clipPath id="clip0_12155_52852">
<rect width="16" height="16" fill="white"/>
</clipPath>
</defs>
</svg>
