<svg width="24" height="24" viewBox="0 0 24 24" fill="none" xmlns="http://www.w3.org/2000/svg">
  <g clip-path="url(#clip0_12120_1860)">
    <path
      d="M2.34375 0H21.6562C23.2188 0 24 0.78125 24 2.34375V21.6562C24 23.2188 23.2188 24 21.6562 24H2.34375C0.78125 24 0 23.2188 0 21.6562V2.34375C0 0.78125 0.78125 0 2.34375 0Z"
      fill="#07BAEA" />
    <path
      d="M7.17039 6.74365H14.2616C14.4063 6.74365 14.5451 6.80111 14.6474 6.90338C14.7497 7.00565 14.8072 7.14437 14.8073 7.28904C14.8073 7.36068 14.7932 7.43162 14.7657 7.49781C14.7383 7.56399 14.6981 7.62413 14.6474 7.67478C14.5968 7.72542 14.5366 7.76559 14.4704 7.79299C14.4042 7.82038 14.3333 7.83446 14.2616 7.83443H7.17039C7.09877 7.83443 7.02785 7.82033 6.96168 7.79292C6.89551 7.76551 6.83539 7.72534 6.78474 7.67469C6.7341 7.62405 6.69392 7.56392 6.66651 7.49775C6.63911 7.43158 6.625 7.36066 6.625 7.28904C6.625 7.1444 6.68246 7.00567 6.78474 6.90339C6.88702 6.80111 7.02574 6.74365 7.17039 6.74365ZM7.17039 9.41271H11.1447C11.2893 9.41271 11.4281 9.47018 11.5303 9.57246C11.6326 9.67474 11.6901 9.81346 11.6901 9.95811C11.6901 10.0297 11.676 10.1007 11.6486 10.1669C11.6212 10.2331 11.5811 10.2932 11.5304 10.3439C11.4798 10.3946 11.4196 10.4348 11.3535 10.4622C11.2873 10.4896 11.2163 10.5037 11.1447 10.5037H7.17039C7.09875 10.5037 7.02781 10.4896 6.96162 10.4622C6.89544 10.4348 6.83531 10.3946 6.78466 10.3439C6.73401 10.2932 6.69384 10.2331 6.66645 10.1669C6.63905 10.1007 6.62497 10.0297 6.625 9.95811C6.625 9.81346 6.68246 9.67474 6.78474 9.57246C6.88702 9.47018 7.02574 9.41271 7.17039 9.41271Z"
      fill="white" />
    <path
      d="M7.17039 12.0815H9.19656C9.56016 12.0815 9.74195 12.2633 9.74195 12.6269V12.6272C9.74195 12.9908 9.56016 13.1726 9.19656 13.1726H7.17039C6.8068 13.1726 6.625 12.9908 6.625 12.6272V12.6269C6.625 12.2633 6.8068 12.0815 7.17039 12.0815Z"
      fill="white" />
    <path
      d="M11.5727 19.3615H5.45391C4.75992 19.3615 4.19531 18.8018 4.19531 18.1139V4.88039C4.19531 4.1925 4.75992 3.63281 5.45391 3.63281H17.6913C18.3853 3.63281 18.9499 4.1925 18.9499 4.88039V11.4973H17.6374V4.94531H5.50781V18.049H11.5727V19.3615Z"
      fill="white" />
    <path
      d="M16.0547 16.5367C14.3487 16.5367 12.9609 15.1499 12.9609 13.4453H14.2734C14.2788 13.9136 14.4686 14.3609 14.8017 14.6901C15.1347 15.0194 15.5841 15.204 16.0525 15.204C16.5208 15.204 16.9702 15.0194 17.3033 14.6901C17.6363 14.3609 17.8261 13.9136 17.8315 13.4453H19.144C19.1449 15.1499 17.7581 16.5367 16.0547 16.5367Z"
      fill="white" />
    <path
      d="M19.1449 18.7833H17.8324C17.827 18.315 17.6372 17.8677 17.3042 17.5385C16.9712 17.2092 16.5217 17.0246 16.0534 17.0246C15.5851 17.0246 15.1356 17.2092 14.8026 17.5385C14.4695 17.8677 14.2797 18.315 14.2744 18.7833H12.9609C12.9609 17.0787 14.3477 15.6919 16.0526 15.6919C17.7574 15.6919 19.1449 17.0787 19.1449 18.7833Z"
      fill="#FEFEFE" />
    <path
      d="M12.9818 12.4712H19.1351V13.4647H12.9818V12.4712ZM12.9727 18.7002H19.1259V19.6937H12.9727V18.7002Z"
      fill="white" />
  </g>
  <defs>
    <clipPath id="clip0_12120_1860">
      <rect width="24" height="24" fill="white" />
    </clipPath>
  </defs>
</svg>