<svg width="24" height="24" viewBox="0 0 24 24" fill="none" xmlns="http://www.w3.org/2000/svg">
<g clip-path="url(#clip0_40_299)">
<path d="M2.34375 0H21.6562C23.2188 0 24 0.78125 24 2.34375V21.6562C24 23.2188 23.2188 24 21.6562 24H2.34375C0.78125 24 0 23.2188 0 21.6562V2.34375C0 0.78125 0.78125 0 2.34375 0Z" fill="#07BAEA"/>
<path d="M9.83714 13.6351C9.91392 13.5749 10.0076 13.5442 10.1028 13.5481C10.198 13.5519 10.2892 13.5901 10.3614 13.6564L10.4229 13.7266C10.4786 13.8043 10.5086 13.8988 10.5086 13.9979V17.2224H17.1686C17.3895 17.2224 17.6013 17.316 17.7575 17.4827C17.9137 17.6494 18.0014 17.8755 18.0014 18.1112C18.0014 18.3469 17.9137 18.573 17.7575 18.7397C17.6013 18.9064 17.3895 19 17.1686 19H6.42857L6.33143 18.9893C6.26085 18.9717 6.19573 18.9349 6.14236 18.8825C6.08899 18.8302 6.04918 18.764 6.02677 18.6905C6.00437 18.6169 6.00012 18.5384 6.01445 18.4625C6.02878 18.3867 6.0612 18.3161 6.10857 18.2575L9.76571 13.7052L9.83714 13.6351ZM6.13 5C8.08714 5 8.69286 5.72111 8.69286 7.48655C8.69286 9.3709 7.94429 10.0478 6.13 10.0478H5.25714V12.4703H4V5H6.13ZM11.77 5C13.7086 5 15.0043 5.62507 15.0043 8.73516C15.0043 11.6196 13.7086 12.4703 11.77 12.4703H9.61V5H11.77ZM20 5V6.22727H17.3143V8.19699H19.8086V9.42426H17.3129V12.4703H16.0557V5H20ZM11.7114 6.19525H10.8686V11.2537H11.7114C12.9971 11.2537 13.7086 10.7049 13.7086 8.73516C13.7086 6.65719 12.9686 6.19525 11.7114 6.19525ZM5.97714 6.14037H5.25714V8.90744H5.97714C7.05143 8.90744 7.40571 8.5949 7.40571 7.50789C7.40571 6.48644 7.04143 6.14037 5.97714 6.14037Z" fill="white"/>
</g>
<defs>
<clipPath id="clip0_40_299">
<rect width="24" height="24" fill="white"/>
</clipPath>
</defs>
</svg>
