<svg width="24" height="24" viewBox="0 0 24 24" fill="none" xmlns="http://www.w3.org/2000/svg">
<g clip-path="url(#clip0_1_205)">
<path d="M22.4196 0.0117035H1.58085C0.718552 0.0117035 0.0239258 0.70633 0.0239258 1.56862V22.4074C0.0239258 23.2697 0.718552 23.9643 1.58085 23.9643H22.4196C23.2819 23.9643 23.9766 23.2697 23.9766 22.4074V1.56862C23.9766 0.70633 23.2819 0.0117035 22.4196 0.0117035Z" fill="#07BAEA"/>
<g clip-path="url(#clip1_1_205)">
<path d="M19.7778 15.3491V18.123C19.7778 19.0406 19.0311 19.7873 18.1134 19.7873H14.785C14.4782 19.7873 14.2302 19.5393 14.2302 19.2325C14.2302 18.9257 14.4782 18.6777 14.785 18.6777H18.1136C18.4198 18.6777 18.6684 18.4292 18.6684 18.123V15.3491C18.6684 15.0423 18.9163 14.7943 19.2233 14.7943C19.5299 14.7943 19.7778 15.0423 19.7778 15.3491ZM8.68 18.6777H5.90612C5.60052 18.6777 5.35144 18.4292 5.35144 18.123V15.3491C5.35144 15.0423 5.10297 14.7943 4.7966 14.7943C4.49039 14.7943 4.24192 15.0423 4.24192 15.3491V18.123C4.24192 19.0406 4.98856 19.7873 5.90612 19.7873H8.68C8.98621 19.7873 9.23483 19.5393 9.23483 19.2325C9.23483 18.9257 8.98621 18.6777 8.68 18.6777ZM4.78137 9.19839C5.08758 9.19839 5.3362 8.94992 5.3362 8.64371V5.86983C5.3362 5.56408 5.58529 5.31499 5.89089 5.31499H8.66476C8.97097 5.31499 9.2196 5.06652 9.2196 4.76031C9.2196 4.4541 8.97113 4.20547 8.66476 4.20547H5.89089C4.97332 4.20547 4.22668 4.95226 4.22668 5.86983V8.64371C4.22668 8.94992 4.47516 9.19839 4.78137 9.19839ZM18.1288 4.20547H14.8003C14.4934 4.20547 14.2454 4.45395 14.2454 4.76031C14.2454 5.06652 14.4934 5.31499 14.8003 5.31499H18.1288C18.435 5.31499 18.6837 5.56408 18.6837 5.86983V8.64371C18.6837 8.94992 18.9315 9.19839 19.2385 9.19839C19.5453 9.19839 19.7932 8.94992 19.7932 8.64371V5.86983C19.793 4.95226 19.0464 4.20547 18.1288 4.20547ZM10.0409 11.9662C10.0409 13.453 9.19995 14.3427 7.96292 14.3427C6.72588 14.3427 5.88495 13.453 5.88495 11.9662C5.88495 10.4793 6.72588 9.63836 7.96292 9.63836C9.19995 9.63836 10.0409 10.4854 10.0409 11.9662ZM8.93182 11.9662C8.93182 11.0887 8.5601 10.5707 7.96292 10.5707C7.36573 10.5707 7.0001 11.0887 7.0001 11.9662C7.0001 12.8498 7.36573 13.4043 7.96292 13.4043C8.5601 13.4043 8.93182 12.8498 8.93182 11.9662ZM12.6917 13.4043C12.0518 13.4043 11.6374 12.8802 11.6374 11.9784C11.6374 11.0948 12.1189 10.5707 12.7039 10.5707C13.0268 10.5707 13.2645 10.717 13.4899 10.9241L14.0628 10.2295C13.752 9.91258 13.2767 9.63836 12.6856 9.63836C11.5339 9.63836 10.5223 10.5037 10.5223 12.0149C10.5223 13.5505 11.4973 14.3427 12.649 14.3427C13.2401 14.3427 13.7459 14.1173 14.1298 13.6724L13.557 12.9899C13.3437 13.2215 13.0512 13.4043 12.6917 13.4043ZM17.2985 12.4598L18.3101 14.2574H17.0914L16.2565 12.6609H15.7324V14.2574H14.6417V9.72367H16.3053C17.2742 9.72367 18.0785 10.0527 18.0785 11.1496C18.0785 11.8138 17.7678 12.2404 17.2985 12.4598ZM17.0121 11.1496C17.0121 10.723 16.7379 10.5829 16.2199 10.5829H15.7324V11.8016H16.2199C16.7379 11.8016 17.0121 11.5762 17.0121 11.1496Z" fill="white"/>
</g>
</g>
<defs>
<clipPath id="clip0_1_205">
<rect width="24" height="24" fill="white"/>
</clipPath>
<clipPath id="clip1_1_205">
<rect width="15.6" height="15.6" fill="white" transform="translate(4.20001 4.2)"/>
</clipPath>
</defs>
</svg>
