<svg version="1.0" xmlns="http://www.w3.org/2000/svg" viewBox="0 0 200 200" width="1em" height="1em" fill="currentColor" xml:space="preserve" style="enable-background:new 0 0 200 200"><path d="M74.8 88.3h-58c-6.6 0-12-5.4-12-12v-58c0-6.6 5.4-12 12-12h58c6.6 0 12 5.4 12 12v58c0 6.6-5.4 12-12 12zm-58-70v58h58v-58h-58zM182.4 88.3h-58c-6.6 0-12-5.4-12-12v-58c0-6.6 5.4-12 12-12h58c6.6 0 12 5.4 12 12v58c0 6.6-5.4 12-12 12zm-58-70v58h58v-58h-58zM74.8 194.1h-58c-6.6 0-12-5.4-12-12v-58c0-6.6 5.4-12 12-12h58c6.6 0 12 5.4 12 12v58c0 6.6-5.4 12-12 12zm-58-70v58h58v-58h-58zM182.4 194.1h-58c-6.6 0-12-5.4-12-12v-58c0-6.6 5.4-12 12-12h58c6.6 0 12 5.4 12 12v58c0 6.6-5.4 12-12 12zm-58-70v58h58v-58h-58z"/></svg>