<svg width="1em" height="1em" viewBox="0 0 200 200" fill="currentColor"
    xmlns="http://www.w3.org/2000/svg">
    <path d="M181.75 150.792L158.133 127.3C156.025 125.2 152.016 124.942 150.875 127.675C150.566 128.409 150.491 130.475 150.491 130.475V146.35H70.5418C65.4391 146.359 60.5414 144.344 56.9231 140.746C53.3049 137.148 51.2617 132.261 51.2418 127.159C51.2595 122.055 53.3017 117.166 56.9202 113.566C60.5387 109.967 65.4377 107.95 70.5418 107.959H143.058C162.841 107.959 178.933 91.9587 178.933 72.2837C178.933 52.6087 162.841 36.6003 143.058 36.6003H72.0834C70.2859 30.8232 66.6879 25.7725 61.8152 22.1861C56.9425 18.5998 51.0504 16.6658 45.0002 16.667C29.3669 16.667 16.667 29.3087 16.667 44.842C16.667 60.3837 29.3753 73.017 45.0002 73.017C51.0504 73.0181 56.9425 71.0842 61.8152 67.4979C66.6879 63.9115 70.2859 58.8608 72.0834 53.0837H143.058C148.162 53.0748 153.061 55.0916 156.68 58.6914C160.298 62.2911 162.34 67.1796 162.358 72.2837C162.338 77.3863 160.295 82.2726 156.677 85.8706C153.058 89.4685 148.161 91.4842 143.058 91.4753H70.5418C50.7585 91.4753 34.6669 107.475 34.6669 127.159C34.6669 146.825 50.7502 162.834 70.5418 162.834H150.491V177.9C150.491 177.9 150.491 180.209 150.875 181.125C152.016 183.867 156.025 183.984 158.125 181.875L181.75 158.392C182.252 157.895 182.65 157.303 182.922 156.65C183.194 155.998 183.334 155.299 183.334 154.592C183.334 153.885 183.194 153.186 182.922 152.534C182.65 151.881 182.252 151.289 181.75 150.792ZM45.0002 56.5337C38.5169 56.5337 33.2503 51.2837 33.2503 44.842C33.2503 38.4003 38.5086 33.167 45.0002 33.167C51.4752 33.167 56.7502 38.4087 56.7502 44.8503C56.7502 51.3003 51.4752 56.542 45.0002 56.542V56.5337Z" fill="currentColor"/>
</svg>
