<svg width="32" height="32" viewBox="0 0 32 32" fill="none" xmlns="http://www.w3.org/2000/svg">
    <path d="M14.2224 19.4723C14.8935 19.4723 15.5113 19.71 16.0002 20.1046V15.8851H11.8046C12.2046 15.3918 12.4446 14.7596 12.4446 14.069C12.4446 12.4861 11.1691 11.1992 9.6002 11.1992C8.03131 11.1992 6.75575 12.4861 6.75575 14.069C6.75575 14.7596 6.99575 15.3918 7.39575 15.8851H3.2002V27.3643C3.2002 28.158 3.83575 28.7992 4.62242 28.7992H16.0002V24.5797C15.5113 24.9743 14.8935 25.212 14.2224 25.212C12.6535 25.212 11.378 23.925 11.378 22.3421C11.378 20.7593 12.6535 19.4723 14.2224 19.4723Z" fill="#D3ADF7"/>
    <path d="M12.5271 14.2214C12.5271 14.8926 12.2894 15.5103 11.8948 15.9992H16.1143V11.8037C16.6076 12.2037 17.2398 12.4437 17.9304 12.4437C19.5133 12.4437 20.8002 11.1681 20.8002 9.59922C20.8002 8.03033 19.5133 6.75477 17.9304 6.75477C17.2398 6.75477 16.6076 6.99477 16.1143 7.39477V3.19922H4.6351C3.84142 3.19922 3.2002 3.83477 3.2002 4.62144V15.9992H7.41971C7.02511 15.5103 6.78746 14.8926 6.78746 14.2214C6.78746 12.6526 8.07439 11.377 9.65727 11.377C11.2401 11.377 12.5271 12.6526 12.5271 14.2214Z" fill="#EFDBFF"/>
    <path d="M19.4733 17.7778C19.4733 17.1067 19.711 16.4889 20.1056 16H15.8861V20.1956C15.3928 19.7956 14.7606 19.5556 14.07 19.5556C12.4871 19.5556 11.2002 20.8311 11.2002 22.4C11.2002 23.9689 12.4871 25.2444 14.07 25.2444C14.7606 25.2444 15.3928 25.0044 15.8861 24.6044V28.8H27.3653C28.159 28.8 28.8002 28.1644 28.8002 27.3778V16H24.5807C24.9753 16.4889 25.2129 17.1067 25.2129 17.7778C25.2129 19.3467 23.926 20.6222 22.3431 20.6222C20.7602 20.6222 19.4733 19.3467 19.4733 17.7778Z" fill="#B37FE8"/>
    <path d="M19.7778 10.3284C19.1067 10.3284 18.4889 10.0908 18 9.69619L18 13.9157L22.1956 13.9157C21.7956 14.409 21.5556 15.0412 21.5556 15.7318C21.5556 17.3146 22.8311 18.6016 24.4 18.6016C25.9689 18.6016 27.2444 17.3146 27.2444 15.7318C27.2444 15.0412 27.0044 14.409 26.6044 13.9157L30.8 13.9157L30.8 2.43647C30.8 1.64279 30.1644 1.00156 29.3778 1.00156L18 1.00156L18 5.22108C18.4889 4.82648 19.1067 4.58882 19.7778 4.58882C21.3467 4.58882 22.6222 5.87575 22.6222 7.45863C22.6222 9.04151 21.3467 10.3284 19.7778 10.3284Z" fill="#9148F4"/>
</svg>
