<?xml version="1.0" standalone="no"?><!DOCTYPE svg PUBLIC "-//W3C//DTD SVG 1.1//EN" "http://www.w3.org/Graphics/SVG/1.1/DTD/svg11.dtd"><svg t="1722324157769" class="icon" viewBox="0 0 1024 1024" version="1.1" xmlns="http://www.w3.org/2000/svg" p-id="8335" xmlns:xlink="http://www.w3.org/1999/xlink" width="200" height="200"><path d="M736.12288 169.97888h-61.44v-43.43296c0-30.95552-25.18528-56.14592-56.14592-56.14592H401.37728c-30.95552 0-56.14592 25.18528-56.14592 56.14592v43.43296h-61.44v-43.43296c0-64.83968 52.74624-117.58592 117.58592-117.58592h217.1648c64.83456 0 117.58592 52.74624 117.58592 117.58592l-0.00512 43.43296z" fill="#505050" p-id="8336"></path><path d="M987.71968 191.6928c0 16.96768-14.6688 30.72-32.76288 30.72H64.95744c-18.09408 0-32.76288-13.75232-32.76288-30.72s14.6688-30.72 32.76288-30.72h889.99936c18.09408 0 32.76288 13.75744 32.76288 30.72zM398.47936 420.33664c16.96768 0 30.72 11.66848 30.72 26.0608v355.31776c0 14.39232-13.75232 26.0608-30.72 26.0608s-30.72-11.66848-30.72-26.0608V446.39232c0-14.39232 13.75744-26.05568 30.72-26.05568zM608.86016 420.33664c16.96768 0 30.72 11.66848 30.72 26.0608v355.31776c0 14.39232-13.75232 26.0608-30.72 26.0608s-30.72-11.66848-30.72-26.0608V446.39232c0-14.39232 13.75232-26.05568 30.72-26.05568z" fill="#505050" p-id="8337"></path><path d="M826.42432 331.42784l-37.6832 565.28384c-1.96096 29.3888-26.56768 52.40832-56.02304 52.40832H287.19616c-29.45536 0-54.06208-23.01952-56.01792-52.40832l-37.6832-565.28384H131.91168l37.95968 569.3696c4.10112 61.54752 55.63392 109.76256 117.3248 109.76256h445.52192c61.68576 0 113.22368-48.20992 117.3248-109.75744l37.95968-569.37472h-61.57824z" fill="#505050" p-id="8338"></path></svg>