<svg width="16" height="16" viewBox="0 0 16 16" fill="none" xmlns="http://www.w3.org/2000/svg">
<g clip-path="url(#clip0_12155_52858)">
<path d="M1.94856 11.6753C1.55368 11.2834 1.35624 10.7936 1.35624 10.2058C1.35624 9.6671 1.55368 9.12822 1.94856 8.73646C2.34352 8.34462 2.6776 8.30702 3.26992 8.30702H4.30656V7.12014H3.26992C1.54224 7.12014 0.160156 8.49158 0.160156 10.2058C0.160156 11.9201 1.54224 13.2916 3.26992 13.2916V14.3201L4.80016 12.8017L3.26992 11.0761V12.1047C2.72696 12.1047 2.34352 12.0671 1.94856 11.6753V11.6753ZM14.0518 6.23534C14.4466 5.84342 14.6441 5.35358 14.6441 4.76582C14.6441 4.2271 14.4466 3.68822 14.0518 3.29646C13.6568 2.90462 13.3227 2.86702 12.7304 2.86702H11.6938V1.68014H12.7303C14.4581 1.68014 15.8402 3.05158 15.8402 4.76582C15.8402 6.48014 14.4581 7.85158 12.7304 7.85158V8.88014L11.2002 7.36174L12.7304 5.63606V6.6647C13.2734 6.6647 13.6568 6.6271 14.0518 6.23526V6.23534ZM9.92016 6.32014C10.0899 6.32014 10.2527 6.38756 10.3727 6.50759C10.4927 6.62761 10.5602 6.7904 10.5602 6.96014V9.04014C10.5602 9.12418 10.5436 9.20741 10.5114 9.28505C10.4793 9.3627 10.4321 9.43325 10.3727 9.49268C10.3133 9.55211 10.2427 9.59926 10.1651 9.63142C10.0874 9.66358 10.0042 9.68014 9.92016 9.68014H6.08016C5.99611 9.68014 5.91289 9.66358 5.83524 9.63142C5.75759 9.59926 5.68704 9.55211 5.62761 9.49268C5.56818 9.43325 5.52104 9.3627 5.48887 9.28505C5.45671 9.20741 5.44016 9.12418 5.44016 9.04014V6.96014C5.44016 6.7904 5.50759 6.62761 5.62761 6.50759C5.74763 6.38756 5.91042 6.32014 6.08016 6.32014H9.92016ZM9.44016 7.44014H6.56016V8.56014H9.44016V7.44014ZM9.92016 0.640137C10.0899 0.640137 10.2527 0.707565 10.3727 0.827588C10.4927 0.947612 10.5602 1.1104 10.5602 1.28014V3.36014C10.5602 3.52987 10.4927 3.69266 10.3727 3.81268C10.2527 3.93271 10.0899 4.00014 9.92016 4.00014H6.08016C5.91042 4.00014 5.74763 3.93271 5.62761 3.81268C5.50759 3.69266 5.44016 3.52987 5.44016 3.36014V1.28014C5.44016 1.1104 5.50759 0.947612 5.62761 0.827588C5.74763 0.707565 5.91042 0.640137 6.08016 0.640137H9.92016ZM9.44016 1.76014H6.56016V2.88014H9.44016V1.76014ZM9.92016 12.0001C10.0899 12.0001 10.2527 12.0676 10.3727 12.1876C10.4927 12.3076 10.5602 12.4704 10.5602 12.6401V14.7201C10.5602 14.8899 10.4927 15.0527 10.3727 15.1727C10.2527 15.2927 10.0899 15.3601 9.92016 15.3601H6.08016C5.91042 15.3601 5.74763 15.2927 5.62761 15.1727C5.50759 15.0527 5.44016 14.8899 5.44016 14.7201V12.6401C5.44016 12.4704 5.50759 12.3076 5.62761 12.1876C5.74763 12.0676 5.91042 12.0001 6.08016 12.0001H9.92016ZM9.44016 13.1201H6.56016V14.2401H9.44016V13.1201Z" fill="black"/>
</g>
<defs>
<clipPath id="clip0_12155_52858">
<rect width="16" height="16" fill="white"/>
</clipPath>
</defs>
</svg>
