<?xml version="1.0" standalone="no"?><!DOCTYPE svg PUBLIC "-//W3C//DTD SVG 1.1//EN" "http://www.w3.org/Graphics/SVG/1.1/DTD/svg11.dtd"><svg t="1756364800661" class="icon" viewBox="0 0 1024 1024" version="1.1" xmlns="http://www.w3.org/2000/svg" p-id="9164" id="mx_n_1756364800662" width="32" height="32" xmlns:xlink="http://www.w3.org/1999/xlink"><path d="M46.9248 512C46.9248 255.1552 255.1552 46.9248 512 46.9248c256.8448 0 465.0752 208.2304 465.0752 465.0752 0 256.8448-208.2304 465.0752-465.0752 465.0752C255.1552 977.0752 46.9248 768.8448 46.9248 512zM445.696 129.3824C275.2 158.72 142.72 299.2384 125.6192 473.6h179.1488c10.2144-131.1232 59.264-242.1504 140.9024-344.2176z m132.6592 0c81.664 102.0672 130.688 213.0944 140.8768 344.2176h179.2c-17.152-174.3616-149.6064-314.88-320.0768-344.2176zM642.2016 473.6A614.4 614.4 0 0 0 512 144.5888 614.4 614.4 0 0 0 381.7984 473.6h260.4032z m-260.4032 76.8A614.4256 614.4256 0 0 0 512 879.4112 614.4 614.4 0 0 0 642.2016 550.4H381.7984z m-77.0048 0h-179.2c17.152 174.336 149.5808 314.88 320.0768 344.2176-81.664-102.0672-130.688-213.0944-140.8768-344.2176zM578.304 894.6176c170.496-29.3376 302.9504-169.856 320.0512-344.2176h-179.1744c-10.1888 131.1232-59.2128 242.1504-140.8768 344.2176z" fill="#2589FF" p-id="9165"></path></svg>