<svg width="16" height="16" viewBox="0 0 16 16" fill="none" xmlns="http://www.w3.org/2000/svg">
<path d="M11.6619 8.4248H4.33815C4.15123 8.4248 4 8.20119 4 7.9248C4 7.64842 4.15123 7.4248 4.33815 7.4248H11.6619C11.8488 7.4248 12 7.64842 12 7.9248C12 8.20119 11.8488 8.4248 11.6619 8.4248Z" fill="#146DE4"/>
<path d="M7.93896 12C7.66258 12 7.43896 11.8487 7.43896 11.6618V4.33822C7.43896 4.15126 7.66258 4 7.93896 4C8.21535 4 8.43896 4.15126 8.43896 4.33822V11.6618C8.43896 11.8487 8.21535 12 7.93896 12Z" fill="#146DE4"/>
<path d="M8 15C7.05612 15 6.13946 14.8143 5.27551 14.4496C4.44218 14.0969 3.69388 13.5925 3.05102 12.9501C2.40816 12.3077 1.90306 11.5579 1.55102 10.7247C1.18537 9.86076 1 8.94401 1 8C1 7.05599 1.18537 6.13754 1.55102 5.27532C1.90306 4.44206 2.40816 3.69231 3.05102 3.0499C3.69388 2.4075 4.44218 1.90312 5.27551 1.55039C6.13946 1.18574 7.05442 1 8 1C8.94388 1 9.86054 1.18574 10.7245 1.55039C11.5578 1.90312 12.3061 2.4075 12.949 3.0499C13.5918 3.69231 14.0969 4.44206 14.449 5.27532C14.8146 6.13924 15 7.05599 15 8C15 8.94401 14.8146 9.86246 14.449 10.7247C14.0969 11.5579 13.5918 12.3077 12.949 12.9501C12.3061 13.5925 11.5578 14.0969 10.7245 14.4496C9.86054 14.816 8.94388 15 8 15ZM8 1.69864C4.52381 1.69864 1.69728 4.52556 1.69728 8C1.69728 11.4744 4.52551 14.3014 8 14.3014C11.4762 14.3014 14.3027 11.4744 14.3027 8C14.3027 4.52556 11.4762 1.69864 8 1.69864Z" fill="#146DE4"/>
</svg>
