<svg width="16" height="16" viewBox="0 0 16 16" fill="none" xmlns="http://www.w3.org/2000/svg">
<g clip-path="url(#clip0_12210_8650)">
<path d="M12.5 1C12.6326 1 12.7598 1.05268 12.8536 1.14645C12.9473 1.24021 13 1.36739 13 1.5C13 1.63261 12.9473 1.75979 12.8536 1.85355C12.7598 1.94732 12.6326 2 12.5 2H11.5V15H12.5C12.6326 15 12.7598 15.0527 12.8536 15.1464C12.9473 15.2402 13 15.3674 13 15.5C13 15.6326 12.9473 15.7598 12.8536 15.8536C12.7598 15.9473 12.6326 16 12.5 16H9.5C9.36739 16 9.24021 15.9473 9.14645 15.8536C9.05268 15.7598 9 15.6326 9 15.5C9 15.3674 9.05268 15.2402 9.14645 15.1464C9.24021 15.0527 9.36739 15 9.5 15H10.5V2H9.5C9.36739 2 9.24021 1.94732 9.14645 1.85355C9.05268 1.75979 9 1.63261 9 1.5C9 1.36739 9.05268 1.24021 9.14645 1.14645C9.24021 1.05268 9.36739 1 9.5 1H12.5ZM9 3.5V3.504C9.06566 3.504 9.13068 3.51693 9.19134 3.54206C9.252 3.56719 9.30712 3.60402 9.35355 3.65045C9.39998 3.69688 9.43681 3.752 9.46194 3.81266C9.48707 3.87332 9.5 3.93834 9.5 4.004C9.5 4.06966 9.48707 4.13468 9.46194 4.19534C9.43681 4.256 9.39998 4.31112 9.35355 4.35755C9.30712 4.40398 9.252 4.44081 9.19134 4.46594C9.13068 4.49107 9.06566 4.504 9 4.504H7.5L7.455 4.5H3C2.49542 4.49984 2.00943 4.69041 1.63945 5.0335C1.26947 5.37659 1.04284 5.84684 1.005 6.35L1 6.5V9.5C0.99984 10.0046 1.19041 10.4906 1.5335 10.8605C1.87659 11.2305 2.34684 11.4572 2.85 11.495L3 11.5H9C9.13261 11.5 9.25979 11.5527 9.35355 11.6464C9.44732 11.7402 9.5 11.8674 9.5 12C9.5 12.1326 9.44732 12.2598 9.35355 12.3536C9.25979 12.4473 9.13261 12.5 9 12.5H3C2.23479 12.5 1.49849 12.2077 0.941739 11.6827C0.384993 11.1578 0.0498924 10.4399 0.005 9.676L4.66045e-09 9.5V6.5C-4.26217e-05 5.73479 0.292325 4.99849 0.817284 4.44174C1.34224 3.88499 2.06011 3.54989 2.824 3.505L3 3.5H9ZM13 3.5C13.7652 3.49996 14.5015 3.79233 15.0583 4.31728C15.615 4.84224 15.9501 5.56011 15.995 6.324L16 6.5V9.5C16 10.2652 15.7077 11.0015 15.1827 11.5583C14.6578 12.115 13.9399 12.4501 13.176 12.495L13 12.5C12.8749 12.5007 12.754 12.4545 12.6613 12.3705C12.5686 12.2865 12.5107 12.1708 12.4992 12.0462C12.4876 11.9216 12.5232 11.7972 12.5989 11.6976C12.6746 11.5979 12.7849 11.5303 12.908 11.508L12.998 11.5C13.5029 11.5007 13.9894 11.3103 14.3598 10.9672C14.7302 10.624 14.9571 10.1535 14.995 9.65L15 9.5V6.5C15.0002 5.99542 14.8096 5.50943 14.4665 5.13945C14.1234 4.76947 13.6532 4.54284 13.15 4.505L13 4.5C12.9321 4.51223 12.8624 4.51026 12.7952 4.49423C12.7281 4.47819 12.665 4.44844 12.61 4.40683C12.5549 4.36522 12.5091 4.31267 12.4753 4.25247C12.4415 4.19228 12.4206 4.12575 12.4138 4.05707C12.407 3.98839 12.4145 3.91905 12.4359 3.85341C12.4572 3.78777 12.4919 3.72726 12.5377 3.67569C12.5836 3.62411 12.6396 3.58259 12.7023 3.55373C12.765 3.52487 12.833 3.5093 12.902 3.508L13 3.5ZM3.75 7.25C3.94891 7.25 4.13968 7.32902 4.28033 7.46967C4.42098 7.61032 4.5 7.80109 4.5 8C4.5 8.19891 4.42098 8.38968 4.28033 8.53033C4.13968 8.67098 3.94891 8.75 3.75 8.75C3.55109 8.75 3.36032 8.67098 3.21967 8.53033C3.07902 8.38968 3 8.19891 3 8C3 7.80109 3.07902 7.61032 3.21967 7.46967C3.36032 7.32902 3.55109 7.25 3.75 7.25ZM8.5 7.5C8.63261 7.5 8.75979 7.55268 8.85355 7.64645C8.94732 7.74021 9 7.86739 9 8C9 8.13261 8.94732 8.25979 8.85355 8.35355C8.75979 8.44732 8.63261 8.5 8.5 8.5H5.5C5.36739 8.5 5.24021 8.44732 5.14645 8.35355C5.05268 8.25979 5 8.13261 5 8C5 7.86739 5.05268 7.74021 5.14645 7.64645C5.24021 7.55268 5.36739 7.5 5.5 7.5H8.5Z" fill="black"/>
</g>
<defs>
<clipPath id="clip0_12210_8650">
<rect width="16" height="16" fill="white"/>
</clipPath>
</defs>
</svg>
