<?xml version="1.0" standalone="no"?><!DOCTYPE svg PUBLIC "-//W3C//DTD SVG 1.1//EN" "http://www.w3.org/Graphics/SVG/1.1/DTD/svg11.dtd"><svg t="1655275775478" class="icon" viewBox="0 0 1024 1024" version="1.1" xmlns="http://www.w3.org/2000/svg" p-id="4068" xmlns:xlink="http://www.w3.org/1999/xlink" width="200" height="200"><defs><style type="text/css">@font-face { font-family: "feedback-iconfont"; src: url("//at.alicdn.com/t/font_1031158_u69w8yhxdu.woff2?t=1630033759944") format("woff2"), url("//at.alicdn.com/t/font_1031158_u69w8yhxdu.woff?t=1630033759944") format("woff"), url("//at.alicdn.com/t/font_1031158_u69w8yhxdu.ttf?t=1630033759944") format("truetype"); }
</style></defs><path d="M429.24544 102.66624c182.912 0 331.7248 148.79744 331.7248 331.69408 0 182.88128-148.8128 331.66336-331.7248 331.66336-182.89664 0-331.69408-148.78208-331.69408-331.66336 0-182.89664 148.79232-331.69408 331.69408-331.69408m0-63.4112c-218.19904 0-395.1104 176.91136-395.1104 395.1104C34.13504 652.59008 211.0464 829.44 429.24544 829.44c218.2912 0 395.14112-176.84992 395.14112-395.07456 0-218.19904-176.84992-395.1104-395.14112-395.1104z" fill="#505050" p-id="4069"></path><path d="M675.80928 727.08608l47.06304-47.06304 263.99744 263.99744a15.36 15.36 0 0 1 0 21.72416l-25.344 25.344a15.36 15.36 0 0 1-21.72416 0l-263.99232-264.00256z" fill="#505050" p-id="4070"></path></svg>