<?xml version="1.0" standalone="no"?><!DOCTYPE svg PUBLIC "-//W3C//DTD SVG 1.1//EN" "http://www.w3.org/Graphics/SVG/1.1/DTD/svg11.dtd"><svg t="1737110208795" class="icon" viewBox="0 0 1024 1024" version="1.1" xmlns="http://www.w3.org/2000/svg" p-id="34215" xmlns:xlink="http://www.w3.org/1999/xlink" width="200" height="200"><path d="M739.968 172.16h-61.44v-43.392A56.192 56.192 0 0 0 622.4 72.64H405.248a56.192 56.192 0 0 0-56.192 56.128v43.456h-61.44v-43.456A117.76 117.76 0 0 1 405.248 11.2H622.4a117.76 117.76 0 0 1 117.568 117.568v43.456z" p-id="34216"></path><path d="M991.552 193.92c0 16.96-14.72 30.72-32.768 30.72H68.8c-18.112 0-32.768-13.76-32.768-30.72S50.752 163.2 68.8 163.2h889.984c18.112 0 32.768 13.76 32.768 30.72zM402.304 422.592c16.96 0 30.72 11.648 30.72 26.048v355.328c0 14.4-13.76 26.048-30.72 26.048s-30.72-11.648-30.72-26.048V448.64c0-14.4 13.76-26.048 30.72-26.048z m210.368 0c17.024 0 30.72 11.648 30.72 26.048v355.328c0 14.4-13.696 26.048-30.72 26.048-16.96 0-30.72-11.648-30.72-26.048V448.64c0-14.4 13.76-26.048 30.72-26.048z" p-id="34217"></path><path d="M830.272 333.696l-37.696 565.248a56.32 56.32 0 0 1-56 52.416H291.008a56.32 56.32 0 0 1-56-52.416l-37.696-565.248h-61.568l37.952 569.344c4.096 61.568 55.68 109.76 117.312 109.76h445.568c61.696 0 113.216-48.192 117.312-109.76l37.952-569.344h-61.568z" p-id="34218"></path></svg>