<svg width="200" height="200" viewBox="0 0 200 200" fill="none"
    xmlns="http://www.w3.org/2000/svg">
    <path d="M187.012 199.531H12.6953C5.83984 199.531 0.234375 193.926 0.234375 187.07V12.7734C0.234375 5.91797 5.83984 0.3125 12.6953 0.3125H187.012C193.867 0.3125 199.473 5.91797 199.473 12.7734V187.09C199.453 193.926 193.867 199.531 187.012 199.531Z" fill="#3AC4FF"/>
    <path d="M59.8437 134.687C55.9766 134.453 52.3242 132.891 49.7266 130.293C46.7578 127.324 45.3125 123.691 45.3125 119.199C45.3125 114.961 46.9336 110.918 49.7266 108.105C52.6953 105.137 56.3281 103.691 60.8203 103.691H70.0391V93.4961H60.8203C53.9062 93.4961 47.4414 96.1523 42.6172 100.996C37.7734 105.84 35.1172 112.305 35.1172 119.199C35.1172 126.094 37.7734 132.578 42.6172 137.402C47.2266 142.012 53.3008 144.648 59.8437 144.883V154.531L74.3555 140.02L59.8437 125.039V134.687V134.687ZM157.09 60.1367C152.227 55.332 145.762 52.6953 138.887 52.6953H129.668V62.8906H138.887C143.125 62.8906 147.168 64.5117 149.98 67.3047C152.949 70.2734 154.395 73.9062 154.395 78.3984C154.395 82.8711 152.949 86.5039 149.98 89.4922C147.227 92.2461 143.906 93.6914 139.863 93.8867V84.2773L125.332 98.8086L139.863 113.34V103.691C146.406 103.457 152.48 100.82 157.09 96.2109C161.934 91.3672 164.59 84.9023 164.59 78.0078C164.609 71.2695 161.934 64.9219 157.09 60.1367V60.1367ZM114.492 45.3125H84.9023C81.7578 45.3125 79.1992 47.8711 79.1992 51.0156V63.7109C79.1992 66.8555 81.7578 69.4141 84.9023 69.4141H114.473C117.617 69.4141 120.176 66.8555 120.176 63.7109V51.0156C120.195 47.8711 117.637 45.3125 114.492 45.3125ZM114.492 85.8984H84.9023C81.7578 85.8984 79.1992 88.457 79.1992 91.6016V104.297C79.1992 107.441 81.7578 110 84.9023 110H114.473C117.617 110 120.176 107.441 120.176 104.297V91.6016C120.195 88.457 117.637 85.8984 114.492 85.8984ZM114.492 127.969H84.9023C81.7578 127.969 79.1992 130.527 79.1992 133.672V146.367C79.1992 149.512 81.7578 152.07 84.9023 152.07H114.473C117.617 152.07 120.176 149.512 120.176 146.367V133.672C120.195 130.527 117.637 127.969 114.492 127.969Z" fill="white"/>
</svg>
