<svg width="24" height="24" viewBox="0 0 24 24" fill="none" xmlns="http://www.w3.org/2000/svg">
<g clip-path="url(#clip0_186_561)">
<path d="M2.34375 0H21.6562C23.2187 0 24 0.78125 24 2.34375V21.6562C24 23.2187 23.2187 24 21.6562 24H2.34375C0.78125 24 0 23.2187 0 21.6562V2.34375C0 0.78125 0.78125 0 2.34375 0Z" fill="#EEB303"/>
<path d="M17.6006 15.1504C17.9717 15.1505 18.3273 15.298 18.5898 15.5605C18.8523 15.8231 18.9999 16.1786 19 16.5498V17.6006C18.9997 18.3735 18.3735 18.9998 17.6006 19H6.40039C5.62733 19 5.00025 18.3736 5 17.6006V16.5498C5.00008 16.1787 5.14777 15.8231 5.41016 15.5605C5.67271 15.2979 6.02909 15.1504 6.40039 15.1504H17.6006ZM6.40039 15.9902C6.1181 15.9902 5.87513 16.2004 5.83984 16.4805V17.5996C5.83984 17.8819 6.05 18.1249 6.33008 18.1602H17.6006C17.8827 18.16 18.1249 17.9499 18.1602 17.6699V16.5498C18.16 16.2676 17.9499 16.0255 17.6699 15.9902H6.40039ZM9.19922 16.7256C9.38038 16.7256 9.53324 16.8645 9.5498 17.0449C9.56618 17.2254 9.43799 17.3826 9.25977 17.415L9.19922 17.4258H7.44922C7.26808 17.4257 7.11605 17.2859 7.09961 17.1055C7.08323 16.9249 7.21126 16.7677 7.38965 16.7354L7.44922 16.7256H9.19922ZM17.6006 10.0752C18.3736 10.0754 19 10.7025 19 11.4756V12.5254C18.9999 13.2984 18.3736 13.9256 17.6006 13.9258H6.40039C5.62721 13.9258 5.00005 13.2986 5 12.5254V11.4756C5 10.7024 5.62718 10.0752 6.40039 10.0752H17.6006ZM6.40039 10.915C6.1181 10.915 5.87513 11.1252 5.83984 11.4053V12.5254C5.83992 12.8076 6.05007 13.0497 6.33008 13.085H17.6006C17.8826 13.0848 18.1247 12.8754 18.1602 12.5957V11.4756C18.1602 11.1933 17.95 10.9503 17.6699 10.915H6.40039ZM9.19922 11.6504C9.3804 11.6504 9.53327 11.7893 9.5498 11.9697C9.56618 12.1502 9.438 12.3074 9.25977 12.3398L9.19922 12.3496H7.44922C7.2681 12.3495 7.11607 12.2107 7.09961 12.0303C7.08323 11.8497 7.21126 11.6925 7.38965 11.6602L7.44922 11.6504H9.19922ZM17.6006 5C18.3736 5.00022 19 5.62732 19 6.40039V7.4502C19 7.82144 18.8524 8.17791 18.5898 8.44043C18.3274 8.70266 17.9716 8.8495 17.6006 8.84961H6.40039C6.02921 8.84961 5.67269 8.70281 5.41016 8.44043C5.14764 8.17791 5.00004 7.82144 5 7.4502V6.40039C5 5.62718 5.62718 5 6.40039 5H17.6006ZM6.40039 5.83984C6.11823 5.83984 5.87531 6.04923 5.83984 6.3291V7.44922C5.83984 7.73151 6.05 7.97448 6.33008 8.00977H17.6006C17.8827 8.0096 18.1249 7.79949 18.1602 7.51953V6.39941C18.1601 6.11718 17.95 5.87512 17.6699 5.83984H6.40039ZM9.19922 6.5752C9.38042 6.5752 9.5333 6.71411 9.5498 6.89453C9.56618 7.07498 9.438 7.23223 9.25977 7.26465L9.19922 7.27441H7.44922C7.26812 7.27429 7.1161 7.13543 7.09961 6.95508C7.08323 6.77453 7.21126 6.61726 7.38965 6.58496L7.44922 6.5752H9.19922Z" fill="white"/>
<path fill-rule="evenodd" clip-rule="evenodd" d="M6.85512 9.71551C6.67382 9.71585 6.52228 9.57769 6.5059 9.39713C6.48952 9.21658 6.61372 9.0534 6.79212 9.0211L6.85512 9.0155H8.60514C8.78644 9.01517 8.93798 9.15333 8.95436 9.33388C8.97074 9.51444 8.84654 9.67762 8.66814 9.70991L8.60514 9.71551H6.85512Z" fill="white"/>
<path fill-rule="evenodd" clip-rule="evenodd" d="M14.8551 14.716C14.6738 14.7163 14.5223 14.5782 14.5059 14.3976C14.4895 14.2171 14.6137 14.0539 14.7921 14.0216L14.8551 14.016H16.6051C16.7864 14.0157 16.938 14.1538 16.9544 14.3344C16.9707 14.5149 16.8465 14.6781 16.6681 14.7104L16.6051 14.716H14.8551Z" fill="white"/>
</g>
<defs>
<clipPath id="clip0_186_561">
<rect width="24" height="24" fill="white"/>
</clipPath>
</defs>
</svg>
