<svg width="24" height="24" viewBox="0 0 24 24" fill="none" xmlns="http://www.w3.org/2000/svg">
<g clip-path="url(#clip0_186_533)">
<path d="M2.34375 0H21.6562C23.2187 0 24 0.78125 24 2.34375V21.6562C24 23.2187 23.2187 24 21.6562 24H2.34375C0.78125 24 0 23.2187 0 21.6562V2.34375C0 0.78125 0.78125 0 2.34375 0Z" fill="#EEB303"/>
<path d="M12.3 15.1875C12.2032 15.1535 12.1023 15.1325 12 15.125H9.5C9.16848 15.125 8.85054 15.2567 8.61612 15.4911C8.3817 15.7255 8.25 16.0435 8.25 16.375V18.875C8.25 19.2065 8.3817 19.5245 8.61612 19.7589C8.85054 19.9933 9.16848 20.125 9.5 20.125H12C12.3315 20.125 12.6495 19.9933 12.8839 19.7589C13.1183 19.5245 13.25 19.2065 13.25 18.875V16.375C13.263 16.2754 13.263 16.1746 13.25 16.075L14.2 15.125H15.75V13.875H13.6125L12.3 15.1875ZM12 18.875H9.5V16.375H12V18.875ZM14.1375 8.875L13.25 7.925C13.263 7.82542 13.263 7.72458 13.25 7.625V5.125C13.25 4.79348 13.1183 4.47554 12.8839 4.24112C12.6495 4.0067 12.3315 3.875 12 3.875H9.5C9.16848 3.875 8.85054 4.0067 8.61612 4.24112C8.3817 4.47554 8.25 4.79348 8.25 5.125V7.625C8.25 7.95652 8.3817 8.27446 8.61612 8.50888C8.85054 8.7433 9.16848 8.875 9.5 8.875H12C12.0996 8.88796 12.2004 8.88796 12.3 8.875L13.55 10.125H15.75V8.875H14.1375ZM12 7.625H9.5V5.125H12V7.625Z" fill="#FBE6A6"/>
<path d="M17 6.0625L15.875 6.6875L18.7625 12L15.8125 17.3125L16.9375 17.9375L20.2375 12L17 6.0625ZM17 11.375H8.875V10.75C8.875 10.4185 8.7433 10.1005 8.50888 9.86612C8.27446 9.6317 7.95652 9.5 7.625 9.5H5.125C4.79348 9.5 4.47554 9.6317 4.24112 9.86612C4.0067 10.1005 3.875 10.4185 3.875 10.75V13.25C3.875 13.5815 4.0067 13.8995 4.24112 14.1339C4.47554 14.3683 4.79348 14.5 5.125 14.5H7.625C7.95652 14.5 8.27446 14.3683 8.50888 14.1339C8.7433 13.8995 8.875 13.5815 8.875 13.25V12.625H17V11.375ZM7.625 13.25H5.125V10.75H7.625V13.25Z" fill="white"/>
</g>
<defs>
<clipPath id="clip0_186_533">
<rect width="24" height="24" fill="white"/>
</clipPath>
</defs>
</svg>
