<svg width="24" height="24" viewBox="0 0 24 24" fill="none" xmlns="http://www.w3.org/2000/svg">
<path d="M17.5996 15.1494C17.9708 15.1494 18.3273 15.2971 18.5898 15.5596C18.8524 15.8221 19 16.1785 19 16.5498V17.5996C19 18.3728 18.3728 19 17.5996 19H6.40039C5.62719 19 5 18.3728 5 17.5996V16.5498C5.00003 16.1785 5.14763 15.8221 5.41016 15.5596C5.67268 15.2971 6.02921 15.1494 6.40039 15.1494H17.5996ZM6.40039 15.9902C6.1181 15.9902 5.87513 16.2004 5.83984 16.4805V17.5996C5.83984 17.8819 6.05001 18.1249 6.33008 18.1602H17.6006C17.8827 18.1599 18.1249 17.9499 18.1602 17.6699V16.5498C18.1601 16.2676 17.95 16.0255 17.6699 15.9902H6.40039ZM9.19922 16.7256C9.38046 16.7256 9.53336 16.8644 9.5498 17.0449C9.56617 17.2254 9.43797 17.3826 9.25977 17.415L9.19922 17.4248H7.44922C7.26814 17.4247 7.11617 17.2858 7.09961 17.1055C7.08323 16.9249 7.21126 16.7677 7.38965 16.7354L7.44922 16.7256H9.19922ZM17.5996 10.0752C18.3727 10.0752 18.9998 10.7016 19 11.4746V12.5254C18.9998 13.2984 18.3727 13.9248 17.5996 13.9248H6.40039C5.62732 13.9248 5.00021 13.2984 5 12.5254V11.4746C5.00021 10.7016 5.62732 10.0752 6.40039 10.0752H17.5996ZM6.40039 10.915C6.1181 10.915 5.87513 11.1252 5.83984 11.4053V12.5254C5.84004 12.8075 6.05015 13.0497 6.33008 13.085H17.6006C17.8827 13.0847 18.1249 12.8746 18.1602 12.5947V11.4746C18.16 11.1925 17.9499 10.9503 17.6699 10.915H6.40039ZM9.19922 11.6504C9.38043 11.6504 9.53331 11.7893 9.5498 11.9697C9.56617 12.1501 9.43796 12.3074 9.25977 12.3398L9.19922 12.3496H7.44922C7.26811 12.3495 7.11612 12.2106 7.09961 12.0303C7.08323 11.8497 7.21126 11.6925 7.38965 11.6602L7.44922 11.6504H9.19922ZM17.5996 5C18.3728 5 19 5.62719 19 6.40039V7.4502C18.9999 7.82142 18.8524 8.17793 18.5898 8.44043C18.3273 8.7028 17.9708 8.84961 17.5996 8.84961H6.40039C6.02923 8.84961 5.67268 8.7028 5.41016 8.44043C5.14765 8.17793 5.00005 7.82142 5 7.4502V6.40039C5 5.62719 5.62719 5 6.40039 5H17.5996ZM6.40039 5.83984C6.1181 5.83984 5.87513 6.05001 5.83984 6.33008V7.4502C5.84004 7.73231 6.05015 7.97448 6.33008 8.00977H17.6006C17.8827 8.00953 18.1249 7.79944 18.1602 7.51953V6.39941C18.16 6.11729 17.9499 5.87511 17.6699 5.83984H6.40039ZM9.19922 6.5752C9.38037 6.5752 9.53322 6.71419 9.5498 6.89453C9.56617 7.07494 9.43794 7.23218 9.25977 7.26465L9.19922 7.27539H7.44922C7.26804 7.2753 7.11603 7.13552 7.09961 6.95508C7.08323 6.77453 7.21126 6.61726 7.38965 6.58496L7.44922 6.5752H9.19922Z" fill="black"/>
<path fill-rule="evenodd" clip-rule="evenodd" d="M6.85509 9.7158C6.6738 9.71613 6.52226 9.57797 6.50587 9.39742C6.48949 9.21687 6.6137 9.0537 6.79209 9.0214L6.85509 9.0158H8.60509C8.78638 9.01546 8.93792 9.15362 8.9543 9.33417C8.97068 9.51473 8.84648 9.6779 8.66809 9.7102L8.60509 9.7158H6.85509Z" fill="black"/>
<path fill-rule="evenodd" clip-rule="evenodd" d="M14.8551 14.7158C14.6738 14.7161 14.5223 14.578 14.5059 14.3974C14.4895 14.2169 14.6137 14.0537 14.7921 14.0214L14.8551 14.0158H16.6051C16.7864 14.0155 16.9379 14.1536 16.9543 14.3342C16.9707 14.5147 16.8465 14.6779 16.6681 14.7102L16.6051 14.7158H14.8551Z" fill="black"/>
</svg>
