<svg viewBox="0 0 200 200" focusable="false" class="" data-icon="work-center" width="1em" height="1em" fill="currentColor" aria-hidden="true"><linearGradient gradientUnits="userSpaceOnUse" id="work_center_1_" x1="19.89" x2="150.4" y1="92.86" y2="-133.2"><stop offset="0" stop-color="#3e75ff"></stop><stop offset="1" stop-color="#4753f4"></stop></linearGradient><path d="M75.2 6.5H16.6c-6.6 0-12 5.4-12 12v58.6c0 6.6 5.4 12 12 12h58.6c6.6 0 12-5.4 12-12V18.5c0-6.6-5.4-12-12-12z" fill="currentColor"></path><linearGradient gradientUnits="userSpaceOnUse" id="work_center_2_" x1="127.39" x2="257.9" y1="92.86" y2="-133.2"><stop offset="0" stop-color="#3e75ff"></stop><stop offset="1" stop-color="#4753f4"></stop></linearGradient><path d="M182.7 6.5h-58.6c-6.6 0-12 5.4-12 12v58.6c0 6.6 5.4 12 12 12h58.6c6.6 0 12-5.4 12-12V18.5c0-6.6-5.4-12-12-12z" fill="currentColor"></path><linearGradient gradientUnits="userSpaceOnUse" id="work_center_3_" x1="19.89" x2="150.4" y1="198.16" y2="-27.9"><stop offset="0" stop-color="#3e75ff"></stop><stop offset="1" stop-color="#4753f4"></stop></linearGradient><path d="M75.2 111.8H16.6c-6.6 0-12 5.4-12 12v58.6c0 6.6 5.4 12 12 12h58.6c6.6 0 12-5.4 12-12v-58.6c0-6.6-5.4-12-12-12z" fill="currentColor"></path><linearGradient gradientUnits="userSpaceOnUse" id="work_center_4_" x1="127.39" x2="257.9" y1="198.16" y2="-27.9"><stop offset="0" stop-color="#3e75ff"></stop><stop offset="1" stop-color="#4753f4"></stop></linearGradient><path d="M182.7 111.8h-58.6c-6.6 0-12 5.4-12 12v58.6c0 6.6 5.4 12 12 12h58.6c6.6 0 12-5.4 12-12v-58.6c0-6.6-5.4-12-12-12z" fill="currentColor"></path><linearGradient gradientUnits="userSpaceOnUse" id="work_center_5_" x1="37.4" x2="161.9" y1="-7.37" y2="208.27"><stop offset="0" stop-color="#3e75ff"></stop><stop offset="1" stop-color="#4753f4"></stop></linearGradient><path d="M75.2 6.5H16.6c-6.6 0-12 5.4-12 12v58.6c0 6.6 5.4 12 12 12h58.6c6.6 0 12-5.4 12-12V18.5c0-6.6-5.4-12-12-12z" fill="currentColor"></path><linearGradient gradientUnits="userSpaceOnUse" id="work_center_6_" x1="37.4" x2="161.9" y1="-7.37" y2="208.27"><stop offset="0" stop-color="#3e75ff"></stop><stop offset="1" stop-color="#4753f4"></stop></linearGradient><path d="M182.7 6.5h-58.6c-6.6 0-12 5.4-12 12v58.6c0 6.6 5.4 12 12 12h58.6c6.6 0 12-5.4 12-12V18.5c0-6.6-5.4-12-12-12z" fill="currentColor"></path><linearGradient gradientUnits="userSpaceOnUse" id="work_center_7_" x1="37.4" x2="161.9" y1="-7.37" y2="208.27"><stop offset="0" stop-color="#3e75ff"></stop><stop offset="1" stop-color="#4753f4"></stop></linearGradient><path d="M75.2 111.8H16.6c-6.6 0-12 5.4-12 12v58.6c0 6.6 5.4 12 12 12h58.6c6.6 0 12-5.4 12-12v-58.6c0-6.6-5.4-12-12-12z" fill="currentColor"></path><linearGradient gradientUnits="userSpaceOnUse" id="work_center_8_" x1="37.4" x2="161.9" y1="-7.37" y2="208.27"><stop offset="0" stop-color="#3e75ff"></stop><stop offset="1" stop-color="#4753f4"></stop></linearGradient><path d="M182.7 111.8h-58.6c-6.6 0-12 5.4-12 12v58.6c0 6.6 5.4 12 12 12h58.6c6.6 0 12-5.4 12-12v-58.6c0-6.6-5.4-12-12-12z" fill="currentColor"></path></svg>
