<?xml version="1.0" standalone="no"?><!DOCTYPE svg PUBLIC "-//W3C//DTD SVG 1.1//EN" "http://www.w3.org/Graphics/SVG/1.1/DTD/svg11.dtd"><svg t="1764578490141" class="icon" viewBox="0 0 1024 1024" version="1.1" xmlns="http://www.w3.org/2000/svg" p-id="5249" width="32" height="32" xmlns:xlink="http://www.w3.org/1999/xlink"><path d="M227.61472 40.96c68.47488 0 126.208 47.7184 144.4352 113.0496h413.76768c129.92 0 197.21728 93.09184 197.21728 185.62048a185.04704 185.04704 0 0 1-50.6368 128.68096 196.02944 196.02944 0 0 1-131.1232 57.05728c-6.44608 80.43008-71.0656 143.6672-149.79072 143.6672-78.65856 0-143.22176-63.03232-149.84704-143.37536H240.80384c-95.26784 0-137.89184 59.88352-137.89184 119.23456 0 59.29472 43.1872 123.648 137.92256 123.648H263.68l0.94208-2.62144c22.28224-56.22784 73.59488-93.67552 131.38944-96.71168l7.56224-0.17408c63.50336 0 117.76 41.04192 139.83744 99.0976h258.42176v-86.5536l118.85056 86.52288h7.71072l-0.03072 5.59104 54.67136 39.77728-181.20192 131.8912v-113.0496h-247.96672c-2.23744 58.34752-35.328 110.60224-85.79072 135.56736l-6.912 3.21024c-56.20224 24.28928-120.8832 10.86464-163.92192-34.03264a160.30208 160.30208 0 0 1-43.9552-104.71936h-12.42112c-131.24096-0.0256-199.89504-94.53056-199.89504-187.91424a179.28704 179.28704 0 0 1 51.16416-127.1808c36.47488-36.80256 87.87456-55.78752 148.66944-55.78752h268.19584c20.19328-61.94688 76.33408-106.48576 142.45888-106.48576 65.94048 0 121.93792 44.27776 142.24896 105.86624l-7.8592 0.2048c93.0304 0 135.2448-63.23712 135.2448-122.17344 0-58.88-41.8048-120.70912-135.2448-120.70912h-409.088c-6.8352 55.22944-41.45664 103.15776-91.59168 124.8256-56.22784 24.32-120.9088 10.89536-163.9168-34.03264-42.9824-44.83584-55.84896-112.39936-32.53248-171.04384C111.00672 81.67424 162.31936 44.20096 220.07808 41.1648L227.61472 40.96z m175.95904 700.41088c-21.48864 0-42.09664 8.91904-57.3184 24.81664a86.56384 86.56384 0 0 0-23.7568 59.8528c0 46.75072 36.3008 84.63872 81.0752 84.63872 44.77952 0 81.10592-37.85728 81.10592-84.63872 0-46.75072-36.3008-84.66944-81.0752-84.66944h-0.03072z m247.8848-314.04032c-44.60544 0.32768-80.57856 38.15424-80.6656 84.66944 0 34.26816 19.78368 65.18272 50.13504 78.22336a78.62272 78.62272 0 0 0 88.43776-18.54464 87.4496 87.4496 0 0 0 17.31072-92.35456c-12.69248-31.62112-42.3936-52.11136-75.21792-51.9936z m-423.81312-314.0096c-44.7488 0.12288-81.01888 37.98016-81.0752 84.64384 0 46.78144 36.3008 84.63872 81.0752 84.63872 38.06208 0 70.00576-27.40736 78.72-64.384h-1.1776l0.03072-44.89728c-10.09664-34.7136-41.04192-59.93984-77.57312-59.93984v-0.05632z" p-id="5250"></path></svg>