<?xml version="1.0" encoding="UTF-8"?>
<svg width="12px" height="14px" viewBox="0 0 12 14" version="1.1" xmlns="http://www.w3.org/2000/svg" xmlns:xlink="http://www.w3.org/1999/xlink">
    <!-- Generator: Sketch 60 (88103) - https://sketch.com -->
    <title>形状</title>
    <desc>Created with Sketch.</desc>
    <g id="页面-1" stroke="none" stroke-width="1" fill="none" fill-rule="evenodd">
        <g id="客户端下载" transform="translate(-485.000000, -428.000000)" fill="#364676" fill-rule="nonzero">
            <g id="编组-3备份-27" transform="translate(13.000000, 12.000000)">
                <g id="Windows下载备份-7" transform="translate(61.000000, 360.000000)">
                    <g id="编组" transform="translate(411.000000, 56.000000)">
                        <path d="M0.853020681,4.38643515 C0.382701747,4.38643515 0,4.77380522 0,5.25281594 L0,8.63236657 C0,9.11082876 0.382162049,9.49818054 0.853020681,9.49818054 C1.32395375,9.49818054 1.70667411,9.11082876 1.70667411,8.63176319 L1.70667411,5.25224913 C1.70667411,4.77484743 1.32505176,4.3869654 0.85363482,4.3869654 L0.853020681,4.38643515 L0.853020681,4.38643515 Z M11.1469979,4.38643515 C10.6755252,4.38643515 10.2933445,4.77380522 10.2933445,5.25226741 L10.2933445,8.6317449 C10.2933445,9.11029851 10.6760462,9.49755888 11.1463466,9.49755888 C11.617838,9.49755888 12,9.11029851 12,8.63119637 L12,5.25224913 C12,4.77484743 11.617838,4.3869654 11.1469979,4.3869654 L11.1469979,4.38643515 L11.1469979,4.38643515 Z M2.22016889,10.5893844 C2.22016889,10.9568795 2.51813804,11.2535415 2.88524438,11.2535415 L3.64551143,11.2535415 L3.64551143,13.1347346 C3.64551143,13.6126665 4.02767348,14 4.49853211,14 C4.96944658,14 5.3515528,13.6132882 5.3515528,13.1347346 L5.3515528,11.2535597 L6.6795822,11.2535597 L6.6795822,13.1347346 C6.6795822,13.6126665 7.06228395,14 7.53256566,14 C8.00405704,14 8.38558634,13.6132882 8.38558634,13.1347346 L8.38558634,11.2535597 L9.1463931,11.2535597 C9.51295973,11.2535597 9.81148719,10.9568978 9.81148719,10.5894027 L9.81148719,4.41305702 L2.21782399,4.41305702 L2.21782399,10.5893844 L2.22016889,10.5893844 Z M7.79997674,1.21185095 L8.50143532,0.197678583 C8.54293624,0.137121155 8.53257031,0.0578040889 8.47835857,0.0204676553 C8.42420267,-0.0169236311 8.34579757,0.00229311318 8.30485496,0.0617717707 L7.57579733,1.1178882 C7.07438265,0.922099134 6.53953452,0.822154323 5.99997208,0.823420389 C5.43807198,0.823420389 4.90488752,0.928189128 4.42476097,1.11728482 L3.69624305,0.0600896199 C3.65418382,0.000610962404 3.57635564,-0.0180938229 3.52156699,0.0193157477 C3.46679694,0.0572555615 3.45706376,0.135969247 3.49854607,0.196508391 L4.19939051,1.21302114 C3.08474655,1.73117843 2.30201689,2.71417615 2.20286133,3.86257317 L9.79598483,3.86257317 C9.69567544,2.71477953 8.91355991,1.73055677 7.79884151,1.21300285 L7.79945565,1.21300285 L7.79945565,1.21245433 L7.79997674,1.21185095 L7.79997674,1.21185095 Z M4.39822272,2.81446525 C4.16455207,2.8125454 3.97647661,2.62504044 3.97807709,2.39539029 C3.97807709,2.16383858 4.16600368,1.97576681 4.39822272,1.97576681 C4.6299765,1.97576681 4.81782865,2.1638203 4.81782865,2.39539029 C4.81782865,2.62760024 4.62999511,2.81499549 4.39822272,2.81499549 L4.39822272,2.81444696 L4.39822272,2.81446525 Z M7.65356968,2.81446525 C7.54120858,2.81373074 7.43374958,2.76915913 7.3548464,2.69056147 C7.27594322,2.6119638 7.23206342,2.5057826 7.23286575,2.39539029 C7.23286575,2.16383858 7.42189034,1.97576681 7.65356968,1.97576681 C7.88532347,1.97576681 8.07317561,2.1638203 8.07317561,2.39539029 C8.07317561,2.62760024 7.88534208,2.81499549 7.65356968,2.81499549 L7.65356968,2.81444696 L7.65356968,2.81446525 Z" id="形状"></path>
                    </g>
                </g>
            </g>
        </g>
    </g>
</svg>