<svg xmlns="http://www.w3.org/2000/svg" viewBox="0 0 1024 1024">
  <path fill="#59a3ff" d="M958.2 1022.1H65.7c-35.1 0-63.8-28.7-63.8-63.8V65.9C2 30.8 30.7 2.1 65.7 2.1h892.5c35.1 0 63.8 28.7 63.8 63.8v892.5c0 35-28.7 63.7-63.8 63.7z"/>
  <path fill="#fff" d="M778.5 245.4c-18.8-19-43.8-29.6-70.5-29.8l-94.7-.8v.5c-2.2-.2-4.3-.4-6.6-.4H275c-32.3 0-58.6 26.4-58.6 58.6v340.7c0 .7 0 1.3.1 2v92.6c0 55.5 45.1 100.6 100.6 100.6h390c55.5 0 100.6-45.1 100.6-100.6V316.2c-.1-26.7-10.4-51.9-29.2-70.8zm-471.4 95.5c0-12.1 9.9-22 22-22h223.4c12.1 0 22 9.9 22 22v4c0 12.1-9.9 22-22 22H329.1c-12.1 0-22-9.9-22-22v-4zm0 112c0-12.1 9.9-22 22-22h223.4c12.1 0 22 9.9 22 22v4c0 12.1-9.9 22-22 22H329.1c-12.1 0-22-9.9-22-22v-4zm443.3 256c0 23.9-19.5 43.4-43.4 43.4H317c-23.9 0-43.4-19.5-43.4-43.4v-36H606.7c32.3 0 58.6-26.4 58.6-58.6V273.5v-1.1l42.1.4c23.7.2 43 19.7 43 43.4v392.7z"/>
</svg>
