<svg xmlns="http://www.w3.org/2000/svg" viewBox="0 0 1024 1024">
  <path fill="#3bc4ff" d="M958.3 1022H65.9c-35.1 0-63.8-28.7-63.8-63.8V65.8C2.1 30.7 30.8 2 65.9 2h892.5c35.1 0 63.8 28.7 63.8 63.8v892.5c-.1 35-28.8 63.7-63.9 63.7z"/>
  <path fill="#fff" d="M732.8 428.5h-68.3v-44.1c0-84.1-68.3-152.4-152.4-152.4s-152.4 68.3-152.4 152.4v44.1h-68.3c-29.5 0-53.7 24.2-53.7 53.7v256.1c0 29.5 24.2 53.7 53.7 53.7h441.3c29.5 0 53.7-24.2 53.7-53.7V482.2c.1-29.5-24.1-53.7-53.6-53.7zm-194.9 181v83.3c0 11.1-9.1 20.2-20.2 20.2h-7.6c-11.1 0-20.2-9.1-20.2-20.2v-83.3c-18.3-8.9-31-27.7-31-49.5 0-30.4 24.6-55 55-55s55 24.6 55 55c0 21.8-12.7 40.6-31 49.5zm77-182.5H409.4v-46.9c0-56.8 46-102.8 102.8-102.8s102.7 46 102.7 102.8V427z"/>
</svg>
