<svg xmlns="http://www.w3.org/2000/svg" viewBox="0 0 1024 1024">
  <path fill="#15ceaa" d="M958 1021.9H65.5c-35.1 0-63.8-28.7-63.8-63.8V65.7c0-35.1 28.7-63.8 63.8-63.8H958c35.1 0 63.8 28.7 63.8 63.8v892.5c0 35.1-28.7 63.7-63.8 63.7z"/>
  <path fill="#fff" d="M697.2 230.8H326.3c-50.3 0-91.2 40.9-91.2 91.2v380c0 50.3 40.9 91.2 91.2 91.2h370.9c50.3 0 91.2-40.9 91.2-91.2V322c0-50.3-40.9-91.2-91.2-91.2zM455.1 608.1v-85.4h118.4v85.4H455.1zm118.3 49.7v84H455.1v-84h118.3zm0-270.9v86.2H455.1v-86.2h118.3zm-168 0v86.2h-119v-86.2h119zm0 135.9v85.4h-119v-85.4h119zm217.7 0h114v85.4h-114v-85.4zm0-49.7v-86.2h114v86.2h-114zM286.5 702v-44.2h119v84h-79.2c-22 0-39.8-17.9-39.8-39.8zm410.7 39.8H623v-84h114V702c.1 21.9-17.8 39.8-39.8 39.8z"/>
</svg>
