<svg xmlns="http://www.w3.org/2000/svg" id="图层_1" x="0" y="0" version="1.1" viewBox="0 0 1024 1024" xml:space="preserve">
  <style>
    .st1{fill:#fff}
  </style>
  <path fill="#3bc4ff" d="M958.2 1022H65.7c-35 0-63.7-28.7-63.7-63.8V65.8C2 30.7 30.7 2 65.7 2h892.5c35.1 0 63.8 28.7 63.8 63.8v892.5c0 35-28.7 63.7-63.8 63.7z"/>
  <path d="M367 232h-79.8c-30.8 0-56 25.2-56 56v448c0 30.8 25.2 56 56 56H367c30.8 0 56-25.2 56-56V288c0-30.8-25.2-56-56-56zm8.1 161.3c0 10.3-8.4 18.7-18.7 18.7H298c-10.3 0-18.7-8.4-18.7-18.7v-79.5c0-10.3 8.4-18.7 18.7-18.7h58.4c10.3 0 18.7 8.4 18.7 18.7v79.5zM720.7 232H561.8c-39.6 0-72 32.4-72 72v416c0 39.6 32.4 72 72 72h158.8c39.6 0 72-32.4 72-72V304c.1-39.6-32.3-72-71.9-72zm-79.5 506c-20.4 0-37-16.6-37-37s16.6-37 37-37 37 16.6 37 37-16.5 37-37 37zm91.4-178.8c0 23-18.8 41.8-41.8 41.8h-99.2c-23 0-41.8-18.8-41.8-41.8V336.8c0-23 18.8-41.8 41.8-41.8h99.2c23 0 41.8 18.8 41.8 41.8v222.4z" class="st1"/>
</svg>
