<svg xmlns="http://www.w3.org/2000/svg" viewBox="0 0 1024 1024">
  <path fill="#15ceaa" d="M958.5 1022.2H66c-35.1 0-63.8-28.7-63.8-63.8V66C2.3 30.9 30.9 2.2 66 2.2h892.5c35.1 0 63.8 28.7 63.8 63.8v892.5c0 35-28.7 63.7-63.8 63.7z"/>
  <path fill="#fff" d="M719.3 227.7h-414c-40.1 0-73 32.8-73 73v30H309c21.1 0 38.3 17.3 38.3 38.3v3.3c0 21.1-17.3 38.3-38.3 38.3h-76.7v73.5H309c21.1 0 38.3 17.3 38.3 38.3v3.3c0 21.1-17.3 38.3-38.3 38.3h-76.7v73.5H309c21.1 0 38.3 17.3 38.3 38.3v3.3c0 21.1-17.3 38.3-38.3 38.3h-76.7v6c0 40.1 32.9 73 73 73h414c40.1 0 73-32.9 73-73v-423c0-39.8-32.9-72.7-73-72.7zm-301.5 410c3.7-48.4 33-89.7 74.4-110.3-14.3-14.9-23.1-35.1-23.1-57.4 0-45.8 37.1-82.9 82.9-82.9 45.8 0 82.9 37.1 82.9 82.9 0 22.3-8.8 42.5-23.1 57.4 41.4 20.6 70.8 61.8 74.4 110.3H417.8z"/>
</svg>
