<?xml version="1.0" encoding="utf-8"?>
<!-- Generator: Adobe Illustrator 22.0.0, SVG Export Plug-In . SVG Version: 6.00 Build 0)  -->
<svg version="1.1" id="图层_1" xmlns="http://www.w3.org/2000/svg" xmlns:xlink="http://www.w3.org/1999/xlink" x="0px" y="0px"
	 viewBox="0 0 1024 1024" style="enable-background:new 0 0 1024 1024;" xml:space="preserve">
<style type="text/css">
	.st0{fill:#FF9933;}
	.st1{fill:#FFFFFF;}
</style>
<path class="st0" d="M958.4,1022H65.9c-35.1,0-63.8-28.7-63.8-63.8V65.8C2.1,30.7,30.8,2,65.9,2h892.5c35.1,0,63.8,28.7,63.8,63.8
	v892.5C1022.1,993.3,993.4,1022,958.4,1022z"/>
<path class="st1" d="M732.8,428.5h-68.3v-44.1c0-84.1-68.3-152.4-152.4-152.4s-152.4,68.3-152.4,152.4v44.1h-68.3
	c-29.5,0-53.7,24.2-53.7,53.7v256.1c0,29.5,24.2,53.7,53.7,53.7h441.3c29.5,0,53.7-24.2,53.7-53.7V482.2
	C786.5,452.7,762.3,428.5,732.8,428.5z M456.9,711c0,13.2-10.8,24-24,24s-24-10.8-24-24V519c0-13.2,10.8-24,24-24s24,10.8,24,24V711
	z M609.9,711c0,13.2-10.8,24-24,24s-24-10.8-24-24V519c0-13.2,10.8-24,24-24s24,10.8,24,24V711z M614.9,427H409.4v-46.9
	c0-56.8,46-102.8,102.8-102.8S615,323.3,615,380.1L614.9,427L614.9,427z"/>
</svg>
