<svg width="52" height="52" viewBox="0 0 52 52" fill="none" xmlns="http://www.w3.org/2000/svg">
<circle cx="26" cy="26" r="26" fill="#65789B"/>
<path d="M35 18.3571C35.1989 18.3571 35.3897 18.4399 35.5303 18.5873C35.671 18.7346 35.75 18.9345 35.75 19.1429V34.8571C35.75 35.0655 35.671 35.2654 35.5303 35.4127C35.3897 35.5601 35.1989 35.6429 35 35.6429H17C16.8011 35.6429 16.6103 35.5601 16.4697 35.4127C16.329 35.2654 16.25 35.0655 16.25 34.8571V19.1429C16.25 18.9345 16.329 18.7346 16.4697 18.5873C16.6103 18.4399 16.8011 18.3571 17 18.3571H35ZM35 16H17C16.2044 16 15.4413 16.3311 14.8787 16.9205C14.3161 17.5099 14 18.3093 14 19.1429V34.8571C14 35.6907 14.3161 36.4901 14.8787 37.0795C15.4413 37.6689 16.2044 38 17 38H35C35.7956 38 36.5587 37.6689 37.1213 37.0795C37.6839 36.4901 38 35.6907 38 34.8571V19.1429C38 18.3093 37.6839 17.5099 37.1213 16.9205C36.5587 16.3311 35.7956 16 35 16Z" fill="white"/>
<path d="M21.2581 14.3333C20.9886 14.3333 20.7301 14.4387 20.5396 14.6262C20.349 14.8138 20.2419 15.0681 20.2419 15.3333V19.3333C20.2419 19.5986 20.349 19.8529 20.5396 20.0405C20.7301 20.228 20.9886 20.3333 21.2581 20.3333C21.5276 20.3333 21.786 20.228 21.9766 20.0405C22.1671 19.8529 22.2742 19.5986 22.2742 19.3333V15.3333C22.2742 15.0681 22.1671 14.8138 21.9766 14.6262C21.786 14.4387 21.5276 14.3333 21.2581 14.3333ZM35.4839 21.6667H16.5161C16.2466 21.6667 15.9882 21.772 15.7976 21.9596C15.6071 22.1471 15.5 22.4015 15.5 22.6667C15.5 22.9319 15.6071 23.1862 15.7976 23.3738C15.9882 23.5613 16.2466 23.6667 16.5161 23.6667H35.4839C35.7534 23.6667 36.0118 23.5613 36.2024 23.3738C36.3929 23.1862 36.5 22.9319 36.5 22.6667C36.5 22.4015 36.3929 22.1471 36.2024 21.9596C36.0118 21.772 35.7534 21.6667 35.4839 21.6667Z" fill="white"/>
<path d="M30.7639 26H20.0694C19.7858 26 19.5138 26.1229 19.3132 26.3417C19.1127 26.5605 19 26.8572 19 27.1667C19 27.4761 19.1127 27.7728 19.3132 27.9916C19.5138 28.2104 19.7858 28.3333 20.0694 28.3333H30.7639C31.0475 28.3333 31.3195 28.2104 31.5201 27.9916C31.7207 27.7728 31.8333 27.4761 31.8333 27.1667C31.8333 26.8572 31.7207 26.5605 31.5201 26.3417C31.3195 26.1229 31.0475 26 30.7639 26ZM30.7639 30.6667H20.0694C19.7858 30.6667 19.5138 30.7896 19.3132 31.0084C19.1127 31.2272 19 31.5239 19 31.8333C19 32.1428 19.1127 32.4395 19.3132 32.6583C19.5138 32.8771 19.7858 33 20.0694 33H30.7639C31.0475 33 31.3195 32.8771 31.5201 32.6583C31.7207 32.4395 31.8333 32.1428 31.8333 31.8333C31.8333 31.5239 31.7207 31.2272 31.5201 31.0084C31.3195 30.7896 31.0475 30.6667 30.7639 30.6667Z" fill="white"/>
<path d="M30.6667 14.3333C30.3572 14.3333 30.0605 14.4358 29.8417 14.6181C29.6229 14.8004 29.5 15.0477 29.5 15.3056V19.1945C29.5 19.4523 29.6229 19.6996 29.8417 19.8819C30.0605 20.0642 30.3572 20.1667 30.6667 20.1667C30.9761 20.1667 31.2728 20.0642 31.4916 19.8819C31.7104 19.6996 31.8333 19.4523 31.8333 19.1945V15.3056C31.8333 15.0477 31.7104 14.8004 31.4916 14.6181C31.2728 14.4358 30.9761 14.3333 30.6667 14.3333Z" fill="white"/>
</svg>
