<svg width="52" height="52" viewBox="0 0 52 52" fill="none" xmlns="http://www.w3.org/2000/svg">
<circle cx="26" cy="26" r="26" fill="#78D3F8"/>
<path d="M24.773 15.68C25.3556 15.68 25.8984 15.9759 26.214 16.4656L27.9171 19.1085H36.2857C37.2325 19.1085 38 19.8762 38 20.8228V34.5372C38 35.484 37.2325 36.2515 36.2857 36.2515H15.7143C14.7675 36.2515 14 35.4838 14 34.5372V17.3943C14 16.4475 14.7675 15.68 15.7143 15.68H24.773ZM36.2858 20.3943H15.7141C15.6005 20.3943 15.4915 20.4395 15.4111 20.5199C15.3308 20.6002 15.2857 20.7092 15.2857 20.8228V34.5372C15.2857 34.6508 15.3308 34.7598 15.4111 34.8401C15.4915 34.9205 15.6005 34.9656 15.7141 34.9657H36.2857C36.3993 34.9656 36.5083 34.9205 36.5886 34.8401C36.6689 34.7598 36.7141 34.6508 36.7141 34.5372V20.8228C36.7141 20.7092 36.6689 20.6002 36.5886 20.5199C36.5083 20.4395 36.3993 20.3943 36.2857 20.3943H36.2858ZM24.773 16.9657H15.7142C15.6579 16.9657 15.6022 16.9768 15.5502 16.9983C15.4982 17.0199 15.451 17.0515 15.4112 17.0913C15.3714 17.1311 15.3399 17.1783 15.3184 17.2303C15.2969 17.2823 15.2858 17.338 15.2858 17.3943V19.1624C15.4257 19.1264 15.5697 19.1084 15.7142 19.1084H26.3876L25.1332 17.162C25.0957 17.1037 25.0445 17.0553 24.9841 17.0212C24.9237 16.987 24.8559 16.968 24.7866 16.9658L24.773 16.9656V16.9657Z" fill="white"/>
</svg>
