<svg width="52" height="52" viewBox="0 0 52 52" fill="none" xmlns="http://www.w3.org/2000/svg">
<circle cx="26" cy="26" r="26" fill="#008685"/>
<g clip-path="url(#clip0_9486_1925)">
<path d="M28.5801 26.72H20.4201C20.3246 26.72 20.233 26.6821 20.1655 26.6146C20.098 26.5471 20.0601 26.4555 20.0601 26.36V25.64C20.0601 25.5445 20.098 25.453 20.1655 25.3855C20.233 25.3179 20.3246 25.28 20.4201 25.28H28.5801C28.6755 25.28 28.7671 25.3179 28.8346 25.3855C28.9021 25.453 28.9401 25.5445 28.9401 25.64V26.36C28.9401 26.4555 28.9021 26.5471 28.8346 26.6146C28.7671 26.6821 28.6755 26.72 28.5801 26.72ZM28.5801 21.92H20.4201C20.3246 21.92 20.233 21.8821 20.1655 21.8146C20.098 21.7471 20.0601 21.6555 20.0601 21.56V20.84C20.0601 20.7445 20.098 20.653 20.1655 20.5855C20.233 20.5179 20.3246 20.48 20.4201 20.48H28.5801C28.6755 20.48 28.7671 20.5179 28.8346 20.5855C28.9021 20.653 28.9401 20.7445 28.9401 20.84V21.56C28.9401 21.6555 28.9021 21.7471 28.8346 21.8146C28.7671 21.8821 28.6755 21.92 28.5801 21.92Z" fill="white"/>
<path d="M33.4399 33.68V34.9727C33.4399 35.6935 32.8969 36.2799 32.2295 36.2799H17.0704C16.4029 36.2799 15.8599 35.6935 15.8599 34.9727V17.0272C15.8599 16.3064 16.4029 15.72 17.0704 15.72H32.2295C32.544 15.72 32.843 15.8521 33.0715 16.0921C33.3091 16.3417 33.4399 16.6738 33.4399 17.0274V21.8H34.8799V17.0275C34.88 16.3024 34.6081 15.6176 34.1143 15.0991C33.6115 14.5708 32.942 14.28 32.2295 14.28H17.0704C15.6089 14.28 14.4199 15.5124 14.4199 17.0272V34.9727C14.4199 36.4875 15.6089 37.7199 17.0704 37.7199H32.2295C33.691 37.7199 34.8799 36.4875 34.8799 34.9727V33.68H33.4399Z" fill="white"/>
<path d="M34.8502 25.0666L36.2332 26.6295C36.2216 26.6411 36.2096 26.6523 36.1973 26.6631L35.2561 27.4946C35.2273 27.52 35.1967 27.5435 35.1647 27.5649L35.0961 27.6111L35.0344 27.6662L28.3845 33.608L26.6541 33.7576L27.0348 32.0169L33.6574 26.1533L33.7254 26.0931L33.7836 26.0234C33.8115 25.9897 33.8418 25.9582 33.8745 25.9291L34.8124 25.0983C34.8251 25.087 34.8378 25.0765 34.8502 25.0666ZM35.0105 23.7598C34.7104 23.7598 34.3392 23.9143 34.0163 24.2003L33.0786 25.0309C33.0008 25.0999 32.9283 25.1748 32.8618 25.2549L25.9462 31.378L25.1333 35.0936L28.8859 34.7691L35.8338 28.5609C35.9107 28.5094 35.984 28.4527 36.0533 28.3913L36.9917 27.5623C37.5082 27.1037 37.7068 26.4813 37.4299 26.1711L35.4479 23.9312C35.3448 23.8153 35.1904 23.7598 35.0105 23.7598Z" fill="white"/>
</g>
<defs>
<clipPath id="clip0_9486_1925">
<rect width="24" height="24" fill="white" transform="translate(14 14)"/>
</clipPath>
</defs>
</svg>
