<svg width="52" height="52" viewBox="0 0 52 52" fill="none" xmlns="http://www.w3.org/2000/svg">
<circle cx="26" cy="26" r="26" fill="#7262FD"/>
<path d="M35.1562 16.942H33.1542V15.78C33.1542 13.932 31.6422 12.42 29.7942 12.42H16.8722C15.0242 12.42 13.5122 13.932 13.5122 15.78V31.684C13.5122 33.532 15.0242 35.044 16.8722 35.044H18.8742V36.206C18.8742 38.054 20.3862 39.566 22.2342 39.566H35.1562C37.0042 39.566 38.5162 38.054 38.5162 36.206V20.302C38.5162 18.454 37.0182 16.942 35.1562 16.942ZM15.1922 31.698V15.78C15.1922 14.856 15.9482 14.1 16.8722 14.1H29.7942C30.7182 14.1 31.4742 14.856 31.4742 15.78V31.684C31.4742 32.608 30.7182 33.364 29.7942 33.364H16.8722C15.9482 33.378 15.1922 32.622 15.1922 31.698ZM36.8362 36.22C36.8362 37.144 36.0802 37.9 35.1562 37.9H22.2342C21.3102 37.9 20.5542 37.144 20.5542 36.22V35.058H29.8082C31.6562 35.058 33.1682 33.546 33.1682 31.698V18.622H35.1702C36.0942 18.622 36.8502 19.378 36.8502 20.302V36.22H36.8362Z" fill="white"/>
<path d="M22.7191 26.8763L27.5731 26.8763C27.9926 26.8763 28.3335 27.203 28.3335 27.6048C28.3335 28.0067 27.9926 28.3333 27.5731 28.3333L22.7191 28.3333C22.2996 28.3333 21.9587 28.0067 21.9587 27.6048C21.9587 27.2029 22.2996 26.8763 22.7191 26.8763ZM18.5939 22.8781L27.5731 22.8781C27.9926 22.8781 28.3335 23.2047 28.3335 23.6066C28.3335 24.0085 27.9926 24.3351 27.5731 24.3351L18.5939 24.3351C18.1744 24.3351 17.8335 24.0085 17.8335 23.6066C17.8335 23.2047 18.1744 22.8781 18.5939 22.8781ZM18.5939 19L27.5731 19C27.9926 19 28.3335 19.3266 28.3335 19.7285C28.3335 20.1304 27.9926 20.457 27.5731 20.457L18.5939 20.457C18.1744 20.457 17.8335 20.1304 17.8335 19.7285C17.8335 19.3266 18.1744 19 18.5939 19Z" fill="white"/>
</svg>
