<svg width="52" height="52" viewBox="0 0 52 52" fill="none" xmlns="http://www.w3.org/2000/svg">
<circle cx="26" cy="26" r="26" fill="#61DDAA"/>
<path d="M33.4723 31.3897C32.7331 30.723 32.2787 29.7973 32.2036 28.8047C32.1879 28.6436 32.2353 28.4828 32.3357 28.356C32.4362 28.2291 32.582 28.1462 32.7423 28.1247L34.0611 27.9484C34.2188 27.9277 34.3785 27.9678 34.5076 28.0607C34.6368 28.1536 34.7256 28.2923 34.7561 28.4484C34.8141 28.9232 35.0166 29.3687 35.3361 29.7247C35.5844 29.9491 35.9103 30.0683 36.2448 30.0572C36.454 30.0621 36.662 30.0237 36.8556 29.9444C37.0492 29.865 37.2243 29.7463 37.3698 29.5959C37.5213 29.4451 37.6402 29.2647 37.7191 29.066C37.798 28.8674 37.8353 28.6546 37.8286 28.4409C37.8369 28.2465 37.8047 28.0524 37.7341 27.871C37.6636 27.6896 37.5561 27.5249 37.4186 27.3872C37.2781 27.2496 37.1109 27.1423 36.9272 27.072C36.7436 27.0017 36.5475 26.9698 36.3511 26.9784C36.0899 26.9887 35.8309 27.0307 35.5798 27.1034C35.4812 27.1286 35.3779 27.1294 35.279 27.1056C35.18 27.0818 35.0884 27.0342 35.012 26.9669C34.9356 26.8997 34.8768 26.8148 34.8407 26.7196C34.8046 26.6245 34.7923 26.5219 34.8048 26.4209L34.9511 25.2634C34.9717 25.1005 35.0557 24.9522 35.1848 24.8507C35.3139 24.7491 35.4778 24.7025 35.6411 24.7209C35.6883 24.7271 35.7359 24.7304 35.7836 24.7309C36.2002 24.7384 36.6095 24.6209 36.9586 24.3934C37.0942 24.3046 37.2025 24.1798 37.2714 24.0331C37.3402 23.8863 37.367 23.7233 37.3486 23.5622C37.3545 23.423 37.3308 23.2842 37.2791 23.155C37.2274 23.0257 37.1488 22.9088 37.0486 22.8122C36.9372 22.7087 36.806 22.6289 36.6629 22.5775C36.5198 22.5262 36.3678 22.5044 36.2161 22.5134C36.0603 22.5059 35.9046 22.5296 35.7582 22.5833C35.6117 22.637 35.4776 22.7195 35.3636 22.8259C35.0918 23.1275 34.9267 23.5101 34.8936 23.9147C34.8812 23.9971 34.8524 24.0762 34.8089 24.1474C34.7655 24.2185 34.7082 24.2803 34.6405 24.3289C34.5729 24.3776 34.4961 24.4123 34.4149 24.4309C34.3336 24.4495 34.2494 24.4516 34.1673 24.4372L32.8486 24.2022C32.7677 24.1879 32.6903 24.1578 32.6211 24.1136C32.5518 24.0694 32.4919 24.012 32.4448 23.9447C32.3977 23.8771 32.3644 23.801 32.3468 23.7205C32.3292 23.6401 32.3277 23.5569 32.3423 23.4759C32.4775 22.5366 32.9412 21.6757 33.6511 21.0459C34.3613 20.4553 35.2627 20.1441 36.1861 20.1709C36.8467 20.1653 37.499 20.3179 38.0886 20.6159C38.6606 20.897 39.1406 21.3354 39.4723 21.8797C39.7867 22.3933 39.9533 22.9837 39.9536 23.5859C39.9571 24.1574 39.7914 24.7172 39.4773 25.1947C39.3741 25.3518 39.2556 25.4984 39.1236 25.6322C39.3921 25.8125 39.629 26.036 39.8248 26.2934C40.272 26.9047 40.5026 27.6476 40.4798 28.4047C40.4873 28.9365 40.3826 29.464 40.1726 29.9526C39.9626 30.4413 39.652 30.8803 39.2611 31.2409C38.8574 31.622 38.3826 31.9198 37.8637 32.1174C37.3449 32.3149 36.7922 32.4083 36.2373 32.3922C35.2217 32.422 34.2328 32.0635 33.4723 31.3897ZM21.8073 32.2022C21.645 32.2022 21.489 32.1392 21.3723 32.0262C21.2557 31.9133 21.1875 31.7594 21.1823 31.5972C21.1693 31.2018 21.2356 30.8078 21.3773 30.4384C21.6074 29.8501 21.9372 29.3059 22.3523 28.8297C22.9031 28.2097 23.507 27.6392 24.1573 27.1247C24.9868 26.4901 25.7435 25.7657 26.4136 24.9647C26.7038 24.6218 26.8788 24.1963 26.9136 23.7484C26.9183 23.5841 26.8872 23.4207 26.8225 23.2696C26.7577 23.1185 26.6608 22.9833 26.5386 22.8734C26.4001 22.7471 26.2377 22.6497 26.0611 22.587C25.8844 22.5243 25.697 22.4976 25.5098 22.5084C25.3126 22.4961 25.115 22.5243 24.929 22.5911C24.7431 22.658 24.5728 22.7621 24.4286 22.8972C24.2896 23.052 24.1829 23.233 24.1148 23.4297C24.0468 23.6263 24.0187 23.8345 24.0323 24.0422C24.0316 24.1292 24.0126 24.215 23.9768 24.2943C23.9409 24.3735 23.8889 24.4444 23.8241 24.5025C23.7593 24.5605 23.683 24.6043 23.6003 24.6311C23.5175 24.658 23.4301 24.6673 23.3436 24.6584L21.9923 24.5234C21.8283 24.5067 21.6776 24.4258 21.573 24.2984C21.4683 24.1711 21.4182 24.0075 21.4336 23.8434C21.479 22.806 21.9306 21.8281 22.6911 21.1209C23.4914 20.4627 24.5071 20.1242 25.5423 20.1709C26.5988 20.1227 27.6318 20.4928 28.4173 21.2009C28.772 21.5285 29.0535 21.9273 29.2433 22.3713C29.4331 22.8153 29.5269 23.2944 29.5186 23.7772C29.5168 24.2968 29.4105 24.8107 29.2061 25.2884C28.9597 25.8321 28.6276 26.3327 28.2223 26.7709C27.5667 27.4666 26.866 28.1184 26.1248 28.7222C25.5923 29.1684 25.2411 29.4722 25.0086 29.6847H28.9073C29.0731 29.6847 29.2321 29.7505 29.3493 29.8677C29.4665 29.9849 29.5323 30.1439 29.5323 30.3097V31.5772C29.5323 31.7429 29.4665 31.9019 29.3493 32.0191C29.2321 32.1363 29.0731 32.2022 28.9073 32.2022H21.8073ZM14.7811 32.2022C14.699 32.2022 14.6177 32.186 14.5419 32.1546C14.4661 32.1232 14.3972 32.0771 14.3391 32.0191C14.2811 31.9611 14.2351 31.8922 14.2036 31.8163C14.1722 31.7405 14.1561 31.6592 14.1561 31.5772V24.4359C14.0573 24.4984 13.9548 24.5609 13.8486 24.6234C13.3745 24.9088 12.8763 25.1522 12.3598 25.3509C12.2655 25.3857 12.1641 25.3972 12.0643 25.3845C11.9645 25.3717 11.8693 25.3351 11.7867 25.2776C11.7042 25.2202 11.6367 25.1437 11.59 25.0546C11.5433 24.9655 11.5188 24.8665 11.5186 24.7659V23.4909C11.5177 23.3716 11.551 23.2545 11.6146 23.1535C11.6782 23.0525 11.7693 22.9718 11.8773 22.9209C12.525 22.6223 13.1259 22.2312 13.6611 21.7597C14.0792 21.4111 14.4282 20.9871 14.6898 20.5097C14.7426 20.4071 14.8228 20.3212 14.9214 20.2615C15.02 20.2017 15.1333 20.1703 15.2486 20.1709H16.0986C16.1806 20.1709 16.2619 20.1871 16.3377 20.2185C16.4136 20.2499 16.4825 20.2959 16.5405 20.354C16.5986 20.412 16.6446 20.4809 16.676 20.5567C16.7074 20.6326 16.7236 20.7138 16.7236 20.7959V31.5772C16.7236 31.6592 16.7074 31.7405 16.676 31.8163C16.6446 31.8922 16.5986 31.9611 16.5405 32.0191C16.4825 32.0771 16.4136 32.1232 16.3377 32.1546C16.2619 32.186 16.1806 32.2022 16.0986 32.2022H14.7811Z" fill="white"/>
</svg>
