<svg width="52" height="52" viewBox="0 0 52 52" fill="none" xmlns="http://www.w3.org/2000/svg">
<circle cx="26" cy="26" r="26" fill="#626681"/>
<path d="M37 17.7823C37 16.7986 36.171 16 35.1529 16H16.8485C15.829 16 15.0014 16.7986 15.0014 17.7823V21.8635C15.0014 22.2752 15.1446 22.651 15.388 22.9522C15.1446 23.2561 15.0014 23.6319 15.0014 24.0437V28.1249C15.0014 28.4979 15.1188 28.8433 15.3222 29.1307C15.1114 29.4266 14.999 29.7774 15 30.1365V34.2177C15 35.2014 15.829 36 16.8471 36H35.1501C36.1695 36 36.9971 35.2014 36.9971 34.2177V30.1365C36.9971 29.7621 36.8797 29.4181 36.6764 29.1307C36.8797 28.8433 36.9986 28.4965 36.9986 28.1249V24.0423C36.9986 23.6319 36.8554 23.2548 36.6105 22.955C36.8525 22.6538 36.9971 22.2752 36.9971 21.8663V17.7823H37ZM16.6122 17.7823C16.6122 17.6579 16.7211 17.5529 16.8499 17.5529H35.1501C35.2789 17.5529 35.3878 17.6579 35.3878 17.7823V21.8635C35.3878 21.9878 35.2789 22.0928 35.1501 22.0928H16.8514C16.7884 22.0925 16.7282 22.0682 16.6837 22.0253C16.6392 21.9823 16.614 21.9242 16.6137 21.8635V17.7823H16.6122ZM35.3892 28.1249C35.3892 28.2492 35.2804 28.3529 35.1515 28.3529H16.8514C16.7887 28.3525 16.7287 28.3284 16.6842 28.2858C16.6398 28.2431 16.6144 28.1854 16.6137 28.1249V24.0423C16.6137 23.9179 16.7225 23.8143 16.8514 23.8143H35.1501C35.2789 23.8143 35.3878 23.9193 35.3878 24.0423V28.1249H35.3892ZM35.3892 34.2177C35.3892 34.3421 35.2804 34.4471 35.1515 34.4471H16.8514C16.7884 34.4467 16.7282 34.4224 16.6837 34.3795C16.6392 34.3366 16.614 34.2785 16.6137 34.2177V30.1365C16.6137 30.0122 16.7225 29.9072 16.8514 29.9072H35.1501C35.2789 29.9072 35.3878 30.0122 35.3878 30.1365V34.2177H35.3892ZM18.8831 20.6007H21.9529C22.1666 20.6007 22.3714 20.5188 22.5225 20.3731C22.6735 20.2274 22.7584 20.0297 22.7584 19.8236C22.7584 19.6175 22.6735 19.4198 22.5225 19.274C22.3714 19.1283 22.1666 19.0464 21.9529 19.0464H18.8845C18.6709 19.0464 18.4661 19.1283 18.315 19.274C18.164 19.4198 18.0791 19.6175 18.0791 19.8236C18.0791 20.0297 18.164 20.2274 18.315 20.3731C18.4661 20.5188 18.6709 20.6007 18.8845 20.6007H18.8831ZM21.9515 25.3051H18.8803C18.6666 25.3051 18.4618 25.3869 18.3107 25.5327C18.1597 25.6784 18.0749 25.8761 18.0749 26.0822C18.0749 26.2883 18.1597 26.486 18.3107 26.6317C18.4618 26.7775 18.6666 26.8594 18.8803 26.8594H21.9515C22.1651 26.8594 22.37 26.7775 22.521 26.6317C22.6721 26.486 22.7569 26.2883 22.7569 26.0822C22.7569 25.8761 22.6721 25.6784 22.521 25.5327C22.37 25.3869 22.1651 25.3051 21.9515 25.3051ZM21.9515 31.3979H18.8803C18.6665 31.3979 18.4614 31.4799 18.3102 31.6257C18.1591 31.7716 18.0741 31.9694 18.0741 32.1757C18.0741 32.382 18.1591 32.5799 18.3102 32.7258C18.4614 32.8716 18.6665 32.9536 18.8803 32.9536H21.9515C22.1651 32.9536 22.37 32.8717 22.521 32.726C22.6721 32.5802 22.7569 32.3825 22.7569 32.1764C22.7569 31.9703 22.6721 31.7726 22.521 31.6269C22.37 31.4812 22.1651 31.3993 21.9515 31.3993V31.3979Z" fill="white"/>
</svg>
