<svg width="52" height="52" viewBox="0 0 52 52" fill="none" xmlns="http://www.w3.org/2000/svg">
<circle cx="26" cy="26" r="26" fill="#F6903D"/>
<g clip-path="url(#clip0_9486_1919)">
<path d="M38.4504 26.2565C39.6586 25.0469 39.7986 23.814 39.6167 22.6624L38.1815 16.177C38.0004 15.0241 36.908 13.9331 35.7589 13.75L29.281 12.3161C29.1201 12.2915 28.9576 12.2794 28.7949 12.28C27.7093 12.28 26.4028 12.7675 25.6894 13.4819L12.9189 26.2685C12.0954 27.0925 12.0954 28.4428 12.9189 29.2681L22.6829 39.0418C23.0951 39.454 23.6385 39.6603 24.1819 39.6603C24.7248 39.6603 25.2677 39.4543 25.6793 39.0418L38.4504 26.2565ZM24.1819 38.0221C24.1064 38.0221 23.9619 38.004 23.8418 37.884L14.0785 28.111C13.893 27.9253 13.8927 27.6118 14.0779 27.4263L26.8487 14.6394C27.2389 14.2485 28.1303 13.9183 28.7949 13.9183C28.8803 13.9183 28.958 13.9236 29.0246 13.9342L35.5028 15.3681C35.7106 15.4017 35.9676 15.5509 36.1744 15.7579C36.3816 15.9652 36.5306 16.2232 36.5632 16.4314L36.5633 16.4324L36.5636 16.4334L37.9986 22.9177C38.1192 23.6812 38.045 24.3442 37.2913 25.0987L24.5194 37.8847C24.4003 38.0043 24.2568 38.0221 24.1819 38.0221Z" fill="white"/>
<path d="M31.4903 17.7119C30.0455 17.7119 28.874 18.8834 28.874 20.3282C28.874 21.7744 30.0455 22.9446 31.491 22.9446C32.9353 22.9446 34.1074 21.7719 34.1068 20.3282C34.1055 18.8834 32.934 17.7119 31.4903 17.7119Z" fill="white"/>
</g>
<defs>
<clipPath id="clip0_9486_1919">
<rect width="28" height="28" fill="white" transform="translate(12 12)"/>
</clipPath>
</defs>
</svg>
