<svg width="200" height="200" viewBox="0 0 200 200" fill="none"
    xmlns="http://www.w3.org/2000/svg">
    <path d="M123.05 7C125.132 7.00032 127.128 7.82987 128.6 9.30618C130.072 10.7825 130.899 12.7847 130.899 14.8723C130.899 16.96 130.072 18.9622 128.6 20.4385C127.128 21.9148 125.132 22.7444 123.05 22.7447H107.35L107.358 34.9468C147.024 38.8909 178 72.4506 178 113.277C178 156.756 142.856 192 99.5 192C56.1444 192 21 156.756 21 113.277C21 72.4585 51.9839 38.8909 91.65 34.9468V22.7447H75.95C74.919 22.7448 73.8981 22.5413 72.9456 22.1458C71.993 21.7502 71.1275 21.1704 70.3984 20.4394C69.6694 19.7083 69.091 18.8404 68.6965 17.8852C68.3019 16.93 68.0988 15.9063 68.0988 14.8723C68.0988 13.8384 68.3019 12.8146 68.6965 11.8594C69.091 10.9043 69.6694 10.0364 70.3984 9.30533C71.1275 8.5743 71.993 7.99445 72.9456 7.5989C73.8981 7.20335 74.919 6.99984 75.95 7H123.05ZM99.5 50.2979C91.253 50.2979 83.0867 51.9269 75.4675 55.0918C67.8482 58.2568 60.9252 62.8958 55.0937 68.7439C49.2622 74.592 44.6364 81.5348 41.4804 89.1757C38.3244 96.8166 36.7 105.006 36.7 113.277C36.7 121.547 38.3244 129.737 41.4804 137.378C44.6364 145.018 49.2622 151.961 55.0937 157.809C60.9252 163.657 67.8482 168.296 75.4675 171.461C83.0867 174.626 91.253 176.255 99.5 176.255C116.156 176.255 132.129 169.62 143.906 157.809C155.684 145.998 162.3 129.98 162.3 113.277C162.3 96.5736 155.684 80.5547 143.906 68.7439C132.129 56.9331 116.156 50.2979 99.5 50.2979Z" fill="#FF8533"/>
    <path d="M92 117.167V85.8333C92 80.6111 94.5 78 99.5 78C104.5 78 107 80.6111 107 85.8333V117.167C107 122.389 104.5 125 99.5 125C94.5 125 92 122.389 92 117.167Z" fill="#FF8533"/>
    <path d="M99.8333 109H131.167C136.389 109 139 111.667 139 117C139 122.333 136.389 125 131.167 125H99.8333C94.6111 125 92 122.333 92 117C92 111.667 94.6111 109 99.8333 109Z" fill="#FF8533"/>
</svg>
