<svg width="20" height="20" viewBox="0 0 20 20" fill="none" xmlns="http://www.w3.org/2000/svg">
<path d="M4.87871 6.40933C5.16775 6.40929 5.45025 6.32322 5.69021 6.16209C5.93018 6.00096 6.11677 5.77206 6.22621 5.50453C6.33565 5.23701 6.363 4.94296 6.30477 4.65984C6.24653 4.37672 6.10536 4.11734 5.89922 3.91472C5.69308 3.71211 5.4313 3.57542 5.14722 3.52208C4.86314 3.46874 4.56961 3.50115 4.30401 3.61519C4.03841 3.72923 3.81275 3.91973 3.65579 4.16244C3.49882 4.40515 3.41764 4.68909 3.42258 4.97809C3.4242 5.16768 3.46316 5.35509 3.53722 5.52963C3.61128 5.70416 3.71899 5.8624 3.85421 5.9953C3.98942 6.1282 4.14949 6.23317 4.32528 6.30421C4.50106 6.37525 4.68912 6.41097 4.87871 6.40933V6.40933ZM9.95649 6.40933C10.2455 6.40929 10.528 6.32322 10.768 6.16209C11.008 6.00096 11.1946 5.77206 11.304 5.50453C11.4134 5.23701 11.4408 4.94296 11.3826 4.65984C11.3243 4.37672 11.1831 4.11734 10.977 3.91472C10.7709 3.71211 10.5091 3.57542 10.225 3.52208C9.94092 3.46874 9.64739 3.50115 9.38179 3.61519C9.11619 3.72923 8.89054 3.91973 8.73357 4.16244C8.5766 4.40515 8.49542 4.68909 8.50036 4.97809C8.50689 5.35995 8.66318 5.72396 8.93555 5.99168C9.20793 6.25939 9.57457 6.40939 9.95649 6.40933V6.40933ZM15.0343 6.40933C15.3238 6.41176 15.6076 6.3278 15.8492 6.16818C16.0908 6.00856 16.2793 5.78053 16.3907 5.51323C16.502 5.24592 16.5312 4.95148 16.4743 4.66754C16.4175 4.38359 16.2773 4.12304 16.0717 3.91917C15.866 3.71529 15.6043 3.57737 15.3198 3.52301C15.0354 3.46865 14.7412 3.50033 14.4749 3.614C14.2086 3.72767 13.9822 3.91817 13.8247 4.16115C13.6671 4.40413 13.5857 4.68856 13.5906 4.97809C13.5906 5.36098 13.7427 5.72819 14.0134 5.99893C14.2842 6.26967 14.6514 6.42177 15.0343 6.42177V6.40933ZM4.87871 11.4996C5.1667 11.4996 5.44823 11.4142 5.68769 11.2542C5.92715 11.0942 6.11378 10.8667 6.22399 10.6007C6.3342 10.3346 6.36304 10.0418 6.30686 9.75935C6.25067 9.47689 6.11199 9.21743 5.90834 9.01379C5.7047 8.81015 5.44524 8.67147 5.16278 8.61528C4.88032 8.5591 4.58754 8.58793 4.32147 8.69814C4.0554 8.80835 3.82798 8.99499 3.66798 9.23445C3.50798 9.47391 3.42258 9.75543 3.42258 10.0434C3.42092 10.2351 3.45745 10.4252 3.53004 10.6026C3.60263 10.78 3.70982 10.9412 3.84537 11.0768C3.98091 11.2123 4.1421 11.3195 4.31951 11.3921C4.49693 11.4647 4.68702 11.5012 4.87871 11.4996V11.4996ZM9.95649 11.4996C10.2445 11.4996 10.526 11.4142 10.7655 11.2542C11.0049 11.0942 11.1916 10.8667 11.3018 10.6007C11.412 10.3346 11.4408 10.0418 11.3846 9.75935C11.3285 9.47689 11.1898 9.21743 10.9861 9.01379C10.7825 8.81015 10.523 8.67147 10.2406 8.61528C9.95811 8.5591 9.66533 8.58793 9.39925 8.69814C9.13318 8.80835 8.90576 8.99499 8.74576 9.23445C8.58576 9.47391 8.50036 9.75543 8.50036 10.0434C8.50036 10.4296 8.65377 10.8 8.92685 11.0731C9.19993 11.3461 9.5703 11.4996 9.95649 11.4996ZM15.0343 11.4996C15.3228 11.502 15.6055 11.4187 15.8466 11.2602C16.0877 11.1017 16.2763 10.8752 16.3884 10.6093C16.5005 10.3435 16.5311 10.0503 16.4764 9.76706C16.4216 9.48378 16.2839 9.22316 16.0808 9.01827C15.8776 8.81338 15.6182 8.67346 15.3354 8.61626C15.0526 8.55906 14.7592 8.58716 14.4924 8.69699C14.2256 8.80683 13.9974 8.99345 13.8369 9.23317C13.6763 9.47289 13.5906 9.75491 13.5906 10.0434C13.5906 10.4275 13.7423 10.796 14.0127 11.0687C14.2831 11.3414 14.6502 11.4963 15.0343 11.4996V11.4996ZM4.87871 16.5773C5.1667 16.5773 5.44823 16.4919 5.68769 16.3319C5.92715 16.1719 6.11378 15.9445 6.22399 15.6785C6.3342 15.4124 6.36304 15.1196 6.30686 14.8371C6.25067 14.5547 6.11199 14.2952 5.90834 14.0916C5.7047 13.8879 5.44524 13.7492 5.16278 13.6931C4.88032 13.6369 4.58754 13.6657 4.32147 13.7759C4.0554 13.8861 3.82798 14.0728 3.66798 14.3122C3.50798 14.5517 3.42258 14.8332 3.42258 15.1212C3.42092 15.3129 3.45745 15.503 3.53004 15.6804C3.60263 15.8578 3.70982 16.019 3.84537 16.1546C3.98091 16.2901 4.1421 16.3973 4.31951 16.4699C4.49693 16.5425 4.68702 16.579 4.87871 16.5773V16.5773ZM9.95649 16.5773C10.2445 16.5773 10.526 16.4919 10.7655 16.3319C11.0049 16.1719 11.1916 15.9445 11.3018 15.6785C11.412 15.4124 11.4408 15.1196 11.3846 14.8371C11.3285 14.5547 11.1898 14.2952 10.9861 14.0916C10.7825 13.8879 10.523 13.7492 10.2406 13.6931C9.95811 13.6369 9.66533 13.6657 9.39925 13.7759C9.13318 13.8861 8.90576 14.0728 8.74576 14.3122C8.58576 14.5517 8.50036 14.8332 8.50036 15.1212C8.50036 15.5074 8.65377 15.8778 8.92685 16.1509C9.19993 16.4239 9.5703 16.5773 9.95649 16.5773V16.5773ZM15.0343 16.5773C15.3228 16.5798 15.6055 16.4965 15.8466 16.338C16.0877 16.1795 16.2763 15.953 16.3884 15.6871C16.5005 15.4213 16.5311 15.1281 16.4764 14.8448C16.4216 14.5616 16.2839 14.3009 16.0808 14.0961C15.8776 13.8912 15.6182 13.7512 15.3354 13.694C15.0526 13.6368 14.7592 13.6649 14.4924 13.7748C14.2256 13.8846 13.9974 14.0712 13.8369 14.311C13.6763 14.5507 13.5906 14.8327 13.5906 15.1212C13.5906 15.5053 13.7423 15.8738 14.0127 16.1465C14.2831 16.4192 14.6502 16.5741 15.0343 16.5773V16.5773Z" fill="#445365"/>
</svg>
