<svg
    width="40"
    height="40"
    xmlns="http://www.w3.org/2000/svg"
>
    <path
        d="M36 0a4 4 0 0 1 4 4v32a4 4 0 0 1-4 4H4a4 4 0 0 1-4-4V4a4 4 0 0 1 4-4h32ZM21.708 17.512c-1.31-1.217-2.433-1.217-3.556 0-1.59 1.59-3.088 3.181-4.678 4.772-.655.561-1.31 1.122-.936 2.058.468.936 1.31.842 2.152.842h2.714v2.714c0 .467-.094.935 0 1.403.187 1.31 1.029 2.059 2.245 2.152 1.871.094 2.807-1.123 2.9-3.368-.093-1.123 0-2.714 0-2.714h3.088c.749-.093 1.404-.187 1.685-.935.374-.749-.094-1.31-.655-1.778-1.685-1.684-3.369-3.462-4.96-5.146Zm-8.515-5.895c-1.31-.094-2.058.28-2.058 1.778 0 1.403.654 1.871 1.964 1.871h6.737c2.152 0 4.491-.093 6.737.094 1.404 0 2.059-.375 2.059-1.872s-.562-1.871-1.965-1.871c-4.492.094-8.983 0-13.474 0Z"
        fill="#000"
        opacity="0.2"
        fill-rule="nonzero"
    />
</svg>
