<svg width="16px" height="14px" viewBox="0 0 16 14" version="1.1">
    <!-- Generator: Sketch 60 (88103) - https://sketch.com -->
    <title>相机(1)</title>
    <desc>Created with Sketch.</desc>
    <g id="页面-1" stroke="none"  fill="none">
        <g id="以图搜图" transform="translate(-717.000000, -53.000000)" fill="#000000">
            <g id="3知识图谱搜索备份-22">
                <g id="搜索" transform="translate(121.000000, 42.000000)">
                    <g id="Group-16">
                        <g id="相机(1)" transform="translate(596.000000, 11.000000)">
                            <path d="M14.2268466,13.6363636 L1.71775568,13.6363636 C0.781392045,13.6363636 0.00866477273,12.8727273 0.00866477273,11.9272727 L0.00866477273,3.98181818 C0.00866477273,3.04545455 0.772301136,2.27272727 1.71775568,2.27272727 L3.9359375,2.27272727 L4.59048295,0.936363636 C4.87230114,0.372727273 5.47230114,0 6.12684659,0 L9.84502841,0 C10.4995739,0 11.0632102,0.372727273 11.381392,0.936363636 L12.0359375,2.27272727 L14.2268466,2.27272727 C15.1632102,2.27272727 15.9359375,3.03636364 15.9359375,3.98181818 L15.9359375,11.9363636 C15.9268466,12.8727273 15.1632102,13.6363636 14.2268466,13.6363636 Z M1.71775568,3.40909091 C1.40866477,3.40909091 1.15411932,3.66363636 1.15411932,3.97272727 L1.15411932,11.9272727 C1.15411932,12.2363636 1.40866477,12.4909091 1.71775568,12.4909091 L14.2177557,12.4909091 C14.5268466,12.4909091 14.781392,12.2363636 14.781392,11.9272727 L14.781392,3.98181818 C14.781392,3.67272727 14.5268466,3.41818182 14.2177557,3.41818182 L11.6632102,3.41818182 C11.4359375,3.41818182 11.2359375,3.30909091 11.1541193,3.10909091 L10.3268466,1.46363636 C10.2450284,1.26363636 10.0450284,1.15454545 9.81775568,1.15454545 L6.12684659,1.15454545 C5.89957386,1.15454545 5.72684659,1.26363636 5.61775568,1.46363636 L4.79048295,3.1 C4.70866477,3.3 4.50866477,3.40909091 4.28139205,3.40909091 L1.71775568,3.40909091 Z" id="形状"></path>
                            <path d="M7.97230114,10.8 C6.2359375,10.8 4.84502841,9.40909091 4.84502841,7.67272727 C4.84502841,5.93636364 6.2359375,4.54545455 7.97230114,4.54545455 C9.70866477,4.54545455 11.0995739,5.93636364 11.0995739,7.67272727 C11.0995739,9.40909091 9.70866477,10.8 7.97230114,10.8 Z M7.97230114,5.68181818 C6.86321023,5.68181818 5.98139205,6.56363636 5.98139205,7.67272727 C5.98139205,8.78181818 6.86321023,9.66363636 7.97230114,9.66363636 C9.08139205,9.66363636 9.96321023,8.78181818 9.96321023,7.67272727 C9.96321023,6.56363636 9.08139205,5.68181818 7.97230114,5.68181818 Z M12.8632102,4.45454545 C12.8632102,4.65591334 12.9706387,4.84198495 13.1450284,4.94266889 C13.3194181,5.04335284 13.5342751,5.04335284 13.7086648,4.94266889 C13.8830545,4.84198495 13.990483,4.65591334 13.990483,4.45454545 C13.990483,4.14325769 13.7381344,3.89090909 13.4268466,3.89090909 C13.1155588,3.89090909 12.8632102,4.14325769 12.8632102,4.45454545 L12.8632102,4.45454545 Z" id="形状"></path>
                        </g>
                    </g>
                </g>
            </g>
        </g>
    </g>
</svg>
