<?xml version="1.0" encoding="utf-8"?>
<!-- Generator: Adobe Illustrator 22.0.0, SVG Export Plug-In . SVG Version: 6.00 Build 0)  -->
<svg version="1.1" id="图层_1" xmlns="http://www.w3.org/2000/svg" xmlns:xlink="http://www.w3.org/1999/xlink" x="0px" y="0px"
	 viewBox="0 0 200 200" style="enable-background:new 0 0 200 200;" xml:space="preserve">
<style type="text/css">
	.st0{fill:#505050;}
	.st1{fill:none;stroke:#505050;stroke-width:12;stroke-miterlimit:10;}
</style>
<g>
	<path class="st0" d="M154.1,50.4l-5.5-2.4c-1.5-0.7-2.2-2.4-1.6-3.9l16.4-38.3c0.7-1.5,2.4-2.2,3.9-1.6l5.5,2.4
		c1.5,0.7,2.2,2.4,1.6,3.9L158,48.9C157.4,50.4,155.6,51.1,154.1,50.4z"/>
	<path class="st0" d="M82.9,66.7l2.4-5.5c0.7-1.5,2.4-2.2,3.9-1.6l100.1,42.9c1.5,0.7,2.2,2.4,1.6,3.9l-2.4,5.5
		c-0.7,1.5-2.4,2.2-3.9,1.6L84.5,70.6C83,70,82.3,68.2,82.9,66.7z"/>
	<path class="st0" d="M65,159.1l-5.5-2.4c-1.5-0.7-2.2-2.4-1.6-3.9l28.4-28.1c0.7-1.5,2.4-2.2,3.9-1.6l5.5,2.4
		c1.5,0.7,2.2,2.4,1.6,3.9L69,157.6C68.3,159.1,66.6,159.8,65,159.1z"/>
	<path class="st0" d="M104.6,176.1l-5.5-2.4c-1.5-0.7-2.2-2.4-1.6-3.9l28.4-28.1c0.7-1.5,2.4-2.2,3.9-1.6l5.5,2.4
		c1.5,0.7,2.2,2.4,1.6,3.9l-28.4,28.1C107.8,176,106.1,176.7,104.6,176.1z"/>
	<path class="st1" d="M145.3,190.1l-135-59.6c-2-0.9-2.4-3.5-0.9-4.9c0,0,44.4-27.5,62.8-44.9C95,59,108.7,32.1,108.7,32.1
		c0.9-0.8,2.1-1,3.2-0.6l77,31.2c1.5,0.6,2.1,2.3,1.6,3.8c0,0,0.4,37.9-9,67.1c-9.7,30.1-32.3,54.8-32.3,54.8
		C148.7,189.9,146.9,190.7,145.3,190.1z"/>
</g>
</svg>
