<?xml version="1.0" encoding="UTF-8"?>
<svg width="12px" height="14px" viewBox="0 0 12 14" version="1.1" xmlns="http://www.w3.org/2000/svg" xmlns:xlink="http://www.w3.org/1999/xlink">
    <!-- Generator: Sketch 60 (88103) - https://sketch.com -->
    <title>编组</title>
    <desc>Created with Sketch.</desc>
    <g id="页面-3" stroke="none" stroke-width="1" fill="none" fill-rule="evenodd" opacity="0.6">
        <g id="修改密码页面" transform="translate(-496.000000, -366.000000)" fill="#6C798C" fill-rule="nonzero">
            <g id="编组-4备份-4">
                <g id="编组-3备份-3" transform="translate(435.000000, 70.000000)">
                    <g id="编组" transform="translate(61.000000, 296.000000)">
                        <path d="M10.7618438,5.88065625 C11.3162438,5.88065625 11.7698438,6.33425625 11.7698438,6.88865625 L11.7698438,6.88865625 L11.7698438,12.9366563 C11.7698438,13.4910563 11.3162438,13.9446563 10.7618438,13.9446563 L10.7618438,13.9446563 L1.01784375,13.9446563 C0.46344375,13.9446563 0.00984375,13.4910563 0.00984375,12.9366563 L0.00984375,12.9366563 L0.00984375,6.88865625 C0.00984375,6.33425625 0.46344375,5.88065625 1.01784375,5.88065625 L1.01784375,5.88065625 Z M9.35355339,8.14644661 C9.15829124,7.95118446 8.84170876,7.95118446 8.64644661,8.14644661 L8.64644661,8.14644661 L6,10.793 L4.35355339,9.14644661 L4.2843055,9.08859116 C4.08943736,8.95359511 3.82001296,8.97288026 3.64644661,9.14644661 C3.45118446,9.34170876 3.45118446,9.65829124 3.64644661,9.85355339 L3.64644661,9.85355339 L5.64644661,11.8535534 L5.7156945,11.9114088 C5.91056264,12.0464049 6.17998704,12.0271197 6.35355339,11.8535534 L6.35355339,11.8535534 L9.35355339,8.85355339 L9.41140884,8.7843055 C9.54640489,8.58943736 9.52711974,8.32001296 9.35355339,8.14644661 Z" id="形状结合"></path>
                        <path d="M9.70344375,5.93105625 L8.61144375,5.93105625 L8.61144375,3.80585625 C8.61144375,2.30225625 7.39344375,1.08425625 5.88984375,1.08425625 C4.38624375,1.08425625 3.16824375,2.31065625 3.16824375,3.80585625 L3.16824375,5.93105625 L2.07624375,5.93105625 L2.07624375,3.80585625 C2.07624375,1.70585625 3.78984375,0.00065625 5.88984375,0.00065625 C7.98984375,0.00065625 9.70344375,1.71425625 9.70344375,3.81425625 L9.70344375,5.93105625 Z" id="路径"></path>
                    </g>
                </g>
            </g>
        </g>
    </g>
</svg>