<?xml version="1.0" encoding="UTF-8"?>
<svg width="18px" height="18px" viewBox="0 0 18 18" version="1.1" xmlns="http://www.w3.org/2000/svg" xmlns:xlink="http://www.w3.org/1999/xlink">
    <!-- Generator: Sketch 60 (88103) - https://sketch.com -->
    <title>拷贝</title>
    <desc>Created with Sketch.</desc>
    <g id="手动发起文档库同步" stroke="none" stroke-width="1" fill="none" fill-rule="evenodd" fill-opacity="0.75">
        <g id="配置同步计划策略" transform="translate(-568.000000, -253.000000)" fill="#3461EC" fill-rule="nonzero">
            <g id="编组-22备份" transform="translate(0.000000, -5.000000)">
                <g id="Group-8" transform="translate(298.000000, 106.000000)">
                    <g id="Group-14">
                        <g id="Group-27">
                            <g id="拷贝" transform="translate(270.000000, 152.000000)">
                                <path d="M9,0 C4.02943725,0 0,4.02943725 0,9 C0,13.9705627 4.02943725,18 9,18 C13.9705627,18 18,13.9705627 18,9 C18,4.02943725 13.9705627,0 9,0 Z M9,0.857142857 C13.4971758,0.857142857 17.1428571,4.50282418 17.1428571,9 C17.1428571,13.4971758 13.4971758,17.1428571 9,17.1428571 C4.50282418,17.1428571 0.857142857,13.4971758 0.857142857,9 C0.857142857,4.50282418 4.50282418,0.857142857 9,0.857142857 Z" id="椭圆形"></path>
                                <g id="编组" transform="translate(4.000000, 4.000000)">
                                    <path d="M9.0325,0 L3.27,0 C2.735,0 2.30249999,0.434999996 2.3025,0.970499998 L2.3025,1.48799999 L0.967499995,1.48799999 C0.43413929,1.48799822 0.00137819141,1.91964108 0,2.453 L0,9.0295 C0,9.56450001 0.432499998,10 0.967499995,10 L6.73,10 C7.265,10 7.69750001,9.565 7.6975,9.0295 L7.6975,8.51200001 L9.0325,8.51200001 C9.56586071,8.51200178 9.99862181,8.08035892 10,7.547 L10,0.970499998 C10,0.435499991 9.5675,0 9.0325,0 Z M7.0525,9.0295 C7.05276613,9.11529217 7.01883737,9.19765448 6.95821979,9.2583659 C6.89760221,9.31907731 6.81529247,9.35313343 6.7295,9.35300156 L0.967499995,9.35300156 C0.881620976,9.35326671 0.799182433,9.31926942 0.738456503,9.25854349 C0.677730574,9.19781756 0.643733289,9.11537902 0.643998438,9.0295 L0.643998438,2.447 C0.645179073,2.36261501 0.680010694,2.28219558 0.740755648,2.22361002 C0.801500602,2.16502447 0.883127596,2.13312524 0.967499995,2.13499999 L6.73,2.13499999 C6.90621058,2.13577244 7.04970636,2.27682857 7.0535,2.453 L7.0535,9.0295 L7.0525,9.0295 Z M9.35600635,7.547 C9.3565322,7.6309352 9.32359586,7.71162258 9.26447858,7.77120905 C9.20536129,7.83079553 9.1249368,7.86436867 9.04100001,7.8645 L7.70000001,7.8645 L7.70000001,2.453 C7.69725539,1.9202112 7.26529412,1.48936611 6.7325,1.48799999 L2.9475,1.48799999 L2.9475,0.970499998 C2.9475,0.791 3.09099999,0.646999999 3.2705,0.646999999 L9.0325,0.646999999 C9.212,0.646999999 9.35600635,0.791 9.35600635,0.970499998 L9.35600635,7.547 L9.35600635,7.547 Z" id="形状"></path>
                                    <path d="M5.73258129,7.29033259 L2.26992335,7.29033259 C2.19826801,7.29004177 2.12948331,7.32733171 2.07881509,7.39393897 C2.02814687,7.46054624 1.99978037,7.550969 2.00000161,7.64516545 C2.00000161,7.84205012 2.12015296,7.99999831 2.26992335,7.99999831 L5.73007816,7.99999831 C5.8017335,8.00028914 5.87051819,7.9629992 5.92118642,7.89639193 C5.97185464,7.82978466 6.00022114,7.7393619 6.00000161,7.64516545 C6.00069193,7.4503184 5.88121761,7.29154242 5.73299847,7.29033259 L5.73258129,7.29033259 Z M2.26992274,5.14818518 C2.19826747,5.14789265 2.12948285,5.18518259 2.07881469,5.25178985 C2.02814652,5.31839712 1.99978005,5.40881988 2,5.50301633 C2,5.70044944 2.12015252,5.85784748 2.26992274,5.85784748 L5.73007387,5.85784748 C5.80172913,5.85814002 5.87051375,5.82085008 5.92118192,5.75424281 C5.97185009,5.68763554 6.00021655,5.59721278 6,5.50301633 C6.00068734,5.30816928 5.88121316,5.1493933 5.73299417,5.14818518 L2.26992274,5.14818518 Z M5.73258129,3.00000169 L2.26992335,3.00000169 C2.19826801,2.99971086 2.12948331,3.0370008 2.07881509,3.10360807 C2.02814687,3.17021534 1.99978037,3.2606381 2.00000161,3.35483455 C2.00000161,3.5511708 2.12015296,3.70966741 2.26992335,3.70966741 L5.73007816,3.70966741 C5.8017335,3.70995823 5.87051819,3.67266829 5.92118642,3.60606103 C5.97185464,3.53945376 6.00022114,3.449031 6.00000161,3.35483455 C6.00069193,3.15998749 5.88121761,3.00121151 5.73299847,3.00000169 L5.73258129,3.00000169 Z" id="形状"></path>
                                </g>
                            </g>
                        </g>
                    </g>
                </g>
            </g>
        </g>
    </g>
</svg>