
<?xml version="1.0" encoding="UTF-8"?>
<svg width="16px" height="16px" viewBox="0 0 16 16" version="1.1">
    <!-- Generator: Sketch 60 (88103) - https://sketch.com -->
    <title>路径</title>
    <desc>Created with Sketch.</desc>
    <g id="页面-2" stroke="none"  fill="none">
        <g id="点击手动框选" transform="translate(-127.000000, -217.000000)" fill="#FFFFFF">
            <g id="3知识图谱搜索备份-22">
                <g id="编组-56" transform="translate(120.000000, 140.000000)">
                    <g id="裁剪(1)" transform="translate(7.000000, 77.000000)">
                        <path d="M15.3987201,13.93 L13.9072458,13.93 L13.9072458,15.4213829 C13.9072458,15.6961257 13.6848915,15.9185714 13.4100572,15.9185714 C13.1352229,15.9185714 12.9128686,15.6960343 12.9128686,15.4213829 L12.9128686,13.93 L1.97536008,13.93 L1.97536008,2.99285714 L0.483885792,2.99285714 C0.21454664,2.98555165 -3.46389584e-14,2.76510678 -3.46389584e-14,2.49566857 C-3.46389584e-14,2.22623036 0.21454664,2.0057855 0.483885792,1.99848 L1.97536008,1.99848 L1.97536008,0.507188571 C1.97531155,0.375311093 2.02767818,0.248821036 2.12092965,0.15556957 C2.21418111,0.0623181038 2.34067117,0.0099999663 2.47254865,0.0099999663 C2.60441869,0.0099999663 2.73089464,0.0623501711 2.82414085,0.155596374 C2.91738705,0.248842577 2.96976148,0.375318529 2.96973722,0.507188571 L2.96973722,1.99857143 L10.8554515,1.99857143 L9.94025151,2.99285714 L2.96973722,2.99285714 L2.96973722,12.2108686 L13.8073144,0.898411429 L14.5103086,1.60131429 L3.65179436,12.9357143 L12.9129601,12.9357143 L12.9129601,5.47861714 L13.9072458,4.48433143 L13.9072458,12.9358057 L15.3987201,12.9358057 C15.5785883,12.9323558 15.7462897,13.0263402 15.8372345,13.1815611 C15.9281793,13.3367821 15.9281793,13.5290236 15.8372345,13.6842446 C15.7462897,13.8394655 15.5785883,13.9334499 15.3987201,13.93 L15.3987201,13.93 Z" id="路径"></path>
                    </g>
                </g>
            </g>
        </g>
    </g>
</svg>
