<?xml version="1.0" encoding="UTF-8"?>
<svg width="18px" height="18px" viewBox="0 0 18 18" version="1.1" xmlns="http://www.w3.org/2000/svg" xmlns:xlink="http://www.w3.org/1999/xlink">
    <!-- Generator: Sketch 60 (88103) - https://sketch.com -->
    <title>编组备份 2</title>
    <desc>Created with Sketch.</desc>
    <g id="手动发起文档库同步" stroke="none" stroke-width="1" fill="none" fill-rule="evenodd" fill-opacity="0.75">
        <g id="配置同步计划策略" transform="translate(-569.000000, -357.000000)" fill="#3461EC">
            <g id="编组-22备份" transform="translate(0.000000, -5.000000)">
                <g id="Group-8" transform="translate(298.000000, 106.000000)">
                    <g id="Group-14">
                        <g id="Group-27">
                            <g id="编组备份-2" transform="translate(271.000000, 256.000000)">
                                <g id="编组">
                                    <g id="编组-3">
                                        <g id="编组-5">
                                            <path d="M9,0.65 C4.38842234,0.65 0.65,4.38842234 0.65,9 C0.65,13.6115777 4.38842234,17.35 9,17.35 C13.6115777,17.35 17.35,13.6115777 17.35,9 C17.35,4.38842234 13.6115777,0.65 9,0.65 Z M9,1.35 C13.2249783,1.35 16.65,4.77502166 16.65,9 C16.65,13.2249783 13.2249783,16.65 9,16.65 C4.77502166,16.65 1.35,13.2249783 1.35,9 C1.35,4.77502166 4.77502166,1.35 9,1.35 Z" id="椭圆形" fill-rule="nonzero"></path>
                                            <path d="M5.78018576,6.47188234 C6.53869969,5.51279199 7.74097007,4.88987764 9.09803922,4.88987764 C10.9143447,4.88987764 12.4571723,6.00222469 13.0299278,7.5545668 L14,7.5545668 C13.3962848,5.50290446 11.4303406,4 9.09803922,4 C7.42105263,4 5.93498452,4.78111482 5.00619195,5.97750587 L4,5.33481646 L4,8.44444444 L6.78121775,7.10962798 C6.78121775,7.11457175 5.78018576,6.47188234 5.78018576,6.47188234 Z M11.2150593,10.8869092 L12.215575,11.525365 C11.4574523,12.4855234 10.255802,13.1091314 8.8994327,13.1091314 C7.08406395,13.1091314 5.54203198,11.9955457 4.96957194,10.4414749 L4,10.4414749 C4.60340382,12.4954219 6.56833419,14 8.8994327,14 C10.5755544,14 12.0608561,13.2180153 12.9891697,12.020292 L14,12.6686464 L14,9.55555556 L11.2150593,10.8869092 Z" id="形状结合"></path>
                                        </g>
                                    </g>
                                </g>
                            </g>
                        </g>
                    </g>
                </g>
            </g>
        </g>
    </g>
</svg>