<?xml version="1.0" encoding="UTF-8"?>
<svg width="15px" height="16px" viewBox="0 0 15 16" version="1.1" xmlns="http://www.w3.org/2000/svg" xmlns:xlink="http://www.w3.org/1999/xlink">
    <!-- Generator: Sketch 60 (88103) - https://sketch.com -->
    <title>形状结合备份</title>
    <desc>Created with Sketch.</desc>
    <g id="手动发起文档库同步" stroke="none" stroke-width="1" fill="none" fill-rule="evenodd">
        <g id="画板备份-3" transform="translate(-472.000000, -545.000000)" fill="#90A7C9" fill-rule="nonzero">
            <g id="编组-2备份">
                <g id="编组-3" transform="translate(214.000000, 226.000000)">
                    <g id="编组-16">
                        <path d="M265.66,319.0032 C267.3208,319.0032 268.6616,320.2512 268.7032,321.8128 L268.7032,321.8128 L268.7032,322.0144 L272.364,322.0144 C272.7032,322.0144 272.9912,322.28 272.9912,322.5968 C272.9912,322.92 272.7288,323.176 272.364,323.176 L272.364,323.176 L270.8088,323.176 L270.8088,331.5504 C270.8088,333.7904 270.5112,334.3536 268.7096,334.3536 L268.7096,334.3536 L262.2936,334.3536 C260.5016,334.3536 260.1944,333.7712 260.1944,331.5504 L260.1944,331.5504 L260.1944,323.1728 L258.6392,323.1728 C258.2744,323.1728 258.012,322.9168 258.012,322.5936 C258.012,322.2704 258.2744,322.0144 258.6392,322.0144 L258.6392,322.0144 L262.6328,322.0144 L262.6328,321.8128 C262.668,320.2512 264.0056,319.0032 265.66,319.0032 Z M264.0216,325.3616 C263.6088,325.3616 263.3112,325.7552 263.3112,326.2128 L263.3112,330.4208 C263.3112,330.8848 263.6088,331.272 264.0216,331.272 C264.4344,331.272 264.732,330.8784 264.732,330.4208 L264.732,326.2128 C264.7352,325.7488 264.3928,325.3616 264.0216,325.3616 Z M266.9816,325.3616 C266.5688,325.3616 266.268,325.7552 266.268,326.2128 L266.268,330.4208 C266.268,330.8848 266.6072,331.272 266.9784,331.272 C267.3912,331.272 267.6888,330.8784 267.6888,330.4208 L267.6888,326.2128 C267.7336,325.7488 267.3976,325.3616 266.9816,325.3616 Z M265.628,320.056 C264.652,320.056 263.8328,320.8048 263.7496,321.752 L263.7496,321.752 L263.7336,321.9824 L267.5128,321.9824 L267.5032,321.7616 C267.4616,320.7952 266.6296,320.056 265.628,320.056 Z" id="形状结合备份"></path>
                    </g>
                </g>
            </g>
        </g>
    </g>
</svg>