<svg class="icon" width="200" height="200" viewBox="0 0 1024 1024" xmlns="http://www.w3.org/2000/svg">
    <path d="M16 712a496 120 0 10992 0 496 120 0 10-992 0z" fill="#F1F2F4" />
    <path
        d="M151.264 394.32L302.88 209.552A48 48 0 01340 192h326.72a48 48 0 0136.912 17.328l152.96 184.048A32 32 0 01864 413.824v173.312L144 592V414.624a32 32 0 017.264-20.304z"
        fill="#FFF" />
    <path
        d="M852 413.824a20 20 0 00-4.624-12.784l-152.96-184.048A36 36 0 00666.736 204H339.984a36 36 0 00-27.84 13.168L160.56 401.92a20 20 0 00-4.544 12.688v165.28l696-4.688V413.824zM141.984 386.72L293.6 201.92a60 60 0 0146.4-21.936h326.72a60 60 0 0146.16 21.664l152.96 184.048A44 44 0 01876 413.824v185.232l-744 5.024V414.64c0-10.192 3.52-20.064 9.984-27.92z"
        fill="#CFD1DB" />
    <path
        d="M144 416v272a48 48 0 0048 48h624a48 48 0 0048-48V416a16 16 0 00-16-16H721.008a47.616 47.616 0 00-47.616 47.616v15.632a32 32 0 01-32 32H390a32 32 0 01-32-32v-15.632A47.616 47.616 0 00310.4 400H160a16 16 0 00-16 16z"
        fill="#FAFAFA" />
    <path
        d="M132 416c0-15.456 12.544-28 28-28h150.384A59.616 59.616 0 01370 447.616v15.632c0 11.04 8.96 20 20 20h251.392c11.04 0 20-8.96 20-20v-15.632A59.616 59.616 0 01721.008 388H848c15.456 0 28 12.544 28 28v272a60 60 0 01-60 60H192a60 60 0 01-60-60V416zm24 0v272a36 36 0 0036 36h624a36 36 0 0036-36V416a4 4 0 00-4-4H721.008c-19.68 0-35.616 15.952-35.616 35.616v15.632a44 44 0 01-44 44H390a44 44 0 01-44-44v-15.632c0-19.68-15.936-35.616-35.616-35.616H160a4 4 0 00-4 4z"
        fill="#CFD1DB" />
</svg>
