<?xml version="1.0" encoding="utf-8"?>
<!-- Generator: Adobe Illustrator 22.0.0, SVG Export Plug-In . SVG Version: 6.00 Build 0)  -->
<svg version="1.1" id="其它_1_" xmlns="http://www.w3.org/2000/svg" xmlns:xlink="http://www.w3.org/1999/xlink" x="0px" y="0px"
	 viewBox="0 0 200 200" enable-background="new 0 0 200 200" xml:space="preserve">
<g>
	<path fill="currentColor" d="M162.964,197.667H38.036c-12.518,0-22.702-10.271-22.702-22.895V25.228
		c0-12.624,10.184-22.894,22.702-22.894h124.928c12.519,0,22.703,10.27,22.703,22.894v149.545
		C185.667,187.396,175.482,197.667,162.964,197.667z M38.036,14.333c-5.901,0-10.702,4.887-10.702,10.894v149.545
		c0,6.007,4.801,10.895,10.702,10.895h124.928c5.901,0,10.703-4.888,10.703-10.895V25.228c0-6.007-4.802-10.894-10.703-10.894
		H38.036z"/>
	<path fill="currentColor" d="M162.964,8.333H38.036c-9.186,0-16.703,7.602-16.703,16.894v149.545c0,9.292,7.516,16.894,16.703,16.894
		h124.928c9.186,0,16.703-7.602,16.703-16.894V25.228C179.667,15.936,172.151,8.333,162.964,8.333z M140,142c0,1.65-1.35,3-3,3H63
		c-1.65,0-3-1.35-3-3v-6c0-1.65,1.35-3,3-3h74c1.65,0,3,1.35,3,3V142z M140,102c0,1.65-1.35,3-3,3H63c-1.65,0-3-1.35-3-3v-6
		c0-1.65,1.35-3,3-3h74c1.65,0,3,1.35,3,3V102z M140,62c0,1.65-1.35,3-3,3H63c-1.65,0-3-1.35-3-3v-6c0-1.65,1.35-3,3-3h74
		c1.65,0,3,1.35,3,3V62z"/>
</g>
</svg>
