<?xml version="1.0" encoding="UTF-8"?>
<svg width="12px" height="13px" viewBox="0 0 12 13" version="1.1" xmlns="http://www.w3.org/2000/svg" xmlns:xlink="http://www.w3.org/1999/xlink">
    <!-- Generator: Sketch 60 (88103) - https://sketch.com -->
    <title>形状</title>
    <desc>Created with Sketch.</desc>
    <g id="页面-1" stroke="none" stroke-width="1" fill="none" fill-rule="evenodd">
        <g id="客户端下载" transform="translate(-477.000000, -387.000000)" fill="#364676">
            <g id="编组-3备份-27" transform="translate(7.000000, 9.000000)">
                <g id="Windows下载备份-7" transform="translate(61.000000, 360.000000)">
                    <path d="M420.999025,27.4826119 C420.98144,27.5323521 420.691507,28.4345951 419.980774,29.3621175 C419.365739,30.1622388 418.729218,30.96936 417.723676,30.9833338 C416.73569,30.9990245 416.419395,30.4562945 415.290816,30.4562945 C414.164218,30.4562945 413.809827,30.9693601 412.875571,30.9990245 C411.910016,31.0339456 411.167098,30.1247289 410.550113,29.3280946 C409.287799,27.6972632 408.314471,24.7061464 409.618753,22.7018811 C410.260151,21.6984408 411.413112,21.0614609 412.668599,21.0440003 C413.615563,21.0274379 414.514708,21.6164212 415.089725,21.6164212 C415.679373,21.6164212 416.76888,20.9043952 417.916964,21.0108491 C418.398264,21.0282832 419.743538,21.1906056 420.610468,22.3135753 C420.542137,22.3545984 419.00062,23.1678216 419.018175,24.8221891 C419.040637,26.8203525 420.978543,27.4747666 421,27.4826119 M417.212487,20.0811244 C417.733443,19.5247208 418.075836,18.7593404 417.985575,18 C417.241891,18.0257739 416.337317,18.4325588 415.797739,18.9854998 C415.322879,19.4688253 414.902966,20.2453744 415.019721,20.9969826 C415.845795,21.0399912 416.695452,20.617742 417.212457,20.0810984" id="形状"></path>
                </g>
            </g>
        </g>
    </g>
</svg>