<?xml version="1.0" encoding="UTF-8"?>
<svg width="12px" height="14px" viewBox="0 0 12 14" version="1.1" xmlns="http://www.w3.org/2000/svg" xmlns:xlink="http://www.w3.org/1999/xlink">
    <!-- Generator: Sketch 60 (88103) - https://sketch.com -->
    <title>编组</title>
    <desc>Created with Sketch.</desc>
    <g id="页面-3" stroke="none" stroke-width="1" fill="none" fill-rule="evenodd" opacity="0.6">
        <g id="账号密码+动态密码登录" transform="translate(-716.000000, -368.000000)" fill="#6C798C" fill-rule="nonzero">
            <g id="编组-4" transform="translate(140.000000, 79.000000)">
                <g id="图层-8备份-6">
                    <g id="编组-3" transform="translate(560.000000, 105.000000)">
                        <g id="Group-3">
                            <g id="编组" transform="translate(16.000000, 184.000000)">
                                <path d="M10.7618437,5.88065625 C11.3162437,5.88065625 11.7698437,6.33425625 11.7698437,6.88865625 L11.7698437,6.88865625 L11.7698437,12.9366563 C11.7698437,13.4910563 11.3162437,13.9446563 10.7618437,13.9446563 L10.7618437,13.9446563 L1.01784375,13.9446563 C0.46344375,13.9446563 0.00984375,13.4910563 0.00984375,12.9366563 L0.00984375,12.9366563 L0.00984375,6.88865625 C0.00984375,6.33425625 0.46344375,5.88065625 1.01784375,5.88065625 L1.01784375,5.88065625 Z M4.76842105,9.03002632 C4.14947368,9.03002632 3.51789474,9.40897368 3,10.2931842 L3.64421053,10.7479211 C3.97263158,10.1416053 4.32631579,9.88897368 4.73052632,9.88897368 C5.52631579,9.88897368 6.12,11.0889737 7.24421053,11.0889737 C7.85052632,11.0889737 8.48210526,10.7100263 9,9.82581579 L8.34315789,9.35844737 C8.02736842,9.96476316 7.67368421,10.2173947 7.26947368,10.2173947 C6.47368421,10.2173947 5.86736842,9.03002632 4.76842105,9.03002632 Z" id="形状结合"></path>
                                <path d="M9.70344375,5.93105625 L8.61144375,5.93105625 L8.61144375,3.80585625 C8.61144375,2.30225625 7.39344375,1.08425625 5.88984375,1.08425625 C4.38624375,1.08425625 3.16824375,2.31065625 3.16824375,3.80585625 L3.16824375,5.93105625 L2.07624375,5.93105625 L2.07624375,3.80585625 C2.07624375,1.70585625 3.78984375,0.00065625 5.88984375,0.00065625 C7.98984375,0.00065625 9.70344375,1.71425625 9.70344375,3.81425625 L9.70344375,5.93105625 Z" id="路径"></path>
                            </g>
                        </g>
                    </g>
                </g>
            </g>
        </g>
    </g>
</svg>