<?xml version="1.0" encoding="UTF-8"?>
<svg width="16px" height="12px" viewBox="0 0 16 12" version="1.1" xmlns="http://www.w3.org/2000/svg" xmlns:xlink="http://www.w3.org/1999/xlink">
    <!-- Generator: Sketch 60 (88103) - https://sketch.com -->
    <title>邮箱</title>
    <desc>Created with Sketch.</desc>
    <g id="页面-3" stroke="none" stroke-width="1" fill="none" fill-rule="evenodd">
        <g id="重置密码1" transform="translate(-521.000000, -184.000000)" fill="#6C798C">
            <g id="编组-4备份-4">
                <g id="编组-3备份-3" transform="translate(435.000000, 70.000000)">
                    <g id="Group-12" transform="translate(45.000000, 104.000000)">
                        <g id="手机或邮箱" transform="translate(16.000000, 3.000000)">
                            <g id="邮箱" transform="translate(25.000000, 7.000000)">
                                <g id="形状结合">
                                    <path d="M15,0 C15.5522847,-1.01453063e-16 16,0.44771525 16,1 L16,11 C16,11.5522847 15.5522847,12 15,12 L1,12 C0.44771525,12 6.76353751e-17,11.5522847 0,11 L0,1 C-6.76353751e-17,0.44771525 0.44771525,1.01453063e-16 1,0 L15,0 Z M14.4160251,1.7226499 C14.2628489,1.49288556 13.9524142,1.43079862 13.7226499,1.58397485 L13.7226499,1.58397485 L8,5.398 L2.2773501,1.58397485 L2.19810057,1.54082354 C1.98054173,1.44666581 1.7201315,1.51841493 1.58397485,1.7226499 C1.43079862,1.95241425 1.49288556,2.26284892 1.7226499,2.41602515 L1.7226499,2.41602515 L7.7226499,6.41602515 L7.8103915,6.46267784 C7.96212067,6.52488144 8.13739201,6.50933054 8.2773501,6.41602515 L8.2773501,6.41602515 L14.2773501,2.41602515 L14.3476627,2.35946839 C14.518254,2.19485937 14.5521818,1.92688487 14.4160251,1.7226499 Z"></path>
                                </g>
                            </g>
                        </g>
                    </g>
                </g>
            </g>
        </g>
    </g>
</svg>