<svg xmlns="http://www.w3.org/2000/svg" viewBox="0 0 200 200">
  <path fill="#2a92ff" d="M21 4h119.4c2 0 4 .8 5.4 2.1l38.6 35.8c1.6 1.5 2.6 3.6 2.6 5.9V188c0 4.4-3.6 8-8 8H21c-4.4 0-8-3.6-8-8V12c0-4.4 3.6-8 8-8z"/>
  <path fill="#fff" d="M154 71h-29V57.3 57c-.2-1.6-1.6-2.8-3.3-2.7l-76 7.9c-1.5.2-2.7 1.4-2.7 3v79.6c0 1.5 1.2 2.8 2.7 3l76 7.9h.3c1.7 0 3-1.3 3-3V139h29c1.7 0 3-1.3 3-3V74c0-1.7-1.3-3-3-3zm-49.3 57.6H90.3L86 107.9c-.8-3.6-1.4-7.5-1.9-11.1h-.3c-.6 3.6-1.2 7.4-1.9 11.1l-4.2 20.7h-14L55 81h11.7l3 21.7 1.9 15.1h.3c.9-5.1 1.9-10.2 2.8-15.1L79.6 81h9.6l5 21.7c1 4.9 1.8 10 2.8 15.1h.3c.6-5.1 1.2-10.2 1.8-15.1l3.1-21.7H113l-8.3 47.6zM151 133h-26v-15h16v-7h-16V98h16v-7h-16V77h26v56z"/>
</svg>
