<svg xmlns="http://www.w3.org/2000/svg" id="图层_1" x="0" y="0" version="1.1" viewBox="0 0 200 200" xml:space="preserve">
  <style>
    .st1{fill:#fff}
  </style>
  <g id="pdf-copy">
    <path id="Rectangle-18" fill="#ff4a80" d="M21 4h119.4c2 0 4 .8 5.4 2.1l38.6 35.8c1.6 1.5 2.6 3.6 2.6 5.9V188c0 4.4-3.6 8-8 8H21c-4.4 0-8-3.6-8-8V12c0-4.4 3.6-8 8-8z"/>
  </g>
  <path d="M37.2 49.4H55c11.2 0 20.3 3.9 20.3 16.5 0 12-9.3 17.3-20 17.3h-5.9V100H37.2V49.4zm17.5 24.2c5.9 0 8.8-2.8 8.8-7.8 0-5.1-3.3-6.9-9.1-6.9h-5v14.6h5.3v.1zM84 49.4h14.5c15.4 0 25.6 7.4 25.6 25s-10.2 25.6-25 25.6H84V49.4zm13.8 40.8c8.2 0 13.9-3.7 13.9-15.8S105.9 59 97.8 59h-1.6v31.1h1.6v.1zM133.5 49.4h32.3v10.1h-20.1v11.1H163v10.1h-17.3V100h-12.2V49.4zM138.4 153.3c-1.7-1.8-3.9-2.8-6.8-3.3-4.7-.7-9.7-.5-15.1.6-.5.1-1.1-.1-1.3-.2l-.1-.1c-4.5-3.6-8.4-7.4-11.5-11.2-.5-.8-.7-1.5-.7-2.3.7-5.8 1.3-12 .6-18.5-.2-1.4-1.1-2.4-2.2-2.7-1.8-1.3-3.9-1.7-5.8-1s-3.4 2.3-3.9 4.3c-.3 1.2-.3 2.5-.2 4.1.3 6 2.9 11.3 5.4 15.8.4.7.6 1.8.4 2.4-.9 3.3-1.8 6.5-2.7 9.7-.6 2.2-1.3 4.3-1.8 6.5-1 3.2-2.5 5-5.1 6.1-.1 0-.4.1-.6.4-3.4 2.3-7.2 5.1-9.9 9.1-1.1 1.7-2.4 4.2-1.7 7.2.3 1.2.9 2.1 1.8 2.6.6.3 1.2.5 2 .5.5 0 1.1-.1 1.7-.3 2.7-.9 4.9-2.8 6.8-5.7 1.6-2.5 3.1-5.2 4.5-7.7.7-1.3 1.4-2.6 2.2-3.9l.1-.1c.3-.7.8-1.2 1.2-1.4 5.2-2.9 11-5.4 17.7-7.5.6-.2 1.2-.1 1.9.4 3.2 2.5 7.2 5.4 12.1 7.2 2 .7 4.1 1.1 6 1.3 2.9.2 5.9-1.6 7-4.2 1-2.7.2-6.1-2-8.1zm-2.8 5.5c-.4 1.2-1.7 1.3-2.4 1.4-.8.1-1.8 0-2.5-.3-3.5-1.1-6.8-3.2-9.8-5.3 1.2-.2 2.3-.4 3.4-.7 2.2-.1 4.3-.1 6.2.3 1.5.4 3.2 1.3 4.2 2 1.4 1.1 1 2.2.9 2.6zm-25.9-6.6c-1.4.5-2.7 1.1-4 1.6-2.6 1-5.2 2.1-7.8 3.1.9-3 1.8-5.9 2.7-8.8.4-1.3.8-2.5 1.1-3.8 2.8 3 5.6 5.7 8 7.9zm-13.4-31.8c.1-.8.4-1.3 1.1-1.5.1 0 .2-.1.3-.1.2 0 .3 0 .4.1.1 0 .1.1.1.3v1.4c.1 3.1.1 6.4.1 9.5-1.3-3.4-2-6.7-2-9.7zm-9.6 49c-1.7 3.1-3.5 6.2-6.5 8.1.2-.7.3-1.4.7-2 1.3-2.3 3.2-4.2 5.8-6.1z" class="st1"/>
</svg>
