<svg xmlns="http://www.w3.org/2000/svg" viewBox="0 0 200 200">
  <path fill="#03cdc4" d="M21 4h119.4c2 0 4 .8 5.4 2.1l38.6 35.8c1.6 1.5 2.6 3.6 2.6 5.9V188c0 4.4-3.6 8-8 8H21c-4.4 0-8-3.6-8-8V12c0-4.4 3.6-8 8-8z"/>
  <path fill="#fff" d="M163 95.5h-16.7V84.7h-9.7V67.8h-11.4v16.9h-9.9v10.8H94.4l-9.9-29.2H66.9L56.8 95.5H37v11.2h17.6l-7.5 21.5h15.8l5.9-21.5h13.4l5.7 21.5h15.8l-7.3-21.5h18.7v8.8h9.9v30.8h11.4v-30.8h9.7v-8.8H163V95.5zm-92.4 2.2l5.1-20 4.8 20h-9.9zm66.5 8.8h-12.8V93.7h12.8v12.8z"/>
</svg>
