<svg xmlns="http://www.w3.org/2000/svg" viewBox="0 0 200 200"><title>file-photoshop</title><path d="M21,4H140.4a8.1,8.1,0,0,1,5.4,2.1l38.6,35.8a8.09,8.09,0,0,1,2.6,5.9V188a8,8,0,0,1-8,8H21a8,8,0,0,1-8-8V12A8,8,0,0,1,21,4Z" style="fill:#00abfb"/><path d="M59.5,47.5H80.4c13.1,0,23.9,4.6,23.9,19.4,0,14.2-11,20.4-23.5,20.4h-7V107H59.5ZM80,76c7,0,10.3-3.3,10.3-9.1,0-6-3.8-8.1-10.7-8.1H73.8V76Zm28.4,25.7,6.3-8.9c4.2,3.2,7.9,4.8,11.5,4.8,3.8,0,5.4-1.4,5.4-3.6,0-2.7-4.4-4-9-5.8-5.4-2.2-11.8-5.8-11.8-13.4,0-8.6,7-14.5,17.6-14.5,7.2,0,12.3,2.9,16.3,5.8l-6.4,8.5c-3.2-2.2-6.4-3.8-9.4-3.8q-4.8,0-4.8,3.3c0,2.7,4.2,3.8,8.9,5.4,5.7,2.2,12,5.4,12,13.7s-6.6,14.9-19,14.9a29,29,0,0,1-17.6-6.4Z" style="fill:#fff"/><path d="M96.2,155.9c1.1,1.7,2.2,1.9,4.1,2.5a1.67,1.67,0,0,0,1.2-.1l28.1-15.8a9.07,9.07,0,0,0,4.2-5.7c.6-2.4.7-3.8-.6-5.9s-2.7-2.2-5-2.6a8.35,8.35,0,0,0-6.5,1.6L96.5,150.6a1.43,1.43,0,0,0-.5,1.1C95.7,153.7,95.4,154.3,96.2,155.9Z" style="fill:#fff"/><path d="M67.5,159.5c1.4.8,3.9,1.8,5.2.8,2.1-1.8,3.8-6.4,7.9-8.6,3-1.7,4.9-2.3,8-1.1a1.1,1.1,0,0,1,.6,1c-.3,2.4-.2,6.6,1.1,8.5,1.7,1.8,5.3,3.7,7.5,4.9a.84.84,0,0,1,.4,1.1c-.6,3.1-3.9,14.7-18.8,10.2C62.4,171.3,66.1,158.5,67.5,159.5Z" style="fill:#fff"/></svg>