<svg width="200" height="200" viewBox="0 0 200 200" fill="none" xmlns="http://www.w3.org/2000/svg">
<path d="M21 4H140.366C142.381 4.00007 144.321 4.76038 145.8 6.129L184.434 41.883C185.243 42.6321 185.889 43.5403 186.331 44.5508C186.772 45.5613 187 46.6522 187 47.755V188C187 190.122 186.157 192.157 184.657 193.657C183.157 195.157 181.122 196 179 196H21C18.8783 196 16.8434 195.157 15.3431 193.657C13.8429 192.157 13 190.122 13 188V12C13 9.87827 13.8429 7.84344 15.3431 6.34315C16.8434 4.84285 18.8783 4 21 4Z" fill="#FFA434"/>
<path d="M145.129 150.15H131.821C129.721 150.15 128.018 148.451 128.018 146.355V134.971C128.018 132.875 129.721 131.176 131.821 131.176H135.623V114.1C135.623 112.004 133.921 110.305 131.821 110.305H101.401V131.176H105.204C107.304 131.176 109.006 132.875 109.006 134.971V146.355C109.006 148.451 107.304 150.15 105.204 150.15H91.8953C89.7951 150.15 88.0929 148.451 88.0929 146.355V134.971C88.0929 132.875 89.7951 131.176 91.8953 131.176H95.6977V110.305H67.1794C65.0794 110.305 63.377 112.004 63.377 114.1V131.176H67.1794C69.2794 131.176 70.9818 132.875 70.9818 134.971V146.355C70.9818 148.451 69.2794 150.15 67.1794 150.15H53.8708C51.7708 150.15 50.0684 148.451 50.0684 146.355V134.971C50.0684 132.875 51.7708 131.176 53.8708 131.176H57.6732V112.202C57.6732 108.011 61.0781 104.613 65.2783 104.613H95.6977V83.7416H91.8953C89.7951 83.7416 88.0929 82.0425 88.0929 79.9466V68.5624C88.0929 66.4665 89.7951 64.7676 91.8953 64.7676H105.204C107.304 64.7676 109.006 66.4665 109.006 68.5624V79.9465C109.006 82.0425 107.304 83.7415 105.204 83.7415H101.401V104.613H133.722C137.922 104.613 141.327 108.011 141.327 112.202V131.176H145.129C147.229 131.176 148.932 132.875 148.932 134.971V146.355C148.932 148.451 147.229 150.15 145.129 150.15Z" fill="white"/>
</svg>
