<?xml version="1.0" standalone="no"?><!DOCTYPE svg PUBLIC "-//W3C//DTD SVG 1.1//EN" "http://www.w3.org/Graphics/SVG/1.1/DTD/svg11.dtd"><svg t="1722493234775" class="icon" viewBox="0 0 1024 1024" version="1.1" xmlns="http://www.w3.org/2000/svg" p-id="4311" xmlns:xlink="http://www.w3.org/1999/xlink" width="200" height="200"><path d="M107.52 20.48h611.328c10.24 0 20.48 4.096 27.648 10.752l197.632 183.296c8.192 7.68 13.312 18.432 13.312 30.208V962.56c0 22.528-18.432 40.96-40.96 40.96H107.52c-22.528 0-40.96-18.432-40.96-40.96V61.44c0-22.528 18.432-40.96 40.96-40.96z" fill="#03CDAA" p-id="4312"></path><path d="M788.48 363.52h-148.48V291.84c-1.024-8.192-8.192-14.336-16.896-13.824l-389.12 40.448c-7.68 1.024-13.824 7.168-13.824 15.36v407.552c0 7.68 6.144 14.336 13.824 15.36l389.12 40.448h1.536c8.704 0 15.36-6.656 15.36-15.36V711.68h148.48c8.704 0 15.36-6.656 15.36-15.36V378.88c0-8.704-6.656-15.36-15.36-15.36z m-320 296.96l-22.528-47.616c-6.144-12.8-11.264-25.6-17.92-40.448h-1.536c-6.144 14.848-11.264 27.648-16.896 40.448l-20.48 47.616H326.144l67.072-125.44-62.976-118.272h65.024l19.456 43.52c5.12 11.264 10.752 24.064 17.92 39.936h1.536c5.632-15.872 10.752-28.672 15.872-39.936l17.92-43.52h61.952L466.432 537.6l67.072 122.88H468.48z m304.64 20.48h-133.12v-76.8h81.92v-35.84h-81.92V501.76h81.92v-35.84h-81.92V394.24h133.12v286.72z" fill="#FFFFFF" p-id="4313"></path><path d="M107.52 20.48h611.328c10.24 0 20.48 4.096 27.648 10.752l197.632 183.296c8.192 7.68 13.312 18.432 13.312 30.208V962.56c0 22.528-18.432 40.96-40.96 40.96H107.52c-22.528 0-40.96-18.432-40.96-40.96V61.44c0-22.528 18.432-40.96 40.96-40.96z" fill="#6C8FFF" p-id="4314"></path><path d="M425.21088 804.0704c-26.63936 0-49.1776-16.39424-61.47072-38.93248v-2.048L210.0736 406.56384c-8.19712-14.34112-6.14912-32.78336 2.048-47.12448 8.192-14.34624 24.58624-22.54336 40.98048-20.49024 16.38912 2.048 30.73536 14.34112 36.87936 28.68224l135.23456 315.5456 38.93248-84.00896L386.2784 435.2512c-10.24-20.49024-8.192-47.1296 4.096-67.61984C402.67776 345.09312 425.216 332.8 447.75424 332.8h131.13856c24.58624 0 45.07648 12.29312 57.3696 34.83136s12.29312 47.1296 2.048 69.66784l-77.85984 163.92192 38.93248 81.95584 135.23456-315.5456c10.24-22.53824 34.83136-32.78336 57.3696-22.53824 22.53824 10.24512 30.73536 36.88448 22.53824 59.42272l-149.57568 358.57408v2.048c-12.29312 22.53824-36.88448 38.93248-61.47072 38.93248-24.58624 0-49.1776-14.34112-61.47072-36.88448v-2.048l-28.68736-61.47072-28.68224 61.47072v2.048c-12.29312 22.54336-34.83648 36.88448-59.42272 36.88448zM486.6816 437.2992l20.49024 43.02848c2.048 2.048 4.096 4.096 8.192 4.096 4.10112 0 6.14912-2.048 8.19712-4.096l20.49024-43.02848c2.048-2.048 2.048-6.144 0-8.192-2.048-2.05312-4.096-4.10112-8.192-4.10112h-40.98048c-2.048 0-6.144 2.048-8.19712 4.096-2.048 2.048-2.048 6.144 0 8.19712z" fill="#FFFFFF" p-id="4315"></path></svg>