<svg xmlns="http://www.w3.org/2000/svg" width="200" height="200">
  <g fill="none" fill-rule="evenodd">
    <path fill="#8992AD" d="M21 4h119.366a8 8 0 015.434 2.129l38.634 35.754A8 8 0 01187 47.755V188a8 8 0 01-8 8H21a8 8 0 01-8-8V12a8 8 0 018-8z"/>
    <path fill="#FFF" d="M92.792 119.244C90.416 101.856 109.64 97.86 109.64 87.06c0-5.832-3.672-9.288-9.828-9.288-5.184 0-9.396 2.268-13.5 6.804l-8.856-8.208c6.048-6.912 14.148-11.448 24.084-11.448 13.5 0 23.328 7.02 23.328 20.736 0 16.308-19.764 18.252-18.144 33.588H92.792zM88.58 137.28c0-6.264 4.752-10.584 11.232-10.584 6.48 0 11.232 4.32 11.232 10.584 0 6.264-4.752 10.692-11.232 10.692-6.48 0-11.232-4.428-11.232-10.692z"/>
  </g>
</svg>
