<svg xmlns="http://www.w3.org/2000/svg" xmlns:xlink="http://www.w3.org/1999/xlink" viewBox="0 0 200 200"><defs><linearGradient id="a" x1="0.5" y1="199.95" x2="0.5" y2="199.05" gradientTransform="matrix(192, 0, 0, -168, 4, 33616)" gradientUnits="userSpaceOnUse"><stop offset="0" stop-color="#71c7ff"/><stop offset="1" stop-color="#008fec"/></linearGradient></defs><title>个人文档库（内联样式）</title><path d="M12,16H87.73a8,8,0,0,1,5,1.77l27.07,21.81a8,8,0,0,0,5,1.77H188a8,8,0,0,1,8,8V176a8,8,0,0,1-8,8H12a8,8,0,0,1-8-8V24A8,8,0,0,1,12,16Z" style="fill:url(#a)"/><g style="opacity:0.800000011920929"><path d="M68.75,154a4.25,4.25,0,0,1-4.35-3.3L63,133.59c-.46-6.42,5.26-13.61,12.58-15.94a83.16,83.16,0,0,1,48.75,0c7.32,2.33,13.27,9.52,12.59,15.94l-1.38,17.11c0,1.74-1.83,3.3-4.12,3.3Z" style="fill:#fff"/><path d="M99,102a16,16,0,1,1,16-16,15.94,15.94,0,0,1-16,16" style="fill:#fff"/></g></svg>