<svg xmlns="http://www.w3.org/2000/svg" viewBox="0 0 128 128">
  <path fill="#B2D5FA" d="M9 13h52c1.3 0 2.6.7 3.3 1.8l13.8 27.5H5V17c0-2.2 1.8-4 4-4z"/>
  <path fill="#DCEEFE" d="M118.8 110.2H9c-2.2 0-4-1.8-4-4v-76c0-2.7 2.1-4.8 4.8-4.8h109c2.2 0 4 1.8 4 4v76.8c0 2.2-1.8 4-4 4z"/>
  <path fill="#B2D5FA" d="M118.8 115.2H9c-2.2 0-4-1.8-4-4V38.8c0-2.2 1.8-4 4-4h109.8c2.2 0 4 1.8 4 4v72.4c0 2.2-1.8 4-4 4z"/>
  <path fill="#88B1DB" d="M80.5 95.9H47.4c-1.9 0-3.5-1.3-3.9-3.1L39.4 73c-.6-2.5 1.3-4.9 3.9-4.9h41.4c2.6 0 4.5 2.4 3.9 4.9l-4.1 19.8c-.5 1.8-2.1 3.1-4 3.1zM39.2 59.1c0-2.2 1.9-4 4.2-4h41.1c2.3 0 4.2 1.8 4.2 4s-1.9 4-4.2 4H43.4c-2.3 0-4.2-1.8-4.2-4z"/>
</svg>
