<svg xmlns="http://www.w3.org/2000/svg" id="图层_1" x="0" y="0" version="1.1" viewBox="0 0 128 128" xml:space="preserve">
  <g id="收藏">
    <path fill="#89cbff" d="M9 13h52c1.3 0 2.6.7 3.3 1.8l13.8 27.5H5V17c0-2.2 1.8-4 4-4z"/>
    <path fill="#dceefe" d="M118.8 110.2H9c-2.2 0-4-1.8-4-4v-76c0-2.7 2.1-4.8 4.8-4.8h109c2.2 0 4 1.8 4 4v76.8c0 2.2-1.8 4-4 4z"/>
    <path fill="#89cbff" d="M118.8 115.2H9c-2.2 0-4-1.8-4-4V38.8c0-2.2 1.8-4 4-4h109.8c2.2 0 4 1.8 4 4v72.4c0 2.2-1.8 4-4 4z"/>
    <path fill="#3b96e8" d="M65.2 51.9l7.3 14.8 16.4 2.4-11.8 11.5 2.8 16.3-14.7-7.7-14.6 7.7 2.8-16.3-11.8-11.5 16.3-2.4z"/>
  </g>
</svg>
