<svg xmlns="http://www.w3.org/2000/svg" id="图层_1" x="0" y="0" version="1.1" viewBox="0 0 200 200" xml:space="preserve">
  <style>
    .st2{fill:#fff}
  </style>
  <g id="文档库">
    <linearGradient id="Combined-Shape_1_" x1=".5" x2=".5" y1="199.948" y2="199.047" gradientTransform="matrix(192 0 0 -168 4 33616)" gradientUnits="userSpaceOnUse">
      <stop offset="0" stop-color="#71c7ff"/>
      <stop offset="1" stop-color="#008fec"/>
    </linearGradient>
    <path id="Combined-Shape" fill="url(#Combined-Shape_1_)" d="M12 16h75.7c1.8 0 3.6.6 5 1.8l27.1 21.8c1.4 1.1 3.2 1.8 5 1.8H188c4.4 0 8 3.6 8 8V176c0 4.4-3.6 8-8 8H12c-4.4 0-8-3.6-8-8V24c0-4.4 3.6-8 8-8z"/>
    <g opacity=".8">
      <path d="M115.9 82H56v12h88V82zM56 110v12h88v-12h-28.1zM56 138v12h88v-12h-28.1z" class="st2"/>
    </g>
  </g>
</svg>
