<svg xmlns="http://www.w3.org/2000/svg" viewBox="0 0 200 200">
  <linearGradient id="a" x1=".5" x2=".5" y1="199.948" y2="199.047" gradientTransform="matrix(192 0 0 -168 4 33616)" gradientUnits="userSpaceOnUse">
    <stop offset="0" stop-color="#71c7ff"/>
    <stop offset="1" stop-color="#008fec"/>
  </linearGradient>
  <path fill="url(#a)" d="M12 16h75.7c1.8 0 3.6.6 5 1.8l27.1 21.8c1.4 1.1 3.2 1.8 5 1.8H188c4.4 0 8 3.6 8 8V176c0 4.4-3.6 8-8 8H12c-4.4 0-8-3.6-8-8V24c0-4.4 3.6-8 8-8z"/>
  <path fill="#fff" d="M130.5 120.3c-7 0-13.1 3.9-16.3 9.8l-31.7-8.5c0-1.6-.4-3.2-.9-4.8l31.7-22.4c2.3 1.6 4.9 2.7 7.9 2.7 7.3 0 13.3-6 13.3-13.5s-6-13.5-13.3-13.5c-7.3 0-13.3 6-13.3 13.5 0 1.2.2 2.5.5 3.6l-31.7 22.4c-2.6-2.3-6.1-3.6-10-3.6-8.8 0-15.8 7.1-15.8 16s7 16 15.8 16c5.8 0 10.7-3.2 13.5-7.8l31.7 8.7v.4c0 10.5 8.2 18.8 18.6 18.8 10.3 0 18.5-8.4 18.5-18.8 0-10.6-8.2-19-18.5-19z" opacity=".8"/>
</svg>
