<svg xmlns="http://www.w3.org/2000/svg" viewBox="0 0 128 128">
  <path fill="#fff" d="M114.6 125.4h-91c-2.2 0-4-1.8-4-4V6.4c0-2.2 1.8-4 4-4H93l25.6 28v91c0 2.2-1.7 4-4 4z"/>
  <path fill="silver" d="M93.8.6H23.6c-3.2 0-5.8 2.6-5.8 5.8v115c0 3.2 2.6 5.8 5.8 5.8h91c3.2 0 5.8-2.6 5.8-5.8V29.7L93.8.6zm-1 4.1l22.5 24.6H95c-1.2 0-2.2-1-2.2-2.2V4.7zm21.8 119h-91c-1.2 0-2.2-1-2.2-2.2V6.4c0-1.2 1-2.2 2.2-2.2h65.6V27c0 3.2 2.6 5.8 5.8 5.8h21.9v88.7c0 1.1-1 2.2-2.3 2.2z"/>
  <path fill="#db45d4" d="M72.1 27.9l-60.7 6.3c-2.1.2-3.7 1.9-3.7 4V96c0 2 1.5 3.8 3.6 4l60.7 5.9c2.4.3 4.4-1.6 4.4-4v-70c0-2.3-2-4.2-4.3-4zM51.8 64.2h-8.3v5.9h8.3v6.1h-8.3V81h8.3v6.1H29.3V81h8.2V70.2h-8.2v-6.1h8.2v-5.9h-8.2v-6.1h8.2v-5.6h6.1v11.7h8.3v6z"/>
</svg>
