<!-- <svg xmlns="http://www.w3.org/2000/svg" id="图层_1" data-name="图层 1" viewBox="0 0 200 200"><defs/>
    <title>11</title>
    <path class="cls-1" d="M43.6,83.05H33.67v16.4h9.66c5.86,0,10-2.24,10-8.17S49,83.05,43.6,83.05Z" fill="#fc9642"/>
    <path class="cls-1" d="M97.84,83.2H88.28V121h9.49C109,121,114,112.71,114,101.4,114,91.91,109.31,83.2,97.84,83.2Z" fill="#fc9642"/>
    <path class="cls-1" d="M187,0H13A13,13,0,0,0,0,13V187a13,13,0,0,0,13,13H187a13,13,0,0,0,13-13V13A13,13,0,0,0,187,0ZM44.93,109.44H33.67v21.69H21V73.06H45.22c12.44,0,20.89,6.94,20.89,18C66.11,103.65,56.48,109.44,44.93,109.44ZM98.3,131.13H75.62V73.06H98.83c17.06,0,28.2,11.14,28.2,28.3C127,118.3,116.22,131.13,98.3,131.13ZM179,83.35H150.49V97.58H177.2v10.29H150.49v23.26H138.13V73.06H179Z" fill="#fc9642"/>
</svg> -->

<svg xmlns="http://www.w3.org/2000/svg" viewBox="0 0 250 230" >
  <path fill="#fff" d="M177.7 163c-11.5 0-21.6 8.2-23.7 19.6l-.8 3.7-3.6 1.2c-6.6 2.2-11.2 8.5-11.2 15.3 0 8.7 7.4 16 16 16h70.5c8.7 0 16-7.4 16-16 0-7.3-4.9-13.7-11.8-15.6l-2.7-.8-1.3-2.4c-3.1-5.7-9.1-9.3-15.6-9.3-1.7 0-3.5.2-5.1.8l-4.6 1.4-2.7-3.9c-4.4-6.2-11.7-10-19.4-10z" />
  <path fill="#f68b25" d="M133.9 172.4c3.6-19 20.5-33.4 40.6-33.4 9.9 0 19 3.5 26.1 9.3V13.9c0-7.2-5.8-13-13-13H14C6.8 1 1 6.8 1 13.9v173.7c0 7.2 5.8 13 13 13h98.9c.3-13.1 9-24.3 21-28.2z" />
  <path fill="#fff" d="M166.2 73.7c-7.7-11.9-17.9-20.4-31.7-23.8-5.5-1.3-11.4-1.5-17.4-1.1 10.6 7.2 23.9 10.8 28.1 26.5-2.4-1.8-3.9-2.9-5.3-3.9-10.8-7.2-22.4-8.3-34.3-3.9-18.3 6.6-31 19-33.7 38.7-3.9 27.7 16.7 43.9 42.9 37.7 6.8-1.6 12.8-6.8 14.1-11.3-9.5-1.8-20.3-1-26.3-12.6 8.2-.8 17.1.5 22.1-6.4 4.5-6.2 7.2-13.6 11-20.8 2 3.2 4.6 7.4 7.2 11.5h2c.9-4.8 1.7-9.6 2.6-14.3 5 3.5 8.3 13.8 7.3 22.5-3.4 27.8-23 48-50.4 53.3-18 3.5-34.1-.2-48.7-10.5-11.2-7.9-17.9-19.2-20.1-32.5-6.3-39.3 19.8-74 51.7-84.9 19.7-6.8 39.4-7.2 57.8 4.2 11.5 7.2 18.1 18.1 21.1 31.6z" />
  <path  fill="#f68b25" d="M222.2 228.7h-65c-14.8 0-26.8-12-26.8-26.8 0-10.4 6-19.8 15.3-24.2 4.3-14.4 17.6-24.5 32.9-24.5 9.7 0 18.8 4.1 25.2 11.2 1.4-.2 2.8-.3 4.2-.3 9.6 0 18.5 4.8 23.7 12.7 10.3 3.9 17.3 13.9 17.3 25.1 0 14.8-12 26.8-26.8 26.8zm-43.6-63.5c-10.6 0-19.9 7.6-21.9 18.1l-.7 3.4-3.3 1.1c-6.1 2-10.3 7.8-10.3 14.1 0 8 6.8 14.8 14.8 14.8h65c8 0 14.8-6.8 14.8-14.8 0-6.7-4.5-12.6-10.9-14.4l-2.5-.7-1.2-2.2c-2.9-5.3-8.4-8.6-14.4-8.6-1.6 0-3.2.2-4.7.7l-4.2 1.3-2.5-3.6c-4.1-5.7-10.9-9.2-18-9.2z" />
</svg>
