<svg xmlns="http://www.w3.org/2000/svg" id="图层_1" x="0" y="0" version="1.1" viewBox="0 0 35 35" xml:space="preserve">
  <style>
    .st0{opacity:.1}.st1{enable-background:new}
  </style>
  <g class="st0">
    <path d="M10.4 11.5c1.7-2 4.3-3.3 7.1-3.3s5.4 1.3 7.1 3.3h1.8c-1.9-2.8-5.2-4.7-8.9-4.7s-6.9 1.9-8.9 4.7h1.8zM23.6 24.5c-1.6 1.4-3.8 2.3-6.1 2.3s-4.5-.9-6.1-2.3h-2c2 2.3 4.9 3.7 8.1 3.7s6.1-1.4 8.1-3.7h-2z" class="st1"/>
  </g>
  <g class="st0">
    <path d="M3.8 11.5c2.3-5.3 7.6-9 13.7-9s11.4 3.7 13.7 9h2.1C30.9 5.1 24.7.5 17.4.5S4 5.1 1.6 11.5h2.2zM30.8 24.5c-2.5 4.8-7.5 8-13.3 8-5.8 0-10.7-3.2-13.3-8H2c2.7 5.9 8.6 10 15.5 10s12.8-4.1 15.5-10h-2.2z" class="st1"/>
  </g>
</svg>
