<?xml version="1.0" encoding="utf-8"?>
<!--Generator: Adobe Illustrator 23.0.1, SVG Export Plug-In . SVG Version: 6.00 Build 0)-->
<svg version="1.1" id="图层_1" xmlns="http://www.w3.org/2000/svg" xmlns:xlink="http://www.w3.org/1999/xlink" x="0px" y="0px" viewBox="0 0 40 48" style="enable-background:new 0 0 40 48" xml:space="preserve">
    <style type="text/css">
        .st0{fill-rule:evenodd;clip-rule:evenodd;fill:url(#形状_1_);}
    </style>
    <title>
        ios
    </title>
    <desc>
        Created with Sketch.
    </desc>
    <g id="页面-1">
        <g id="ios">
            <linearGradient id="形状_1_" gradientUnits="userSpaceOnUse" x1="-76.4938" y1="122.4359" x2="-76.4938" y2="123.4359" gradientTransform="matrix(39.3781 0 0 -47.9518 3031.8887 5919)">
                <stop offset="0" style="stop-color:#5E6B8A"/>
                <stop offset="1" style="stop-color:#41537B"/>
            </linearGradient>
            <path id="形状" class="st0" d="M33,25.7c0-6.1,4.9-9.1,5.1-9.3c-2.9-4.2-7.3-4.6-8.8-4.9c-3.7-0.5-7.3,2.2-9.3,2.2
			s-4.9-2.2-8.1-2.2c-4.2,0-7.8,2.4-10,6.1C-2.2,25,1,36,5.1,41.9c2,2.9,4.4,6.1,7.6,6.1c2.9,0,4.2-2,7.8-2s4.6,2,8.1,2
			c3.2,0,5.4-2.9,7.3-5.9c2.4-3.4,3.2-6.6,3.4-6.9C39.4,35.5,33,33.1,33,25.7z M26.9,7.9c1.7-2,2.9-4.9,2.4-7.8
			c-2.4,0-5.4,1.7-7.1,3.7c-1.5,1.7-2.9,4.7-2.4,7.6C22.5,11.3,25.2,9.8,26.9,7.9L26.9,7.9z"/>
        </g>
    </g>
</svg>
