<?xml version="1.0" encoding="utf-8"?>
<!-- Generator: Adobe Illustrator 23.0.1, SVG Export Plug-In . SVG Version: 6.00 Build 0)  -->
<svg version="1.1" id="图层_1" xmlns="http://www.w3.org/2000/svg" xmlns:xlink="http://www.w3.org/1999/xlink" x="0px" y="0px"
	 viewBox="0 0 48 48" style="enable-background:new 0 0 48 48;" xml:space="preserve">
<style type="text/css">
	.st0{opacity:0.2;fill:#FFFFFF;enable-background:new    ;}
	.st1{fill:#364676;}
</style>
<title>切片@1x</title>
<desc>Created with Sketch.</desc>
<g id="页面-1">
	
		<g id="Linux备份-4" transform="translate(24.500000, 24.000000) rotate(-360.000000) translate(-24.500000, -24.000000) translate(4.000000, 0.000000)">
		<path id="路径" class="st0" d="M14.4,16.3c-0.1,0.2-0.1,0.2-0.1,0.3c-0.2,1.1-0.8,2.1-1.3,3c-0.4,0.7-0.5,1.5-0.5,2.2
			c0,0.6,0,1.2-0.4,1.7c-0.4,0.6-0.8,1.2-1.1,1.9c-0.5,1.1-1,2.2-1.1,3.4c-0.1,1.1-0.1,2.1-0.2,3.2c0,0.2-0.1,0.5-0.2,0.5
			c-0.1,0-0.4,0-0.5-0.1c-0.5-0.4-0.9-0.9-1.1-1.6C7.7,30,7.9,29.1,8,28.2c0-0.1,0-0.3,0.1-0.4c0,0-0.1,0-0.1,0
			c-0.1,0.1-0.2,0.3-0.2,0.4c-0.7,1.7-0.4,3.7,1,5c1.6,1.5,3.4,2.8,5,4.2c0.4,0.3,0.8,0.6,1.1,1c0.6,0.8,0.4,1.6-0.3,2.1
			c-0.3,0.2-0.6,0.3-0.9,0.5c0.3,0.5,0.7,1,1,1.4c0.6,0.8,1.1,1.6,0.6,2.8c0.1-0.1,0.2-0.1,0.2-0.1c0.8-0.6,0.7-2.1-0.1-2.7
			c-0.1-0.1-0.2-0.2-0.3-0.3c0-0.1,0-0.2,0-0.3c0,0,0.2-0.1,0.2-0.1c0.2,0.1,0.5,0.2,0.7,0.4c0.4,0.3,0.8,0.6,1.4,0.7
			c1.5,0.2,2.9,0.1,4.4-0.2c1.2-0.3,2.3-0.9,3-2c0.1-0.2,0.3-0.4,0.5-0.6c0.4-0.3,0.7-0.2,0.8,0.3c0,0.1,0,0.2,0,0.3
			c-0.1,0.5-0.2,1.1-0.3,1.7c-0.1,0.7-0.2,1.3-0.3,2c0,0.5,0.2,0.6,0.6,0.6c0.2-1.1,0.4-2.2,0.5-3.4c0.1-1.6,0.1-3.2,0.1-4.7
			c0-0.5,0-1,0-1.5c0-1.1,0.6-1.6,1.7-1.6c0.1,0,0.2,0,0.3,0c0-0.1,0-0.3,0.1-0.4c0.1-0.5,0.4-0.8,0.8-0.9c1-0.3,1.9-0.4,2.9,0
			c0.2,0.1,0.4,0.2,0.7,0.3c0,0,0-0.1,0.1-0.1c-0.3-0.4-0.7-0.7-1.1-0.9c-0.5-0.2-0.5-0.2-0.3-0.7c0.7-2.1,0.6-4.2-0.5-6.2
			c-0.6-1.1-1.2-2.2-2.1-3.2c-0.2-0.2-0.5-0.4-0.8-0.6c0,0,0,0.1-0.1,0.1c0.1,0.2,0.3,0.4,0.5,0.6c1.4,2,2.7,4,2.9,6.5
			c0.1,1,0,1.9-0.4,2.8c-0.4,0.7-1.1,1-1.9,0.8c-0.2,0-0.3-0.2-0.4-0.4c-0.1-0.2-0.1-0.5-0.1-0.8c0-1.1,0-2.1-0.1-3.1
			c-0.1-1.4-0.7-2.7-1.4-3.9c-0.5-0.9-1-1.8-1.2-2.8c-0.2-0.8-0.5-1.6-0.9-2.3c-0.2-0.5-0.6-0.9-0.9-1.3c-0.6-0.9-0.8-1.8-0.4-2.7
			c0-0.1,0-0.2,0.1-0.3c0.2-0.9,0-1.2-0.9-1.5c-0.6-0.2-1.1-0.3-1.7-0.6c-1-0.4-1.3-1-1.1-2c0.1-0.8,0.7-1.2,1.4-1.1
			c0.9,0.1,1.4,0.7,1.2,1.5c0,0.2-0.1,0.5-0.2,0.7c-0.1,0.4-0.1,0.5,0.3,0.7c0.4,0.1,0.8,0,0.9-0.5c0.2-1.2-0.1-2.3-0.7-3.3
			c-0.2-0.3-0.5-0.5-0.9-0.6c-0.4-0.1-0.8-0.2-1.2-0.2c-0.4,0-0.8,0.1-1.1,0.5c-0.5,0.5-0.8,1.2-0.9,2c0,0.5,0,0.9,0,1.4
			c-0.1,0-0.2,0-0.3,0c-0.4,0-0.8-0.1-1.3-0.2c-0.6,0-0.6,0-0.6-0.6c0-0.7,0-1.3-0.3-1.9c-0.5-1-1.6-1.2-2.3-0.4
			c-0.2,0.2-0.4,0.5-0.4,0.8c-0.2,0.9-0.1,1.8,0.2,2.7c0.1,0.2,0.3,0.4,0.5,0.6c0.2-0.2,0.3-0.4,0.5-0.6c0,0,0-0.1,0,0
			c-0.2-0.2-0.4-0.3-0.5-0.5c-0.3-0.4-0.4-1-0.3-1.5c0.1-0.6,1-0.9,1.4-0.5c0.5,0.4,0.7,1,0.7,1.6c0,0.3-0.2,0.5-0.4,0.7
			c-0.5,0.4-1.1,0.8-1.6,1.3c-0.2,0.2-0.4,0.5-0.5,0.8c-0.1,0.3,0,0.5,0.3,0.6c0.3,0.2,0.6,0.4,0.8,0.7c0.3,0.4,0.6,0.6,1.1,0.7
			c0.9,0.1,1.7,0,2.5-0.2c1.3-0.4,2.7-0.6,3.8-1.6c0.1-0.1,0.3,0,0.4,0.1c0.1,0,0,0.3,0,0.4c-0.1,0.1-0.3,0.2-0.5,0.3
			c-0.8,0.3-1.7,0.5-2.5,0.9c-1.2,0.6-2.5,0.9-3.9,0.7c-0.2,0-0.3,0-0.5,0c0,0,0,0.1,0,0.1c0.4,0.3,0.8,0.6,1.3,0.9
			c0.6,0.3,1.3,0.2,1.9-0.1c1.1-0.5,2.2-1,3.3-1.5c0.1-0.1,0.3-0.1,0.4-0.1s0.3,0.1,0.3,0.2c0,0.1,0,0.3-0.1,0.4
			c-0.2,0.2-0.5,0.3-0.8,0.5c-0.3,0.2-0.7,0.3-1,0.5c-0.8,0.5-1.6,1.1-2.4,1.7c-0.6,0.5-2,0.7-2.6-0.1c-0.3-0.4-0.7-0.9-1-1.3
			C14.9,16.9,14.7,16.7,14.4,16.3z"/>
		<path id="形状" class="st1" d="M5.3,34.1c0,0.2,0.1,0.5,0.1,0.8c-0.1,0.5-0.2,0.9-0.4,1.4c-0.2,0.6-0.6,0.9-1.2,0.9
			c-0.6,0-1.1,0-1.7,0c-0.4,0-0.9-0.2-1.2,0.2c-0.3,0.4-0.1,0.8,0.1,1.2c0.2,0.6,0.5,1.2,0.6,1.8c0.2,0.8,0,1.5-0.4,2.2
			c-0.1,0.2-0.3,0.4-0.5,0.7c-0.2,0.4-0.2,0.6,0.3,0.8c0.5,0.2,1,0.3,1.5,0.4c2.8,0.7,5.6,1.4,8.4,2.1c0.5,0.1,1.1,0.1,1.6,0.1
			c0.8,0,1.3-0.5,1.6-1.2c0.6-1.3,0.5-2.5-0.2-3.7c-1-1.6-2-3.3-3.1-4.9c-0.7-1-1.4-1.9-2.2-2.9c-0.3-0.3-0.6-0.6-1-0.8
			c-0.5-0.3-0.9-0.2-1.4,0c-0.5,0.2-0.6,0.2-0.7-0.3c-0.1-1-0.1-2,0.4-2.9c1.1-1.9,1.9-3.9,2.6-5.9c0.4-1.2,1.2-2.3,2-3.3
			c1-1.3,1.9-2.7,2.8-4c0.3-0.4,0.4-0.8,0.3-1.3c-0.1-2-0.2-4.1-0.3-6.1c0-1.2,0-2.3,0-3.5c0.1-1.6,0.6-3,1.7-4.2
			c0.9-0.9,1.9-1.3,3.1-1.5c1.8-0.2,3.6-0.1,5.3,0.6c2.3,1,3.6,2.8,3.8,5.3c0.2,1.8,0.3,3.7,0.5,5.5c0.1,1.3,0.5,2.5,1.2,3.7
			c1.1,2.1,2.3,4,3.7,5.8c1.8,2.3,2.9,4.8,3.3,7.7c0.1,0.7,0.2,1.4,0.3,2.1c0.2,1.4-0.1,2.7-1.2,3.7c-0.7,0.7-1.4,1.4-2.3,1.9
			c-1.3,0.7-2.5,0.4-3.3-0.9c-0.2-0.4-0.4-0.8-0.6-1.2C28.9,34,28.7,34,28.5,34c-0.5,0.1-0.8,0.4-0.9,0.8c-0.1,0.7-0.2,1.4-0.1,2.1
			c0,0.8,0.2,1.6,0.4,2.3c0.2,1.1,0.1,2.2,0,3.3c-0.1,0.6-0.1,1.2-0.1,1.8c0.1,1.1,1.2,2.1,2.3,2.1c0.9,0,1.6-0.2,2.3-0.8
			c0.6-0.5,1.3-1,1.9-1.5c1-0.8,2.2-1,3.4-1.4c0.6-0.2,1.1-0.5,1.6-0.8c0.2-0.1,0.4-0.4,0.6-0.6c0.4-0.5,0.4-1-0.2-1.3
			c-0.4-0.2-0.7-0.4-1.2-0.5c-1.1-0.2-1.7-0.8-2-1.9c-0.2-0.7-0.3-1.4-0.1-2.1c0-0.1,0.2-0.2,0.3-0.4c0.1,0.1,0.2,0.3,0.2,0.4
			c0,0.2,0,0.5,0,0.8c0.1,1,0.8,1.7,1.6,2.3c0.3,0.3,0.7,0.5,1.1,0.7c0.3,0.2,0.5,0.4,0.7,0.6c0.5,0.6,0.5,1.3-0.2,1.7
			c-0.9,0.6-1.9,1.3-2.9,1.8c-1.6,0.8-3.1,1.6-4.3,3c-1.1,1.3-2.5,1.5-4,1.3c-0.2,0-0.5-0.1-0.7-0.1c-0.8-0.2-1.4-0.7-1.8-1.5
			c-0.2-0.5-0.6-0.7-1.1-0.7c-2.2,0-4.4,0-6.5,0c-0.8,0-1.6,0.1-2.4,0.2c-1,0.2-1.8,0.8-2.5,1.4c-0.9,0.8-1.9,1-3,0.6
			c-0.9-0.3-1.9-0.7-2.8-1.1c-1.7-0.7-3.5-1-5.3-1.4c-0.6-0.1-1.2-0.3-1.8-0.4S0,44.4,0,43.7c0-0.3,0.1-0.7,0.2-1
			c0.1-0.4,0.3-0.8,0.4-1.2c0.1-0.6,0-1.3-0.1-1.9c-0.2-0.6-0.3-1.2-0.2-1.8c0.1-0.8,0.6-1.2,1.5-1.2c0.4,0,0.8,0,1.2,0
			c1,0,1.5-0.5,1.8-1.4c0.1-0.3,0.2-0.5,0.3-0.8c0-0.1,0.1-0.2,0.2-0.3C5.2,34.1,5.3,34.1,5.3,34.1z M14.8,15.8
			c-0.1,0.2-0.1,0.2-0.1,0.3c-0.2,1.1-0.8,2.1-1.3,3.1c-0.4,0.7-0.5,1.5-0.5,2.3c0,0.7,0,1.2-0.4,1.7c-0.4,0.6-0.7,1.3-1,1.9
			c-0.5,1.1-1,2.2-1.1,3.4c-0.1,1.1-0.1,2.2-0.2,3.3c0,0.2-0.1,0.5-0.2,0.5c-0.1,0-0.4,0-0.5-0.1c-0.5-0.4-0.9-0.9-1.1-1.6
			c-0.2-0.9-0.1-1.8,0.1-2.7c0-0.1,0-0.3,0.1-0.4c0,0-0.1,0-0.1,0c-0.1,0.1-0.2,0.3-0.2,0.4c-0.7,1.7-0.4,3.8,1,5.1
			c1.6,1.5,3.3,2.9,5,4.3c0.4,0.3,0.7,0.7,1.1,1c0.6,0.8,0.4,1.6-0.3,2.1c-0.3,0.2-0.6,0.3-0.8,0.5c0.3,0.5,0.7,1,1,1.5
			c0.6,0.8,1.1,1.7,0.6,2.8c0.1-0.1,0.2-0.1,0.2-0.1c0.7-0.7,0.7-2.1-0.1-2.8c-0.1-0.1-0.2-0.2-0.3-0.3c0-0.1,0-0.2,0-0.3
			c0,0,0.2-0.1,0.2-0.1c0.2,0.1,0.5,0.2,0.6,0.4c0.4,0.3,0.8,0.6,1.3,0.7c1.4,0.2,2.9,0.1,4.3-0.2c1.2-0.3,2.2-0.9,2.9-2
			c0.1-0.2,0.3-0.4,0.5-0.6c0.4-0.3,0.7-0.2,0.7,0.3c0,0.1,0,0.2,0,0.3c-0.1,0.6-0.2,1.1-0.3,1.7c-0.1,0.7-0.2,1.3-0.3,2
			c0,0.5,0.2,0.6,0.6,0.6c0.2-1.1,0.4-2.3,0.5-3.4c0.1-1.6,0.1-3.2,0.1-4.8c0-0.5,0-1,0-1.5c0-1.1,0.6-1.6,1.7-1.6
			c0.1,0,0.2,0,0.3,0c0-0.1,0-0.3,0.1-0.4c0.1-0.5,0.4-0.8,0.8-0.9c1-0.3,1.9-0.4,2.9,0c0.2,0.1,0.4,0.2,0.6,0.3c0,0,0-0.1,0.1-0.1
			c-0.3-0.4-0.7-0.7-1.1-0.9c-0.5-0.2-0.5-0.2-0.3-0.7c0.6-2.2,0.6-4.3-0.5-6.3c-0.6-1.1-1.2-2.3-2.1-3.2c-0.2-0.2-0.5-0.4-0.8-0.6
			c0,0,0,0.1-0.1,0.1c0.1,0.2,0.3,0.4,0.5,0.7c1.3,2,2.6,4.1,2.8,6.6c0.1,1,0,1.9-0.4,2.8c-0.4,0.7-1.1,1-1.8,0.8
			c-0.2,0-0.3-0.2-0.4-0.4C29,30.9,29,30.7,29,30.4c0-1.1,0-2.1-0.1-3.2c-0.1-1.5-0.7-2.7-1.4-3.9c-0.5-0.9-1-1.8-1.2-2.8
			c-0.2-0.8-0.5-1.6-0.9-2.4c-0.2-0.5-0.6-0.9-0.9-1.3c-0.6-0.9-0.8-1.8-0.4-2.8c0-0.1,0-0.2,0.1-0.3c0.2-0.9,0-1.2-0.8-1.5
			c-0.6-0.2-1.1-0.3-1.7-0.6c-1-0.4-1.3-1-1.1-2c0.1-0.8,0.7-1.2,1.4-1.1c0.9,0.1,1.4,0.7,1.2,1.6c0,0.2-0.1,0.5-0.2,0.8
			c-0.1,0.4-0.1,0.6,0.3,0.7c0.4,0.1,0.7,0,0.8-0.6c0.2-1.2-0.1-2.3-0.6-3.3c-0.2-0.3-0.5-0.5-0.9-0.6c-0.4-0.1-0.8-0.2-1.2-0.2
			c-0.4,0-0.8,0.1-1.1,0.5c-0.5,0.6-0.8,1.3-0.8,2c0,0.5,0,0.9,0,1.4c-0.1,0-0.2,0-0.3,0c-0.4,0-0.8-0.1-1.3-0.2
			c-0.6,0-0.6,0-0.6-0.6c0-0.7,0-1.3-0.3-2c-0.5-1-1.6-1.2-2.3-0.4c-0.2,0.2-0.4,0.5-0.4,0.8c-0.2,0.9-0.1,1.8,0.2,2.7
			c0.1,0.2,0.3,0.4,0.5,0.6c0.2-0.2,0.3-0.4,0.5-0.6c0,0,0-0.1,0,0c-0.2-0.2-0.4-0.3-0.5-0.5c-0.3-0.4-0.4-1-0.3-1.5
			c0.1-0.6,1-0.9,1.4-0.5c0.5,0.4,0.7,1,0.6,1.6c0,0.3-0.2,0.6-0.4,0.8c-0.5,0.4-1.1,0.8-1.6,1.3c-0.2,0.2-0.4,0.5-0.5,0.8
			c-0.1,0.3,0,0.5,0.3,0.6c0.3,0.2,0.6,0.4,0.8,0.7c0.3,0.4,0.6,0.7,1.1,0.7c0.8,0.1,1.7,0,2.5-0.2c1.3-0.4,2.7-0.6,3.8-1.6
			c0.1-0.1,0.3,0,0.4,0.1c0.1,0,0,0.3,0,0.4c-0.1,0.1-0.3,0.2-0.5,0.3c-0.8,0.3-1.7,0.6-2.4,0.9c-1.2,0.7-2.5,0.9-3.8,0.7
			c-0.2,0-0.3,0-0.5,0c0,0,0,0.1,0,0.1c0.4,0.3,0.8,0.7,1.3,0.9c0.6,0.3,1.3,0.2,1.9-0.1c1.1-0.5,2.2-1,3.2-1.5
			c0.1-0.1,0.3-0.1,0.4-0.1c0.1,0,0.3,0.1,0.3,0.2c0,0.1,0,0.3-0.1,0.4c-0.2,0.2-0.5,0.3-0.7,0.5c-0.3,0.2-0.7,0.3-1,0.5
			c-0.8,0.6-1.6,1.1-2.3,1.7c-0.6,0.5-1.9,0.7-2.5-0.1c-0.3-0.4-0.6-0.9-1-1.3C15.3,16.4,15,16.2,14.8,15.8z M25.9,14.2
			c0,0,0,0,0,0.1c0,0.7,0.6,1.7,1.3,1.9c0,0,0.1,0,0.1,0c0.1-0.2,0.3-0.4,0.4-0.7c0-0.1-0.1-0.4-0.2-0.4
			C26.9,14.8,26.4,14.6,25.9,14.2z M24.3,3.5c0-0.1,0-0.1-0.1-0.2c-0.3-0.3-0.6-0.5-0.9-0.8c-0.2-0.1-0.4,0-0.5,0.2
			c0,0.2,0,0.3-0.1,0.5c0,0.1-0.1,0.3-0.1,0.4c0,0.1-0.1,0.3-0.1,0.4c0.1,0,0.3,0,0.4,0c0.4-0.2,0.7-0.5,1.2-0.4
			C24.2,3.7,24.2,3.6,24.3,3.5z M9.5,24.2c0,0,0.1,0,0.1,0c0.4-0.4,0.8-0.7,1-1.2c0-0.1-0.1-0.3-0.1-0.5c-0.1,0.1-0.2,0.2-0.3,0.3
			c-0.2,0.3-0.4,0.6-0.5,1C9.5,24,9.5,24.1,9.5,24.2z M22.7,10.1c0.1,0,0.2-0.1,0.2-0.1c0-0.3,0-0.6-0.1-0.9
			c-0.1-0.3-0.5-0.4-0.8-0.4c0,0-0.1,0.1-0.1,0.1c0,0,0.1,0.1,0.1,0.1c0.4,0.1,0.5,0.4,0.6,0.7C22.6,9.8,22.6,10,22.7,10.1z
			 M16.4,10.3C16.4,10.3,16.4,10.3,16.4,10.3c0.1-0.1,0.2-0.2,0.2-0.3c-0.1-0.3-0.2-0.6-0.3-0.9c0-0.1-0.2-0.1-0.3-0.2
			c0,0.1,0,0.3,0,0.4c0.1,0.2,0.2,0.4,0.3,0.7C16.3,10,16.3,10.1,16.4,10.3z M28.9,33.8C29,33.9,29,33.9,28.9,33.8
			c0.2,0,0.3-0.1,0.4-0.2c-0.1-0.1-0.2-0.2-0.4-0.3c0,0,0,0-0.1,0.1C28.9,33.5,28.9,33.7,28.9,33.8z"/>
	</g>
</g>
</svg>
