<?xml version="1.0" encoding="UTF-8"?>
<svg width="94px" height="78px" viewBox="0 0 94 78" version="1.1" xmlns="http://www.w3.org/2000/svg" xmlns:xlink="http://www.w3.org/1999/xlink">
    <!-- Generator: Sketch 60 (88103) - https://sketch.com -->
    <title>编组</title>
    <desc>Created with Sketch.</desc>
    <g id="第二版" stroke="none" stroke-width="1" fill="none" fill-rule="evenodd">
        <g id="富客户端登录备份-4" transform="translate(-462.000000, -189.000000)" fill="#779EEA" fill-rule="nonzero">
            <g id="编组" transform="translate(462.000000, 189.000000)">
                <g id="背景/线">
                    <g id="-">
                        <g id="编组" transform="translate(0.198996, 0.192481)">
                            <path d="M0.795983806,70.3518797 C0.356374089,70.3518797 -5.68434189e-14,70.0071726 -5.68434189e-14,69.5819549 C-5.68434189e-14,69.1567372 0.356374089,68.8120301 0.795983806,68.8120301 L70.4445668,68.8120301 C70.8841765,68.8120301 71.2405506,69.1567372 71.2405506,69.5819549 C71.2405506,70.0071726 70.8841765,70.3518797 70.4445668,70.3518797 L0.795983806,70.3518797 Z M74.4244858,70.3518797 C73.9848761,70.3518797 73.628502,70.0071726 73.628502,69.5819549 C73.628502,69.1567372 73.9848761,68.8120301 74.4244858,68.8120301 L76.9119352,68.8120301 C77.3515449,68.8120301 77.707919,69.1567372 77.707919,69.5819549 C77.707919,70.0071726 77.3515449,70.3518797 76.9119352,70.3518797 L74.4244858,70.3518797 Z M83.3793036,70.3518797 C82.9396939,70.3518797 82.5833198,70.0071726 82.5833198,69.5819549 C82.5833198,69.1567372 82.9396939,68.8120301 83.3793036,68.8120301 L92.3341215,68.8120301 C92.7737312,68.8120301 93.1301053,69.1567372 93.1301053,69.5819549 C93.1301053,70.0071726 92.7737312,70.3518797 92.3341215,70.3518797 L83.3793036,70.3518797 Z M23.6805182,77.5699248 C23.2409085,77.5699248 22.8845344,77.2252177 22.8845344,76.8 C22.8845344,76.3747823 23.2409085,76.0300752 23.6805182,76.0300752 L30.6453765,76.0300752 C31.0849862,76.0300752 31.4413603,76.3747823 31.4413603,76.8 C31.4413603,77.2252177 31.0849862,77.5699248 30.6453765,77.5699248 L23.6805182,77.5699248 Z M35.1227854,77.5699248 C34.6831757,77.5699248 34.3268016,77.2252177 34.3268016,76.8 C34.3268016,76.3747823 34.6831757,76.0300752 35.1227854,76.0300752 L65.469668,76.0300752 C65.9092777,76.0300752 66.2656518,76.3747823 66.2656518,76.8 C66.2656518,77.2252177 65.9092777,77.5699248 65.469668,77.5699248 L35.1227854,77.5699248 Z M79.5983806,50.8150376 C79.5983806,49.7884711 81.1903482,49.7884711 81.1903482,50.8150376 L81.1903482,53.7022556 C81.1903482,54.1274734 80.8339741,54.4721805 80.3943644,54.4721805 L77.4094251,54.4721805 C76.3481133,54.4721805 76.3481133,52.9323308 77.4094251,52.9323308 L79.5983806,52.9323308 L79.5983806,50.8150376 Z M81.1903482,56.5894737 C81.1903482,57.6160401 79.5983806,57.6160401 79.5983806,56.5894737 L79.5983806,53.7022556 C79.5983806,53.2770379 79.9547547,52.9323308 80.3943644,52.9323308 L83.3793036,52.9323308 C84.4406154,52.9323308 84.4406154,54.4721805 83.3793036,54.4721805 L81.1903482,54.4721805 L81.1903482,56.5894737 Z M3.97991903,27.7172932 C3.97991903,26.6907268 5.57188664,26.6907268 5.57188664,27.7172932 L5.57188664,30.6045113 C5.57188664,31.029729 5.21551255,31.3744361 4.77590283,31.3744361 L1.79096356,31.3744361 C0.729651822,31.3744361 0.729651822,29.8345865 1.79096356,29.8345865 L3.97991903,29.8345865 L3.97991903,27.7172932 Z M77.707919,3.36842105 L80.3943644,3.36842105 C81.4556761,3.36842105 81.4556761,4.90827068 80.3943644,4.90827068 L77.707919,4.90827068 L77.707919,7.50676692 C77.707919,8.53333334 76.1159514,8.53333334 76.1159514,7.50676692 L76.1159514,4.90827068 L73.4295061,4.90827068 C72.3681943,4.90827068 72.3681943,3.36842105 73.4295061,3.36842105 L76.1159514,3.36842105 L76.1159514,0.769924812 C76.1159514,-0.256641604 77.707919,-0.256641604 77.707919,0.769924812 L77.707919,3.36842105 Z M5.57188664,33.4917293 C5.57188664,34.5182958 3.97991903,34.5182958 3.97991903,33.4917293 L3.97991903,30.6045113 C3.97991903,30.1792935 4.33629312,29.8345865 4.77590283,29.8345865 L7.76084211,29.8345865 C8.82215385,29.8345865 8.82215385,31.3744361 7.76084211,31.3744361 L5.57188664,31.3744361 L5.57188664,33.4917293 Z" id="Path-2"></path>
                            <path d="M14.0221435,58.8445313 C14.4911814,58.3908487 15.1947383,59.0713725 14.7257004,59.525055 L13.670365,60.5458408 C13.4760831,60.7337622 13.16109,60.7337622 12.966808,60.5458408 L11.9114727,59.525055 C11.4424348,59.0713725 12.1459916,58.3908487 12.6150296,58.8445313 L13.3185865,59.525055 L14.0221435,58.8445313 Z M12.6150296,61.5666266 C12.1459916,62.0203091 11.4424348,61.3397852 11.9114727,60.8861027 L12.966808,59.865317 C13.16109,59.6773955 13.4760831,59.6773955 13.670365,59.865317 L14.7257004,60.8861027 C15.1947383,61.3397852 14.4911814,62.0203091 14.0221435,61.5666266 L13.3185865,60.8861027 L12.6150296,61.5666266 Z M22.8062497,8.46917293 C23.2752877,8.01549039 23.9788446,8.69601421 23.5098067,9.14969675 L22.4544713,10.1704825 C22.2601894,10.3584039 21.9451962,10.3584039 21.7509144,10.1704825 L20.6955789,9.14969675 C20.226541,8.69601421 20.930098,8.01549039 21.3991359,8.46917293 L22.1026929,9.14969675 L22.8062497,8.46917293 Z M21.3991359,11.1912682 C20.930098,11.6449507 20.226541,10.964427 20.6955789,10.5107443 L21.7509144,9.48995866 C21.9451962,9.3020372 22.2601894,9.3020372 22.4544713,9.48995866 L23.5098067,10.5107443 C23.9788446,10.964427 23.2752877,11.6449507 22.8062497,11.1912682 L22.1026929,10.5107443 L21.3991359,11.1912682 Z" id="Path复制"></path>
                        </g>
                    </g>
                </g>
                <g id="Group-5" transform="translate(21.884534, 20.172932)">
                    <path d="M31.2546351,0.25 L4.58192713,0.25 C2.19495325,0.25 0.25,2.13127919 0.25,4.46466165 L0.25,37.956391 C0.25,40.2897734 2.19495325,42.1710526 4.58192713,42.1710526 L43.1871417,42.1710526 C45.5741156,42.1710526 47.5190688,40.2897734 47.5190688,37.956391 L47.5190688,4.46466165 C47.5190688,2.13127919 45.5741156,0.25 43.1871417,0.25 L41.81123,0.25 C41.6552861,0.25 41.5032203,0.298609556 41.3761916,0.389064971 L36.1636231,4.10086285 L36.0777127,4.17196986 C35.7611572,4.47581095 35.770086,4.99998111 36.1208513,5.28989598 L40.909,9.247 L37.305,15.218 L37.2054953,9.0694098 L37.1970646,8.96876458 C37.1618719,8.73739089 37.019897,8.53333219 36.8102827,8.42082594 L29.458,4.474 L31.8425024,1.46573822 C32.232,0.974103933 31.8818613,0.25 31.2546351,0.25 Z M37.829,4.755 L42.051,1.749 L43.1871417,1.75 C44.7566553,1.75 46.0190688,2.97108453 46.0190688,4.46466165 L46.0190688,37.956391 C46.0190688,39.4499681 44.7566553,40.6710526 43.1871417,40.6710526 L4.58192713,40.6710526 C3.01241355,40.6710526 1.75,39.4499681 1.75,37.956391 L1.75,4.46466165 L1.75514658,4.2998782 C1.84393338,2.88230884 3.07054368,1.75 4.58192713,1.75 L29.704,1.749 L27.7260936,4.24605965 L27.6662303,4.33341606 C27.4549346,4.69335329 27.5793016,5.16868606 27.9592734,5.37262829 L35.712,9.534 L35.8487614,17.8543518 C35.8610608,18.6074828 36.8515844,18.8745236 37.2407836,18.2296348 L42.5278346,9.46918587 C42.7198345,9.15104915 42.6499389,8.7402873 42.3635227,8.50355825 L37.829,4.755 Z" id="Rectangle-5-Copy"></path>
                    <g id="分组" transform="translate(15.924696, 16.398496)">
                        <path d="M7.95301769,12.0373368 C11.2667301,12.0373368 14.3473601,13.4460336 16.4562004,15.8458754 C16.7296207,16.1570253 16.6990348,16.630913 16.3878849,16.9043332 C16.0767351,17.1777535 15.6028473,17.1471676 15.3294271,16.8360177 C13.5039594,14.7586515 10.8331087,13.5373368 7.95301769,13.5373368 C5.06626325,13.5373368 2.38985508,14.7643513 0.564356527,16.8499878 C0.291547029,17.1616733 -0.182279789,17.1931885 -0.493965292,16.920379 C-0.805650796,16.6475695 -0.837166025,16.1737427 -0.564356527,15.8620572 C1.54455885,13.4526163 4.63161743,12.0373368 7.95301769,12.0373368 Z" id="Oval-5"></path>
                        <rect id="Rectangle-2" x="0.341422552" y="5.77315973e-15" width="2.40366162" height="5.42493075"></rect>
                        <rect id="Rectangle-2-Copy" x="13.9621717" y="5.77315973e-15" width="2.40366162" height="5.42493075"></rect>
                    </g>
                    <path d="M12.4568053,4.35749687 L10.139,6.698 L8.02398358,5.31376933 C7.05039085,4.67636792 5.79659606,5.04667479 5.24201019,6.11369071 L5.16750799,6.27130009 C4.73570059,7.28169652 5.06136029,8.508916 5.95698175,9.0952704 L7.054,9.814 L6.20889298,10.6684701 C5.40608962,11.4793762 5.34204174,12.8451453 6.06151581,13.7423499 L6.16638186,13.8636555 C6.92324159,14.675765 8.14468206,14.7093472 8.93829054,13.9077287 L10.656,12.172 L13.4544819,14.0038086 C14.4281131,14.6412352 15.681908,14.2709284 16.2364938,13.2039125 L16.310996,13.0463031 C16.7428034,12.0359066 16.4171437,10.8086872 15.5215223,10.2223328 L13.74,9.056 L15.1861429,7.59681599 C15.9890062,6.78584938 16.0530541,5.42008033 15.33358,4.52287566 C14.589152,3.59455277 13.2882046,3.5177061 12.4568053,4.35749687 Z M14.6314514,5.08591698 C15.0661518,5.62800073 15.0262393,6.47910198 14.5466229,6.96355918 L12.3259013,9.20579472 L15.0285411,10.9753066 C15.5760835,11.3337772 15.7682435,12.1533083 15.4379183,12.7888496 C15.1231683,13.3944246 14.4641082,13.5890772 13.9474504,13.2508265 L10.5341195,11.0161654 L8.29867927,13.2745641 C7.84769035,13.7301049 7.17339086,13.6902742 6.76364435,13.1793086 C6.32894398,12.6372249 6.36885646,11.7861236 6.84847283,11.3016664 L8.46960528,9.66420968 L6.44990858,8.34226101 C5.90242049,7.98382604 5.7102605,7.16429489 6.04058568,6.52875357 C6.35533573,5.92317861 7.01439579,5.72852597 7.53105367,6.0667767 L10.2613964,7.85389521 L13.0963666,4.99071188 C13.5173362,4.56549342 14.1327906,4.57184251 14.5461193,4.99001285 L14.6314514,5.08591698 Z" id="形状结合"></path>
                </g>
            </g>
        </g>
    </g>
</svg>