<svg width="16" height="16" viewBox="0 0 16 16" fill="none"
    xmlns="http://www.w3.org/2000/svg">
    <path fill-rule="evenodd" clip-rule="evenodd" d="M1.7886 3H14.2114C14.6398 3 15 3.35103 15 3.78007V11.2102C15 11.649 14.6495 12 14.2114 12H1.7886C1.35049 12 1 11.649 1 11.2102V3.78982C1 3.35103 1.35049 3 1.7886 3ZM2 11H14V4H2V11Z" fill="black"/>
    <path fill-rule="evenodd" clip-rule="evenodd" d="M7.99544 3.69003L2 3.68003L4.98861 5.49003L7.85877 7.22003C7.94077 7.27003 8.041 7.27003 8.12301 7.22003L10.9932 5.50003L14 3.66003L7.99544 3.69003ZM7.99553 3.89003H4L5.9933 5.03003L7.99553 6.16003L9.99777 5.03003L12 3.89003H7.99553Z" fill="black"/>
</svg>
