<?xml version="1.0" encoding="UTF-8"?>
<svg width="19px" height="18px" viewBox="0 0 19 18" version="1.1" xmlns="http://www.w3.org/2000/svg" xmlns:xlink="http://www.w3.org/1999/xlink">
    <!-- Generator: Sketch 60 (88103) - https://sketch.com -->
    <title>移动</title>
    <desc>Created with Sketch.</desc>
    <g id="手动发起文档库同步" stroke="none" stroke-width="1" fill="none" fill-rule="evenodd" fill-opacity="0.75">
        <g id="配置同步计划策略" transform="translate(-570.000000, -151.000000)" fill="#3461EC" fill-rule="nonzero">
            <g id="编组-22备份" transform="translate(0.000000, -5.000000)">
                <g id="Group-8" transform="translate(298.000000, 106.000000)">
                    <g id="Group-14">
                        <g id="Group-27">
                            <g id="移动" transform="translate(272.088504, 50.000000)">
                                <path d="M9,0 C4.02943725,0 0,4.02943725 0,9 C0,13.9705627 4.02943725,18 9,18 C13.9705627,18 18,13.9705627 18,9 C18,4.02943725 13.9705627,0 9,0 Z M9,0.857142857 C13.4971758,0.857142857 17.1428571,4.50282418 17.1428571,9 C17.1428571,13.4971758 13.4971758,17.1428571 9,17.1428571 C4.50282418,17.1428571 0.857142857,13.4971758 0.857142857,9 C0.857142857,4.50282418 4.50282418,0.857142857 9,0.857142857 Z" id="椭圆形"></path>
                                <g id="编组" transform="translate(3.000000, 5.000000)">
                                    <g transform="translate(0.911496, 0.000000)" id="路径">
                                        <g>
                                            <path d="M9,5.5 C8.99997073,5.67862304 9.09526379,5.84369005 9.24997635,5.93301002 C9.40468891,6.02232999 9.59531109,6.02232999 9.75002365,5.93301002 C9.90473621,5.84369005 10.0000293,5.67862304 10,5.5 C10.0000293,5.32137696 9.90473621,5.15630995 9.75002365,5.06698998 C9.59531109,4.97767001 9.40468891,4.97767001 9.24997635,5.06698998 C9.09526379,5.15630995 8.99997073,5.32137696 9,5.5 Z"></path>
                                            <path d="M9.71165339,6.36792453 C9.53507787,6.36792453 9.35850235,6.53773585 9.35850236,6.70754717 L9.35850236,7.55660378 C9.35850236,7.89622642 9.00535132,8.23584906 8.65220029,8.23584906 L1.41260413,8.23584906 C1.0594531,8.32075472 0.706302071,7.98113207 0.706302071,7.64150944 L0.706302071,1.44339622 C0.706302071,1.01886792 1.05945311,0.679245281 1.41260413,0.679245281 L3.88466135,0.679245281 L4.76753893,2.20754716 C4.94411445,2.37735849 5.12068997,2.46226415 5.20897773,2.46226415 L8.56391253,2.46226415 C8.91706357,2.46226415 9.27021459,2.80188679 9.2702146,3.14150943 L9.2702146,3.99056604 C9.2702146,4.16037736 9.44679012,4.33018869 9.62336563,4.33018868 C9.79994114,4.33018867 9.97651666,4.16037736 9.97651666,3.99056604 L9.97651666,3.14150943 C9.97651666,2.37735849 9.35850236,1.78301886 8.56391253,1.78301887 L5.38555325,1.78301887 L4.50267567,0.254716984 C4.41438791,0.0849056612 4.23781239,0 4.14952463,0 L1.41260413,0 C0.618014312,0 4.54747351e-13,0.679245281 4.54747351e-13,1.44339622 L4.54747351e-13,7.64150944 C4.54747351e-13,8.40566038 0.618014303,9 1.41260413,9 L8.56391253,9 C9.35850235,9 9.97651666,8.40566038 9.97651666,7.64150944 L9.97651666,6.79245284 C10.0648044,6.53773585 9.8882289,6.36792453 9.71165339,6.36792453 Z"></path>
                                            <path d="M5.10077519,6.86046511 C5.25581395,7.04651163 5.41085271,7.04651163 5.56589148,6.86046511 L6.88372093,5.27906977 C7.03875969,5.09302326 7.03875969,4.90697674 6.88372093,4.72093023 L5.56589148,3.13953489 C5.41085271,2.95348837 5.25581395,2.95348837 5.10077519,3.13953489 C4.94573643,3.3255814 4.94573643,3.51162791 5.10077519,3.69767442 L5.87596899,4.62790697 L2.31007752,4.62790697 C2.15503876,4.62790697 2,4.81395349 2,5 C2,5.18604651 2.15503876,5.37209303 2.31007752,5.37209303 L5.95348837,5.37209303 L5.17829457,6.30232558 C5.02325581,6.4883721 5.02325581,6.76744187 5.10077519,6.86046511 Z"></path>
                                        </g>
                                    </g>
                                </g>
                            </g>
                        </g>
                    </g>
                </g>
            </g>
        </g>
    </g>
</svg>