<?xml version="1.0" encoding="UTF-8"?>
<svg width="12px" height="14px" viewBox="0 0 12 14" version="1.1" xmlns="http://www.w3.org/2000/svg" xmlns:xlink="http://www.w3.org/1999/xlink">
    <!-- Generator: Sketch 60 (88103) - https://sketch.com -->
    <title>编组</title>
    <desc>Created with Sketch.</desc>
    <g id="页面-3" stroke="none" stroke-width="1" fill="none" fill-rule="evenodd" opacity="0.6">
        <g id="修改密码页面" transform="translate(-496.000000, -319.000000)" fill="#6C798C" fill-rule="nonzero">
            <g id="编组-4备份-4">
                <g id="编组-3备份-3" transform="translate(435.000000, 70.000000)">
                    <g id="Group-12-Copy-2" transform="translate(45.000000, 240.000000)">
                        <g id="编组" transform="translate(16.000000, 9.000000)">
                            <path d="M10.7618438,5.88065625 C11.3162438,5.88065625 11.7698438,6.33425625 11.7698438,6.88865625 L11.7698438,6.88865625 L11.7698438,12.9366562 C11.7698438,13.4910562 11.3162438,13.9446562 10.7618438,13.9446562 L10.7618438,13.9446562 L1.01784375,13.9446562 C0.46344375,13.9446562 0.00984375,13.4910562 0.00984375,12.9366562 L0.00984375,12.9366562 L0.00984375,6.88865625 C0.00984375,6.33425625 0.46344375,5.88065625 1.01784375,5.88065625 L1.01784375,5.88065625 Z M7.63934426,8 C7.44262295,8 7.27868852,8.175 7.27868852,8.385 L7.27868852,8.385 L7.27868852,10.793 L4.60983607,8.105 C4.50491803,8 4.34754098,7.972 4.21639344,8.035 C4.0852459,8.091 4,8.231 4,8.385 L4,8.385 L4,11.682 C4,11.892 4.16393443,12.067 4.36065574,12.067 C4.55737705,12.067 4.72131148,11.892 4.72131148,11.682 L4.72131148,11.682 L4.72131148,9.274 L7.39016393,11.962 C7.46229508,12.032 7.54754098,12.067 7.63934426,12.067 C7.6852459,12.067 7.73770492,12.06 7.78360656,12.032 C7.9147541,11.976 8,11.836 8,11.682 L8,11.682 L8,8.385 C8,8.175 7.83606557,8 7.63934426,8 Z" id="形状结合"></path>
                            <path d="M9.70344375,5.93105625 L8.61144375,5.93105625 L8.61144375,3.80585625 C8.61144375,2.30225625 7.39344375,1.08425625 5.88984375,1.08425625 C4.38624375,1.08425625 3.16824375,2.31065625 3.16824375,3.80585625 L3.16824375,5.93105625 L2.07624375,5.93105625 L2.07624375,3.80585625 C2.07624375,1.70585625 3.78984375,0.00065625 5.88984375,0.00065625 C7.98984375,0.00065625 9.70344375,1.71425625 9.70344375,3.81425625 L9.70344375,5.93105625 Z" id="路径"></path>
                        </g>
                    </g>
                </g>
            </g>
        </g>
    </g>
</svg>