<svg width="200" height="200" viewBox="0 0 200 200" fill="none" xmlns="http://www.w3.org/2000/svg">
<g clip-path="url(#clip0_4412_5083)">
<path d="M186.831 0.0975342H13.174C5.98826 0.0975342 0.199707 5.88609 0.199707 13.0719V186.728C0.199707 193.914 5.98826 199.703 13.174 199.703H186.831C194.016 199.703 199.805 193.914 199.805 186.728V13.0719C199.805 5.88609 194.016 0.0975342 186.831 0.0975342Z" fill="#2890F8"/>
<g clip-path="url(#clip1_4412_5083)">
<path d="M164.815 127.909V151.025C164.815 158.671 158.593 164.895 150.945 164.895H123.208C120.651 164.895 118.585 162.828 118.585 160.271C118.585 157.714 120.651 155.647 123.208 155.647H150.946C153.498 155.647 155.57 153.577 155.57 151.025V127.909C155.57 125.352 157.635 123.286 160.194 123.286C162.749 123.286 164.815 125.352 164.815 127.909ZM72.3331 155.647H49.2175C46.6708 155.647 44.5951 153.577 44.5951 151.025V127.909C44.5951 125.352 42.5245 123.286 39.9715 123.286C37.4197 123.286 35.3491 125.352 35.3491 127.909V151.025C35.3491 158.671 41.5711 164.895 49.2175 164.895H72.3331C74.8849 164.895 76.9567 162.828 76.9567 160.271C76.9567 157.714 74.8849 155.647 72.3331 155.647ZM39.8445 76.6533C42.3963 76.6533 44.4682 74.5827 44.4682 72.0309V48.9153C44.4682 46.3673 46.5438 44.2917 49.0905 44.2917H72.2062C74.7579 44.2917 76.8298 42.221 76.8298 39.6693C76.8298 37.1175 74.7592 35.0457 72.2062 35.0457H49.0905C41.4441 35.0457 35.2222 41.2689 35.2222 48.9153V72.0309C35.2222 74.5827 37.2928 76.6533 39.8445 76.6533ZM151.073 35.0457H123.335C120.778 35.0457 118.712 37.1163 118.712 39.6693C118.712 42.221 120.778 44.2917 123.335 44.2917H151.073C153.625 44.2917 155.697 46.3673 155.697 48.9153V72.0309C155.697 74.5827 157.762 76.6533 160.321 76.6533C162.877 76.6533 164.943 74.5827 164.943 72.0309V48.9153C164.942 41.2689 158.72 35.0457 151.073 35.0457ZM83.6738 99.7181C83.6738 112.109 76.666 119.523 66.3574 119.523C56.0488 119.523 49.041 112.109 49.041 99.7181C49.041 87.3275 56.0488 80.3197 66.3574 80.3197C76.666 80.3197 83.6738 87.3783 83.6738 99.7181ZM74.4316 99.7181C74.4316 92.4056 71.334 88.0892 66.3574 88.0892C61.3809 88.0892 58.334 92.4056 58.334 99.7181C58.334 107.081 61.3809 111.702 66.3574 111.702C71.334 111.702 74.4316 107.081 74.4316 99.7181ZM105.764 111.702C100.432 111.702 96.9785 107.335 96.9785 99.8197C96.9785 92.4564 100.99 88.0892 105.865 88.0892C108.557 88.0892 110.537 89.308 112.416 91.0345L117.189 85.2455C114.6 82.6048 110.639 80.3197 105.713 80.3197C96.1152 80.3197 87.6855 87.5306 87.6855 100.124C87.6855 112.921 95.8105 119.523 105.408 119.523C110.334 119.523 114.549 117.644 117.748 113.937L112.975 108.249C111.197 110.179 108.76 111.702 105.764 111.702ZM144.154 103.831L152.584 118.812H142.428L135.471 105.507H131.104V118.812H122.014V81.0306H135.877C143.951 81.0306 150.654 83.7728 150.654 92.9134C150.654 98.4486 148.064 102.003 144.154 103.831ZM141.768 92.9134C141.768 89.3587 139.482 88.1908 135.166 88.1908H131.104V98.347H135.166C139.482 98.347 141.768 96.4681 141.768 92.9134Z" fill="white"/>
</g>
</g>
<defs>
<clipPath id="clip0_4412_5083">
<rect width="200" height="200" fill="white"/>
</clipPath>
<clipPath id="clip1_4412_5083">
<rect width="130" height="130" fill="white" transform="translate(35 35)"/>
</clipPath>
</defs>
</svg>
