<svg width="10" height="10" xmlns="http://www.w3.org/2000/svg"><g fill="none" fill-rule="evenodd"><g fill="#94A2CB" fill-rule="nonzero"><path d="M4.883 7.754A3.858 3.858 0 0 1 1 3.895 3.858 3.858 0 0 1 4.848 0 3.874 3.874 0 0 1 8.75 3.847c.004.453-.07.887-.208 1.292a3.881 3.881 0 0 1-3.659 2.615ZM3.916 8.298c-.042.095-.062.157-.094.213-.245.424-.491.85-.74 1.272-.139.235-.255.248-.449.05-.26-.266-.503-.55-.78-.798a1.274 1.274 0 0 0-.511-.272c-.359-.093-.73-.135-1.095-.21-.259-.052-.307-.16-.178-.38.27-.458.548-.912.823-1.367.193-.318.286-.334.55-.075.514.503 1.09.923 1.767 1.205.163.068.337.113.496.187.08.038.142.116.211.175Zm5.78.252c-.386.085-.781.137-1.167.227a.932.932 0 0 0-.404.216c-.29.27-.555.565-.834.847-.183.185-.305.176-.433-.042-.257-.436-.505-.877-.755-1.317-.104-.183-.05-.305.16-.37.897-.28 1.64-.787 2.288-1.431.184-.182.305-.168.438.046.297.48.59.961.883 1.443.03.048.05.102.1.21-.09.057-.174.148-.276.171Z"/></g><path d="M6.787 3.113 4.81 5.278a.359.359 0 0 1-.54 0L3.013 3.9a.446.446 0 0 1 0-.59.359.359 0 0 1 .54 0L4.54 4.39l1.708-1.869a.359.359 0 0 1 .54 0c.15.163.15.428 0 .59Z" fill="#FFF"/></g></svg>