<!-- <svg xmlns="http://www.w3.org/2000/svg" id="图层_1" data-name="图层 1" viewBox="0 0 200 200">
    <defs>
        <style>.cls-1{fill:#ed5e37;}.cls-2{fill:#ffa792;}.cls-3{fill:#fff;opacity:0.8;}</style>
    </defs>
    <title>图标</title>
    <rect class="cls-1" width="200" height="200" rx="13"/>
    <path class="cls-2" d="M43,140.05V61.49a5,5,0,0,1,3.27-4.69L110.69,33a15,15,0,0,1,9.8-.21l31,10A5,5,0,0,1,155,47.54V150.69a5,5,0,0,1-3.55,4.78l-34.3,10.43a5,5,0,0,1-3.16-.09L57,145.12a1.71,1.71,0,0,1,.79-3.3L115.55,143V53.3L72.22,63.45a5,5,0,0,0-3.86,4.87v57.41a5,5,0,0,1-3,4.58L43,140.05Z"/><path class="cls-3" d="M100,37s9-3,12,0c2,2,3.5,10,3.5,16V158c0,5-2.5,5-3.5,5a61.74,61.74,0,0,1-8.11-.85S111,165,114,166a6.07,6.07,0,0,0,3,0c8.77-2.25,31.47-9.46,34-10.3,3-1,4-2.7,4-5.7V48c0-4-1-4-3-5s-26.59-8.59-31-10-7-1.1-10-.1S100,37,100,37Z"/>
</svg> -->

<svg xmlns="http://www.w3.org/2000/svg" viewBox="0 0 250 230">
  <path fill="#fff" d="M177.7 163c-11.5 0-21.6 8.2-23.7 19.6l-.8 3.7-3.6 1.2c-6.6 2.2-11.2 8.5-11.2 15.3 0 8.7 7.4 16 16 16h70.5c8.7 0 16-7.4 16-16 0-7.3-4.9-13.7-11.8-15.6l-2.7-.8-1.3-2.4c-3.1-5.7-9.1-9.3-15.6-9.3-1.7 0-3.5.2-5.1.8l-4.6 1.4-2.7-3.9c-4.4-6.2-11.7-10-19.4-10z" />
  <path fill="#ed3a00"  d="M133.9 172.4c3.6-19 20.5-33.4 40.6-33.4 9.9 0 19 3.5 26.1 9.3V13.9c0-7.2-5.8-13-13-13H14C6.8 1 1 6.8 1 13.9v173.7c0 7.2 5.8 13 13 13h98.9c.3-13.1 9-24.3 21-28.2z" />
  <path fill="#ed3a00" d="M222.2 228.7h-65c-14.8 0-26.8-12-26.8-26.8 0-10.4 6-19.8 15.3-24.2 4.3-14.4 17.6-24.5 32.9-24.5 9.7 0 18.8 4.1 25.2 11.2 1.4-.2 2.8-.3 4.2-.3 9.6 0 18.5 4.8 23.7 12.7 10.3 3.9 17.3 13.9 17.3 25.1 0 14.8-12 26.8-26.8 26.8zm-43.6-63.5c-10.6 0-19.9 7.6-21.9 18.1l-.7 3.4-3.3 1.1c-6.1 2-10.3 7.8-10.3 14.1 0 8 6.8 14.8 14.8 14.8h65c8 0 14.8-6.8 14.8-14.8 0-6.7-4.5-12.6-10.9-14.4l-2.5-.7-1.2-2.2c-2.9-5.3-8.4-8.6-14.4-8.6-1.6 0-3.2.2-4.7.7l-4.2 1.3-2.5-3.6c-4.1-5.7-10.9-9.2-18-9.2z" />
  <path fill="#fff" d="M113 141.2L49.7 133l63.3 24 36-12.5v-101L112.7 33 46 57v75.4l22.7-9.2V62.6l44-10.7z"/>
</svg>
