<svg width="200" height="200" viewBox="0 0 200 200" fill="none" xmlns="http://www.w3.org/2000/svg">
<path d="M139.988 106.537C118.137 106.537 100.405 124.269 100.405 146.12C100.405 160.986 108.465 173.882 120.644 180.509V182.3C120.644 186.42 124.047 189.823 128.167 189.823H151.809C155.929 189.823 159.332 186.42 159.332 182.3V180.509C171.511 173.703 179.571 160.807 179.571 145.941C179.571 124.09 161.839 106.537 139.988 106.537ZM160.586 131.792C159.869 132.329 159.153 132.508 158.436 132.508C157.362 132.508 156.287 131.971 155.571 131.254C152.168 127.493 147.511 125.165 142.496 124.448C140.525 124.09 139.093 122.478 139.093 120.687C139.093 118.538 140.884 116.926 142.854 116.926H143.391C150.197 117.821 156.645 121.045 161.302 126.06C162.018 126.956 162.377 128.03 162.198 129.105C162.198 130.18 161.481 131.254 160.586 131.792ZM169.541 137.523C170.078 138.777 170.437 139.852 170.795 141.105C171.332 143.076 170.078 145.225 168.108 145.762C167.75 145.762 167.392 145.941 167.034 145.941C165.242 145.941 163.81 144.688 163.272 143.076C163.093 142.18 162.735 141.284 162.377 140.389C161.66 138.777 162.377 136.807 163.81 135.911C164.526 135.374 165.242 135.195 165.959 135.195C167.571 135.016 169.004 136.09 169.541 137.523ZM140.705 98.8358H139.451C136.227 98.8358 133.54 96.1492 133.54 92.9252V86.1191C133.54 82.8951 136.227 80.2085 139.451 80.2085H140.705C143.929 80.2085 146.615 82.8951 146.615 86.1191V92.9252C146.615 96.1492 143.929 98.8358 140.705 98.8358ZM164.168 105.463L163.093 104.925C160.227 103.313 159.332 99.5522 160.944 96.6865L164.347 90.955C165.959 88.0893 169.72 87.1937 172.586 88.8057L173.661 89.343C176.526 90.955 177.422 94.7163 175.81 97.582L172.407 103.313C170.616 106.179 166.854 107.075 164.168 105.463ZM181.183 122.836L180.646 121.762C179.034 118.896 179.929 115.314 182.795 113.523L188.527 110.12C191.392 108.508 194.974 109.403 196.766 112.269L197.303 113.344C198.915 116.209 198.019 119.791 195.154 121.583L189.422 124.986C186.377 126.777 182.795 125.702 181.183 122.836ZM117.062 104.925L115.988 105.463C113.122 107.075 109.54 106.179 107.749 103.313L104.525 97.4029C102.734 94.5372 103.808 90.955 106.674 89.343L107.749 88.8057C110.614 87.1937 114.197 88.0893 115.988 90.955L119.391 96.6865C120.824 99.5522 119.928 103.134 117.062 104.925Z" fill="#4753F4"/>
<path d="M86.6138 153.285H63.3297C61.1804 153.285 59.2102 152.389 57.5982 150.956C56.1653 149.523 55.2698 147.374 55.2698 145.225C55.2698 143.076 56.1653 141.105 57.5982 139.493C59.0311 138.061 61.1804 137.165 63.3297 137.165H82.8525L77.6584 134.12C72.4642 131.254 69.2403 126.239 67.9865 121.045H63.3297C61.1804 121.045 59.2102 120.15 57.5982 118.717C56.1653 117.284 55.2698 115.135 55.2698 112.985C55.2698 110.836 56.1653 108.866 57.5982 107.254C59.0311 105.821 61.1804 104.925 63.3297 104.925H71.2104C74.9717 99.0149 81.4196 95.2536 88.4049 95.2536H89.1213C89.1213 93.2834 89.3004 91.1341 89.8377 89.1639C89.8377 88.9848 90.0168 88.8057 90.0168 88.8057H63.5088C61.3595 88.8057 59.3893 87.9102 57.7773 86.4773C56.3444 85.0444 55.4489 82.8951 55.4489 80.7458C55.4489 78.5965 56.3444 76.6263 57.7773 75.0143C59.2102 73.5815 61.3595 72.6859 63.5088 72.6859H124.406C128.167 68.5664 133.54 65.8798 139.63 65.8798H140.884C148.764 65.8798 155.391 70.3575 158.794 76.8054C161.302 75.1934 163.989 74.1188 167.033 73.7606V45.4614C167.033 41.1628 165.242 37.0433 162.198 33.9985C159.153 30.9537 155.033 29.3417 150.735 29.3417H134.615V33.2821C134.615 36.506 133.361 39.5509 131.033 41.8793C128.704 44.2077 125.659 45.4614 122.435 45.4614H44.7024C38.0754 45.4614 32.523 40.0882 32.523 33.4612V29.5208H16.4032C12.1046 29.5208 7.98514 31.1328 4.9403 34.1776C1.89545 37.2224 0.10437 41.3419 0.10437 45.6405V174.42C0.10437 178.718 1.89546 182.838 4.76119 185.882C7.80604 188.927 11.9255 190.539 16.2241 190.539H107.749L107.211 188.927C96.1065 180.151 88.584 167.255 86.6138 153.285ZM44.8815 150.777C43.4486 152.21 41.2993 153.106 39.15 153.106C37.0007 153.106 35.0305 152.21 33.4186 150.777C31.9857 149.344 31.0901 147.195 31.0901 145.046C31.0901 142.896 31.9857 140.926 33.4186 139.314C34.8514 137.881 37.0007 136.986 39.15 136.986C41.2993 136.986 43.2695 137.881 44.8815 139.314C46.3144 140.747 47.2099 142.896 47.2099 145.046C47.2099 147.374 46.4935 149.344 44.8815 150.777ZM41.2993 120.687C37.7172 121.583 33.9559 120.15 32.1648 116.926C30.7319 114.418 30.7319 111.373 32.1648 108.866C33.5977 106.358 36.2843 104.746 39.15 104.746C41.2993 104.746 43.2695 105.642 44.8815 107.075C46.3144 108.508 47.2099 110.657 47.2099 112.806C47.2099 116.568 44.7024 119.791 41.2993 120.687ZM41.2993 88.4475C37.7172 89.343 33.9559 87.9102 32.1648 84.6862C30.7319 82.1787 30.7319 79.1338 32.1648 76.6263C33.5977 74.1188 36.2843 72.6859 39.15 72.6859C43.6277 72.6859 47.2099 76.2681 47.2099 80.7458C47.2099 84.328 44.8815 87.5519 41.2993 88.4475Z" fill="#4753F4"/>
<path d="M46.4936 40.4465H120.465C125.66 40.4465 129.779 36.327 129.779 31.1328C129.779 25.9387 125.66 21.8192 120.465 21.8192H98.6142C97.1813 14.6548 90.9125 9.46069 83.569 9.46069C76.2256 9.46069 69.9568 14.6548 68.5239 21.8192H46.4936C41.2994 21.8192 37.1799 25.9387 37.1799 31.1328C37.1799 36.327 41.4785 40.4465 46.4936 40.4465ZM124.227 117.284L123.152 117.821C120.465 119.254 117.6 120.15 114.555 120.508V121.045H128.704C130.854 121.045 132.824 120.15 134.436 118.717C135.869 117.284 136.764 115.135 136.764 112.985C134.615 112.627 132.645 112.09 130.675 111.194C129.063 113.523 126.913 115.672 124.227 117.284ZM166.854 126.419V120.687H165.422C165.601 122.478 166.138 124.448 166.854 126.419ZM99.5097 121.941L98.9724 123.015C97.3604 125.881 93.5991 126.777 90.7334 125.165L85.0019 121.762C82.1362 120.15 81.2406 116.388 82.8526 113.523L83.3899 112.448C85.0019 109.582 88.7632 108.687 91.6289 110.299L97.3604 113.702C100.226 115.314 101.122 119.075 99.5097 121.941Z" fill="#4753F4"/>
</svg>
