<svg xmlns="http://www.w3.org/2000/svg" width="200" height="200" class="icon" viewBox="0 0 1024 1024">
  <path fill="#000000" d="M83.405 573.338c4.787-228.772 191.744-415.32 420.52-419.697a427.756 427.756 0 01141.584 21.125L528.384 57.631a15.642 15.642 0 010-22.119l20.7-20.695a15.642 15.642 0 0122.119.005l154.004 154.071c.317.318.589.671.896.994l.041-.041c23.65 23.649 23.654 61.993 0 85.642l-154.88 154.87a15.642 15.642 0 01-22.118 0l-20.675-20.68a15.642 15.642 0 010-22.113l125.19-125.22c-46.798-19.492-98.443-29.67-152.674-28.047-198.671 5.949-358.282 171.689-357.12 370.442 1.188 202.45 165.688 366.208 368.404 366.208 198.549 0 360.407-157.056 368.123-353.71a15.309 15.309 0 0115.309-14.705h29.865a15.427 15.427 0 0115.38 16.036c-8.432 229.483-197.135 412.933-428.677 412.933-239.959.005-433.91-197.043-428.866-438.164z"/>
</svg>
