<svg width="200" height="200" viewBox="0 0 200 200" fill="none" xmlns="http://www.w3.org/2000/svg">
<path d="M23.9023 40.7012H120.611C123.736 40.7012 125.299 42.2637 125.299 45.3887C125.299 48.5137 123.736 50.0762 120.611 50.0762H23.9023C20.7773 50.0762 19.2148 48.5137 19.2148 45.3887C19.2148 42.2637 20.7773 40.7012 23.9023 40.7012Z" fill="#C3DDFF"/>
<path d="M113.607 12.4199H28.166C19.7676 12.4199 12.959 19.2949 12.959 27.7773V171.965C12.959 180.447 19.7676 187.322 28.166 187.322H135.807C144.205 187.322 151.014 180.447 151.014 171.965V49.873" fill="#4894FD"/>
<path d="M113.525 12.4883V34.7656C113.525 43.3184 120.113 50.25 128.238 50.25L150.816 49.9609" fill="#C3DDFF"/>
<path d="M30.1094 55.1309H91.5918C94.7168 55.1309 96.2793 56.6934 96.2793 59.8184C96.2793 62.9434 94.7168 64.5059 91.5918 64.5059H30.1094C26.9844 64.5059 25.4219 62.9434 25.4219 59.8184C25.4219 56.6934 26.9844 55.1309 30.1094 55.1309Z" fill="#C3DDFF"/>
<path d="M30.1094 87.7812H71.2891C74.4141 87.7812 75.9766 89.3438 75.9766 92.4688C75.9766 95.5938 74.4141 97.1562 71.2891 97.1562H30.1094C26.9844 97.1562 25.4219 95.5938 25.4219 92.4688C25.4219 89.3438 26.9844 87.7812 30.1094 87.7812Z" fill="#C3DDFF"/>
<path d="M175.467 65.2227H169.996V59.7539H175.467C175.678 59.7539 175.891 59.7461 176.1 59.7305L176.494 65.1856C176.154 65.2109 175.809 65.2227 175.467 65.2227ZM165.309 65.2227H159.84V59.7539H165.309V65.2227ZM155.152 65.2227H149.977C149.855 65.2227 149.734 65.2227 149.613 65.2188L149.752 59.752C149.826 59.752 149.9 59.7539 149.975 59.7539H155.15V65.2227H155.152ZM143.994 63.8945C141.949 62.9375 140.143 61.4805 138.766 59.6836L143.107 56.3574C143.953 57.4609 145.061 58.3535 146.314 58.9414L143.994 63.8945ZM182.047 63.5957L179.494 58.7598C180.725 58.108 181.782 57.1711 182.576 56.0273L187.07 59.1445C185.776 61.0089 184.053 62.5359 182.047 63.5977V63.5957ZM136.268 54.4766C135.997 53.3732 135.861 52.2414 135.861 51.1055V48.3848H141.33V51.1055C141.33 51.8066 141.414 52.502 141.578 53.1738L136.268 54.4766ZM189.318 53.8223L183.951 52.7754C184.059 52.2305 184.111 51.668 184.111 51.1055V47.8438H189.58V51.1055C189.58 52.0176 189.492 52.9316 189.318 53.8223ZM141.33 43.6973H135.861V38.2285H141.33V43.6973ZM189.58 43.1582H184.111V37.6895H189.58V43.1582ZM141.33 33.541H135.861V28.0723H141.33V33.541ZM189.58 33.002H184.111V27.5332H189.58V33.002ZM141.494 23.9297L136.129 22.8691C136.566 20.6523 137.549 18.5469 138.971 16.7793L143.232 20.2051C142.363 21.2871 141.762 22.5742 141.494 23.9297ZM183.859 23.5313C183.527 22.1914 182.865 20.9336 181.945 19.8926L186.041 16.2695C187.543 17.9688 188.625 20.0234 189.168 22.2168L183.859 23.5313ZM145.965 17.957L143.422 13.1152C145.42 12.0664 147.674 11.5098 149.943 11.5039L149.955 16.9727C148.545 16.9766 147.201 17.3066 145.963 17.957H145.965ZM179.109 17.7754C177.965 17.2422 176.74 16.9727 175.465 16.9727H174.951V11.5039H175.465C177.543 11.5039 179.547 11.9453 181.418 12.8184L179.109 17.7754ZM170.264 16.9727H164.795V11.5039H170.264V16.9727ZM160.107 16.9727H154.639V11.5039H160.107V16.9727ZM43.1094 187.852C41.1113 187.852 39.1113 187.664 37.1641 187.293L38.1855 181.92C39.8088 182.227 41.4573 182.382 43.1094 182.381V187.85V187.852ZM47.0527 187.607L46.377 182.18C48.0147 181.976 49.6294 181.617 51.1992 181.107L52.8867 186.309C50.9941 186.924 49.0312 187.359 47.0508 187.605L47.0527 187.607ZM32.2227 185.928C30.3474 185.241 28.5417 184.377 26.8301 183.348L29.6465 178.66C31.0617 179.51 32.554 180.224 34.1035 180.793L32.2227 185.928ZM57.6191 184.336L55.1094 179.477C56.5703 178.721 57.9707 177.822 59.2676 176.803L62.6465 181.104C61.0766 182.337 59.3941 183.419 57.6211 184.336H57.6191ZM22.666 180.363C21.1433 179.073 19.7453 177.643 18.4902 176.092L22.7422 172.652C23.7793 173.934 24.9414 175.125 26.1992 176.189L22.6641 180.363H22.666ZM66.4043 177.627L62.3789 173.924C63.4961 172.709 64.502 171.385 65.3711 169.986L70.0176 172.869C68.9687 174.559 67.752 176.16 66.4043 177.627ZM15.6016 171.861C14.6133 170.129 13.7871 168.295 13.1465 166.412L18.3223 164.648C18.8516 166.205 19.5352 167.721 20.3516 169.152L15.6016 171.861ZM72.3594 168.307L67.3066 166.215C67.9383 164.69 68.4229 163.109 68.7539 161.492L74.1113 162.59C73.7109 164.543 73.1211 166.465 72.3594 168.307ZM11.8945 161.439C11.6074 159.721 11.4629 157.957 11.4629 156.201C11.4629 155.961 11.4648 155.723 11.4707 155.484L16.9375 155.604C16.9336 155.803 16.9316 156.002 16.9316 156.201C16.9316 157.656 17.0527 159.117 17.2891 160.539L11.8945 161.438V161.439ZM74.7324 157.504L69.2676 157.283C69.2812 156.926 69.2891 156.563 69.2891 156.201C69.2891 154.908 69.1934 153.609 69.0059 152.342L74.416 151.543C74.6426 153.074 74.7578 154.641 74.7578 156.201C74.7578 156.635 74.75 157.074 74.7324 157.504ZM17.373 151.389L11.9961 150.391C12.3594 148.43 12.9141 146.496 13.6426 144.643L18.7324 146.641C18.1297 148.177 17.6745 149.766 17.373 151.389ZM68.0508 148.217C67.5508 146.65 66.8965 145.123 66.1055 143.678L70.9063 141.057C71.8613 142.807 72.6543 144.656 73.2598 146.551L68.0508 148.217ZM20.5977 142.836L15.8984 140.039C16.916 138.33 18.1016 136.707 19.4238 135.215L23.5156 138.844C22.4219 140.078 21.4395 141.422 20.5977 142.836ZM63.7812 140.135C62.766 138.831 61.6301 137.626 60.3887 136.535L64 132.428C65.4961 133.742 66.873 135.205 68.0957 136.775L63.7812 140.135ZM26.5762 135.906L23.1191 131.668C24.6641 130.408 26.334 129.289 28.084 128.344L30.6836 133.154C29.2363 133.938 27.8535 134.861 26.5762 135.904V135.906ZM56.9883 134C55.5898 133.125 54.1035 132.379 52.5703 131.785L54.5469 126.686C56.4023 127.404 58.1992 128.307 59.8906 129.365L56.9883 134ZM34.5586 131.453L32.7734 126.283C34.6613 125.631 36.6069 125.16 38.584 124.877L39.3594 130.291C37.7285 130.525 36.1133 130.916 34.5586 131.453ZM48.5078 130.582C46.9023 130.246 45.248 130.061 43.5937 130.029L43.6934 124.561C45.6895 124.596 47.6875 124.82 49.6289 125.229L48.5078 130.582Z" fill="#DCEEFE"/>
<path d="M143.619 99.4609C172.833 99.4609 187.439 114.068 187.439 143.281C187.439 172.495 172.833 187.102 143.619 187.102C114.406 187.102 99.7988 172.495 99.7988 143.281C99.7988 114.068 114.406 99.4609 143.619 99.4609Z" fill="#C3DDFF"/>
<path d="M151.256 122.352L170.047 142.613C170.66 142.936 171.043 143.568 171.043 144.256C171.043 144.943 170.66 145.58 170.047 145.898L151.256 164.211C150.973 164.361 150.657 164.436 150.337 164.428C150.017 164.42 149.705 164.33 149.43 164.166C149.155 164.002 148.928 163.769 148.77 163.491C148.613 163.212 148.53 162.898 148.529 162.578V151.869H118.051C117.023 151.869 116.193 151.039 116.193 150.014V138.496C116.193 137.471 117.023 136.639 118.051 136.639H148.529V123.994C148.525 122.971 149.354 122.137 150.379 122.135C150.686 122.135 150.986 122.209 151.256 122.354V122.352Z" fill="#4894FD"/>
</svg>
