<svg xmlns="http://www.w3.org/2000/svg" id="图层_1" x="0" y="0" version="1.1" viewBox="0 0 200 200" xml:space="preserve">
  <path fill="#ffbf33" d="M187 0H13C5.8 0 0 5.8 0 13v174c0 7.2 5.8 13 13 13h174c7.2 0 13-5.8 13-13V13c0-7.2-5.8-13-13-13z"/>
  <path d="M161.7 70c-1.5-18.5-16.8-31.9-36.4-31.9-7 0-14.2 2.7-19.8 7.4-3.1 2.6-6 5.5-8.8 8.4-.8.8-1.6 1.7-2.5 2.5-1.6 1.6-2.3 3.9-1.9 6.3.5 3 2.3 5.2 5.1 6.1 2.9 1 5.7.3 7.9-1.8 1.2-1.1 2.3-2.3 3.4-3.4 1.4-1.4 2.8-2.9 4.3-4.3 4.6-4.5 10-6.3 16.1-5.5 7.8 1 13.2 5.3 15.9 12.6 2.8 7.4 1.5 14.1-3.8 19.8-4.9 5.3-10.4 10.8-16.7 16.7-6.4 6-15.8 6.9-23.5 2.1-.9-.5-1.7-1.2-2.6-2l-1.5-1.2c-3-2.4-7.1-2.3-10 .3-2.8 2.5-3.4 6.7-1.4 9.8.6.9 1.4 1.7 2 2.3 6.7 6.2 15.2 9.3 23.7 9.3 8.7 0 17.3-3.2 24-9.5 5.7-5.5 11.4-11.1 16.8-16.8 7.5-7.7 10.6-16.8 9.7-27.2z" class="st1"/>
  <path d="M102.2 131.1c-2.7-.8-5.5 0-7.6 2-1.3 1.2-2.6 2.5-3.8 3.8-1.3 1.3-2.6 2.7-4 4-5.4 5.1-11.6 6.8-18.5 5-6.9-1.8-12.2-6.8-14-13.5-1.9-6.8 0-14 5.1-19.2 4.4-4.6 9.3-9.4 15.3-15.3 4.9-4.8 10.9-6.6 17.7-5.4 3.7.7 6.9 2.4 9.8 5.1 3 2.8 5.9 2.7 7.9 2.1 2.7-.8 4.6-2.8 5.3-5.4.7-2.7-.2-5.5-2.3-7.6-6.6-6.4-14.8-9.8-24.3-10-9.7.2-18 3.6-24.8 10.3-4.8 4.7-10.1 10-15.4 15.4-8.1 8.4-11.5 18.4-9.9 29.8 1.6 11.5 8.9 21.4 19.6 26.4 4.8 2.3 10 3.4 15.1 3.4 6.2 0 12.4-1.7 17.8-5 4.6-2.8 8.3-6.6 11.8-10.3 1-1.1 2-2.1 3-3.1 1.7-1.7 2.3-4.1 1.6-6.8-.8-2.8-2.8-4.9-5.4-5.7z" class="st1"/>
</svg>
