<?xml version="1.0" encoding="utf-8"?>
<!-- Generator: Adobe Illustrator 22.0.0, SVG Export Plug-In . SVG Version: 6.00 Build 0)  -->
<svg version="1.1" id="图层_1" xmlns="http://www.w3.org/2000/svg" xmlns:xlink="http://www.w3.org/1999/xlink" x="0px" y="0px"
	 viewBox="0 0 200 200" style="enable-background:new 0 0 200 200;" xml:space="preserve">
<style type="text/css">
	.st0{fill:#52C41B;}
	.st1{fill:#FFFFFF;}
</style>
<g id="椭圆_1">
	<g>
		<circle class="st0" cx="99" cy="100" r="99"/>
	</g>
</g>
<path class="st1" d="M164.5,60.3c-4.7-5.1-12.6-5.5-17.7-0.8c0,0,0,0,0,0l-62.6,57.1L51.9,87.2c0,0,0,0,0,0s0,0,0,0l-0.2-0.2l0,0
	c-5.1-4.5-12.9-4-17.5,1c-4.6,5-4.3,12.8,0.7,17.5l0,0l40.7,37c0.1,0.1,0.2,0.2,0.3,0.3c0.1,0.1,0.2,0.2,0.3,0.3
	c4.6,3.9,11.3,3.9,15.9,0.2l1.2-1.1L163.7,78c0,0,0,0,0,0C168.8,73.3,169.2,65.4,164.5,60.3z"/>
</svg>
