<?xml version="1.0" encoding="utf-8"?>
<!-- Generator: Adobe Illustrator 22.0.0, SVG Export Plug-In . SVG Version: 6.00 Build 0)  -->
<svg version="1.1" id="图层_1" xmlns="http://www.w3.org/2000/svg" xmlns:xlink="http://www.w3.org/1999/xlink" x="0px" y="0px"
	 viewBox="0 0 200 200" style="enable-background:new 0 0 200 200;" xml:space="preserve">
<style type="text/css">
	.st0{fill:#FF4D4F;}
	.st1{fill:#FFFFFF;}
</style>
<g id="椭圆_1">
	<g>
		<circle class="st0" cx="99" cy="100" r="99"/>
	</g>
</g>
<g>
	<path class="st1" d="M56,142.6L56,142.6c-4.7-5.1-4.4-13.1,0.7-17.8l69.4-63.9c5.1-4.7,13.1-4.4,17.8,0.7l0,0
		c4.7,5.1,4.4,13.1-0.7,17.8l-69.4,63.9C68.7,148,60.7,147.7,56,142.6z"/>
	<path class="st1" d="M144,142.6L144,142.6c4.7-5.1,4.4-13.1-0.7-17.8L73.8,60.9c-5.1-4.7-13.1-4.4-17.8,0.7l0,0
		c-4.7,5.1-4.4,13.1,0.7,17.8l69.4,63.9C131.3,148,139.3,147.7,144,142.6z"/>
</g>
</svg>
