<?xml version="1.0" encoding="utf-8"?>
<!-- Generator: Adobe Illustrator 22.0.0, SVG Export Plug-In . SVG Version: 6.00 Build 0)  -->
<svg version="1.1" id="图层_1" xmlns="http://www.w3.org/2000/svg" xmlns:xlink="http://www.w3.org/1999/xlink" x="0px" y="0px"
	 viewBox="0 0 200 200" style="enable-background:new 0 0 200 200;" xml:space="preserve">
<style type="text/css">
	.st0{fill:#505050;}
</style>
<g>
	<path class="st0" d="M80.9,148.7V42.7c0-3.8-2.7-7-6.5-7.7l-61.5-9.7c-0.5-0.1-1.1-0.1-1.6-0.1C5.6,25.1,1,30.4,1,37v143.8
		c0,6.5,4.6,11.9,10.3,11.9c0.4,0,0.9,0,1.2-0.1l82.7-9.3c5.1-0.7,9-5.8,9-11.8v-14.8l-19.4-2.6C82.6,153.8,80.9,151.4,80.9,148.7z"
		/>
	<path class="st0" d="M188.7,6.7c-0.6,0-1.1,0.1-1.6,0.1l-82.7,13.9c-5,1-8.6,6.3-8.6,12.7v13.9l19.5,3.3c2.1,0.4,3.7,2.7,3.7,5.4
		v117.5c0,4,2.9,7.4,6.9,8.1l61.4,9.7c0.4,0.1,0.9,0.1,1.3,0.1c5.7,0,10.3-5.8,10.3-12.8V19.5C199,12.4,194.4,6.7,188.7,6.7z"/>
</g>
</svg>
