<svg width="16" height="16" viewBox="0 0 16 16" fill="none"
    xmlns="http://www.w3.org/2000/svg">
    <path fill-rule="evenodd" clip-rule="evenodd" d="M5.21935 9.88221C7.56842 12.5855 10.1736 14.3266 10.5855 13.9486L12.8677 11.8066C13.0236 11.6577 13.0459 11.4171 12.9123 11.2568L11.7322 9.90512C11.6208 9.77912 11.4316 9.77912 11.3091 9.89367L10.0956 11.0162L4.82969 4.9453L5.93186 3.94875C6.06546 3.82275 6.08773 3.61657 5.96526 3.49057L4.76289 2.10457C4.65156 1.96711 4.44004 1.96711 4.30644 2.09311L2.07983 4.16639C1.66791 4.54439 2.87028 7.17894 5.21935 9.88221Z" stroke="black"/>
    <path d="M10.6083 5.9731C10.8246 6.19409 10.9327 6.48138 10.9435 6.76868L11.8083 6.75763C11.7975 6.23829 11.6029 5.73 11.2138 5.34326C10.8246 4.95652 10.3165 4.76868 9.80835 4.76868L9.81916 5.65265C10.1002 5.65265 10.3813 5.76315 10.6083 5.9731Z" fill="black"/>
    <path d="M11.9465 4.62816C12.5351 5.21527 12.8354 5.98586 12.8474 6.76868L13.8083 6.75645C13.7963 5.729 13.3999 4.70155 12.6192 3.91873C11.8384 3.13591 10.8174 2.75673 9.80835 2.76896L9.82036 3.74749C10.5891 3.75972 11.3579 4.04104 11.9465 4.62816Z" fill="black"/>
</svg>
