<svg width="200" height="200" viewBox="0 0 200 200" fill="none" xmlns="http://www.w3.org/2000/svg">
<path d="M71.73 182.98H36.5C24.37 182.98 14.5 173.11 14.5 160.98V39.02C14.5 26.89 24.37 17.02 36.5 17.02H71.73C83.86 17.02 93.73 26.89 93.73 39.02V160.98C93.73 173.11 83.86 182.98 71.73 182.98ZM36.5 29.02C30.99 29.02 26.5 33.51 26.5 39.02V160.98C26.5 166.49 30.99 170.98 36.5 170.98H71.73C77.24 170.98 81.73 166.49 81.73 160.98V39.02C81.73 33.51 77.24 29.02 71.73 29.02H36.5ZM164.14 106H128.91C116.78 106 106.91 96.13 106.91 84V39.02C106.91 26.89 116.78 17.02 128.91 17.02H164.14C176.27 17.02 186.14 26.89 186.14 39.02V84C186.14 96.13 176.27 106 164.14 106ZM128.92 29.02C123.41 29.02 118.92 33.51 118.92 39.02V84C118.92 89.51 123.41 94 128.92 94H164.15C169.66 94 174.15 89.51 174.15 84V39.02C174.15 33.51 169.66 29.02 164.15 29.02H128.92Z" fill="#303135"/>
<path d="M164.14 182.98H128.91C116.78 182.98 106.91 173.11 106.91 160.98V141.34C106.91 129.21 116.78 119.34 128.91 119.34H164.14C176.27 119.34 186.14 129.21 186.14 141.34V160.98C186.14 173.11 176.27 182.98 164.14 182.98ZM128.92 131.34C123.41 131.34 118.92 135.83 118.92 141.34V160.98C118.92 166.49 123.41 170.98 128.92 170.98H164.15C169.66 170.98 174.15 166.49 174.15 160.98V141.34C174.15 135.83 169.66 131.34 164.15 131.34H128.92Z" fill="#FF623E"/>
</svg>
