<?xml version="1.0" encoding="utf-8"?>
<!-- Generator: Adobe Illustrator 22.0.0, SVG Export Plug-In . SVG Version: 6.00 Build 0)  -->
<svg version="1.1" id="图层_1" xmlns="http://www.w3.org/2000/svg" xmlns:xlink="http://www.w3.org/1999/xlink" x="0px" y="0px"
	 viewBox="0 0 270 230" style="enable-background:new 0 0 270 230;" xml:space="preserve">
<style type="text/css">
	.st0{fill:#3C3C3C;}
	.st1{fill:#52C41B;}
	.st2{fill:#FFFFFF;}
</style>
<path class="st0" d="M112.9,105.2V169l12.4,4.6v-49.4l9.7,5.3l4.9-9.3l-26.9-19 M89.7,188.7v-66.8l-12.4-6.6v54.4l-9.7-5.3l-4.9,9.3
	l26.9,19"/>
<path class="st0" d="M162.7,60.9C158.6,29.8,132,6,100.2,6C68.4,6,41.7,29.8,37.7,60.9C16.9,67.6,2.3,87.4,2.3,109.4
	c0,24.4,17.3,44.9,40.2,49.9v-12.4c-16.3-4.7-28.2-19.7-28.2-37.5c0-18,12.7-34,30.3-38l4.4-1l0.3-4.5C50.9,39,73.2,18,100.2,18
	s49.3,21,50.9,47.9l0.3,4.5l4.4,1c17.6,4.1,30.3,20,30.3,38c0,17.8-11.9,32.8-28.2,37.5v12.4c23-5,40.2-25.4,40.2-49.9
	C198.1,87.4,183.4,67.6,162.7,60.9z"/>
<g>
	<g id="椭圆_1">
		<g>
			<circle class="st1" cx="207.5" cy="164.7" r="60"/>
		</g>
	</g>
	<path class="st2" d="M247.3,140.7c-2.8-3.1-7.6-3.3-10.7-0.5c0,0,0,0,0,0l-37.9,34.6L179,157c0,0,0,0,0,0c0,0,0,0,0,0l-0.1-0.1l0,0
		c-3.1-2.7-7.8-2.4-10.6,0.6c-2.8,3.1-2.6,7.8,0.4,10.6l0,0l24.7,22.4c0.1,0.1,0.1,0.1,0.2,0.2c0.1,0.1,0.1,0.1,0.2,0.2
		c2.8,2.4,6.8,2.4,9.6,0.1l0.7-0.6l42.7-39c0,0,0,0,0,0C249.9,148.6,250.1,143.8,247.3,140.7z"/>
</g>
</svg>
