<?xml version="1.0" encoding="utf-8"?>
<!-- Generator: Adobe Illustrator 22.0.0, SVG Export Plug-In . SVG Version: 6.00 Build 0)  -->
<svg version="1.1" id="图层_1" xmlns="http://www.w3.org/2000/svg" xmlns:xlink="http://www.w3.org/1999/xlink" x="0px" y="0px"
	 viewBox="0 0 270 230" style="enable-background:new 0 0 270 230;" xml:space="preserve">
<style type="text/css">
	.st0{fill:#3C3C3C;}
	.st1{fill:#EB7930;}
	.st2{fill:#FFFFFF;}
</style>
<path class="st0" d="M112.9,105.2V169l12.4,4.6v-49.4l9.7,5.3l4.9-9.3l-26.9-19 M89.7,188.7v-66.8l-12.4-6.6v54.4l-9.7-5.3l-4.9,9.3
	l26.9,19"/>
<path class="st0" d="M162.7,60.9C158.6,29.8,132,6,100.2,6S41.7,29.8,37.7,60.9C16.9,67.6,2.3,87.4,2.3,109.4
	c0,24.4,17.3,44.9,40.2,49.9v-12.4c-16.3-4.7-28.2-19.7-28.2-37.5c0-18,12.7-34,30.3-38l4.4-1l0.3-4.5C50.9,39,73.2,18,100.2,18
	s49.3,21,50.9,47.9l0.3,4.5l4.4,1c17.6,4.1,30.3,20,30.3,38c0,17.8-11.9,32.8-28.2,37.5v12.4c23-5,40.2-25.4,40.2-49.9
	C198.1,87.4,183.4,67.6,162.7,60.9z"/>
<g>
	<g id="椭圆_1">
		<g>
			<circle class="st1" cx="207.5" cy="164.7" r="60"/>
		</g>
	</g>
	<g>
		<g id="形状_1">
			<g>
				<path class="st2" d="M202.7,170.3c-1.6,0-23.4,0.2-24.8,0.2c-1.2,0-2.7,1.5-2.7,2.7c0,1.9-0.2,23.6-0.2,24.7
					c0,1.4,1.5,1.2,2.7,0c0.9-0.9,23.7-23.7,25-25C203.9,171.7,203.8,170.3,202.7,170.3z"/>
			</g>
		</g>
		<g id="形状_1_拷贝">
			<g>
				<path class="st2" d="M236.6,130.9c-0.9,0.9-23.5,23.5-24.8,24.8c-1.3,1.3-1.1,2.6,0,2.7c1.5,0,23.3-0.2,24.6-0.2
					c1.2,0,2.7-1.5,2.7-2.7c0-1.8,0.2-23.5,0.2-24.6C239.3,129.6,237.8,129.8,236.6,130.9z"/>
			</g>
		</g>
		<g>
			<path class="st2" d="M184.8,161.3c1.4-11.1,10.8-19.7,22.3-19.7c5.4,0,10.3,1.9,14.1,5l7.1-7.1c-5.7-4.9-13.1-7.9-21.2-7.9
				c-17,0-31,13.1-32.4,29.7C174.8,161.3,184.8,161.3,184.8,161.3z"/>
			<path class="st2" d="M229.6,166c-1,11.5-10.6,20.6-22.4,20.6c-5.2,0-9.9-1.7-13.7-4.7l-7.1,7.1c5.6,4.7,12.9,7.5,20.8,7.5
				c17.3,0,31.5-13.5,32.5-30.6C239.6,166,229.6,166,229.6,166z"/>
		</g>
	</g>
</g>
</svg>
