<svg xmlns="http://www.w3.org/2000/svg" id="图层_1" x="0" y="0" version="1.1" viewBox="0 0 128 128" xml:space="preserve">
  <g id="Rectangle-3">
    <path d="M21.7 35.5l8 84.8c.2 1.8 1.7 3.2 3.5 3.2h62c1.8 0 3.3-1.4 3.5-3.2l8-84.8h-85z" fill="#fff"/>
    <path d="M95.2 126h-62c-3.1 0-5.7-2.3-6-5.4L19 33h90.4l-8.2 87.6c-.3 3.1-2.9 5.4-6 5.4zM24.5 38l7.7 82.1c0 .5.5.9 1 .9h62c.5 0 .9-.4 1-.9l7.7-82.1H24.5z" fill="#779eea"/>
  </g>
  <g id="xunhuanliyong" transform="translate(30 57)">
    <path id="Shape" d="M16.8 38.2s-2.3 4.6 2.7 6.5H30V34H19l-2.2 4.2z" fill="#779eea"/>
    <path id="Shape_1_" d="M16.8 37.3l5.8-10.1 3.8 2.2-4.5-10.3s-.8-1.9-2.8-1.6L8 18.8l3.9 2.3-3.3 5.8s-1 1.6 1 4.9l6.4 11s.6 1.1 2.5 1.9c0 0-3.6-2.1-1.7-7.4zm33-5.2l5.4-.2s5.8-.4 4.9-6.4l-5.8-10.2-10.6 6.1 6.1 10.7z" fill="#779eea"/>
    <path id="Shape_2_" d="M60.2 29.8s0 3.8-5.6 4.7H42.9v-4.1l-6.8 8.3s-1.2 1.5 0 3l6.8 8.2v-4.2h6.8s1.9.1 3.8-3l6.4-10.2c-.1.2.5-.8.3-2.7zM22.2 6l-5.9 9.3L27 20.9l6.2-9.7L30.3 7S27 2.5 22.2 6z" fill="#779eea"/>
    <path id="Shape_3_" d="M44.7 12.7s2 .2 2.8-1L52 5.2l-3.9 1.4L44.7 3s-.8-1-4.7-1l-12.6.1s-1.2 0-2.9.8c0 0 3.6-1.3 7.2 1.4l5.8 6.3-3.8 1.4 11 .7z" fill="#779eea"/>
  </g>
  <g id="Rectangle-3-Copy">
    <path d="M106.5 33.5L99.7 7.1c-.4-1.5-1.8-2.6-3.4-2.6H32.7c-1.6 0-3 1.1-3.4 2.6l-6.8 26.4h84z" fill="#fff"/>
    <path d="M109.7 36H19.3l7.6-29.5C27.6 3.9 30 2 32.7 2h63.6c2.7 0 5.1 1.9 5.8 4.5l7.6 29.5zm-83.9-5h77.5l-6-23.2c-.1-.4-.5-.8-1-.8H32.7c-.5 0-.9.3-1 .8L25.8 31z" fill="#779eea"/>
  </g>
  <g id="Rectangle-3-Copy_1_">
    <path d="M90.1 5.2l-3.8 11c-.1.3-.4.5-.7.5H44.4c-.3 0-.6-.2-.7-.5l-3.8-11h50.2z" fill="#fff"/>
    <path d="M85.7 19H44.4c-1.3 0-2.4-.8-2.8-2L36.8 3h56.5l-4.8 14c-.4 1.2-1.5 2-2.8 2zm-40.2-4.5h39.1l2.4-7H43.1l2.4 7z" fill="#779eea"/>
  </g>
  <g id="Rectangle-5">
    <path d="M10.5 30.5h107v12h-107z" fill="#fff"/>
    <path d="M120 45H8V28h112v17zM13 40h102v-7H13v7z" fill="#779eea"/>
  </g>
</svg>
