<svg width="200" height="200" viewBox="0 0 200 200" fill="none" xmlns="http://www.w3.org/2000/svg">
<path d="M192.966 152.715H161.359V121.279H152.965V152.715H121.357V161.109H152.965V192.888H161.359V161.109H192.966V152.715Z" fill="#126EE3"/>
<path d="M128.573 115.874C128.573 119.242 127.235 122.472 124.854 124.854C122.472 127.235 119.242 128.573 115.874 128.573H26.9855C23.6177 128.573 20.3878 127.235 18.0064 124.854C15.625 122.472 14.2871 119.242 14.2871 115.874V26.9855C14.2871 23.6177 15.625 20.3878 18.0064 18.0064C20.3878 15.625 23.6177 14.2871 26.9855 14.2871H115.874C119.078 14.2861 122.164 15.496 124.513 17.6744C126.862 19.8527 128.301 22.8385 128.541 26.0331L128.573 26.9855V115.874ZM52.3824 96.8268H26.9855V115.874H52.3824V96.8268ZM84.1284 96.8268H58.7316V115.874H84.1284V96.8268ZM115.874 96.8268H90.4776V115.874H115.874V96.8268ZM52.3824 71.43H26.9855V90.4776H52.3824V71.43ZM84.1284 71.43H58.7316V90.4776H84.1284V71.43ZM115.874 71.43H90.4776V90.4776H115.874V71.43ZM52.3824 46.0331H26.9855V65.0808H52.3824V46.0331ZM84.1284 46.0331H58.7316V65.0808H84.1284V46.0331ZM115.874 46.0331H90.4776V65.0808H115.874V46.0331Z" fill="#126EE3"/>
</svg>
