<svg width="200" height="200" viewBox="0 0 200 200" fill="none" xmlns="http://www.w3.org/2000/svg">
<path d="M192.966 152.715H161.359V121.279H152.965V152.715H121.357V161.109H152.965V192.888H161.359V161.109H192.966V152.715Z" fill="#126EE3"/>
<path d="M129.874 84.1883V142.857H49.2901V140.162L14.2901 94.4156C11.6602 89.3831 13.0238 81.6559 18.5758 80.552C23.3485 79.6104 35.0693 79.6429 44.1927 99.8377L49.2901 108.182V38.2793C49.2901 35.696 50.3163 33.2185 52.1429 31.3919C53.9696 29.5652 56.447 28.539 59.0303 28.539C61.6136 28.539 64.0911 29.5652 65.9177 31.3919C67.7444 33.2185 68.7706 35.696 68.7706 38.2793V82.0779C68.7706 79.4947 69.7968 77.0172 71.6234 75.1905C73.4501 73.3639 75.9275 72.3377 78.5108 72.3377C79.7899 72.3377 81.0565 72.5896 82.2383 73.0791C83.42 73.5686 84.4938 74.2861 85.3982 75.1905C86.3027 76.095 87.0202 77.1688 87.5096 78.3505C87.9991 79.5323 88.2511 80.7988 88.2511 82.0779C88.2511 79.4947 89.2773 77.0172 91.1039 75.1905C92.9306 73.3639 95.4081 72.3377 97.9913 72.3377C100.575 72.3377 103.052 73.3639 104.879 75.1905C106.705 77.0172 107.732 79.4947 107.732 82.0779C107.732 76.6559 113.608 72.3377 118.998 72.3377C121.675 72.3056 124.263 73.2952 126.236 75.1049C128.208 76.9146 129.417 79.4083 129.615 82.0779V84.1883H129.874ZM59.0303 5.96852e-05C51.1876 0.000244144 43.5779 2.66658 37.4501 7.56144C31.3224 12.4563 27.0407 19.2889 25.3078 26.9378C23.575 34.5867 24.4938 42.5975 27.9136 49.6554C31.3333 56.7133 37.0508 62.399 44.1277 65.7793V56.4611C39.424 53.2713 35.8708 48.6535 33.9926 43.2896C32.1143 37.9257 32.0108 32.1 33.6971 26.6727C35.3835 21.2454 38.7704 16.5043 43.3577 13.1493C47.945 9.79439 53.4896 8.00348 59.1727 8.04108C64.8558 8.07867 70.3762 9.94277 74.9187 13.3581C79.4613 16.7735 82.7851 21.559 84.3995 27.0081C86.0139 32.4573 85.8333 38.2811 83.8843 43.6197C81.9353 48.9583 78.3212 53.5286 73.5758 56.6559V65.9091C80.7296 62.606 86.5393 56.9565 90.0411 49.8978C93.5429 42.839 94.5263 34.7952 92.8282 27.1008C91.1301 19.4063 86.8526 12.5235 80.7052 7.59426C74.5578 2.66498 66.9099 -0.0145818 59.0303 5.96852e-05Z" fill="#126EE3"/>
</svg>
