<svg width="200" height="200" viewBox="0 0 200 200" fill="none" xmlns="http://www.w3.org/2000/svg">
<path d="M29.9121 28.2751C33.321 24.8559 38.4593 24.0508 42.7031 26.158L43.8361 26.8041L67.4601 42.3593C70.064 44.0689 71.8132 46.8022 72.33 49.8537L72.4791 51.1756L72.9462 60.7473L83.2227 71.7503C84.0166 72.6019 84.4863 73.7052 84.5499 74.8678C84.6134 76.0304 84.2669 77.1784 83.5705 78.1115L82.9742 78.7775C82.1239 79.5729 81.0213 80.0444 79.8588 80.1098C78.6963 80.1752 77.5477 79.8303 76.6135 79.1353L75.9477 78.5389L64.7767 66.542C63.97 65.7436 63.4198 64.7227 63.1964 63.6099L63.0971 62.7749L62.5604 51.6726C62.5465 51.3984 62.4494 51.1349 62.2821 50.9172L61.9939 50.6587L38.3997 35.1234C38.2375 35.0178 38.0513 34.9552 37.8583 34.9413C37.6654 34.9274 37.4721 34.9627 37.2965 35.0439L36.9784 35.2625L25.3006 47.1302C25.1459 47.2934 25.0334 47.4918 24.9727 47.7084C24.9121 47.9249 24.9053 48.1529 24.9527 48.3727L25.1217 48.7901L40.4271 72.784C40.559 72.9966 40.7534 73.1633 40.9837 73.2611L41.3315 73.3406L52.2839 73.8872C53.3532 73.9464 54.3853 74.3007 55.2654 74.911L67.7384 85.8742C68.6719 86.6932 69.2649 87.832 69.4007 89.0664C69.5366 90.3009 69.2054 91.5414 68.4723 92.5438C67.7393 93.5462 66.6576 94.2379 65.4401 94.4825C64.2227 94.7271 62.9578 94.507 61.8945 93.8655L61.169 93.3288L50.2962 83.7472L40.8147 83.2701C39.2765 83.187 37.7725 82.7844 36.3984 82.0879C35.0244 81.3914 33.8105 80.4163 32.834 79.2247L32.039 78.1314L16.7435 54.1177C15.5067 52.1542 14.9026 49.8582 15.0128 47.5402C15.123 45.2222 15.9422 42.9939 17.3597 41.1566L18.2044 40.1826L29.932 28.2652L29.9121 28.2751ZM119.021 115.931C119.838 115.104 120.919 114.59 122.075 114.477C123.232 114.365 124.392 114.661 125.352 115.315L126.048 115.881L128.582 118.396L128.831 118.177C130.665 116.378 133.087 115.3 135.652 115.141C138.216 114.983 140.752 115.753 142.795 117.313L143.798 118.177L170.881 144.944C174.747 148.781 175.016 154.834 171.706 158.989L170.871 159.913L149.622 180.915C147.804 182.72 145.394 183.807 142.838 183.977C140.282 184.146 137.75 183.388 135.708 181.84L134.635 180.925L107.562 154.158C105.709 152.328 104.601 149.875 104.454 147.274C104.307 144.674 105.132 142.111 106.767 140.084L107.701 139.05L106.539 137.897C105.709 137.08 105.193 135.997 105.081 134.838C104.968 133.679 105.266 132.518 105.922 131.556L106.499 130.86C107.317 130.035 108.398 129.522 109.555 129.411C110.711 129.301 111.87 129.599 112.83 130.254L113.525 130.82L118.266 135.512C119.101 136.335 119.618 137.427 119.725 138.595C119.832 139.763 119.523 140.931 118.853 141.893L118.266 142.589L114.549 146.266C114.492 146.318 114.447 146.381 114.416 146.451C114.386 146.521 114.37 146.597 114.37 146.674L114.41 146.902L114.549 147.101L141.622 173.848C141.751 173.977 141.92 174.047 142.139 174.047L142.407 173.997L142.636 173.848L163.884 152.846C163.958 152.774 164.011 152.683 164.039 152.584C164.066 152.485 164.068 152.38 164.043 152.28L163.884 152.011L136.822 125.254C136.73 125.168 136.618 125.107 136.497 125.076C136.375 125.044 136.247 125.044 136.126 125.075L135.808 125.254L132.091 128.932C131.269 129.742 130.19 130.241 129.04 130.342C127.89 130.444 126.741 130.142 125.79 129.489L125.094 128.922L119.061 122.958C118.124 122.032 117.594 120.771 117.586 119.453C117.579 118.135 118.095 116.868 119.021 115.931Z" fill="black"/>
<path d="M138.664 15.0001C132.724 14.9904 126.841 16.1553 121.353 18.4278C115.865 20.7003 110.881 24.0356 106.686 28.2417L105.096 29.9218C99.3479 36.2953 95.529 44.171 94.0842 52.6315C92.6394 61.0919 93.628 69.7888 96.935 77.709L97.1835 78.2856L20.7537 148.649C13.1893 155.25 13.0601 167.08 20.5052 174.526L24.4813 178.503C27.8609 181.982 32.5527 183.97 37.4532 184L39.1132 183.92C43.4868 183.523 47.5126 181.505 50.4449 178.155L120.712 101.796L122.282 102.463C130.478 105.658 139.426 106.398 148.034 104.592C156.643 102.786 164.54 98.5121 170.76 92.2927C177.153 85.8957 181.481 77.7297 183.187 68.8484C184.894 59.967 183.899 50.7781 180.333 42.4675C179.668 40.922 178.561 39.6075 177.152 38.6895C175.742 37.7715 174.093 37.2908 172.41 37.3081L171.307 37.3876C169.44 37.6405 167.708 38.4997 166.377 39.8331L148.832 57.3793L141.626 50.1719L159.16 32.6357C160.151 31.6443 160.885 30.4257 161.299 29.086C161.712 27.7463 161.792 26.3259 161.531 24.9484C161.27 23.5708 160.677 22.2777 159.803 21.1815C158.929 20.0854 157.801 19.2192 156.516 18.6584C150.873 16.2455 144.8 15.001 138.664 15.0001ZM138.664 24.9412L141.049 25.0208C144.23 25.2395 147.371 25.8757 150.383 26.9295L150.681 27.0488L132.183 45.5592C131.577 46.1648 131.096 46.8839 130.768 47.6754C130.44 48.4669 130.271 49.3152 130.271 50.1719C130.271 51.0287 130.44 51.877 130.768 52.6685C131.096 53.4599 131.577 54.179 132.183 54.7846L144.22 66.8333C145.44 68.0574 147.095 68.7474 148.822 68.752L149.856 68.6625C151.214 68.446 152.468 67.8017 153.435 66.8234L171.963 48.303L172.659 50.4105C174.199 55.6736 174.491 61.2232 173.513 66.6191C172.534 72.0149 170.312 77.1084 167.022 81.4956C163.733 85.8828 159.466 89.4428 154.56 91.8934C149.655 94.3439 144.246 95.6175 138.763 95.613C132.88 95.6182 127.089 94.1558 121.915 91.3582L118.515 89.5191L43.0395 171.524C42.3571 172.324 41.508 172.966 40.5516 173.404C39.5952 173.842 38.5547 174.065 37.5029 174.059C36.3918 174.047 35.2941 173.816 34.2724 173.379C33.2507 172.943 32.3251 172.309 31.5487 171.514L27.5429 167.498C24.0936 164.048 24.1533 158.889 27.3938 156.065L109.499 80.4925L107.65 77.0827C104.027 70.3873 102.662 62.701 103.759 55.1674C104.855 47.6338 108.353 40.6553 113.734 35.2701C119.81 29.1721 127.914 25.5178 136.507 25.0009L138.664 24.9412Z" fill="black"/>
</svg>
