<svg width="15" height="15" viewBox="0 0 15 15" fill="none" xmlns="http://www.w3.org/2000/svg">
<path d="M7.49998 10.6245C6.21238 10.6245 5.15037 9.64746 5.01414 8.39502C4.99803 8.23975 4.8618 8.12402 4.70653 8.12402C4.51903 8.12402 4.37401 8.28809 4.39451 8.47412C4.56883 10.0371 5.89305 11.25 7.49998 11.25C9.10692 11.25 10.4311 10.0371 10.6055 8.47559C10.626 8.28955 10.4809 8.12549 10.2934 8.12549C10.1367 8.12549 10.0019 8.24121 9.98582 8.39648C9.84959 9.64746 8.78758 10.6245 7.49998 10.6245Z" fill="currentColor" fill-opacity="0.85"/>
<path d="M4.70605 8.07422C4.88532 8.07422 5.04444 8.20752 5.06348 8.38965L5.09961 8.61621C5.32853 9.73282 6.31706 10.5742 7.5 10.5742C8.76176 10.5742 9.80302 9.61654 9.93652 8.39062C9.95575 8.20905 10.1124 8.07543 10.293 8.0752C10.5106 8.0752 10.679 8.26619 10.6553 8.48145C10.478 10.0679 9.13257 11.2998 7.5 11.2998C5.86731 11.2998 4.52183 10.0675 4.34473 8.47949C4.32109 8.26444 4.48865 8.07449 4.70605 8.07422Z" stroke="currentColor" stroke-opacity="0.85" stroke-width="0.1"/>
<path d="M12.8056 11.25C12.6079 11.25 12.4585 11.4272 12.4922 11.6221L12.7383 13.0737C12.7705 13.2642 12.6211 13.437 12.4233 13.437H2.57518C2.37889 13.437 2.22801 13.2642 2.26024 13.0737L3.53319 5.57812C3.55955 5.42432 3.69286 5.31152 3.84813 5.31152H11.1562C11.3086 5.31152 11.4404 5.42139 11.4653 5.57227L12.1728 9.73389C12.1992 9.88623 12.331 9.99902 12.4863 9.99902C12.6841 9.99902 12.8335 9.82178 12.7998 9.62695L12.0498 5.20898C11.9985 4.90723 11.7334 4.68604 11.4214 4.68604H10.0488V3.43652C10.0488 2.05664 8.9077 0.9375 7.49998 0.9375C6.09227 0.9375 4.95116 2.05664 4.95116 3.43799V4.6875H3.58006C3.26805 4.6875 3.00291 4.90869 2.95164 5.21045L1.57176 13.3359C1.50731 13.7168 1.80614 14.064 2.20018 14.064H12.8013C13.1953 14.064 13.4941 13.7168 13.4297 13.3359L13.1206 11.5166C13.0942 11.3613 12.9609 11.25 12.8056 11.25ZM5.58836 3.43799C5.58836 2.40381 6.4453 1.56299 7.49998 1.56299C8.55467 1.56299 9.41161 2.40381 9.41161 3.43799V4.6875H5.58836V3.43799Z" fill="currentColor" fill-opacity="0.85"/>
<path d="M7.49951 0.887695C8.93391 0.887695 10.0991 2.02811 10.0991 3.43652V4.63574H11.4214C11.757 4.63575 12.0435 4.87402 12.0991 5.2002L12.8491 9.61816C12.8881 9.8436 12.7146 10.0488 12.4858 10.0488C12.3061 10.0486 12.154 9.918 12.1235 9.74219L11.4165 5.58105L11.4155 5.58008C11.3945 5.45395 11.2839 5.36133 11.1558 5.36133H3.84814C3.71739 5.36133 3.6048 5.45695 3.58252 5.58691L2.30908 13.082C2.2823 13.2404 2.40818 13.3864 2.57471 13.3867H12.4233C12.5914 13.3867 12.7158 13.2407 12.689 13.082L12.4429 11.6309C12.4039 11.4056 12.5767 11.2005 12.8052 11.2002C12.9846 11.2002 13.1388 11.3287 13.1694 11.5078L13.479 13.3271C13.5488 13.7395 13.2252 14.1142 12.8013 14.1143H2.19971C1.77599 14.114 1.45319 13.7394 1.52295 13.3271L2.90283 5.20215C2.95826 4.87592 3.244 4.63792 3.57959 4.6377H4.90088V3.43848C4.90088 2.02877 6.06531 0.887946 7.49951 0.887695ZM7.49951 1.61328C6.47174 1.61353 5.63818 2.43297 5.63818 3.43848V4.6377H9.36182V3.43848C9.36182 2.43281 8.5275 1.61328 7.49951 1.61328Z" stroke="currentColor" stroke-opacity="0.85" stroke-width="0.1"/>
</svg>
