<svg width="200" height="200" viewBox="0 0 200 200" fill="none" xmlns="http://www.w3.org/2000/svg">
<path d="M167.101 137.524C171.583 137.524 175.882 139.304 179.052 142.474C182.222 145.644 184.001 149.943 184.001 154.425V167.1C184.001 176.433 176.434 184 167.101 184H31.9004C22.5667 184 15 176.433 15 167.1V154.425C15 149.943 16.7798 145.644 19.9492 142.474C23.1186 139.304 27.4183 137.524 31.9004 137.524H167.101ZM31.9014 147.666C28.4937 147.666 25.5676 150.2 25.1416 153.581V167.101C25.1416 170.508 27.6758 173.434 31.0566 173.86H167.103C170.51 173.86 173.436 171.326 173.862 167.945V154.426C173.862 151.018 171.328 148.092 167.947 147.666H31.9014ZM65.6924 156.539C67.8807 156.539 69.7192 158.222 69.917 160.402C70.1147 162.582 68.5695 164.479 66.416 164.869L65.6924 164.989H44.5674C42.379 164.989 40.5396 163.307 40.3418 161.127C40.1441 158.947 41.6893 157.05 43.8428 156.66L44.5674 156.539H65.6924ZM167.101 76.2627C176.434 76.2627 184.001 83.8294 184.001 93.1631V105.838C184.001 115.172 176.434 122.738 167.101 122.738H31.9004C22.5667 122.738 15 115.172 15 105.838V93.1631C15 83.8294 22.5667 76.2627 31.9004 76.2627H167.101ZM31.9014 86.4033C28.4937 86.4033 25.5676 88.9375 25.1416 92.3184V105.838C25.1416 109.246 27.6758 112.173 31.0566 112.599H167.103C170.51 112.598 173.436 110.064 173.862 106.684V93.1631C173.862 89.7555 171.328 86.8294 167.947 86.4033H31.9014ZM65.6924 95.2754C67.8807 95.2755 69.7193 96.9592 69.917 99.1387C70.1145 101.318 68.5693 103.215 66.416 103.604L65.6924 103.726H44.5674C42.3789 103.726 40.5395 102.042 40.3418 99.8623C40.1442 97.6829 41.6895 95.7864 43.8428 95.3965L44.5674 95.2754H65.6924ZM167.101 15C176.434 15 184.001 22.5667 184.001 31.9004V44.5752C184.001 49.0573 182.222 53.357 179.052 56.5264C175.882 59.6956 171.583 61.4756 167.101 61.4756H31.9004C27.4183 61.4756 23.1186 59.6956 19.9492 56.5264C16.7798 53.357 15 49.0573 15 44.5752V31.9004C15 22.5667 22.5667 15 31.9004 15H167.101ZM31.9014 25.1377C28.4937 25.1377 25.5676 27.6719 25.1416 31.0527V44.5732C25.1418 47.9808 27.6759 50.907 31.0566 51.333H167.103C170.51 51.3328 173.436 48.7987 173.862 45.418V31.8975C173.862 28.49 171.328 25.5637 167.947 25.1377H31.9014ZM65.6924 34.0127C67.8807 34.0128 69.7193 35.6965 69.917 37.876C70.1146 40.0554 68.5694 41.9519 66.416 42.3418L65.6924 42.4629H44.5674C42.3789 42.4629 40.5395 40.7791 40.3418 38.5996C40.1443 36.4203 41.6895 34.5237 43.8428 34.1338L44.5674 34.0127H65.6924Z" fill="black"/>
<path fill-rule="evenodd" clip-rule="evenodd" d="M75.4345 73C73.1419 73.0043 71.2255 71.228 71.0183 68.9066C70.8112 66.5852 72.3818 64.4873 74.6378 64.072L75.4345 64H97.5655C99.8581 63.9957 101.775 65.772 101.982 68.0934C102.189 70.4148 100.618 72.5127 98.3622 72.928L97.5655 73H75.4345Z" fill="black"/>
<path fill-rule="evenodd" clip-rule="evenodd" d="M113.435 135C111.142 135.004 109.225 133.228 109.018 130.907C108.811 128.585 110.382 126.487 112.638 126.072L113.435 126H135.565C137.858 125.996 139.775 127.772 139.982 130.093C140.189 132.415 138.618 134.513 136.362 134.928L135.565 135H113.435Z" fill="black"/>
</svg>
