<svg width="200" height="200" viewBox="0 0 200 200" fill="none" xmlns="http://www.w3.org/2000/svg">
<path d="M98.8084 184C83.7098 184 68.9564 179.691 56.1874 171.676C54.8069 170.987 53.8579 169.78 53.4265 168.401C52.9951 167.022 53.1677 165.557 53.7716 164.265C54.7207 162.455 56.6188 161.335 58.6031 161.335C59.4659 161.335 60.3287 161.507 61.1915 161.938C61.4503 162.024 61.7091 162.196 61.8817 162.369C73.0115 169.177 85.7805 172.71 98.7221 172.71C111.664 172.71 124.433 169.177 135.476 162.455C136.253 162.024 137.202 161.765 138.151 161.765C140.135 161.765 141.947 162.8 142.896 164.523C144.277 167.022 143.586 170.125 141.171 171.676C128.488 179.777 113.821 184 98.8084 184ZM162.999 169.349C156.442 169.349 150.23 166.419 146.088 161.421C141.257 155.56 139.79 147.804 142.12 140.565L142.292 139.962L125.209 127.81L124.692 128.414C118.393 136.17 108.989 140.565 98.9809 140.565C91.3885 140.565 83.9687 137.893 78.0155 133.067C76.29 131.688 74.737 130.137 73.3566 128.414L72.8389 127.81L55.756 139.962L55.9285 140.565C57.6541 145.994 57.2227 151.855 54.5481 156.939C51.9598 162.024 47.4734 165.816 42.0379 167.54C39.881 168.229 37.724 168.574 35.4808 168.574C26.1629 168.574 17.9665 162.627 15.0331 153.664C11.4095 142.461 17.6214 130.31 28.9238 126.776C31.0807 126.087 33.2376 125.742 35.4808 125.742C40.3986 125.742 45.2302 127.466 49.0264 130.568L49.544 130.999L67.576 118.158L67.4034 117.555C64.7288 109.109 65.5053 100.146 69.5604 92.3039C73.6154 84.4615 80.5176 78.6874 88.9728 76.0158C90.2669 75.5849 91.5611 75.2402 92.8552 75.0678L93.5455 74.8955V56.8837L92.9415 56.7114C81.7255 53.3503 75.2547 41.4574 78.6195 30.254C81.2941 21.2912 89.7493 15 99.0672 15C101.138 15 103.209 15.2585 105.193 15.8618C110.628 17.4992 115.115 21.1188 117.876 26.1173C120.55 31.1158 121.154 36.8899 119.515 42.3192C117.444 49.2137 112.095 54.5569 105.193 56.6252L104.589 56.7976V74.8093L105.279 74.9816C120.895 77.9118 132.198 91.6145 132.198 107.472C132.198 110.919 131.68 114.28 130.645 117.555L130.472 118.158L148.504 130.999L149.022 130.568C152.991 127.293 157.908 125.483 162.999 125.483C169.556 125.483 175.768 128.414 179.909 133.412C183.619 137.893 185.431 143.581 184.913 149.442C184.395 155.302 181.548 160.559 177.062 164.265C173.007 167.54 168.089 169.349 162.999 169.349ZM162.308 136.601C156.614 136.601 151.955 141.254 151.955 146.942C151.955 152.63 156.614 157.284 162.308 157.284C168.003 157.284 172.662 152.63 172.662 146.942C172.662 141.254 168.003 136.601 162.308 136.601ZM35.7397 136.601C30.0454 136.601 25.3864 141.254 25.3864 146.942C25.3864 152.63 30.0454 157.284 35.7397 157.284C41.434 157.284 46.0929 152.63 46.0929 146.942C46.0929 141.254 41.434 136.601 35.7397 136.601ZM98.9809 85.3233C86.7295 85.3233 76.8077 95.2341 76.8077 107.472C76.8077 119.709 86.7295 129.62 98.9809 129.62C111.232 129.62 121.154 119.709 121.154 107.472C121.154 95.2341 111.232 85.3233 98.9809 85.3233ZM98.9809 26.0311C93.2866 26.0311 88.6276 30.6849 88.6276 36.3728C88.6276 42.0607 93.2866 46.7144 98.9809 46.7144C104.675 46.7144 109.334 42.0607 109.334 36.3728C109.334 30.6849 104.762 26.0311 98.9809 26.0311ZM174.128 109.023C171.109 109.023 168.693 106.61 168.693 103.594C168.779 79.5492 156.096 56.8837 135.562 44.3014C134.268 43.6119 133.319 42.4054 132.974 41.0265C132.543 39.6476 132.715 38.1826 133.492 36.8899C134.441 35.1662 136.253 34.1321 138.237 34.1321C139.186 34.1321 140.049 34.3906 140.912 34.8215C141.084 34.9077 141.171 34.9939 141.343 35.0801C165.156 49.5584 179.823 75.8434 179.736 103.68C179.65 106.524 177.148 109.023 174.128 109.023ZM23.9197 109.023C20.9 109.023 18.4842 106.61 18.4842 103.594C18.4842 76.2743 32.116 51.1096 55.0658 36.2004C55.9285 35.5971 56.9639 35.3386 58.0855 35.3386C59.8973 35.3386 61.6229 36.2866 62.6582 37.8378C63.4347 39.0444 63.7798 40.5094 63.4347 41.9745C63.1758 43.4396 62.3131 44.6461 61.1052 45.4217C41.2614 58.2626 29.4414 80.0663 29.4414 103.68C29.3551 106.524 26.9394 109.023 23.9197 109.023Z" fill="black"/>
</svg>
