<svg width="14" height="14" viewBox="0 0 14 14" fill="none" xmlns="http://www.w3.org/2000/svg">
<path d="M10.2451 0C10.7535 7.68137e-05 11.2571 0.102846 11.7246 0.302734C11.9407 0.397075 12.0958 0.592568 12.1396 0.824219C12.1835 1.05589 12.1101 1.2942 11.9434 1.46094L10.4902 2.91406L11.0879 3.51074L12.541 2.05762C12.6513 1.94716 12.7955 1.87545 12.9502 1.85449L13.041 1.84766C13.3259 1.84474 13.5847 2.01367 13.6973 2.27539C14.3018 3.68396 13.9878 5.3191 12.9043 6.40332C11.8512 7.45588 10.2749 7.78593 8.8877 7.24512L8.75781 7.19043L2.93652 13.5156C2.69368 13.793 2.36023 13.9601 1.99805 13.9932L1.86035 14C1.45438 13.9975 1.06515 13.8331 0.785156 13.5449L0.456055 13.2148C-0.160633 12.598 -0.150098 11.6181 0.476562 11.0713L6.80859 5.24219L6.78809 5.19531C6.22889 3.85616 6.49202 2.31405 7.46387 1.23633L7.5957 1.09668C8.29752 0.392966 9.25126 -0.00157471 10.2451 0ZM8.62109 8.3584C8.76062 8.21714 8.98127 8.19515 9.14551 8.30664L9.20312 8.35352L9.41309 8.5625L9.43457 8.54395C9.74879 8.23609 10.2411 8.20578 10.5908 8.47266L10.6748 8.54395L12.918 10.7617C13.2383 11.0796 13.2606 11.5815 12.9863 11.9258L12.918 12.002L11.1572 13.7422C10.8456 14.0513 10.3537 14.0835 10.0039 13.8184L9.91504 13.7432L7.67188 11.5254C7.35379 11.2114 7.32496 10.7073 7.60547 10.3594L7.68359 10.2734L7.58691 10.1777C7.44523 10.038 7.42392 9.81674 7.53613 9.65234L7.58398 9.59473C7.72385 9.45389 7.94443 9.433 8.1084 9.54492L8.16602 9.5918L8.55859 9.98047C8.70133 10.1213 8.72197 10.3443 8.60742 10.5088L8.55859 10.5664L8.25098 10.8711C8.24147 10.8797 8.23626 10.8924 8.23633 10.9053L8.23926 10.9238L8.25098 10.9404L10.4941 13.1562C10.5048 13.167 10.519 13.1729 10.5371 13.1729L10.5586 13.1689L10.5781 13.1562L12.3389 11.417C12.3511 11.4048 12.3556 11.3869 12.3516 11.3701L12.3389 11.3477L10.0967 9.13086C10.0813 9.11637 10.0586 9.10998 10.0381 9.11523L10.0127 9.13086L9.7041 9.43555C9.56357 9.57379 9.34416 9.59307 9.18164 9.48145L9.12402 9.43457L8.625 8.94043C8.46344 8.78064 8.46154 8.52012 8.62109 8.3584ZM10.0664 0.828125C9.35464 0.870974 8.68306 1.17368 8.17969 1.67871C7.26434 2.59474 7.05959 4.00362 7.67578 5.14258L7.8291 5.42578L1.02637 11.6855C0.757929 11.9194 0.753361 12.3471 1.03906 12.6328L1.37109 12.9658C1.50099 13.0987 1.67843 13.1748 1.86426 13.1768C2.04062 13.1778 2.20882 13.101 2.32324 12.9668L8.57617 6.17285L8.85742 6.3252C9.28616 6.55695 9.76654 6.67816 10.2539 6.67773C11.1747 6.67836 12.0422 6.24544 12.5947 5.50879C13.1473 4.77194 13.3202 3.81757 13.0615 2.93359L13.0039 2.75879L11.4688 4.29297C11.3887 4.37389 11.2852 4.42734 11.1729 4.44531L11.0869 4.45312C10.9439 4.45275 10.8071 4.39519 10.7061 4.29395L9.70801 3.2959C9.60678 3.19468 9.54991 3.0572 9.5498 2.91406C9.5498 2.77074 9.60663 2.63257 9.70801 2.53125L11.2412 0.998047L11.2158 0.988281C10.9665 0.901106 10.7066 0.848216 10.4434 0.830078L10.2451 0.823242L10.0664 0.828125ZM1.2373 1.0957C1.51978 0.812409 1.9462 0.745334 2.29785 0.919922L2.3916 0.973633L4.34863 2.2627C4.56423 2.40427 4.70904 2.63019 4.75195 2.88281L4.76465 2.99316L4.80371 3.78613L5.65527 4.69727C5.79095 4.84288 5.80264 5.06509 5.68359 5.22461L5.63477 5.2793C5.48942 5.41525 5.26715 5.42824 5.10742 5.30957L5.05176 5.25977L4.12598 4.26562C4.05943 4.19962 4.01364 4.11532 3.99512 4.02344L3.9873 3.9541L3.94238 3.03418C3.94124 3.01159 3.93364 2.98965 3.91992 2.97168L3.89551 2.9502L1.94043 1.66309C1.91318 1.64539 1.87912 1.64266 1.84961 1.65625L1.82324 1.67383L0.855469 2.65723C0.829445 2.68467 0.818184 2.72377 0.826172 2.76074L0.84082 2.79492L2.1084 4.7832C2.11932 4.80082 2.13619 4.81416 2.15527 4.82227L2.18359 4.8291L3.09082 4.87402C3.17925 4.87891 3.26506 4.90861 3.33789 4.95898L4.37207 5.86719C4.53234 6.00779 4.55836 6.24778 4.43262 6.41992C4.30671 6.59208 4.07032 6.63946 3.8877 6.5293L3.82715 6.48535L2.92676 5.69141L2.14062 5.65234C1.88301 5.63836 1.64302 5.51596 1.47949 5.31641L1.41406 5.22656L0.146484 3.23633C-0.0633171 2.90323 -0.0430398 2.47486 0.197266 2.16309L0.267578 2.08203L1.23926 1.09473L1.2373 1.0957Z" fill="currentColor"/>
</svg>
