<?xml version="1.0" standalone="no"?><!DOCTYPE svg PUBLIC "-//W3C//DTD SVG 1.1//EN" "http://www.w3.org/Graphics/SVG/1.1/DTD/svg11.dtd"><svg t="1758180762381" class="icon" viewBox="0 0 1024 1024" version="1.1" xmlns="http://www.w3.org/2000/svg" p-id="18659" id="mx_n_1758180762381" xmlns:xlink="http://www.w3.org/1999/xlink" width="16" height="16"><path d="M870.528 512.18944a367.73376 367.73376 0 0 0 10.05056-13.696c57.344-80.64 71.48544-155.264 39.99744-210.10944-31.54944-54.85056-103.22944-79.93856-201.78944-70.912-5.76 0.512-11.45856 1.28-17.28 1.92-2.24256-5.44256-4.67456-10.752-6.912-16C653.312 113.59744 595.65056 64 532.41856 64c-63.232 0-120.77056 49.664-162.048 139.52-2.37056 5.12-4.608 10.43456-6.85056 15.744-5.7088-0.7168-11.42272-1.3312-17.152-1.85856-98.432-9.27744-170.24 15.872-201.728 70.656-31.616 54.85056-17.46944 129.408 39.74656 210.176 3.2 4.48512 6.656 9.09312 10.04544 13.568A465.7664 465.7664 0 0 0 184.32 525.51168c-57.216 80.64-71.48544 155.264-39.86944 210.10944 27.32544 47.488 84.736 72.704 163.51744 72.704 12.35456 0 25.088-0.64 38.20544-1.792 5.76512-0.512 11.45856-1.28 17.28512-1.92 2.23744 5.43744 4.54144 10.752 6.912 16 41.14944 89.856 98.816 139.392 162.10944 139.392 63.36 0 120.832-49.536 162.176-139.45856 2.37056-5.12 4.608-10.42944 6.912-15.73888 18.432 2.42688 36.992 3.70688 55.61856 3.77344 78.72 0 135.936-25.216 163.328-72.448 31.616-54.85056 17.46944-129.408-39.74656-210.10944a444.3136 444.3136 0 0 0-10.112-13.82912h-0.128zM340.93056 749.44c-73.92256 6.84544-127.488-8.704-146.944-42.496-19.52256-33.85856-6.08256-87.936 36.992-148.41344l1.536-2.05312c25.53344 27.07456 54.71744 53.44256 87.04 78.40256 5.43744 40.32 13.62944 78.72 24.32 114.24256l-2.944 0.31744z m-28.48256-194.75456a647.936 647.936 0 0 1-43.392-42.81344 610.69312 610.69312 0 0 1 43.392-42.752 984.07424 984.07424 0 0 0 0 85.56544z m7.23456-165.75488c-32.32256 24.96-61.568 51.26144-87.04 78.26944-0.512-0.64-1.152-1.408-1.536-2.048-42.94656-60.672-56.38656-114.816-36.93056-148.48 16.45056-28.544 57.088-44.032 113.792-44.032 10.496 0 21.632 0.512 33.152 1.664l2.816 0.256a749.68064 749.68064 0 0 0-24.32 114.37056h0.06656z m359.68-46.40256a999.17824 999.17824 0 0 0-73.6-42.496c19.84-6.4 39.22944-11.776 58.24-16a642.06848 642.06848 0 0 1 15.36 58.496z m-146.816-221.184c38.784 0 79.67744 40.064 110.976 108.928-35.968 8.51456-73.216 20.54144-110.78656 35.968a747.0592 747.0592 0 0 0-110.976-36.224C452.736 161.28 493.824 121.344 532.48 121.344h0.06656zM401.024 283.96544c19.00544 4.224 38.58944 9.53856 58.42944 16.06656a991.49824 991.49824 0 0 0-73.78944 42.43456c4.48-20.67456 9.53344-40.25856 15.36-58.50112z m-15.36 397.44512a1013.3504 1013.3504 0 0 0 73.6 42.496c-19.84 6.4-39.296 11.776-58.24 16a609.5872 609.5872 0 0 1-15.36-58.496z m146.88256 221.37344c-38.72256 0-79.74912-40.064-111.04256-108.928a752.55296 752.55296 0 0 0 110.91456-35.968c37.56544 15.488 74.88 27.58144 110.976 36.15744-31.232 68.67456-72.25856 108.73856-110.91456 108.73856h0.06656z m131.38944-162.75456a597.20704 597.20704 0 0 1-58.42944-16.06144 994.2016 994.2016 0 0 0 73.856-42.42944c-4.48 20.66944-9.6 40.25344-15.42656 58.49088z m27.58656-135.99744a874.15808 874.15808 0 0 1-159.17056 91.648 871.44448 871.44448 0 0 1-158.976-91.83744A865.26976 865.26976 0 0 1 368.64 512c0-32.18944 1.664-62.90944 4.80256-92.032a874.10688 874.10688 0 0 1 159.16544-91.648 870.89152 870.89152 0 0 1 158.91456 91.84256 867.75296 867.75296 0 0 1 0 183.808v0.06144z m32.57344-329.53344c11.45856-1.09056 22.46656-1.536 32.896-1.536 56.832 0 97.60256 15.42144 114.11456 44.032 19.38944 33.85344 5.94944 87.936-37.12 148.41344l-1.47456 2.048a743.45472 743.45472 0 0 0-87.04-78.40256c-5.12-38.656-13.24544-76.8-24.32-114.23744l2.944-0.32256zM752.64 469.37088c15.488 14.08 30.08 28.35456 43.33056 42.81344a625.16224 625.16224 0 0 1-43.392 42.69056c1.42336-28.48256 1.42336-57.02144 0-85.504H752.64z m118.21056 238.01856c-19.456 33.92-73.088 49.21344-146.944 42.24l-2.816-0.26112a748.61568 748.61568 0 0 0 24.32-114.23744c30.976-23.808 60.09344-49.92 87.04-78.336l1.46944 2.11456c43.07456 60.544 56.448 114.62144 36.93056 148.48z" p-id="18660"></path></svg>