<svg width="24" height="24" viewBox="0 0 24 24" fill="none" xmlns="http://www.w3.org/2000/svg">
<path d="M16.3085 14.2129L17.9286 11.3828H18.9989L16.8485 15.1523L18.9989 18.9229H17.9286L16.3085 16.0928L14.6991 18.9229H13.6191L15.7685 15.1523L13.6191 11.3828H14.6991L16.3085 14.2129ZM12.1728 7.69043H11.0927V7.08008H6.08292L8.59269 11.6797C8.85865 12.1612 8.85865 12.749 8.59269 13.2305L6.09269 17.8301V17.8398H11.0927V17.0596H12.1728V18.9199H6.09269C5.71077 18.9199 5.3574 18.7183 5.163 18.3896C4.96686 18.0619 4.9591 17.6553 5.14249 17.3203L7.65226 12.7197C7.73875 12.5587 7.73877 12.3612 7.65226 12.2002L5.13273 7.59961C4.94927 7.26581 4.95619 6.85681 5.15226 6.53027C5.34551 6.20088 5.70104 6 6.08292 6H12.1728V7.69043Z" fill="black"/>
</svg>
