<svg width="1em" height="1em" viewBox="0 0 32 32" fill="none" xmlns="http://www.w3.org/2000/svg">
<g clip-path="url(#clip0_10_1773)">
<path d="M15.9583 0.25C7.28275 0.25 0.25 7.28275 0.25 15.9583C0.25 24.6338 7.28275 31.6667 15.9583 31.6667C24.6338 31.6667 31.6667 24.6335 31.6667 15.9583C31.6667 7.28275 24.6338 0.25 15.9583 0.25ZM15.9545 20.6047C15.7243 20.6075 15.4959 20.5646 15.2824 20.4784C15.069 20.3922 14.8748 20.2645 14.711 20.1027C14.5473 19.9409 14.4173 19.7483 14.3286 19.5359C14.2398 19.3235 14.1941 19.0956 14.1941 18.8654C14.1941 18.6352 14.2398 18.4073 14.3286 18.1949C14.4173 17.9825 14.5473 17.7898 14.711 17.628C14.8748 17.4662 15.069 17.3385 15.2824 17.2524C15.4959 17.1662 15.7243 17.1232 15.9545 17.126C16.4122 17.1315 16.8493 17.3172 17.171 17.6428C17.4927 17.9684 17.6731 18.4076 17.6731 18.8654C17.6731 19.3231 17.4927 19.7624 17.171 20.088C16.8493 20.4136 16.4122 20.5993 15.9545 20.6047ZM26.2675 21.41C26.0004 21.565 25.6971 21.6465 25.3883 21.6462C24.9377 21.6462 24.4985 21.4827 24.213 21.1642L16.9627 13.155C16.732 12.909 16.3918 12.7635 16.018 12.7635C15.6445 12.7635 15.293 12.9092 15.0732 13.155L7.823 21.1642C7.3395 21.7007 6.41675 21.8102 5.7685 21.4097C5.1205 21.009 4.9885 20.2445 5.47175 19.7075L12.722 11.6985C13.502 10.8337 14.7105 10.3333 16.0177 10.3333C17.3253 10.3333 18.5225 10.8337 19.3135 11.6985L26.5637 19.7075C27.0472 20.2448 26.9155 21.0093 26.2675 21.41Z" fill="url(#paint0_linear_10_1773)"/>
</g>
<defs>
<linearGradient id="paint0_linear_10_1773" x1="8.68562" y1="-4.47395" x2="-7.74355" y2="23.4522" gradientUnits="userSpaceOnUse">
<stop stop-color="#1C4DFA"/>
<stop offset="1" stop-color="#3FA9F5"/>
</linearGradient>
<clipPath id="clip0_10_1773">
<rect width="1em" height="1em" fill="white"/>
</clipPath>
</defs>
</svg>
