<svg xmlns="http://www.w3.org/2000/svg" width="1em" height="1em" fill="none" viewBox="0 0 24 24"><path fill="#fff" fill-opacity="0.01" d="M2.4 2.4h19.2v19.2H2.4z"></path><path fill="url(#ai-generate_svg__a)" d="M17.975 2.934q.378 1.475.984 2.129.63.684 2.163 1.208c.288.101.48.373.478.678 0 .307-.192.581-.478.678q-1.531.525-2.165 1.209-.605.653-.983 2.127a.7.7 0 0 1-.677.534.7.7 0 0 1-.678-.534q-.378-1.473-.985-2.127Q15 8.153 13.47 7.627a.71.71 0 0 1-.478-.678c0-.307.192-.58.478-.678Q15 5.747 15.633 5.063q.607-.654.985-2.129a.7.7 0 0 1 .678-.534c.317 0 .596.22.678.534m-1.32 4.919a4.9 4.9 0 0 0-1.187-.904q.728-.41 1.186-.903.38-.421.642-.924.288.54.643.924.457.493 1.185.903c-.439.238-.84.543-1.185.904q-.354.383-.643.924a4.4 4.4 0 0 0-.642-.924M9.487 6.52c.32 0 .599.22.678.536q.706 2.762 1.873 4.03 1.215 1.318 4.059 2.295a.72.72 0 0 1 .476.678c0 .306-.192.58-.476.678q-2.844.977-4.059 2.296-1.169 1.267-1.874 4.03a.7.7 0 0 1-.678.536.7.7 0 0 1-.678-.536Q8.1 18.3 6.934 17.034q-1.215-1.316-4.059-2.296a.71.71 0 0 1-.475-.676c0-.308.192-.58.476-.678q2.844-.98 4.059-2.296 1.169-1.267 1.874-4.032a.7.7 0 0 1 .678-.535"></path><defs><linearGradient id="ai-generate_svg__a" x1="7.555" x2="-2.485" y1="-0.487" y2="16.58" gradientUnits="userSpaceOnUse"><stop stop-color="#2C45E5"></stop><stop offset="1" stop-color="#8F92FE"></stop></linearGradient></defs></svg>