<svg width="1em" height="1em" viewBox="0 0 24 24" fill="none" xmlns="http://www.w3.org/2000/svg">
<path d="M20.4375 0H1.20711C0.761655 0 0.538571 0.538571 0.853553 0.853553L23.1464 23.1464C23.4614 23.4614 24 23.2383 24 22.7929V4.00263C24 1.79211 22.4062 0 20.4375 0Z" fill="currentColor"/>
<path d="M20.837 5.01946L16.3778 9.81951C16.2712 9.93406 16.125 9.99909 15.9724 10C15.8178 10 15.6725 9.9367 15.5653 9.8242L13.1674 7.30698C12.9442 7.07291 12.9442 6.69293 13.1674 6.45857C13.3906 6.22415 13.7522 6.22415 13.9754 6.45857L15.9648 8.54683L20.0201 4.1804C20.2411 3.9437 20.6032 3.93926 20.8281 4.17103C21.0538 4.40277 21.0577 4.78274 20.837 5.01946Z" fill="white"/>
</svg>
