<svg width="1em" height="1em" viewBox="0 0 16 16" fill="none" xmlns="http://www.w3.org/2000/svg">
<g clip-path="url(#clip0_61_3907)">
<path d="M5.01397 3.55569C4.78607 3.32779 4.44421 3.32779 4.21631 3.55569L0.114043 7.54401C-0.113861 7.77191 -0.113861 8.11377 0.114043 8.34167L4.10236 12.33C4.33026 12.5579 4.67212 12.5579 4.90002 12.33C5.12792 12.1021 5.12792 11.7602 4.90002 11.5323L1.36751 7.99982L5.01397 4.35336C5.12793 4.12545 5.12793 3.7836 5.01397 3.55569ZM9.11624 3.55569C8.88834 3.55569 8.54648 3.66965 8.43253 4.0115L6.3814 11.7602C6.26744 12.1021 6.49535 12.33 6.8372 12.4439C7.17906 12.5579 7.40696 12.33 7.52091 11.9881L9.57205 4.2394C9.686 4.0115 9.4581 3.66965 9.11624 3.55569ZM15.8394 7.54401L11.8511 3.55569C11.6232 3.32779 11.2813 3.32779 11.0534 3.55569C10.8255 3.7836 10.8255 4.12545 11.0534 4.35336L14.5859 7.99982L10.9395 11.6463C10.7116 11.8742 10.7116 12.216 10.9395 12.4439C11.1674 12.6718 11.5092 12.6718 11.7371 12.4439L15.7254 8.45562C15.9534 8.22772 15.9534 7.77191 15.8394 7.54401Z" fill="currentColor"/>
</g>
<defs>
<clipPath id="clip0_61_3907">
<rect width="1em" height="1em" fill="white"/>
</clipPath>
</defs>
</svg>
