<svg width="1em" height="1em" viewBox="0 0 24 24" fill="none" xmlns="http://www.w3.org/2000/svg">
<path d="M21.5836 9.39376C21.0656 8.13751 20.3133 6.99376 19.3664 6.02345C18.4149 5.06486 17.2875 4.3008 16.043 3.7758C14.7656 3.22267 13.3899 2.93908 12 2.94142C10.6102 2.93908 9.23439 3.22267 7.95705 3.7758C6.71486 4.30314 5.58751 5.0672 4.63595 6.02345C3.68908 6.99376 2.93673 8.13751 2.42111 9.39376C1.87267 10.6899 1.59142 12.0867 1.59376 13.4953C1.59376 14.9555 1.87501 16.3406 2.43048 17.6414C2.97423 18.9235 3.76173 20.0836 4.75314 21.0586H19.2469C20.2383 20.0836 21.0281 18.9235 21.5695 17.6414C22.1274 16.3336 22.411 14.9203 22.4039 13.4953C22.411 12.0867 22.1297 10.6922 21.5836 9.39376ZM14.4633 10.8703L13.5445 15.3328C13.8024 15.8086 13.8445 16.4016 13.6031 16.9336C13.2047 17.8125 12.1922 18.1945 11.3414 17.7844C10.4883 17.3742 10.1203 16.3289 10.5188 15.4477C10.7602 14.9156 11.2242 14.5688 11.7445 14.4656L14.4633 10.8703ZM20.9883 15.3914C20.9883 15.8274 20.6344 16.1836 20.1985 16.1836H17.911C17.475 16.1836 17.1211 15.8297 17.1211 15.3914C17.1211 14.9555 17.475 14.5992 17.911 14.5992H20.1985C20.6344 14.5992 20.9883 14.9555 20.9883 15.3914ZM17.1985 11.3672C16.8891 11.6766 16.3899 11.6766 16.0805 11.3672C15.7711 11.0578 15.7711 10.5563 16.0805 10.2492L17.6977 8.6297C18.007 8.32033 18.5063 8.32033 18.8156 8.6297C19.125 8.93908 19.125 9.44064 18.8156 9.74767L17.1985 11.3672ZM11.2735 8.64845V6.35861C11.2735 5.92267 11.6274 5.56642 12.0633 5.56642C12.4992 5.56642 12.8531 5.92033 12.8531 6.35861V8.64845C12.8531 9.08439 12.4992 9.44064 12.0633 9.44064C11.6274 9.44064 11.2735 9.08439 11.2735 8.64845ZM8.04376 10.2445C8.35314 10.5539 8.35314 11.0555 8.04376 11.3625C7.73439 11.6719 7.23517 11.6719 6.9258 11.3625L5.30861 9.74298C4.99923 9.43361 4.99923 8.93205 5.30861 8.62501C5.61798 8.31564 6.1172 8.31564 6.42658 8.62501L8.04376 10.2445ZM7.0008 15.3867C7.0008 15.8227 6.64689 16.1789 6.21095 16.1789H3.92345C3.48751 16.1789 3.13361 15.825 3.13361 15.3867C3.13361 14.9508 3.48751 14.5945 3.92345 14.5945H6.21095C6.64689 14.5969 7.0008 14.9508 7.0008 15.3867Z" fill="currentColor"/>
</svg>
