<svg width="1em" height="1em" viewBox="0 0 24 24" fill="none" xmlns="http://www.w3.org/2000/svg">
<path d="M17.5556 22H6.44444C5.2657 22 4.13524 21.5317 3.30175 20.6983C2.46825 19.8648 2 18.7343 2 17.5556L2 6.44444C2 5.2657 2.46825 4.13524 3.30175 3.30175C4.13524 2.46825 5.2657 2 6.44444 2L17.5556 2C18.7343 2 19.8648 2.46825 20.6983 3.30175C21.5317 4.13524 22 5.2657 22 6.44444V17.5556C22 18.7343 21.5317 19.8648 20.6983 20.6983C19.8648 21.5317 18.7343 22 17.5556 22ZM8.66667 5.33333C7.88495 5.3394 7.13024 5.62001 6.53445 6.12613C5.93867 6.63224 5.53971 7.33165 5.40734 8.1021C5.27496 8.87255 5.41757 9.66501 5.81025 10.341C6.20294 11.0169 6.8207 11.5334 7.55556 11.8V17.5556C7.55556 17.8502 7.67262 18.1329 7.88099 18.3412C8.08937 18.5496 8.37198 18.6667 8.66667 18.6667C8.96135 18.6667 9.24397 18.5496 9.45234 18.3412C9.66071 18.1329 9.77778 17.8502 9.77778 17.5556V11.8C10.5126 11.5334 11.1304 11.0169 11.5231 10.341C11.9158 9.66501 12.0584 8.87255 11.926 8.1021C11.7936 7.33165 11.3947 6.63224 10.7989 6.12613C10.2031 5.62001 9.44838 5.3394 8.66667 5.33333ZM16.4444 12.2V6.44444C16.4444 6.14976 16.3274 5.86714 16.119 5.65877C15.9106 5.4504 15.628 5.33333 15.3333 5.33333C15.0386 5.33333 14.756 5.4504 14.5477 5.65877C14.3393 5.86714 14.2222 6.14976 14.2222 6.44444V12.2C13.4809 12.4621 12.8561 12.9779 12.4582 13.6561C12.0603 14.3343 11.915 15.1314 12.048 15.9064C12.181 16.6814 12.5836 17.3844 13.1848 17.8912C13.786 18.3981 14.547 18.676 15.3333 18.676C16.1197 18.676 16.8807 18.3981 17.4818 17.8912C18.083 17.3844 18.4857 16.6814 18.6187 15.9064C18.7516 15.1314 18.6063 14.3343 18.2085 13.6561C17.8106 12.9779 17.1858 12.4621 16.4444 12.2Z" fill="currentColor"/>
</svg>
