<svg width="1em" height="1em" viewBox="0 0 20 20" fill="none" xmlns="http://www.w3.org/2000/svg">
<path d="M5.84375 1.67188H14.1719C14.8594 1.67188 15.4219 2.23438 15.4219 2.92188V6.23438C15.4219 6.92188 14.8594 7.48438 14.1719 7.48438H5.84375C5.15625 7.48438 4.59375 6.9375 4.59375 6.25V2.9375C4.59375 2.21875 5.14063 1.67188 5.84375 1.67188ZM9.23438 8.23438H10.7812V9.78125H17.3438V12.875H15.7969V11.3281H10.7812V12.875H9.23438V11.3281H4.21875V12.875H2.67188V9.78125H9.23438V8.23438Z" fill="#8C77FE"/>
<path d="M1.8125 13.6406H5.0625C5.4375 13.6406 5.76562 13.9531 5.76562 14.3438V17.5469C5.76562 17.9375 5.45312 18.2344 5.0625 18.25H1.8125C1.42188 18.25 1.125 17.9375 1.10938 17.5469V14.3438C1.10938 13.9531 1.42188 13.6406 1.8125 13.6406ZM2.21875 17.125H4.64062V14.7656H2.21875V17.125ZM8.375 13.6406H11.625C12.0156 13.6406 12.3281 13.9531 12.3281 14.3438V17.5469C12.3281 17.9375 12.0156 18.2344 11.625 18.25H8.375C7.98438 18.25 7.6875 17.9375 7.67188 17.5469V14.3438C7.6875 13.9531 8 13.6406 8.375 13.6406ZM8.79688 17.125H11.2188V14.7656H8.79688V17.125ZM14.9531 13.6406H18.2031C18.5781 13.6406 18.9062 13.9531 18.9062 14.3438V17.5469C18.9062 17.9375 18.5938 18.2344 18.2031 18.25H14.9531C14.5625 18.25 14.2656 17.9375 14.25 17.5469V14.3438C14.25 13.9531 14.5625 13.6406 14.9531 13.6406ZM15.3594 17.125H17.7812V14.7656H15.3594V17.125Z" fill="#C4C0FF"/>
</svg>
