<svg width="1em" height="1em" viewBox="0 0 20 20" fill="none" xmlns="http://www.w3.org/2000/svg">
<path d="M4.86998 5.69043L5.88998 6.70043L1.86998 10.7204L0.849976 9.71043L4.86998 5.69043Z" fill="#2B85FB"/>
<path d="M0.849976 9.71996L1.85998 8.70996L5.87998 12.73L4.86998 13.75L0.849976 9.71996ZM14.01 13.74L13 12.73L17.02 8.70996L18.04 9.71996L14.01 13.74Z" fill="#2B85FB"/>
<path d="M18.04 9.71039L17.03 10.7204L13 6.70039L14.01 5.68039L18.04 9.71039ZM12.1 2.65039L12.61 3.16039L5.54003 10.2304L5.03003 9.72039L12.1 2.65039Z" fill="#2B85FB"/>
<path d="M8.54002 12.23L8.03002 12.74L5.02002 9.71996L5.53002 9.20996L8.54002 12.23Z" fill="#2B85FB"/>
<path d="M9.56002 10.2202L10.07 10.7302L8.06002 12.7402L7.55002 12.2302L9.56002 10.2202ZM12.85 3.6802C12.16 3.6802 11.59 3.1202 11.59 2.4402C11.59 1.7502 12.15 1.2002 12.85 1.2002C13.54 1.2002 14.11 1.7602 14.11 2.4402C14.11 3.1202 13.54 3.6802 12.85 3.6802ZM12.85 1.9002C12.55 1.9002 12.31 2.1402 12.31 2.4302C12.31 2.7202 12.55 2.9602 12.85 2.9602C13.15 2.9602 13.39 2.7202 13.39 2.4302C13.39 2.1402 13.14 1.9002 12.85 1.9002ZM6.78002 16.7902L6.27002 16.2802L13.34 9.21019L13.85 9.72019L6.78002 16.7902Z" fill="#2B85FB"/>
<path d="M10.33 7.2102L10.84 6.7002L13.86 9.7202L13.35 10.2302L10.33 7.2102Z" fill="#2B85FB"/>
<path d="M9.32002 9.2202L8.81002 8.7102L10.82 6.7002L11.33 7.2102L9.32002 9.2202ZM6.03002 15.7702C6.72002 15.7702 7.29002 16.3302 7.29002 17.0102C7.29002 17.7002 6.73002 18.2502 6.03002 18.2502C5.34002 18.2502 4.77002 17.6902 4.77002 17.0102C4.78002 16.3302 5.34002 15.7702 6.03002 15.7702ZM6.03002 17.5502C6.33002 17.5502 6.57002 17.3102 6.57002 17.0202C6.57002 16.7302 6.33002 16.4902 6.03002 16.4902C5.73002 16.4902 5.49002 16.7302 5.49002 17.0202C5.49002 17.3102 5.74002 17.5502 6.03002 17.5502Z" fill="#2B85FB"/>
</svg>
