<svg width="1em" height="1em" viewBox="0 0 16 16" fill="none" xmlns="http://www.w3.org/2000/svg">
<path d="M14.2796 2.51758H4.63584C4.4374 2.51758 4.2749 2.68008 4.2749 2.87852C4.2749 3.07695 4.4374 3.23945 4.63584 3.23945H14.2796C14.478 3.23945 14.6405 3.07695 14.6405 2.87852C14.6405 2.68008 14.478 2.51758 14.2796 2.51758Z" fill="currentColor" />
<path d="M2.83604 4.68437C1.83916 4.68437 1.02979 3.87344 1.02979 2.87812C1.02979 1.88281 1.83916 1.07031 2.83604 1.07031C3.83291 1.07031 4.64229 1.88125 4.64229 2.87656C4.64229 3.87188 3.83135 4.68437 2.83604 4.68437ZM2.83604 1.79375C2.2376 1.79375 1.75166 2.27969 1.75166 2.87812C1.75166 3.47656 2.2376 3.9625 2.83604 3.9625C3.43447 3.9625 3.92041 3.47656 3.92041 2.87812C3.92041 2.27969 3.43291 1.79375 2.83604 1.79375ZM11.3829 12.8344H1.75166C1.55322 12.8344 1.39072 12.9969 1.39072 13.1953C1.39072 13.3938 1.55322 13.5562 1.75166 13.5562H11.3829C11.5813 13.5562 11.7438 13.3938 11.7438 13.1953C11.7438 12.9969 11.5813 12.8344 11.3829 12.8344Z" fill="currentColor" />
<path d="M13.1954 15.0012C12.1985 15.0012 11.3892 14.1902 11.3892 13.1949C11.3892 12.1996 12.2001 11.3887 13.1954 11.3887C14.1907 11.3887 15.0017 12.1996 15.0017 13.1949C15.0017 14.1902 14.1923 15.0012 13.1954 15.0012ZM13.1954 12.1105C12.597 12.1105 12.111 12.5965 12.111 13.1949C12.111 13.7934 12.597 14.2793 13.1954 14.2793C13.7938 14.2793 14.2798 13.7934 14.2798 13.1949C14.2798 12.5965 13.7938 12.1105 13.1954 12.1105Z" fill="currentColor" />
<path d="M8.01572 9.84355C7.01885 9.84355 6.20947 9.03262 6.20947 8.0373C6.20947 7.04199 7.01885 6.22949 8.01572 6.22949C9.0126 6.22949 9.82197 7.04043 9.82197 8.03574C9.82197 9.03105 9.0126 9.84355 8.01572 9.84355ZM8.01572 6.95293C7.41729 6.95293 6.93135 7.43887 6.93135 8.0373C6.93135 8.63574 7.41729 9.12168 8.01572 9.12168C8.61416 9.12168 9.1001 8.63574 9.1001 8.0373C9.1001 7.43887 8.61416 6.95293 8.01572 6.95293Z" fill="currentColor" />
<path d="M14.6313 8.39863H9.46103C9.26103 8.39863 9.1001 8.23613 9.1001 8.0377C9.1001 7.8377 9.2626 7.67676 9.46103 7.67676H14.6313C14.8313 7.67676 14.9923 7.83926 14.9923 8.0377C14.9923 8.23613 14.8298 8.39863 14.6313 8.39863ZM6.57041 8.39863H1.44541C1.24541 8.39863 1.08447 8.23613 1.08447 8.0377C1.08447 7.8377 1.24697 7.67676 1.44541 7.67676H6.57041C6.77041 7.67676 6.93135 7.83926 6.93135 8.0377C6.93135 8.23613 6.77041 8.39863 6.57041 8.39863Z" fill="currentColor" />
</svg>
