<svg width="1em" height="1em" viewBox="0 0 20 20" fill="none" xmlns="http://www.w3.org/2000/svg">
<g clip-path="url(#clip0_61_3184)">
<path d="M5.28272 11.4932H0.00830078L0.0116322 11.5706C0.0132979 11.6206 0.0174621 11.6706 0.0199606 11.7197L0.0241249 11.783C0.0282891 11.8405 0.0324534 11.8971 0.0382833 11.9546L0.0424475 11.9929C0.0551257 12.1316 0.0717895 12.2699 0.0924184 12.4076C0.153216 12.8282 0.243997 13.2446 0.36476 13.6544L0.366425 13.6594C0.386822 13.7276 0.407922 13.7957 0.429722 13.8634L0.433053 13.8751C0.451376 13.9334 0.471364 13.99 0.491352 14.0475L0.506344 14.0908L0.560479 14.2407L0.586297 14.3082L0.634602 14.4315L0.67208 14.5239L0.71289 14.6205C0.729547 14.6597 0.746204 14.6988 0.764526 14.7371L0.795342 14.8071L0.861137 14.9478L0.882791 14.9928L0.961911 15.1527L0.974404 15.1768L1.06685 15.3517L1.07101 15.3601L1.09184 15.3959L5.59587 12.6816L5.61253 12.6716C5.43584 12.3009 5.32428 11.9026 5.28272 11.494V11.4932ZM0.258155 13.9126L0.258988 13.9168L0.428889 13.8634L0.257322 13.9126H0.258155Z" fill="#93D500"/>
<path d="M6.57951 13.915L6.56618 13.9275L2.85168 17.6429L2.90915 17.6962L3.01409 17.7886C3.07405 17.8409 3.13457 17.8925 3.19565 17.9435C3.20648 17.9543 3.21814 17.9635 3.22896 17.9727C3.3344 18.0602 3.44216 18.1449 3.55211 18.2267L3.55794 18.2309C3.78198 18.3974 4.01351 18.5548 4.25337 18.7006L4.27835 18.7164L4.41494 18.7972L4.49822 18.8447C4.57885 18.8914 4.66077 18.9358 4.74391 18.9779C4.87884 19.0495 5.01626 19.1145 5.15534 19.1778L5.28693 18.858L7.15501 14.3198L7.1625 14.3031C6.95586 14.1933 6.76057 14.0633 6.57951 13.915Z" fill="#4D5A31"/>
<path d="M6.19142 13.5453C6.07677 13.4168 5.97129 13.2805 5.87577 13.1372C5.84245 13.0872 5.80997 13.0381 5.77999 12.9873L1.26929 15.7041C1.33841 15.819 1.41087 15.9314 1.48499 16.0422L1.49249 16.0538L1.49499 16.058L1.50165 16.0688L1.50248 16.0705L1.52081 16.0963L1.52247 16.098V16.0988C1.60076 16.2154 1.68071 16.3287 1.764 16.4403L1.76983 16.447L1.77483 16.4536C1.85244 16.558 1.93298 16.6602 2.01635 16.7601C2.02468 16.7718 2.03467 16.7826 2.04467 16.7943C2.12574 16.8915 2.20848 16.9872 2.29286 17.0816L2.34616 17.1382L2.37031 17.164L2.43944 17.239L2.46775 17.2681L2.59268 17.3956L6.31384 13.6752C6.27137 13.6336 6.23139 13.5895 6.19142 13.5453Z" fill="#6BA43A"/>
<path d="M11.1235 13.9131C11.0819 13.9464 11.0411 13.9789 10.9986 14.0097L11.0086 14.0255L13.7212 18.5279C13.8461 18.4463 13.971 18.3613 14.0918 18.273C14.3541 18.079 14.6082 17.8699 14.8538 17.6434L11.1385 13.9289L11.1235 13.9131Z" fill="#4D5A31"/>
<path d="M13.3789 18.7419L13.3847 18.7386C13.3822 18.7386 13.3806 18.7403 13.3781 18.7419H13.3789ZM13.3839 18.7386C13.3964 18.7319 13.408 18.7261 13.4197 18.7186L13.4189 18.7178C13.4072 18.7247 13.3955 18.7316 13.3839 18.7386Z" fill="#93D500"/>
<path d="M13.3789 18.7423L13.3847 18.739L13.378 18.7423H13.3789ZM13.3772 18.7432L13.3755 18.744L13.3789 18.7423L13.3772 18.7432ZM13.3839 18.739C13.3963 18.7315 13.4088 18.7265 13.4197 18.719L13.3847 18.739H13.3839ZM13.3272 18.5649L13.2356 18.4125L10.7037 14.2092C10.6521 14.24 10.5996 14.2675 10.5472 14.2958C9.71114 14.7445 8.73171 14.8447 7.8221 14.5748C7.76546 14.5581 7.70966 14.5356 7.65386 14.5165C7.59806 14.4965 7.54059 14.479 7.48563 14.4565L5.61838 18.9905L5.54509 19.1688L5.48263 19.3212H5.4818L5.49595 19.327L5.51178 19.3328L5.51594 19.3345C5.55925 19.3528 5.60422 19.3678 5.64836 19.3845C5.70417 19.4061 5.75913 19.4286 5.81493 19.4486L5.89988 19.4819C6.48454 19.6885 7.09086 19.8325 7.7055 19.9133L7.77712 19.9233L7.85291 19.9317L7.99533 19.9466L8.03114 19.95L8.20604 19.9641L8.26434 19.9675L8.41842 19.9766L8.51253 19.9808C8.61161 19.9841 8.71072 19.986 8.80985 19.9866H8.8515C9.34288 19.9866 9.83426 19.9466 10.3206 19.865L10.3456 19.8609L10.4997 19.8334L10.5872 19.8167C10.6674 19.8004 10.7474 19.7826 10.827 19.7634L10.8537 19.7576C11.5924 19.5853 12.3061 19.3195 12.9774 18.9664C13.0207 18.9431 13.064 18.9164 13.1082 18.8923L13.2639 18.8048C13.2997 18.784 13.3355 18.7657 13.3714 18.744H13.3722L13.3739 18.7423H13.3747H13.3755L13.3772 18.7407C13.3792 18.7397 13.3811 18.7386 13.383 18.7373L13.418 18.7165L13.3264 18.5641L13.3272 18.5649ZM6.58115 8.3609C6.62196 8.32759 6.66277 8.29511 6.70525 8.26429L6.69609 8.2493L3.9835 3.74609C3.85691 3.82855 3.73365 3.91266 3.61122 4.00261C3.34887 4.19583 3.09485 4.40488 2.85083 4.63058L6.56533 8.34591L6.58115 8.3609Z" fill="#93D500"/>
<path d="M2.59349 4.87798C2.55101 4.92046 2.51104 4.9646 2.47023 5.00708L2.34613 5.13617C2.07129 5.43349 1.82144 5.74415 1.5949 6.06812L1.56159 6.11393C1.49969 6.20295 1.43999 6.29349 1.38253 6.38544C0.543661 7.70302 0.0694569 9.21961 0.00832848 10.7804C0.00582994 10.8387 0.00416424 10.8995 0.00333139 10.9586C0.00166568 11.0177 0 11.0777 0 11.1368H5.26193C5.26193 11.0769 5.26776 11.0177 5.27026 10.9586C5.27359 10.8986 5.27442 10.8395 5.28025 10.7804C5.34855 10.0949 5.61339 9.42616 6.07396 8.86399C6.11144 8.81819 6.15391 8.77488 6.19389 8.73074C6.23386 8.68743 6.27051 8.64162 6.31382 8.59831L2.59349 4.87798ZM13.4505 3.57208L13.428 3.55875L13.2889 3.47547L13.2073 3.42883L13.124 3.38302C13.077 3.3571 13.0298 3.33156 12.9824 3.3064L12.9591 3.29391C12.651 3.13317 12.3345 2.99075 12.0097 2.86749L11.9847 2.8575C11.9147 2.83168 11.8439 2.80503 11.7731 2.78004C11.1985 2.58016 10.6038 2.43857 10 2.35945L9.92588 2.34946L9.85175 2.34113L9.70934 2.32531L9.66936 2.32197C9.61252 2.31642 9.5556 2.3117 9.49863 2.30782L9.432 2.30365C9.38345 2.30026 9.33487 2.29749 9.28625 2.29532L9.20879 2.29199V7.56642C9.47947 7.59473 9.74681 7.6522 10.0075 7.74131L13.8886 3.85858C13.7452 3.75901 13.5992 3.66348 13.4505 3.57208Z" fill="#4D5A31"/>
<path d="M8.67408 2.28918C8.61495 2.29001 8.55498 2.29001 8.49585 2.29251C7.95071 2.31485 7.40877 2.38706 6.8768 2.50822L6.84931 2.51405C6.11057 2.68644 5.39682 2.95379 4.72638 3.30608C4.68307 3.3294 4.63977 3.35605 4.59646 3.37937L4.44072 3.46766C4.4024 3.48931 4.36326 3.5093 4.32495 3.53262H4.32328C4.32162 3.53512 4.31829 3.53595 4.31496 3.53762C4.30579 3.54428 4.29497 3.54927 4.28581 3.55427V3.55594L4.37742 3.70835L7.00172 8.06414C7.05336 8.03333 7.10583 8.00584 7.1583 7.97753C7.62584 7.72538 8.14359 7.58029 8.67408 7.55277C8.73321 7.54944 8.79318 7.54611 8.85231 7.54611V2.28418L8.67408 2.28918Z" fill="#6BA43A"/>
<path d="M17.693 10.7016C17.6906 10.6544 17.6878 10.6072 17.6847 10.5601L17.6797 10.4893C17.6763 10.4335 17.6713 10.3777 17.6663 10.3227C17.6586 10.2413 17.6503 10.1599 17.6413 10.0787L17.6405 10.0703C17.632 10.0014 17.6229 9.93255 17.613 9.86379C17.5524 9.44335 17.4617 9.0278 17.3415 8.62035L17.339 8.61202C17.2951 8.46734 17.2485 8.3235 17.1991 8.18061C17.182 8.13153 17.1642 8.08266 17.1458 8.03403L17.1191 7.9649C17.1037 7.92421 17.0879 7.88368 17.0717 7.8433L17.0325 7.74836C17.0196 7.71693 17.0066 7.68556 16.9934 7.65425L16.9409 7.53432C16.9094 7.46393 16.8769 7.39397 16.8435 7.32444L16.8235 7.28113L16.7435 7.11956L16.7319 7.09707C16.7014 7.03792 16.6703 6.97906 16.6386 6.92051L16.6353 6.91468C16.4823 6.63338 16.3141 6.36063 16.1314 6.09766L12.2487 9.98039C12.3369 10.2411 12.3944 10.5093 12.4227 10.7799H17.6971C17.6946 10.7533 17.6938 10.7275 17.693 10.7016Z" fill="#4D5A31"/>
<path d="M12.4419 11.1367C12.4419 11.1967 12.4361 11.2558 12.4336 11.3149C12.4302 11.3749 12.4294 11.434 12.4227 11.4932C12.354 12.1964 12.078 12.8633 11.6299 13.4096C11.5924 13.4554 11.5499 13.4978 11.5099 13.5428C11.47 13.5861 11.4325 13.6319 11.39 13.6744L15.1103 17.3956C15.1528 17.3531 15.192 17.309 15.2336 17.2665C15.2752 17.224 15.3169 17.1815 15.3577 17.1374C15.6325 16.8392 15.8841 16.5269 16.1114 16.2029L16.1372 16.1646C16.1656 16.1255 16.1922 16.0847 16.2189 16.0447L16.2897 15.9364C16.3013 15.9198 16.3121 15.9014 16.323 15.8839C17.1605 14.5674 17.6338 13.0523 17.6947 11.4932C17.6972 11.434 17.698 11.3741 17.6997 11.3149C17.7005 11.2558 17.703 11.1959 17.7022 11.1367H12.4419Z" fill="#6BA43A"/>
<path d="M19.2662 0.72298C18.8525 0.311162 18.3061 0.059501 17.7243 0.0127915C17.1424 -0.0339179 16.5629 0.127355 16.0888 0.467905C15.6147 0.808455 15.2768 1.30618 15.1353 1.8725C14.9938 2.43881 15.0579 3.03697 15.316 3.56049L9.94667 8.92986C9.54029 8.72848 9.08624 8.64311 8.63447 8.68314C8.1827 8.72318 7.75074 8.88706 7.3861 9.15676C7.02147 9.42646 6.7383 9.79152 6.56776 10.2118C6.39722 10.632 6.34592 11.0912 6.4195 11.5387C6.49308 11.9862 6.6887 12.4048 6.98482 12.7483C7.28093 13.0918 7.66608 13.347 8.09787 13.4858C8.52966 13.6245 8.99136 13.6415 9.43216 13.5348C9.87297 13.428 10.2758 13.2018 10.5963 12.8809C10.9608 12.5159 11.2016 12.0458 11.2847 11.5367C11.3678 11.0276 11.2889 10.5053 11.0594 10.0434L16.4287 4.67401C16.9524 4.93411 17.5516 4.99951 18.1191 4.85852C18.6866 4.71753 19.1855 4.37934 19.5266 3.90438C19.8677 3.42942 20.0288 2.84864 19.9811 2.26583C19.9334 1.68302 19.68 1.13617 19.2662 0.72298Z" fill="#424143"/>
</g>
<defs>
<clipPath id="clip0_61_3184">
<rect width="1em" height="1em" fill="white"/>
</clipPath>
</defs>
</svg>
