<svg width="1em" height="1em" viewBox="0 0 23 23" fill="none" xmlns="http://www.w3.org/2000/svg">
<rect width="1em" height="1em" rx="8" fill="#EEEFFD"/>
<path d="M5.29001 10.3506H12.65V17.7106H5.29001V10.3506Z" fill="#9254DE" fill-opacity="0.2"/>
<path d="M7.13 6.44004C7.13 5.80491 7.64488 5.29004 8.28 5.29004H16.56C17.1951 5.29004 17.71 5.80491 17.71 6.44004V14.72C17.71 15.3552 17.1951 15.87 16.56 15.87H8.28C7.64488 15.87 7.13 15.3552 7.13 14.72V6.44004Z" fill="#9254DE" fill-opacity="0.8"/>
<path d="M11.8378 8.21245C11.6438 8.52295 11.7602 8.94988 12.1095 9.14395C12.42 9.33801 12.8469 9.22157 13.041 8.91107C13.2351 8.60057 13.1186 8.17363 12.8081 7.97957C12.6529 7.90195 12.4588 7.86313 12.3036 7.90195C12.0707 7.94076 11.9154 8.0572 11.8378 8.21245ZM14.9428 11.5115C14.7099 11.2786 14.3994 11.2398 14.1278 11.3951C13.8561 11.5503 13.7396 11.8608 13.8173 12.1325C13.8561 12.2878 13.9725 12.443 14.1278 12.5594C14.4383 12.7535 14.8652 12.6371 15.0593 12.3266C15.2145 12.0937 15.1757 11.7444 14.9428 11.5115ZM14.2054 10.8517C14.3606 10.8129 14.5547 10.8129 14.7099 10.8517V9.41563L13.5456 8.87226C13.5068 9.02751 13.3903 9.18276 13.2739 9.2992L14.2054 9.68732V10.8517ZM9.74194 12.1713C9.78075 12.3266 9.89719 12.4818 10.0524 12.5983C10.2077 12.6759 10.4018 12.7147 10.557 12.6759C10.7123 12.6371 10.8675 12.5206 10.9839 12.3654C11.1004 12.1713 11.1004 11.8996 10.9839 11.7056C10.8675 11.5115 10.6346 11.3563 10.4018 11.3563C10.1689 11.3563 9.936 11.4727 9.81956 11.7056C9.70313 11.822 9.66431 11.9773 9.74194 12.1713ZM10.6346 10.8517V9.72613L11.5273 9.33801C11.4109 9.22157 11.3333 9.06632 11.2556 8.91107L10.0913 9.45445V10.8905C10.3241 10.8129 10.4794 10.8129 10.6346 10.8517ZM12.42 12.7147L11.5273 12.3266C11.4885 12.4042 11.4497 12.5206 11.4109 12.5983C11.3721 12.6759 11.3333 12.7147 11.2944 12.7923L12.4588 13.2969L13.6232 12.7923C13.5068 12.6759 13.4291 12.5206 13.3515 12.3654L12.42 12.7147Z" fill="white"/>
</svg>
