<svg width="1em" height="1em" viewBox="0 0 144 144" fill="none" xmlns="http://www.w3.org/2000/svg">
<g id="&#233;&#133;&#141;&#231;&#189;&#174;" clip-path="url(#clip0_42_2386)">
<rect width="1em" height="1em" fill="white"/>
<g id="&#231;&#188;&#150;&#231;&#187;&#132; 4">
<path id="Combined Shape" d="M71.9995 100C107.163 100 136.648 115.343 144.566 136H-0.565918C7.35159 115.343 36.8361 100 71.9995 100Z" fill="url(#paint0_linear_42_2386)"/>
<g id="&#231;&#188;&#150;&#231;&#187;&#132; 10">
<g id="undraw_complete_task_re_44tb 2">
<rect id="&#231;&#159;&#169;&#229;&#189;&#162;" x="18.75" y="56.75" width="114.5" height="26.5" rx="3.25" fill="white" stroke="#779EEA" stroke-width="1.5"/>
<g id="&#231;&#188;&#150;&#231;&#187;&#132; 6">
<g id="&#231;&#188;&#150;&#231;&#187;&#132;">
<path id="&#232;&#183;&#175;&#229;&#190;&#132;" d="M49.9316 64C49.4168 64.0007 49 64.3363 49 64.75C49 65.1637 49.4168 65.4993 49.9316 65.5H118.068C118.583 65.4993 119 65.1637 119 64.75C119 64.3363 118.583 64.0007 118.068 64H49.9316Z" fill="#779EEA"/>
<path id="&#232;&#183;&#175;&#229;&#190;&#132;_2" d="M49.9269 69C49.4161 68.9991 49.0011 69.3342 49 69.7484C48.9989 70.1626 49.4122 70.4991 49.923 70.5H92.6188C92.9497 70.5005 93.2557 70.3576 93.4213 70.1254C93.5869 69.8931 93.5869 69.6069 93.4213 69.3746C93.2557 69.1424 92.9497 68.9995 92.6188 69H49.9269Z" fill="#779EEA"/>
<path id="&#232;&#183;&#175;&#229;&#190;&#132;_3" d="M49.6455 74C49.2898 73.9991 49.0008 74.3342 49 74.7484C48.9993 75.1626 49.2871 75.4991 49.6428 75.5H79.3774C79.6078 75.5005 79.8209 75.3576 79.9362 75.1254C80.0516 74.8931 80.0516 74.6069 79.9362 74.3746C79.8209 74.1424 79.6078 73.9995 79.3774 74H49.6455Z" fill="#779EEA"/>
</g>
<circle id="&#229;&#189;&#162;&#231;&#138;&#182;&#231;&#187;&#147;&#229;&#144;&#136;" cx="37" cy="70" r="7" fill="#779EEA"/>
</g>
</g>
<g id="undraw_complete_task_re_44tb 2_2">
<rect id="&#231;&#159;&#169;&#229;&#189;&#162;_2" x="28.75" y="92.75" width="94.5" height="22.5" rx="3.25" fill="white" stroke="#E8EDF6" stroke-width="1.5"/>
<g id="&#231;&#188;&#150;&#231;&#187;&#132; 6_2" opacity="0.5938">
<path id="&#232;&#183;&#175;&#229;&#190;&#132;_4" d="M53.7586 98.6211C53.3394 98.6218 53 98.9574 53 99.3711C53 99.7848 53.3394 100.12 53.7586 100.121H109.241C109.661 100.12 110 99.7848 110 99.3711C110 98.9574 109.661 98.6218 109.241 98.6211H53.7586Z" fill="#779EEA"/>
<rect id="&#231;&#159;&#169;&#229;&#189;&#162;_3" x="37" y="98" width="12" height="12" rx="6" fill="#779EEA"/>
<path id="&#232;&#183;&#175;&#229;&#190;&#132;_5" d="M53.7491 103.121C53.3363 103.12 53.0009 103.455 53 103.87C52.9991 104.284 53.3331 104.62 53.746 104.621H88.2511C88.5185 104.622 88.7658 104.479 88.8996 104.246C89.0335 104.014 89.0335 103.728 88.8996 103.496C88.7658 103.263 88.5185 103.121 88.2511 103.121H53.7491Z" fill="#779EEA"/>
<path id="&#232;&#183;&#175;&#229;&#190;&#132;_6" d="M53.4994 107.621C53.2242 107.62 53.0006 107.955 53 108.37C52.9994 108.784 53.2221 109.12 53.4973 109.121H76.5008C76.679 109.122 76.8439 108.979 76.9331 108.746C77.0223 108.514 77.0223 108.228 76.9331 107.996C76.8439 107.763 76.679 107.621 76.5008 107.621H53.4994Z" fill="#779EEA"/>
</g>
</g>
<g id="undraw_complete_task_re_44tb 2_3">
<rect id="&#231;&#159;&#169;&#229;&#189;&#162;_4" x="28.75" y="24.75" width="94.5" height="22.5" rx="3.25" fill="white" stroke="#E8EDF6" stroke-width="1.5"/>
<g id="&#231;&#188;&#150;&#231;&#187;&#132; 6_3" opacity="0.5938">
<path id="&#232;&#183;&#175;&#229;&#190;&#132;_7" d="M53.7586 30.6211C53.3394 30.6218 53 30.9574 53 31.3711C53 31.7848 53.3394 32.1204 53.7586 32.1211H109.241C109.661 32.1204 110 31.7848 110 31.3711C110 30.9574 109.661 30.6218 109.241 30.6211H53.7586Z" fill="#779EEA"/>
<rect id="&#231;&#159;&#169;&#229;&#189;&#162;_5" x="37" y="30" width="12" height="12" rx="6" fill="#779EEA"/>
<path id="&#232;&#183;&#175;&#229;&#190;&#132;_8" d="M53.7491 35.1211C53.3363 35.1202 53.0009 35.4553 53 35.8695C52.9991 36.2837 53.3331 36.6202 53.746 36.6211H88.2511C88.5185 36.6216 88.7658 36.4787 88.8996 36.2465C89.0335 36.0142 89.0335 35.728 88.8996 35.4957C88.7658 35.2635 88.5185 35.1206 88.2511 35.1211H53.7491Z" fill="#779EEA"/>
<path id="&#232;&#183;&#175;&#229;&#190;&#132;_9" d="M53.4994 39.6211C53.2242 39.6202 53.0006 39.9553 53 40.3695C52.9994 40.7837 53.2221 41.1202 53.4973 41.1211H76.5008C76.679 41.1216 76.8439 40.9787 76.9331 40.7465C77.0223 40.5142 77.0223 40.228 76.9331 39.9957C76.8439 39.7635 76.679 39.6206 76.5008 39.6211H53.4994Z" fill="#779EEA"/>
</g>
</g>
</g>
</g>
</g>
<defs>
<linearGradient id="paint0_linear_42_2386" x1="-13.4161" y1="101.387" x2="-13.4161" y2="143.762" gradientUnits="userSpaceOnUse">
<stop stop-color="#779EEA" stop-opacity="0.4"/>
<stop offset="1" stop-color="white" stop-opacity="0.01"/>
</linearGradient>
<clipPath id="clip0_42_2386">
<rect width="144" height="144" fill="white"/>
</clipPath>
</defs>
</svg>
