<svg width="1em" height="1em" viewBox="0 0 24 24" fill="none" xmlns="http://www.w3.org/2000/svg">
<path d="M12.0056 1.66797C4.03108 1.66797 1.8208 3.93369 1.8208 11.9082C1.8208 19.8829 4.0312 22.0775 12.0056 22.0775C19.9799 22.0775 22.2303 19.8829 22.2303 11.9082C22.2304 3.93381 19.98 1.66797 12.0056 1.66797ZM17.0337 12.9754L16.831 13.1749C15.6809 14.3118 13.954 14.3998 12.699 13.5129C12.0374 14.2297 9.31144 17.2532 9.31144 17.2532C8.85496 17.7054 7.50472 18.1949 6.55108 17.2539C5.59756 16.3129 6.0928 14.9791 6.55108 14.5276L10.3655 11.2012C9.49792 9.96129 9.59812 8.27301 10.7348 7.14561L10.9392 6.94689C11.9228 5.97549 13.9545 5.95293 14.9544 5.95617C15.2642 5.95785 15.0504 6.19461 15.0504 6.19461C15.0504 6.19461 13.3827 7.83777 13.1589 8.05941C12.934 8.28177 12.9777 8.72901 12.9777 8.72901C12.9777 8.72901 13.1324 10.3366 13.3554 10.5583C13.581 10.7788 15.1407 10.9528 15.1407 10.9528C15.1407 10.9528 15.7304 10.9707 15.9045 10.7982C16.0788 10.6248 17.7868 8.92905 17.7868 8.92905C17.7868 8.92905 18.0254 8.72277 18.0228 9.04329C18.0183 10.0483 17.9871 12.033 17.0337 12.9754Z" fill="#F1B957"/>
<path d="M8.02638 14.6904C7.40154 14.6904 6.89526 15.1893 6.89526 15.8037C6.89526 16.4199 7.40082 16.9169 8.02638 16.9169C8.65122 16.9169 9.15618 16.4199 9.15618 15.8037C9.15618 15.1903 8.65122 14.6904 8.02638 14.6904Z" fill="#F1B957"/>
</svg>
