<svg width="20" height="20" viewBox="0 0 20 20" fill="none" xmlns="http://www.w3.org/2000/svg">
    <path d="M2.0998 0.400024H14.0364C14.2379 0.400031 14.4319 0.476062 14.5798 0.612924L18.4432 4.18832C18.5241 4.26323 18.5887 4.35406 18.6329 4.45511C18.677 4.55616 18.6998 4.66525 18.6998 4.77552V18.8C18.6998 19.0122 18.6155 19.2157 18.4655 19.3657C18.3155 19.5157 18.112 19.6 17.8998 19.6H2.0998C1.88763 19.6 1.68415 19.5157 1.53412 19.3657C1.38409 19.2157 1.2998 19.0122 1.2998 18.8V1.20002C1.2998 0.987851 1.38409 0.784368 1.53412 0.634339C1.68415 0.48431 1.88763 0.400024 2.0998 0.400024Z" fill="#1FB2FF" />
    <path d="M5.7002 6.80005H14.3002V8.00005H5.7002V6.80005ZM5.7002 10H14.3002V11.2H5.7002V10ZM5.7002 13.2H10.7002V14.4H5.7002V13.2Z" fill="white" />
</svg>
    