<svg width="200" height="200" viewBox="0 0 200 200" fill="none" xmlns="http://www.w3.org/2000/svg">
<path d="M146.994 158.651C137.069 158.651 128.948 150.531 128.948 140.606C128.948 130.681 137.069 122.561 146.994 122.561C156.919 122.561 165.039 130.681 165.039 140.606C165.039 150.531 156.919 158.651 146.994 158.651Z" fill="#37474F"/>
<path d="M146.994 185.707C133.46 185.707 120.377 179.391 111.806 169.015L125.791 157.737C130.753 164.052 138.873 168.113 146.994 168.113C161.881 168.113 174.062 155.932 174.062 141.045C174.062 126.157 161.881 113.977 146.994 113.977C142.483 113.977 137.971 115.33 133.911 117.135L126.242 121.646L94.2114 63.9011L110.001 55.3296L133.911 97.736C138.422 96.3826 142.934 95.4803 147.445 95.4803C172.257 95.4803 192.558 115.781 192.558 140.594C192.558 165.406 171.806 185.707 146.994 185.707Z" fill="#37474F"/>
<path d="M52.256 185.712C27.4438 185.712 7.14282 165.411 7.14282 140.599C7.14282 119.847 21.1279 102.253 40.9777 96.8394L45.489 114.434C33.7596 117.591 25.1881 128.419 25.1881 140.599C25.1881 155.486 37.3687 167.667 52.256 167.667C67.1434 167.667 79.3239 155.486 79.3239 140.599V131.577H146.994V149.622H96.4669C92.4067 170.374 73.9103 185.712 52.256 185.712Z" fill="#37474F"/>
<path d="M52.256 158.651C42.3311 158.651 34.2107 150.531 34.2107 140.606C34.2107 130.681 42.3311 122.561 52.256 122.561C62.1809 122.561 70.3012 130.681 70.3012 140.606C70.3012 150.531 62.1809 158.651 52.256 158.651Z" fill="#E91E63"/>
<path d="M101.88 77.4448C91.9552 77.4448 83.8348 69.3244 83.8348 59.3995C83.8348 49.4746 91.9552 41.3542 101.88 41.3542C111.805 41.3542 119.925 49.4746 119.925 59.3995C119.925 69.3244 111.805 77.4448 101.88 77.4448Z" fill="#37474F"/>
<path d="M59.9256 145.114L44.5872 136.091L71.2039 92.3314C62.1813 83.7599 56.7677 72.0305 56.7677 59.3988C56.7677 34.5866 77.0686 14.2856 101.881 14.2856C126.693 14.2856 146.994 34.5866 146.994 59.3988C146.994 63.459 146.543 67.0681 145.641 70.6771L128.047 66.1658C128.498 63.9101 128.949 61.6545 128.949 59.3988C128.949 44.5115 116.768 32.3309 101.881 32.3309C86.9935 32.3309 74.813 44.5115 74.813 59.3988C74.813 68.8726 79.7754 77.4441 87.8958 82.4065L95.5651 86.9179L59.9256 145.114Z" fill="#E91E63"/>
</svg>
