<svg width="24" height="24" viewBox="0 0 24 24" fill="none" xmlns="http://www.w3.org/2000/svg">
    <rect width="24" height="24" rx="2" fill="#E0EBFE" />
    <path
        d="M5.80627 8.7745L7.51656 9.68421C7.46884 9.81732 7.44448 9.95767 7.44456 10.0991V13.7476C7.44456 13.9762 7.50856 14.2014 7.63084 14.4008C7.75313 14.6002 7.92913 14.7665 8.1417 14.8842L11.3697 16.6671C11.4417 16.7071 11.5177 16.7414 11.596 16.7688V18.8574C11.5402 18.8348 11.4858 18.8088 11.4331 18.7796L6.41256 16.0065C6.20348 15.8923 6.02749 15.726 5.9017 15.5236C5.78021 15.3276 5.71552 15.1017 5.71484 14.8711V9.24021C5.71484 9.07907 5.74684 8.92135 5.80627 8.7745ZM18.6251 9.24021V14.8705C18.6251 15.0991 18.5606 15.3242 18.4383 15.5236C18.316 15.7225 18.14 15.8894 17.9268 16.0065L12.9063 18.7808C12.8531 18.8094 12.7988 18.8351 12.7434 18.8574V16.7168C12.7777 16.7019 12.8103 16.6854 12.8428 16.6671L16.0703 14.8842C16.2828 14.7665 16.4588 14.6002 16.5817 14.4008C16.704 14.2019 16.768 13.9768 16.768 13.7476V10.0991C16.768 10.0248 16.7611 9.9505 16.748 9.87621L18.5777 8.90364C18.6086 9.01221 18.6246 9.12535 18.6246 9.24078L18.6251 9.24021ZM12.9063 5.33164L17.8577 8.06592L16.1183 8.9905C16.1024 8.98105 16.0864 8.97191 16.0703 8.96307L12.8428 7.18021C12.617 7.05611 12.3634 6.99123 12.1057 6.99164C11.8468 6.99164 11.592 7.05678 11.3697 7.18021L8.29541 8.87792L6.62227 7.98821L11.4337 5.33107C11.6591 5.20745 11.9121 5.14278 12.1691 5.14307C12.4286 5.14307 12.6834 5.20821 12.9063 5.33107V5.33164Z"
        fill="#356EDB" />
    <path
        d="M8.64511 10.2274L11.8703 11.9354V15.6823C11.7065 15.6538 11.5485 15.5983 11.4028 15.5183L9.23711 14.3268C9.02707 14.2126 8.85026 14.0459 8.72397 13.8428C8.60227 13.6465 8.53757 13.4201 8.53711 13.1891V10.732C8.53711 10.5554 8.57539 10.3846 8.64511 10.2274ZM15.7365 10.7314V13.1891C15.7365 13.4183 15.6725 13.644 15.5497 13.8434C15.4268 14.0428 15.2503 14.2091 15.0365 14.3268L12.8714 15.5183C12.8337 15.5388 12.7948 15.5583 12.7554 15.5754V12.0526L15.7125 10.4868C15.7285 10.568 15.7371 10.6497 15.7371 10.7314H15.7365ZM12.8714 8.40228L15.0371 9.59428C15.1291 9.64513 15.2143 9.70456 15.2914 9.77313L12.4468 11.2777H12.3994L9.22968 9.5977L9.23654 9.5937L11.4023 8.4017C11.6276 8.2786 11.8803 8.21433 12.1371 8.21485C12.3954 8.21485 12.6491 8.27942 12.8714 8.4017V8.40228Z"
        fill="#356EDB" />
</svg>