<svg width="20" height="20" viewBox="0 0 20 20" fill="none"
    xmlns="http://www.w3.org/2000/svg">
    <rect width="20" height="20" rx="2" fill="#FCF6DA"/>
    <g clip-path="url(#clip0_7573_2169)">
        <path d="M7.07363 8.10998H10.8606C10.9535 8.10998 11.0425 8.0731 11.1081 8.00746C11.1738 7.94183 11.2106 7.8528 11.2106 7.75998C11.2106 7.66715 11.1738 7.57813 11.1081 7.51249C11.0425 7.44685 10.9535 7.40998 10.8606 7.40998H7.07363C6.98081 7.40998 6.89178 7.44685 6.82615 7.51249C6.76051 7.57813 6.72363 7.66715 6.72363 7.75998C6.72363 7.8528 6.76051 7.94183 6.82615 8.00746C6.89178 8.0731 6.98081 8.10998 7.07363 8.10998ZM7.07363 10.56H12.6736C12.7665 10.56 12.8555 10.5231 12.9211 10.4575C12.9868 10.3918 13.0236 10.3028 13.0236 10.21C13.0236 10.1171 12.9868 10.0281 12.9211 9.96249C12.8555 9.89685 12.7665 9.85998 12.6736 9.85998H7.07363C6.98081 9.85998 6.89178 9.89685 6.82615 9.96249C6.76051 10.0281 6.72363 10.1171 6.72363 10.21C6.72363 10.3028 6.76051 10.3918 6.82615 10.4575C6.89178 10.5231 6.98081 10.56 7.07363 10.56ZM7.64063 4.04998H12.0996C12.1925 4.04998 12.2815 4.0131 12.3471 3.94746C12.4128 3.88183 12.4496 3.7928 12.4496 3.69998C12.4496 3.60715 12.4128 3.51813 12.3471 3.45249C12.2815 3.38685 12.1925 3.34998 12.0996 3.34998H7.64063C7.54781 3.34998 7.45878 3.38685 7.39315 3.45249C7.32751 3.51813 7.29063 3.60715 7.29063 3.69998C7.29063 3.7928 7.32751 3.88183 7.39315 3.94746C7.45878 4.0131 7.54781 4.04998 7.64063 4.04998Z" fill="#3D3D3D"/>
        <path d="M10.1612 15.95H5.19121V4.25996H6.31121V4.95996C6.31121 5.05278 6.34809 5.14181 6.41372 5.20744C6.47936 5.27308 6.56839 5.30996 6.66121 5.30996H13.0942C13.187 5.30996 13.2761 5.27308 13.3417 5.20744C13.4073 5.14181 13.4442 5.05278 13.4442 4.95996V4.25996H14.5712V10.91C14.5712 11.0028 14.6081 11.0918 14.6737 11.1574C14.7394 11.2231 14.8284 11.26 14.9212 11.26C15.014 11.26 15.1031 11.2231 15.1687 11.1574C15.2343 11.0918 15.2712 11.0028 15.2712 10.91V3.90996C15.2713 3.86217 15.2616 3.81488 15.2427 3.77098C15.2238 3.72709 15.1961 3.68753 15.1614 3.65474C15.1266 3.62195 15.0855 3.59662 15.0406 3.58032C14.9957 3.56402 14.9479 3.55709 14.9002 3.55996H13.0942C13.0482 3.55996 13.0027 3.56901 12.9603 3.5866C12.9178 3.60419 12.8792 3.62997 12.8467 3.66247C12.8142 3.69497 12.7884 3.73355 12.7709 3.77602C12.7533 3.81848 12.7442 3.86399 12.7442 3.90996V4.60996H7.01121V3.90996C7.01121 3.81713 6.97434 3.72811 6.9087 3.66247C6.84306 3.59683 6.75404 3.55996 6.66121 3.55996H4.84121C4.74839 3.55996 4.65936 3.59683 4.59372 3.66247C4.52809 3.72811 4.49121 3.81713 4.49121 3.90996V16.3C4.49121 16.3928 4.52809 16.4818 4.59372 16.5474C4.65936 16.6131 4.74839 16.65 4.84121 16.65H10.1612C10.254 16.65 10.3431 16.6131 10.4087 16.5474C10.4743 16.4818 10.5112 16.3928 10.5112 16.3C10.5112 16.2071 10.4743 16.1181 10.4087 16.0525C10.3431 15.9868 10.254 15.95 10.1612 15.95Z" fill="#3D3D3D"/>
        <path d="M16.2566 12.925L15.4166 12.225C15.3322 12.1739 15.2352 12.1472 15.1366 12.148C15.0267 12.1205 14.9111 12.1257 14.8042 12.163C14.6972 12.2003 14.6035 12.2681 14.5346 12.358L11.9656 15.347C11.95 15.3669 11.9359 15.3879 11.9236 15.41C11.7968 15.9129 11.7613 16.4345 11.8186 16.95C11.8204 17.0342 11.8551 17.1143 11.9153 17.1732C11.9755 17.232 12.0564 17.265 12.1406 17.265C13.4356 17.118 13.6246 16.971 13.7016 16.852L16.2356 13.898C16.292 13.8571 16.3393 13.8049 16.3743 13.7446C16.4093 13.6843 16.4312 13.6173 16.4386 13.548C16.4608 13.4372 16.4558 13.3226 16.4241 13.2141C16.3924 13.1056 16.3349 13.0064 16.2566 12.925ZM15.0176 12.771H15.0876L15.8296 13.429L15.6686 13.611L14.8566 12.946L15.0176 12.771ZM13.7296 15.9L12.9386 15.2L14.4366 13.471L15.2486 14.171L13.7296 15.9ZM12.4556 16.6V15.718L12.4976 15.669L13.2956 16.369L13.2256 16.453C12.9724 16.5189 12.7152 16.568 12.4556 16.6Z" fill="#3D3D3D"/>
    </g>
    <defs>
        <clipPath id="clip0_7573_2169">
            <rect width="14" height="14" fill="white" transform="translate(3 3)"/>
        </clipPath>
    </defs>
</svg>
