<svg width="20" height="20" viewBox="0 0 20 20" fill="none"
    xmlns="http://www.w3.org/2000/svg">
    <rect width="20" height="20" rx="2" fill="#D8F5F8"/>
    <path d="M14.6454 15.6488H5.25955C4.04287 15.6488 3 14.6929 3 13.3893V6.61063C3 5.39395 3.95596 4.35107 5.25955 4.35107H14.7323C15.949 4.35107 16.9919 5.30704 16.9919 6.61063V13.4762C16.9049 14.6929 15.949 15.6488 14.6454 15.6488ZM5.25955 5.22013C4.4774 5.22013 3.86906 5.82847 3.86906 6.61063V13.4762C3.86906 14.2583 4.4774 14.8667 5.25955 14.8667H14.7323C15.5145 14.8667 16.1228 14.2583 16.1228 13.4762V6.61063C16.1228 5.82847 15.5145 5.22013 14.7323 5.22013H5.25955Z" fill="#3D3D3D"/>
    <path d="M7.95392 10.869C6.91105 10.869 6.04199 9.99997 6.04199 8.9571C6.04199 7.91423 6.91105 7.04517 7.95392 7.04517C8.99679 7.04517 9.86585 7.91423 9.86585 8.9571C9.86585 10.0869 8.99679 10.869 7.95392 10.869ZM7.95392 7.91423C7.34558 7.91423 6.82415 8.43566 6.82415 8.9571C6.82415 9.47853 7.34558 9.99997 7.95392 9.99997C8.56226 9.99997 8.99679 9.56544 8.99679 8.9571C8.99679 8.34875 8.47536 7.91423 7.95392 7.91423Z" fill="#3D3D3D"/>
    <path d="M10.8218 13.1286C10.648 13.1286 10.4742 12.9548 10.3873 12.781C10.0397 11.1298 8.7361 10.8691 7.95395 10.8691C7.17179 10.8691 5.8682 11.1298 5.60749 12.781C5.52058 13.0417 5.34677 13.1286 5.08605 13.1286C4.82533 13.0417 4.65152 12.8679 4.73843 12.6072C5.08605 11.0429 6.30273 10 7.95395 10C9.60516 10 10.9087 10.956 11.1695 12.6072C11.2564 12.8679 11.0826 13.0417 10.8218 13.1286Z" fill="#3D3D3D"/>
    <path d="M14.7321 9.1309H12.125C11.8642 9.1309 11.6904 8.95709 11.6904 8.69637C11.6904 8.43565 11.8642 8.26184 12.125 8.26184H14.7321C14.9929 8.26184 15.1667 8.43565 15.1667 8.69637C15.1667 8.95709 14.9929 9.1309 14.7321 9.1309Z" fill="#3D3D3D"/>
    <path d="M12.994 11.2167H12.125C11.8642 11.2167 11.6904 11.0429 11.6904 10.7822C11.6904 10.5215 11.8642 10.3477 12.125 10.3477H12.994C13.2547 10.3477 13.4285 10.5215 13.4285 10.7822C13.4285 11.0429 13.2547 11.2167 12.994 11.2167Z" fill="#3D3D3D"/>
</svg>
