<svg width="20" height="20" viewBox="0 0 20 20" fill="none"
    xmlns="http://www.w3.org/2000/svg">
    <rect width="20" height="20" rx="2" fill="#D8F5F8"/>
    <g clip-path="url(#clip0_7573_2165)">
        <path d="M4.29253 4.10795C4.24356 4.10795 4.1966 4.1274 4.16197 4.16203C4.12734 4.19666 4.10789 4.24363 4.10789 4.2926V5.97077C4.10789 6.11769 4.04953 6.2586 3.94564 6.36249C3.84176 6.46638 3.70086 6.52474 3.55394 6.52474C3.40703 6.52474 3.26613 6.46638 3.16225 6.36249C3.05836 6.2586 3 6.11769 3 5.97077V4.2926C3 3.57835 3.57832 3 4.29253 3H6.77642C6.92333 3 7.06423 3.05836 7.16812 3.16225C7.272 3.26614 7.33036 3.40705 7.33036 3.55397C7.33036 3.7009 7.272 3.8418 7.16812 3.94569C7.06423 4.04958 6.92333 4.10795 6.77642 4.10795H4.29253ZM12.6682 3.55397C12.6682 3.40705 12.7265 3.26614 12.8304 3.16225C12.9343 3.05836 13.0752 3 13.2221 3H15.7067C16.4209 3 16.9993 3.57835 16.9993 4.2926V5.97077C16.9993 6.11769 16.9409 6.2586 16.837 6.36249C16.7331 6.46638 16.5922 6.52474 16.4453 6.52474C16.2984 6.52474 16.1575 6.46638 16.0536 6.36249C15.9497 6.2586 15.8914 6.11769 15.8914 5.97077V4.2926C15.8914 4.24363 15.8719 4.19666 15.8373 4.16203C15.8027 4.1274 15.7557 4.10795 15.7067 4.10795H13.2228C13.0759 4.10795 12.935 4.04958 12.8311 3.94569C12.7273 3.8418 12.6689 3.7009 12.6689 3.55397H12.6682ZM3.55468 13.4753C3.7016 13.4753 3.84249 13.5336 3.94638 13.6375C4.05026 13.7414 4.10863 13.8823 4.10863 14.0292V15.7074C4.10863 15.8093 4.19135 15.8921 4.29327 15.8921H6.77716C6.92407 15.8921 7.06497 15.9504 7.16885 16.0543C7.27274 16.1582 7.3311 16.2991 7.3311 16.446C7.3311 16.5929 7.27274 16.7339 7.16885 16.8377C7.06497 16.9416 6.92407 17 6.77716 17H4.29253C3.94973 17 3.62097 16.8638 3.37857 16.6214C3.13618 16.379 3 16.0502 3 15.7074V14.0292C3 13.8823 3.05836 13.7414 3.16225 13.6375C3.26613 13.5336 3.40703 13.4753 3.55394 13.4753H3.55468ZM16.4461 13.4753C16.593 13.4753 16.7339 13.5336 16.8378 13.6375C16.9416 13.7414 17 13.8823 17 14.0292V15.7074C17 16.0502 16.8638 16.379 16.6214 16.6214C16.379 16.8638 16.0503 17 15.7075 17H13.2236C13.0767 17 12.9358 16.9416 12.8319 16.8377C12.728 16.7339 12.6696 16.5929 12.6696 16.446C12.6696 16.2991 12.728 16.1582 12.8319 16.0543C12.9358 15.9504 13.0767 15.8921 13.2236 15.8921H15.7075C15.7564 15.8921 15.8034 15.8726 15.838 15.838C15.8727 15.8033 15.8921 15.7564 15.8921 15.7074V14.0292C15.8921 13.8823 15.9505 13.7414 16.0544 13.6375C16.1582 13.5336 16.2991 13.4753 16.4461 13.4753ZM15.2828 10.4823L16.3227 12.3296H15.0701L14.2118 10.6891H13.6734V12.3296H12.5522V7.67036H14.262C15.2577 7.67036 16.0841 8.00865 16.0841 9.1358C16.0841 9.8183 15.7651 10.257 15.2828 10.4823ZM14.1749 8.55302H13.6734V9.80574H14.1741C14.7067 9.80574 14.9888 9.57381 14.9888 9.1358C14.9888 8.69706 14.7067 8.55302 14.1741 8.55302H14.1749ZM7.82448 9.97489C7.82448 11.5031 6.96033 12.4175 5.68921 12.4175C4.4181 12.4175 3.55394 11.5031 3.55394 9.97489C3.55394 8.44666 4.4181 7.58246 5.68847 7.58246C6.96033 7.58246 7.82448 8.45331 7.82448 9.97563V9.97489ZM5.68921 8.54047C5.07544 8.54047 4.6995 9.07302 4.6995 9.97489C4.6995 10.8834 5.07544 11.4529 5.68921 11.4529C6.30224 11.4529 6.68483 10.8827 6.68483 9.97563C6.68483 9.07302 6.30298 8.54047 5.68921 8.54047ZM9.46489 9.98744C9.46489 10.9144 9.89106 11.4529 10.5484 11.4529C10.9177 11.4529 11.219 11.2653 11.4377 11.0267L12.0263 11.7284C11.6319 12.1856 11.1119 12.4175 10.5048 12.4175C9.32087 12.4175 8.3186 11.6036 8.3186 10.0244C8.3186 8.47177 9.35853 7.58246 10.5418 7.58246C11.1496 7.58246 11.6386 7.86462 11.9576 8.19036L11.369 8.90387C11.1371 8.69115 10.8933 8.54047 10.561 8.54047C9.95975 8.54047 9.46489 9.07967 9.46489 9.98744Z" fill="#3D3D3D"/>
    </g>
    <defs>
        <clipPath id="clip0_7573_2165">
            <rect width="14" height="14" fill="white" transform="translate(3 3)"/>
        </clipPath>
    </defs>
</svg>
