<svg width="20" height="20" viewBox="0 0 20 20" fill="none"
    xmlns="http://www.w3.org/2000/svg">
    <rect width="20" height="20" rx="2" fill="#E8F0FE"/>
    <g clip-path="url(#clip0_7573_2197)">
        <path fill-rule="evenodd" clip-rule="evenodd" d="M12.0302 7.40999C12.0302 7.17803 12.2183 6.98999 12.4502 6.98999H14.4802C15.64 6.98999 16.5802 7.93019 16.5802 9.08999V14.41C16.5802 15.5698 15.64 16.51 14.4802 16.51H9.09023C7.93044 16.51 6.99023 15.5698 6.99023 14.41V12.31C6.99023 12.078 7.17827 11.89 7.41023 11.89C7.64219 11.89 7.83023 12.078 7.83023 12.31V14.41C7.83023 15.1059 8.39436 15.67 9.09023 15.67H14.4802C15.1761 15.67 15.7402 15.1059 15.7402 14.41V9.08999C15.7402 8.39411 15.1761 7.82999 14.4802 7.82999H12.4502C12.2183 7.82999 12.0302 7.64195 12.0302 7.40999Z" fill="#3D3D3D"/>
        <path d="M10.6917 9.46165V4.44407C10.6917 3.8775 10.2343 3.42004 9.66758 3.42004H4.65014C4.08357 3.42004 3.62598 3.8775 3.62598 4.44407V9.45549C3.62598 10.0221 4.08344 10.4795 4.65014 10.4795H9.66156C10.2281 10.4828 10.6887 10.0283 10.6917 9.46165ZM9.02527 8.93747C8.97674 8.96167 8.92219 8.97383 8.86463 8.97383C8.72832 8.98901 8.59502 8.91928 8.5283 8.80116L8.11021 7.92561H6.19834L5.75592 8.80116C5.69836 8.986 5.50135 9.08594 5.31965 9.02838C5.1348 8.97083 5.03486 8.77381 5.09242 8.59211C5.10459 8.55575 5.12277 8.51938 5.14396 8.48903L6.84064 5.1077C6.94674 4.93803 7.17096 4.88649 7.33762 4.99258C7.38301 5.02293 7.42252 5.06231 7.45273 5.1077L9.17375 8.48301C9.25551 8.65268 9.18893 8.84969 9.02527 8.93747Z" fill="#3D3D3D"/>
        <path fill-rule="evenodd" clip-rule="evenodd" d="M14.1302 10.42C14.2848 10.42 14.4102 10.5454 14.4102 10.7L14.4102 13.43C14.4102 13.5847 14.2848 13.71 14.1302 13.71C13.9755 13.71 13.8502 13.5847 13.8502 13.43L13.8502 10.7C13.8502 10.5454 13.9755 10.42 14.1302 10.42Z" fill="#3D3D3D"/>
        <path fill-rule="evenodd" clip-rule="evenodd" d="M12.5901 9.57996C12.7448 9.57996 12.8701 9.70532 12.8701 9.85996L12.8701 14.2C12.8701 14.3546 12.7448 14.48 12.5901 14.48C12.4355 14.48 12.3101 14.3546 12.3101 14.2L12.3101 9.85996C12.3101 9.70532 12.4355 9.57996 12.5901 9.57996Z" fill="#3D3D3D"/>
        <path fill-rule="evenodd" clip-rule="evenodd" d="M11.0501 10.98C11.2047 10.98 11.3301 11.1053 11.3301 11.26L11.3301 12.8C11.3301 12.9546 11.2047 13.08 11.0501 13.08C10.8954 13.08 10.7701 12.9546 10.7701 12.8L10.7701 11.26C10.7701 11.1053 10.8954 10.98 11.0501 10.98Z" fill="#3D3D3D"/>
        <path d="M7.12958 6.15002L7.67518 7.09502H6.58398L7.12958 6.15002Z" fill="#3D3D3D"/>
    </g>
    <defs>
        <clipPath id="clip0_7573_2197">
            <rect width="14" height="14" fill="white" transform="translate(3 3)"/>
        </clipPath>
    </defs>
</svg>
