<svg width="20" height="20" viewBox="0 0 20 20" fill="none"
    xmlns="http://www.w3.org/2000/svg">
    <rect width="20" height="20" rx="2" fill="#FCF6DA"/>
    <g clip-path="url(#clip0_7573_2190)">
        <path d="M14.6849 12.5H12.8151C12.6413 12.5 12.5 12.6122 12.5 12.75C12.5 12.8879 12.6413 13 12.8151 13H14.6849C14.8587 13 15 12.8879 15 12.75C15 12.6122 14.8587 12.5 14.6849 12.5Z" fill="#3D3D3D"/>
        <path d="M16.4443 13.0499L15.6109 11.2959C15.5241 11.1134 15.3528 11 15.1637 11H12.3364C12.1473 11 11.9759 11.1134 11.8891 11.296L11.0557 13.0499C10.981 13.2072 10.9826 13.3925 11.0535 13.5462L11.0396 13.5611L13.3796 16.3237C13.3891 16.3349 13.3989 16.3456 13.4092 16.3558C13.5057 16.4523 13.6279 16.5 13.7498 16.5C13.8857 16.5 14.0213 16.4407 14.1203 16.3237L16.3674 13.6708C16.5099 13.5026 16.5408 13.2531 16.4443 13.0499ZM15.824 13.2754L13.75 15.724L11.676 13.2753L12.4235 11.7021H15.0765L15.824 13.2754Z" fill="#3D3D3D"/>
        <path d="M8.11416 16H4.61018C3.72232 16 3 15.3163 3 14.476V4.52399C3 3.68366 3.72232 3 4.61018 3H13.3898C14.2777 3 15 3.68366 15 4.52399V8.46277C15 8.69191 14.8037 8.87766 14.5616 8.87766C14.3195 8.87766 14.1233 8.69191 14.1233 8.46277V4.52399C14.1233 4.1412 13.7942 3.82979 13.3898 3.82979H4.61018C4.20574 3.82979 3.87671 4.14122 3.87671 4.52399V14.476C3.87671 14.8588 4.20576 15.1702 4.61018 15.1702H8.11416C8.35626 15.1702 8.55252 15.356 8.55252 15.5851C8.55252 15.8142 8.35625 16 8.11416 16Z" fill="#3D3D3D"/>
        <path d="M5.5 6H12V6.9H5.5V6ZM5.5 9.6H9.85028V10.5H5.5V9.6Z" fill="#3D3D3D"/>
    </g>
    <defs>
        <clipPath id="clip0_7573_2190">
            <rect width="14" height="14" fill="white" transform="translate(3 3)"/>
        </clipPath>
    </defs>
</svg>
