<svg width="24" height="24" viewBox="0 0 24 24" fill="none" xmlns="http://www.w3.org/2000/svg">
<rect width="24" height="24" rx="2" fill="#E0EBFE"/>
<path d="M5.92802 7.73713C6.43088 7.3257 7.14402 7.38284 7.75316 7.55427C8.36231 7.7257 9.06174 8.0617 9.79888 8.51884L10.1177 8.72227L10.2069 8.79542C10.3 8.88826 10.3582 9.01038 10.3718 9.14117C10.3854 9.27197 10.3534 9.40343 10.2813 9.5134C10.2092 9.62336 10.1014 9.7051 9.976 9.74481C9.85065 9.78453 9.71543 9.7798 9.59316 9.73142L9.49031 9.6777L9.19316 9.48913C8.51202 9.06627 7.91431 8.78627 7.44345 8.65484C6.86631 8.49142 6.67545 8.5977 6.63888 8.63199C6.61374 8.65942 6.53259 8.78399 6.59774 9.1657C6.66059 9.53713 6.84574 10.0308 7.16459 10.6228C7.79888 11.8 8.90059 13.2491 10.3269 14.6766C10.7189 15.0674 11.1132 15.4331 11.5029 15.7737C11.8914 15.4331 12.288 15.0686 12.68 14.6766C13.072 14.2846 13.4366 13.888 13.7772 13.4994C13.592 13.288 13.4 13.0731 13.1989 12.8594L12.68 12.3246L12.6057 12.2343C12.5336 12.1244 12.5015 11.9929 12.515 11.8621C12.5284 11.7313 12.5866 11.6092 12.6796 11.5163C12.7727 11.4233 12.8949 11.3654 13.0257 11.3521C13.1565 11.3388 13.2879 11.3711 13.3977 11.4434L13.488 11.5166L14.0297 12.0731C14.1954 12.2503 14.3577 12.4286 14.5143 12.6057C14.632 12.456 14.7486 12.3097 14.8572 12.1634L15.1852 11.6971C15.2892 11.5451 15.3874 11.3943 15.4789 11.248C15.5592 11.1195 15.6873 11.0281 15.835 10.994C15.9826 10.96 16.1378 10.986 16.2663 11.0663C16.3948 11.1466 16.4862 11.2747 16.5202 11.4224C16.5543 11.57 16.5283 11.7252 16.448 11.8537C16.3486 12.0126 16.2423 12.1748 16.1314 12.3394L15.7772 12.8377C15.6172 13.0571 15.448 13.2777 15.2697 13.5006C15.8639 14.2309 16.3924 15.0122 16.8492 15.8354C17.1977 16.4823 17.4446 17.1006 17.5372 17.6411C17.6263 18.1668 17.5909 18.7566 17.1795 19.1726C16.7669 19.5897 16.1737 19.6263 15.6503 19.5383C15.1086 19.4468 14.4903 19.1977 13.8423 18.8491C13.1189 18.4594 12.3223 17.9188 11.5029 17.2617C10.6834 17.9166 9.89145 18.4571 9.16916 18.8457C8.52231 19.1943 7.90402 19.44 7.36231 19.5337C6.87088 19.6171 6.32116 19.5908 5.91202 19.248L5.83202 19.176L5.82974 19.1737C5.30402 18.648 5.37945 17.8434 5.58402 17.168C5.80459 16.4377 6.25374 15.584 6.86059 14.6891L6.93488 14.6C7.03634 14.501 7.171 14.4432 7.31268 14.4379C7.45436 14.4326 7.59295 14.4802 7.70152 14.5714C7.81009 14.6625 7.88088 14.7908 7.90014 14.9313C7.9194 15.0718 7.88575 15.2144 7.80574 15.3314L7.60002 15.6434C7.14174 16.36 6.82974 16.9943 6.67774 17.4971C6.49031 18.1166 6.60002 18.3246 6.63659 18.3634C6.66288 18.3886 6.78631 18.472 7.17031 18.4057C7.54059 18.3428 8.03431 18.1577 8.62631 17.8388C9.323 17.4523 9.98659 17.0089 10.6103 16.5131C10.2363 16.1812 9.87238 15.8382 9.51888 15.4846C8.03659 14 6.85831 12.4651 6.15774 11.1646C5.80916 10.5188 5.56345 9.89942 5.46974 9.35884C5.38059 8.83313 5.41602 8.24342 5.82745 7.82742L5.82974 7.82627L5.92802 7.73713ZM14.5132 14.3886C14.1909 14.7531 13.8503 15.1211 13.488 15.4846C13.1257 15.8468 12.7589 16.1897 12.3943 16.5131C13.1029 17.0674 13.7806 17.5177 14.3852 17.8434C14.9772 18.1634 15.4709 18.3474 15.8412 18.4103C16.2274 18.4766 16.3463 18.3897 16.3669 18.368C16.392 18.3428 16.4754 18.2194 16.4103 17.8343C16.3463 17.4628 16.1612 16.9691 15.8434 16.3771C15.5177 15.7726 15.0663 15.0971 14.5132 14.3886Z" fill="#356EDB"/>
<path d="M11.5725 12.4594C11.6816 12.4553 11.7903 12.4733 11.8923 12.5122C11.9942 12.5511 12.0873 12.6102 12.1659 12.6859C12.2445 12.7616 12.307 12.8523 12.3497 12.9527C12.3924 13.0532 12.4144 13.1612 12.4144 13.2703C12.4144 13.3794 12.3924 13.4874 12.3497 13.5878C12.307 13.6882 12.2445 13.779 12.1659 13.8547C12.0873 13.9304 11.9942 13.9895 11.8923 14.0284C11.7903 14.0673 11.6816 14.0852 11.5725 14.0811C11.3627 14.0733 11.1642 13.9844 11.0185 13.8332C10.8729 13.682 10.7915 13.4802 10.7915 13.2703C10.7915 13.0604 10.8729 12.8586 11.0185 12.7074C11.1642 12.5562 11.3627 12.4673 11.5725 12.4594ZM12.4422 9.032C12.5037 8.98885 12.573 8.95823 12.6463 8.94188C12.7196 8.92554 12.7954 8.92379 12.8694 8.93674C12.9434 8.94968 13.0141 8.97707 13.0774 9.01734C13.1408 9.05761 13.1957 9.10997 13.2388 9.17143C13.282 9.23289 13.3126 9.30224 13.3289 9.37553C13.3453 9.44883 13.347 9.52462 13.3341 9.59859C13.3211 9.67256 13.2937 9.74325 13.2535 9.80664C13.2132 9.87002 13.1608 9.92485 13.0994 9.968C12.1101 10.6732 11.1826 11.4612 10.3268 12.3234C10.219 12.4275 10.0747 12.4851 9.92486 12.4838C9.77503 12.4825 9.63171 12.4224 9.52577 12.3165C9.41982 12.2105 9.35972 12.0672 9.35842 11.9174C9.35712 11.7675 9.41471 11.6232 9.5188 11.5154C10.4211 10.6062 11.3991 9.77542 12.4422 9.032ZM15.3748 5.16571C15.4548 4.952 15.5759 4.93828 15.6559 5.16571H15.6297L16.0571 6.41943C16.1245 6.63314 16.3657 6.87314 16.5919 6.95314L17.8342 7.36571C18.0479 7.43314 18.0605 7.55428 17.8342 7.63428L16.5782 8.06057C16.3645 8.12686 16.1234 8.36686 16.0434 8.59314L15.6297 9.83428C15.5622 10.048 15.4422 10.0617 15.3622 9.83428L14.9348 8.59428C14.8674 8.38171 14.6137 8.14171 14.3999 8.06171L13.1702 7.63428C12.9428 7.55428 12.9428 7.43314 13.1702 7.35314L14.4137 6.93943C14.6274 6.87314 14.8674 6.63314 14.9474 6.40571L15.3748 5.16571Z" fill="#356EDB"/>
</svg>
