<svg width="20" height="20" viewBox="0 0 20 20" fill="none"
    xmlns="http://www.w3.org/2000/svg">
    <rect width="20" height="20" rx="2" fill="#D8F5F8"/>
    <g clip-path="url(#clip0_7574_1336)">
        <path d="M7 11.5V10.5H6C5.86739 10.5 5.74021 10.4473 5.64645 10.3536C5.55268 10.2598 5.5 10.1326 5.5 10C5.5 9.86739 5.55268 9.74022 5.64645 9.64645C5.74021 9.55268 5.86739 9.5 6 9.5H6.793L5.646 8.354C5.59951 8.30751 5.56264 8.25232 5.53748 8.19158C5.51232 8.13084 5.49937 8.06574 5.49937 8C5.49937 7.86722 5.55211 7.73989 5.646 7.646C5.73989 7.55211 5.86722 7.49937 6 7.49937C6.13278 7.49937 6.26011 7.55211 6.354 7.646L7.5 8.793L8.646 7.646C8.73989 7.55211 8.86722 7.49937 9 7.49937C9.13278 7.49937 9.26011 7.55211 9.354 7.646C9.44789 7.73989 9.50063 7.86722 9.50063 8C9.50063 8.13278 9.44789 8.26011 9.354 8.354L8.207 9.5H9C9.13261 9.5 9.25979 9.55268 9.35355 9.64645C9.44732 9.74022 9.5 9.86739 9.5 10C9.5 10.1326 9.44732 10.2598 9.35355 10.3536C9.25979 10.4473 9.13261 10.5 9 10.5H8V11.5H9C9.13259 11.5 9.25975 11.5527 9.3535 11.6465C9.44725 11.7402 9.49992 11.8674 9.49992 12C9.49992 12.1326 9.44725 12.2598 9.3535 12.3535C9.25975 12.4473 9.13259 12.5 9 12.5H8V13C8.00001 13.0657 7.98709 13.1307 7.96196 13.1914C7.93684 13.252 7.90001 13.3072 7.85358 13.3536C7.80715 13.4 7.75203 13.4369 7.69136 13.462C7.63069 13.4871 7.56567 13.5001 7.5 13.5001C7.43433 13.5001 7.36931 13.4871 7.30864 13.462C7.24797 13.4369 7.19285 13.4 7.14642 13.3536C7.09999 13.3072 7.06316 13.252 7.03804 13.1914C7.01291 13.1307 6.99999 13.0657 7 13V12.5H6C5.86741 12.5 5.74025 12.4473 5.6465 12.3535C5.55275 12.2598 5.50008 12.1326 5.50008 12C5.50008 11.8674 5.55275 11.7402 5.6465 11.6465C5.74025 11.5527 5.86741 11.5 6 11.5H7ZM13 4C13 4.26522 13.1054 4.51957 13.2929 4.70711C13.4804 4.89464 13.7348 5 14 5C14.2652 5 14.5196 4.89464 14.7071 4.70711C14.8946 4.51957 15 4.26522 15 4H16C16.2652 4 16.5196 4.10536 16.7071 4.29289C16.8946 4.48043 17 4.73478 17 5V15C17 15.2652 16.8946 15.5196 16.7071 15.7071C16.5196 15.8946 16.2652 16 16 16H4C3.73478 16 3.48043 15.8946 3.29289 15.7071C3.10536 15.5196 3 15.2652 3 15V5C3 4.73478 3.10536 4.48043 3.29289 4.29289C3.48043 4.10536 3.73478 4 4 4H5C5 4.13132 5.02587 4.26136 5.07612 4.38268C5.12638 4.50401 5.20003 4.61425 5.29289 4.70711C5.38575 4.79997 5.49599 4.87362 5.61732 4.92388C5.73864 4.97413 5.86868 5 6 5C6.13132 5 6.26136 4.97413 6.38268 4.92388C6.50401 4.87362 6.61425 4.79997 6.70711 4.70711C6.79997 4.61425 6.87362 4.50401 6.92388 4.38268C6.97413 4.26136 7 4.13132 7 4H9C9 4.13132 9.02587 4.26136 9.07612 4.38268C9.12638 4.50401 9.20003 4.61425 9.29289 4.70711C9.38575 4.79997 9.49599 4.87362 9.61732 4.92388C9.73864 4.97413 9.86868 5 10 5C10.1313 5 10.2614 4.97413 10.3827 4.92388C10.504 4.87362 10.6142 4.79997 10.7071 4.70711C10.8 4.61425 10.8736 4.50401 10.9239 4.38268C10.9741 4.26136 11 4.13132 11 4H13ZM11.732 5C11.5565 5.30401 11.304 5.55647 11 5.73199C10.6959 5.90751 10.3511 5.99991 10 5.99991C9.64894 5.99991 9.30407 5.90751 9.00004 5.73199C8.69602 5.55647 8.44354 5.30401 8.268 5H7.732C7.55646 5.30401 7.30398 5.55647 6.99996 5.73199C6.69593 5.90751 6.35106 5.99991 6 5.99991C5.64894 5.99991 5.30407 5.90751 5.00004 5.73199C4.69602 5.55647 4.44354 5.30401 4.268 5H4V15H16V5H15.732C15.5565 5.30401 15.304 5.55647 15 5.73199C14.6959 5.90751 14.3511 5.99991 14 5.99991C13.6489 5.99991 13.3041 5.90751 13 5.73199C12.696 5.55647 12.4435 5.30401 12.268 5H11.732ZM12 9.5H14.5C14.5657 9.5 14.6307 9.51293 14.6913 9.53806C14.752 9.56319 14.8071 9.60002 14.8536 9.64645C14.9 9.69288 14.9368 9.748 14.9619 9.80866C14.9871 9.86932 15 9.93434 15 10C15 10.0657 14.9871 10.1307 14.9619 10.1913C14.9368 10.252 14.9 10.3071 14.8536 10.3536C14.8071 10.4 14.752 10.4368 14.6913 10.4619C14.6307 10.4871 14.5657 10.5 14.5 10.5H12C11.8674 10.5 11.7402 10.4473 11.6464 10.3536C11.5527 10.2598 11.5 10.1326 11.5 10C11.5 9.86739 11.5527 9.74022 11.6464 9.64645C11.7402 9.55268 11.8674 9.5 12 9.5ZM12 11.5H13.5C13.5657 11.5 13.6307 11.5129 13.6914 11.538C13.752 11.5632 13.8072 11.6 13.8536 11.6464C13.9 11.6928 13.9369 11.748 13.962 11.8086C13.9871 11.8693 14.0001 11.9343 14.0001 12C14.0001 12.0657 13.9871 12.1307 13.962 12.1914C13.9369 12.252 13.9 12.3072 13.8536 12.3536C13.8072 12.4 13.752 12.4368 13.6914 12.462C13.6307 12.4871 13.5657 12.5 13.5 12.5H12C11.8674 12.5 11.7402 12.4473 11.6465 12.3535C11.5527 12.2598 11.5001 12.1326 11.5001 12C11.5001 11.8674 11.5527 11.7402 11.6465 11.6465C11.7402 11.5527 11.8674 11.5 12 11.5Z" fill="#3D3D3D"/>
    </g>
    <defs>
        <clipPath id="clip0_7574_1336">
            <rect width="14" height="14" fill="white" transform="translate(3 3)"/>
        </clipPath>
    </defs>
</svg>
