<svg width="48" height="48" viewBox="0 0 48 48" fill="none" xmlns="http://www.w3.org/2000/svg">
<rect width="48" height="48" rx="8" fill="#F3E5F5"/>
<path d="M23.0354 13.0763L13.326 17.6515C13.0018 17.8042 12.7284 18.0471 12.5385 18.351C12.3486 18.655 12.2502 19.0071 12.2551 19.3655C12.2599 19.7238 12.3679 20.0732 12.5659 20.3719C12.764 20.6705 13.0439 20.9059 13.3722 21.0498L23.0816 25.3058C23.3179 25.4093 23.5731 25.4628 23.8311 25.4628C24.0891 25.4628 24.3443 25.4093 24.5806 25.3058L34.29 21.0484C34.6182 20.9044 34.8981 20.6691 35.0961 20.3704C35.2942 20.0717 35.4021 19.7223 35.4069 19.3639C35.4117 19.0056 35.3133 18.6534 35.1233 18.3495C34.9334 18.0456 34.66 17.8028 34.3358 17.6501L24.6263 13.0768C24.3774 12.9595 24.1057 12.8987 23.8306 12.8987C23.5555 12.8987 23.2838 12.9595 23.035 13.0768L23.0354 13.0763ZM14.1216 19.3399L23.8311 14.7652L33.5401 19.3385L23.8306 23.5959L14.1216 19.3399ZM33.5387 28.74C33.7613 28.644 34.0126 28.6384 34.2393 28.7245C34.466 28.8105 34.6503 28.9814 34.7532 29.2009C34.8561 29.4204 34.8696 29.6714 34.7907 29.9007C34.7118 30.1299 34.5468 30.3195 34.3306 30.4293L34.2648 30.4601L24.1802 34.717C23.9748 34.8038 23.7452 34.8142 23.5329 34.7464L23.4545 34.717L13.3703 30.461C13.148 30.3672 12.9708 30.1909 12.8756 29.9693C12.7805 29.7476 12.7749 29.4977 12.86 29.2719C12.9451 29.0462 13.1143 28.8622 13.3321 28.7585C13.5499 28.6548 13.7994 28.6394 14.0283 28.7157L14.0964 28.7414L23.8171 32.8443L33.5387 28.74Z" fill="#3D3D3D"/>
<path d="M33.3337 24L23.9961 28.2009L14.667 24.0093V25.519C14.667 25.8872 14.8789 26.2204 15.206 26.3646L23.0315 29.8366C23.3308 29.9871 23.6611 30.0657 23.9961 30.0662C24.3256 30.0662 24.6546 29.9897 24.9612 29.8366L32.7951 26.3571C32.9568 26.2831 33.0937 26.1639 33.1893 26.0139C33.2848 25.8638 33.335 25.6894 33.3337 25.5115V24Z" fill="#3D3D3D"/>
</svg>
