<svg width="24" height="24" viewBox="0 0 24 24" fill="none" xmlns="http://www.w3.org/2000/svg">
  <g clip-path="url(#clip0_12120_1848)">
    <path
      d="M22.4191 0.0117188H1.58036C0.718064 0.0117188 0.0234375 0.706345 0.0234375 1.56864V22.4074C0.0234375 23.2697 0.718064 23.9644 1.58036 23.9644H22.4191C23.2814 23.9644 23.9761 23.2697 23.9761 22.4074V1.56864C23.9761 0.706345 23.2814 0.0117188 22.4191 0.0117188Z"
      fill="#15CEAA" />
    <g clip-path="url(#clip1_12120_1848)">
      <path
        d="M11.3601 4.95996C11.5957 4.95996 11.7864 5.15196 11.7864 5.3862V10.5062C11.7864 11.7798 9.85103 12.64 7.52015 12.64C5.19055 12.64 3.25391 11.7798 3.25391 10.5062V5.3862C3.25391 5.27315 3.29881 5.16474 3.37875 5.0848C3.45868 5.00487 3.5671 4.95996 3.68015 4.95996C3.79319 4.95996 3.90161 5.00487 3.98154 5.0848C4.06148 5.16474 4.10639 5.27315 4.10639 5.3862V10.5062C4.10639 11.1193 5.60911 11.7862 7.52015 11.7862C9.43119 11.7862 10.9339 11.1193 10.9339 10.5062V5.3862C10.9339 5.15196 11.1246 4.95996 11.3601 4.95996Z"
        fill="white" />
      <path
        d="M11.3601 7.51969C11.5957 7.51969 11.7864 7.71169 11.7864 7.94593C11.7864 9.21953 9.85103 10.0797 7.52015 10.0797C5.19055 10.0797 3.25391 9.21953 3.25391 7.94593C3.25391 7.83288 3.29881 7.72447 3.37875 7.64453C3.45868 7.5646 3.5671 7.51969 3.68015 7.51969C3.79319 7.51969 3.90161 7.5646 3.98154 7.64453C4.06148 7.72447 4.10639 7.83288 4.10639 7.94593C4.10639 8.55905 5.60911 9.22593 7.52015 9.22593C9.43119 9.22593 10.9339 8.55905 10.9339 7.94593C10.9339 7.71169 11.1246 7.51969 11.3601 7.51969ZM11.3601 5.38593C11.3601 6.32929 9.64111 7.09345 7.52015 7.09345C5.39919 7.09345 3.68015 6.32929 3.68015 5.38593C3.68015 4.44385 5.39919 3.67969 7.52015 3.67969C9.64111 3.67969 11.3601 4.44385 11.3601 5.38593Z"
        fill="white" />
      <path
        d="M7.52015 3.25391C9.84975 3.25391 11.7864 4.11407 11.7864 5.38639C11.7864 6.65999 9.85103 7.52015 7.52015 7.52015C5.19055 7.52015 3.25391 6.65999 3.25391 5.38639C3.25391 4.11535 5.18927 3.25391 7.52015 3.25391ZM7.52015 4.10639C5.60911 4.10639 4.10639 4.77455 4.10639 5.38639C4.10639 5.99951 5.60911 6.66639 7.52015 6.66639C9.43119 6.66639 10.9339 5.99951 10.9339 5.38639C10.9339 4.77455 9.43119 4.10639 7.52015 4.10639ZM20.7464 13.4939C20.9819 13.4939 21.1739 13.6846 21.1739 13.9201V19.0401C21.1739 20.3125 19.2373 21.1739 16.9064 21.1739C14.5768 21.1739 12.6401 20.3125 12.6401 19.0401V13.9201C12.6401 13.8069 12.6851 13.6984 12.7652 13.6183C12.8452 13.5382 12.9538 13.4933 13.067 13.4933C13.1802 13.4933 13.2888 13.5382 13.3689 13.6183C13.4489 13.6984 13.4939 13.8069 13.4939 13.9201V19.0401C13.4939 19.652 14.9953 20.3201 16.9064 20.3201C18.8174 20.3201 20.3201 19.652 20.3201 19.0401V13.9201C20.3201 13.6846 20.5121 13.4939 20.7464 13.4939Z"
        fill="white" />
      <path
        d="M20.7469 16.0539C20.9824 16.0539 21.1744 16.2446 21.1744 16.4801C21.1744 17.7524 19.2377 18.6139 16.9069 18.6139C14.5773 18.6139 12.6406 17.7524 12.6406 16.4801C12.6406 16.3669 12.6856 16.2583 12.7657 16.1783C12.8457 16.0982 12.9543 16.0532 13.0675 16.0532C13.1807 16.0532 13.2893 16.0982 13.3694 16.1783C13.4494 16.2583 13.4944 16.3669 13.4944 16.4801C13.4944 17.0919 14.9958 17.7601 16.9069 17.7601C18.8179 17.7601 20.3206 17.0919 20.3206 16.4801C20.3206 16.2446 20.5126 16.0539 20.7469 16.0539ZM20.7469 13.9201C20.7469 14.8622 19.0278 15.6263 16.9069 15.6263C14.7859 15.6263 13.0669 14.8622 13.0669 13.9201C13.0669 12.978 14.7859 12.2139 16.9069 12.2139C19.0278 12.2139 20.7469 12.978 20.7469 13.9201Z"
        fill="white" />
      <path
        d="M16.9074 11.786C19.237 11.786 21.1749 12.6474 21.1749 13.9197C21.1749 15.192 19.2383 16.0535 16.9074 16.0535C14.5778 16.0535 12.6412 15.192 12.6412 13.9197C12.6412 12.6474 14.5778 11.786 16.9074 11.786ZM16.9074 12.6397C14.9964 12.6397 13.4949 13.3079 13.4949 13.9197C13.4949 14.5316 14.9964 15.1997 16.9074 15.1997C18.8185 15.1997 20.3212 14.5316 20.3212 13.9197C20.3212 13.3079 18.8185 12.6397 16.9074 12.6397ZM18.1874 4.10596C19.365 4.10596 20.3212 5.06212 20.3212 6.23972V8.79972C20.3212 8.91293 20.2762 9.02151 20.1962 9.10157C20.1161 9.18162 20.0075 9.2266 19.8943 9.2266C19.7811 9.2266 19.6725 9.18162 19.5925 9.10157C19.5124 9.02151 19.4674 8.91293 19.4674 8.79972V6.23972C19.4674 5.90024 19.3326 5.57467 19.0925 5.33462C18.8525 5.09457 18.5269 4.95972 18.1874 4.95972H15.6274C15.5142 4.95972 15.4056 4.91474 15.3256 4.83469C15.2455 4.75463 15.2005 4.64605 15.2005 4.53284C15.2005 4.41962 15.2455 4.31104 15.3256 4.23099C15.4056 4.15093 15.5142 4.10596 15.6274 4.10596H18.1874ZM4.53494 15.1997C4.77046 15.1997 4.96118 15.3917 4.96118 15.626V18.186C4.96118 18.5254 5.09604 18.851 5.33609 19.0911C5.57613 19.3311 5.9017 19.466 6.24118 19.466H8.80118C8.9144 19.466 9.02298 19.5109 9.10303 19.591C9.18309 19.671 9.22806 19.7796 9.22806 19.8928C9.22806 20.0061 9.18309 20.1146 9.10303 20.1947C9.02298 20.2747 8.9144 20.3197 8.80118 20.3197H6.24118C5.06358 20.3197 4.10742 19.3648 4.10742 18.186V15.626C4.10742 15.3904 4.29942 15.1997 4.53494 15.1997Z"
        fill="white" />
    </g>
  </g>
  <defs>
    <clipPath id="clip0_12120_1848">
      <rect width="24" height="24" fill="white" />
    </clipPath>
    <clipPath id="clip1_12120_1848">
      <rect width="19.2" height="19.2" fill="white" transform="translate(2.40039 2.3999)" />
    </clipPath>
  </defs>
</svg>