<?xml version="1.0" encoding="utf-8"?>
<!-- Generator: Adobe Illustrator 21.0.0, SVG Export Plug-In . SVG Version: 6.00 Build 0)  -->
<svg version="1.1" id="图层_1" xmlns="http://www.w3.org/2000/svg" xmlns:xlink="http://www.w3.org/1999/xlink" x="0px" y="0px"
	 viewBox="0 0 460 46" style="enable-background:new 0 0 460 46;" xml:space="preserve">
<style type="text/css">
	.st0{fill:#FFFFFF;}
	.st1{fill:url(#SVGID_1_);}
	.st2{fill:url(#SVGID_2_);}
	.st3{fill:url(#SVGID_3_);}
	.st4{fill:url(#SVGID_4_);}
	.st5{fill:url(#SVGID_5_);}
	.st6{fill:url(#SVGID_6_);}
	.st7{fill:url(#SVGID_7_);}
	.st8{fill:url(#SVGID_8_);}
	.st9{fill:url(#SVGID_9_);}
</style>
<g>
	<g>
		<g>
			<g>
				<rect x="260.3" y="7.3" class="st0" width="1" height="32"/>
			</g>
		</g>
	</g>
</g>
<g>
	<g>
		<g>
			<path class="st0" d="M277.1,30l6.6-17.2h2.4l7,17.2h-2.6l-2-5.2h-7.2l-1.9,5.2H277.1z M282.1,23h5.8l-1.8-4.8
				c-0.5-1.4-1-2.6-1.2-3.6c-0.2,1.1-0.5,2.2-0.9,3.3L282.1,23z"/>
			<path class="st0" d="M295.4,30V12.9h2.3v17.2h-2.3V30z"/>
			<path class="st0" d="M301,21.7c0-2.9,0.8-5.1,2.3-6.7s3.5-2.4,5.9-2.4c1.6,0,3,0.4,4.3,1.1s2.2,1.8,2.9,3.2s1,2.9,1,4.6
				s-0.4,3.3-1.1,4.7s-1.7,2.4-3,3.1c-1.3,0.7-2.7,1.1-4.2,1.1c-1.6,0-3.1-0.4-4.3-1.2s-2.2-1.8-2.9-3.2S301,23.2,301,21.7z
				 M303.3,21.7c0,2.1,0.6,3.7,1.7,4.9s2.5,1.8,4.2,1.8s3.1-0.6,4.2-1.8s1.7-2.9,1.7-5.1c0-1.4-0.2-2.6-0.7-3.7s-1.2-1.9-2.1-2.4
				s-1.9-0.9-3.1-0.9c-1.6,0-3,0.6-4.2,1.7S303.3,19.1,303.3,21.7z"/>
			<path class="st0" d="M320.1,34.8V17.6h1.9v1.6c0.5-0.6,1-1.1,1.5-1.4s1.3-0.5,2.1-0.5c1.1,0,2,0.3,2.8,0.8s1.4,1.3,1.8,2.3
				s0.6,2.1,0.6,3.3c0,1.3-0.2,2.4-0.7,3.4s-1.1,1.8-2,2.3s-1.8,0.8-2.7,0.8c-0.7,0-1.3-0.1-1.9-0.4s-1-0.7-1.4-1.1v6.1
				C322.1,34.8,320.1,34.8,320.1,34.8z M322,23.9c0,1.6,0.3,2.8,1,3.6s1.4,1.1,2.4,1.1c0.9,0,1.7-0.4,2.4-1.2c0.7-0.8,1-2,1-3.7
				c0-1.6-0.3-2.8-1-3.6s-1.4-1.2-2.3-1.2s-1.7,0.4-2.4,1.3S322,22.3,322,23.9z"/>
			<path class="st0" d="M332.6,26.3l2.1-0.3c0.1,0.8,0.4,1.5,1,1.9c0.6,0.4,1.3,0.7,2.2,0.7c1,0,1.7-0.2,2.2-0.6
				c0.5-0.4,0.7-0.9,0.7-1.4s-0.2-0.9-0.6-1.1c-0.3-0.2-1-0.4-2.2-0.7c-1.5-0.4-2.6-0.7-3.2-1s-1.1-0.7-1.4-1.2s-0.5-1.1-0.5-1.7
				s0.1-1.1,0.4-1.5s0.6-0.9,1-1.2c0.3-0.2,0.8-0.4,1.3-0.6s1.2-0.3,1.8-0.3c1,0,1.8,0.1,2.6,0.4s1.3,0.7,1.6,1.1s0.6,1.1,0.7,1.9
				l-2.1,0.3c-0.1-0.6-0.4-1.1-0.8-1.5s-1.1-0.5-1.9-0.5c-1,0-1.7,0.2-2.1,0.5s-0.4,0.7-0.4,1.2c0,0.3,0.1,0.5,0.3,0.7
				c0.2,0.2,0.4,0.4,0.8,0.6c0.2,0.1,0.8,0.3,1.9,0.5c1.5,0.4,2.5,0.7,3.1,1s1.1,0.6,1.4,1.1s0.5,1.1,0.5,1.8c0,0.7-0.2,1.4-0.6,2
				s-1,1.1-1.8,1.4s-1.6,0.5-2.6,0.5c-1.6,0-2.8-0.3-3.7-1S332.8,27.7,332.6,26.3z"/>
			<path class="st0" d="M351.6,24.5l2.1-0.2c0.1,0.9,0.3,1.6,0.7,2.1s0.9,1,1.7,1.3c0.8,0.3,1.7,0.5,2.6,0.5s1.6-0.1,2.3-0.4
				s1.2-0.6,1.5-1.1s0.5-0.9,0.5-1.5c0-0.5-0.2-1-0.5-1.4s-0.8-0.7-1.5-1c-0.5-0.2-1.5-0.5-3.1-0.8s-2.7-0.7-3.3-1.1
				c-0.8-0.4-1.4-1-1.8-1.6s-0.6-1.3-0.6-2.1c0-0.9,0.2-1.7,0.7-2.4s1.2-1.3,2.2-1.7c1-0.4,2-0.6,3.2-0.6c1.3,0,2.4,0.2,3.4,0.6
				s1.7,1,2.2,1.8s0.8,1.7,0.8,2.7l-2.2,0.2c-0.1-1.1-0.5-1.9-1.2-2.5s-1.7-0.8-3-0.8c-1.4,0-2.4,0.3-3,0.8s-0.9,1.1-0.9,1.8
				c0,0.6,0.2,1.1,0.7,1.5c0.4,0.4,1.6,0.8,3.4,1.2s3.1,0.8,3.8,1.1c1,0.5,1.7,1,2.2,1.8s0.7,1.5,0.7,2.4s-0.3,1.8-0.8,2.6
				s-1.3,1.4-2.3,1.9s-2.1,0.7-3.3,0.7c-1.6,0-2.9-0.2-3.9-0.7s-1.9-1.1-2.5-2C351.8,26.7,351.6,25.7,351.6,24.5z"/>
			<path class="st0" d="M367.3,23.8c0-2.3,0.6-4,1.9-5.1c1.1-0.9,2.4-1.4,3.9-1.4c1.7,0,3.1,0.6,4.2,1.7s1.6,2.7,1.6,4.6
				c0,1.6-0.2,2.9-0.7,3.8c-0.5,0.9-1.2,1.6-2.1,2.1s-1.9,0.8-3,0.8c-1.7,0-3.2-0.6-4.2-1.7S367.3,25.9,367.3,23.8z M369.5,23.8
				c0,1.6,0.3,2.8,1,3.6c0.7,0.8,1.6,1.2,2.6,1.2s1.9-0.4,2.6-1.2s1-2,1-3.6c0-1.5-0.3-2.7-1-3.5s-1.6-1.2-2.6-1.2
				c-1.1,0-1.9,0.4-2.6,1.2S369.5,22.2,369.5,23.8z"/>
			<path class="st0" d="M381.4,30V12.9h2.1v17.2h-2.1V30z"/>
			<path class="st0" d="M394.9,30v-1.8c-1,1.4-2.3,2.1-3.9,2.1c-0.7,0-1.4-0.1-2.1-0.4s-1.1-0.6-1.4-1.1s-0.5-0.9-0.7-1.6
				c-0.1-0.4-0.1-1.1-0.1-2v-7.7h2.1v6.9c0,1.1,0,1.8,0.1,2.2c0.1,0.6,0.4,1,0.8,1.3c0.4,0.3,1,0.5,1.6,0.5s1.2-0.2,1.8-0.5
				c0.6-0.3,0.9-0.8,1.2-1.3s0.3-1.4,0.3-2.4v-6.7h2.1v12.4L394.9,30L394.9,30z"/>
			<path class="st0" d="M404.7,28.2l0.3,1.9c-0.6,0.1-1.1,0.2-1.6,0.2c-0.8,0-1.4-0.1-1.8-0.4s-0.7-0.6-0.9-1s-0.3-1.2-0.3-2.5v-7.2
				H399v-1.6h1.5v-3.1l2.1-1.3v4.3h2.1v1.6h-2.1v7.3c0,0.6,0,1,0.1,1.2s0.2,0.3,0.4,0.4c0.2,0.1,0.4,0.2,0.7,0.2
				C404,28.2,404.3,28.2,404.7,28.2z"/>
			<path class="st0" d="M406.8,15.3v-2.4h2.1v2.4H406.8z M406.8,30V17.6h2.1V30H406.8z"/>
			<path class="st0" d="M411.3,23.8c0-2.3,0.6-4,1.9-5.1c1.1-0.9,2.4-1.4,3.9-1.4c1.7,0,3.1,0.6,4.2,1.7s1.6,2.7,1.6,4.6
				c0,1.6-0.2,2.9-0.7,3.8c-0.5,0.9-1.2,1.6-2.1,2.1s-1.9,0.8-3,0.8c-1.7,0-3.2-0.6-4.2-1.7S411.3,25.9,411.3,23.8z M413.5,23.8
				c0,1.6,0.3,2.8,1,3.6c0.7,0.8,1.6,1.2,2.6,1.2s1.9-0.4,2.6-1.2s1-2,1-3.6c0-1.5-0.3-2.7-1-3.5s-1.6-1.2-2.6-1.2
				c-1.1,0-1.9,0.4-2.6,1.2S413.5,22.2,413.5,23.8z"/>
			<path class="st0" d="M425.5,30V17.6h1.9v1.8c0.9-1.4,2.2-2.1,4-2.1c0.8,0,1.4,0.1,2.1,0.4s1.1,0.6,1.4,1.1s0.5,1,0.7,1.6
				c0.1,0.4,0.1,1.1,0.1,2.1v7.7h-2.1v-7.6c0-0.9-0.1-1.5-0.2-1.9s-0.5-0.8-0.9-1s-0.9-0.4-1.5-0.4c-0.9,0-1.7,0.3-2.3,0.9
				s-1,1.7-1,3.2v6.8h-2.2V30z"/>
		</g>
	</g>
</g>
<g>
	<g>
		<g>
			<path class="st0" d="M112.3,8.7h-4.6c-0.1,0.1-7.7,19.2-9.2,22.9h4.6c0,0,5.8-14.6,6.9-17.2c0.5,1.3,2.2,5.5,3.8,9.5
				c-1.2-0.4-2.4-0.6-3.7-0.6c-1.3,0-2.6,0.2-3.8,0.6c1.1,0.1,2.7,0.8,4.7,1.9c1.7,1,4.2,2.9,5.7,5.3c0.1,0.3,0.2,0.5,0.2,0.5h4.6
				C119.8,27.6,112.5,9.2,112.3,8.7z"/>
		</g>
		<path class="st0" d="M137.3,31.6h-4v-8.5c0-2.6-0.9-3.9-2.8-3.9c-0.9,0-1.7,0.4-2.3,1.1c-0.6,0.7-0.9,1.6-0.9,2.7v8.6h-4V16.5h4
			V19h0c1.1-1.9,2.7-2.8,4.9-2.8c3.4,0,5,2.1,5,6.2V31.6z"/>
		<path class="st0" d="M155,16.4l-6.4,16.7c-1.4,3.7-3.5,5.5-6.3,5.5c-1,0-1.8-0.1-2.4-0.3v-3.3c0.6,0.3,1.2,0.5,1.9,0.5
			c1.2,0,2.1-0.6,2.6-1.8l0.9-2.2l-6.1-15.1h4.4l3.2,9.9c0.1,0.3,0.2,0.9,0.4,1.8h0.1c0.1-0.5,0.2-1.1,0.4-1.7l3.3-9.9H155z"/>
		<path class="st0" d="M174.4,31.5h-4.7l-3.4-5.6c-0.7-1.1-1.3-1.9-1.7-2.2c-0.5-0.4-1-0.5-1.6-0.5h-1.5v8.3h-4.1V10.4h7.2
			c4.9,0,7.3,1.9,7.3,5.7c0,1.4-0.4,2.6-1.2,3.6c-0.8,1-2,1.8-3.5,2.2V22c1,0.3,2,1.4,3.2,3.3L174.4,31.5z M161.5,13.6V20h2.4
			c1.1,0,2-0.3,2.7-1c0.7-0.6,1-1.5,1-2.4c0-2-1.2-3-3.6-3H161.5z"/>
		<path class="st0" d="M174.5,24.1c0-2.5,0.7-4.4,2.2-5.9c1.5-1.4,3.4-2.1,5.9-2.1c2.4,0,4.3,0.7,5.7,2.1c1.4,1.4,2.1,3.3,2.1,5.6
			c0,2.5-0.7,4.4-2.2,5.9c-1.4,1.5-3.4,2.2-5.9,2.2c-2.4,0-4.3-0.7-5.7-2.1C175.2,28.4,174.5,26.5,174.5,24.1z M178.6,24
			c0,3.2,1.3,4.8,4,4.8c2.5,0,3.8-1.6,3.8-4.9c0-3.1-1.3-4.7-3.8-4.7c-1.2,0-2.2,0.4-2.9,1.3C178.9,21.3,178.6,22.5,178.6,24z"/>
		<path class="st0" d="M197.7,29.7v1.9h-4V9.2h4v9.6h0c1.2-1.8,2.8-2.7,5-2.7c1.9,0,3.4,0.7,4.5,2s1.6,3.2,1.6,5.5
			c0,2.5-0.6,4.5-1.9,6.1c-1.2,1.5-2.9,2.3-4.9,2.3C200.2,31.9,198.7,31.2,197.7,29.7L197.7,29.7z M197.6,25.1c0,1,0.3,1.9,1,2.6
			c0.6,0.7,1.4,1.1,2.4,1.1c1.2,0,2.1-0.5,2.7-1.4c0.7-0.9,1-2.2,1-3.8c0-1.4-0.3-2.4-0.9-3.2c-0.6-0.8-1.5-1.2-2.6-1.2
			c-1.1,0-1.9,0.4-2.6,1.2c-0.7,0.8-1,1.8-1,3V25.1z"/>
		<path class="st0" d="M211.2,24.1c0-2.5,0.7-4.4,2.2-5.9c1.5-1.4,3.4-2.1,5.9-2.1c2.4,0,4.3,0.7,5.7,2.1c1.4,1.4,2.1,3.3,2.1,5.6
			c0,2.5-0.7,4.4-2.2,5.9c-1.4,1.5-3.4,2.2-5.9,2.2c-2.4,0-4.3-0.7-5.7-2.1C211.9,28.4,211.2,26.5,211.2,24.1z M215.3,24
			c0,3.2,1.3,4.8,4,4.8c2.5,0,3.8-1.6,3.8-4.9c0-3.1-1.3-4.7-3.8-4.7c-1.2,0-2.2,0.4-2.9,1.3C215.6,21.3,215.3,22.5,215.3,24z"/>
		<path class="st0" d="M238.9,31.4c-0.7,0.3-1.6,0.5-2.8,0.5c-3.1,0-4.6-1.6-4.6-4.9v-7.5h-2.5v-3h2.5v-3.4l4-1.2v4.5h3.5v3h-3.5
			v6.8c0,1.7,0.7,2.5,2,2.5c0.5,0,1.1-0.2,1.5-0.5V31.4z"/>
	</g>
</g>
<g>
	
		<linearGradient id="SVGID_1_" gradientUnits="userSpaceOnUse" x1="2466.0923" y1="68.0442" x2="2476.2678" y2="62.1694" gradientTransform="matrix(0.7071 -0.7071 0.7071 0.7071 -1763.6248 1726.0662)">
		<stop  offset="0" style="stop-color:#ED2F5B"/>
		<stop  offset="1" style="stop-color:#ED6E84"/>
	</linearGradient>
	<path class="st1" d="M32.1,23.8l-5.9,5.9c1.5,0,3-0.6,4.1-1.7C31.5,26.8,32.1,25.3,32.1,23.8z"/>
	<linearGradient id="SVGID_2_" gradientUnits="userSpaceOnUse" x1="47.5226" y1="41.0498" x2="26.6161" y2="28.9795">
		<stop  offset="0" style="stop-color:#C71042"/>
		<stop  offset="1" style="stop-color:#ED4D81"/>
	</linearGradient>
	<path class="st2" d="M45.9,35.1c-1.3-1.3-3-1.8-4.6-1.7c-2.2-0.1-4.4-1.4-6.1-3.1l-0.1-0.1c-1.8-1.8-3.2-4.2-3-6.5
		c0,1.5-0.6,3-1.7,4.1c-1.1,1.1-2.6,1.7-4.1,1.7c2.4-0.1,4.8,1.3,6.6,3.1l0,0c0,0,0,0,0,0c1.7,1.7,3,3.8,3.1,6
		c-0.2,1.7,0.4,3.4,1.7,4.7c1.2,1.2,2.7,1.7,4.2,1.7c1.5,0,3-0.6,4.1-1.7c1.1-1.1,1.7-2.6,1.7-4.1C47.6,37.8,47.1,36.3,45.9,35.1z"
		/>
	
		<linearGradient id="SVGID_3_" gradientUnits="userSpaceOnUse" x1="1673.9927" y1="2933.6401" x2="1690.75" y2="2950.3975" gradientTransform="matrix(0.7071 -0.7071 0.7071 0.7071 -3221.1177 -866.9003)">
		<stop  offset="0" style="stop-color:#D21949"/>
		<stop  offset="0.2081" style="stop-color:#C6477A"/>
		<stop  offset="0.4973" style="stop-color:#B689BF"/>
		<stop  offset="0.9577" style="stop-color:#9AA4EF"/>
		<stop  offset="1" style="stop-color:#97A7F4"/>
	</linearGradient>
	<path class="st3" d="M53.9,22.1L53.9,22.1C53.8,22.1,53.8,22.1,53.9,22.1c-2.6,0-5.2-0.7-6.8-2.4c-1.1-1.1-2.6-1.8-4.2-1.8
		c-1.6,0-3.1,0.7-4.2,1.7c-1.1,1.1-1.7,2.5-1.7,4.1c0,1.6,0.7,3.1,1.7,4.1c1.1,1.1,2.5,1.7,4.2,1.7c1.8,0,3.3-0.8,4.4-2
		c1.6-1.6,4.1-2.2,6.6-2.2l0.1,0c2.5,0,5.2,0.7,6.7,2.5c-1.1-1.1-1.7-2.5-1.7-4.1c0-1.6,0.7-3.1,1.7-4.1
		C59.1,21.4,56.4,22.1,53.9,22.1z"/>
	<linearGradient id="SVGID_4_" gradientUnits="userSpaceOnUse" x1="62.0657" y1="43.4173" x2="79.2617" y2="26.2213">
		<stop  offset="0" style="stop-color:#D82D57"/>
		<stop  offset="1" style="stop-color:#ED6E84"/>
	</linearGradient>
	<path class="st4" d="M76.7,24.1c-0.3-0.4-0.2-0.4-0.2-0.5c0.3-0.2-0.4-0.2-0.4-0.2L76,23.3c0,0.6,0,0.7-0.1,1c0,2.1-1.4,4.4-3,6
		l-0.1,0.1c-1.7,1.7-3.9,3-6.1,3c-1.7-0.1-3.4,0.4-4.6,1.7c-1.2,1.1-1.7,2.7-1.7,4.2c0,1.5,0.6,3,1.7,4.1c1.1,1.1,2.6,1.7,4.1,1.7
		c1.5,0,3-0.5,4.2-1.7c1.3-1.3,1.9-3,1.7-4.7c0.1-2.2,1.5-4.3,3.1-6c0,0,0,0,0,0l0,0c1.8-1.8,4.2-3.3,6.5-3.1
		C80.3,29.6,76.7,24.1,76.7,24.1z"/>
	<linearGradient id="SVGID_5_" gradientUnits="userSpaceOnUse" x1="80.6492" y1="13.2725" x2="73.4793" y2="25.6911">
		<stop  offset="0" style="stop-color:#D21949"/>
		<stop  offset="1" style="stop-color:#ED6E84"/>
	</linearGradient>
	<path class="st5" d="M70.4,12.4c1.1-1.2,1.7-2.6,1.7-4.1c-0.1,2.4,1.3,4.7,3.1,6.5l0.1,0.1c1.7,1.7,4,3,6.2,3
		c1.6-0.1,3.2,0.4,4.5,1.7c1.2,1.1,1.7,2.6,1.8,4.1c0,1.5-0.5,3-1.7,4.2c-2.3,2.3-6,2.3-8.3,0.1c-1-1-1.6-2.2-1.7-3.5c0,0,0,0,0-0.1
		c0-0.1,0-0.2,0-0.3c0-0.1,0-0.1,0-0.2c0,0,0,0,0,0c0,0,0,0,0,0c0,0,0,0,0,0c0.1-2.4-1.3-4.7-3.1-6.5l0,0c0,0,0,0,0,0
		c-1.8-1.8-4.3-3.3-6.7-3.2C67.6,14.1,69.2,13.5,70.4,12.4z"/>
	<linearGradient id="SVGID_6_" gradientUnits="userSpaceOnUse" x1="41.7559" y1="18.9343" x2="20.346" y2="18.9343">
		<stop  offset="0" style="stop-color:#BB1042"/>
		<stop  offset="0.3532" style="stop-color:#C71042"/>
		<stop  offset="0.5441" style="stop-color:#D81E4D"/>
		<stop  offset="0.7997" style="stop-color:#E72A57"/>
		<stop  offset="1" style="stop-color:#ED2F5B"/>
	</linearGradient>
	<path class="st6" d="M37.6,12.4c-1.1-1.1-1.7-2.6-1.7-4.1c0.1,2.4-1.3,4.8-3.1,6.6l-0.1,0.1c-1.7,1.7-4,3-6.2,3
		c-1.6-0.1-3.2,0.5-4.5,1.7c-1.1,1.1-1.7,2.7-1.7,4.2c0,1.5,0.6,3,1.7,4.2c2.3,2.3,6,2.3,8.3,0c1-1,1.5-2.2,1.7-3.5c0,0,0,0,0-0.1
		c0-0.1,0-0.2,0-0.3c0-0.1,0-0.1,0-0.2c0,0,0,0,0,0c0,0,0,0,0,0l0,0c-0.1-2.4,1.3-4.8,3.1-6.6l0,0c0,0,0,0,0,0
		c1.8-1.8,4.2-3.2,6.6-3.1C40.3,14.1,38.8,13.5,37.6,12.4z"/>
	
		<linearGradient id="SVGID_7_" gradientUnits="userSpaceOnUse" x1="-41.0551" y1="8.9323" x2="-32.5597" y2="17.2976" gradientTransform="matrix(-0.9639 -0.2663 0.2663 -0.9639 27.3023 10.9843)">
		<stop  offset="0" style="stop-color:#D21949"/>
		<stop  offset="1" style="stop-color:#ED6E84"/>
	</linearGradient>
	<circle class="st7" cx="66.3" cy="8.1" r="6"/>
	
		<linearGradient id="SVGID_8_" gradientUnits="userSpaceOnUse" x1="5911.0347" y1="-2467.9558" x2="5919.5303" y2="-2459.5906" gradientTransform="matrix(0.2663 -0.9639 0.9639 0.2663 841.4849 6365.897)">
		<stop  offset="0" style="stop-color:#BB1042"/>
		<stop  offset="0.3532" style="stop-color:#C71042"/>
		<stop  offset="0.5441" style="stop-color:#D81E4D"/>
		<stop  offset="0.7997" style="stop-color:#E72A57"/>
		<stop  offset="1" style="stop-color:#ED2F5B"/>
	</linearGradient>
	<circle class="st8" cx="41.7" cy="8.1" r="6"/>
	
		<linearGradient id="SVGID_9_" gradientUnits="userSpaceOnUse" x1="-45.3941" y1="-0.7307" x2="-33.8989" y2="-3.906" gradientTransform="matrix(-0.9639 -0.2663 0.2663 -0.9639 27.3023 10.9843)">
		<stop  offset="4.304422e-07" style="stop-color:#CBC7E3"/>
		<stop  offset="0.4973" style="stop-color:#B4B9EB"/>
		<stop  offset="1" style="stop-color:#97A7EA"/>
	</linearGradient>
	<circle class="st9" cx="64.9" cy="23.8" r="6"/>
</g>
</svg>
