<?xml version="1.0" encoding="UTF-8"?>
<svg width="172px" height="157px" viewBox="0 0 172 157" version="1.1" xmlns="http://www.w3.org/2000/svg" xmlns:xlink="http://www.w3.org/1999/xlink">
    <!-- Generator: Sketch 60 (88103) - https://sketch.com -->
    <title>编组 2</title>
    <desc>Created with Sketch.</desc>
    <defs>
        <polygon id="path-1" points="0.0327840063 0.0441561228 7.83804752 0.0441561228 7.83804752 7.99266767 0.0327840063 7.99266767"></polygon>
        <polygon id="path-3" points="0.0193110452 0.0678521659 8.53632131 0.0678521659 8.53632131 8.64400298 0.0193110452 8.64400298"></polygon>
    </defs>
    <g id="页面-1" stroke="none" stroke-width="1" fill="none" fill-rule="evenodd">
        <g id="画板" transform="translate(-42.000000, -57.000000)">
            <g id="编组-2" transform="translate(22.000000, 22.000000)">
                <g id="1.组合示例/3.功能区块示例/8.搜索">
                    <g id="编组-4" transform="translate(20.374372, 35.230686)">
                        <g id="编组-2" transform="translate(14.324316, 0.000000)">
                            <polygon id="Fill-1" fill="#DDDDEA" points="24.0314775 121.090999 19.7577584 116.812499 53.9531776 82.5786331 58.2268967 86.8573226"></polygon>
                            <g id="编组" transform="translate(37.775393, 0.000000)" fill="#99A7C7">
                                <path d="M51.4647424,90.1048949 C30.1845413,90.1048949 12.9338413,72.8347061 12.9338413,51.5308861 C12.9338413,30.2270661 30.1845413,12.9568772 51.4647424,12.9568772 C72.7445658,12.9568772 89.9956435,30.2270661 89.9956435,51.5308861 C89.9956435,72.8347061 72.7445658,90.1048949 51.4647424,90.1048949 M51.4647424,0.0988742609 C23.0912668,0.0988742609 0.090207639,23.1256667 0.090207639,51.5308861 C0.090207639,79.9359164 23.0912668,102.962898 51.4647424,102.962898 C79.8380292,102.962898 102.839277,79.9359164 102.839277,51.5308861 C102.839277,23.1256667 79.8380292,0.0988742609 51.4647424,0.0988742609" id="Fill-2"></path>
                            </g>
                            <path d="M89.2401357,78.7995904 C74.1968408,78.7995904 62.0018106,66.5909166 62.0018106,51.5307915 C62.0018106,36.4708556 74.1968408,24.2621818 89.2401357,24.2621818 C104.283431,24.2621818 116.478272,36.4708556 116.478272,51.5307915 C116.478272,66.5909166 104.283431,78.7995904 89.2401357,78.7995904" id="Fill-4" fill="#CED7EC"></path>
                            <path d="M89.2401357,66.6579484 C80.8947958,66.6579484 74.1299784,59.8853735 74.1299784,51.5308861 C74.1299784,43.1763987 80.8947958,36.4038238 89.2401357,36.4038238 C97.5852867,36.4038238 104.350293,43.1763987 104.350293,51.5308861 C104.350293,59.8853735 97.5852867,66.6579484 89.2401357,66.6579484" id="Fill-6" fill="#FFFFFF"></path>
                            <polygon id="Fill-8" fill="#393D65" points="9.60543255 139.811703 1.05799433 131.254513 35.357107 96.916838 43.9047341 105.474028"></polygon>
                            <g id="编组" transform="translate(0.000000, 126.121882)" fill="#CAD1EA">
                                <polygon id="Fill-10" points="10.6633513 14.7489046 -7.55507865e-05 4.0735477 3.90325583 0.165849329 14.5668716 10.8412063"></polygon>
                            </g>
                        </g>
                        <g id="资源-35" opacity="0.4" transform="translate(0.000000, -0.000000)" fill-rule="nonzero">
                            <g id="资源-34">
                                <path d="M1.35546446,31.241753 C1.17197631,31.241753 1.00341182,31.1380833 0.917485743,30.9717523 C0.0622924531,29.3180628 -0.197017991,27.4102262 0.147763493,25.3022427 C0.474195263,23.3052318 1.32842278,21.2116152 2.68678457,19.078861 C5.44745088,14.7444902 9.99866305,10.7063765 15.501646,7.70863072 C21.0046289,4.71088493 26.8142452,3.1062413 31.8613825,3.18798449 C34.3439058,3.22811297 36.5130353,3.67497575 38.3079271,4.51618751 C40.2037424,5.40446353 41.5983207,6.69303348 42.4544798,8.34721844 C42.5826249,8.59497157 42.4907416,8.90239203 42.2492527,9.03386125 C42.0077638,9.16533048 41.7081162,9.07106374 41.579971,8.82331061 C40.8285985,7.37174968 39.5895098,6.23328995 37.8969901,5.44013328 C36.2266831,4.65787571 34.1908306,4.24172855 31.8454473,4.20160007 C26.9634573,4.12134312 21.3238173,5.68783993 15.9661835,8.60384252 C10.6085496,11.5198451 6.18626835,15.4410413 3.51541906,19.6347147 C2.23238768,21.6495606 1.42789755,23.612388 1.12416148,25.4701878 C0.816079424,27.3527583 1.04110488,29.0436038 1.79247741,30.4951648 C1.87373328,30.6522243 1.86908468,30.8414281 1.78021921,30.9940883 C1.69135374,31.1467484 1.53119214,31.2406687 1.3578789,31.241753 L1.35546446,31.241753 Z" id="路径" fill="#99A7C7"></path>
                                <ellipse id="椭圆形" fill="#6E718D" opacity="0.33" cx="20.9070857" cy="18.153429" rx="17.6944369" ry="18.153429"></ellipse>
                                <path d="M32.8049442,22.5601302 C33.8470148,19.7085313 34.3685331,18.638934 32.8049442,18.1539244 C31.2413553,17.6689148 28.9828917,20.7776332 26.8968189,19.2780172 C24.8107461,17.7784012 27.5916936,14.5398845 26.7229795,12.686048 C25.8542654,10.8322115 24.8117118,10.6186884 25.33323,7.11562101 C25.5978522,5.33807815 27.2015207,3.36881034 28.7173038,1.8607723 C26.2884795,0.633219882 23.6165666,-0.00351667084 20.9090172,-1.44878397e-05 C20.201819,-1.44878397e-05 19.4952431,0.0430242509 18.7930053,0.128807454 C20.2604997,3.42825993 17.5978594,5.83448226 15.6059496,9.17307239 C13.1736466,13.2528008 14.0423607,15.7873352 19.0803233,16.7692443 C24.1182858,17.7511534 23.5972504,23.9859296 19.0803233,25.5876008 C14.5633961,27.1892719 15.9531455,20.5997798 13.1736466,20.5675779 C10.3941477,20.5353761 7.61464878,19.8868801 7.44080938,17.2161071 C7.34423193,15.7016287 5.45565996,14.2852421 3.84040217,13.342966 C3.42232328,14.9105884 3.21118786,16.5286819 3.21264123,18.1539244 C3.21264123,28.1796031 11.1348967,36.3073686 20.9075685,36.3073686 C25.438537,36.3133788 29.7979282,34.5299599 33.0816386,31.3269637 C31.8367553,28.3673647 32.0410166,24.6502788 32.8049442,22.5601302 Z" id="路径" fill="#E4EBF7"></path>
                                <path d="M7.44080938,17.2161071 C7.61464878,19.8868801 10.3941477,20.5353761 13.1736466,20.5675779 C15.9531455,20.5997798 14.5633961,27.194226 19.0803233,25.5900778 C23.5972504,23.9859296 24.1182858,17.7511534 19.0803233,16.7717214 C14.0423607,15.7922893 13.1736466,13.254287 15.6059496,9.17554945 C17.5959279,5.83695933 20.2585681,3.42875535 18.7930053,0.131284521 C11.5892936,1.00915686 5.71497041,6.32741848 3.84040217,13.342966 C5.45662574,14.2852421 7.34230038,15.7016287 7.44080938,17.2161071 Z" id="路径" fill="#6E718D"></path>
                                <path d="M7.44080938,17.2161071 C7.61464878,19.8868801 10.3941477,20.5353761 13.1736466,20.5675779 C15.9531455,20.5997798 14.5633961,27.194226 19.0803233,25.5900778 C23.5972504,23.9859296 24.1182858,17.7511534 19.0803233,16.7717214 C14.0423607,15.7922893 13.1736466,13.254287 15.6059496,9.17554945 C17.5959279,5.83695933 20.2585681,3.42875535 18.7930053,0.131284521 C11.5892936,1.00915686 5.71497041,6.32741848 3.84040217,13.342966 C5.45662574,14.2852421 7.34230038,15.7016287 7.44080938,17.2161071 Z" id="路径" fill="#393D65"></path>
                                <path d="M38.6015375,18.1539244 C38.6015375,11.0046153 34.5732772,4.82086668 28.7187524,1.8607723 C27.2029694,3.36881034 25.5993009,5.33807815 25.3346787,7.11562101 C24.8131605,10.6186884 25.855714,10.8312207 26.7244282,12.686048 C27.5931423,14.5408753 24.8131605,17.7784012 26.8968189,19.2780172 C28.9804773,20.7776332 31.242804,17.6684194 32.8049442,18.1539244 C34.3670844,18.6394294 33.8470148,19.7085313 32.8049442,22.5601302 C32.0410166,24.6502788 31.8367553,28.3673647 33.0816386,31.3289453 C36.6109814,27.9041151 38.6078512,23.1379279 38.6015375,18.1539244 L38.6015375,18.1539244 Z" id="路径" fill="#99A7C7"></path>
                                <path d="M27.6390166,31.6692976 C27.411353,31.6698966 27.2126511,31.5110933 27.1575151,31.2844765 C27.1023792,31.0578597 27.2050311,30.8218837 27.4062649,30.7126512 C32.7663132,27.7941715 37.1856972,23.8759479 39.8565465,19.6842561 C41.1419923,17.6699056 41.944068,15.7046011 42.247804,13.8482876 C42.5558861,11.9657171 42.3313435,10.2748715 41.579971,8.82331061 C41.4518259,8.57555748 41.5437091,8.26813702 41.7851981,8.1366678 C42.026687,8.00519857 42.3263346,8.09946531 42.4544798,8.34721844 C43.310156,10.000908 43.5694664,11.9082491 43.2270994,14.0167281 C42.9001847,16.013739 42.0459572,18.1073556 40.6880783,20.2396144 C37.927412,24.5744806 33.3761998,28.6120989 27.872734,31.6098447 C27.8008149,31.6491746 27.7205143,31.6696003 27.6390166,31.6692976 Z" id="路径" fill="#A3B5D6"></path>
                                <ellipse id="椭圆形" fill="#A3B5D6" cx="11.977052" cy="34.4327096" rx="3.91283525" ry="4.01433385"></ellipse>
                            </g>
                        </g>
                        <g id="编组" transform="translate(126.372045, 140.814461) rotate(-25.000000) translate(-126.372045, -140.814461) translate(85.954384, 128.825459)">
                            <g transform="translate(25.752846, 15.985335)">
                                <mask id="mask-2" fill="white">
                                    <use xlink:href="#path-1"></use>
                                </mask>
                                <g id="Clip-2"></g>
                                <path d="M7.81736504,4.42397358 C7.59738102,6.60716306 5.68116802,8.19576981 3.53736148,7.97174455 C1.39286318,7.7477193 -0.167086395,5.79630437 0.0535893985,3.6124104 C0.273573418,1.42922091 2.18978642,-0.159385834 4.33359295,0.0653439008 C6.47739948,0.289369153 8.03734906,2.24078409 7.81736504,4.42397358" id="Fill-1" fill="#E4E6EF" mask="url(#mask-2)"></path>
                            </g>
                            <path d="M58.6384112,5.85728363 C58.4166491,8.05256285 56.4849477,9.64996673 54.3238132,9.42470091 C52.1619813,9.19943508 50.589423,7.23650552 50.8111851,5.0412263 C51.0336446,2.84594709 52.9653459,1.2485432 55.1264804,1.47451741 C57.287615,1.69907485 58.8601733,3.66200441 58.6384112,5.85728363" id="Fill-3" fill="#E4E6EF"></path>
                            <path d="M7.84799996,4.4043215 C7.62644263,6.59982345 5.69407742,8.19655214 3.53244853,7.97152297 C1.37146185,7.74584155 -0.201274083,5.78384812 0.0209254397,3.58834617 C0.242482767,1.39284422 2.17484798,-0.203884471 4.33583467,0.0211446954 C6.49746355,0.246173861 8.07019948,2.20881954 7.84799996,4.4043215" id="Fill-5" fill="#E4E6EF"></path>
                            <g transform="translate(72.251041, 10.172486)">
                                <mask id="mask-4" fill="white">
                                    <use xlink:href="#path-3"></use>
                                </mask>
                                <g id="Clip-8"></g>
                                <path d="M8.51421765,4.79369927 C8.27371874,7.14947792 6.18290736,8.86277149 3.84325607,8.62131467 C1.50360478,8.37915798 -0.1979598,6.27393452 0.0418440308,3.91815587 C0.282342946,1.56237722 2.37315432,-0.150916341 4.71280561,0.0905404728 C7.05176182,0.332697161 8.75402148,2.43792062 8.51421765,4.79369927" id="Fill-7" fill="#E4E6EF" mask="url(#mask-4)"></path>
                            </g>
                            <polygon id="Fill-9" fill="#E4E6EF" points="29.7412274 20.3449722 29.6452929 20.283679 4.29214104 3.96469527 4.49393413 3.63303076 29.7518132 19.8914023 55.3345461 5.15582717 55.4185714 5.18987897 77.2585387 14.0113378 77.1195992 14.37433 55.3629956 5.58692293"></polygon>
                        </g>
                    </g>
                </g>
                <g id="编组" transform="translate(149.000000, 35.000000)">
                    <path d="M21.5,0 C9.62585714,0 0,9.62585714 0,21.5 C0,33.3740949 9.62585714,43 21.5,43 C33.3741429,43 43,33.3740949 43,21.5 C43,9.62585714 33.3741429,0 21.5,0" id="Fill-1" fill="#597EF7"></path>
                    <path d="M26.3051558,12.5260649 C27.4254653,13.5338166 28,14.9159373 28,16.6435525 C28,18.0544049 27.6265477,19.2349276 26.9371155,20.1562938 C26.678513,20.473009 25.874231,21.2216994 24.4953666,22.4021745 C23.9782568,22.8628814 23.576092,23.3524153 23.3175371,23.8706808 C23.0015572,24.4465525 22.8578998,25.0799828 22.8578998,25.7998463 L22.8578998,26.4831163 C22.8578998,26.7685745 22.6270115,27 22.3422636,27 L20.2997798,27 C20.0150319,27 19.7841436,26.7685745 19.7841436,26.4831163 L19.7841436,25.7998463 C19.7841436,24.7344884 19.9565611,23.8130746 20.3300135,23.0644318 C20.7321783,22.2582781 21.8237753,21.0777077 23.6048045,19.4940842 L24.0932018,18.9470394 C24.6102165,18.2847345 24.8688189,17.593698 24.8688189,16.8450552 C24.8688189,15.8373035 24.581504,15.0598814 24.0357293,14.483962 C23.461147,13.908138 22.6568649,13.6202021 21.6226453,13.6202021 C20.3300135,13.6202021 19.3820264,14.0233028 18.8074916,14.8295518 C18.3581224,15.4301051 18.104036,16.2698505 18.0451849,17.3109557 C18.0297828,17.5832631 17.8028402,17.7952007 17.5307372,17.7952007 L15.5161101,17.7952007 C15.2219023,17.7952007 14.9853096,17.5485755 15.0007117,17.2541119 C15.0972598,15.4094736 15.6981777,13.9463039 16.82538,12.84278 C18.0318745,11.6046987 19.6979587,11 21.7950628,11 C23.6622769,11 25.1560388,11.4894862 26.3051558,12.5260649" id="Fill-3" fill="#FFFFFF"></path>
                    <path d="M21.5,33 L20.5,33 C19.6715625,33 19,32.3284375 19,31.5 L19,30.5 C19,29.6715625 19.6715625,29 20.5,29 L21.5,29 C22.3284375,29 23,29.6715625 23,30.5 L23,31.5 C23,32.3284375 22.3284375,33 21.5,33" id="Fill-5" fill="#FFFFFF"></path>
                </g>
            </g>
        </g>
    </g>
</svg>