<?xml version="1.0" standalone="no"?><!DOCTYPE svg PUBLIC "-//W3C//DTD SVG 1.1//EN" "http://www.w3.org/Graphics/SVG/1.1/DTD/svg11.dtd"><svg t="1733969170022" class="icon" viewBox="0 0 1024 1024" version="1.1" xmlns="http://www.w3.org/2000/svg" p-id="17529" xmlns:xlink="http://www.w3.org/1999/xlink" width="32" height="32"><path d="M976.058182 862.626909H47.941818c-26.670545 0-47.941818-22.062545-47.941818-48.500364V48.453818C0 21.457455 21.783273 0 47.941818 0h928.116364C1002.728727 0 1024 22.016 1024 48.453818v765.672727c0 26.437818-21.271273 48.500364-47.941818 48.500364zM75.729455 785.501091h871.982545V76.567273H75.729455v708.887272zM765.207273 1024H259.956364a38.120727 38.120727 0 0 1-38.167273-38.539636c0-21.504 16.896-38.586182 38.167273-38.586182h505.204363c21.224727 0 38.167273 17.082182 38.167273 38.586182a38.446545 38.446545 0 0 1-38.167273 38.539636z" p-id="17530" fill="#ffffff"></path><path d="M46.545455 651.636364h930.90909v53.434181H46.545455V651.636364z m357.189818 170.914909h75.776V977.454545H403.735273v-154.903272z m112.034909 16.011636h75.776v122.88h-75.776v-122.88z" p-id="17531" fill="#ffffff"></path></svg>