<?xml version="1.0" standalone="no"?><!DOCTYPE svg PUBLIC "-//W3C//DTD SVG 1.1//EN" "http://www.w3.org/Graphics/SVG/1.1/DTD/svg11.dtd"><svg class="icon" width="32px" height="32.00px" viewBox="0 0 1024 1024" version="1.1" xmlns="http://www.w3.org/2000/svg"><path d="M512 512m-512 0a512 512 0 1 0 1024 0 512 512 0 1 0-1024 0Z" fill="#418BE8" /><path d="M704.512 192c26.112 0 47.488 24.128 47.488 51.008 0 26.816-21.376 48.256-45.12 48.256a26.88 26.88 0 0 1-14.272-2.688l-33.28 56.32c54.656 37.632 92.544 99.328 92.544 187.904v40.256c-0.256 103.616-74.56 187.52-166.336 187.84H443.136c-91.776-0.32-166.08-84.224-166.4-187.84v-40.32c0-88.512 38.016-147.52 90.304-185.088l-35.648-59.072a26.88 26.88 0 0 1-14.272 2.688c-26.368 0-45.504-22.016-45.12-49.152 0.384-27.136 21.504-47.424 45.568-47.424 25.92 0.192 44.736 21.568 44.608 48.32a43.392 43.392 0 0 1-9.472 29.44l38.08 61.76a281.408 281.408 0 0 1 123.584-29.504c42.752 0 83.2 8.064 121.088 26.88l33.344-61.76a60.8 60.8 0 0 1-9.472-29.504c0-26.88 21.376-48.32 45.184-48.32z m-56.32 303.36H374.592a56.96 56.96 0 0 0-44.8 22.528 84.48 84.48 0 0 0-17.728 54.784c1.088 41.728 29.44 74.752 63.744 74.432h273.728a56.96 56.96 0 0 0 44.8-22.464 84.48 84.48 0 0 0 17.728-54.784c-1.088-41.728-29.44-74.752-63.744-74.432z m-9.28 44.16c11.52 7.04 18.368 19.84 17.92 33.536a37.056 37.056 0 0 1-36.48 36.48 37.056 37.056 0 0 1-36.48-36.48 37.824 37.824 0 0 1 17.92-33.472 35.648 35.648 0 0 1 37.12 0z m-256 0a35.648 35.648 0 0 1 37.12 0c11.456 7.04 18.304 19.84 17.92 33.536a37.056 37.056 0 0 1-36.48 36.48 37.056 37.056 0 0 1-36.544-36.48 37.824 37.824 0 0 1 17.92-33.472z m386.56 81.664V495.36c32.64-2.816 62.208 26.88 62.528 61.952 0.256 35.904-28.736 66.048-62.528 63.872z m-515.648 0.576A62.208 62.208 0 0 1 192 559.68c-0.64-36.032 25.6-64 61.824-64.96v127.04z" fill="#FFFFFF" /></svg>