<?xml version="1.0" standalone="no"?><!DOCTYPE svg PUBLIC "-//W3C//DTD SVG 1.1//EN" "http://www.w3.org/Graphics/SVG/1.1/DTD/svg11.dtd"><svg class="icon" width="32px" height="32.00px" viewBox="0 0 1024 1024" version="1.1" xmlns="http://www.w3.org/2000/svg"><path fill="#ffffff" d="M874.478907 150.05139a512.259294 512.259294 0 0 0-724.375385 0 511.567843 511.567843 0 0 0 0 723.896688 512.259294 512.259294 0 0 0 724.375385 0c199.297641-199.191263 199.297641-523.907595 0-723.896688z m-15.690634 255.571167l-390.616993 398.914413-229.82789-234.72124a67.549507 67.549507 0 0 1 0-93.718293 64.251815 64.251815 0 0 1 91.750315 0l138.077575 140.949759 298.866678-305.142931a64.251815 64.251815 0 0 1 91.750315 0 67.549507 67.549507 0 0 1 0 93.718292z" /></svg>