<?xml version="1.0" standalone="no"?><!DOCTYPE svg PUBLIC "-//W3C//DTD SVG 1.1//EN" "http://www.w3.org/Graphics/SVG/1.1/DTD/svg11.dtd"><svg class="icon" width="32px" height="30.23px" viewBox="0 0 1084 1024" version="1.1" xmlns="http://www.w3.org/2000/svg"><path fill="#ffffff" d="M704.224734 1023.261148c-19.702727 0-38.86363-8.127375-51.227091-21.771514-16.845832-18.520564-70.28948-66.595219-114.029535-66.595219-43.395257 0-97.676271 48.370196-113.241426 65.314542a69.944682 69.944682 0 0 1-76.988407 16.106979l-1.379191-0.591082-132.944153-74.377795-1.280677-0.886623a63.836837 63.836837 0 0 1-21.426716-77.086921c0.098514-0.197027 12.264948-28.273414 12.264947-53.88696a141.022271 141.022271 0 0 0-140.8745-140.874501h-5.615278c-22.214825 0-40.390591-19.751984-46.153639-50.340468-0.492568-2.462841-11.329068-60.487373-11.329068-106.197701C0 466.363558 10.8365 408.339025 11.329068 405.876185c5.910818-31.031796 24.382125-50.882294 47.040262-50.340469h4.679398a141.071528 141.071528 0 0 0 140.874501-140.874501c0-25.613546-12.117177-53.689932-12.264948-53.985473A63.63981 63.63981 0 0 1 213.282024 83.736591l1.379191-0.935879L354.944634 5.713791l1.477705-0.640339a71.126846 71.126846 0 0 1 76.692866 15.909953c16.550291 17.387657 69.05806 62.55616 111.566694 62.556159 42.016066 0 94.179037-44.331137 110.729328-61.373996a71.22536 71.22536 0 0 1 76.840637-15.269613l1.379191 0.591081 135.456251 75.264419 1.379191 0.93588c24.234355 16.895089 33.494637 50.044928 21.475973 77.037664-0.098514 0.246284-12.264948 28.322671-12.264948 53.886959a141.071528 141.071528 0 0 0 140.874501 140.874501h4.728654c22.658137-0.492568 41.1787 19.407186 47.040262 50.389726 0.443311 2.462841 11.329068 60.487373 11.329068 106.1977 0 45.710328-10.885757 103.73486-11.329068 106.197701-5.910818 31.031796-24.431382 50.833037-47.040262 50.340468h-4.728654a141.022271 141.022271 0 0 0-140.874501 140.874501c0 25.613546 12.166434 53.689932 12.314204 53.985473 11.92015 26.94348 2.709125 60.093319-21.574486 76.988408l-1.329934 0.935879-137.771322 76.151042-1.477704 0.591082c-7.881091 3.447977-16.501034 5.122709-25.613546 5.122709z m-4.137573-64.920487a8.767714 8.767714 0 0 0 4.137573 1.132907h0.246284l128.708067-71.176103c-3.10318-7.191496-17.3384-42.213093-17.3384-78.81091a204.957622 204.957622 0 0 1 194.022608-204.415796c1.526961-8.570686 9.949877-56.793112 9.949877-92.996874 0-36.203762-8.422916-84.426187-9.949877-92.996873a204.957622 204.957622 0 0 1-194.022608-204.415797c0-36.647073 14.284477-71.717928 17.3384-78.860166l-126.590023-70.338737h-0.541825a9.999134 9.999134 0 0 0-4.827169 1.182163 358.392611 358.392611 0 0 1-46.843234 39.405455c-39.060657 27.436048-75.954014 41.375728-109.694935 41.375728-34.134975 0-71.323873-14.235221-110.581557-42.26235a358.441868 358.441868 0 0 1-47.089519-40.095051 10.146905 10.146905 0 0 0-4.925682-1.23142h-0.492568L250.520179 135.850305c3.152436 7.339266 17.3384 42.311607 17.3384 78.81091a204.957622 204.957622 0 0 1-194.022608 204.415797c-1.526961 8.570686-9.949877 56.793112-9.949877 92.996873 0 36.203762 8.373659 84.426187 9.949877 93.04613a204.908365 204.908365 0 0 1 194.022608 204.415797c0 36.647073-14.284477 71.816441-17.387657 78.860167l124.127183 69.452114a8.6692 8.6692 0 0 0 4.433113-1.08365c2.31507-2.462841 20.884891-22.165568 47.582087-41.671269 39.799509-29.209293 77.628746-43.986339 112.40406-43.986339 35.169368 0 73.294146 15.072586 113.290683 44.823705 26.894223 19.899755 45.5133 39.898023 47.779113 42.410121zM539.460676 698.954255c-103.439319 0-187.668479-84.130646-187.668478-187.569965 0-103.439319 84.22916-187.668479 187.668478-187.668479s187.619222 84.22916 187.619222 187.668479-84.179903 187.619222-187.668478 187.619221z m0-311.401607a123.979412 123.979412 0 0 0-123.831641 123.782385 123.930155 123.930155 0 0 0 123.831641 123.831642 123.979412 123.979412 0 0 0 123.831642-123.831642 123.979412 123.979412 0 0 0-123.831642-123.782385z" /></svg>