<?xml version="1.0" standalone="no"?><!DOCTYPE svg PUBLIC "-//W3C//DTD SVG 1.1//EN" "http://www.w3.org/Graphics/SVG/1.1/DTD/svg11.dtd"><svg class="icon" width="32px" height="32.00px" viewBox="0 0 1024 1024" version="1.1" xmlns="http://www.w3.org/2000/svg"><path fill="#ffffff" d="M960 0H0v192h960V0z m-768 128h-128V64h128V128z m768 128H0v192h960V256z m-768 128h-128V320h128V384z m-128 512c0-128.512 139.491556-192 192-192 0-60.586667 29.013333-128 128-128V512H0v512h128s-64-31.288889-64-128zM896 768c28.842667-159.687111-75.662222-256-192-256C577.706667 512 512 580.664889 512 640c-59.847111 0-128 39.139556-128 128-79.018667 0-192 41.984-192 128 0 120.035556 93.980444 128 192 128h448C954.026667 1024 1024 992.028444 1024 896c0-79.985778-57.685333-128-128-128z" /></svg>