<?xml version="1.0" standalone="no"?><!DOCTYPE svg PUBLIC "-//W3C//DTD SVG 1.1//EN" "http://www.w3.org/Graphics/SVG/1.1/DTD/svg11.dtd"><svg t="1727227067167" class="icon" viewBox="0 0 1024 1024" version="1.1" xmlns="http://www.w3.org/2000/svg" p-id="16067" xmlns:xlink="http://www.w3.org/1999/xlink" width="32" height="32"><path d="M847.898741 56.627594a193.566798 193.566798 0 0 0-273.599223 0L300.607233 330.226818a193.566798 193.566798 0 0 0 273.599224 273.599223l48.391699-48.391699a32.245623 32.245623 0 0 0 0-45.785992 32.245623 32.245623 0 0 0-45.134565 0l-49.089657 49.043126a129.075552 129.075552 0 0 1-181.934178-182.632135l273.599224-273.599224a129.075552 129.075552 0 1 1 182.632135 181.934178L747.206782 340.603115a31.919909 31.919909 0 1 0 45.134566 45.181096l55.557393-55.510863a193.566798 193.566798 0 0 0 0-273.599223z" p-id="16068" fill="#ffffff"></path><path d="M445.177435 424.45104L380.639659 489.035347a32.385214 32.385214 0 1 0 45.832523 45.832523l64.537776-64.537776a129.075552 129.075552 0 1 1 182.632135 181.980708l-274.25065 274.25065A129.075552 129.075552 0 1 1 217.317674 743.882787l47.135376-47.088846a32.897049 32.897049 0 0 0 0-45.832523 32.245623 32.245623 0 0 0-45.832523 0l-47.088846 47.135376a193.566798 193.566798 0 0 0 273.599224 273.599224l273.599223-273.599224a193.566798 193.566798 0 1 0-273.599223-273.599223z" p-id="16069" fill="#ffffff"></path></svg>