<?xml version="1.0" standalone="no"?><!DOCTYPE svg PUBLIC "-//W3C//DTD SVG 1.1//EN" "http://www.w3.org/Graphics/SVG/1.1/DTD/svg11.dtd"><svg class="icon" width="32px" height="32.00px" viewBox="0 0 1024 1024" version="1.1" xmlns="http://www.w3.org/2000/svg"><path fill="#ffffff" d="M896 704v-256h-64V0H0v896h448V1024H1024v-320h-128z m-64 0H640V512h192v192z m-768 128V256H256v576H64z m256 0V256H768v192h-192v256h-128v128h-128z m384 128H512V768h192v192z m256 0H768V768h192v192zM128 384h139.636364v64h-139.636364V384z m0 128h139.636364v64h-139.636364V512z m0 128h139.636364v64h-139.636364V640z" /></svg>