<?xml version="1.0" standalone="no"?><!DOCTYPE svg PUBLIC "-//W3C//DTD SVG 1.1//EN" "http://www.w3.org/Graphics/SVG/1.1/DTD/svg11.dtd"><svg class="icon" width="32px" height="32.00px" viewBox="0 0 1024 1024" version="1.1" xmlns="http://www.w3.org/2000/svg"><path d="M512 512m-512 0a512 512 0 1 0 1024 0 512 512 0 1 0-1024 0Z" fill="#000000" fill-opacity=".05" /><path d="M546.752 525.696c36.864-40.32 95.872-43.072 135.68-6.208 39.808 36.864 47.232 101.056 16.96 147.584l63.744 69.76a19.52 19.52 0 0 1 0 25.792 15.68 15.68 0 0 1-23.616 0l-63.68-69.76c-42.496 33.152-101.12 25.024-134.784-18.56-33.664-43.584-31.168-108.16 5.696-148.608zM681.792 256A86.144 86.144 0 0 1 768 342.208l-0.768 224.704a18.304 18.304 0 0 1-36.608 0l0.768-224.704a49.344 49.344 0 0 0-49.6-49.664H342.144a49.6 49.6 0 0 0-49.6 49.664v339.584a49.6 49.6 0 0 0 49.6 49.664h224.64a18.24 18.24 0 1 1 0 36.544h-224.64A86.08 86.08 0 0 1 256 681.792V342.208A86.08 86.08 0 0 1 342.144 256h339.648z m-8.512 306.816c-17.664-28.992-51.648-40.32-81.088-26.88-29.44 13.312-46.144 47.552-39.936 81.792 6.208 34.24 33.6 58.88 65.472 58.88 17.792 0.064 34.752-7.68 47.296-21.376 22.528-24.704 25.984-63.36 8.32-92.416z m-272.64 40.64h66.816a16.448 16.448 0 0 1 14.592 9.088 19.776 19.776 0 0 1 0 18.368 16.448 16.448 0 0 1-14.592 9.088H400.704C391.488 640 384 631.744 384 621.632c0-10.112 7.424-18.24 16.64-18.24z m100.224-109.632c5.952 0 11.52 3.456 14.464 9.152a19.84 19.84 0 0 1 0 18.24 16.448 16.448 0 0 1-14.464 9.152H400.704a16.448 16.448 0 0 1-14.464-9.152 19.776 19.776 0 0 1 0-18.24 16.448 16.448 0 0 1 14.464-9.152h100.16zM400.704 384l267.136 0.064c9.216 0 16.704 8.32 16.704 18.368 0 10.112-7.488 18.304-16.64 18.304L400.64 420.608c-9.216 0-16.704-8.192-16.704-18.304C384 392.192 391.488 384 400.64 384z" fill="#333333" /></svg>