<?xml version="1.0" standalone="no"?><!DOCTYPE svg PUBLIC "-//W3C//DTD SVG 1.1//EN" "http://www.w3.org/Graphics/SVG/1.1/DTD/svg11.dtd"><svg class="icon" width="32px" height="32.00px" viewBox="0 0 1024 1024" version="1.1" xmlns="http://www.w3.org/2000/svg"><path fill="#ffffff" d="M783.914667 423.552L1024 560v309.333333L752.085333 1024 512 887.466667 271.914667 1024 0 869.376v-309.376l240.085333-136.533333V154.624L512 0l271.914667 154.624v268.928zM308.693333 193.664v231.253333L512 540.544l203.306667-115.626667v-231.253333L512 78.037333l-203.306667 115.626667zM68.650667 599.04v231.253333l203.306666 115.626667 203.349334-115.626667V599.04l-203.306667-115.626667-203.349333 115.584z m480.128 0v231.253333l203.306666 115.626667 203.349334-115.626667V599.04l-203.306667-115.626667-203.349333 115.584z" /></svg>