<?xml version="1.0" standalone="no"?><!DOCTYPE svg PUBLIC "-//W3C//DTD SVG 1.1//EN" "http://www.w3.org/Graphics/SVG/1.1/DTD/svg11.dtd"><svg class="icon" width="32px" height="32.00px" viewBox="0 0 1024 1024" version="1.1" xmlns="http://www.w3.org/2000/svg"><path d="M512 512m-512 0a512 512 0 1 0 1024 0 512 512 0 1 0-1024 0Z" fill="#418BE8" /><path d="M352.576 256h-32.384a49.792 49.792 0 0 0-35.84 13.376 48.704 48.704 0 0 0-15.552 34.688v32a49.28 49.28 0 0 0 50.112 48h32.32a49.792 49.792 0 0 0 35.904-13.376 48.704 48.704 0 0 0 15.552-34.688v-32A49.28 49.28 0 0 0 352.576 256z m16.448 80a16.256 16.256 0 0 1-5.056 11.52 16.64 16.64 0 0 1-11.712 4.48h-32.384a16.64 16.64 0 0 1-12.992-3.776 16.256 16.256 0 0 1-5.76-12.16v-32a16.256 16.256 0 0 1 5.44-11.84 16.64 16.64 0 0 1 12.352-4.16h32.32a16.64 16.64 0 0 1 11.776 4.48c3.2 3.072 4.992 7.168 5.12 11.52l0.896 32zM352.64 448h-32.384a49.792 49.792 0 0 0-35.84 13.312 48.704 48.704 0 0 0-15.552 34.688v32a49.28 49.28 0 0 0 50.112 48h32.32a49.792 49.792 0 0 0 35.904-13.312 48.704 48.704 0 0 0 15.552-34.688v-32A49.28 49.28 0 0 0 352.576 448z m16.448 80a16.256 16.256 0 0 1-5.056 11.52 16.64 16.64 0 0 1-11.712 4.48h-32.384a16.64 16.64 0 0 1-12.992-3.84 16.256 16.256 0 0 1-5.76-12.16v-32a16.256 16.256 0 0 1 5.44-11.776 16.64 16.64 0 0 1 12.352-4.224h32.32a16.64 16.64 0 0 1 11.776 4.544c3.2 3.008 4.992 7.168 5.12 11.52l0.896 32zM352.64 640h-32.384a49.792 49.792 0 0 0-35.84 13.312 48.704 48.704 0 0 0-15.552 34.688v32a49.28 49.28 0 0 0 50.112 48h32.32a49.28 49.28 0 0 0 50.176-48v-32a49.28 49.28 0 0 0-48.832-48z m16.768 80a16.256 16.256 0 0 1-5.056 11.456 16.64 16.64 0 0 1-11.712 4.544h-32.384a16.64 16.64 0 0 1-13.248-3.648 16.256 16.256 0 0 1-5.76-12.352v-32a16.256 16.256 0 0 1 4.992-11.456 16.64 16.64 0 0 1 11.776-4.48h32.32a16.64 16.64 0 0 1 11.776 4.48c3.2 3.008 4.992 7.104 5.056 11.456l2.24 32z m105.472-416h262.208a16.64 16.64 0 0 0 11.776-4.48 16.256 16.256 0 0 0 5.056-11.52 16.256 16.256 0 0 0-5.12-11.392 16.64 16.64 0 0 0-11.712-4.544H474.88a16.64 16.64 0 0 0-11.776 4.48 16.256 16.256 0 0 0-5.12 11.52 16.64 16.64 0 0 0 16.832 16z m262.208 117.44H474.88a16.064 16.064 0 0 0-16.192 16c0 8.832 7.232 16 16.192 16h262.208c8.96 0 16.192-7.168 16.192-16a16.064 16.064 0 0 0-16.192-16z m0 149.12H474.88a16.064 16.064 0 0 0-16.192 16c0 8.832 7.232 16 16.192 16h262.208c8.96 0 16.192-7.168 16.192-16a16.064 16.064 0 0 0-16.192-16z m0 149.44H474.88a16.064 16.064 0 0 0-16.192 16c0 8.832 7.232 16 16.192 16h262.208c8.96 0 16.192-7.168 16.192-16a16.064 16.064 0 0 0-16.192-16z" fill="#FFFFFF" /></svg>