<?xml version="1.0" standalone="no"?><!DOCTYPE svg PUBLIC "-//W3C//DTD SVG 1.1//EN" "http://www.w3.org/Graphics/SVG/1.1/DTD/svg11.dtd"><svg class="icon" width="32px" height="32.00px" viewBox="0 0 1024 1024" version="1.1" xmlns="http://www.w3.org/2000/svg"><path d="M512 512m-512 0a512 512 0 1 0 1024 0 512 512 0 1 0-1024 0Z" fill="#418BE8" /><path d="M192 192h640v640H192z" fill="#FFFFFF" fill-opacity=".01" /><path d="M275.712 597.376c9.472 0 17.664 6.784 19.328 16.128l0.32 3.52v104.96c0 2.944 1.92 5.44 4.48 6.336l2.112 0.32h104.96a19.712 19.712 0 0 1 3.584 39.04L407.04 768h-104.96a45.952 45.952 0 0 1-45.76-40.96L256 722.048v-104.96c0-10.88 8.832-19.712 19.712-19.712z m472.576 0c9.536 0 17.664 6.784 19.392 16.128L768 616.96v104.96c0 23.744-17.92 43.264-40.96 45.76l-4.992 0.256h-104.96a19.712 19.712 0 0 1-3.584-39.04l3.52-0.32h104.96a6.592 6.592 0 0 0 6.336-4.48l0.32-2.112v-104.96c0-10.88 8.768-19.712 19.648-19.712zM551.36 374.144c6.592 0 12.8 3.328 16.384 8.768l20.48 30.656h68.224c9.472 0 17.664 6.784 19.328 16.128l0.32 3.52v196.928c0 10.88-8.768 19.712-19.648 19.712H367.552a19.712 19.712 0 0 1-19.648-19.712V433.28c0-10.88 8.768-19.648 19.648-19.648H435.84l20.48-30.656a19.712 19.712 0 0 1 12.48-8.32l3.84-0.448h78.784z m-10.56 39.424H483.2l-20.416 30.592a19.712 19.712 0 0 1-12.48 8.32l-3.84 0.448H387.2v157.504h249.408V452.928h-59.072a19.712 19.712 0 0 1-13.888-5.76L561.28 444.16l-20.48-30.592z m-28.8 52.48a59.072 59.072 0 1 1 0 118.144 59.072 59.072 0 0 1 0-118.144z m0 39.36a19.712 19.712 0 1 0 0 39.424 19.712 19.712 0 0 0 0-39.424zM406.976 256a19.712 19.712 0 0 1 3.52 39.04l-3.52 0.32h-104.96a6.592 6.592 0 0 0-6.336 4.48l-0.32 2.112v104.96a19.712 19.712 0 0 1-39.04 3.584L256 407.04v-104.96c0-23.744 17.92-43.264 40.96-45.76L301.952 256h104.96z m315.072 0c23.68 0 43.2 17.92 45.696 40.96l0.256 4.992v104.96a19.712 19.712 0 0 1-39.04 3.584l-0.32-3.52v-104.96a6.592 6.592 0 0 0-4.48-6.336l-2.112-0.32h-104.96a19.712 19.712 0 0 1-3.584-39.04L616.96 256h104.96z" fill="#FFFFFF" /></svg>