<?xml version="1.0" standalone="no"?><!DOCTYPE svg PUBLIC "-//W3C//DTD SVG 1.1//EN" "http://www.w3.org/Graphics/SVG/1.1/DTD/svg11.dtd"><svg t="1727227030697" class="icon" viewBox="0 0 1024 1024" version="1.1" xmlns="http://www.w3.org/2000/svg" p-id="15326" xmlns:xlink="http://www.w3.org/1999/xlink" width="32" height="32"><path d="M938.682182 0H85.317818A85.410909 85.410909 0 0 0 0 85.317818v853.364364C0 985.693091 38.260364 1024 85.317818 1024h853.364364A85.410909 85.410909 0 0 0 1024 938.682182V85.317818A85.410909 85.410909 0 0 0 938.682182 0z m0 938.682182H85.317818V85.317818h853.364364v853.364364z" p-id="15327" fill="#ffffff"></path><path d="M512 681.425455h341.317818v85.364363H512v-85.317818zM227.607273 768l184.413091-184.552727 56.925091-56.785455-56.925091-56.925091-180.968728-180.922182-56.925091 56.785455 181.061819 181.061818-184.506182 184.413091L227.607273 768z" p-id="15328" fill="#ffffff"></path></svg>