<?xml version="1.0" standalone="no"?><!DOCTYPE svg PUBLIC "-//W3C//DTD SVG 1.1//EN" "http://www.w3.org/Graphics/SVG/1.1/DTD/svg11.dtd"><svg t="1733969147136" class="icon" viewBox="0 0 1408 1024" version="1.1" xmlns="http://www.w3.org/2000/svg" p-id="17350" xmlns:xlink="http://www.w3.org/1999/xlink" width="44" height="32"><path d="M1174.847327 0c2.302368 0 4.476827 0.831411 6.331512 2.302368l222.945988 179.200991a9.912974 9.912974 0 0 1 0 13.942119v1.726776L1181.242794 376.373245a10.424612 10.424612 0 0 1-14.197937-1.470957 9.912974 9.912974 0 0 1-2.04655-6.395467V255.498915H1025.832941a255.498915 255.498915 0 0 0-246.225488 255.882643 255.498915 255.498915 0 0 0 246.225488 255.946598h139.165366v-113.391634c0-5.436147 4.476827-9.84902 9.84902-9.849019 2.302368 0 4.476827 0.767456 6.395467 2.046549l222.945987 179.392856a9.912974 9.912974 0 0 1 0 14.006073v1.470957l-222.945987 179.45681a9.785065 9.785065 0 0 1-10.68043 1.279094 9.912974 9.912974 0 0 1-5.564057-9.145518v-113.071861H1025.832941a385.646673 385.646673 0 0 1-312.546483-175.043937l10.104838-15.860759a386.15831 386.15831 0 0 1-321.436182 190.904696h-159.88668v113.071861c0.127909 2.558187-0.703501 4.988464-2.302368 7.035014a9.785065 9.785065 0 0 1-13.878164 1.407002L2.87796 841.003938v-1.470957a9.912974 9.912974 0 0 1 0-13.942119l222.945987-179.45681a11.895569 11.895569 0 0 1 5.244283-2.046549c5.436147 0 9.84902 4.476827 9.84902 9.849019v113.391634h138.845593a254.60355 254.60355 0 0 0 227.870497-125.415112 257.097782 257.097782 0 0 0 0-261.062971 254.667504 254.667504 0 0 0-209.323642-125.351158H242.068434v113.007906a10.232748 10.232748 0 0 1-2.302368 6.395467 9.785065 9.785065 0 0 1-13.942119 1.470957L2.87796 197.236209v-1.790731a9.976929 9.976929 0 0 1 1.407003-14.006073l221.538984-179.073082A10.104838 10.104838 0 0 1 231.06823 0c5.436147 0 9.84902 4.476827 9.84902 9.912974v113.327679h138.845593a385.902492 385.902492 0 0 1 333.715479 175.043938 384.879217 384.879217 0 0 1 312.290664-175.043938h139.165367V9.912974A9.84902 9.84902 0 0 1 1174.847327 0z" p-id="17351" fill="#ffffff"></path></svg>