<?xml version="1.0" standalone="no"?><!DOCTYPE svg PUBLIC "-//W3C//DTD SVG 1.1//EN" "http://www.w3.org/Graphics/SVG/1.1/DTD/svg11.dtd"><svg t="1727227059319" class="icon" viewBox="0 0 1030 1024" version="1.1" xmlns="http://www.w3.org/2000/svg" p-id="15854" xmlns:xlink="http://www.w3.org/1999/xlink" width="32.1875" height="32"><path d="M32.256 294.4l409.6 211.223273c19.223273 12.753455 44.823273 12.753455 70.423273 12.753454 25.6 0 51.2-6.376727 70.376727-12.753454l409.6-211.223273c38.4-19.223273 38.4-51.2 0-70.423273l-409.6-211.176727C563.479273 6.376727 537.879273 0 512.279273 0s-51.2 6.376727-70.423273 12.8l-409.6 211.176727c-38.4 19.223273-38.4 51.2 0 70.423273z m441.623273-204.8c12.8-6.376727 25.6-6.376727 38.4-6.376727 12.8 0 31.976727 6.376727 38.4 6.376727l339.176727 172.823273-339.176727 172.776727c-6.423273 6.423273-19.223273 6.423273-38.4 6.423273-12.8 0-32.023273-6.423273-38.4-6.423273L134.656 262.423273l339.223273-172.823273z" p-id="15855" fill="#ffffff"></path><path d="M19.456 550.4l403.223273 204.8c25.6 12.8 57.576727 19.176727 89.6 19.176727 31.976727 0 64-6.376727 89.6-19.176727l403.176727-204.8c12.8-6.376727 25.6-32.023273 12.8-51.2-12.8-19.176727-31.976727-32.023273-51.2-19.176727l-403.176727 204.8c-32.023273 12.8-83.223273 12.8-108.823273 0l-403.176727-204.8c-12.8-12.846545-25.6-12.846545-38.4 0-6.423273 12.753455-12.8 25.6-12.8 38.353454 0 19.223273 6.376727 25.6 19.176727 32.023273z" p-id="15856" fill="#ffffff"></path><path d="M1024.279273 748.776727c-12.8-19.176727-32.023273-31.976727-51.2-19.176727l-403.223273 204.8c-31.976727 12.8-83.176727 12.8-108.776727 0l-403.223273-204.8c-12.8-6.376727-38.4 6.376727-51.2 19.176727-12.8 12.846545-6.376727 38.446545 12.8 51.2l403.223273 204.8c25.6 12.846545 57.576727 19.223273 89.6 19.223273 31.976727 0 64-6.376727 95.976727-19.223273l403.223273-204.8c12.8-6.376727 25.6-31.976727 12.8-51.2z" p-id="15857" fill="#ffffff"></path></svg>