<svg width="144" height="144" viewBox="0 0 144 144" fill="none" xmlns="http://www.w3.org/2000/svg">
<g clip-path="url(#clip0_19_2064)">
<rect width="144" height="144" fill="white"/>
<path d="M41.0059 104.241C41.1324 107.443 43.7673 110 47 110H98C101.135 110 103.707 107.596 103.976 104.53C124.069 110.55 139.225 122.065 144.566 136H-0.56543C4.86231 121.839 20.4255 110.176 41.0059 104.241ZM61.6982 100.477L61.6025 100.453C61.6881 100.446 61.7737 100.439 61.8594 100.432L61.6982 100.477Z" fill="url(#paint0_linear_19_2064)"/>
<path d="M98 109H47C44.2386 109 42 106.761 42 104V98.0752L47.1572 97.1426L51.4297 101.371L51.8154 101.753L52.3457 101.637L57.5576 100.503L61.4629 101.448L61.7148 101.51L61.9648 101.44L65.5742 100.44L65.5137 98.498L62.1914 97.7959L58.1582 94.8438L57.7539 94.5469L57.2744 94.6943L52.374 96.1982L47.498 91.9092L47.165 91.6172L46.7256 91.666L42 92.1992V42C42 39.2386 44.2386 37 47 37H87.5498L103 48.3887V104C103 106.761 100.761 109 98 109Z" stroke="#779EEA" stroke-width="2"/>
<path d="M87 37V49H102.203" stroke="#779EEA" stroke-width="2"/>
<rect x="57" y="56" width="20" height="2" fill="#779EEA"/>
<rect x="57" y="64.5" width="32" height="2" fill="#779EEA"/>
<rect x="57" y="73" width="32" height="2" fill="#779EEA"/>
<path d="M37.6446 13.6442C37.946 13.9455 37.9465 14.4344 37.6453 14.7359L35.1884 17.1928L37.6446 19.649C37.946 19.9505 37.946 20.4386 37.6446 20.7401C37.3432 21.0415 36.8544 21.0422 36.5529 20.7408L34.0967 18.2845L31.6405 20.7408C31.339 21.0422 30.8502 21.0415 30.5487 20.7401C30.2474 20.4386 30.2474 19.9505 30.5487 19.649L33.0049 17.1928L30.548 14.7359C30.2469 14.4344 30.2474 13.9455 30.5487 13.6442C30.8501 13.3429 31.3383 13.3431 31.6398 13.6442L34.0967 16.1011L36.5536 13.6442C36.8551 13.3431 37.3433 13.3429 37.6446 13.6442Z" fill="#779EEA"/>
<path opacity="0.3" d="M118.522 50.8409C118.719 51.0369 118.718 51.3546 118.522 51.5507L116.392 53.6817L118.522 55.8127C118.719 56.0088 118.718 56.3264 118.522 56.5226C118.326 56.7187 118.009 56.7187 117.813 56.5226L115.682 54.3916L113.551 56.5226C113.355 56.7187 113.037 56.7187 112.841 56.5226C112.645 56.3264 112.645 56.0088 112.841 55.8127L114.972 53.6817L112.841 51.5507C112.645 51.3546 112.645 51.0369 112.841 50.8409C113.037 50.6449 113.355 50.645 113.551 50.8409L115.682 52.9718L117.813 50.8409C118.009 50.645 118.326 50.6449 118.522 50.8409Z" fill="#779EEA"/>
<path opacity="0.3" d="M29.5225 62.5982C29.7186 62.7943 29.7184 63.1119 29.5225 63.3081L27.3915 65.4391L29.5225 67.5701C29.7186 67.7661 29.7185 68.0838 29.5225 68.2799C29.3264 68.4761 29.0088 68.4761 28.8126 68.2799L26.6816 66.1489L24.5507 68.2799C24.3545 68.4761 24.0369 68.4761 23.8408 68.2799C23.6448 68.0838 23.6447 67.7661 23.8408 67.5701L25.9718 65.4391L23.8408 63.3081C23.6448 63.1119 23.6447 62.7943 23.8408 62.5982C24.0369 62.4023 24.3546 62.4023 24.5507 62.5982L26.6816 64.7292L28.8126 62.5982C29.0087 62.4023 29.3264 62.4023 29.5225 62.5982Z" fill="#779EEA"/>
<path opacity="0.3" d="M59.3409 23.7052C59.5241 23.8887 59.5241 24.186 59.3409 24.3695L57.3466 26.3637L59.3409 28.358C59.5244 28.5416 59.5238 28.8394 59.3402 29.023C59.1566 29.2063 58.8594 29.2065 58.6759 29.023L56.6816 27.0287L54.6874 29.023C54.5039 29.2065 54.2067 29.2063 54.0231 29.023C53.8395 28.8394 53.8388 28.5416 54.0224 28.358L56.0167 26.3637L54.0224 24.3695C53.8391 24.186 53.8391 23.8887 54.0224 23.7052C54.2059 23.5217 54.5038 23.5212 54.6874 23.7045L56.6816 25.6988L58.6759 23.7045C58.8595 23.5212 59.1574 23.5217 59.3409 23.7052Z" fill="#779EEA"/>
<circle opacity="0.6" cx="81" cy="24" r="2" stroke="#779EEA"/>
<circle cx="22.5" cy="84.5" r="1.5" stroke="#779EEA"/>
<circle cx="122.5" cy="83.5" r="1.5" stroke="#779EEA"/>
<path d="M128.882 31.8821C129.214 32.2138 129.213 32.7513 128.882 33.0829L126.479 35.4853L128.882 37.8876C129.213 38.2193 129.213 38.7575 128.882 39.0892C128.55 39.4205 128.012 39.4201 127.681 39.0885L125.278 36.6861L122.876 39.0885C122.544 39.4201 122.007 39.4205 121.675 39.0892C121.343 38.7575 121.343 38.2193 121.675 37.8876L124.077 35.4853L121.675 33.0829C121.344 32.7513 121.343 32.2138 121.674 31.8821C122.006 31.5504 122.544 31.5504 122.876 31.8821L125.278 34.2844L127.681 31.8821C128.012 31.5504 128.551 31.5504 128.882 31.8821Z" fill="#779EEA"/>
<path d="M99.3029 27.7678C99.4982 27.963 99.4982 28.2796 99.3029 28.4749L98.2423 29.5355L99.3029 30.5962C99.4982 30.7915 99.4982 31.108 99.3029 31.3033C99.1077 31.4986 98.7911 31.4986 98.5958 31.3033L97.5352 30.2426L96.4745 31.3033C96.2792 31.4986 95.9627 31.4986 95.7674 31.3033C95.5721 31.108 95.5721 30.7915 95.7674 30.5962L96.828 29.5355L95.7674 28.4749C95.5721 28.2796 95.5721 27.963 95.7674 27.7678C95.9627 27.5725 96.2792 27.5725 96.4745 27.7678L97.5352 28.8284L98.5958 27.7678C98.7911 27.5725 99.1077 27.5725 99.3029 27.7678Z" fill="#779EEA"/>
<path d="M20.3635 37.1213C20.5588 37.3166 20.5588 37.6332 20.3635 37.8284L18.9493 39.2426L20.3635 40.6569C20.5588 40.8521 20.5588 41.1687 20.3635 41.364C20.1682 41.5592 19.8517 41.5592 19.6564 41.364L18.2422 39.9497L16.828 41.364C16.6327 41.5592 16.3161 41.5592 16.1209 41.364C15.9256 41.1687 15.9256 40.8521 16.1209 40.6569L17.5351 39.2426L16.1209 37.8284C15.9256 37.6332 15.9256 37.3166 16.1209 37.1213C16.3161 36.9261 16.6327 36.9261 16.828 37.1213L18.2422 38.5355L19.6564 37.1213C19.8517 36.9261 20.1682 36.9261 20.3635 37.1213Z" fill="#779EEA"/>
</g>
<defs>
<linearGradient id="paint0_linear_19_2064" x1="-13.4156" y1="101.802" x2="-13.4156" y2="143.669" gradientUnits="userSpaceOnUse">
<stop stop-color="#779EEA" stop-opacity="0.4"/>
<stop offset="1" stop-color="white" stop-opacity="0.01"/>
</linearGradient>
<clipPath id="clip0_19_2064">
<rect width="144" height="144" fill="white"/>
</clipPath>
</defs>
</svg>
