<?xml version="1.0" encoding="utf-8"?>
<!-- Generator: Adobe Illustrator 22.0.0, SVG Export Plug-In . SVG Version: 6.00 Build 0)  -->
<svg version="1.1" id="bbad6991-6021-4226-89e8-78832ab4ee8b"
	 xmlns="http://www.w3.org/2000/svg" xmlns:xlink="http://www.w3.org/1999/xlink" x="0px" y="0px" viewBox="0 0 1054 754"
	 style="enable-background:new 0 0 1054 754;" xml:space="preserve">
<style type="text/css">
	.st0{opacity:0.1;fill:#3C71FB;enable-background:new    ;}
	.st1{opacity:0.2;}
	.st2{fill:#3F3D56;}
	.st3{fill:#3C71FB;}
	.st4{opacity:0.1;enable-background:new    ;}
	.st5{fill:url(#SVGID_1_);}
	.st6{fill:#FFFFFF;}
	.st7{fill:#EDEDF4;}
	.st8{opacity:0.8;fill:#FA5959;enable-background:new    ;}
	.st9{opacity:0.8;fill:#FED253;enable-background:new    ;}
	.st10{opacity:0.8;fill:#8CCF4D;enable-background:new    ;}
	.st11{fill:url(#SVGID_2_);}
	.st12{fill:url(#SVGID_3_);}
	.st13{fill:#454B69;}
	.st14{fill:#FBBEBE;}
	.st15{opacity:5.000000e-02;enable-background:new    ;}
	.st16{opacity:0.1;}
	.st17{fill:#FFE1A8;}
	.st18{fill:#F48154;}
	.st19{opacity:0.2;fill:#3C71FB;enable-background:new    ;}
	.st20{opacity:0.2;fill:#A9D89D;}
	.st21{fill:#DFE3EF;}
	.st22{fill:#759EF9;}
</style>
<title>conference</title>
<ellipse class="st0" cx="510" cy="707.4" rx="510" ry="25.5"/>
<g class="st1">
	<path class="st2" d="M915.9,625.9c-0.4,0.8-0.9,1.6-1.5,2.3c-4.9-3.5-10-6.9-15.1-10.2c0.1-0.2,0.2-0.4,0.3-0.7
		c1.2-2.3,3-4.2,5.2-5.6c2.8-1.7,6-2.1,8.7-0.7s4.1,4.3,4.3,7.6C917.7,621.1,917.1,623.7,915.9,625.9z"/>
	
		<ellipse transform="matrix(0.4681 -0.8837 0.8837 0.4681 -51.2939 1132.0522)" class="st2" cx="914.7" cy="608.6" rx="12.1" ry="9.2"/>
	
		<ellipse transform="matrix(0.4681 -0.8837 0.8837 0.4681 -36.0856 1131.2181)" class="st2" cx="921.6" cy="595.6" rx="12.1" ry="9.2"/>
	
		<ellipse transform="matrix(0.4681 -0.8837 0.8837 0.4681 -20.8963 1130.3896)" class="st2" cx="928.5" cy="582.6" rx="12.1" ry="9.2"/>
	
		<ellipse transform="matrix(0.4681 -0.8837 0.8837 0.4681 -5.688 1129.5555)" class="st2" cx="935.4" cy="569.5" rx="12.1" ry="9.2"/>
	<path class="st3" d="M952.1,464c-0.4-2-0.6-4-0.7-6.1l23.3,7.8l-23.3-12.1c0.7-12.2,6.3-23.5,15.6-31.3l22.5,32.6l-17.5-36.3
		c20.7-12.9,48-6.6,60.9,14.1c12.9,20.7,6.6,48-14.1,60.9c-1.7,1.1-3.6,2.1-5.4,2.9c0.6,3.1,0.8,6.3,0.7,9.5l-35.4-0.3l34.9,5.8
		c-0.8,4.8-2.3,9.4-4.6,13.6c-4.6,8.8-12,15.7-21.1,19.7c4.4,24-11.6,47-35.6,51.4c-24,4.4-47-11.6-51.4-35.6
		c-3.6-20.1,6.9-40,25.6-48.3C923,492.2,933.5,472.3,952.1,464z"/>
	<path class="st4" d="M1009.1,525.1c-4.6,8.8-12,15.7-21.1,19.7c4.4,24-11.6,47-35.6,51.4c-24,4.4-47-11.6-51.4-35.6
		c-3.6-20.1,6.9-40,25.6-48.3C924.9,502.9,1011.4,520.7,1009.1,525.1z"/>
</g>
<g class="st1">
	<path class="st2" d="M888.2,365.3c-0.5,1.4-1.2,2.7-1.9,4c-8.7-4.6-17.5-9.1-26.4-13.5c0.1-0.4,0.3-0.8,0.4-1.1
		c1.5-3.9,3.9-7.4,7.2-10c4.2-3.4,9.3-4.6,13.8-2.9s7.4,6,8.3,11.3C890.2,357.2,889.7,361.4,888.2,365.3z"/>
	
		<ellipse transform="matrix(0.361 -0.9326 0.9326 0.361 244.8754 1044.9738)" class="st2" cx="885" cy="343.8" rx="19.5" ry="14.9"/>
	
		<ellipse transform="matrix(0.3558 -0.9346 0.9346 0.3558 279.4824 1036.1552)" class="st2" cx="891.3" cy="315.4" rx="19.5" ry="14.9"/>
	
		<ellipse transform="matrix(0.3558 -0.9346 0.9346 0.3558 305.8224 1029.7096)" class="st2" cx="899.8" cy="293" rx="19.5" ry="14.9"/>
	
		<ellipse transform="matrix(0.3558 -0.9346 0.9346 0.3558 332.1782 1023.267)" class="st2" cx="908.3" cy="270.7" rx="19.5" ry="14.9"/>
	<path class="st3" d="M914.2,98c-1-3.2-1.8-6.4-2.3-9.6l39,7.9l-39.8-14.8c-1.3-19.7,5.5-39,18.9-53.5l42.7,47.9l-35.3-54.8
		c30.7-24.8,75.8-20,100.6,10.7c24.8,30.7,20,75.8-10.7,100.6c-2.5,2-5.2,3.9-8,5.6c1.5,4.9,2.5,10,3,15.1l-57,6.6l57.2,2.3
		c-0.9,24.2-13.9,46.2-34.7,58.7c11.8,37.7-9.3,77.8-47,89.6c-37.7,11.8-77.8-9.3-89.6-47c-9.8-31.5,3.2-65.6,31.5-82.6
		C872.9,149.1,885.9,115,914.2,98z"/>
	<path class="st4" d="M1017.8,184.8c-5.7,15-16.2,27.6-30,35.9c11.8,37.7-9.3,77.8-47,89.6c-37.7,11.8-77.8-9.3-89.6-47
		c-9.8-31.5,3.2-65.6,31.5-82.6C878.1,165.9,1020.7,177.2,1017.8,184.8z"/>
</g>
<g class="st1">
	<path class="st2" d="M201.7,439.6c0.4,1.7,1,3.4,1.7,5c10.9-4.2,22-8.2,33.1-12c-0.1-0.5-0.2-0.9-0.3-1.4c-1.1-4.8-3.6-9.3-7-12.9
		c-4.5-4.6-10.2-6.8-15.8-5.5s-9.7,6-11.5,12.1C200.5,429.7,200.5,434.8,201.7,439.6z"/>
	
		<ellipse transform="matrix(0.9715 -0.2372 0.2372 0.9715 -90.6504 61.9779)" class="st2" cx="212.3" cy="407.7" rx="17.8" ry="23.3"/>
	
		<ellipse transform="matrix(0.9715 -0.2372 0.2372 0.9715 -84.2936 59.59)" class="st2" cx="205.5" cy="380.1" rx="17.8" ry="23.3"/>
	
		<ellipse transform="matrix(0.9715 -0.2372 0.2372 0.9715 -77.9415 57.2033)" class="st2" cx="198.8" cy="352.5" rx="17.8" ry="23.3"/>
	<ellipse transform="matrix(0.9715 -0.2372 0.2372 0.9715 -71.5882 54.821)" class="st2" cx="192" cy="324.9" rx="17.8" ry="23.3"/>
	<path class="st3" d="M210.5,120.3c1.6-3.6,3-7.2,4.1-11l-47.1,3.6l49.1-11.6c4.5-23-0.8-46.8-14.4-65.9l-57.4,50.2l49.8-59.4
		C162.1-7.8,108.3-9,74.3,23.4S39,109.6,71.4,143.6c2.9,3,5.9,5.8,9.2,8.4c-2.5,5.6-4.5,11.4-5.8,17.4l66.3,16.2l-67.9-5.8
		c-2.5,28.6,9.6,56.6,32.3,74.4c-19.5,42.8-0.6,93.2,42.1,112.7s93.2,0.6,112.7-42.1c16.3-35.7,6-78-24.9-102.2
		C251.7,186.8,241.4,144.5,210.5,120.3z"/>
	<path class="st4" d="M75.4,207.4c4.5,18.5,15.1,35,30.2,46.8c-19.5,42.8-0.6,93.2,42.2,112.7c42.8,19.5,93.2,0.6,112.7-42.2
		c16.3-35.7,6-78-24.9-102.2C243.1,205.7,73.1,198.1,75.4,207.4z"/>
</g>
<linearGradient id="SVGID_1_" gradientUnits="userSpaceOnUse" x1="613.815" y1="51.64" x2="613.815" y2="585" gradientTransform="matrix(1 0 0 -1 -73 682.99)">
	<stop  offset="0" style="stop-color:#808080;stop-opacity:0.25"/>
	<stop  offset="0.54" style="stop-color:#808080;stop-opacity:0.12"/>
	<stop  offset="1" style="stop-color:#808080;stop-opacity:0.1"/>
</linearGradient>
<path class="st5" d="M958.2,98H123.4c-4.1,0-7.4,3.3-7.4,7.5v510.8c0,8.3,6.7,15,14.9,15c0,0,0,0,0.1,0h819.6c8.3,0,15-6.7,15-15
	c0,0,0,0,0-0.1V105.4C965.6,101.3,962.3,98,958.2,98C958.2,98,958.2,98,958.2,98z"/>
<path class="st6" d="M962.2,129.7v483.6c0,8.2-6.7,14.9-14.9,14.9H134.4c-8.2,0-14.9-6.7-14.9-14.9V129.7H962.2z"/>
<path class="st7" d="M962.2,108.2v21.5H119.5v-21.5c0-4.1,3.3-7.4,7.4-7.4c0,0,0,0,0,0h828C959,100.9,962.2,104.2,962.2,108.2z"/>
<circle class="st8" cx="132.9" cy="115.1" r="3.4"/>
<circle class="st9" cx="142.4" cy="115.1" r="3.4"/>
<circle class="st10" cx="151.8" cy="115.1" r="3.4"/>
<linearGradient id="SVGID_2_" gradientUnits="userSpaceOnUse" x1="703.795" y1="-286.25" x2="703.795" y2="-281.08" gradientTransform="matrix(6.123234e-17 1 1 -6.123234e-17 871 -617.01)">
	<stop  offset="0" style="stop-color:#808080;stop-opacity:0.25"/>
	<stop  offset="0.54" style="stop-color:#808080;stop-opacity:0.12"/>
	<stop  offset="1" style="stop-color:#808080;stop-opacity:0.1"/>
</linearGradient>
<rect x="584.7" y="85.1" class="st11" width="5.2" height="3.5"/>
<rect x="313.3" y="172.1" class="st7" width="81" height="8.6"/>
<rect x="313.3" y="197.1" class="st7" width="455" height="8.6"/>
<rect x="313.3" y="222.1" class="st7" width="455" height="8.6"/>
<rect x="313.3" y="247.1" class="st7" width="455" height="8.6"/>
<rect x="313.3" y="272" class="st7" width="455" height="8.6"/>
<rect x="400.2" y="319.7" class="st7" width="280.9" height="217.1"/>
<ellipse class="st3" cx="905.6" cy="748.8" rx="26.9" ry="5.2"/>
<ellipse class="st2" cx="905.2" cy="746.6" rx="3.1" ry="4.1"/>
<ellipse class="st2" cx="905.2" cy="741.6" rx="3.1" ry="4.1"/>
<ellipse class="st2" cx="905.2" cy="736.6" rx="3.1" ry="4.1"/>
<ellipse class="st2" cx="905.2" cy="731.6" rx="3.1" ry="4.1"/>
<ellipse class="st2" cx="905.2" cy="726.6" rx="3.1" ry="4.1"/>
<ellipse class="st2" cx="905.2" cy="721.6" rx="3.1" ry="4.1"/>
<ellipse class="st2" cx="905.2" cy="716.6" rx="3.1" ry="4.1"/>
<path class="st3" d="M916.9,682.3c0.4-0.5,0.8-1.1,1.2-1.7l-8.2-1.3l8.9,0.1c1.7-3.7,1.8-8,0.3-11.9l-11.9,6.2l11-8.1
	c-4-7.2-13.2-9.8-20.4-5.8c-7.2,4-9.8,13.2-5.8,20.4c0.4,0.8,0.9,1.5,1.5,2.1c-0.7,0.8-1.2,1.8-1.7,2.7l10.7,5.5l-11.4-3.8
	c-1.6,4.8-0.7,10.1,2.4,14.1c-5.1,6.5-4,15.9,2.5,21.1s15.9,4,21.1-2.5c4.3-5.4,4.3-13.1,0-18.6
	C921.1,695.4,921.1,687.8,916.9,682.3L916.9,682.3z"/>
<path class="st4" d="M890.1,691.6c0,3.4,1.1,6.6,3.2,9.3c-5.1,6.5-4,15.9,2.5,21.1s15.9,4,21.1-2.5c4.3-5.4,4.3-13.1,0-18.6
	C918.9,698.3,890.1,689.9,890.1,691.6z"/>
<ellipse class="st3" cx="77" cy="682" rx="12.2" ry="2.3"/>
<ellipse class="st2" cx="76.8" cy="681" rx="1.4" ry="1.8"/>
<ellipse class="st2" cx="76.8" cy="678.8" rx="1.4" ry="1.8"/>
<ellipse class="st2" cx="76.8" cy="676.5" rx="1.4" ry="1.8"/>
<ellipse class="st2" cx="76.8" cy="674.3" rx="1.4" ry="1.8"/>
<ellipse class="st2" cx="76.8" cy="672" rx="1.4" ry="1.8"/>
<ellipse class="st2" cx="76.8" cy="669.7" rx="1.4" ry="1.8"/>
<ellipse class="st2" cx="76.8" cy="667.5" rx="1.4" ry="1.8"/>
<path class="st3" d="M82.1,652c0.2-0.2,0.4-0.5,0.5-0.8l-3.7-0.6h4c0.8-1.7,0.8-3.6,0.1-5.4l-5.4,2.8l5-3.7c-1.9-3.2-6-4.3-9.3-2.4
	c-3.2,1.9-4.3,6-2.4,9.3c0.2,0.3,0.3,0.5,0.5,0.8c-0.3,0.4-0.6,0.8-0.8,1.2l4.8,2.5l-5.2-1.7c-0.7,2.2-0.3,4.6,1.1,6.4
	c-2.3,2.9-1.8,7.2,1.1,9.5c2.9,2.3,7.2,1.8,9.5-1.1c1.9-2.5,1.9-5.9,0-8.4C84,657.9,84,654.4,82.1,652L82.1,652z"/>
<path class="st4" d="M70,656.1c0,1.5,0.5,3,1.4,4.2c-2.3,2.9-1.8,7.2,1.1,9.5c2.9,2.3,7.2,1.8,9.5-1.1c1.9-2.5,1.9-5.9,0-8.4
	C83,659.2,70,655.4,70,656.1z"/>
<linearGradient id="SVGID_3_" gradientUnits="userSpaceOnUse" x1="844.668" y1="-41.0671" x2="844.668" y2="462.6316" gradientTransform="matrix(1 0 0 -1 -665.04 682.99)">
	<stop  offset="0" style="stop-color:#808080;stop-opacity:0.25"/>
	<stop  offset="0.54" style="stop-color:#808080;stop-opacity:0.12"/>
	<stop  offset="1" style="stop-color:#808080;stop-opacity:0.1"/>
</linearGradient>
<path class="st12" d="M278.9,304.5h-46.6c-1.5,0-2.7,1-3,2.5l-12.6,62.3c0,0.2,0,0.3,0,0.5l-1.2,0.1l-1.1,0.1c-0.1,0-0.1,0-0.2,0
	c-0.3-0.2-0.5-0.6-0.6-1c-0.6-2.2-1.1-4.5-1.3-6.8c-0.2-2.5-0.2-5,0-7.5c0.1-2,0-4,0-5.9c0.3-2.2,0.5-4.5,0.6-6.7
	c0.1-2.4-0.1-4.8-0.7-7.1c-0.4-1.3-0.8-2.5-1.4-3.7c-0.4-3.4-0.9-6.7-1.4-10.1c-0.4-2.5-0.7-5-1.2-7.5c0.1-0.4,0.2-0.8,0.3-1.2
	c0.5-4.1-1.1-8.3-4.4-10.9c-1-0.8-2.1-1.5-3.3-2c-1-0.4-2-0.8-3-1l-16.1-5c-1.5-2.2-3-4.4-4.3-6.6c-1.3-2-2.4-4.1-3.4-6.3
	c10.8-7.7,13.8-22.6,6.6-33.9c-0.3-0.4-0.6-0.8-0.8-1.2c0.1-1.9-0.1-3.9-0.7-5.7c-0.1-0.7-0.3-1.4-0.6-2c-0.4-0.9-1-1.7-1.6-2.4
	c-0.1-0.1-0.3-0.3-0.4-0.4c-1.3-1.4-2.8-2.7-4.4-3.9c-5.3-3.9-12.5-8.6-19.1-10.1c-3.2-0.7-6.6-0.8-9.8,0l-0.5-0.1l-0.9-0.2
	c0.2,0.1,0.5,0.2,0.7,0.3c-3.4-0.8-7-0.7-10.4,0.2c-4.2,1.3-5.7,4.6-7.5,8.3c-2.9,5.9-7.3,10.9-12.8,14.6c-3.5,2.4-7.7,4.4-9.4,8.3
	c-1.6,3.6-0.5,7.7-0.1,11.7c0.9,10.8-3.7,21.4-12.3,28.1c-4.8,3.7-11.2,6.8-12.3,12.8c-0.7,4.3,1.7,8.3,3.5,12.2
	c3.8,8.3,5.1,18.4,0.6,26.3c-1.3,2.3-3,4.3-3.7,6.8c-1.2,4.4,1.4,9.3,5.2,11.8s8.6,3.3,13.2,3.3c0.8,0,1.6,0,2.4-0.1
	c-0.4,3.9-0.9,7.7-1.5,11.6c-0.9,5.7-2.1,11.4-1.8,17.1c0.2,3.1,0.9,6.3,2.9,8.7c3.2,3.8,8.7,4.5,13.6,4.4
	c7.8-0.3,15.5-2.3,23.2-2.8c-0.1,0.3-0.2,0.7-0.2,1c0,1.4,0.8,2.8,0.4,4.2c-0.2,0.5-0.4,0.9-0.7,1.3c-2,2.9-4.4,6.2-3.7,9.7
	c0.3,1.7,1.4,3.4,0.9,5.1c-0.3,0.8-0.7,1.5-1.3,2.1c-2.7,4.1-2.2,9.5-1.5,14.3l0.9,0.3c-0.3,0.6-0.5,1.1-0.8,1.7
	c-1.1,2.5-1.8,5.2-1.9,8c0.1,3.1,0.6,6.2,1.6,9.1c1.4,5,2.8,10,4.6,14.8c1.5,4.2,3.3,8.2,5.1,12.2c0.6,1.2,1.1,2.5,1.7,3.7
	c3.4,7.7,6.8,15.5,10.3,23.2c0.4,0.9,0.8,1.8,1,2.8c0.2,0.8,0.2,1.7,0.4,2.5c0.5,3.2,2.6,5.9,4.2,8.8c5.2,9.8,3.9,21.5,2.5,32.5
	c0.8,0.8,1.6,1.4,2.6,2c-0.1,1.1-0.3,2.2-0.5,3.3c-1.4,6.3-3,12.5-3.9,18.8c-0.5,3.1-0.7,6.2-0.7,9.3c0,3,1.1,6,1.1,9
	c0.7,3,1.8,5.9,2.6,8.8c0.3,4.6,0.9,9.2,1.6,13.8c0.2,4.2,0.5,8.4,0.7,12.5c0.2,3.7,0.4,7.6-1.3,10.9c0,0.1-0.1,0.2-0.2,0.3
	c-2.9-0.2-5.8,1.1-7.5,3.5c-1.7,2.5-2.8,5.5-2.9,8.6c-0.2,1.3-0.1,2.6,0.4,3.9c0.5,1,1.3,1.7,1.9,2.6c0.5,1.1,0.9,2.2,1,3.4
	c1.1,6.9,2.3,13.9,2.9,20.8c0.2,2.1,0.4,4.4,1.6,6.1s4,2.6,5.6,1.1c-1.6-8-2.4-16.2-2.3-24.3c0.5-0.1,1.1-0.1,1.6,0
	c0.3,1.4,0.7,2.8,1.1,4.2c0.3,1,0.6,2,1,3c-0.2,1.4,0,3.4-0.1,4.4c-0.1,4.4-0.1,8.8,0,13.3c0.1,2.5,0.1,5,0.3,7.6
	c0,0.3,0,0.6,0.2,0.8c0.1,0.1,0.2,0.1,0.3,0.1c0.8,0,1.7,0,2.5,0c0.1-1,0.1-2,0.1-3c0-2.3,0-4.6,0-6.9c0-2,0-3.9,0-5.9
	c0.6,3.5,1.4,7,2.3,10.5l1.8,7.4l0.2,0.7l1.5,6.3c0,0.2,0.1,0.4,0.2,0.7c0.2,0.3,0.4,0.6,0.8,0.8c6.4,4.7,14.9,5.6,22.2,2.4
	c0.3-0.1,0.5-0.3,0.8-0.5c0.4-0.5,0.6-1.2,0.5-1.9c-0.1-2,0.3-4,1.1-5.8c0.5-0.7,0.8-1.4,1.1-2.2c0.2-1.2-0.1-2.5-0.7-3.6l-1.6-3.8
	c0.8,0,1.6-0.1,2.3-0.2c1.2-1,0.3-3.1,1.3-4.3c0.4-0.4,0.8-0.7,1.3-1c1.2-1.1,1.1-3,0.5-4.5c-1.8-4.9-6.5-8.1-11-10.8l-0.6-0.4
	c-3.6-17-10.1-33.8-8.4-51c0.4-3.7,1.1-7.3,1.7-11c3-18.1,2.8-36.7,6.3-54.7c1.8-0.1,3.5-0.6,5.1-1.5c2.9-1.8,4.4-5.3,4.8-8.8
	s-0.1-6.8,0-10.3c0.1-4.9,1.3-9.8,2.5-14.6c1.4-5.6-1-11.6,0.4-17.2c0.5-1.7,1-3.5,1.3-5.3c0.3-2.5-0.2-5.2,0.7-7.5
	c0.4-1.1,1.1-2.1,1.5-3.1c2-4.5-0.2-10,1.8-14.5c0.6-1.1,1.1-2.2,1.4-3.4c0.1-0.9,0-1.9-0.4-2.8c-0.5-2.1-1-4.2-1.3-6.3
	c-0.1-0.7-0.2-1.5-0.2-2.2c0.1-0.8,0.3-1.6,0.5-2.3c1.5-5.3,1.7-10.8,1.9-16.3c0.1-2.9,0.2-6-1.1-8.6c-0.4-0.8-0.8-1.5-1.4-2.2
	l0.1-0.1c-0.8-3.1-1.4-6.8-0.3-9.8c0.5-1.3,1.3-2.5,1.1-3.9s-1.1-2.3-1.5-3.5c-0.6-2,0.3-4.2,0.9-6.2c1-3.5,0.8-7.3,0.5-10.9
	c0-0.8-0.2-1.6-0.5-2.3c-0.3-0.4-0.6-0.8-0.9-1.2c-0.5-1.1-0.5-2.3,0.1-3.4c0.6-1,1-2.1,1.4-3.2c0.1-0.3,0.1-0.7,0-1
	c0.7-0.3,1.4-0.8,2.1-1.2c3-1.6,6.5-1.4,9.9-1.5s7.1-0.8,9.2-3.5c0.2-0.3,0.5-0.6,0.8-0.8c0.1-0.1,0.2-0.1,0.3-0.1
	c1.2,0.2,2,0.2,1.8-0.2c0.6-0.3,0.8-0.9,1.1-1.4c0.1-0.1,0.2-0.3,0.3-0.4c1.3-0.7,2.6-1.4,3.9-1.9c-0.2,0-0.5,0-0.7,0
	c2.1-0.7,4.3-1,6.5-0.9c2.1,0,5.7,0.3,7.3-1.3c3-1.9,3.9-5.7,5.3-9c0.5-1.1,1-2.1,1.5-3.1l7.8-0.8c1.3-0.1,2.4-1.1,2.7-2.4
	l11.7-57.6c0.3-1.7-0.7-3.3-2.4-3.6C279.3,304.5,279.1,304.5,278.9,304.5z M131.8,383.5c-3.5,1.5-7.4,1.5-10.9,0
	c-0.5-0.2-1.1-0.9-0.7-1.3s0.8-0.1,1.1-0.2c0.6-0.3,0.2-1.3-0.2-1.9c-1-1.8-0.3-4.1,0.7-5.9s2.3-3.6,2.3-5.7c-0.1-0.7-0.1-1.3,0-2
	c0.3-0.9,0.8-1.8,1.5-2.6c0.2-0.3,0.3-0.5,0.5-0.8c0.3,0.4,0.5,0.8,0.8,1.2c0.9,1.4,1.8,2.8,2.7,4.2c0.7,0.9,1.2,2.1,1.3,3.2
	c-0.1,0.7-0.1,1.4,0.1,2.1c0.4,0.9,1.6,1.6,1.2,2.5c-0.5,0.9-0.5,2,0,2.9c0.5,0.8,1.2,1.5,1.6,2.3c0.1,0.2,0.2,0.5,0.3,0.8
	C133.4,382.7,132.6,383.1,131.8,383.5z M228.8,372.7c-0.6,0.1-1.2,0.3-1.8,0.4c-0.1-0.4-0.1-0.6-0.1-0.6l-3.1,0.9
	c-1.2,0.1-2.4-0.2-3.4-0.7l12.9-1.3C231.8,371.9,230.3,372.3,228.8,372.7z"/>
<path class="st2" d="M134,232c-2.9,5.9-7.2,10.9-12.6,14.5c-3.5,2.4-7.6,4.4-9.3,8.2c-1.6,3.6-0.5,7.7-0.1,11.6
	c0.9,10.7-3.6,21.1-12.1,27.8c-4.8,3.7-11.1,6.8-12.1,12.7c-0.7,4.2,1.7,8.3,3.4,12.2c3.8,8.2,5.1,18.3,0.6,26.1
	c-1.3,2.2-3,4.3-3.6,6.8c-1.2,4.4,1.3,9.2,5.1,11.8s8.5,3.3,13.1,3.2c3.3,0,6.9-0.5,9.3-2.8c1.6-1.6,2.4-3.7,3.1-5.8l5.7-16.3
	c1-2.9,2.1-6,4.3-8.2c4.6-4.7,12.2-4.2,18.8-4.1c9.7,0.1,19.4-1.4,28.6-4.5c5.4-1.8,11.3-4.9,12.5-10.5s-2.5-10.6-5.8-15.1
	c-2.4-3.3-4.8-6.8-6.9-10.4c-2.1-3.4-4.2-7.1-4.8-11.1c-1-6.6,2.1-13.1,4.6-19.4s4.1-13.7,0.6-19.4c-1.5-2.2-3.4-4.1-5.7-5.6
	c-5.3-3.9-12.4-8.5-18.8-10.1c-3.5-0.8-7.1-0.8-10.5,0.1C137.2,225,135.8,228.4,134,232z"/>
<path class="st13" d="M205,309.7c1.3,4.4,2.2,8.9,2.8,13.5c1.6,11,3.2,22.1,2.9,33.3c-0.1,2.5-0.1,5,0,7.5c0.3,2.3,0.7,4.5,1.3,6.7
	c0,0.4,0.3,0.8,0.6,1c0.4,0.2,0.8,0,1.3,0c1.4-0.2,2.5,1.2,3.6,2.1c2.2,1.8,5.3,2,7.8,0.6c-0.8,3.3,0.5,6.8,3.3,8.9
	c2.8,2,6.3,2.6,9.6,1.7c-1.7-0.3-3.3,0.9-4.2,2.3c-0.3,0.5-0.6,1.1-1.1,1.4s-1.5-0.1-2.1,0.3c-0.3,0.2-0.6,0.5-0.8,0.8
	c-2,2.7-5.7,3.3-9,3.4s-6.9-0.1-9.8,1.5c-0.7,0.4-1.4,0.9-2.2,1.2c-2.3,1-5.1,0-6.9-1.7c-1.7-1.8-2.9-4.1-3.5-6.5
	c-3-9.7-2.4-20-1.8-30.2C197.6,341.4,199.6,324.9,205,309.7z"/>
<path class="st4" d="M205,309.7c1.3,4.4,2.2,8.9,2.8,13.5c1.6,11,3.2,22.1,2.9,33.3c-0.1,2.5-0.1,5,0,7.5c0.3,2.3,0.7,4.5,1.3,6.7
	c0,0.4,0.3,0.8,0.6,1c0.4,0.2,0.8,0,1.3,0c1.4-0.2,2.5,1.2,3.6,2.1c2.2,1.8,5.3,2,7.8,0.6c-0.8,3.3,0.5,6.8,3.3,8.9
	c2.8,2,6.3,2.6,9.6,1.7c-1.7-0.3-3.3,0.9-4.2,2.3c-0.3,0.5-0.6,1.1-1.1,1.4s-1.5-0.1-2.1,0.3c-0.3,0.2-0.6,0.5-0.8,0.8
	c-2,2.7-5.7,3.3-9,3.4s-6.9-0.1-9.8,1.5c-0.7,0.4-1.4,0.9-2.2,1.2c-2.3,1-5.1,0-6.9-1.7c-1.7-1.8-2.9-4.1-3.5-6.5
	c-3-9.7-2.4-20-1.8-30.2C197.6,341.4,199.6,324.9,205,309.7z"/>
<path class="st14" d="M156.2,604.3c0.8,3.5,2.2,6.8,3,10.3c0.6,3,0.9,6.1,1,9.1l0.9,15.5c0.2,3.7,0.4,7.5-1.3,10.8
	c-1.1,2.3-3.1,4.2-3.6,6.7c-0.9,3.9,1.9,7.6,4.5,10.6l12.9,14.9c4,4.7,8.4,9.6,14.4,11.2c0.9,0.3,1.8,0.3,2.8,0.1
	c1.7-0.5,2.5-2.6,2.2-4.3c-0.4-1.7-1.2-3.3-2.3-4.7c-3.4-4.7-7-9.4-9.2-14.8c-2.8-6.8-3.1-14.4-2.9-21.8c0.7-30.1,8.3-59.8,7.4-90
	c-6.6-0.5-13.4-1.6-20-1.5c-5.9,0.1-5.2,6-6.2,10.8c-1.4,6.2-3,12.4-3.9,18.7c-0.5,3.1-0.7,6.2-0.7,9.3
	C155.1,598.3,156.2,601.3,156.2,604.3z"/>
<path class="st15" d="M156.2,604.3c0.8,3.5,2.2,6.8,3,10.3c0.6,3,0.9,6.1,1,9.1l0.9,15.5c0.2,3.7,0.4,7.5-1.3,10.8
	c-1.1,2.3-3.1,4.2-3.6,6.7c-0.9,3.9,1.9,7.6,4.5,10.6l12.9,14.9c4,4.7,8.4,9.6,14.4,11.2c0.9,0.3,1.8,0.3,2.8,0.1
	c1.7-0.5,2.5-2.6,2.2-4.3c-0.4-1.7-1.2-3.3-2.3-4.7c-3.4-4.7-7-9.4-9.2-14.8c-2.8-6.8-3.1-14.4-2.9-21.8c0.7-30.1,8.3-59.8,7.4-90
	c-6.6-0.5-13.4-1.6-20-1.5c-5.9,0.1-5.2,6-6.2,10.8c-1.4,6.2-3,12.4-3.9,18.7c-0.5,3.1-0.7,6.2-0.7,9.3
	C155.1,598.3,156.2,601.3,156.2,604.3z"/>
<path class="st2" d="M160.1,650.5c-3-0.6-6.1,1-8,3.4c-1.7,2.5-2.7,5.5-2.9,8.6c-0.2,1.3-0.1,2.6,0.4,3.8c0.5,1,1.3,1.7,1.8,2.6
	c0.5,1.1,0.9,2.2,1,3.4c1.1,6.9,2.2,13.8,2.8,20.7c0.2,2.1,0.4,4.4,1.6,6.1s4,2.6,5.5,1.1c-1.6-7.9-2.3-16-2.3-24.1
	c3.5-0.5,6.6,2.3,8.9,5c2.3,2.8,4.5,5.7,6.4,8.7c1.6,2.9,3.5,5.6,5.6,8.2c4.7,5,11.5,7.3,18.2,6.2c1.2-1,0.3-3.1,1.3-4.2
	c0.4-0.4,0.8-0.7,1.3-1c1.2-1.1,1.1-3,0.5-4.5c-1.8-4.9-6.5-8-10.9-10.8c-8-5-16.1-10-24.1-14.8c-3.1-1.9-5.4-4.8-6.6-8.2
	C160.3,659.9,159.1,650.2,160.1,650.5z"/>
<path class="st15" d="M160.1,650.5c-3-0.6-6.1,1-8,3.4c-1.7,2.5-2.7,5.5-2.9,8.6c-0.2,1.3-0.1,2.6,0.4,3.8c0.5,1,1.3,1.7,1.8,2.6
	c0.5,1.1,0.9,2.2,1,3.4c1.1,6.9,2.2,13.8,2.8,20.7c0.2,2.1,0.4,4.4,1.6,6.1s4,2.6,5.5,1.1c-1.6-7.9-2.3-16-2.3-24.1
	c3.5-0.5,6.6,2.3,8.9,5c2.3,2.8,4.5,5.7,6.4,8.7c1.6,2.9,3.5,5.6,5.6,8.2c4.7,5,11.5,7.3,18.2,6.2c1.2-1,0.3-3.1,1.3-4.2
	c0.4-0.4,0.8-0.7,1.3-1c1.2-1.1,1.1-3,0.5-4.5c-1.8-4.9-6.5-8-10.9-10.8c-8-5-16.1-10-24.1-14.8c-3.1-1.9-5.4-4.8-6.6-8.2
	C160.3,659.9,159.1,650.2,160.1,650.5z"/>
<path class="st14" d="M158.8,595.5c-1.6,20.1,2.9,40.1,6.9,59.9c0.4,1.6,0.6,3.2,0.6,4.8c-0.2,2-0.5,4-1,6
	c-1.5,8.2,0.4,16.5,2.4,24.6c1.3,5.6,3.2,11.9,8.4,14.3c3.7,1.7,8,1,12,0.2c1.3-0.1,2.6-0.6,3.6-1.5c1.4-1.3,1.5-3.6,1.4-5.5
	c-1.4-22.2-12.6-43.5-10.4-65.6c0.4-3.7,1.1-7.3,1.7-10.9c3.1-18.8,2.7-38.2,6.7-56.8c0.2-0.7,0.2-1.3,0-2c-0.3-0.6-0.9-1.2-1.5-1.5
	c-3.6-2.2-7.5-4.1-11.7-4.7c-3.3-0.5-7.4-0.1-10.2,1.9s-3.1,6.7-3.9,10.1C161.3,577.6,159.6,586.5,158.8,595.5z"/>
<path class="st2" d="M164,708.4c0,0.3,0,0.5,0.1,0.8c0.1,0.1,0.2,0.2,0.3,0.2c0.8,0,1.7,0,2.5,0c0.1-1,0.1-2,0.1-3v-6.8
	c0-5.4,0-10.9-0.2-16.3c0-0.2,0-0.4-0.1-0.6c-0.1-0.1-0.2-0.2-0.3-0.3c-0.6-0.3-2-1.2-2.5-0.2s-0.3,4.2-0.3,5.5
	c-0.1,4.4-0.1,8.8,0,13.2C163.8,703.4,163.9,705.9,164,708.4z"/>
<path class="st2" d="M207.9,470.5c0,0.7,0,1.5,0.2,2.2c0.4,2.1,0.8,4.2,1.3,6.3c0.3,0.9,0.4,1.8,0.3,2.8c-0.3,1.2-0.8,2.3-1.4,3.4
	c-2,4.5,0.1,10-1.8,14.5c-0.5,1.1-1.1,2-1.5,3.1c-0.9,2.4-0.4,5-0.7,7.5c-0.3,1.8-0.7,3.5-1.3,5.2c-1.4,5.6,0.9,11.5-0.4,17.1
	c-1.2,4.8-2.3,9.6-2.4,14.5c-0.1,3.4,0.4,6.8,0,10.2s-1.8,6.9-4.7,8.7c-2.3,1.4-5.1,1.6-7.8,1.6c-5.2,0.1-10.4-0.1-15.6-0.5
	s-10.8-1.3-14.4-4.9c1.4-10.9,2.7-22.6-2.5-32.3c-1.5-2.9-3.6-5.6-4.1-8.8c-0.1-0.8-0.2-1.7-0.4-2.5c-0.2-1-0.6-1.9-1-2.8
	c-3.4-7.7-6.8-15.4-10.1-23.1c-0.5-1.2-1.1-2.5-1.6-3.7c-1.8-4-3.5-8-5-12.1c-1.8-4.8-3.2-9.8-4.5-14.8c-0.9-2.9-1.5-6-1.5-9.1
	c0.1-2.7,0.8-5.4,1.9-7.9c0.6-1.5,1.3-2.9,2-4.3c20.1-4.7,40.8-6.5,61.4-5.3c3.3,0.1,6.6,0.6,9.7,1.6c2.1,0.8,4,2,5.6,3.7
	c0.7,0.8,1.3,1.6,1.7,2.6c1.2,2.6,1.1,5.7,1,8.6c-0.2,5.5-0.4,11-1.9,16.2C208.2,469,208,469.7,207.9,470.5z"/>
<path class="st2" d="M193.8,697.3c-3,2.3-6.6,3.8-10.4,4.4c-3.3,0.5-7,0.1-9.6-2c-3-2.4-4.1-6.5-4.9-10.2l-1.1-5
	c-0.4-1.8-0.8-3.6-1.2-5.4c-0.9-4.8-1.1-9.7-0.8-14.6c-2.7,1.1-4.4,4.3-4.6,7.3s0.7,5.8,1.6,8.6c0.3,1.4,0.8,2.7,1.5,3.9
	c0.5,0.8,1.1,1.5,1.6,2.4c0.5,1.3,0.8,2.6,0.9,4c0.6,4.5,1.5,9,2.7,13.4l1.8,7.3l0.2,0.7l1.5,6.2c0,0.2,0.1,0.4,0.2,0.6
	c0.2,0.3,0.4,0.6,0.7,0.8c6.4,4.7,14.7,5.6,21.9,2.4c0.3-0.1,0.5-0.3,0.8-0.5c0.4-0.5,0.6-1.2,0.5-1.8c-0.1-2,0.3-4,1.1-5.8
	c0.5-0.7,0.8-1.4,1.1-2.1c0.2-1.2-0.1-2.5-0.7-3.5l-3.7-8.7C194.6,698.8,194.3,698,193.8,697.3z"/>
<path class="st14" d="M185.1,337c-0.1,1.9-0.5,3.8-1.1,5.6c-0.4,1.3-1.2,2.5-2.3,3.4c-1.7-2.3-4.8-3.1-7.1-4.8
	c-1.9-1.6-3.6-3.5-4.9-5.6c-3-4-6.4-7.5-9.6-11.3c-0.5-0.6-1-1.1-1.4-1.7c-1.6-2-3.1-4.1-4.4-6.3c-2.7-4.6-4.5-9.9-8.5-13.4
	c-2.2-1.9-4.9-3.1-6.9-5.3c1.2-2,2-4.3,2.3-6.6c0.5-2.2,0.9-4.5,1.1-6.7c0.1-0.6,0.1-1.2,0.1-1.8c0-0.3,0-0.5,0-0.8
	c0-1.9-1.2-5,0.7-6.1c1.7-1,4.6-1,6.6-0.9h0.4c4.7,0.1,9.4,1.5,13.3,4.1c0.9,0.5,1.7,1.3,2.3,2.1c0.9,1.7,1.3,3.6,1,5.5
	c0,0.4,0,0.9-0.1,1.3v0.6c-0.1,2.1,0.1,4.4,1.6,5.9s4.2,1.7,6.4,2.4c0.4,0.1,0.7,0.2,1.1,0.4c2.4,1.1,4.4,2.8,5.9,5
	c1.6,2.5,2.8,5.3,3.4,8.3c0.6,2.6,1,5.3,1.1,8C186.3,324.4,186,330.7,185.1,337z"/>
<path class="st4" d="M166.6,287.5v0.6c-2.7,1-9.2-1.8-12.2-1.8c-6,0-7.8,1.2-12.1-2.3c0.1-0.9,0.1-1.7,0.2-2.6c0-1.9-1.2-5,0.7-6.1
	s4.9-1,6.9-0.9c4.7,0.1,9.4,1.5,13.3,4.1c0.9,0.5,1.7,1.3,2.3,2.1C166.9,282.7,166.7,285.2,166.6,287.5z"/>
<path class="st14" d="M183.1,262.6c0,13.9-11.2,25.1-25.1,25.1c-1.6,0-3.3-0.2-4.9-0.5c-11.8-2.3-20.3-12.7-20.3-24.7
	c-0.3-13.9,10.8-25.4,24.6-25.6c13.9-0.3,25.4,10.8,25.6,24.6C183.1,261.9,183.1,262.3,183.1,262.6L183.1,262.6z"/>
<path class="st3" d="M140.8,292.3c-0.8-0.7-1.8-1.1-2.8-1.2c-1.5,0.1-2.8,1.1-3.3,2.6c-0.6,1.4-0.8,2.8-1.3,4.2
	c-0.7,1.9-2,3.5-3.7,4.5c-1.2,0.7-2.6,1.3-3.4,2.4c-1.3,1.8-0.5,4.3,0.6,6.3c4,7.2,11.3,12,18.3,16.4l7.9,5c3.2,2.1,6.4,4,9.8,5.8
	c5.5,2.7,11.4,4.4,16.8,7.2c2.5,1.3,5,2.8,7.7,3.2c0.6-1.9,0.9-3.8,1.1-5.7c1.4-12,2.7-24.3,0-36c-0.4-2.3-1.3-4.4-2.8-6.2
	c-1-1-2.2-1.8-3.5-2.4c-3.2-1.7-6.5-3.3-9.8-4.6c-1.6-0.8-3.3-1.1-5.1-1.1c0.2,1.3,0.5,2.6,1.2,3.8c4.2,9.4,8.4,18.8,12.7,28.2
	c0.9,1.7,1.5,3.6,1.5,5.6c-0.1,2.8-2,5.5-1.2,8.1c-7.4-10.7-15.8-20.7-25.3-29.7c-0.4-0.3-0.8-0.8-1-1.3c-0.2-0.8-0.3-1.6-0.1-2.3
	c0.1-1.5-0.2-3.5-1.5-4.5c-0.9-0.7-2.1-0.9-3.1-1.5C147.2,296.9,144.1,294.5,140.8,292.3z"/>
<path class="st4" d="M208,443.1c-6.4,3.2-13.3,5.1-20.4,5.6c-7.1,0.5-14.2,0.5-21.3,0.1l-16.1-0.6c-7.3-0.3-14.5-0.9-21.5-3.1
	c0.6-1.5,1.3-2.9,2-4.3c20.1-4.7,40.8-6.5,61.4-5.3c3.3,0.1,6.6,0.6,9.7,1.6c2.1,0.8,4,2,5.6,3.7C207.7,441.6,207.8,442.3,208,443.1
	z"/>
<path class="st13" d="M206.9,364.5c-2.8,9.4-0.9,19.7,0.9,29.4c1,0.7,1.5,1.9,1.1,3.1c-0.3,1.1-0.8,2.2-1.3,3.2
	c-0.5,1-0.6,2.3-0.1,3.4c0.3,0.4,0.6,0.8,0.9,1.2c0.3,0.7,0.5,1.5,0.5,2.3c0.2,3.6,0.4,7.4-0.5,10.9c-0.6,2-1.5,4.2-0.9,6.2
	c0.4,1.2,1.3,2.3,1.5,3.5s-0.6,2.6-1.1,3.9c-1.1,3-0.5,6.6,0.3,9.7c-6.4,3.2-13.3,5.1-20.4,5.6c-7.1,0.5-14.2,0.6-21.3,0.1
	l-16.1-0.6c-7.4-0.3-14.6-0.9-21.6-3.1c-0.7-4.9-1.3-10.2,1.5-14.2c0.5-0.6,0.9-1.4,1.3-2.1c0.5-1.7-0.6-3.4-0.9-5
	c-0.7-3.5,1.6-6.7,3.6-9.6c0.3-0.4,0.5-0.8,0.7-1.3c0.4-1.3-0.4-2.8-0.4-4.2c0-0.4,0.1-0.8,0.3-1.1c0.3-0.6,0.9-1,1.1-1.5
	c0.3-0.7,0.4-1.5,0.3-2.3c-0.4-5-1-10-1.8-15c-0.1-0.4-0.2-0.9-0.3-1.4c-0.1-0.7-0.4-1.4-0.7-2c-0.5-0.8-1.2-1.5-1.6-2.3
	c-0.5-0.9-0.5-2,0-2.9c0.4-0.8-0.8-1.6-1.2-2.4c-0.2-0.7-0.2-1.4-0.1-2.1c-0.1-1.2-0.6-2.3-1.3-3.2c-0.9-1.4-1.8-2.8-2.7-4.1
	c-4-6.2-8.2-12.3-12.5-18.3c-2.1-2.9-4.2-5.7-6.3-8.5c-1.7-2.3-3.5-4.6-4.4-7.3c-0.2-0.5-0.3-1-0.4-1.5c-0.5-2.6-0.1-5.3,1.1-7.7
	c1.2-2,2.5-3.9,4-5.6c1.4-2.1,3-4.2,4.6-6.2c1.7-2,4.1-3.2,6.7-3.4c1.5,0,3.2,0.4,4.3-0.6c0.4-0.4,0.6-0.9,1-1.3
	c1.1-1,2.9-0.3,4.2,0.4l25.2,14.2l4.1,2.3c0.7,0.4,1.5,0.9,2.2,1.3c3.5,2,6.8,4.3,10,6.8c4.7,3.7,9.8,7.2,13.9,11.6
	c0.4,0.4,0.8,0.8,1.1,1.3c0.7-5.1,1.5-10.2,2.2-15.4c0.3-1.5,0.4-3,0.3-4.5c-0.2-1.5-0.6-2.9-1.1-4.3c-0.2-0.5-0.3-1-0.5-1.5
	c-0.9-2.7-1.8-5.4-2.7-8.1c-1.3-4-2.8-8.1-5.8-11.1c-0.7-0.6-1.4-1.3-2-2l0,0c-0.6-0.8-0.8-1.7-0.5-2.6l21.2,6.6c1,0.3,2,0.6,3,1
	c1.2,0.5,2.3,1.2,3.3,2c3.2,2.6,4.9,6.7,4.4,10.8c-0.2,1.3-0.7,2.6-1,3.9c-0.5,2.4-1.3,5.1-0.2,7.3s2,4.1,2.9,6.2
	c0.8,1.6,1.5,3.2,2,4.9c0.6,2.3,0.8,4.7,0.7,7.1c-0.1,5.3-1,10.6-2.7,15.6C208,361.2,207.4,362.8,206.9,364.5z"/>
<polygon class="st2" points="163.6,376.4 213.9,371.7 222.7,370.7 214.6,373.5 "/>
<polygon class="st2" points="162.5,378.8 162.5,375 215.8,372.4 218.4,374.6 "/>
<path class="st14" d="M162.6,371.6c1.1-0.3,2.3-0.2,3.4-0.5c1.5-0.4,2.8-1.3,4.3-1.4c0.9-0.1,1.9,0,2.8,0.2l6.9,1.2
	c0.5,0.1,1.1,0.3,1.3,0.8c0.1,0.5-0.1,1-0.4,1.3c-1.2,1.3-3.2,1.5-5,1.6l-4.8,0.3c-0.9,0-1.9,0.2-2.7,0.6c-0.8,0.5-1.2,1.5-0.9,2.4
	c0.3,0.4,0.6,0.8,1.1,1c1.9,1.1,4.1,1.5,6.3,1.2c1.8-0.3,3.5-0.8,5.1-1.5c4.2-1.4,8.7-1.8,13.1-1.4c1.1,0.1,2.5,0.4,2.9,1.5
	c0.2,0.8,0,1.6-0.5,2.2c-1.7,2.4-5.1,2.5-8,3.1c-2.7,0.6-5.3,1.9-7.4,3.8c0.6,1.3,0.1,2.9-0.5,4.2c-0.7,1.5-1.6,2.9-2.6,4.3
	c-0.5,0.8-1.3,1.5-2.2,2c-0.6,0.2-1.2,0.3-1.8,0.3c-6,0.4-12,0-17.9-1c-0.6,0-1.2-0.3-1.7-0.7c-0.3-0.4-0.5-0.9-0.6-1.4
	c-0.6-3-1.1-6-1.6-9.1c-0.4-1.9-0.3-3.9,0.5-5.7c0.7-1.4,1.9-1.8,3.1-2.8C157.6,376.1,159.2,372.5,162.6,371.6z"/>
<path class="st2" d="M227.6,309.1L215.1,371c-0.4,1.6,0.7,3.2,2.3,3.6c0.3,0.1,0.7,0.1,1,0l47.1-4.6c1.3-0.1,2.4-1.1,2.7-2.4
	l11.5-57.3c0.3-1.6-0.7-3.2-2.3-3.6c-0.2,0-0.5-0.1-0.7-0.1h-46.1C229.1,306.6,227.9,307.7,227.6,309.1z"/>
<path class="st14" d="M251,382.8c3-1.9,3.9-5.7,5.2-8.9c1.1-2.4,2.4-4.7,3.8-6.9c1.2-2,2.4-4.4,1.5-6.5c-0.7-1.3-2-2.4-3.5-2.8
	c-1.3-0.6-2.8-0.8-4.3-0.5c-1.6,0.4-2.8,1.8-3.9,3l-3.9,4.5c-1.7,2.2-3.7,4-5.9,5.5c-1.4,0.8-2.9,1.4-4.5,1.9
	c-2.8,0.9-5.6,1.7-8.5,2.4c-1.6,0.3-3.2,0.8-4.8,1.5c-0.6,0.2-1.1,0.7-1.4,1.3c-0.1,0.8,0.1,1.5,0.5,2.1c1,1.8,2.1,5.6,4.2,6.2
	c2,0.5,3.9,0.8,6,0.9c2,0.2,3.5-0.6,5.3-1.3c2.2-0.8,4.6-1.2,7-1.1C245.8,384.1,249.4,384.4,251,382.8z"/>
<path class="st13" d="M225.2,374.4c0,0,1.8,11.9,12.9,10.6c0,0-5.9,2.4-5.3,3.7s-13.7-2.6-13.7-2.6l-0.7-6.2c0,0-0.5-3.4,0-3.5
	S225.2,374.4,225.2,374.4z"/>
<path class="st4" d="M225.2,374.4c0,0,1.8,11.9,12.9,10.6c0,0-5.9,2.4-5.3,3.7s-13.7-2.6-13.7-2.6l-0.7-6.2c0,0-0.5-3.4,0-3.5
	S225.2,374.4,225.2,374.4z"/>
<path class="st4" d="M173.9,324.6c1.1,0.6,2,1.4,2.6,2.5c0.9,1.5,1.6,3.1,2.1,4.8c0.6,2,0.8,4.4,2.3,5.8"/>
<path class="st4" d="M127.3,357.6c0.8,2.9,0.5,6-0.9,8.6c-4-6.2-8.2-12.3-12.5-18.3c-2.1-2.9-4.2-5.7-6.3-8.5
	c-1.7-2.3-3.5-4.6-4.4-7.3c-0.2-0.5-0.3-1-0.4-1.5c1.1-1.6,2.7-2.7,4.5-3.3c2.9,8.5,10.3,14.5,15.6,21.8
	C124.9,351.7,126.4,354.5,127.3,357.6z"/>
<path class="st4" d="M164.5,401l-17.5,0.6c-1.5,0-3.3,0.3-3.8,1.8c-0.1,0.5-0.1,0.9-0.3,1.4c-0.5,1.6-2.6,1.8-4.3,1.8
	c-1.4,0-2.9,0.1-4.3,0.2c0-0.4,0.1-0.8,0.3-1.1c0.3-0.6,0.9-1,1.1-1.5c0.3-0.7,0.4-1.5,0.3-2.3c-0.4-5-1-10-1.8-15
	c-0.1-0.4-0.2-0.9-0.3-1.4c1.4-0.9,2.9-1.4,4.6-1.4c1.4,0.2,2.8,1,4.2,0.9c2.5-0.1,4.2-2.9,6.7-3.1c0.5,0,1.1,0,1.6-0.2
	c0.8-0.4,0.9-1.5,1.3-2.2c0.6-1.2,2.3-1.4,3.6-1.1c0,2.6,0.1,5.3,0.5,7.9c0.1,1.1,0.4,2.3,0.8,3.4c0.5,1.1,1.1,2.1,1.8,3.1
	C160.9,395.5,162.7,398.2,164.5,401z"/>
<path class="st13" d="M106.3,326.4c-3.1,0.8-5.3,3.7-6.2,6.8s-0.8,6.4-0.7,9.6c0.3,11.9-0.5,23.8-2.4,35.6c-0.9,5.6-2.1,11.3-1.8,17
	c0.2,3.1,0.9,6.3,2.9,8.7c3.1,3.7,8.6,4.5,13.4,4.3c8.8-0.3,17.4-2.9,26.1-2.9c1.7,0,3.8-0.2,4.3-1.8c0.1-0.4,0.1-0.9,0.3-1.4
	c0.5-1.4,2.3-1.7,3.8-1.8l17.5-0.6c-1.9-2.8-3.7-5.5-5.6-8.3c-0.7-1-1.3-2-1.8-3.1c-0.4-1.1-0.7-2.2-0.8-3.4
	c-0.4-2.6-0.5-5.3-0.5-7.9c-1.3-0.3-3,0-3.6,1.1c-0.4,0.8-0.5,1.8-1.3,2.2c-0.5,0.2-1.1,0.2-1.6,0.2c-2.5,0.2-4.2,3-6.7,3.1
	c-1.4,0.1-2.8-0.8-4.2-0.9c-2.3-0.2-4.3,1.3-6.4,2.2c-3.4,1.5-7.4,1.5-10.8,0c-0.5-0.2-1.1-0.9-0.7-1.2s0.8-0.1,1.1-0.2
	c0.6-0.3,0.2-1.3-0.2-1.9c-1-1.8-0.3-4,0.7-5.9s2.2-3.6,2.3-5.7c-0.1-0.7-0.1-1.3,0-2c0.3-0.9,0.8-1.8,1.5-2.5
	c1.7-2.7,2.2-6.1,1.3-9.2c-0.9-3.1-2.4-5.9-4.4-8.4C116.6,341,109.3,334.9,106.3,326.4z"/>
<path class="st4" d="M153.7,320.5l4.1,2.3c-1.3,0.6-2.5,1.1-3.8,1.5c-9.2,3.1-5.9,7.4-15.6,7.3c-6.6-0.1-14.1-0.6-18.8,4.1
	c-2.2,2.2-3.3,5.3-4.3,8.2c-0.5,1.3-0.9,2.7-1.4,4c-2.1-2.9-4.2-5.7-6.3-8.5c-1.7-2.3-3.5-4.6-4.4-7.3c-0.9-3-0.7-6.3,0.7-9.2
	c1.2-2,2.5-3.9,4-5.6c1.4-2.1,3-4.2,4.6-6.2c1.7-2,4.1-3.2,6.7-3.4c1.5,0,3.2,0.4,4.3-0.6c0.4-0.4,0.6-0.9,1-1.3
	c1.1-1,2.9-0.3,4.2,0.4L153.7,320.5z"/>
<path class="st2" d="M178.1,244.1c-0.1-1.2-0.4-2.4-0.9-3.5c-0.4-0.9-1-1.7-1.6-2.4c-4.3-4.8-10.4-7.6-16.9-7.7
	c-0.6,0-1.1,0.1-1.6,0.3c-0.1,0.1-0.2,0.1-0.4,0.2c-4.6-3.1-10-6.2-15-7.4c-3.5-0.8-7.1-0.8-10.5,0.1c-4.2,1.3-5.6,4.6-7.4,8.3
	c-2.9,5.9-7.2,10.9-12.6,14.5c-3.5,2.4-7.6,4.4-9.3,8.2c-1.6,3.6-0.5,7.7-0.1,11.6c0.9,10.7-3.7,21.1-12.1,27.8
	c-4.8,3.7-11.1,6.8-12.1,12.7c-0.7,4.2,1.6,8.3,3.4,12.2c3.8,8.2,5.1,18.3,0.6,26.1c-1.3,2.2-3,4.3-3.6,6.8
	c-1.2,4.4,1.3,9.2,5.1,11.8s8.5,3.3,13.1,3.2c3.3,0,6.9-0.5,9.3-2.8c1.5-1.7,2.5-3.7,3.1-5.8c1.9-5.4,3.8-10.9,5.8-16.3
	c1-2.9,2.1-6,4.3-8.2c4.6-4.7,12.2-4.2,18.8-4.1c9.7,0.1,6.4-4.2,15.6-7.3c5.4-1.8,11.3-4.9,12.5-10.5s-2.5-10.6-5.8-15.1
	c-2.5-3.3-4.8-6.8-6.9-10.4c-2.1-3.4-4.2-7.1-4.8-11.1c-1-6.6,15.1-10.4,17.6-16.6c0.7-1.8,1.3-3.6,1.7-5.4c1.2-0.1,2.2-0.2,3-0.2
	c3.1-0.1,6.6-1.4,7.6-4.3C178.4,247.3,178.4,245.7,178.1,244.1z"/>
<g class="st16">
	<path d="M150.9,228.6c0.5-0.2,1.1-0.3,1.6-0.3h0.2c-3.4-2.2-7.1-3.8-11-4.9l-0.9-0.2c3.4,1.6,6.7,3.4,9.8,5.5
		C150.7,228.7,150.8,228.6,150.9,228.6z"/>
	<path d="M178.1,243.9c-0.1-1.2-0.4-2.4-0.9-3.5c-0.4-0.9-1-1.7-1.6-2.4c-3.4-3.9-8-6.4-13.1-7.3c2.7,1.3,5,3.1,7,5.3
		c0.7,0.7,1.2,1.5,1.6,2.4c0.5,1.1,0.8,2.3,0.9,3.5c0.4,1.6,0.4,3.3-0.1,4.8c-1.1,2.9-4.5,4.1-7.6,4.2c-0.8,0-1.8,0.1-3,0.2
		c-0.5,1.8-1,3.7-1.7,5.4c-2.4,6.3-18.5,10-17.6,16.6c0.6,4,2.6,7.6,4.7,11.1s4.5,7,6.9,10.4c3.3,4.5,7,9.7,5.8,15.1
		s-7.1,8.7-12.5,10.5c-9.2,3.1-5.9,7.4-15.6,7.3c-6.6-0.1-14.2-0.6-18.8,4.1c-2.2,2.2-3.3,5.3-4.3,8.2l-5.8,16.3
		c-0.6,2.1-1.6,4.1-3.1,5.8c-2.4,2.3-5.9,2.8-9.3,2.8c-1.9,0-3.8-0.1-5.6-0.4c3.5,1.9,7.7,2.5,11.8,2.4c3.3,0,6.9-0.5,9.3-2.8
		c1.5-1.7,2.5-3.7,3.1-5.8c1.9-5.4,3.8-10.9,5.8-16.3c1-2.9,2.1-6,4.3-8.2c4.6-4.7,12.2-4.2,18.8-4.1c9.7,0.1,6.4-4.2,15.6-7.3
		c5.4-1.8,11.3-4.9,12.5-10.5s-2.5-10.6-5.8-15.1c-2.5-3.3-4.8-6.8-6.9-10.4c-2.1-3.4-4.2-7.1-4.8-11.1c-1-6.6,15.1-10.4,17.6-16.6
		c0.7-1.8,1.3-3.6,1.7-5.4c1.2-0.1,2.2-0.2,3-0.2c3.1-0.1,6.6-1.4,7.6-4.3C178.4,247.1,178.4,245.5,178.1,243.9z"/>
</g>
<g>
	<rect x="301.7" y="211" class="st6" width="579.6" height="338.7"/>
	<rect x="356.2" y="243" class="st17" width="74" height="76.7"/>
	<rect x="451.2" y="243" class="st18" width="74" height="76.7"/>
	<rect x="546.2" y="243" class="st19" width="74" height="76.7"/>
	<rect x="641.2" y="243" class="st20" width="74" height="76.7"/>
	<rect x="736.2" y="243" class="st20" width="74" height="76.7"/>
	<rect x="356.2" y="404.6" class="st19" width="169" height="126"/>
	<rect x="571.8" y="371.5" class="st21" width="235.5" height="161.6"/>
	<rect x="598.2" y="489.6" class="st6" width="10.5" height="32.5"/>
	<rect x="618.2" y="449.4" class="st6" width="10.5" height="72.7"/>
	<rect x="658.2" y="387.3" class="st6" width="10.5" height="134.7"/>
	<rect x="638.2" y="387.3" class="st22" width="10.5" height="134.7"/>
	<rect x="678.2" y="448" class="st22" width="10.5" height="74.1"/>
	<rect x="698.2" y="428.9" class="st6" width="10.5" height="93.2"/>
	<rect x="718.2" y="399.8" class="st6" width="10.5" height="122.3"/>
	<rect x="738.2" y="467.6" class="st19" width="10.5" height="54.4"/>
	<rect x="758.2" y="442.5" class="st19" width="10.5" height="79.6"/>
	<rect x="778.2" y="413.2" class="st19" width="10.5" height="108.9"/>
</g>
</svg>
