<svg width="20" height="20" viewBox="0 0 20 20" fill="none" xmlns="http://www.w3.org/2000/svg">
<g clip-path="url(#clip0_12120_1842)">
<path d="M0 18.1001H20V19.3501H0V18.1001Z" fill="#505050"/>
<path d="M18.75 6.8501V19.3501H11.25V6.8501H18.75ZM17.5 8.0575H12.5V18.1391H17.5V8.0575Z" fill="#505050"/>
<path d="M12.5 0.600098V19.3501H1.25V0.600098H12.5ZM11.25 1.8452H2.5V18.1064H11.25V1.8452Z" fill="#505050"/>
<path d="M3.75 4.12939H6.25V5.30599H3.75V4.12939ZM3.75 7.65879H6.25V8.83529H3.75V7.65879ZM13.75 10.0118H16.25V11.1882H13.75V10.0118ZM13.75 13.5412H16.25V14.7176H13.75V13.5412ZM3.75 11.1882H6.25V12.3647H3.75V11.1882ZM7.5 4.12939H10V5.30599H7.5V4.12939ZM7.5 7.65879H10V8.83529H7.5V7.65879ZM7.5 11.1882H10V12.3647H7.5V11.1882Z" fill="#505050"/>
</g>
<defs>
<clipPath id="clip0_12120_1842">
<rect width="20" height="20" fill="white"/>
</clipPath>
</defs>
</svg>
