<?xml version="1.0" standalone="no"?><!DOCTYPE svg PUBLIC "-//W3C//DTD SVG 1.1//EN" "http://www.w3.org/Graphics/SVG/1.1/DTD/svg11.dtd"><svg t="1764147766230" class="icon" viewBox="0 0 1024 1024" version="1.1" xmlns="http://www.w3.org/2000/svg" p-id="7785" width="32" height="32" xmlns:xlink="http://www.w3.org/1999/xlink"><path d="M960.2576 1024H63.7456A63.776 63.776 0 0 1 0.0016 959.776V64.224C0.0016 28.736 28.7376 0 63.7456 0h896C995.2976 0 1024.0016 28.736 1024.0016 64.224v896.032A64 64 0 0 1 960.2576 1024z" fill="#8080FF" p-id="7786"></path><path d="M327.8736 320.832h-24.64a17.024 17.024 0 0 0-10.88 6.304 20.064 20.064 0 0 0-4.352 12.576c0 4.64 1.536 9.12 4.352 12.608a17.024 17.024 0 0 0 10.88 6.304h24.64a17.024 17.024 0 0 0 10.88-6.304 20.064 20.064 0 0 0 4.352-12.608 20.064 20.064 0 0 0-4.352-12.576 17.024 17.024 0 0 0-10.88-6.304z m0 60.448h-24.64a17.024 17.024 0 0 0-10.88 6.272 20.096 20.096 0 0 0-4.352 12.608c0 4.608 1.536 9.088 4.352 12.576a17.024 17.024 0 0 0 10.88 6.304h24.64a17.024 17.024 0 0 0 10.88-6.304 20.064 20.064 0 0 0 4.352-12.576 20.064 20.064 0 0 0-4.352-12.608 17.024 17.024 0 0 0-10.88-6.272z m0 60.416h-24.64a17.024 17.024 0 0 0-10.88 6.304 20.064 20.064 0 0 0-4.352 12.576c0 4.64 1.536 9.12 4.352 12.576a17.024 17.024 0 0 0 10.88 6.304h24.64a17.024 17.024 0 0 0 10.88-6.304 20.064 20.064 0 0 0 4.352-12.576 20.064 20.064 0 0 0-4.352-12.576 17.024 17.024 0 0 0-10.88-6.304z m325.024-121.472l-23.648 7.552a18.24 18.24 0 0 0-8.832 9.376 20.64 20.64 0 0 0-0.96 13.44c1.184 4.448 3.84 8.256 7.424 10.72a16.224 16.224 0 0 0 12.064 2.72l23.68-7.552a18.24 18.24 0 0 0 8.8-9.376 20.64 20.64 0 0 0 0.96-13.408 18.976 18.976 0 0 0-7.424-10.752 16.224 16.224 0 0 0-12.064-2.72z m15.232 58.016l-23.68 7.552a18.24 18.24 0 0 0-8.8 9.376 20.672 20.672 0 0 0-0.96 13.44c1.184 4.416 3.84 8.256 7.392 10.72a16.224 16.224 0 0 0 12.064 2.72l23.616-7.552a18.24 18.24 0 0 0 8.768-9.344 20.64 20.64 0 0 0 0.96-13.376 18.976 18.976 0 0 0-7.36-10.752 16.256 16.256 0 0 0-12-2.784z m15.68 57.728l-23.552 7.552a18.24 18.24 0 0 0-8.832 9.376 20.64 20.64 0 0 0-0.96 13.408c1.184 4.448 3.84 8.256 7.392 10.752a16.224 16.224 0 0 0 12.064 2.72l23.584-7.552a18.24 18.24 0 0 0 8.832-9.376 20.64 20.64 0 0 0 0.96-13.44 18.944 18.944 0 0 0-7.392-10.72 16.224 16.224 0 0 0-12.064-2.72z" fill="#FFFFFF" p-id="7787"></path><path d="M798.7856 663.36L706.1456 288a42.592 42.592 0 0 0-18.88-26.08 39.776 39.776 0 0 0-31.072-4.64l-73.408 19.712c-5.248 1.376-10.208 3.84-14.528 7.2a41.92 41.92 0 0 0-10.72 12.48l-1.792 3.488a43.488 43.488 0 0 0-12.64-28.672 40.32 40.32 0 0 0-28.16-11.84h-75.776c-6.464 0-12.864 1.6-18.624 4.672-5.76 3.04-10.752 7.488-14.528 12.928a41.472 41.472 0 0 0-14.56-12.928 39.744 39.744 0 0 0-18.624-4.672H297.0576c-10.88 0-21.312 4.512-29.024 12.512-7.68 8-12 18.848-12.032 30.144V689.6c0 11.296 4.352 22.144 12.032 30.144s18.144 12.48 29.024 12.512h75.776c6.496 0 12.864-1.6 18.624-4.64 5.76-3.072 10.752-7.52 14.56-12.96 3.776 5.44 8.768 9.888 14.528 12.96 5.76 3.04 12.16 4.64 18.624 4.64h75.776c10.88 0 21.312-4.512 29.024-12.512 7.68-8 12.032-18.848 12.032-30.144V340.16l89.888 363.744c2.272 9.184 7.424 17.28 14.624 23.104a39.04 39.04 0 0 0 35.328 7.616l73.376-19.68c10.496-2.816 19.456-9.824 24.992-19.488 5.536-9.664 7.2-21.216 4.576-32.128z m-416.48 26.24a10.176 10.176 0 0 1-2.784 6.912 9.408 9.408 0 0 1-6.688 2.944H297.0576a9.408 9.408 0 0 1-6.656-2.944 10.176 10.176 0 0 1-2.816-6.912V302.336a10.176 10.176 0 0 1 2.816-6.912 9.44 9.44 0 0 1 6.656-2.912h75.776a9.44 9.44 0 0 1 6.688 2.912 10.176 10.176 0 0 1 2.784 6.912V689.6z m142.112 0a10.176 10.176 0 0 1-2.816 6.912 9.408 9.408 0 0 1-6.656 2.944h-75.776a9.408 9.408 0 0 1-6.656-2.944 10.176 10.176 0 0 1-2.816-6.912V302.336a10.176 10.176 0 0 1 2.816-6.912 9.44 9.44 0 0 1 6.656-2.912h75.776a9.44 9.44 0 0 1 6.688 2.912 10.176 10.176 0 0 1 2.784 6.912V689.6z m242.72-10.88a9.312 9.312 0 0 1-5.76 4.48l-73.376 19.52a9.056 9.056 0 0 1-7.2-1.12 9.888 9.888 0 0 1-4.352-5.952L583.8096 320.64a9.92 9.92 0 0 1 1.056-7.424 9.312 9.312 0 0 1 5.76-4.544l73.376-19.488a8.96 8.96 0 0 1 2.272 0c2.112 0 4.16 0.704 5.856 2.048 1.664 1.312 2.88 3.2 3.424 5.312l92.672 374.72a9.92 9.92 0 0 1-1.088 7.392z" fill="#FFFFFF" p-id="7788"></path><path d="M494.3056 544h-28.608a22.816 22.816 0 0 0-12.64 5.088 13.472 13.472 0 0 0-5.056 10.144c0 3.744 1.792 7.36 5.056 10.176a22.784 22.784 0 0 0 12.64 5.056h28.608a22.784 22.784 0 0 0 12.64-5.088 13.472 13.472 0 0 0 5.056-10.144 13.472 13.472 0 0 0-5.056-10.144 22.816 22.816 0 0 0-12.64-5.088z m0 48.768h-28.608a22.816 22.816 0 0 0-12.64 5.088A13.472 13.472 0 0 0 448.0016 608c0 3.744 1.792 7.36 5.056 10.144a22.816 22.816 0 0 0 12.64 5.12h28.608a22.816 22.816 0 0 0 12.64-5.12A13.472 13.472 0 0 0 512.0016 608a13.472 13.472 0 0 0-5.056-10.144 22.816 22.816 0 0 0-12.64-5.12z m0 48.768h-28.608a22.784 22.784 0 0 0-12.64 5.088 13.472 13.472 0 0 0-5.056 10.144c0 3.744 1.792 7.36 5.056 10.144a22.816 22.816 0 0 0 12.64 5.088h28.608a22.816 22.816 0 0 0 12.64-5.088 13.472 13.472 0 0 0 5.056-10.144 13.472 13.472 0 0 0-5.056-10.176 22.784 22.784 0 0 0-12.64-5.056z" fill="#FFFFFF" p-id="7789"></path></svg>