<svg width="24" height="24" viewBox="0 0 24 24" fill="none" xmlns="http://www.w3.org/2000/svg">
<path d="M13.5097 2.28012C12.6497 1.90012 11.3497 1.90012 10.4897 2.28012L4.62969 4.89012C3.14969 5.55012 2.92969 6.45012 2.92969 6.93012C2.92969 7.41012 3.14969 8.31012 4.62969 8.97012L10.4897 11.5801C10.9197 11.7701 11.4597 11.8701 11.9997 11.8701C12.5397 11.8701 13.0797 11.7701 13.5097 11.5801L19.3697 8.97012C20.8497 8.31012 21.0697 7.41012 21.0697 6.93012C21.0697 6.45012 20.8597 5.55012 19.3697 4.89012L13.5097 2.28012Z" fill="#4762F0"/>
<path d="M10.8903 16.81L4.15031 13.81C3.12031 13.35 2.32031 12.12 2.32031 10.99C2.32031 10.8928 2.33945 10.7966 2.37664 10.7068C2.41383 10.617 2.46834 10.5355 2.53705 10.4667C2.60577 10.398 2.68735 10.3435 2.77713 10.3063C2.86691 10.2691 2.96313 10.25 3.06031 10.25C3.15749 10.25 3.25372 10.2691 3.3435 10.3063C3.43328 10.3435 3.51486 10.398 3.58357 10.4667C3.65229 10.5355 3.70679 10.617 3.74398 10.7068C3.78117 10.7966 3.80031 10.8928 3.80031 10.99C3.80031 11.53 4.25031 12.23 4.75031 12.45L11.4903 15.45C11.8103 15.59 12.1803 15.59 12.5003 15.45L19.2403 12.45C19.7403 12.23 20.1903 11.54 20.1903 10.99C20.1903 10.7937 20.2683 10.6055 20.4071 10.4667C20.5458 10.328 20.734 10.25 20.9303 10.25C21.1266 10.25 21.3148 10.328 21.4536 10.4667C21.5923 10.6055 21.6703 10.7937 21.6703 10.99C21.6703 12.11 20.8703 13.35 19.8403 13.81L13.1003 16.81C12.7521 16.9632 12.3758 17.0423 11.9953 17.0423C11.6149 17.0423 11.2386 16.9632 10.8903 16.81Z" fill="#4762F0"/>
<path d="M10.8903 21.77L4.15031 18.77C3.60517 18.5273 3.14212 18.1318 2.8173 17.6312C2.49248 17.1307 2.31984 16.5467 2.32031 15.95C2.32031 15.8528 2.33945 15.7566 2.37664 15.6668C2.41383 15.577 2.46834 15.4954 2.53705 15.4267C2.60577 15.358 2.68735 15.3035 2.77713 15.2663C2.86691 15.2291 2.96314 15.21 3.06031 15.21C3.15749 15.21 3.25372 15.2291 3.3435 15.2663C3.43328 15.3035 3.51486 15.358 3.58357 15.4267C3.65229 15.4954 3.7068 15.577 3.74398 15.6668C3.78117 15.7566 3.80031 15.8528 3.80031 15.95C3.8007 16.2591 3.89063 16.5615 4.05922 16.8206C4.22781 17.0797 4.46785 17.2844 4.75031 17.41L11.4903 20.41C11.8103 20.55 12.1803 20.55 12.5003 20.41L19.2403 17.41C19.5225 17.284 19.7622 17.0792 19.9308 16.8202C20.0993 16.5611 20.1894 16.259 20.1903 15.95C20.1903 15.7537 20.2683 15.5655 20.4071 15.4267C20.5458 15.2879 20.734 15.21 20.9303 15.21C21.1266 15.21 21.3148 15.2879 21.4536 15.4267C21.5923 15.5655 21.6703 15.7537 21.6703 15.95C21.6703 17.17 20.9503 18.27 19.8403 18.77L13.1003 21.77C12.7521 21.9232 12.3758 22.0023 11.9953 22.0023C11.6149 22.0023 11.2386 21.9232 10.8903 21.77Z" fill="#4762F0"/>
</svg>
