<svg width="24" height="24" viewBox="0 0 24 24" fill="none" xmlns="http://www.w3.org/2000/svg">
<path d="M6.72628 1.45312H19.1565C20.2112 1.45312 21.0399 2.28181 21.0399 3.3365V10.4933H3.71289V4.46652C3.71289 2.80915 5.06892 1.45312 6.72628 1.45312Z" fill="#B5F5EC"/>
<path d="M15.1638 1.45312H5.59626C4.54157 1.45312 3.71289 2.28181 3.71289 3.3365V20.6635C3.71289 21.7182 4.54157 22.5469 5.59626 22.5469H19.0812C20.1359 22.5469 20.9646 21.7182 20.9646 20.6635V7.25391L15.1638 1.45312Z" fill="#36CFC9"/>
<path d="M15.2402 1.45312V5.82254C15.2402 6.57589 15.8429 7.25391 16.6716 7.25391H21.041L15.2402 1.45312Z" fill="#08979C"/>
<path d="M6.72656 9.73989C6.72656 10.0396 6.84562 10.327 7.05754 10.5389C7.26946 10.7509 7.55688 10.8699 7.85659 10.8699C8.15629 10.8699 8.44371 10.7509 8.65563 10.5389C8.86755 10.327 8.98661 10.0396 8.98661 9.73989C8.98661 9.44019 8.86755 9.15276 8.65563 8.94084C8.44371 8.72892 8.15629 8.60986 7.85659 8.60986C7.55688 8.60986 7.26946 8.72892 7.05754 8.94084C6.84562 9.15276 6.72656 9.44019 6.72656 9.73989Z" fill="#B5F5EC"/>
<path d="M11.9994 8.98682H16.5195C16.9715 8.98682 17.2729 9.28816 17.2729 9.74017C17.2729 10.1922 16.9715 10.4935 16.5195 10.4935H11.9994C11.5474 10.4935 11.2461 10.1922 11.2461 9.74017C11.2461 9.28816 11.5474 8.98682 11.9994 8.98682ZM11.9994 12.7536H16.5195C16.9715 12.7536 17.2729 13.0549 17.2729 13.5069C17.2729 13.9589 16.9715 14.2603 16.5195 14.2603H11.9994C11.5474 14.2603 11.2461 13.9589 11.2461 13.5069C11.2461 13.0549 11.5474 12.7536 11.9994 12.7536ZM11.9994 16.5203H16.5195C16.9715 16.5203 17.2729 16.8216 17.2729 17.2736C17.2729 17.7257 16.9715 18.027 16.5195 18.027H11.9994C11.5474 18.027 11.2461 17.7257 11.2461 17.2736C11.2461 16.8216 11.5474 16.5203 11.9994 16.5203Z" fill="#B5F5EC"/>
<path d="M6.72656 13.5065C6.72656 13.8062 6.84562 14.0936 7.05754 14.3055C7.26946 14.5175 7.55688 14.6365 7.85659 14.6365C8.15629 14.6365 8.44371 14.5175 8.65563 14.3055C8.86755 14.0936 8.98661 13.8062 8.98661 13.5065C8.98661 13.2068 8.86755 12.9194 8.65563 12.7074C8.44371 12.4955 8.15629 12.3765 7.85659 12.3765C7.55688 12.3765 7.26946 12.4955 7.05754 12.7074C6.84562 12.9194 6.72656 13.2068 6.72656 13.5065Z" fill="#B5F5EC"/>
<path d="M6.72656 17.2736C6.72656 17.5733 6.84562 17.8607 7.05754 18.0726C7.26946 18.2845 7.55688 18.4036 7.85659 18.4036C8.15629 18.4036 8.44371 18.2845 8.65563 18.0726C8.86755 17.8607 8.98661 17.5733 8.98661 17.2736C8.98661 16.9739 8.86755 16.6865 8.65563 16.4745C8.44371 16.2626 8.15629 16.1436 7.85659 16.1436C7.55688 16.1436 7.26946 16.2626 7.05754 16.4745C6.84562 16.6865 6.72656 16.9739 6.72656 17.2736Z" fill="#B5F5EC"/>
</svg>
