<svg width="24" height="24" viewBox="0 0 24 24" fill="none" xmlns="http://www.w3.org/2000/svg">
<g clip-path="url(#clip0_12155_53049)">
<path opacity="0.34" d="M18.2326 1.84326H4.61736L0.410156 14.7937L11.425 22.7965L22.441 14.7937L18.2326 1.84326ZM1.33416 14.4925L5.18856 2.62926H17.6626L21.517 14.4925L11.425 21.8245L1.33416 14.4925Z" fill="#979797"/>
<path opacity="0.34" d="M11.7355 10.8862L11.7211 10.8322L11.6203 10.8586L11.5183 10.8322L11.5051 10.8862L11.2243 10.957L11.7475 10.5994L6.63906 3.13184L5.98986 3.57584L11.0671 10.9966L2.28906 13.1902L2.47986 13.9534L11.6203 11.6674L20.7607 13.9534L20.9503 13.1902L11.7355 10.8862Z" fill="#979797"/>
<path opacity="0.34" d="M11.4238 12.2414H12.2098V20.6462H11.4238V12.2414ZM11.8855 10.5992L16.9927 3.13184L17.6415 3.5756L12.5343 11.043L11.8855 10.5992Z" fill="#979797"/>
<path d="M7.49609 11.214C7.49609 12.3604 7.95149 13.4598 8.7621 14.2704C9.5727 15.081 10.6721 15.5364 11.8185 15.5364C12.9649 15.5364 14.0643 15.081 14.8749 14.2704C15.6855 13.4598 16.1409 12.3604 16.1409 11.214C16.1409 10.0676 15.6855 8.96821 14.8749 8.1576C14.0643 7.347 12.9649 6.8916 11.8185 6.8916C10.6721 6.8916 9.5727 7.347 8.7621 8.1576C7.95149 8.96821 7.49609 10.0676 7.49609 11.214Z" fill="#FA7FFF"/>
<path d="M18.5 13.5722C18.5 13.9334 18.5711 14.291 18.7094 14.6247C18.8476 14.9584 19.0502 15.2616 19.3056 15.517C19.561 15.7724 19.8642 15.975 20.1979 16.1132C20.5316 16.2514 20.8892 16.3226 21.2504 16.3226C21.6116 16.3226 21.9692 16.2514 22.3029 16.1132C22.6366 15.975 22.9398 15.7724 23.1952 15.517C23.4506 15.2616 23.6532 14.9584 23.7914 14.6247C23.9297 14.291 24.0008 13.9334 24.0008 13.5722C24.0008 13.211 23.9297 12.8533 23.7914 12.5196C23.6532 12.186 23.4506 11.8827 23.1952 11.6274C22.9398 11.372 22.6366 11.1694 22.3029 11.0311C21.9692 10.8929 21.6116 10.8218 21.2504 10.8218C20.8892 10.8218 20.5316 10.8929 20.1979 11.0311C19.8642 11.1694 19.561 11.372 19.3056 11.6274C19.0502 11.8827 18.8476 12.186 18.7094 12.5196C18.5711 12.8533 18.5 13.211 18.5 13.5722Z" fill="#558FF6"/>
<path d="M0 13.5722C0 14.3016 0.289773 15.0012 0.805573 15.517C1.32137 16.0328 2.02095 16.3226 2.7504 16.3226C3.47985 16.3226 4.17943 16.0328 4.69523 15.517C5.21103 15.0012 5.5008 14.3016 5.5008 13.5722C5.5008 12.8427 5.21103 12.1432 4.69523 11.6274C4.17943 11.1116 3.47985 10.8218 2.7504 10.8218C2.02095 10.8218 1.32137 11.1116 0.805573 11.6274C0.289773 12.1432 0 12.8427 0 13.5722Z" fill="#6DC7EC"/>
<path d="M14.5684 3.35392C14.5684 4.08337 14.8581 4.78294 15.3739 5.29874C15.8897 5.81454 16.5893 6.10432 17.3188 6.10432C18.0482 6.10432 18.7478 5.81454 19.2636 5.29874C19.7794 4.78294 20.0692 4.08337 20.0692 3.35392C20.0692 2.62446 19.7794 1.92489 19.2636 1.40909C18.7478 0.893289 18.0482 0.603516 17.3188 0.603516C16.5893 0.603516 15.8897 0.893289 15.3739 1.40909C14.8581 1.92489 14.5684 2.62446 14.5684 3.35392Z" fill="#E3A266"/>
<path d="M3.56445 3.35392C3.56445 3.7151 3.63559 4.07275 3.77381 4.40645C3.91204 4.74014 4.11463 5.04334 4.37003 5.29874C4.62542 5.55414 4.92863 5.75673 5.26232 5.89495C5.59601 6.03317 5.95367 6.10432 6.31485 6.10432C6.67604 6.10432 7.03369 6.03317 7.36739 5.89495C7.70108 5.75673 8.00428 5.55414 8.25968 5.29874C8.51508 5.04334 8.71767 4.74014 8.85589 4.40645C8.99411 4.07275 9.06525 3.7151 9.06525 3.35392C9.06525 2.62446 8.77548 1.92489 8.25968 1.40909C7.74388 0.893289 7.0443 0.603516 6.31485 0.603516C5.5854 0.603516 4.88583 0.893289 4.37003 1.40909C3.85423 1.92489 3.56445 2.62446 3.56445 3.35392Z" fill="#7D5FD8"/>
<path d="M9.06641 20.6459C9.06641 21.3754 9.35618 22.0749 9.87198 22.5907C10.3878 23.1065 11.0874 23.3963 11.8168 23.3963C12.5463 23.3963 13.2458 23.1065 13.7616 22.5907C14.2774 22.0749 14.5672 21.3754 14.5672 20.6459C14.5672 19.9165 14.2774 19.2169 13.7616 18.7011C13.2458 18.1853 12.5463 17.8955 11.8168 17.8955C11.0874 17.8955 10.3878 18.1853 9.87198 18.7011C9.35618 19.2169 9.06641 19.9165 9.06641 20.6459Z" fill="#9695FD"/>
</g>
<defs>
<clipPath id="clip0_12155_53049">
<rect width="24" height="24" fill="white"/>
</clipPath>
</defs>
</svg>
