<svg width="24" height="24" viewBox="0 0 24 24" fill="none" xmlns="http://www.w3.org/2000/svg">
<path d="M7.93262 9.33203C11.2982 9.33203 14.0264 12.0602 14.0264 15.4258C14.0264 18.7914 11.2982 21.5195 7.93262 21.5195C4.56699 21.5195 1.83887 18.7912 1.83887 15.4258C1.83887 12.0604 4.56723 9.33203 7.93262 9.33203Z" fill="#B3E5FD"/>
<path d="M20.9177 19.9548L19.4765 18.5134C19.7871 18.0528 19.9853 17.5258 20.0554 16.9747C20.1255 16.4236 20.0653 15.8638 19.8799 15.3401C19.6944 14.8165 19.3888 14.3436 18.9875 13.9595C18.5862 13.5753 18.1004 13.2906 17.5692 13.1281C17.0379 12.9657 16.476 12.93 15.9285 13.0241C15.3809 13.1181 14.8631 13.3391 14.4165 13.6695C13.9699 13.9999 13.6069 14.4304 13.3568 14.9264C13.1066 15.4224 12.9763 15.9702 12.9761 16.5257C12.9764 16.6373 12.9824 16.7487 12.9942 16.8597C11.3535 16.873 8.34228 15.9004 8.33314 14.1939C8.32423 12.3498 10.0518 11.5886 11.8399 11.5886C15.9759 11.5886 17.7482 10.1709 17.7482 8.63055C17.7482 6.01984 13.6886 5.37273 10.5084 5.37273C10.3487 4.50184 9.87004 3.72176 9.16596 3.18488C8.46188 2.64799 7.58294 2.39288 6.70083 2.46936C5.81872 2.54585 4.99681 2.94844 4.39565 3.59849C3.79448 4.24854 3.45725 5.09936 3.44983 5.98475C3.44241 6.87014 3.76533 7.72649 4.35552 8.38653C4.9457 9.04657 5.76075 9.46288 6.64145 9.55414C7.52215 9.6454 8.40525 9.40505 9.11822 8.88005C9.8312 8.35504 10.3228 7.5831 10.4971 6.715C13.9563 6.8657 16.3966 7.31101 16.3966 8.73461C16.3966 9.16844 15.1797 9.96461 11.9118 10.214C8.56962 10.4718 6.92338 11.9343 6.92548 14.339C6.92783 16.9002 10.2098 18.1954 13.39 18.1954C13.6244 18.6359 13.9488 19.0221 14.3421 19.3291C14.7355 19.636 15.189 19.8568 15.6733 19.977C16.1575 20.0973 16.6616 20.1143 17.1529 20.027C17.6441 19.9397 18.1115 19.7501 18.5247 19.4704L18.9567 19.9021C19.0005 19.9639 19.0545 20.0179 19.1163 20.0617L19.998 20.9432C20.0934 21.0351 20.2137 21.0969 20.3439 21.1209C20.4742 21.1448 20.6086 21.1299 20.7304 21.078C20.8523 21.0261 20.9561 20.9395 21.0291 20.829C21.102 20.7184 21.1408 20.5888 21.1406 20.4564C21.1414 20.3617 21.1219 20.268 21.0834 20.1815C21.045 20.095 20.9885 20.0177 20.9177 19.9548ZM6.99767 7.88008C6.62711 7.88008 6.26488 7.77021 5.95675 7.56436C5.64863 7.35851 5.40845 7.06593 5.26659 6.7236C5.12473 6.38127 5.08756 6.00457 5.15976 5.64111C5.23197 5.27766 5.41032 4.94377 5.67226 4.68167C5.9342 4.41956 6.26798 4.241 6.63139 4.16857C6.9948 4.09613 7.37153 4.13308 7.71394 4.27472C8.05636 4.41637 8.34909 4.65636 8.55513 4.96435C8.76117 5.27235 8.87127 5.63452 8.8715 6.00508C8.8715 6.50215 8.67412 6.97889 8.32274 7.33049C7.97136 7.68209 7.49475 7.87977 6.99767 7.88008ZM16.5185 18.4002C16.1534 18.4002 15.7965 18.2919 15.493 18.089C15.1894 17.8862 14.9529 17.5978 14.8132 17.2605C14.6735 16.9232 14.637 16.5521 14.7082 16.194C14.7795 15.836 14.9553 15.5071 15.2135 15.2489C15.4717 14.9908 15.8006 14.815 16.1586 14.7438C16.5167 14.6726 16.8879 14.7092 17.2252 14.8489C17.5624 14.9886 17.8507 15.2252 18.0535 15.5288C18.2564 15.8323 18.3646 16.1892 18.3646 16.5543C18.3642 17.0438 18.1695 17.5131 17.8234 17.8592C17.4773 18.2053 17.0079 18.3999 16.5185 18.4002Z" fill="#558FF6"/>
</svg>
