<svg width="24" height="24" viewBox="0 0 24 24" fill="none" xmlns="http://www.w3.org/2000/svg">
<path d="M4 12C4 14.1217 4.84285 16.1566 6.34315 17.6569C7.84344 19.1571 9.87827 20 12 20C14.1217 20 16.1566 19.1571 17.6569 17.6569C19.1571 16.1566 20 14.1217 20 12C20 9.87827 19.1571 7.84344 17.6569 6.34315C16.1566 4.84285 14.1217 4 12 4C9.87827 4 7.84344 4.84285 6.34315 6.34315C4.84285 7.84344 4 9.87827 4 12Z" fill="#4E6EF2"/>
<path d="M11.4419 12.5581V15.6279C11.4419 15.6589 11.4419 15.6589 11.4729 15.6899C11.4729 15.7209 11.4729 15.7209 11.5039 15.7519C11.5039 15.7829 11.5349 15.7829 11.5349 15.7829L11.5659 15.814L11.5969 15.845L11.6279 15.876L11.6589 15.907L11.6899 15.938C11.7209 15.938 11.7209 15.969 11.7519 15.969C11.7829 15.969 11.7829 15.969 11.814 16H12.186C12.2171 16 12.2171 16 12.2481 15.969C12.2791 15.969 12.2791 15.969 12.3101 15.938C12.3411 15.938 12.3411 15.907 12.3411 15.907L12.3721 15.876L12.4031 15.845L12.4341 15.814L12.4651 15.7829L12.4961 15.7519C12.4961 15.7209 12.5271 15.7209 12.5271 15.6899C12.5271 15.6589 12.5271 15.6589 12.5581 15.6279V15.5659V15.5039V12.5581H15.6279C15.6589 12.5581 15.6589 12.5581 15.6899 12.5271C15.7209 12.5271 15.7209 12.5271 15.7519 12.4961C15.7829 12.4961 15.7829 12.4651 15.7829 12.4651L15.814 12.4341L15.845 12.4031L15.876 12.3721L15.907 12.3411L15.938 12.3101C15.938 12.2791 15.969 12.2791 15.969 12.2481C15.969 12.2171 15.969 12.2171 16 12.186V12.124V12.062V12V11.938V11.876V11.814C16 11.7829 16 11.7829 15.969 11.7519C15.969 11.7209 15.969 11.7209 15.938 11.6899C15.938 11.6589 15.907 11.6589 15.907 11.6589L15.876 11.6279L15.845 11.5969L15.814 11.5659L15.7829 11.5349L15.7519 11.5039C15.7209 11.5039 15.7209 11.4729 15.6899 11.4729C15.6589 11.4729 15.6589 11.4729 15.6279 11.4419H12.5581V8.55814V8.49612V8.43411V8.37209C12.5581 8.34109 12.5581 8.34108 12.5271 8.31008C12.5271 8.27907 12.5271 8.27907 12.4961 8.24806C12.4961 8.21705 12.4651 8.21705 12.4651 8.21705L12.4341 8.18605L12.4031 8.15504L12.3721 8.12403L12.3411 8.09302L12.3101 8.06202C12.2791 8.06202 12.2791 8.03101 12.2481 8.03101C12.2171 8.03101 12.2171 8.03101 12.186 8H11.814C11.7829 8 11.7829 8 11.7519 8.03101C11.7209 8.03101 11.7209 8.03101 11.6899 8.06202C11.6589 8.06202 11.6589 8.09302 11.6589 8.09302L11.6279 8.12403L11.5969 8.15504L11.5659 8.18605L11.5349 8.21705L11.5039 8.24806C11.5039 8.27907 11.4729 8.27907 11.4729 8.31008C11.4729 8.34108 11.4729 8.34109 11.4419 8.37209V11.4419H8.37209C8.34109 11.4419 8.34108 11.4419 8.31008 11.4729C8.27907 11.4729 8.27907 11.4729 8.24806 11.5039C8.21705 11.5039 8.21705 11.5349 8.21705 11.5349L8.18605 11.5659L8.15504 11.5969L8.12403 11.6279L8.09302 11.6589L8.06202 11.6899C8.06202 11.7209 8.03101 11.7209 8.03101 11.7519C8.03101 11.7829 8.03101 11.7829 8 11.814V12.186C8 12.2171 8 12.2171 8.03101 12.2481C8.06202 12.2791 8.03101 12.2791 8.06202 12.3101C8.06202 12.3411 8.09302 12.3411 8.09302 12.3411L8.12403 12.3721L8.15504 12.4031L8.18605 12.4341L8.21705 12.4651L8.24806 12.4961C8.27907 12.4961 8.27907 12.5271 8.31008 12.5271C8.34108 12.5271 8.34109 12.5271 8.37209 12.5581H11.4419Z" fill="white"/>
</svg>
