<svg width="14" height="14" viewBox="0 0 14 14" fill="none" xmlns="http://www.w3.org/2000/svg">
<path d="M7.00008 1.16667C10.2201 1.16667 12.8334 3.78 12.8334 7C12.8334 10.22 10.2201 12.8333 7.00008 12.8333C3.78008 12.8333 1.16675 10.22 1.16675 7C1.16675 3.78 3.78008 1.16667 7.00008 1.16667ZM7.00008 11.6667C9.57841 11.6667 11.6667 9.57834 11.6667 7C11.6667 4.42167 9.57841 2.33334 7.00008 2.33334C4.42175 2.33334 2.33341 4.42167 2.33341 7C2.33341 9.57834 4.42175 11.6667 7.00008 11.6667ZM9.06275 4.1125L9.88758 4.93734L7.00008 7.82484L6.17525 7L9.06275 4.1125Z" fill="black" fill-opacity="0.65"/>
</svg>
