<svg width="14" height="14" viewBox="0 0 14 14" fill="none" xmlns="http://www.w3.org/2000/svg">
<path d="M7.8137 1.34823C8.57806 0.544926 9.98189 1.24623 9.69142 2.28619L8.74578 5.67005L10.3109 6.2547C10.4742 6.31555 10.6194 6.41225 10.7342 6.53661C10.8491 6.66098 10.9301 6.80934 10.9706 6.96916C11.0111 7.12898 11.0097 7.29555 10.9667 7.45478C10.9237 7.61402 10.8402 7.76123 10.7234 7.88396L6.18577 12.6518C5.42213 13.4551 4.0183 12.7538 4.30877 11.7138L5.25369 8.32995L3.68857 7.7453C3.52533 7.68437 3.38019 7.58762 3.26544 7.46323C3.15068 7.33884 3.06968 7.19046 3.02929 7.03065C2.9889 6.87084 2.9903 6.70429 3.03338 6.54509C3.07645 6.3859 3.15994 6.23873 3.27677 6.11604L7.8137 1.34823ZM8.63159 2.0282L4.09466 6.79534L6.55689 7.7153L5.36788 11.9718L9.90481 7.20466L7.44329 6.28469L8.63159 2.0282Z" fill="black" fill-opacity="0.65"/>
</svg>
