<?xml version="1.0" standalone="no"?><!DOCTYPE svg PUBLIC "-//W3C//DTD SVG 1.1//EN" "http://www.w3.org/Graphics/SVG/1.1/DTD/svg11.dtd"><svg t="1757655128669" class="icon" viewBox="0 0 1024 1024" version="1.1" xmlns="http://www.w3.org/2000/svg" p-id="3930" id="mx_n_1757655128670" width="16" height="16" xmlns:xlink="http://www.w3.org/1999/xlink"><path d="M135.63392 500.34176v309.19168c0 43.52512 35.30752 78.83264 78.83264 78.83264h595.06688a78.8992 78.8992 0 0 0 55.74144-23.0912 78.80192 78.80192 0 0 0 23.08608-55.74144V214.46656a78.80704 78.80704 0 0 0-48.66048-72.82688 78.8224 78.8224 0 0 0-30.16704-6.00576h-284.27776a32.73216 32.73216 0 0 1 0-65.45408h284.27776a144.29184 144.29184 0 0 1 144.28672 144.2816v595.072a144.29184 144.29184 0 0 1-144.28672 144.28672H214.46656a144.2816 144.2816 0 0 1-144.2816-144.28672v-309.1968a32.72704 32.72704 0 1 1 65.44896 0z" p-id="3931"></path><path d="M101.15072 176.50688l15.13472 0.8192a423.90016 423.90016 0 0 1 396.24704 358.56384 32.7168 32.7168 0 0 0 37.23776 26.74688 32.7168 32.7168 0 0 0 27.43808-36.72576 489.33888 489.33888 0 0 0-457.36448-413.96224l-15.17568-0.8192a32.75264 32.75264 0 0 0-3.51744 65.41312v-0.04096z" p-id="3932"></path><path d="M542.96576 525.5424L403.05664 449.08032a32.72704 32.72704 0 0 0-31.37536 57.43616l149.89312 81.94048a53.17632 53.17632 0 0 0 70.15936-17.792l93.68064-144.8192a32.74752 32.74752 0 1 0-54.98368-35.58912l-87.46496 135.28576z" p-id="3933"></path></svg>