<svg width="14" height="14" viewBox="0 0 14 14" fill="none" xmlns="http://www.w3.org/2000/svg">
<path d="M8.06754 3.51689C8.19945 3.64879 8.13349 3.84664 8.00159 3.97855C7.80374 4.0445 7.60588 4.0445 7.53993 3.84664C7.07827 3.12118 6.2209 2.65952 5.29758 2.65952C3.84664 2.65952 2.65952 3.84664 2.65952 5.29758C2.65952 6.2209 3.12118 7.01232 3.84664 7.53993C4.0445 7.60588 4.0445 7.80374 3.97855 7.93564C3.84664 8.13349 3.64879 8.13349 3.51689 8.06754C2.59356 7.47398 2 6.41875 2 5.29758C2 3.45093 3.45093 2 5.29758 2C6.41875 2 7.47398 2.59356 8.06754 3.51689ZM5.03377 5.09972L7.53993 11.2992L8.3973 8.79301C8.46325 8.59516 8.59516 8.46325 8.79301 8.3973L11.2992 7.60588L5.03377 5.09972ZM5.29758 4.50616L11.563 7.01232C11.8927 7.14422 12.0906 7.53993 11.9587 7.86969C11.8927 8.06754 11.7608 8.19945 11.563 8.2654L9.05682 9.12277L8.19945 11.563C8.06754 11.8927 7.73779 12.0906 7.34208 11.9587C7.14422 11.8927 7.01232 11.7608 6.94637 11.563L4.44021 5.36353C4.3083 5.03377 4.50616 4.63806 4.83592 4.50616C4.96782 4.44021 5.16567 4.44021 5.29758 4.50616Z" fill="black" fill-opacity="0.65"/>
<path d="M5.06641 4.35645C5.15778 4.35645 5.25304 4.37453 5.33398 4.41309L11.6006 6.91992C11.9746 7.06989 12.2067 7.51995 12.0518 7.90723C11.9752 8.13162 11.8203 8.28408 11.5947 8.35938L9.13477 9.20117L8.29395 11.5957L8.29199 11.6006C8.21795 11.7854 8.08659 11.9372 7.91406 12.0234C7.74041 12.1102 7.5316 12.1274 7.31055 12.0537C7.08483 11.9785 6.93014 11.825 6.85352 11.6006L4.34766 5.40137V5.40039C4.21206 5.06118 4.37264 4.67405 4.66602 4.48242L4.79883 4.41309C4.87979 4.37439 4.97493 4.35649 5.06641 4.35645ZM7.53125 11.0127L8.30273 8.76074C8.37872 8.53339 8.53423 8.37856 8.76172 8.30273L8.7627 8.30176L11.0029 7.59473L5.21387 5.2793L7.53125 11.0127ZM5.29785 1.90039C6.45359 1.90049 7.53981 2.51163 8.15137 3.46289C8.23242 3.55366 8.25218 3.66392 8.23145 3.76758C8.21019 3.8735 8.14855 3.97248 8.07227 4.04883L8.05566 4.06641L8.0332 4.07324C7.92785 4.10836 7.80951 4.13073 7.70215 4.10938C7.59241 4.08743 7.50262 4.01985 7.45508 3.89941C7.01275 3.20503 6.18853 2.75986 5.29785 2.75977C3.90215 2.75977 2.75977 3.90215 2.75977 5.29785C2.75986 6.1837 3.2015 6.94491 3.90234 7.45605C4.01951 7.50329 4.08691 7.5903 4.10938 7.69141C4.13192 7.79297 4.10902 7.89911 4.06836 7.98047L4.0625 7.99121L3.97852 7.93555L4.06152 7.99121C3.98176 8.11077 3.87725 8.17622 3.76758 8.19824C3.6602 8.21972 3.55446 8.19862 3.47168 8.15723L3.46289 8.15234V8.15137C2.51163 7.53981 1.90049 6.45359 1.90039 5.29785C1.90039 3.39598 3.39598 1.90039 5.29785 1.90039Z" stroke="black" stroke-opacity="0.65" stroke-width="0.2"/>
</svg>
