<svg width="24" height="24" viewBox="0 0 24 24" fill="none" xmlns="http://www.w3.org/2000/svg">
<path d="M1.5 16.5C1.5 18.0913 2.13214 19.6174 3.25736 20.7426C4.38258 21.8679 5.9087 22.5 7.5 22.5C9.0913 22.5 10.6174 21.8679 11.7426 20.7426C12.8679 19.6174 13.5 18.0913 13.5 16.5C13.5 14.9087 12.8679 13.3826 11.7426 12.2574C10.6174 11.1321 9.0913 10.5 7.5 10.5C5.9087 10.5 4.38258 11.1321 3.25736 12.2574C2.13214 13.3826 1.5 14.9087 1.5 16.5Z" fill="#3A70FD"/>
<path d="M12.9003 22.5C12.6108 22.5 12.4773 22.1175 12.6843 21.918C13.4172 21.2188 14.0004 20.3781 14.3985 19.4467C14.7966 18.5154 15.0014 17.5129 15.0003 16.5C15.0003 14.37 14.1108 12.447 12.6843 11.082C12.4773 10.8825 12.6108 10.5 12.9003 10.5H22.2003C22.3668 10.5 22.5003 10.635 22.5003 10.8V22.2C22.5003 22.2796 22.4687 22.3559 22.4124 22.4121C22.3562 22.4684 22.2799 22.5 22.2003 22.5H12.9003Z" fill="#FFA115"/>
<path d="M11.7608 0.319707C11.7887 0.282448 11.825 0.252207 11.8666 0.231379C11.9083 0.210551 11.9542 0.199707 12.0008 0.199707C12.0474 0.199707 12.0933 0.210551 12.1349 0.231379C12.1766 0.252207 12.2128 0.282448 12.2408 0.319707L18.3908 8.52021C18.4242 8.56478 18.4446 8.61778 18.4496 8.67327C18.4546 8.72875 18.444 8.78454 18.4191 8.83437C18.3942 8.8842 18.3559 8.92611 18.3085 8.9554C18.2611 8.98469 18.2065 9.00021 18.1508 9.00021H5.85078C5.79507 9.00021 5.74045 8.98469 5.69306 8.9554C5.64567 8.92611 5.60737 8.8842 5.58245 8.83437C5.55754 8.78454 5.54699 8.72875 5.55199 8.67327C5.557 8.61778 5.57735 8.56478 5.61078 8.52021L11.7608 0.319707Z" fill="#E6414E"/>
</svg>
