<?xml version="1.0" standalone="no"?><!DOCTYPE svg PUBLIC "-//W3C//DTD SVG 1.1//EN" "http://www.w3.org/Graphics/SVG/1.1/DTD/svg11.dtd"><svg t="1761033175321" class="icon" viewBox="0 0 1024 1024" version="1.1" xmlns="http://www.w3.org/2000/svg" p-id="5136" width="16" height="16" xmlns:xlink="http://www.w3.org/1999/xlink"><path d="M476.16 225.28a46.08 46.08 0 0 1 46.08 46.08v230.39488L752.64 501.76a46.08 46.08 0 1 1 0 92.16H476.16a46.08 46.08 0 0 1-46.08-46.08V271.36a46.08 46.08 0 0 1 46.08-46.08z" p-id="5137"></path><path d="M512 10.24c277.11488 0 501.76 224.64512 501.76 501.76s-224.64512 501.76-501.76 501.76-501.76-224.64512-501.76-501.76S234.88512 10.24 512 10.24z m0 92.16c-226.21696 0-409.6 183.38304-409.6 409.6s183.38304 409.6 409.6 409.6 409.6-183.38304 409.6-409.6-183.38304-409.6-409.6-409.6z" p-id="5138"></path></svg>