<?xml version="1.0" standalone="no"?><!DOCTYPE svg PUBLIC "-//W3C//DTD SVG 1.1//EN" "http://www.w3.org/Graphics/SVG/1.1/DTD/svg11.dtd"><svg t="1761198340304" class="icon" viewBox="0 0 1024 1024" version="1.1" xmlns="http://www.w3.org/2000/svg" p-id="17052" xmlns:xlink="http://www.w3.org/1999/xlink" width="16" height="16"><path d="M926.72 926.72h-238.44352v-236.98432H926.72V926.72z m-178.83648-59.24352h119.22432v-118.49216h-119.22432v118.49216z m-119.2192-29.62432H270.99648a179.4048 179.4048 0 0 1-126.45888-52.06016A177.18272 177.18272 0 0 1 92.16 660.11648c0-47.13984 18.8416-92.34944 52.3776-125.68064A179.39456 179.39456 0 0 1 271.0016 482.37568H330.5984v59.24864H271.0016a119.59808 119.59808 0 0 0-84.30592 34.70336 118.12864 118.12864 0 0 0-34.9184 83.7888 118.12352 118.12352 0 0 0 34.9184 83.78368 119.59808 119.59808 0 0 0 84.30592 34.70336h357.66784v59.24864z m0-207.36H390.21568V393.50784h238.44864v236.98432z m-178.83648-59.24864h119.22432V452.75648H449.82784v118.48704z m298.05568-29.6192h-59.60704V482.37568h59.60704a119.6032 119.6032 0 0 0 84.30592-34.70336 118.1184 118.1184 0 0 0 34.9184-83.7888 118.1184 118.1184 0 0 0-34.9184-83.78368 119.6032 119.6032 0 0 0-84.30592-34.70336H390.21568V186.14784h357.66784a179.4048 179.4048 0 0 1 126.45888 52.06016A177.19296 177.19296 0 0 1 926.72 363.8784c0 47.13984-18.8416 92.34944-52.3776 125.68064a179.41504 179.41504 0 0 1-126.45888 52.06016z m-417.28-207.36H92.16V97.28h238.44352v236.98432zM151.77216 275.01568h119.22432V156.52352H151.77216v118.49216z" p-id="17053"></path></svg>