<?xml version="1.0" standalone="no"?><!DOCTYPE svg PUBLIC "-//W3C//DTD SVG 1.1//EN" "http://www.w3.org/Graphics/SVG/1.1/DTD/svg11.dtd"><svg t="1766476888903" class="icon" viewBox="0 0 1024 1024" version="1.1" xmlns="http://www.w3.org/2000/svg" p-id="7803" width="32" height="32" xmlns:xlink="http://www.w3.org/1999/xlink"><path d="M0 0m170.666667 0l682.666666 0q170.666667 0 170.666667 170.666667l0 682.666666q0 170.666667-170.666667 170.666667l-682.666666 0q-170.666667 0-170.666667-170.666667l0-682.666666q0-170.666667 170.666667-170.666667Z" fill="#E593BC" p-id="7804"></path><path d="M708.394667 256.725333c48.085333 0 86.954667 38.229333 86.954666 85.504v104.96a43.093333 43.093333 0 0 0 43.52 42.709334H853.333333v45.696h-14.506666a42.24 42.24 0 0 0-44.245334 41.984v104.96c0 47.232-38.869333 85.461333-86.954666 85.461333h-28.202667v-56.96h29.013333a28.714667 28.714667 0 0 0 28.970667-28.501333v-116.224c0-24.746667 16-46.464 39.637333-53.973334a56.576 56.576 0 0 1-39.68-53.973333V342.186667a28.757333 28.757333 0 0 0-28.970666-28.501334h-28.970667V256.725333h29.013333zM343.808 256v56.96h-29.013333a28.714667 28.714667 0 0 0-28.928 28.501333v116.181334a56.618667 56.618667 0 0 1-39.68 53.973333 56.618667 56.618667 0 0 1 39.68 53.973333v116.181334a28.714667 28.714667 0 0 0 29.013333 28.501333h28.970667v57.002667h-29.013334a84.906667 84.906667 0 0 1-86.186666-84.736v-104.96a43.093333 43.093333 0 0 0-43.52-42.709334H170.666667v-45.738666h14.506666a43.093333 43.093333 0 0 0 43.477334-42.709334v-104.96C228.650667 294.229333 267.52 256 315.605333 256h28.202667z m303.872 113.792c3.626667 0 6.570667 3.029333 6.570667 6.741333 0 1.066667-0.213333 2.133333-0.64 3.072l-0.853334 1.322667L546.048 512l106.538667 130.986667c0.981333 1.28 1.536 2.773333 1.536 4.394666a6.698667 6.698667 0 0 1-4.821334 6.528l-1.706666 0.213334-54.186667-0.256L512 553.813333l-81.450667 100.181334-54.229333 0.256a6.656 6.656 0 0 1-6.528-6.741334c0-1.066667 0.256-2.133333 0.682667-3.072l0.853333-1.322666 106.709333-130.986667-106.666666-131.072a7.168 7.168 0 0 1-1.578667-4.394667c0-3.157333 2.048-5.76 4.821333-6.528l1.706667-0.213333 54.229333 0.256L512 470.186667l81.493333-100.181334 54.186667-0.256z" fill="#FFFFFF" p-id="7805"></path></svg>