<?xml version="1.0" standalone="no"?><!DOCTYPE svg PUBLIC "-//W3C//DTD SVG 1.1//EN" "http://www.w3.org/Graphics/SVG/1.1/DTD/svg11.dtd"><svg t="1757655146502" class="icon" viewBox="0 0 1097 1024" version="1.1" xmlns="http://www.w3.org/2000/svg" p-id="4377" id="mx_n_1757655146504" width="17.140625" height="16" xmlns:xlink="http://www.w3.org/1999/xlink"><path d="M948.15 498.469v358.326c0 50.469-40.96 91.356-91.428 91.356H167.278a91.355 91.355 0 0 1-91.429-91.356v-689.59a91.355 91.355 0 0 1 91.429-91.356H496.64a37.961 37.961 0 0 0 0-75.849H167.205A167.205 167.205 0 0 0 0 167.205v689.59A167.205 167.205 0 0 0 167.205 1024h689.59A167.205 167.205 0 0 0 1024 856.795V498.47a37.961 37.961 0 1 0-75.85 0z" p-id="4378"></path><path d="M340.846 532.334l17.554-0.951A491.227 491.227 0 0 0 817.59 115.93a37.961 37.961 0 0 1 74.9 11.484 567.077 567.077 0 0 1-529.994 479.744l-17.554 0.95a37.961 37.961 0 1 1-4.096-75.775z" p-id="4379"></path><path d="M852.846 127.854l-162.158 88.649a37.961 37.961 0 0 1-36.352-66.56L828.05 54.857a61.66 61.66 0 0 1 81.262 20.626l108.617 167.863a37.961 37.961 0 0 1-63.707 41.253L852.846 127.854z" p-id="4380"></path></svg>