<svg width="24" height="24" viewBox="0 0 24 24" fill="none" xmlns="http://www.w3.org/2000/svg">
<path d="M12.615 1.55273C12.8458 1.55289 13.0743 1.59878 13.2873 1.68776C13.5003 1.77674 13.6935 1.90704 13.8559 2.07113C14.1855 2.40425 14.3703 2.85408 14.37 3.32273V21.0227C14.37 21.4922 14.185 21.9424 13.8559 22.2743C13.6935 22.4384 13.5003 22.5687 13.2873 22.6577C13.0743 22.7467 12.8458 22.7926 12.615 22.7927H2.08496C1.85413 22.7926 1.62562 22.7467 1.41263 22.6577C1.19964 22.5687 1.00639 22.4384 0.844036 22.2743C0.514395 21.9412 0.329636 21.4914 0.329956 21.0227V3.32273C0.329956 2.85329 0.514756 2.40305 0.844036 2.07113C1.00639 1.90705 1.19964 1.77675 1.41263 1.68778C1.62562 1.5988 1.85413 1.5529 2.08496 1.55273H12.615ZM12.615 3.32273H2.08496V21.0227H12.615V3.32273Z" fill="black" fill-opacity="0.65"/>
<path d="M4.28995 17.5134C4.84999 17.5134 5.12995 17.8134 5.12995 18.4134C5.12995 19.0134 4.84999 19.3134 4.28995 19.3134C3.72991 19.3134 3.44995 19.0134 3.44995 18.4134C3.44995 17.8134 3.72991 17.5134 4.28995 17.5134ZM10.35 17.5134C10.95 17.5134 11.25 17.8134 11.25 18.4134C11.25 19.0134 10.95 19.3134 10.35 19.3134C9.74995 19.3134 9.44995 19.0134 9.44995 18.4134C9.44995 17.8134 9.74995 17.5134 10.35 17.5134ZM6.44995 3.35336H8.12995V20.9934H6.44995V3.35336ZM19.6417 1.20644C20.1015 1.14956 20.5648 1.27964 20.9298 1.56812C21.2956 1.8582 21.532 2.28104 21.5876 2.7446L23.717 20.2743C23.7734 20.7383 23.6451 21.2058 23.3599 21.576C23.2196 21.7581 23.0446 21.9107 22.8451 22.025C22.6456 22.1392 22.4254 22.2128 22.1973 22.2416L17.8617 22.7803C17.6338 22.8084 17.4025 22.7908 17.1814 22.7288C16.9602 22.6667 16.7537 22.5612 16.5736 22.4186C16.2078 22.1285 15.9714 21.7057 15.9157 21.2421L13.7828 3.71252C13.755 3.48218 13.7723 3.24864 13.8338 3.02492C13.8952 2.80175 13.9996 2.59274 14.1412 2.40968C14.2823 2.22727 14.458 2.07451 14.6583 1.96016C14.8581 1.84616 15.0783 1.77296 15.3061 1.74512L19.6382 1.20632H19.6417V1.20644ZM19.8548 2.96012L15.5192 3.4988L17.6503 21.0266L21.9824 20.4879L19.8548 2.96012Z" fill="black" fill-opacity="0.65"/>
<path d="M19.4699 17.5137C20.0699 17.5137 20.3699 17.8137 20.3699 18.4137C20.3699 19.0137 20.0699 19.3137 19.4699 19.3137C18.8699 19.3137 18.5699 19.0137 18.5699 18.4137C18.5699 17.8137 18.8699 17.5137 19.4699 17.5137Z" fill="black" fill-opacity="0.65"/>
</svg>
