<svg width="24" height="24" viewBox="0 0 24 24" fill="none" xmlns="http://www.w3.org/2000/svg">
<path d="M12.615 1.55273C12.8458 1.55289 13.0744 1.59878 13.2874 1.68776C13.5003 1.77674 13.6936 1.90704 13.8559 2.07113C14.1856 2.40425 14.3704 2.85408 14.37 3.32273V21.0227C14.37 21.4922 14.1851 21.9424 13.8559 22.2743C13.6936 22.4384 13.5003 22.5687 13.2874 22.6577C13.0744 22.7467 12.8458 22.7926 12.615 22.7927H2.08502C1.85419 22.7926 1.62568 22.7467 1.41269 22.6577C1.1997 22.5687 1.00645 22.4384 0.844097 22.2743C0.514456 21.9412 0.329697 21.4914 0.330018 21.0227V3.32273C0.330018 2.85329 0.514817 2.40305 0.844097 2.07113C1.00645 1.90705 1.1997 1.77675 1.41269 1.68778C1.62568 1.5988 1.85419 1.5529 2.08502 1.55273H12.615ZM12.615 3.32273H2.08502V21.0227H12.615V3.32273Z" fill="#126EE3"/>
<path d="M4.29001 17.5134C4.85005 17.5134 5.13001 17.8134 5.13001 18.4134C5.13001 19.0134 4.85005 19.3134 4.29001 19.3134C3.72997 19.3134 3.45001 19.0134 3.45001 18.4134C3.45001 17.8134 3.72997 17.5134 4.29001 17.5134ZM10.35 17.5134C10.95 17.5134 11.25 17.8134 11.25 18.4134C11.25 19.0134 10.95 19.3134 10.35 19.3134C9.75001 19.3134 9.45001 19.0134 9.45001 18.4134C9.45001 17.8134 9.75001 17.5134 10.35 17.5134ZM6.45001 3.35336H8.13001V20.9934H6.45001V3.35336ZM19.6417 1.20644C20.1016 1.14956 20.5649 1.27964 20.9298 1.56812C21.2956 1.8582 21.5321 2.28104 21.5877 2.7446L23.7171 20.2743C23.7735 20.7383 23.6452 21.2058 23.3599 21.576C23.2197 21.7581 23.0447 21.9107 22.8452 22.025C22.6457 22.1392 22.4255 22.2128 22.1974 22.2416L17.8618 22.7803C17.6338 22.8084 17.4026 22.7908 17.1814 22.7288C16.9603 22.6667 16.7537 22.5612 16.5737 22.4186C16.2079 22.1285 15.9714 21.7057 15.9157 21.2421L13.7829 3.71252C13.7551 3.48218 13.7724 3.24864 13.8339 3.02492C13.8952 2.80175 13.9997 2.59274 14.1413 2.40968C14.2824 2.22727 14.4581 2.07451 14.6584 1.96016C14.8582 1.84616 15.0784 1.77296 15.3061 1.74512L19.6383 1.20632H19.6417V1.20644ZM19.8549 2.96012L15.5193 3.4988L17.6503 21.0266L21.9825 20.4879L19.8549 2.96012Z" fill="#126EE3"/>
<path d="M19.47 17.5137C20.07 17.5137 20.37 17.8137 20.37 18.4137C20.37 19.0137 20.07 19.3137 19.47 19.3137C18.87 19.3137 18.57 19.0137 18.57 18.4137C18.57 17.8137 18.87 17.5137 19.47 17.5137Z" fill="#126EE3"/>
</svg>
