<?xml version="1.0" standalone="no"?><!DOCTYPE svg PUBLIC "-//W3C//DTD SVG 1.1//EN" "http://www.w3.org/Graphics/SVG/1.1/DTD/svg11.dtd"><svg t="1761183054552" class="icon" viewBox="0 0 1024 1024" version="1.1" xmlns="http://www.w3.org/2000/svg" p-id="10842" xmlns:xlink="http://www.w3.org/1999/xlink" width="16" height="16"><path d="M940.8768 573.3376c-4.7872-228.77184-191.744-415.31904-420.52096-419.69664a427.75552 427.75552 0 0 0-141.58336 21.12512l117.12512-117.13536a15.6416 15.6416 0 0 0 0-22.1184l-20.70016-20.69504a15.6416 15.6416 0 0 0-22.1184 0.00512l-154.0096 154.07104c-0.31744 0.31744-0.5888 0.67072-0.896 0.99328l-0.04096-0.04096c-23.64928 23.64928-23.6544 61.99296 0 85.64224l154.88 154.86976a15.6416 15.6416 0 0 0 22.1184 0l20.67456-20.67968a15.6416 15.6416 0 0 0 0-22.11328L370.6112 242.33984c46.7968-19.49184 98.44224-29.6704 152.67328-28.04736 198.67136 5.94944 358.28224 171.68896 357.12 370.44224-1.18784 202.44992-165.68832 366.208-368.40448 366.208-198.54848 0-360.40704-157.056-368.12288-353.71008a15.3088 15.3088 0 0 0-15.3088-14.70464h-29.86496a15.42656 15.42656 0 0 0-15.38048 16.03584C91.75552 828.05248 280.45312 1011.5072 512 1011.5072c239.96928 0 433.92-197.04832 428.8768-438.1696z" fill="#505050" p-id="10843"></path></svg>