<svg width="24" height="24" viewBox="0 0 24 24" fill="none" xmlns="http://www.w3.org/2000/svg">
<g clip-path="url(#clip0_5184_2230)">
<path d="M0.122859 12.0037C0.122859 8.75121 0.121499 5.49872 0.123492 2.2462C0.124359 0.836786 0.860812 0.100825 2.27123 0.100544C8.7525 0.0992779 15.2338 0.0992076 21.7151 0.100895C23.0643 0.101247 23.8648 0.847403 23.8676 2.19349C23.8811 8.72222 23.8804 15.251 23.8689 21.7797C23.8666 23.1288 23.0667 23.8974 21.7303 23.898C15.2253 23.9012 8.72025 23.901 2.21524 23.8982C0.873328 23.8976 0.124429 23.1284 0.123539 21.7613C0.121406 18.5088 0.122859 15.2562 0.122859 12.0037ZM21.8983 2.09568H2.13555V21.8707H21.8983V2.09568Z" fill="black" fill-opacity="0.65"/>
<path d="M4.32333 13.674L6.21057 13.4905C6.32405 14.124 6.55451 14.5893 6.90183 14.8863C7.24915 15.1834 7.71769 15.3319 8.3075 15.3319C8.93215 15.3319 9.40285 15.1998 9.71965 14.9354C10.0364 14.6711 10.1948 14.362 10.1948 14.0082C10.1948 13.781 10.1281 13.5877 9.99483 13.4282C9.86152 13.2688 9.6289 13.1301 9.29698 13.0121C9.06971 12.9335 8.55207 12.7937 7.74392 12.5927C6.70419 12.335 5.97458 12.0183 5.55519 11.6426C4.96547 11.114 4.67056 10.4696 4.67056 9.70942C4.67056 9.22019 4.80924 8.7625 5.08667 8.33659C5.3641 7.91064 5.76385 7.58627 6.28592 7.36347C6.8079 7.14067 7.43811 7.0293 8.17636 7.0293C9.38211 7.0293 10.2897 7.29362 10.8991 7.82219C11.5085 8.35084 11.8285 9.05638 11.8591 9.9388L9.91951 10.024C9.83647 9.53036 9.65841 9.17537 9.38541 8.95912C9.11239 8.74288 8.70277 8.63477 8.15675 8.63477C7.59324 8.63477 7.15196 8.75055 6.83309 8.98204C6.62771 9.13061 6.52512 9.32936 6.52512 9.57838C6.52512 9.80561 6.62115 10 6.81336 10.1616C7.058 10.367 7.65214 10.581 8.59576 10.8038C9.53937 11.0266 10.2373 11.2571 10.6895 11.4951C11.1415 11.7333 11.4954 12.0587 11.751 12.4715C12.0065 12.8843 12.1344 13.3944 12.1344 14.0016C12.1344 14.5521 11.9813 15.0676 11.6757 15.5481C11.3698 16.0287 10.9373 16.3859 10.3782 16.6195C9.81898 16.8532 9.12219 16.9701 8.28781 16.9701C7.07333 16.9701 6.14061 16.6894 5.48972 16.128C4.83872 15.5668 4.44997 14.7486 4.32333 13.674ZM13.2942 14.2506L15.0766 14.0344C15.1333 14.4888 15.2863 14.8361 15.5352 15.0763C15.7843 15.3166 16.0857 15.4367 16.4396 15.4367C16.8196 15.4367 17.1396 15.2926 17.3996 15.0042C17.6594 14.7159 17.7894 14.3271 17.7894 13.8378C17.7894 13.3748 17.665 13.0078 17.416 12.7369C17.1669 12.4661 16.8633 12.3306 16.5051 12.3306C16.2692 12.3306 15.9874 12.3765 15.6597 12.4682L15.8629 10.9676C16.361 10.9807 16.741 10.8726 17.0031 10.6433C17.2652 10.4139 17.3963 10.1092 17.3963 9.72913C17.3963 9.40586 17.3002 9.14816 17.108 8.95584C16.9157 8.76367 16.6601 8.66751 16.3412 8.66751C16.0267 8.66751 15.7581 8.77677 15.5352 8.99521C15.3125 9.2137 15.177 9.53252 15.129 9.95188L13.4318 9.66355C13.5497 9.08263 13.7277 8.61838 13.9658 8.27109C14.2039 7.92377 14.5359 7.65079 14.9619 7.45195C15.3878 7.2532 15.8651 7.1538 16.3936 7.1538C17.298 7.1538 18.0231 7.44212 18.5693 8.01878C19.0191 8.4906 19.2442 9.02362 19.2442 9.61769C19.2442 10.4609 18.7832 11.1336 17.8615 11.636C18.412 11.7539 18.8521 12.0183 19.1819 12.4289C19.5118 12.8396 19.6767 13.3354 19.6767 13.9164C19.6767 14.7596 19.3687 15.4783 18.7527 16.0724C18.1368 16.6665 17.3701 16.9635 16.4526 16.9635C15.5832 16.9635 14.8625 16.7135 14.2902 16.2132C13.7179 15.7131 13.3859 15.0589 13.2942 14.2506Z" fill="black" fill-opacity="0.65"/>
</g>
<defs>
<clipPath id="clip0_5184_2230">
<rect width="24" height="24" fill="white"/>
</clipPath>
</defs>
</svg>
