<svg width="14" height="14" viewBox="0 0 14 14" fill="none" xmlns="http://www.w3.org/2000/svg">
<path d="M12.5996 10.1503C12.9708 10.1503 13.3273 10.2971 13.5898 10.5595C13.8524 10.822 13.9999 11.1785 14 11.5497V12.5995C14 13.3727 13.3728 13.9999 12.5996 13.9999H1.40039C0.627192 13.9999 0 13.3727 0 12.5995V11.5497C5.36104e-05 11.1785 0.147653 10.822 0.410156 10.5595C0.672678 10.2971 1.02923 10.1503 1.40039 10.1503H12.5996ZM1.40039 10.9901C1.1181 10.9901 0.87513 11.2003 0.839844 11.4804V12.6005C0.840081 12.8826 1.05017 13.1248 1.33008 13.1601H12.5996C12.8819 13.1601 13.1249 12.9499 13.1602 12.6698V11.5497C13.16 11.2675 12.9499 11.0254 12.6699 10.9901H1.40039ZM4.19922 11.7255C4.38043 11.7255 4.53331 11.8643 4.5498 12.0448C4.56617 12.2253 4.43795 12.3825 4.25977 12.4149L4.19922 12.4247H2.44922C2.2681 12.4246 2.11612 12.2858 2.09961 12.1054C2.08323 11.9248 2.21126 11.7676 2.38965 11.7353L2.44922 11.7255H4.19922ZM12.5996 5.0751C13.3728 5.0751 14 5.70229 14 6.47549V7.5253C13.9998 8.29837 13.3727 8.92471 12.5996 8.92471H1.40039C0.627287 8.92471 0.000153956 8.29837 0 7.5253V6.47549C0 5.70229 0.627192 5.0751 1.40039 5.0751H12.5996ZM1.40039 5.91495C1.1181 5.91495 0.87513 6.12511 0.839844 6.40518V7.5253C0.839985 7.80746 1.05011 8.04958 1.33008 8.08487H12.5996C12.8819 8.08487 13.1249 7.87471 13.1602 7.59464V6.47549C13.1602 6.1932 12.95 5.95024 12.6699 5.91495H1.40039ZM4.19922 6.6503C4.3804 6.6503 4.53327 6.78925 4.5498 6.96964C4.56617 7.15005 4.43794 7.30728 4.25977 7.33975L4.19922 7.35049H2.44922C2.26806 7.35041 2.11607 7.21059 2.09961 7.03018C2.08323 6.84963 2.21126 6.69236 2.38965 6.66006L2.44922 6.6503H4.19922ZM12.5996 -9.15527e-05C13.3728 -9.15527e-05 14 0.6271 14 1.4003V2.4501C14 2.82137 13.8524 3.17781 13.5898 3.44034C13.3273 3.70274 12.9708 3.85049 12.5996 3.85049H1.40039C1.02921 3.85049 0.672684 3.70273 0.410156 3.44034C0.147626 3.17781 2.35814e-05 2.82137 0 2.4501V1.4003C0 0.6271 0.627192 -9.15527e-05 1.40039 -9.15527e-05H12.5996ZM1.40039 0.839752C1.1181 0.839752 0.87513 1.04992 0.839844 1.32999V2.4501C0.839987 2.73226 1.05012 2.97439 1.33008 3.00967H12.5996C12.8819 3.00967 13.1249 2.79951 13.1602 2.51944V1.4003C13.1602 1.11801 12.95 0.875038 12.6699 0.839752H1.40039ZM4.19922 1.5751C4.38051 1.5751 4.53342 1.71487 4.5498 1.89542C4.56593 2.07563 4.43778 2.2321 4.25977 2.26456L4.19922 2.2753H2.44922C2.268 2.27521 2.11598 2.13548 2.09961 1.95499C2.08323 1.77444 2.21126 1.61717 2.38965 1.58487L2.44922 1.5751H4.19922Z" fill="black" fill-opacity="0.65"/>
<path fill-rule="evenodd" clip-rule="evenodd" d="M1.85515 4.71579C1.67386 4.71612 1.52232 4.57797 1.50594 4.39741C1.48956 4.21686 1.61376 4.05369 1.79215 4.02139L1.85515 4.01579H3.60515C3.78644 4.01546 3.93798 4.15361 3.95436 4.33416C3.97074 4.51472 3.84654 4.67789 3.66815 4.71019L3.60515 4.71579H1.85515Z" fill="black" fill-opacity="0.65"/>
<path fill-rule="evenodd" clip-rule="evenodd" d="M9.85515 9.71579C9.67386 9.71612 9.52232 9.57797 9.50594 9.39741C9.48956 9.21686 9.61376 9.05369 9.79215 9.02139L9.85515 9.01579H11.6051C11.7864 9.01546 11.938 9.15361 11.9544 9.33416C11.9707 9.51472 11.8465 9.67789 11.6681 9.71019L11.6051 9.71579H9.85515Z" fill="black" fill-opacity="0.65"/>
</svg>
