<?xml version="1.0" encoding="UTF-8"?>
<svg width="17px" height="16px" viewBox="0 0 17 16" version="1.1" xmlns="http://www.w3.org/2000/svg" xmlns:xlink="http://www.w3.org/1999/xlink">
    <!-- Generator: Sketch 60 (88103) - https://sketch.com -->
    <title>编组</title>
    <desc>Created with Sketch.</desc>
    <g id="页面-1" stroke="none" stroke-width="1" fill="none" fill-rule="evenodd">
        <g id="编组" transform="translate(8.500000, 8.000000) rotate(-90.000000) translate(-8.500000, -8.000000) translate(1.000000, 0.000000)" fill="#505050" fill-rule="nonzero">
            <path d="M14.5417219,8.19697714 L7.82259187,0.246897143 C7.68980205,0.0913197703 7.49708111,0.0019486993 7.29438187,0.0019486993 C7.09168264,0.0019486993 6.8989617,0.0913197703 6.76617187,0.246897143 L0.049201875,8.19697714 C0.00430499145,8.24926185 -0.00636252232,8.32338093 0.0219199672,8.38653491 C0.0502024568,8.4496889 0.112213566,8.49021857 0.180511875,8.49018857 L1.41207187,8.49018857 C1.51343985,8.4898428 1.60978984,8.445331 1.67667187,8.36794857 L6.64431187,2.57933143 L6.64431187,15.6391714 C6.64460836,15.7372079 6.72276721,15.8166074 6.81927187,15.8169086 L7.77156187,15.8169086 C7.86806654,15.8166074 7.94622539,15.7372079 7.94652187,15.6391714 L7.94652187,2.57942286 L12.9141619,8.36804 C12.9804911,8.44617551 13.0771985,8.49085245 13.1787619,8.49028 L14.4103219,8.49028 C14.5592719,8.49028 14.6401819,8.31254286 14.5417219,8.19697714 Z" id="路径"></path>
        </g>
    </g>
</svg>