<?xml version="1.0" encoding="utf-8"?>
<!-- Generator: Adobe Illustrator 22.0.0, SVG Export Plug-In . SVG Version: 6.00 Build 0)  -->
<svg version="1.1" id="其它_1_" xmlns="http://www.w3.org/2000/svg" xmlns:xlink="http://www.w3.org/1999/xlink" x="0px" y="0px"
	 viewBox="0 0 200 200" enable-background="new 0 0 200 200" xml:space="preserve">
<path fill="#505050" d="M121.5,106h-68c-1.657,0-3-1.343-3-3v-6c0-1.657,1.343-3,3-3h68c1.657,0,3,1.343,3,3v6
	C124.5,104.657,123.157,106,121.5,106z"/>
<path fill="#505050" d="M121.5,66h-68c-1.657,0-3-1.343-3-3v-6c0-1.657,1.343-3,3-3h68c1.657,0,3,1.343,3,3v6
	C124.5,64.657,123.157,66,121.5,66z"/>
<path fill="#505050" d="M162,164v10.772c0,6.007-4.525,10.894-10.087,10.894H25.587c-5.562,0-10.087-4.887-10.087-10.894V25.227
	c0-6.007,4.525-10.894,10.087-10.894h126.326c2.621,0,5.113,1.101,7.017,3.101c1.98,2.08,3.07,4.848,3.07,7.794V65h12V25.229
	c0.001-6.042-2.265-11.749-6.38-16.07c-4.19-4.402-9.769-6.826-15.707-6.826H25.587C13.408,2.333,3.5,12.603,3.5,25.227v149.545
	c0,12.624,9.908,22.894,22.087,22.894h126.326c12.179,0,22.087-10.27,22.087-22.894V164H162z"/>
<g>
	<path fill="#505050" d="M173.75,92.222l11.525,13.024c-0.093,0.092-0.192,0.186-0.299,0.28l-7.843,6.929
		c-0.227,0.201-0.483,0.399-0.762,0.586l-0.572,0.385l-0.514,0.459L119.869,163.4l-14.42,1.247l3.173-14.506l55.188-48.863
		l0.567-0.502l0.485-0.581c0.249-0.298,0.494-0.553,0.757-0.786l7.816-6.923C173.541,92.392,173.647,92.304,173.75,92.222
		 M175.086,81.332c-2.501,0-5.594,1.287-8.285,3.671l-7.814,6.921c-0.671,0.593-1.269,1.222-1.807,1.867L99.55,144.817
		l-6.774,30.963l31.272-2.704l57.899-51.735c0.622-0.418,1.236-0.886,1.829-1.413l7.82-6.909c4.304-3.821,5.959-9.008,3.652-11.593
		L178.731,82.76C177.872,81.794,176.585,81.332,175.086,81.332L175.086,81.332z"/>
</g>
</svg>
