<svg width="200" height="200" viewBox="0 0 200 200" fill="none" xmlns="http://www.w3.org/2000/svg">
<path d="M191.2 57.1L159.9 44.4L174.4 10.4C175 8.90003 174.3 7.20003 172.8 6.50003L167.3 4.10003C165.8 3.50003 164.1 4.20003 163.4 5.70003L148.8 40L114.2 26L114 25.9C110.8 24.7 107.3 25.4 104.8 27.7L104 28.5L103.5 29.5C103.4 29.8 89.9001 55.8 68.2001 76.5C50.3001 93.1 6.70006 120.2 6.20006 120.5L5.70006 120.8L5.30006 121.2C3.10006 123.2 2.10006 126.2 2.60006 129.2C3.10006 132.2 5.00006 134.7 7.90006 136L142.9 195.6L143.2 195.7C144.2 196.1 145.3 196.3 146.4 196.3C147.8 196.3 149.1 196 150.3 195.4C152 194.6 153.3 193.3 154.2 191.7C158 187.4 178 163.9 187.2 135.4C196.2 107.6 196.5 72.9 196.5 67.2C197.3 63 195.1 58.7 191.2 57.1ZM112.3 38.1L184.5 67.4C184.5 70.8 184.3 84 182.4 99.6L96.2001 62.6C104.1 52.1 109.6 42.9 112.3 38.1ZM145.4 183.6L113.5 169.5L136.9 146.4C137.5 144.9 136.8 143.2 135.3 142.5L129.8 140.1C128.3 139.5 126.6 140.2 125.9 141.7L102.6 164.7L74.3001 152.2L97.2001 129.4C97.8001 127.9 97.1001 126.2 95.6001 125.5L90.1001 123.1C88.6001 122.5 86.9001 123.2 86.2001 124.7L63.3001 147.4L17.9001 127.3C30.4001 119.3 61.3001 99.2 76.3001 85C80.7001 80.8 84.7001 76.5 88.4001 72.2L180.6 111.7C179.4 118.5 177.8 125.3 175.8 131.7C167.5 157.4 149.2 179.3 145.4 183.6Z" fill="black"/>
</svg>
