<?xml version="1.0" encoding="UTF-8"?>
<svg width="16px" height="16px" viewBox="0 0 16 16" version="1.1" xmlns="http://www.w3.org/2000/svg" xmlns:xlink="http://www.w3.org/1999/xlink">
    <!-- Generator: Sketch 60 (88103) - https://sketch.com -->
    <title>编组</title>
    <desc>Created with Sketch.</desc>
    <g id="web端new" stroke="none" stroke-width="1" fill="none" fill-rule="evenodd">
        <g id="实名共享01" transform="translate(-932.000000, -308.000000)" fill="#505050" fill-rule="nonzero">
            <g id="Group-18" transform="translate(212.000000, 291.000000)">
                <g id="编组" transform="translate(720.000000, 17.000000)">
                    <path d="M15.8711096,14.7855959 L9.06924658,7.98373288 L15.8708904,1.18208904 C15.9325583,1.12043165 15.9672038,1.0368 15.9672038,0.94959589 C15.9672038,0.862391779 15.9325583,0.778760135 15.8708904,0.71710274 L15.2509452,0.0971575342 C15.1892878,0.0354896936 15.1056562,0.000844183222 15.0184521,0.000844183222 C14.9312479,0.000844183222 14.8476163,0.0354896936 14.7859589,0.0971575342 L7.98442466,6.89880137 L1.18278082,0.0972671233 C1.12112343,0.0355992826 1.03749178,0.000844183222 0.950287671,0.000844183222 C0.86308356,0.000844183222 0.779451916,0.0355992826 0.717794521,0.0972671233 L0.0978493151,0.717212329 C0.0361814744,0.778869724 0.001426375,0.862501368 0.001426375,0.949705479 C0.001426375,1.03690959 0.0361814744,1.12054123 0.0978493151,1.18219863 L6.89949315,7.98373288 L0.097739726,14.7854863 C0.0360718853,14.8471437 0.001426375,14.9307753 0.001426375,15.0179795 C0.001426375,15.1051836 0.0360718853,15.1888152 0.097739726,15.2504726 L0.717684932,15.8704178 C0.779342327,15.9320856 0.862973971,15.9668407 0.950178082,15.9668407 C1.03738219,15.9668407 1.12101384,15.9320856 1.18267123,15.8704178 L7.98442466,9.06866438 L14.7862877,15.8705274 C14.8479451,15.9321952 14.9315767,15.9668407 15.0187808,15.9668407 C15.1059849,15.9668407 15.1896166,15.9321952 15.251274,15.8705274 L15.8712192,15.2505822 C15.9328725,15.1889103 15.9674777,15.1052705 15.9674777,15.0180663 C15.9674777,14.9308622 15.932792,14.8472388 15.8711096,14.7855959 Z" id="路径"></path>
                </g>
            </g>
        </g>
    </g>
</svg>
