<svg version="1.1" id="图层_1" xmlns="http://www.w3.org/2000/svg" x="0" y="0" viewBox="0 0 200 200" xml:space="preserve">
  <style>
    .st0{fill:#505050}
  </style>
  <path class="st0" d="M117.3 52.2H46.9c-1.7 0-3 1.3-3 3v6c0 1.7 1.3 3 3 3h70.3c1.7 0 3-1.3 3-3v-6c.1-1.7-1.3-3-2.9-3zM100.3 99.8H46.9c-1.7 0-3 1.3-3 3v6c0 1.7 1.3 3 3 3h53.3c1.7 0 3-1.3 3-3v-6c.1-1.6-1.3-3-2.9-3z"/>
  <path class="st0" d="M165.4 35.3h-14.3V27c0-13.2-10.8-24-24-24H34.8c-13.2 0-24 10.8-24 24v113.6c0 13.2 10.8 24 24 24h14.3v8.3c0 13.2 10.8 24 24 24h92.3c13.2 0 24-10.8 24-24V59.3c0-13.2-10.7-24-24-24zM22.8 140.7V27c0-6.6 5.4-12 12-12h92.3c6.6 0 12 5.4 12 12v113.6c0 6.6-5.4 12-12 12H34.8c-6.6.1-12-5.3-12-11.9zM177.4 173c0 6.6-5.4 12-12 12H73.1c-6.6 0-12-5.4-12-12v-8.3h66.1c13.2 0 24-10.8 24-24V47.3h14.3c6.6 0 12 5.4 12 12V173h-.1z"/>
</svg>
