<svg xmlns="http://www.w3.org/2000/svg" xmlns:xlink="http://www.w3.org/1999/xlink" width="16px" height="16px" viewBox="0 0 16 16" version="1.1">
    <title>Group 5 Copy 2</title>
    <g id="文档页面单选" stroke="none" stroke-width="1" fill="none" fill-rule="evenodd">
        <g id="更多" transform="translate(-635.000000, -317.000000)" fill="#5B5D66">
            <g id="Group-7-Copy-2" transform="translate(625.000000, 212.000000)">
                <g id="Group-5-Copy-2" transform="translate(10.000000, 105.000000)">
                    <g id="Group-19" transform="translate(0.000000, 0.500000)">
                        <path d="M7.73001749,0.000589580686 L2.03460587,0.000589580686 C0.912484341,0.00431003812 0.00359727932,0.96992122 1.5720758e-13,2.16235832 L1.5720758e-13,8.18673443 C0.00359727932,9.37900889 0.912484341,10.3447014 2.03460587,10.3482592 L4.06921175,10.3482592 L4.06921175,9.5419568 L2.30891756,9.5419568 C1.48104582,9.54211944 0.809923612,8.82929606 0.809770536,7.94984498 C0.809770536,7.9384803 0.809847074,7.92705464 0.810076687,7.91560864 L0.810076687,2.45373316 C0.810076687,1.57420076 1.48104582,0.86121474 2.30891756,0.86121474 L7.4494297,0.86121474 C8.2772249,0.86121474 8.94827057,1.57420076 8.94827057,2.45373316 L8.94827057,7.91560864 C8.96583601,8.79481576 8.30929427,9.52290724 7.48165214,9.54165184 C7.47095598,9.54179416 7.46020241,9.5419568 7.4494297,9.5419568 L7.32191763,9.5419568 L7.32191763,10.4093316 L7.73001749,10.4093316 C8.85730533,10.4059975 9.76845026,9.43237611 9.76524415,8.23485642 C9.76524415,8.21881576 9.76500605,8.2027751 9.76462336,8.18673443 L9.76462336,2.16235832 C9.76112176,0.96992122 8.85231123,0.00431003812 7.73001749,0.000589580686 Z" id="Fill-1"/>
                        <path d="M7.23297256,14.6988767 L13.1062934,14.6988767 C14.2635421,14.6951239 15.2007382,13.6992692 15.2044479,12.4697554 L15.2044479,6.22920521 C15.2007382,4.99962855 14.2635421,4.00377377 13.1062934,4 L11.008139,4 L11.008139,4.88750578 L12.823414,4.88750578 C13.6771236,4.88750578 14.3691483,5.62276109 14.3691483,6.5296808 L14.3691483,12.1762403 C14.3691483,13.0830762 13.6771236,13.8183315 12.823414,13.8183315 L7.52232418,13.8183315 C6.66875269,13.8183315 5.97666877,13.0830762 5.97666877,12.1762403 L5.97666877,6.5296808 C5.97666877,5.62276109 6.6686935,4.88750578 7.52232418,4.88750578 L7.65381895,4.88750578 L7.65381895,4 L7.23297256,4 C6.07572395,4.00377377 5.13844886,4.99962855 5.13481815,6.22920521 L5.13481815,12.4696715 C5.13844886,13.6992692 6.07572395,14.6951239 7.23297256,14.6988767 Z" id="Fill-4"/>
                    </g>
                </g>
            </g>
        </g>
    </g>
</svg>
