<?xml version="1.0" encoding="utf-8"?>
<!-- Generator: Adobe Illustrator 22.0.0, SVG Export Plug-In . SVG Version: 6.00 Build 0)  -->
<svg version="1.1" id="图层_1" xmlns="http://www.w3.org/2000/svg" xmlns:xlink="http://www.w3.org/1999/xlink" x="0px" y="0px"
	 viewBox="0 0 24 24" style="enable-background:new 0 0 24 24;" xml:space="preserve">
<style type="text/css">
	.st0{fill:#5B5D66;}
</style>
<title>设备-线性</title>
<desc>Created with Sketch.</desc>
<g id="设备-线性">
	<g id="Combined-Shape">
		<path class="st0" d="M6.4,23H3.6C2.2,23,1,21.8,1,20.4V3.6C1,2.2,2.2,1,3.6,1h2.8C7.8,1,9,2.2,9,3.6v16.8C9,21.8,7.8,23,6.4,23z
			 M3.6,2.2c-0.8,0-1.4,0.6-1.4,1.4v16.8c0,0.8,0.6,1.4,1.4,1.4h2.8c0.8,0,1.4-0.6,1.4-1.4V3.6c0-0.8-0.6-1.4-1.4-1.4H3.6z"/>
	</g>
	<path id="Rectangle-21-Copy" class="st0" d="M4.5,4h1C5.8,4,6,4.2,6,4.5v4C6,8.8,5.8,9,5.5,9h-1C4.2,9,4,8.8,4,8.5v-4
		C4,4.2,4.2,4,4.5,4z"/>
	<path class="st0" d="M20.4,1h-6.8C12.2,1,11,2.2,11,3.6v11.8v1.2v3.8c0,1.4,1.2,2.6,2.6,2.6h6.8c1.4,0,2.6-1.2,2.6-2.6V3.6
		C23,2.2,21.8,1,20.4,1z M12.2,3.6c0-0.8,0.6-1.4,1.4-1.4h6.8c0.8,0,1.4,0.6,1.4,1.4v11.8h-9.6V3.6z M20.4,21.8h-6.8
		c-0.8,0-1.4-0.6-1.4-1.4v-3.8h9.6v3.8C21.8,21.2,21.2,21.8,20.4,21.8z"/>
	<circle id="Oval-4" class="st0" cx="17" cy="19" r="1"/>
</g>
</svg>
