<?xml version="1.0" encoding="utf-8"?>
<!-- Generator: Adobe Illustrator 22.0.0, SVG Export Plug-In . SVG Version: 6.00 Build 0)  -->
<svg version="1.1" id="其它_1_" xmlns="http://www.w3.org/2000/svg" xmlns:xlink="http://www.w3.org/1999/xlink" x="0px" y="0px"
	 viewBox="0 0 200 200" enable-background="new 0 0 200 200" xml:space="preserve">
<g>
	<path fill="#505050" d="M162.964,197.666H38.036c-12.518,0-22.702-10.27-22.702-22.894V25.227
		c0-12.624,10.184-22.894,22.702-22.894h124.928c6.06,0,11.764,2.396,16.063,6.745c4.281,4.331,6.64,10.067,6.639,16.151v149.544
		C185.666,187.396,175.481,197.666,162.964,197.666z M38.036,14.333c-5.901,0-10.702,4.887-10.702,10.894v149.545
		c0,6.007,4.801,10.894,10.702,10.894h124.928c5.901,0,10.702-4.887,10.702-10.894V25.228c0-2.905-1.126-5.644-3.172-7.714
		c-2.028-2.051-4.702-3.181-7.53-3.181H38.036z"/>
</g>
<path fill="#505050" d="M140,148c0,1.65-1.35,3-3,3H63c-1.65,0-3-1.35-3-3v-6c0-1.65,1.35-3,3-3h74c1.65,0,3,1.35,3,3V148z"/>
<path fill="#505050" d="M140,108c0,1.65-1.35,3-3,3H63c-1.65,0-3-1.35-3-3v-6c0-1.65,1.35-3,3-3h74c1.65,0,3,1.35,3,3V108z"/>
<path fill="#505050" d="M140,68c0,1.65-1.35,3-3,3H63c-1.65,0-3-1.35-3-3v-6c0-1.65,1.35-3,3-3h74c1.65,0,3,1.35,3,3V68z"/>
</svg>
