<svg xmlns="http://www.w3.org/2000/svg" id="下载" x="0" y="0" version="1.1" viewBox="0 0 200 200" xml:space="preserve">
    <style>
        .st0 {
            fill: #505050
        }
    </style>
    <path
        d="M94.3 130.5c3 3 8 3 11 0l.4-.4L146 89.7c1.1-1.1 1.1-3 0-4.1l-4.8-4.8c-1.1-1.1-3-1.1-4.1 0l-30.7 30.7V7.5c0-1.6-1.3-1.9-2.9-1.9h-6.8c-1.6 0-2.9.3-2.9 1.9v104.4L62.9 81.2c-1.1-1.1-3-1.1-4.1 0L54 86c-1.1 1.1-1.1 3 0 4.1l40.3 40.4z"
        class="st0" />
    <path
        d="M170.1 194.5H29.9C17 194.5 6.5 184 6.5 171.1v-36.5c0-1.6 1.3-2.9 2.9-2.9h5.8c1.6 0 2.9 1.3 2.9 2.9v36.5c0 6.5 5.2 11.7 11.7 11.7H170c6.5 0 11.7-5.2 11.7-11.7v-36.5c0-1.6 1.3-2.9 2.9-2.9h5.8c1.6 0 2.9 1.3 2.9 2.9v36.5c.2 13-10.3 23.4-23.2 23.4z"
        class="st0" />
</svg>
