<svg width="200" height="200" viewBox="0 0 200 200" fill="none" xmlns="http://www.w3.org/2000/svg">
<g clip-path="url(#clip0_4575_8084)">
<path d="M185.185 103.776V169.384C185.185 171.58 184.724 173.756 183.827 175.785C182.93 177.814 181.616 179.658 179.959 181.212C178.302 182.765 176.335 183.997 174.171 184.838C172.006 185.678 169.686 186.111 167.343 186.111H32.6574C30.3143 186.111 27.9941 185.678 25.8293 184.838C23.6646 183.997 21.6976 182.765 20.0408 181.212C18.3839 179.658 17.0697 177.814 16.173 175.785C15.2763 173.756 14.8148 171.58 14.8148 169.384V43.1163C14.8148 33.8802 22.8056 26.3889 32.6574 26.3889H97C98.9646 26.3889 100.849 25.6572 102.238 24.3549C103.627 23.0526 104.407 21.2862 104.407 19.4444C104.407 17.6027 103.627 15.8363 102.238 14.534C100.849 13.2316 98.9646 12.5 97 12.5H32.6574C23.9961 12.5 15.6896 15.7256 9.56513 21.4673C3.44068 27.209 6.27572e-10 34.9964 0 43.1163V169.384C0 177.504 3.44068 185.291 9.56513 191.033C15.6896 196.774 23.9961 200 32.6574 200H167.343C176.004 200 184.31 196.774 190.435 191.033C196.559 185.291 200 177.504 200 169.384V103.776C200 101.934 199.22 100.168 197.83 98.8656C196.441 97.5632 194.557 96.8316 192.593 96.8316C190.628 96.8316 188.744 97.5632 187.355 98.8656C185.966 100.168 185.185 101.934 185.185 103.776Z" fill="black"/>
<path d="M152.752 40.3241C142.077 40.3241 131.838 44.9489 124.29 53.181C116.741 61.4132 112.5 72.5785 112.5 84.2205V130.184C112.5 131.145 112.673 132.096 113.011 132.984C113.348 133.871 113.842 134.678 114.465 135.357C115.088 136.037 115.827 136.575 116.641 136.943C117.455 137.311 118.328 137.5 119.209 137.5C120.09 137.5 120.962 137.311 121.776 136.943C122.59 136.575 123.33 136.037 123.953 135.357C124.576 134.678 125.07 133.871 125.407 132.984C125.744 132.096 125.918 131.145 125.917 130.184V84.2205C125.917 80.3775 126.612 76.5721 127.96 73.0216C129.309 69.4711 131.285 66.245 133.777 63.5275C136.269 60.8101 139.227 58.6545 142.483 57.1838C145.739 55.7132 149.228 54.9562 152.752 54.9562H192.452C193.888 54.9565 195.294 54.5097 196.506 53.6685C197.718 52.8274 198.684 51.6266 199.291 50.2073C199.899 48.7881 200.123 47.2092 199.936 45.6561C199.749 44.1031 199.16 42.6404 198.238 41.4398L168.392 2.61882C167.249 1.13082 165.611 0.199001 163.838 0.0283552C162.064 -0.142291 160.302 0.462215 158.937 1.70889C157.573 2.95556 156.718 4.74227 156.562 6.67598C156.405 8.60969 156.96 10.532 158.103 12.02L179.864 40.3241H152.752Z" fill="black"/>
</g>
<defs>
<clipPath id="clip0_4575_8084">
<rect width="200" height="200" fill="white"/>
</clipPath>
</defs>
</svg>
