<svg version="1.1" id="查看" xmlns="http://www.w3.org/2000/svg" x="0" y="0" viewBox="0 0 200 200" xml:space="preserve">
    <style>
        .st0 {
            fill: #505050
        }
    </style>
    <path class="st0"
        d="M100 130.7c-16.5 0-30-13.5-30-30s13.5-30 30-30 30 13.5 30 30c0 16.6-13.5 30-30 30zm0-48c-9.9 0-18 8.1-18 18s8.1 18 18 18 18-8.1 18-18-8.1-18-18-18z" />
    <path class="st0"
        d="M100 41.6c16.4 0 36.9 11.1 59.3 32.1 10.9 10.2 19.8 20.6 25.2 27.2-5.2 6.4-13.9 16.3-24.5 26.2-22.2 20.4-42.9 31.2-60 31.2-21.8 0-44.7-17-60.1-31.2-10.7-9.9-19.3-19.9-24.5-26.3 5.1-6.5 13.7-16.7 24.3-26.9C55.2 59.2 78.2 41.6 100 41.6m0-12C50.1 29.6.3 100.9.3 100.9s49.9 69.4 99.7 69.4c49.5 0 99.7-69.4 99.7-69.4S147.9 29.6 100 29.6z" />
</svg>
