<?xml version="1.0" encoding="utf-8"?>
<!-- Generator: Adobe Illustrator 22.0.0, SVG Export Plug-In . SVG Version: 6.00 Build 0)  -->
<svg version="1.1" id="图层_1" xmlns="http://www.w3.org/2000/svg" xmlns:xlink="http://www.w3.org/1999/xlink" x="0px" y="0px"
	 viewBox="0 0 200 200" enable-background="new 0 0 200 200" xml:space="preserve">
<g>
	<g>
		<path fill="#505050" d="M41.999,158.048c-6.807,0-13.615-2.475-18.566-7.426s-7.426-11.14-7.426-18.566
			c0-6.807,2.475-13.615,7.426-18.566c4.951-4.951,11.14-7.426,18.566-7.426h12.996V93.068H41.999
			c-21.66,0-38.988,17.328-38.988,38.988c0,21.66,17.328,38.988,38.988,38.988v12.996l19.185-19.185l-19.185-19.804V158.048z
			 M158.345,28.706h-12.996v12.996h12.996c6.807,0,13.615,2.475,18.566,7.426c4.951,4.951,7.426,11.14,7.426,18.566
			c0,7.426-2.476,13.615-7.426,18.566c-4.951,4.951-11.139,7.426-18.566,7.426V80.69L139.16,99.875l19.185,19.185v-12.996
			c21.66,0,38.988-17.328,38.988-38.988C197.333,46.034,180.005,28.706,158.345,28.706L158.345,28.706z M158.345,28.706"/>
	</g>
</g>
<g>
	<path fill="#505050" d="M123.55,53.553H76.914c-4.962,0-9-4.038-9-9v-20.02c0-4.962,4.038-9,9-9h46.636c4.963,0,9,4.038,9,9v20.02
		C132.55,49.515,128.513,53.553,123.55,53.553z M79.914,41.553h40.636v-14.02H79.914V41.553z"/>
</g>
<g>
	<path fill="#505050" d="M123.55,117.553H76.914c-4.962,0-9-4.037-9-9v-20.02c0-4.962,4.038-9,9-9h46.636c4.963,0,9,4.038,9,9v20.02
		C132.55,113.516,128.513,117.553,123.55,117.553z M79.914,105.553h40.636v-14.02H79.914V105.553z"/>
</g>
<g>
	<path fill="#505050" d="M123.55,183.865H76.914c-4.962,0-9-4.037-9-9v-20.02c0-4.963,4.038-9,9-9h46.636c4.963,0,9,4.037,9,9v20.02
		C132.55,179.828,128.513,183.865,123.55,183.865z M79.914,171.865h40.636v-14.02H79.914V171.865z"/>
</g>
</svg>
