<?xml version="1.0" encoding="utf-8"?>
<!-- Generator: Adobe Illustrator 22.0.0, SVG Export Plug-In . SVG Version: 6.00 Build 0)  -->
<svg version="1.1" id="图层_1" xmlns="http://www.w3.org/2000/svg" xmlns:xlink="http://www.w3.org/1999/xlink" x="0px" y="0px"
	 viewBox="0 0 200 200" style="enable-background:new 0 0 200 200;" xml:space="preserve">
<style type="text/css">
	.st0{fill:#333333;}
</style>
<g>
	<path class="st0" d="M128.2,178.8H4.3c-1,0-1.8,0.8-1.8,1.8v8.9c0,1,0.8,1.8,1.8,1.8h123.8c1,0,1.8-0.8,1.8-1.8v-8.9
		C130,179.6,129.2,178.8,128.2,178.8z"/>
	<path class="st0" d="M128.2,97.4H4.3c-1,0-1.8,0.8-1.8,1.8v8.9c0,1,0.8,1.8,1.8,1.8h123.8c1,0,1.8-0.8,1.8-1.8v-8.9
		C130,98.2,129.2,97.4,128.2,97.4z"/>
	<path class="st0" d="M128.2,12H4.3c-1,0-1.8,0.8-1.8,1.8v8.9c0,1,0.8,1.8,1.8,1.8h123.8c1,0,1.8-0.8,1.8-1.8v-8.9
		C130,12.8,129.2,12,128.2,12z"/>
	<path class="st0" d="M195.3,150c-1.2-0.8-2.6-1-4-0.7l-19,8.4V4.3c0-0.7-0.6-1.3-1.3-1.3h-9.9c-0.7,0-1.3,0.6-1.3,1.3v158.9v28.5
		v0.1l0,0c0.1,2.7,2.3,4.9,5,4.9c1.7,0,3.2-0.8,4.2-2.2l27.7-37.6C198.2,154.7,197.6,151.6,195.3,150z"/>
</g>
</svg>
