<svg width="16" height="16" viewBox="0 0 16 16" fill="none" xmlns="http://www.w3.org/2000/svg">
<g clip-path="url(#clip0_3636_15359)">
<path d="M13.7842 2.63977L13.7842 15.6558C13.7842 15.7118 13.7362 15.7598 13.6802 15.7598L12.8882 15.7598C12.8322 15.7598 12.7842 15.7118 12.7842 15.6558L12.7842 0.647767M10.2562 15.0398L0.344195 15.0398C0.264195 15.0398 0.200195 14.9758 0.200195 14.8958L0.200196 14.1838C0.200196 14.1038 0.264196 14.0398 0.344196 14.0398L10.2482 14.0398C10.3282 14.0398 10.3922 14.1038 10.3922 14.1838L10.3922 14.8958C10.4002 14.9758 10.3362 15.0398 10.2562 15.0398V15.0398ZM10.2562 8.20777L0.344197 8.20777C0.264197 8.20777 0.200197 8.14377 0.200197 8.06377L0.200197 7.35177C0.200197 7.27177 0.264197 7.20777 0.344197 7.20777L10.2482 7.20777C10.3282 7.20777 10.3922 7.27177 10.3922 7.35177L10.3922 8.06377C10.4002 8.14377 10.3362 8.20777 10.2562 8.20777ZM10.2562 1.69577L0.344198 1.69577C0.264198 1.69577 0.200198 1.63177 0.200198 1.55177L0.200198 0.839766C0.200198 0.759766 0.264198 0.695766 0.344198 0.695766L10.2482 0.695767C10.3282 0.695767 10.3922 0.759767 10.3922 0.839767L10.3922 1.55177C10.4002 1.63177 10.3362 1.69577 10.2562 1.69577Z" fill="black"/>
<path d="M12.7842 2.94381L12.7842 0.663813C12.7842 0.439813 12.9602 0.263813 13.1842 0.263813C13.3202 0.263813 13.4402 0.327813 13.5202 0.439813L15.7362 3.44781C15.8562 3.63181 15.8082 3.87981 15.6242 3.99981C15.5282 4.06381 15.4162 4.07981 15.3042 4.05581L12.7842 2.94381V2.94381Z" fill="black"/>
</g>
<defs>
<clipPath id="clip0_3636_15359">
<rect width="16" height="16" fill="white" transform="matrix(1 1.74846e-07 1.74846e-07 -1 0 16)"/>
</clipPath>
</defs>
</svg>
