<?xml version="1.0" encoding="utf-8"?>
<!-- Generator: Adobe Illustrator 22.0.0, SVG Export Plug-In . SVG Version: 6.00 Build 0)  -->
<svg version="1.1" id="图层_1" xmlns="http://www.w3.org/2000/svg" xmlns:xlink="http://www.w3.org/1999/xlink" x="0px" y="0px"
	 viewBox="0 0 24 24" style="enable-background:new 0 0 24 24;" xml:space="preserve">
<style type="text/css">
	.st0{fill:#5B5D66;}
</style>
<title>流程申请</title>
<desc>Created with Sketch.</desc>
<g id="流程申请">
	<g id="Path-10">
		<path class="st0" d="M6.4,22.9H4c-1.4,0-2.6-1.2-2.6-2.6V3.5c0-1.4,1.2-2.6,2.6-2.6h14.8c1.4,0,2.6,1.2,2.6,2.6v5.4h-1.2V3.5
			c0-0.8-0.6-1.4-1.4-1.4H4c-0.8,0-1.4,0.6-1.4,1.4v16.8c0,0.8,0.6,1.4,1.4,1.4h2.4V22.9z"/>
	</g>
	<path class="st0" d="M21.6,17.5c-0.2-1.9-1.3-3.5-3-4.4c0,0,0,0,0-0.1c0-1.4-1.2-2.6-2.6-2.6s-2.6,1.2-2.6,2.6c0,0,0,0,0,0.1
		c-1.7,0.9-2.8,2.5-3,4.4c-1.2,0.3-2,1.3-2,2.5c0,1.4,1.2,2.6,2.6,2.6c0.5,0,1-0.1,1.3-0.4c1,0.9,2.3,1.4,3.7,1.4
		c1.4,0,2.6-0.5,3.7-1.4c0.4,0.2,0.9,0.4,1.3,0.4c1.4,0,2.6-1.2,2.6-2.6C23.6,18.8,22.7,17.7,21.6,17.5z M16,11.6
		c0.8,0,1.4,0.6,1.4,1.4c0,0.8-0.6,1.4-1.4,1.4s-1.4-0.6-1.4-1.4C14.6,12.2,15.2,11.6,16,11.6z M11,21.4c-0.8,0-1.4-0.6-1.4-1.4
		s0.6-1.4,1.4-1.4s1.4,0.6,1.4,1.4S11.8,21.4,11,21.4z M13.2,21.4c0.2-0.4,0.4-0.9,0.4-1.4c0-1.2-0.8-2.2-2-2.5
		c0.2-1.3,0.9-2.5,2.1-3.3c0.4,0.8,1.3,1.4,2.3,1.4c1,0,1.8-0.6,2.3-1.4c1.2,0.7,1.9,1.9,2.1,3.3c-1.1,0.3-2,1.3-2,2.5
		c0,0.5,0.2,1,0.4,1.4c-0.8,0.7-1.8,1-2.8,1C15,22.4,14,22,13.2,21.4z M21,21.4c-0.8,0-1.4-0.6-1.4-1.4s0.6-1.4,1.4-1.4
		s1.4,0.6,1.4,1.4S21.8,21.4,21,21.4z"/>
</g>
<path class="st0" d="M16.4,6.2H6.8c-0.2,0-0.3-0.1-0.3-0.3V5.3C6.5,5.1,6.6,5,6.8,5h9.6c0.2,0,0.3,0.1,0.3,0.3v0.6
	C16.7,6.1,16.5,6.2,16.4,6.2z"/>
<path class="st0" d="M12.7,10H6.8c-0.2,0-0.3-0.1-0.3-0.3V9.1c0-0.2,0.1-0.3,0.3-0.3h5.9C12.9,8.8,13,9,13,9.1v0.6
	C13,9.9,12.9,10,12.7,10z"/>
</svg>
