<?xml version="1.0" standalone="no"?><!DOCTYPE svg PUBLIC "-//W3C//DTD SVG 1.1//EN" "http://www.w3.org/Graphics/SVG/1.1/DTD/svg11.dtd"><svg t="1715569800291" class="icon" viewBox="0 0 1024 1024" version="1.1" xmlns="http://www.w3.org/2000/svg" p-id="5189" xmlns:xlink="http://www.w3.org/1999/xlink" width="200" height="200"><path d="M996.80256 484.2496h-445.9008V33.2288c0-8.448-6.912-15.36-15.36-15.36h-35.84c-8.448 0-15.36 6.912-15.36 15.36v451.0208H33.31584c-8.448 0-15.36 6.912-15.36 15.36v35.84c0 8.448 6.912 15.36 15.35488 15.36h451.02592v445.9008c0 8.448 6.912 15.36 15.36 15.36h35.84c8.448 0 15.36-6.912 15.36-15.35488V550.8096h445.9008c8.448 0 15.36-6.912 15.36-15.36v-35.84c0.00512-8.448-6.90688-15.36-15.35488-15.36z" fill="#515050" p-id="5190"></path></svg>