<svg xmlns="http://www.w3.org/2000/svg" id="图层_1" x="0" y="0" version="1.1" viewBox="0 0 200 200" xml:space="preserve">
    <style>
        .st0 {
            fill: #505050
        }
    </style>
    <path
        d="M193.1 15.4l-73.4 73.4c-1.2 1.2-3.1 1.2-4.2 0l-4.2-4.2c-1.2-1.2-1.2-3.1 0-4.2L184.7 7c1.2-1.2 3.1-1.2 4.2 0l4.2 4.2c1.2 1.1 1.2 3 0 4.2z"
        class="st0" />
    <path
        d="M190.5 102h-6c-1.7 0-3 1.3-3 3v50.5c0 6.6-5.4 12-12 12h-140c-6.6 0-12-5.4-12-12V43.8c0-6.6 5.4-12 12-12h71.4c1.7 0 3-1.3 3-3v-6c0-1.7-1.3-3-3-3H29.5c-13.2 0-24 10.8-24 24v111.7c0 13.2 10.8 24 24 24h140c13.2 0 24-10.8 24-24V105c0-1.7-1.3-3-3-3z"
        class="st0" />
</svg>
