<svg width="200" height="200" viewBox="0 0 200 200" fill="none" xmlns="http://www.w3.org/2000/svg">
<path d="M194.375 187.5L188.125 143.75C188.125 140.313 185.313 137.5 181.875 137.5C181.25 137.5 179.687 137.5 179.062 138.125C178.437 138.125 177.812 138.75 176.875 139.375L165.625 150.625L122.812 107.5C120.625 105.313 117.188 105.313 115.313 107.5L107.812 115C105.625 117.187 105.625 120.625 107.812 122.5L151.562 166.25L140.313 177.5C139.688 178.125 139.062 178.75 139.062 179.688C138.437 180.313 138.437 181.875 138.437 182.5C138.437 185.938 141.25 188.75 144.687 188.75L187.5 194.375H188.125C190.312 194.375 192.187 193.125 193.125 191.562C193.75 190.312 194.688 189.688 194.375 187.5C194.688 188.125 194.688 188.125 194.375 187.5ZM84.6875 107.5C82.5 105.313 79.0625 105.313 77.1875 107.5L34.0625 150.625L22.8125 139.375C22.1875 138.75 21.5625 138.125 20.625 138.125C20 138.125 19.375 137.5 17.8125 137.5C14.375 137.5 11.5625 140.313 11.5625 143.75L5.3125 187.5C5.3125 188.75 5.9375 190.312 6.5625 190.937C8.125 192.5 9.6875 193.75 11.875 193.75H12.5L56.25 188.125C59.6875 188.125 62.5 185.313 62.5 181.875C62.5 181.25 62.5 179.688 61.875 179.062C61.875 178.437 61.25 177.812 60.625 176.875L49.375 165.625L92.5 122.5C94.6875 120.313 94.6875 116.875 92.5 115C92.5 115.313 84.6875 107.5 84.6875 107.5ZM194.375 11.875C194.375 10.625 193.75 9.0625 193.125 8.4375C191.875 7.1875 190.312 5.625 188.125 5.625H187.5L144.375 10.9375C140.937 10.9375 138.125 13.75 138.125 17.1875C138.125 17.8125 138.125 19.375 138.75 20C138.75 20.625 139.375 21.25 140 22.1875L151.25 33.4375L108.438 76.25C106.25 78.4375 106.25 81.875 108.438 83.75L115.937 91.25C118.125 93.4375 121.562 93.4375 123.437 91.25L166.562 48.125L177.813 59.375C178.438 60 179.062 60.625 180.625 60.625C181.25 60.625 181.875 61.25 182.812 61.25C186.25 61.25 189.062 58.4375 189.062 55L194.375 11.875C194.375 12.5 194.375 12.5 194.375 11.875ZM48.4375 34.0625L59.6875 22.8125C60.3125 22.1875 60.9375 21.5625 60.9375 20.625C61.5625 20 61.5625 18.4375 61.5625 17.8125C61.5625 14.375 58.75 11.5625 55.3125 11.5625L12.5 5.625H11.875C9.6875 5.625 8.4375 6.875 6.875 8.4375C6.25 9.6875 5.625 10.3125 5.625 11.875L11.875 55.625C11.875 59.0625 14.6875 61.875 18.125 61.875C18.75 61.875 19.375 61.875 20.9375 61.25C21.5625 61.25 22.1875 60.625 23.125 60L34.375 48.75L77.5 91.875C79.6875 94.0625 83.125 94.0625 85 91.875L92.5 84.375C94.6875 82.1875 94.6875 78.75 92.5 76.875C92.5 76.25 48.4375 34.0625 48.4375 34.0625Z" fill="black"/>
</svg>
