<svg xmlns="http://www.w3.org/2000/svg" xmlns:xlink="http://www.w3.org/1999/xlink" width="200px" height="200px" viewBox="0 0 200 200" version="1.1">
    <!-- Generator: Sketch 51.3 (57544) - http://www.bohemiancoding.com/sketch -->
    <title>第三方登录</title>
    <desc>Created with Sketch.</desc>
    <defs/>
    <g id="第三方登录" stroke="none" stroke-width="1" fill="none" fill-rule="evenodd">
        <g id="第三方登录3" transform="translate(2.000000, 2.000000)" fill="#BDBDBD" fill-rule="nonzero">
            <path d="M176.292736,1.96 C185.971821,1.96 193.844975,9.8735 193.844975,19.59902 L193.844975,176.4 C193.844975,186.12944 185.971821,194.04 176.292736,194.04 L20.2728358,194.04 C10.5957015,194.04 2.72157214,186.12944 2.72157214,176.4 L2.72157214,19.6 C2.72059701,9.8735 10.5957015,1.96 20.2728358,1.96 L176.292736,1.96 Z M176.292736,0 L20.2728358,0 C9.50063682,0 0.770348259,8.77492 0.770348259,19.6 L0.770348259,176.4 C0.770348259,187.2241 9.50063682,196 20.2728358,196 L176.291761,196 C187.06591,196 195.796199,187.2241 195.796199,176.4 L195.796199,19.6 C195.795224,8.7759 187.064935,0 176.292736,0 Z" id="Shape"/>
            <path d="M99.1584478,40.17706 C77.6042985,40.17706 60.1534726,57.72886 60.1534726,79.38 C60.1534726,95.30794 69.6063284,109.02892 83.1839602,115.16372 C88.0595821,117.35892 93.4646965,118.58392 99.1584478,118.58392 C120.712597,118.58392 138.163423,101.0282 138.163423,79.38 C138.161473,57.72984 120.708697,40.17706 99.1584478,40.17706 Z M99.4022289,113.1361 C80.9889552,113.1361 66.0607761,98.12936 66.0607761,79.625 C66.0607761,61.12064 80.9899303,46.11586 99.4022289,46.11586 C117.819403,46.11586 132.739781,61.11868 132.739781,79.62598 C132.743682,98.13818 117.817453,113.1361 99.4022289,113.1361 Z" id="Shape"/>
            <path d="M98.0799602,112.52164 C71.0758408,112.52164 48.4490547,131.61106 42.4198607,157.29 L47.9546667,157.29 C53.860995,134.66768 74.056796,117.99788 98.0789851,117.99788 C122.101174,117.99788 142.2999,134.66768 148.201353,157.29 L153.739085,157.29 C147.710866,131.61106 125.08408,112.52164 98.0799602,112.52164 Z" id="Shape"/>
        </g>
    </g>
</svg>
