<svg width="200" height="200" viewBox="0 0 200 200" fill="none" xmlns="http://www.w3.org/2000/svg">
<path d="M26.4914 97.7228V158.112C26.4914 166.613 33.3868 173.509 41.8882 173.509H158.112C160.134 173.509 162.136 173.11 164.004 172.337C165.872 171.563 167.569 170.429 168.999 168.999C170.429 167.569 171.563 165.872 172.336 164.004C173.11 162.136 173.508 160.134 173.508 158.112V41.8883C173.508 39.8664 173.11 37.8642 172.336 35.9962C171.563 34.1282 170.429 32.4308 168.999 31.0011C167.569 29.5714 165.872 28.4373 164.004 27.6635C162.136 26.8897 160.134 26.4915 158.112 26.4915H102.589C100.894 26.4912 99.268 25.8176 98.0695 24.6189C96.871 23.4202 96.1977 21.7945 96.1977 20.0994C96.1977 18.4043 96.871 16.7787 98.0695 15.58C99.268 14.3812 100.894 13.7077 102.589 13.7074H158.112C165.586 13.7074 172.754 16.6765 178.038 21.9614C183.323 27.2464 186.293 34.4143 186.293 41.8883V158.112C186.293 165.586 183.323 172.754 178.038 178.039C172.754 183.324 165.586 186.293 158.112 186.293H41.8882C34.4142 186.293 27.2462 183.324 21.9613 178.039C16.6763 172.754 13.7073 165.586 13.7073 158.112V97.7228C13.7071 96.8833 13.8724 96.052 14.1935 95.2764C14.5147 94.5007 14.9855 93.796 15.5791 93.2023C16.1727 92.6086 16.8774 92.1377 17.6529 91.8164C18.4285 91.4951 19.2598 91.3298 20.0993 91.3298C20.9388 91.3298 21.7701 91.4951 22.5457 91.8164C23.3213 92.1377 24.026 92.6086 24.6196 93.2023C25.2131 93.796 25.6839 94.5007 26.0051 95.2764C26.3263 96.052 26.4915 96.8833 26.4914 97.7228Z" fill="black"/>
<path d="M19.7559 34.4735L22.7122 34.6333C41.6907 35.6504 59.7414 43.166 73.8338 55.9184C87.9261 68.6707 97.2019 85.8833 100.104 104.666C100.39 106.316 101.313 107.787 102.673 108.764C104.033 109.741 105.722 110.145 107.377 109.89C109.032 109.635 110.52 108.74 111.522 107.399C112.525 106.057 112.96 104.376 112.736 102.717C109.388 81.0347 98.6818 61.1648 82.416 46.4426C66.1502 31.7205 45.3147 23.0424 23.4073 21.8652L20.443 21.7054C18.7488 21.6143 17.0878 22.1999 15.8253 23.3335C14.5629 24.467 13.8025 26.0557 13.7114 27.7499C13.6203 29.4441 14.2059 31.1051 15.3395 32.3676C16.473 33.63 18.0617 34.3904 19.7559 34.4815V34.4735Z" fill="black"/>
<path d="M106.048 102.645L78.7225 87.7113C77.2372 86.9265 75.5027 86.7579 73.8941 87.2421C72.2855 87.7263 70.9321 88.8242 70.1267 90.2984C69.3214 91.7727 69.1287 93.5047 69.5905 95.1199C70.0522 96.735 71.1312 98.1035 72.5941 98.9293L101.87 114.933C104.171 116.191 106.862 116.531 109.404 115.886C111.945 115.242 114.149 113.66 115.573 111.458L133.87 83.1729C134.792 81.7489 135.11 80.017 134.755 78.3582C134.4 76.6995 133.4 75.2497 131.976 74.3279C130.552 73.4061 128.82 73.0878 127.162 73.4429C125.503 73.798 124.053 74.7975 123.131 76.2216L106.048 102.645Z" fill="black"/>
</svg>
