<svg xmlns="http://www.w3.org/2000/svg" xml:space="preserve" viewBox="0 0 200 200">
  <circle cx="17" cy="18.2" r="12"/>
  <circle cx="17" cy="104.3" r="12"/>
  <circle cx="17" cy="185.1" r="12"/>
  <path d="M191.9 12H60c-1 0-1.8.8-1.8 1.8v8.9c0 1 .8 1.8 1.8 1.8h131.8c1 0 1.8-.8 1.8-1.8v-8.9c.2-1-.7-1.8-1.7-1.8zm0 85.4H60c-1 0-1.8.8-1.8 1.8v8.9c0 1 .8 1.8 1.8 1.8h131.8c1 0 1.8-.8 1.8-1.8v-8.9c.2-1-.7-1.8-1.7-1.8zm0 81.4H60c-1 0-1.8.8-1.8 1.8v8.9c0 1 .8 1.8 1.8 1.8h131.8c1 0 1.8-.8 1.8-1.8v-8.9c.2-1-.7-1.8-1.7-1.8z"/>
</svg>
