<svg xmlns="http://www.w3.org/2000/svg" xmlns:xlink="http://www.w3.org/1999/xlink" version="1.1" id="锁定" x="0px" y="0px" viewBox="0 0 200 200" style="enable-background:new 0 0 200 200;" xml:space="preserve">
<style type="text/css">
	.st0{fill:none;stroke:#5581A7;stroke-width:12;stroke-miterlimit:10;}
	.st1{fill:#505050;}
</style>
<path class="st0" d="M100.2,45.4"/>
<path class="st0" d="M194.2,43.8"/>
<path class="st1" d="M180.2,65.5h-17.4c-0.5-35.3-28.3-63.7-62.6-63.7S38.1,30.2,37.6,65.5H20.2c-9.9,0-18,8.1-18,18v97  c0,9.9,8.1,18,18,18h160c9.9,0,18-8.1,18-18v-97C198.2,73.6,190.2,65.5,180.2,65.5z M100.2,13.8c27.6,0,50.1,23.1,50.6,51.7H49.6  C50.1,36.9,72.6,13.8,100.2,13.8z M186.2,180.5c0,3.3-2.7,6-6,6h-160c-3.3,0-6-2.7-6-6v-97c0-3.3,2.7-6,6-6h160c3.3,0,6,2.7,6,6  V180.5z"/>
<g>
	<path class="st1" d="M125.2,161.1c-1.4,0-2.7-0.5-3.8-1.5l-40.7-38.4v34.4c0,3-2.5,5.5-5.5,5.5s-5.5-2.5-5.5-5.5v-47.1   c0-2.2,1.3-4.2,3.3-5c2-0.9,4.4-0.5,6,1l40.7,38.4v-34.4c0-3,2.5-5.5,5.5-5.5s5.5,2.5,5.5,5.5v47.1c0,2.2-1.3,4.2-3.3,5   C126.7,161,125.9,161.1,125.2,161.1z"/>
</g>
</svg>
