<svg version="1.1" id="图层_1" xmlns="http://www.w3.org/2000/svg" x="0" y="0" viewBox="0 0 12 16" xml:space="preserve">
  <style>
    .st0{fill-rule:evenodd;clip-rule:evenodd;fill:#505050}
  </style>
  <g id="确定稿">
    <g id="富客户端-重置密码" transform="translate(-495 -130)">
      <g id="编组-3备份-3" transform="translate(434 10)">
        <g id="手机或邮箱" transform="translate(61 115)">
          <g id="手机" transform="translate(0 5)">
            <path id="形状结合" class="st0" d="M11 0c.6 0 1 .4 1 1v14c0 .6-.4 1-1 1H1c-.6 0-1-.4-1-1V1c0-.6.4-1 1-1h10zm-1 1H2c-.6 0-1 .4-1 1v12c0 .6.4 1 1 1h8c.6 0 1-.4 1-1V2c0-.6-.4-1-1-1z"/>
            <circle id="椭圆形" class="st0" cx="6" cy="13" r="1"/>
            <path id="矩形" class="st0" d="M1 10h10v1H1z"/>
          </g>
        </g>
      </g>
    </g>
  </g>
</svg>
