<svg width="200" height="200" viewBox="0 0 200 200" fill="none" xmlns="http://www.w3.org/2000/svg">
<path d="M166.927 135.714H140.215C137.733 135.714 135.714 137.317 135.714 139.286C135.714 141.255 137.733 142.857 140.215 142.857H166.927C169.409 142.857 171.428 141.255 171.428 139.286C171.428 137.317 169.409 135.714 166.927 135.714Z" fill="#3D3D3D"/>
<path d="M192.061 143.57L180.156 118.513C178.916 115.905 176.469 114.286 173.768 114.286H133.377C130.676 114.286 128.227 115.906 126.988 118.514L115.082 143.569C114.014 145.818 114.038 148.464 115.05 150.659L114.852 150.873L148.28 190.338C148.415 190.498 148.557 190.651 148.703 190.798C150.082 192.176 151.828 192.857 153.569 192.857C155.511 192.857 157.447 192.01 158.863 190.339L190.963 152.441C192.999 150.037 193.44 146.473 192.061 143.57ZM183.201 146.791L153.572 181.771L123.943 146.79L134.622 124.315H172.521L183.201 146.791Z" fill="#3D3D3D"/>
<path d="M84.3015 185.714H36.3302C24.175 185.714 14.2861 176.323 14.2861 164.78V28.0768C14.2861 16.5337 24.175 7.14282 36.3302 7.14282H156.528C168.683 7.14282 178.572 16.5337 178.572 28.0768V82.1808C178.572 85.3284 175.885 87.8799 172.571 87.8799C169.256 87.8799 166.569 85.3284 166.569 82.1808V28.0768C166.569 22.8186 162.064 18.541 156.528 18.541H36.3302C30.7932 18.541 26.2888 22.8189 26.2888 28.0768V164.78C26.2888 170.038 30.7935 174.316 36.3302 174.316H84.3015C87.6159 174.316 90.3028 176.868 90.3028 180.015C90.3028 183.163 87.6157 185.714 84.3015 185.714Z" fill="#3D3D3D"/>
<path d="M50 42.8572H142.857V55.7143H50V42.8572ZM50 94.2858H112.147V107.143H50V94.2858Z" fill="#3D3D3D"/>
</svg>
