<svg width="200" height="200" viewBox="0 0 200 200" fill="none" xmlns="http://www.w3.org/2000/svg">
<path d="M58.2002 73H112.3C113.626 73 114.898 72.4732 115.836 71.5355C116.773 70.5979 117.3 69.3261 117.3 68C117.3 66.6739 116.773 65.4021 115.836 64.4645C114.898 63.5268 113.626 63 112.3 63H58.2002C56.8741 63 55.6023 63.5268 54.6647 64.4645C53.727 65.4021 53.2002 66.6739 53.2002 68C53.2002 69.3261 53.727 70.5979 54.6647 71.5355C55.6023 72.4732 56.8741 73 58.2002 73ZM58.2002 108H138.2C139.526 108 140.798 107.473 141.736 106.536C142.673 105.598 143.2 104.326 143.2 103C143.2 101.674 142.673 100.402 141.736 99.4645C140.798 98.5268 139.526 98 138.2 98H58.2002C56.8741 98 55.6023 98.5268 54.6647 99.4645C53.727 100.402 53.2002 101.674 53.2002 103C53.2002 104.326 53.727 105.598 54.6647 106.536C55.6023 107.473 56.8741 108 58.2002 108ZM66.3002 15H130C131.326 15 132.598 14.4732 133.536 13.5355C134.473 12.5979 135 11.3261 135 10C135 8.67392 134.473 7.40215 133.536 6.46447C132.598 5.52678 131.326 5 130 5H66.3002C64.9741 5 63.7023 5.52678 62.7647 6.46447C61.827 7.40215 61.3002 8.67392 61.3002 10C61.3002 11.3261 61.827 12.5979 62.7647 13.5355C63.7023 14.4732 64.9741 15 66.3002 15Z" fill="#3D3D3D"/>
<path d="M102.3 185H31.2998V18H47.2998V28C47.2998 29.3261 47.8266 30.5978 48.7643 31.5355C49.702 32.4732 50.9737 33 52.2998 33H144.2C145.526 33 146.798 32.4732 147.735 31.5355C148.673 30.5978 149.2 29.3261 149.2 28V18H165.3V113C165.3 114.326 165.827 115.598 166.764 116.536C167.702 117.473 168.974 118 170.3 118C171.626 118 172.898 117.473 173.835 116.536C174.773 115.598 175.3 114.326 175.3 113V13C175.301 12.3173 175.162 11.6417 174.893 11.0146C174.623 10.3876 174.227 9.82244 173.731 9.354C173.234 8.88556 172.647 8.52376 172.005 8.29089C171.364 8.05802 170.681 7.95902 170 7.99998H144.2C143.543 7.99998 142.893 8.1293 142.286 8.38058C141.68 8.63185 141.129 9.00015 140.664 9.46444C140.2 9.92873 139.832 10.4799 139.58 11.0866C139.329 11.6932 139.2 12.3434 139.2 13V23H57.2998V13C57.2998 11.6739 56.773 10.4021 55.8353 9.46444C54.8977 8.52676 53.6259 7.99998 52.2998 7.99998H26.2998C24.9737 7.99998 23.702 8.52676 22.7643 9.46444C21.8266 10.4021 21.2998 11.6739 21.2998 13V190C21.2998 191.326 21.8266 192.598 22.7643 193.536C23.702 194.473 24.9737 195 26.2998 195H102.3C103.626 195 104.898 194.473 105.835 193.536C106.773 192.598 107.3 191.326 107.3 190C107.3 188.674 106.773 187.402 105.835 186.464C104.898 185.527 103.626 185 102.3 185Z" fill="#3D3D3D"/>
<path d="M175.1 127.5L163.1 117.5C161.894 116.77 160.509 116.389 159.1 116.4C157.53 116.007 155.88 116.082 154.352 116.615C152.824 117.148 151.485 118.116 150.5 119.4L113.8 162.1C113.577 162.384 113.376 162.685 113.2 163C111.389 170.185 110.881 177.636 111.7 185C111.726 186.203 112.222 187.347 113.082 188.188C113.942 189.029 115.097 189.5 116.3 189.5C134.8 187.4 137.5 185.3 138.6 183.6L174.8 141.4C175.607 140.817 176.282 140.07 176.782 139.209C177.281 138.347 177.594 137.39 177.7 136.4C178.017 134.817 177.946 133.18 177.494 131.63C177.041 130.081 176.22 128.663 175.1 127.5ZM157.4 125.3H158.4L169 134.7L166.7 137.3L155.1 127.8L157.4 125.3ZM139 170L127.7 160L149.1 135.3L160.7 145.3L139 170ZM120.8 180V167.4L121.4 166.7L132.8 176.7L131.8 177.9C128.183 178.842 124.509 179.543 120.8 180Z" fill="#3D3D3D"/>
</svg>
