<svg width="200" height="200" viewBox="0 0 200 200" fill="none" xmlns="http://www.w3.org/2000/svg">
<path d="M166.363 180.698H32.2793C14.8982 180.698 0 167.042 0 148.419V51.581C0 34.1998 13.6566 19.3016 32.2793 19.3016H167.604C184.985 19.3016 199.884 32.9583 199.884 51.581V149.661C198.642 167.042 184.985 180.698 166.363 180.698ZM32.2793 31.7168C21.1057 31.7168 12.4151 40.4074 12.4151 51.581V149.661C12.4151 160.834 21.1057 169.525 32.2793 169.525H167.604C178.778 169.525 187.468 160.834 187.468 149.661V51.581C187.468 40.4074 178.778 31.7168 167.604 31.7168H32.2793Z" fill="#3D3D3D"/>
<path d="M70.7664 112.415C55.8683 112.415 43.4531 100 43.4531 85.1019C43.4531 70.2037 55.8683 57.7886 70.7664 57.7886C85.6646 57.7886 98.0797 70.2037 98.0797 85.1019C98.0797 101.242 85.6646 112.415 70.7664 112.415ZM70.7664 70.2037C62.0758 70.2037 54.6267 77.6528 54.6267 85.1019C54.6267 92.5509 62.0758 100 70.7664 100C79.457 100 85.6646 93.7925 85.6646 85.1019C85.6646 76.4113 78.2155 70.2037 70.7664 70.2037Z" fill="#3D3D3D"/>
<path d="M111.736 144.694C109.253 144.694 106.77 142.211 105.528 139.728C100.562 116.14 81.9394 112.415 70.7658 112.415C59.5922 112.415 40.9695 116.14 37.2449 139.728C36.0034 143.453 33.5204 144.694 29.7958 144.694C26.0713 143.453 23.5883 140.97 24.8298 137.245C29.7958 114.898 47.177 100 70.7658 100C94.3545 100 112.977 113.657 116.702 137.245C117.943 140.97 115.46 143.453 111.736 144.694Z" fill="#3D3D3D"/>
<path d="M167.604 87.5848H130.359C126.634 87.5848 124.151 85.1018 124.151 81.3772C124.151 77.6527 126.634 75.1697 130.359 75.1697H167.604C171.329 75.1697 173.812 77.6527 173.812 81.3772C173.812 85.1018 171.329 87.5848 167.604 87.5848Z" fill="#3D3D3D"/>
<path d="M142.774 117.381H130.359C126.634 117.381 124.151 114.898 124.151 111.174C124.151 107.449 126.634 104.966 130.359 104.966H142.774C146.499 104.966 148.982 107.449 148.982 111.174C148.982 114.898 146.499 117.381 142.774 117.381Z" fill="#3D3D3D"/>
</svg>
