<svg width="200" height="200" viewBox="0 0 200 200" fill="none" xmlns="http://www.w3.org/2000/svg">
<path d="M35.6087 33.5249C35.0562 33.5249 34.5263 33.7444 34.1356 34.1351C33.7449 34.5258 33.5254 35.0557 33.5254 35.6082V54.5416C33.5254 56.1992 32.8669 57.7889 31.6948 58.961C30.5227 60.1331 28.933 60.7916 27.2754 60.7916C25.6178 60.7916 24.0281 60.1331 22.856 58.961C21.6839 57.7889 21.0254 56.1992 21.0254 54.5416V35.6082C21.0254 27.5499 27.5504 21.0249 35.6087 21.0249H63.6337C65.2913 21.0249 66.881 21.6834 68.0531 22.8555C69.2252 24.0276 69.8837 25.6173 69.8837 27.2749C69.8837 28.9325 69.2252 30.5222 68.0531 31.6943C66.881 32.8664 65.2913 33.5249 63.6337 33.5249H35.6087ZM130.109 27.2749C130.109 25.6173 130.767 24.0276 131.939 22.8555C133.111 21.6834 134.701 21.0249 136.359 21.0249H164.392C172.45 21.0249 178.975 27.5499 178.975 35.6082V54.5416C178.975 56.1992 178.317 57.7889 177.145 58.961C175.973 60.1331 174.383 60.7916 172.725 60.7916C171.068 60.7916 169.478 60.1331 168.306 58.961C167.134 57.7889 166.475 56.1992 166.475 54.5416V35.6082C166.475 35.0557 166.256 34.5258 165.865 34.1351C165.474 33.7444 164.945 33.5249 164.392 33.5249H136.367C134.709 33.5249 133.12 32.8664 131.948 31.6943C130.776 30.5222 130.117 28.9325 130.117 27.2749H130.109ZM27.2837 139.208C28.9413 139.208 30.531 139.867 31.7031 141.039C32.8752 142.211 33.5337 143.801 33.5337 145.458V164.392C33.5337 165.542 34.4671 166.475 35.6171 166.475H63.6421C65.2997 166.475 66.8894 167.133 68.0615 168.305C69.2336 169.478 69.8921 171.067 69.8921 172.725C69.8921 174.383 69.2336 175.972 68.0615 177.144C66.8894 178.316 65.2997 178.975 63.6421 178.975H35.6087C31.741 178.975 28.0317 177.438 25.2968 174.704C22.5618 171.969 21.0254 168.259 21.0254 164.392V145.458C21.0254 143.801 21.6839 142.211 22.856 141.039C24.0281 139.867 25.6178 139.208 27.2754 139.208H27.2837ZM172.734 139.208C174.391 139.208 175.981 139.867 177.153 141.039C178.325 142.211 178.984 143.801 178.984 145.458V164.392C178.984 168.259 177.447 171.969 174.712 174.704C171.977 177.438 168.268 178.975 164.4 178.975H136.375C134.718 178.975 133.128 178.316 131.956 177.144C130.784 175.972 130.125 174.383 130.125 172.725C130.125 171.067 130.784 169.478 131.956 168.305C133.128 167.133 134.718 166.475 136.375 166.475H164.4C164.953 166.475 165.483 166.255 165.874 165.865C166.264 165.474 166.484 164.944 166.484 164.392V145.458C166.484 143.801 167.142 142.211 168.314 141.039C169.486 139.867 171.076 139.208 172.734 139.208ZM159.609 105.442L171.342 126.283H157.209L147.525 107.775H141.45V126.283H128.8V73.7166H148.092C159.325 73.7166 168.65 77.5332 168.65 90.2499C168.65 97.9499 165.05 102.9 159.609 105.442ZM147.109 83.6749H141.45V97.8082H147.1C153.109 97.8082 156.292 95.1916 156.292 90.2499C156.292 85.2999 153.109 83.6749 147.1 83.6749H147.109ZM75.4587 99.7166C75.4587 116.958 65.7087 127.275 51.3671 127.275C37.0254 127.275 27.2754 116.958 27.2754 99.7166C27.2754 82.4749 37.0254 72.7249 51.3587 72.7249C65.7087 72.7249 75.4587 82.5499 75.4587 99.7249V99.7166ZM51.3671 83.5332C44.4421 83.5332 40.2004 89.5416 40.2004 99.7166C40.2004 109.967 44.4421 116.392 51.3671 116.392C58.2837 116.392 62.6004 109.958 62.6004 99.7249C62.6004 89.5416 58.2921 83.5332 51.3671 83.5332ZM93.9671 99.8582C93.9671 110.317 98.7754 116.392 106.192 116.392C110.359 116.392 113.759 114.275 116.225 111.583L122.867 119.5C118.417 124.658 112.55 127.275 105.7 127.275C92.3421 127.275 81.0337 118.092 81.0337 100.275C81.0337 82.7582 92.7671 72.7249 106.117 72.7249C112.975 72.7249 118.492 75.9082 122.092 79.5832L115.45 87.6332C112.834 85.2332 110.084 83.5332 106.334 83.5332C99.5504 83.5332 93.9671 89.6166 93.9671 99.8582Z" fill="#3D3D3D"/>
</svg>
