<svg width="200" height="200" viewBox="0 0 200 200" fill="none" xmlns="http://www.w3.org/2000/svg">
<path d="M57.1429 120.25V106.75H42.8571C40.9627 106.75 39.1459 106.039 37.8064 104.773C36.4668 103.507 35.7143 101.79 35.7143 100C35.7143 98.2098 36.4668 96.4929 37.8064 95.227C39.1459 93.9612 40.9627 93.25 42.8571 93.25H54.1857L37.8 77.779C37.1359 77.1514 36.6091 76.4064 36.2497 75.5864C35.8903 74.7664 35.7053 73.8876 35.7053 73C35.7053 71.2075 36.4588 69.4885 37.8 68.221C39.1412 66.9535 40.9603 66.2415 42.8571 66.2415C44.7539 66.2415 46.573 66.9535 47.9143 68.221L64.2857 83.7055L80.6571 68.221C81.9984 66.9535 83.8175 66.2415 85.7143 66.2415C87.6111 66.2415 89.4302 66.9535 90.7714 68.221C92.1127 69.4885 92.8662 71.2075 92.8662 73C92.8662 74.7925 92.1127 76.5115 90.7714 77.779L74.3857 93.25H85.7143C87.6087 93.25 89.4255 93.9612 90.765 95.227C92.1046 96.4929 92.8571 98.2098 92.8571 100C92.8571 101.79 92.1046 103.507 90.765 104.773C89.4255 106.039 87.6087 106.75 85.7143 106.75H71.4286V120.25H85.7143C87.6085 120.25 89.425 120.962 90.7643 122.227C92.1036 123.493 92.856 125.21 92.856 127C92.856 128.79 92.1036 130.507 90.7643 131.773C89.425 133.038 87.6085 133.75 85.7143 133.75H71.4286V140.5C71.4287 141.387 71.2441 142.264 70.8852 143.083C70.5263 143.903 70.0002 144.647 69.3369 145.274C68.6736 145.901 67.8861 146.398 67.0194 146.737C66.1528 147.076 65.2238 147.251 64.2857 147.251C63.3476 147.251 62.4187 147.076 61.552 146.737C60.6853 146.398 59.8978 145.901 59.2345 145.274C58.5712 144.647 58.0451 143.903 57.6862 143.083C57.3273 142.264 57.1427 141.387 57.1429 140.5V133.75H42.8571C40.9629 133.75 39.1464 133.038 37.8071 131.773C36.4679 130.507 35.7155 128.79 35.7155 127C35.7155 125.21 36.4679 123.493 37.8071 122.227C39.1464 120.962 40.9629 120.25 42.8571 120.25H57.1429ZM142.857 19C142.857 22.5804 144.362 26.0142 147.041 28.5459C149.72 31.0777 153.354 32.5 157.143 32.5C160.932 32.5 164.565 31.0777 167.244 28.5459C169.923 26.0142 171.429 22.5804 171.429 19H185.714C189.503 19 193.137 20.4223 195.816 22.9541C198.495 25.4858 200 28.9196 200 32.5V167.5C200 171.08 198.495 174.514 195.816 177.046C193.137 179.578 189.503 181 185.714 181H14.2857C10.4969 181 6.86328 179.578 4.18419 177.046C1.5051 174.514 0 171.08 0 167.5L0 32.5C0 28.9196 1.5051 25.4858 4.18419 22.9541C6.86328 20.4223 10.4969 19 14.2857 19H28.5714C28.5714 20.7728 28.9409 22.5283 29.6589 24.1662C30.3768 25.8041 31.4291 27.2924 32.7556 28.5459C34.0822 29.7995 35.657 30.7939 37.3902 31.4724C39.1235 32.1508 40.9811 32.5 42.8571 32.5C44.7332 32.5 46.5908 32.1508 48.324 31.4724C50.0573 30.7939 51.6321 29.7995 52.9587 28.5459C54.2852 27.2924 55.3375 25.8041 56.0554 24.1662C56.7733 22.5283 57.1429 20.7728 57.1429 19H85.7143C85.7143 20.7728 86.0838 22.5283 86.8017 24.1662C87.5196 25.8041 88.5719 27.2924 89.8985 28.5459C91.225 29.7995 92.7999 30.7939 94.5331 31.4724C96.2663 32.1508 98.124 32.5 100 32.5C101.876 32.5 103.734 32.1508 105.467 31.4724C107.2 30.7939 108.775 29.7995 110.102 28.5459C111.428 27.2924 112.48 25.8041 113.198 24.1662C113.916 22.5283 114.286 20.7728 114.286 19H142.857ZM124.743 32.5C122.235 36.6042 118.628 40.0123 114.285 42.3818C109.942 44.7514 105.015 45.9988 100 45.9988C94.9849 45.9988 90.0582 44.7514 85.7149 42.3818C81.3717 40.0123 77.7649 36.6042 75.2571 32.5H67.6C65.0922 36.6042 61.4855 40.0123 57.1422 42.3818C52.799 44.7514 47.8722 45.9988 42.8571 45.9988C37.8421 45.9988 32.9153 44.7514 28.5721 42.3818C24.2288 40.0123 20.622 36.6042 18.1143 32.5H14.2857V167.5H185.714V32.5H181.886C179.378 36.6042 175.771 40.0123 171.428 42.3818C167.085 44.7514 162.158 45.9988 157.143 45.9988C152.128 45.9988 147.201 44.7514 142.858 42.3818C138.515 40.0123 134.908 36.6042 132.4 32.5H124.743ZM128.571 93.25H164.286C165.224 93.25 166.153 93.4246 167.019 93.7638C167.886 94.103 168.673 94.6002 169.336 95.227C170 95.8538 170.526 96.5979 170.885 97.4169C171.244 98.2358 171.429 99.1136 171.429 100C171.429 100.886 171.244 101.764 170.885 102.583C170.526 103.402 170 104.146 169.336 104.773C168.673 105.4 167.886 105.897 167.019 106.236C166.153 106.575 165.224 106.75 164.286 106.75H128.571C126.677 106.75 124.86 106.039 123.521 104.773C122.181 103.507 121.429 101.79 121.429 100C121.429 98.2098 122.181 96.4929 123.521 95.227C124.86 93.9612 126.677 93.25 128.571 93.25ZM128.571 120.25H150C150.938 120.25 151.867 120.424 152.734 120.763C153.601 121.103 154.388 121.6 155.052 122.227C155.715 122.853 156.241 123.598 156.6 124.417C156.959 125.236 157.144 126.113 157.144 127C157.144 127.887 156.959 128.764 156.6 129.583C156.241 130.402 155.715 131.147 155.052 131.773C154.388 132.4 153.601 132.897 152.734 133.237C151.867 133.576 150.938 133.75 150 133.75H128.571C126.677 133.75 124.861 133.038 123.521 131.773C122.182 130.507 121.43 128.79 121.43 127C121.43 125.21 122.182 123.493 123.521 122.227C124.861 120.962 126.677 120.25 128.571 120.25Z" fill="#3D3D3D"/>
</svg>
