<svg class="icon" width="200px" height="200.00px" viewBox="0 0 1024 1024" version="1.1"
    xmlns="http://www.w3.org/2000/svg">
    <path
        d="M942.42304 619.81696c13.19424 13.99808 13.19424 36.68992 0 50.688l-207.27296 220.07808c-6.36928 6.77376-15.0272 10.56768-24.04864 10.53696-9.01632-0.03072-17.65376-3.88608-23.98208-10.7008l-103.94624-111.85152c-13.11232-14.11072-12.9536-36.82816 0.34816-50.73408 13.312-13.90592 34.72384-13.74208 47.83616 0.37376l80.0512 86.13376 183.1424-194.52416c6.34368-6.74816 14.9504-10.53696 23.936-10.53696 8.98048 0 17.59744 3.7888 23.936 10.53696zM645.0432 440.32h-530.432l-6.15936 0.41984c-22.71744 3.4816-37.6064 20.18304-35.65056 38.66112 1.96096 18.4832 20.11136 32.63488 41.85088 32.59904h530.432l6.15936-0.41984c22.71744-3.4816 37.6064-20.18304 35.6096-38.66112-1.96608-18.4832-20.10112-32.61952-41.80992-32.59904zM471.0912 757.76H114.944l-6.0416 0.34816c-23.04 3.48672-38.02624 20.22912-36.05504 38.71744 1.9712 18.4832 20.24448 32.65024 42.1376 32.6144h356.02432l6.24128-0.41984c22.79424-3.6608 37.53472-20.26496 35.56352-38.60992-1.96096-18.3552-19.98336-32.4608-41.68192-32.6144L471.0912 757.76zM828.928 122.88H115.01568l-6.2208 0.41984c-22.93248 3.4816-37.95968 20.18304-35.98336 38.66112 1.97632 18.4832 20.29568 32.63488 42.24 32.59904H828.9792l6.21568-0.41984c22.9376-3.4816 37.9648-20.18304 35.98848-38.66112-1.98656-18.49344-20.32128-32.64-42.24512-32.59904z"
        fill="#000000" />
</svg>