<svg xmlns="http://www.w3.org/2000/svg" xmlns:xlink="http://www.w3.org/1999/xlink" version="1.1" id="图层_1" x="0px" y="0px" viewBox="0 0 16 16" style="enable-background:new 0 0 16 16;" xml:space="preserve">
<title>-1_画板 1 副本 9</title>
<g transform="translate(625.000000, 212.000000)">
	<g transform="translate(10.000000, 41.000000)">
		<path id="形状" d="M-622.7-249.3L-622.7-249.3v11.1h-11.1v-11.1H-622.7 M-622.7-250.5h-11.1c-0.7,0-1.2,0.5-1.2,1.2v11.1    c0,0.7,0.5,1.2,1.2,1.2h11.1c0.7,0,1.2-0.5,1.2-1.2v-11.1C-621.5-250-622-250.5-622.7-250.5z"/>
		<path id="路径" d="M-619-242.1h-0.9v-9.5c0-0.3-0.2-0.5-0.5-0.5h-9.5v-0.9h9.5c0.8,0,1.4,0.6,1.4,1.4V-242.1z"/>
	</g>
</g>
</svg>