<?xml version="1.0" encoding="utf-8"?>
<!-- Generator: Adobe Illustrator 22.0.0, SVG Export Plug-In . SVG Version: 6.00 Build 0)  -->
<svg version="1.1" id="图层_1" xmlns="http://www.w3.org/2000/svg" xmlns:xlink="http://www.w3.org/1999/xlink" x="0px" y="0px"
	 viewBox="0 0 200 200" enable-background="new 0 0 200 200" xml:space="preserve">
<path fill="#505050" d="M177.665,80.692h-3.331V55.047c0-9.925-8.075-18-18-18H95.01c-1.425,0-4.04-1.287-4.909-2.415L75.817,16.095
	c-3.166-4.108-9.228-7.091-14.415-7.091H28.834c-13.233,0-24,10.766-24,23.957L3.836,170.779
	c-1.503,10.339,6.409,20.554,17.833,20.554h111.427c6.523,0,12.535-3.529,15.715-9.223l44.568-74.641
	C200.081,95.471,191.407,80.692,177.665,80.692z M28.834,21.004h32.568c1.425,0,4.04,1.287,4.909,2.415l14.283,18.537
	c3.166,4.108,9.228,7.091,14.415,7.091h61.324c3.309,0,6,2.691,6,6v25.646H66.237c-6.523,0-12.535,3.529-15.715,9.223l-34.518,57.81
	l0.831-114.721C16.834,26.388,22.218,21.004,28.834,21.004z M182.966,101.504l-44.457,74.454l-0.089,0.149l-0.085,0.152
	c-1.059,1.896-3.066,3.074-5.238,3.074H21.669c-3.101,0-4.652-2.072-5.175-2.963c-0.516-0.878-1.546-3.189-0.126-5.848
	l44.457-74.454l0.089-0.149l0.085-0.152c1.059-1.896,3.066-3.074,5.238-3.074h111.427c3.101,0,4.652,2.072,5.175,2.963
	C183.355,96.534,184.385,98.844,182.966,101.504z"/>
</svg>
