<svg xmlns="http://www.w3.org/2000/svg" xml:space="preserve" viewBox="0 0 200 200">
  <path d="M177.7 98.1V24.7c0-11.9-9.6-21.7-21.4-21.7H23.6C11.8 3 2.2 12.7 2.2 24.7v138.5c0 11.9 9.6 21.7 21.4 21.7h75.8c3.3 7.7 11 13.2 19.9 13.2H176c11.9 0 21.6-9.7 21.6-21.6v-56.7c0-11.5-8.8-20.9-19.9-21.7zM13.3 24.7c0-5.7 4.6-10.4 10.2-10.4h132.7c5.6 0 10.2 4.6 10.2 10.4V53H13.3V24.7zm84.4 94.9v53.8H23.6c-5.6 0-10.2-4.6-10.2-10.4V65.8h153.2V98h-47.2c-12 0-21.7 9.7-21.7 21.6zm88.7 56.7c0 5.7-4.7 10.4-10.4 10.4h-56.7c-5.7 0-10.4-4.7-10.4-10.4v-56.7c0-5.7 4.7-10.4 10.4-10.4H176c5.7 0 10.4 4.7 10.4 10.4v56.7z"/>
</svg>
