<svg xmlns="http://www.w3.org/2000/svg" class="icon" width="200px" height="200.00px" viewBox="0 0 1024 1024" version="1.1">
<path d="M830.8992 15.36H130.97984C70.5792 15.36 21.44256 65.1264 21.44256 126.30016v708.86912c0 61.17376 49.14176 110.94016 109.53728 110.94016h311.29088v-57.8816H130.97984c-28.88704 0-52.38784-23.80288-52.38784-53.05856V337.05984h804.69504v126.28992h57.14944v-337.0496C940.43648 65.1264 891.29984 15.36 830.8992 15.36zM78.592 271.07328V126.30016c0-29.25568 23.5008-53.05856 52.38784-53.05856h699.91936c28.88704 0 52.38784 23.80288 52.38784 53.05856v144.77312H78.592z" fill="#514F50"/>
<path d="M963.47648 612.07552h-285.40928a15.36 15.36 0 0 0-15.36 15.36v35.84a15.36 15.36 0 0 0 15.36 15.36h211.53792l-277.22752 277.22752a15.36 15.36 0 0 0 0 21.72416l25.344 25.344a15.36 15.36 0 0 0 21.72416 0l278.43584-278.43584v208.82944a15.36 15.36 0 0 0 15.36 15.36h35.84a15.36 15.36 0 0 0 15.36-15.36v-280.28928a40.97024 40.97024 0 0 0-40.96512-40.96z" fill="#505050"/>
</svg>
