<svg width="20" height="20" viewBox="0 0 20 20" fill="none" xmlns="http://www.w3.org/2000/svg">
<path d="M6.86452 1C6.40751 1.0091 5.97212 1.19674 5.65108 1.52296C5.33004 1.84917 5.14874 2.28818 5.14581 2.74644V3.28202C5.14813 3.43001 5.20659 3.57156 5.30929 3.67788H2.74194C2.27995 3.67788 1.83688 3.86188 1.5102 4.1894C1.18352 4.51692 1 4.96114 1 5.42432V17.2536C1 17.7167 1.18352 18.161 1.5102 18.4885C1.83688 18.816 2.27995 19 2.74194 19H13.1123C13.5742 19 14.0173 18.816 14.344 18.4885C14.6707 18.161 14.8542 17.7167 14.8542 17.2536V16.2885C14.8804 16.3017 14.9076 16.313 14.9355 16.3221H17.2581C17.3338 16.3221 17.4087 16.307 17.4785 16.2776C17.5483 16.2482 17.6116 16.2051 17.6646 16.1509C17.7176 16.0967 17.7593 16.0324 17.7872 15.9619C17.8151 15.8913 17.8286 15.8159 17.8271 15.74C17.8216 15.5893 17.7602 15.4462 17.6549 15.3385C17.5497 15.2309 17.4082 15.1664 17.2581 15.1578H14.9355C14.9076 15.1674 14.8804 15.179 14.8542 15.1926V5.42432C14.8542 4.96114 14.6707 4.51692 14.344 4.1894C14.0173 3.86188 13.5742 3.67788 13.1123 3.67788H6.14361C6.24632 3.57156 6.30478 3.43001 6.3071 3.28202V2.74644C6.30707 2.59404 6.36664 2.44771 6.47304 2.33886C6.57943 2.23002 6.72415 2.16734 6.87613 2.16429C7.03013 2.16429 7.17781 2.10296 7.28671 1.99379C7.3956 1.88461 7.45677 1.73654 7.45677 1.58215C7.45087 1.42764 7.38622 1.28125 7.2761 1.17301C7.16597 1.06476 7.01871 1.00286 6.86452 1ZM9.22194 1C9.06794 1 8.92025 1.06133 8.81136 1.17051C8.70247 1.27968 8.64129 1.42775 8.64129 1.58215C8.64129 1.73654 8.70247 1.88461 8.81136 1.99379C8.92025 2.10296 9.06794 2.16429 9.22194 2.16429H11.5445C11.6985 2.16429 11.8462 2.10296 11.9551 1.99379C12.064 1.88461 12.1252 1.73654 12.1252 1.58215C12.1252 1.42775 12.064 1.27968 11.9551 1.17051C11.8462 1.06133 11.6985 1 11.5445 1H9.22194ZM13.9135 1C13.7596 1 13.6119 1.06133 13.503 1.17051C13.3941 1.27968 13.3329 1.42775 13.3329 1.58215C13.3329 1.73654 13.3941 1.88461 13.503 1.99379C13.6119 2.10296 13.7596 2.16429 13.9135 2.16429H16.2361C16.3901 2.16429 16.5378 2.10296 16.6467 1.99379C16.7556 1.88461 16.8168 1.73654 16.8168 1.58215C16.8168 1.42775 16.7556 1.27968 16.6467 1.17051C16.5378 1.06133 16.3901 1 16.2361 1H13.9135ZM18.129 1.74515C17.9891 1.8089 17.8793 1.92472 17.823 2.06812C17.7666 2.21151 17.7681 2.37126 17.8271 2.51358C17.8445 2.59022 17.8445 2.66981 17.8271 2.74644V4.62096C17.8301 4.77442 17.8922 4.92077 18.0005 5.0293C18.1087 5.13783 18.2547 5.20012 18.4077 5.2031C18.5617 5.2031 18.7094 5.14177 18.8183 5.0326C18.9272 4.92342 18.9884 4.77535 18.9884 4.62096V2.74644C18.993 2.50735 18.9496 2.26977 18.8606 2.04787C18.7995 1.914 18.69 1.80834 18.5543 1.75217C18.4185 1.696 18.2666 1.69349 18.129 1.74515ZM2.74194 4.84217H13.1123C13.2663 4.84217 13.4139 4.90351 13.5228 5.01268C13.6317 5.12185 13.6929 5.26993 13.6929 5.42432V17.2536C13.6929 17.408 13.6317 17.556 13.5228 17.6652C13.4139 17.7744 13.2663 17.8357 13.1123 17.8357H2.74194C2.58794 17.8357 2.44025 17.7744 2.33136 17.6652C2.22247 17.556 2.16129 17.408 2.16129 17.2536V5.42432C2.16129 5.26993 2.22247 5.12185 2.33136 5.01268C2.44025 4.90351 2.58794 4.84217 2.74194 4.84217ZM18.4194 6.39069C18.2654 6.39069 18.1177 6.45202 18.0088 6.56119C17.8999 6.67037 17.8387 6.81844 17.8387 6.97283V9.30142C17.8417 9.45489 17.9038 9.60123 18.0121 9.70977C18.1203 9.8183 18.2663 9.88059 18.4194 9.88357C18.5734 9.88357 18.721 9.82224 18.8299 9.71306C18.9388 9.60389 19 9.45582 19 9.30142V6.97283C19 6.81844 18.9388 6.67037 18.8299 6.56119C18.721 6.45202 18.5734 6.39069 18.4194 6.39069ZM4.19355 7.24062C4.03955 7.24062 3.89186 7.30195 3.78297 7.41113C3.67408 7.5203 3.6129 7.66837 3.6129 7.82277C3.6129 7.97716 3.67408 8.12524 3.78297 8.23441C3.89186 8.34358 4.03955 8.40492 4.19355 8.40492H11.6723C11.8253 8.40193 11.9713 8.33965 12.0795 8.23111C12.1878 8.12258 12.2499 7.97623 12.2529 7.82277C12.2529 7.66837 12.1917 7.5203 12.0828 7.41113C11.9739 7.30195 11.8263 7.24062 11.6723 7.24062H4.19355ZM4.19355 10.7568C4.03955 10.7568 3.89186 10.8181 3.78297 10.9273C3.67408 11.0365 3.6129 11.1845 3.6129 11.3389C3.6129 11.4933 3.67408 11.6414 3.78297 11.7506C3.89186 11.8598 4.03955 11.9211 4.19355 11.9211H11.6723C11.8263 11.9211 11.9739 11.8598 12.0828 11.7506C12.1917 11.6414 12.2529 11.4933 12.2529 11.3389C12.2529 11.1845 12.1917 11.0365 12.0828 10.9273C11.9739 10.8181 11.8263 10.7568 11.6723 10.7568H4.19355ZM18.4194 11.0944C18.2654 11.0944 18.1177 11.1558 18.0088 11.2649C17.8999 11.3741 17.8387 11.5222 17.8387 11.6766V14.0052C17.8417 14.1586 17.9038 14.305 18.0121 14.4135C18.1203 14.5221 18.2663 14.5843 18.4194 14.5873C18.5734 14.5873 18.721 14.526 18.8299 14.4168C18.9388 14.3076 19 14.1596 19 14.0052V11.6766C19 11.5222 18.9388 11.3741 18.8299 11.2649C18.721 11.1558 18.5734 11.0944 18.4194 11.0944ZM4.19355 14.273C4.03955 14.273 3.89186 14.3343 3.78297 14.4435C3.67408 14.5526 3.6129 14.7007 3.6129 14.8551C3.6129 15.0095 3.67408 15.1576 3.78297 15.2668C3.89186 15.3759 4.03955 15.4373 4.19355 15.4373H11.6723C11.8263 15.4373 11.9739 15.3759 12.0828 15.2668C12.1917 15.1576 12.2529 15.0095 12.2529 14.8551C12.2499 14.7016 12.1878 14.5553 12.0795 14.4468C11.9713 14.3382 11.8253 14.2759 11.6723 14.273H4.19355Z" fill="black"/>
</svg>
