<svg xmlns="http://www.w3.org/2000/svg" id="图层_1" x="0" y="0" version="1.1" viewBox="0 0 200 200" xml:space="preserve">
  <style>
    .st0{fill:#505050}
  </style>
  <path d="M186.5 31.4h-42.7v-6.7c0-12.7-10.3-23-23-23H78.4c-12.7 0-23 10.3-23 23v6.7H12.7c-3.5 0-6.4 2.7-6.4 6s2.9 6 6.4 6h173.8c3.5 0 6.4-2.7 6.4-6s-2.9-6-6.4-6zM67.4 24.7c0-6 4.9-11 11-11h42.4c6 0 11 4.9 11 11v6.7H67.4v-6.7zM154.1 175.1c-.4 5.7-5.2 10.2-10.9 10.2h-87c-5.8 0-10.6-4.5-10.9-10.2L37.8 64.7h-12l7.4 111.2c.8 12 10.9 21.4 22.9 21.4h87c12 0 22.1-9.4 22.9-21.4l7.4-111.2h-12l-7.3 110.4z" class="st0"/>
</svg>
