<?xml version="1.0" encoding="utf-8"?>
<!-- Generator: Adobe Illustrator 22.0.0, SVG Export Plug-In . SVG Version: 6.00 Build 0)  -->
<svg version="1.1" id="图层_1" xmlns="http://www.w3.org/2000/svg" xmlns:xlink="http://www.w3.org/1999/xlink" x="0px" y="0px"
	 viewBox="0 0 24 24" style="enable-background:new 0 0 24 24;" xml:space="preserve">
<style type="text/css">
	.st0{fill:#5B5D66;}
</style>
<title>回收站-线性</title>
<desc>Created with Sketch.</desc>
<g>
	<path class="st0" d="M22.2,4h-5.1V3c0-1.4-1.2-2.6-2.6-2.6H10C8.6,0.4,7.4,1.6,7.4,3v1H1.8C1.3,4,1,4.3,1,4.6
		c0,0.3,0.3,0.6,0.8,0.6h20.5c0.4,0,0.8-0.3,0.8-0.6C23,4.3,22.7,4,22.2,4z M8.6,3c0-0.8,0.6-1.4,1.4-1.4h4.5c0.8,0,1.4,0.6,1.4,1.4
		v1H8.6V3z"/>
	<path class="st0" d="M18.5,21.2c0,0.7-0.7,1.3-1.4,1.3H6.9c-0.7,0-1.3-0.6-1.4-1.3L4.6,8L3.4,8l0.9,13.3c0.1,1.4,1.2,2.4,2.6,2.4
		h10.3c1.4,0,2.5-1.1,2.6-2.4L20.6,8L19.4,8L18.5,21.2z"/>
	<path class="st0" d="M10.2,18.8v-8.2c0-0.3-0.3-0.6-0.6-0.6C9.3,10,9,10.3,9,10.6v8.2c0,0.3,0.3,0.6,0.6,0.6
		C9.9,19.4,10.2,19.1,10.2,18.8z"/>
	<path class="st0" d="M15,18.8v-8.2c0-0.3-0.3-0.6-0.6-0.6s-0.6,0.3-0.6,0.6v8.2c0,0.3,0.3,0.6,0.6,0.6S15,19.1,15,18.8z"/>
</g>
</svg>
