<?xml version="1.0" encoding="utf-8"?>
<!-- Generator: Adobe Illustrator 22.0.0, SVG Export Plug-In . SVG Version: 6.00 Build 0)  -->
<svg version="1.1" id="图层_1" xmlns="http://www.w3.org/2000/svg" xmlns:xlink="http://www.w3.org/1999/xlink" x="0px" y="0px"
	 viewBox="0 0 200 200" enable-background="new 0 0 200 200" xml:space="preserve">
<path fill="#505050" d="M183.765,111.98c-0.935-44.682-37.45-81.117-82.133-81.972c-9.673-0.185-18.973,1.284-27.653,4.126
	l22.876-22.878c1.193-1.193,1.193-3.127,0-4.32l-4.043-4.042c-1.193-1.193-3.127-1.192-4.32,0.001L58.412,32.987
	c-0.062,0.062-0.115,0.131-0.175,0.194l-0.008-0.008v0c-4.619,4.619-4.62,12.108,0,16.727l30.25,30.248
	c1.193,1.193,3.127,1.193,4.32,0l4.038-4.039c1.192-1.193,1.192-3.126,0-4.319L72.385,47.332c9.14-3.807,19.227-5.795,29.819-5.478
	c38.803,1.162,69.977,33.533,69.75,72.352c-0.232,39.541-32.361,71.525-71.954,71.525c-38.779,0-70.392-30.675-71.899-69.084
	c-0.063-1.605-1.384-2.872-2.99-2.872h-5.833c-1.708,0-3.067,1.425-3.004,3.132C17.921,161.729,54.776,197.56,100,197.56
	C146.869,197.56,184.75,159.074,183.765,111.98z"/>
</svg>
