<?xml version="1.0" encoding="utf-8"?>
<!-- Generator: Adobe Illustrator 22.0.0, SVG Export Plug-In . SVG Version: 6.00 Build 0)  -->
<svg version="1.1" id="图层_1" xmlns="http://www.w3.org/2000/svg" xmlns:xlink="http://www.w3.org/1999/xlink" x="0px" y="0px"
	 viewBox="0 0 24 24" style="enable-background:new 0 0 24 24;" xml:space="preserve">
<style type="text/css">
	.st0{fill:#5B5D66;}
</style>
<title>审核消息</title>
<desc>Created with Sketch.</desc>
<g>
	<path class="st0" d="M7.6,11.6h9.7c0.6,0,1.1-0.3,1.4-0.8c0.5-0.8,0.3-1.8-0.5-2.3L16,7c0.6-0.7,0.9-1.6,0.9-2.5
		c0-2.3-2-4.1-4.4-4.1S8.1,2.2,8.1,4.5C8.1,5.4,8.4,6.3,9,7L6.7,8.5C6.2,8.8,5.9,9.3,5.9,9.9C5.9,10.8,6.7,11.6,7.6,11.6z M7.4,9.5
		l3.6-2.4l-0.6-0.5c-0.7-0.5-1-1.3-1-2.1c0-1.6,1.5-2.9,3.2-2.9c1.8,0,3.2,1.3,3.2,2.9c0,0.8-0.4,1.6-1,2.1l-0.6,0.5l3.6,2.3
		c0.2,0.1,0.3,0.5,0.1,0.7c-0.1,0.1-0.2,0.2-0.4,0.2H7.6c-0.3,0-0.5-0.2-0.5-0.5C7.1,9.7,7.2,9.6,7.4,9.5z"/>
	<path class="st0" d="M22.2,21H1.8C1.3,21,1,21.3,1,21.6c0,0.3,0.3,0.6,0.8,0.6h20.5c0.4,0,0.8-0.3,0.8-0.6C23,21.3,22.7,21,22.2,21
		z"/>
	<path class="st0" d="M20.4,13H3.6C2.2,13,1,14.2,1,15.6v0.8C1,17.8,2.2,19,3.6,19h16.8c1.4,0,2.6-1.2,2.6-2.6v-0.8
		C23,14.2,21.8,13,20.4,13z M21.8,16.4c0,0.8-0.6,1.4-1.4,1.4H3.6c-0.8,0-1.4-0.6-1.4-1.4v-0.8c0-0.8,0.6-1.4,1.4-1.4h16.8
		c0.8,0,1.4,0.6,1.4,1.4V16.4z"/>
</g>
</svg>
