<?xml version="1.0" encoding="utf-8"?>
<!-- Generator: Adobe Illustrator 22.0.0, SVG Export Plug-In . SVG Version: 6.00 Build 0)  -->
<svg version="1.1" id="图层_1" xmlns="http://www.w3.org/2000/svg" xmlns:xlink="http://www.w3.org/1999/xlink" x="0px" y="0px"
	 viewBox="0 0 24 24" style="enable-background:new 0 0 24 24;" xml:space="preserve">
<style type="text/css">
	.st0{fill:#5B5D66;}
</style>
<title>安全消息</title>
<desc>Created with Sketch.</desc>
<g id="安全消息">
	<g id="Path-15">
		<path class="st0" d="M11.8,23.4c-0.6,0-1.3-0.2-1.8-0.7l-6.8-6.3c-0.5-0.5-0.8-1.2-0.8-1.9V6.4c0-1,0.6-1.9,1.5-2.3l6.8-3.4
			c0.7-0.4,1.5-0.4,2.3,0L20.1,4c0.9,0.4,1.5,1.3,1.5,2.4v8.1c0,0.7-0.3,1.5-0.9,2l-7.2,6.3C13.1,23.2,12.4,23.4,11.8,23.4z
			 M11.8,1.6c-0.2,0-0.4,0-0.6,0.1L4.4,5.1C3.9,5.3,3.6,5.8,3.6,6.4v8.2c0,0.4,0.2,0.8,0.5,1l6.8,6.3c0.5,0.5,1.3,0.5,1.9,0l7.2-6.3
			c0.3-0.3,0.5-0.6,0.5-1.1V6.4c0-0.5-0.3-1-0.8-1.3l-7.2-3.4C12.2,1.6,12,1.6,11.8,1.6z"/>
	</g>
	<g id="Oval-12">
		<circle class="st0" cx="12" cy="16" r="1"/>
	</g>
	<g>
		<path class="st0" d="M12.3,13.4h-0.6c-0.2,0-0.3-0.1-0.3-0.3V5.3c0-0.2,0.1-0.3,0.3-0.3h0.6c0.2,0,0.3,0.1,0.3,0.3v7.8
			C12.6,13.2,12.5,13.4,12.3,13.4z"/>
	</g>
</g>
</svg>
