<?xml version="1.0" encoding="utf-8"?>
<!-- Generator: Adobe Illustrator 22.0.0, SVG Export Plug-In . SVG Version: 6.00 Build 0)  -->
<svg version="1.1" id="图层_1" xmlns="http://www.w3.org/2000/svg" xmlns:xlink="http://www.w3.org/1999/xlink" x="0px" y="0px"
	 viewBox="0 0 200 200" enable-background="new 0 0 200 200" xml:space="preserve">
<g>
	<path fill="#505050" d="M119.812,14.396v17.763v7.779l7.102,3.175c2.93,1.31,5.778,2.859,8.467,4.605l6.384,4.145l6.47-4.008
		l14.987-9.285l20.259,32.701l-14.599,9.043l-6.561,4.064l0.977,7.656c0.354,2.778,0.526,5.384,0.526,7.967
		c0,2.547-0.177,5.228-0.526,7.966l-0.977,7.655l6.56,4.064l14.6,9.044l-20.258,32.701l-14.988-9.285l-6.47-4.008l-6.383,4.144
		c-2.688,1.744-5.537,3.294-8.469,4.605l-7.101,3.176v7.778v17.763H81.345v-18.618v-7.54l-6.793-3.271
		c-2.624-1.264-5.202-2.741-7.66-4.391l-6.426-4.311l-6.578,4.075l-15.953,9.883l-20.257-32.7l16.356-10.133l6.455-3.999
		l-0.85-7.545c-0.272-2.416-0.41-4.789-0.41-7.054s0.138-4.638,0.41-7.054l0.85-7.545l-6.455-3.999L17.677,71.27l20.257-32.701
		l15.953,9.882l6.576,4.074l6.426-4.308c2.464-1.652,5.041-3.129,7.659-4.388l6.797-3.27v-7.543v-18.62L119.812,14.396
		 M131.812,2.396H69.345v30.62c-3.18,1.53-6.23,3.284-9.139,5.234L34.052,22.048L1.156,75.152l26.557,16.451
		c-0.311,2.758-0.485,5.556-0.485,8.397c0,2.84,0.175,5.639,0.485,8.396L1.156,124.849l32.896,53.103l26.154-16.202
		c2.909,1.951,5.959,3.705,9.139,5.236v30.618h62.467v-29.763c3.521-1.575,6.896-3.413,10.103-5.494l25.189,15.604L200,124.849
		l-24.8-15.364c0.396-3.107,0.623-6.269,0.623-9.484c0-3.216-0.227-6.377-0.623-9.485L200,75.152l-32.897-53.104l-25.188,15.605
		c-3.206-2.082-6.581-3.92-10.103-5.495V2.396L131.812,2.396z"/>
</g>
<g>
	<path fill="#505050" d="M100,76c13.233,0,24,10.766,24,24c0,13.233-10.767,24-24,24c-13.234,0-24-10.767-24-24
		C76,86.766,86.766,76,100,76 M100,64c-19.882,0-36,16.118-36,36c0,19.883,16.118,36,36,36c19.883,0,36-16.117,36-36
		C136,80.118,119.883,64,100,64L100,64z"/>
</g>
</svg>
