<svg xmlns="http://www.w3.org/2000/svg" xmlns:xlink="http://www.w3.org/1999/xlink" width="16px" height="16px" viewBox="0 0 16 16" version="1.1">
    <!-- Generator: Sketch 60 (88103) - https://sketch.com -->
    <title>转存</title>
    <desc>Created with Sketch.</desc>
    <g id="web端new" stroke="none" stroke-width="1" fill="none" fill-rule="evenodd">
        <g id="访问文件备份-5" transform="translate(-537.000000, -485.000000)" fill="#505050" fill-rule="nonzero">
            <g id="Group-7" transform="translate(529.000000, 414.000000)">
                <g id="转存" transform="translate(8.000000, 71.000000)">
                    <path d="M8.96008,1.88488 L14.36752,5.81632 L8.96008,9.74768 L8.96008,7.95552 L8.96008,6.95808 L7.96336,6.99624 C6.0976,7.0676 3.65336,7.95568 1.41248,11.26152 C1.48664,10.91416 1.57416,10.56112 1.67752,10.20808 C2.14824,8.59952 2.84976,7.30232 3.76272,6.35264 C4.86984,5.20096 6.32144,4.54536 8.07704,4.40416 L8.96008,4.33312 L8.96008,3.4472 L8.96008,1.88488 M8.00008,0 L8.00008,3.4472 C-0.79304,4.15448 0.08,15.99216 0.08,15.99216 C2.63224,9.40344 5.88088,8.03648 8,7.95552 L8,11.6324 L16,5.81624 L8.00008,0 L8.00008,0 Z" id="形状"/>
                </g>
            </g>
        </g>
    </g>
</svg>
