<?xml version="1.0" encoding="UTF-8"?>
<svg width="20px" height="20px" viewBox="0 0 20 20" version="1.1" xmlns="http://www.w3.org/2000/svg" xmlns:xlink="http://www.w3.org/1999/xlink">
    <!-- Generator: Sketch 60 (88103) - https://sketch.com -->
    <title>复制链接</title>
    <desc>Created with Sketch.</desc>
    <g id="复制链接" stroke="none" stroke-width="1" fill="none" fill-rule="evenodd">
        <g transform="translate(1.000000, 1.000000)">
            <path d="M0,13.2336791 C0,14.1122636 0.307504576,14.8590604 0.933496034,15.4740696 L2.55887736,17.0884686 C3.17388652,17.7034777 3.92068334,18 4.79926785,18 C5.68883466,18 6.43563148,17.6924954 7.05064063,17.066504 L9.32397804,14.7821843 C9.93898719,14.1671751 10.2355095,13.4203783 10.2355095,12.5417938 C10.2355095,11.6412447 9.91702257,10.8724832 9.2690665,10.2355095 L10.2355095,9.2690665 C10.8724832,9.91702257 11.6302624,10.2355095 12.5308115,10.2355095 C13.409396,10.2355095 14.1671751,9.92800488 14.7821843,9.31299573 L17.0774863,7.01769372 C17.6924954,6.40268456 18,5.64490543 18,4.76632093 C18,3.88773642 17.6924954,3.1409396 17.066504,2.52593045 L15.4411226,0.911531422 C14.8261135,0.29652227 14.0793167,0 13.2007322,0 C12.3111653,0 11.5643685,0.307504576 10.9493594,0.933496034 L8.68700427,3.20683344 C8.07199512,3.82184259 7.77547285,4.56863941 7.77547285,5.44722392 C7.77547285,6.34777303 8.09395973,7.11653447 8.7419158,7.75350824 L7.77547285,8.71995119 C7.13849908,8.07199512 6.38071995,7.75350824 5.48017084,7.75350824 C4.60158633,7.75350824 3.8438072,8.06101281 3.22879805,8.67602196 L0.933496034,10.971324 C0.307504576,11.5973154 0,12.3441123 0,13.2336791 Z M9.87309335,5.44722392 C9.87309335,5.15070165 9.97193411,4.8981086 10.1805979,4.70042709 L12.4539353,2.41610738 C12.6625991,2.20744356 12.9151922,2.10860281 13.2007322,2.10860281 C13.4862721,2.10860281 13.7388652,2.20744356 13.947529,2.40512508 L15.5838926,4.0195241 C15.7925564,4.22818792 15.8913972,4.46979866 15.8913972,4.75533862 C15.8913972,5.05186089 15.7925564,5.30445394 15.5838926,5.50213545 L13.2885906,7.79743746 C13.0909091,7.99511897 12.838316,8.09395973 12.5417938,8.09395973 C12.2342892,8.09395973 11.9707138,7.98413667 11.7510677,7.75350824 L11.9597315,7.54484442 C12.0805369,7.43502135 12.1574131,7.3471629 12.2013423,7.30323368 C12.2452715,7.25930445 12.300183,7.19341062 12.3660769,7.09456986 C12.4319707,6.9957291 12.4868822,6.90787065 12.5088469,6.8090299 C12.5308115,6.72117145 12.5527761,6.61134838 12.5527761,6.50152532 C12.5527761,6.20500305 12.4539353,5.95241001 12.2452715,5.75472849 C12.0366077,5.55704698 11.7840146,5.44722392 11.4984747,5.44722392 C11.3886516,5.44722392 11.2898109,5.45820622 11.1909701,5.49115314 C11.1031117,5.51311775 11.0042709,5.56802929 10.9054301,5.63392312 C10.8065894,5.69981696 10.7406955,5.75472849 10.6967663,5.79865772 L10.4551556,6.04026846 C10.3453325,6.16107383 10.2684564,6.22696766 10.2464918,6.24893228 C9.99389872,6.02928615 9.87309335,5.7657108 9.87309335,5.44722392 L9.87309335,5.44722392 Z M2.11958511,13.2336791 C2.11958511,12.9371568 2.21842587,12.6845638 2.42708969,12.4868822 L4.7223917,10.1915802 C4.93105552,9.98291641 5.18364857,9.88407566 5.46918853,9.88407566 C5.77669311,9.88407566 6.04026846,10.004881 6.25991458,10.2355095 L6.05125076,10.4441733 C5.93044539,10.5539963 5.85356925,10.6418548 5.80964002,10.685784 C5.7657108,10.7297132 5.71079927,10.7956071 5.64490543,10.8944478 C5.57901159,10.9932886 5.52410006,11.081147 5.50213545,11.1799878 C5.48017084,11.2678462 5.45820622,11.3776693 5.45820622,11.4874924 C5.45820622,11.7840146 5.55704698,12.0366077 5.7657108,12.2342892 C5.97437462,12.442953 6.22696766,12.5417938 6.51250763,12.5417938 C6.62233069,12.5417938 6.72117145,12.5308115 6.8200122,12.4978646 C6.90787065,12.4758999 7.00671141,12.4209884 7.10555217,12.3550946 C7.20439292,12.2892007 7.27028676,12.2342892 7.31421599,12.19036 L7.55582672,11.9487492 C7.66564979,11.8279439 7.74252593,11.76205 7.76449054,11.7400854 C8.00610128,11.9707138 8.12690665,12.2342892 8.12690665,12.5417938 C8.12690665,12.838316 8.02806589,13.0909091 7.81940207,13.2885906 L5.54606467,15.5729103 C5.34838316,15.7705918 5.09579012,15.8694326 4.79926785,15.8694326 C4.50274558,15.8694326 4.25015253,15.7705918 4.05247102,15.5838926 L2.42708969,13.9694936 C2.21842587,13.7608298 2.11958511,13.519219 2.11958511,13.2336791 Z" id="形状" fill="#9197A9" fill-rule="nonzero"></path>
            <g id="编组-5"></g>
        </g>
    </g>
</svg>