<svg xmlns="http://www.w3.org/2000/svg" viewBox="0 0 200 200">
  <path d="M90.3 134.7h20v20h-20zM132 76.2c0-17.7-14.3-32-32-32s-32 14.3-32 32h12c0-11 9-20 20-20s20 9 20 20c0 10.9-8.8 19.8-19.6 20h-8.5V116h20v-10.1c11.8-4.8 20.1-16.3 20.1-29.7z"/>
  <path d="M100.1 196.2c-12.3 0-24.7-2.4-36.4-7.3-23.6-9.7-42-28.1-51.8-51.6s-9.8-49.5-.1-73.1 28.1-42 51.6-51.8c23.6-9.8 49.6-9.8 73.2-.1s42 28.1 51.8 51.6c9.8 23.6 9.8 49.5.1 73.1s-28.1 42-51.6 51.8c-11.9 4.9-24.4 7.4-36.8 7.4zm0-180.1c-11 0-22 2.2-32.4 6.5C46.8 31.2 30.6 47.5 22 68.4s-8.6 43.8.1 64.7 24.9 37.1 45.8 45.7c20.9 8.6 43.8 8.6 64.7-.1 20.8-8.7 37.1-24.9 45.7-45.8 8.6-20.9 8.6-43.8-.1-64.7-8.7-20.8-24.9-37.1-45.8-45.7-10.4-4.3-21.4-6.4-32.3-6.4z"/>
</svg>
