<?xml version="1.0" encoding="UTF-8"?>
<svg width="16px" height="16px" viewBox="0 0 16 16" version="1.1" xmlns="http://www.w3.org/2000/svg" xmlns:xlink="http://www.w3.org/1999/xlink">
    <!-- Generator: Sketch 60 (88103) - https://sketch.com -->
    <title>编组</title>
    <desc>Created with Sketch.</desc>
    <g id="web端new" stroke="none" stroke-width="1" fill="none" fill-rule="evenodd">
        <g id="实名共享02" transform="translate(-56.000000, -555.000000)" fill="#515050" fill-rule="nonzero">
            <g id="编组-7" transform="translate(16.000000, 15.000000)">
                <g id="编组-2" transform="translate(0.000000, 516.000000)">
                    <g id="编组-4" transform="translate(40.000000, 17.000000)">
                        <g id="编组" transform="translate(0.000000, 7.000000)">
                            <path d="M15.7019641,7.48797436 L8.55611795,7.48797436 L8.55611795,0.260076923 C8.55611795,0.124692308 8.44534872,0.0139230769 8.3099641,0.0139230769 L7.73560513,0.0139230769 C7.60022051,0.0139230769 7.48945128,0.124692308 7.48945128,0.260076923 L7.48945128,7.48797436 L0.261471795,7.48797436 C0.126087179,7.48797436 0.0153179487,7.59874359 0.0153179487,7.73412821 L0.0153179487,8.30848718 C0.0153179487,8.44387179 0.126087179,8.55464103 0.261389744,8.55464103 L7.48936923,8.55464103 L7.48936923,15.7004872 C7.48936923,15.8358718 7.60013846,15.946641 7.73552308,15.946641 L8.30988205,15.946641 C8.44526667,15.946641 8.5560359,15.8358718 8.5560359,15.7005692 L8.5560359,8.55464103 L15.7018821,8.55464103 C15.8372667,8.55464103 15.9480359,8.44387179 15.9480359,8.30848718 L15.9480359,7.73412821 C15.9480359,7.59874359 15.8373487,7.48797436 15.7019641,7.48797436 Z" id="路径"></path>
                        </g>
                    </g>
                </g>
            </g>
        </g>
    </g>
</svg>