<svg xmlns="http://www.w3.org/2000/svg" viewBox="0 0 200 200">
    <path fill="#505050"
        d="M155.439 115.876c-16.026 0-29.877 9.296-36.466 22.794l-50.591-24.634a33.595 33.595 0 003.115-14.155 33.609 33.609 0 00-3.795-15.547l63.523-30.65c5.672 10.106 16.485 16.941 28.902 16.941 18.29 0 33.126-14.833 33.126-33.122 0-18.302-14.836-33.135-33.126-33.135C141.829 4.368 127 19.201 127 37.503c0 1.897.168 3.753.474 5.563L60.8 75.238c-6.034-5.649-14.137-9.113-23.051-9.113C19.107 66.124 4 81.235 4 99.881c0 18.632 15.107 33.744 33.749 33.744 9.504 0 18.087-3.937 24.221-10.262l53.525 26.062a40.831 40.831 0 00-.619 7.032c0 22.393 18.161 40.543 40.563 40.543C177.83 197 196 178.85 196 156.457c0-22.42-18.17-40.581-40.561-40.581zm4.688-99.508c11.649 0 21.126 9.481 21.126 21.135 0 11.647-9.477 21.122-21.126 21.122-11.65 0-21.127-9.475-21.127-21.122 0-11.654 9.477-21.135 21.127-21.135zM37.749 121.625C25.756 121.625 16 111.871 16 99.881c0-11.997 9.756-21.757 21.749-21.757 11.992 0 21.748 9.76 21.748 21.757-.001 11.99-9.757 21.744-21.748 21.744zM155.439 185c-15.75 0-28.563-12.804-28.563-28.543 0-15.76 12.814-28.581 28.563-28.581 15.749 0 28.561 12.821 28.561 28.581C184 172.196 171.188 185 155.439 185z" />
</svg>
