<?xml version="1.0" encoding="utf-8"?>
<!--Generator: Adobe Illustrator 22.0.0, SVG Export Plug-In . SVG Version: 6.00 Build 0)-->
<svg version="1.1" id="图层_1" xmlns="http://www.w3.org/2000/svg" xmlns:xlink="http://www.w3.org/1999/xlink" x="0px" y="0px" viewBox="0 0 200 200" enable-background="new 0 0 200 200" xml:space="preserve">
    <path d="M172.5,3.65H27.15c-13.233,0-24,10.767-24,24V173c0,13.233,10.767,24,24,24H172.5c13.233,0,24-10.767,24-24
	V27.65C196.5,14.417,185.733,3.65,172.5,3.65z M27.15,15.65H172.5c6.617,0,12,5.383,12,12v26.294
	c-0.258-0.034-0.521-0.056-0.792-0.056H15.15V27.65C15.15,21.033,20.533,15.65,27.15,15.65z M15.15,173V66.888h127.425V185H27.15
	C20.533,185,15.15,179.617,15.15,173z M172.5,185h-16.925V66.888h28.133c0.271,0,0.535-0.022,0.792-0.056V173
	C184.5,179.617,179.117,185,172.5,185z"/>
</svg>
