<?xml version="1.0" encoding="UTF-8"?>
<svg width="20px" height="20px" viewBox="0 0 20 20" version="1.1" xmlns="http://www.w3.org/2000/svg" xmlns:xlink="http://www.w3.org/1999/xlink">
    <!-- Generator: Sketch 60.1 (88133) - https://sketch.com -->
    <title>在线表格备份</title>
    <desc>Created with Sketch.</desc>
    <g id="Page-1" stroke="none" stroke-width="1" fill="none" fill-rule="evenodd">
        <g id="收起侧边栏-copy" transform="translate(-20.000000, -187.000000)" fill="#5E6069" fill-rule="nonzero">
            <g id="在线表格备份" transform="translate(20.000000, 187.000000)">
                <path d="M16.7192551,13.2136266 C16.6572486,11.7149205 15.7157475,10.4422403 14.3939602,9.89613783 L14.3939602,1.53154756 C14.3939602,0.689262492 13.7038451,0 12.8602919,0 L1.53366831,0 C0.690216921,0 0,0.689262492 0,1.53154756 L0,15.2260006 C0,16.0682857 0.690216921,16.7575482 1.53366831,16.7575482 L5.68993692,16.7575482 C5.7709832,18.5622995 7.26606289,20 9.09968386,20 C9.75966115,20 10.3750426,19.8130176 10.897058,19.4907043 C10.946541,19.4537958 10.9275013,19.4301053 10.8526658,19.3613722 C10.7504416,19.2674235 10.4341983,18.910947 10.3417485,18.8072373 C10.2750584,18.7332171 10.2385061,18.7438931 10.1807759,18.7691088 C9.8586272,18.9480587 9.49004994,19.0492265 9.09978568,19.0492265 C7.81791061,19.0492265 6.77907255,17.9589533 6.77907255,16.6140832 C6.77907255,15.269213 7.8178088,14.1794482 9.09978568,14.1794482 C9.14417785,14.1794482 9.18948638,14.183922 9.23265676,14.183922 C9.24365299,14.183922 9.25363105,14.1836169 9.26269275,14.1827018 C9.63646268,15.867272 11.1440659,17.128056 12.9491781,17.128056 C12.9491781,17.128056 13.2155312,17.1068057 13.2155312,16.8902355 L13.2155312,16.3204425 C13.2155312,16.1169886 12.9491781,16.0764198 12.9491781,16.0764198 C11.5312756,16.0764198 10.3813553,14.8702358 10.3813553,13.3815956 C10.3813553,11.8939721 11.5312756,10.6869748 12.9491781,10.6869748 C14.3679969,10.6869748 15.518019,11.8939721 15.518019,13.3815956 C15.518019,13.3815956 15.5173063,13.3920682 15.5203608,13.4052861 C15.5121137,13.4489052 15.5077355,13.4940494 15.5077355,13.5404137 C15.5077355,13.9106165 15.7810122,14.2106628 16.1179244,14.2106628 C16.1301424,14.2106628 16.1413423,14.2077142 16.1533566,14.2066974 C16.1740255,14.2121879 16.1953052,14.2139164 16.2191304,14.2106628 C16.3391725,14.1926661 16.4613528,14.1794482 16.5866895,14.1794482 C17.8683609,14.1794482 18.9076062,15.269213 18.9076062,16.6140832 C18.9076062,17.9588517 17.8682591,19.0492265 16.5866895,19.0492265 C16.3352017,19.0492265 16.0946083,19.0035739 15.8671493,18.9300621 C15.6478356,18.8592955 15.6038507,18.9410431 15.5664839,18.9826286 C15.4221075,19.1449037 15.2662258,19.2959945 15.0979224,19.434579 C15.0415159,19.4811467 14.9717713,19.6078352 15.165427,19.6916163 C15.6015089,19.8820557 16.0790303,20 16.5865877,20 C18.4722371,20 20,18.4797385 20,16.6032038 C20,14.7720167 18.5426944,13.2836815 16.7192551,13.2136266 Z M13.2437344,1.76031886 L13.2437344,3.77818335 L6.26102805,3.77818335 L6.26102805,1.249803 L12.7326135,1.249803 C13.01373,1.249803 13.2437344,1.47938771 13.2437344,1.76031886 Z M1.66144855,1.249803 L5.11080227,1.249803 L5.11080227,3.77818335 L1.15022578,3.77818335 L1.15022578,1.76031886 C1.15022578,1.47938771 1.38043384,1.249803 1.66144855,1.249803 Z M9.17961014,13.2091529 C9.08349497,13.2091529 9.12646171,13.206916 9.09958204,13.206916 C7.59238613,13.206916 6.31468556,14.1787365 5.86210934,15.5265553 L5.86210934,15.5076435 L1.66144855,15.5076435 C1.38043384,15.5076435 1.15022578,15.2780588 1.15022578,14.9971276 L1.15022578,4.9268186 L13.2437344,4.9268186 L13.2437344,9.62303574 C13.1463975,9.61551171 13.0483478,9.61063126 12.9490763,9.61063126 C10.9172178,9.61063126 9.26472909,11.2082683 9.17961014,13.2091529 Z" id="XMLID_9_"></path>
            </g>
        </g>
    </g>
</svg>