<?xml version="1.0" encoding="utf-8"?>
<!--Generator: Adobe Illustrator 22.0.0, SVG Export Plug-In . SVG Version: 6.00 Build 0)-->
<svg version="1.1" id="图层_1" xmlns="http://www.w3.org/2000/svg" xmlns:xlink="http://www.w3.org/1999/xlink" x="0px" y="0px" viewBox="0 0 200 200" enable-background="new 0 0 200 200" xml:space="preserve">
    <path d="M77.03,191.871V4.299c0-0.723-0.592-1.315-1.315-1.315h-9.86c-0.723,0-1.315,0.592-1.315,1.315v172.668
	L24.47,143.254c-0.855-0.674-2.136-0.066-2.136,1.035v11.914c0,0.805,0.362,1.561,1.002,2.071l45.182,37.738
	C71.969,198.723,77.03,196.275,77.03,191.871L77.03,191.871z"/>
    <path d="M122.621,8.26v187.572c0,0.723,0.592,1.315,1.315,1.315h9.86c0.723,0,1.315-0.592,1.315-1.315V23.165
	l40.072,33.712c0.855,0.674,2.136,0.066,2.136-1.035V43.928c0-0.805-0.362-1.561-1.002-2.071L131.133,4.119
	C127.683,1.408,122.621,3.857,122.621,8.26L122.621,8.26z"/>
</svg>
