<?xml version="1.0" encoding="UTF-8"?>
<svg width="18px" height="20px" viewBox="0 0 18 20" version="1.1" xmlns="http://www.w3.org/2000/svg" xmlns:xlink="http://www.w3.org/1999/xlink">
    <!-- Generator: Sketch 60 (88103) - https://sketch.com -->
    <title>文件夹备份</title>
    <desc>Created with Sketch.</desc>
    <g id="手动发起文档库同步" stroke="none" stroke-width="1" fill="none" fill-rule="evenodd">
        <g id="域同步管理界面" transform="translate(-105.000000, -141.000000)" fill="#000000" fill-rule="nonzero">
            <g id="Group-Copy备份-6">
                <g id="应用-黑色线性无分类" transform="translate(79.000000, 25.000000)">
                    <g id="文件夹备份" transform="translate(26.000000, 116.000000)">
                        <path d="M14.2974708,0.65462963 C15.6781827,0.65462963 16.8075256,1.73086821 16.8923556,3.09020154 L16.8974708,3.25462963 L16.8974708,9.25128349 L15.6974708,9.25128349 L15.6974708,3.25462963 C15.6974708,2.52691325 15.1422419,1.92887753 14.4323002,1.86103844 L14.2974708,1.85462963 L2.66666667,1.85462963 C1.93895029,1.85462963 1.34091457,2.40985851 1.27307547,3.11980029 L1.26666667,3.25462963 L1.26666667,16.6449027 C1.26666667,17.3726191 1.82189554,17.9706548 2.53183732,18.0384939 L2.66666667,18.0449027 L6.84078706,18.0449027 L6.84078706,19.2449027 L2.66666667,19.2449027 C1.28595479,19.2449027 0.156611907,18.1686642 0.0717818507,16.8093308 L0.0666666667,16.6449027 L0.0666666667,3.25462963 C0.0666666667,1.87391776 1.14290525,0.74457487 2.50223857,0.659744814 L2.66666667,0.65462963 L14.2974708,0.65462963 Z" id="Path-10"></path>
                        <polygon id="Path-11-Copy" points="10.25 7.27628601 10.25 8.47628601 4.29527554 8.47628601 4.29527554 7.27628601"></polygon>
                        <polygon id="Path-11" points="12.8986661 4.08395062 12.8986661 5.28395062 4.40673854 5.28395062 4.40673854 4.08395062"></polygon>
                        <path d="M13.095337,11.8679304 C13.3890703,11.5731092 13.87861,11.7476085 13.9425765,12.1347172 L13.9495433,12.2208297 L13.9495433,21.0032371 C13.9495433,21.2793795 13.7256857,21.5032371 13.4495433,21.5032371 C13.2040834,21.5032371 12.9999349,21.3263619 12.957599,21.0931127 L12.9495433,21.0032371 L12.949,13.43 L11.7204163,14.6647783 C11.547171,14.8386652 11.2777827,14.8584484 11.0826654,14.7238127 L11.0133107,14.6660854 C10.8394238,14.4928402 10.8196407,14.2234519 10.9542763,14.0283345 L11.0120037,13.9589798 L13.095337,11.8679304 Z" id="路径-2" transform="translate(12.407877, 16.611532) rotate(-90.000000) translate(-12.407877, -16.611532) "></path>
                        <path d="M13.0786641,7.29756369 C13.3723974,7.00274246 13.8619371,7.17724182 13.9259036,7.56435044 L13.9328704,7.65046296 L13.9328704,16.4328704 C13.9328704,16.7090127 13.7090127,16.9328704 13.4328704,16.9328704 C13.1874105,16.9328704 12.983262,16.7559952 12.940926,16.522746 L12.9328704,16.4328704 L12.932,8.861 L11.7037433,10.0944116 C11.5304981,10.2682985 11.2611098,10.2880816 11.0659925,10.153446 L10.9966378,10.0957186 C10.8227509,9.92247342 10.8029678,9.65308512 10.9376034,9.45796779 L10.9953307,9.38861308 L13.0786641,7.29756369 Z" id="路径-2备份" transform="translate(12.391204, 12.041165) rotate(-270.000000) translate(-12.391204, -12.041165) "></path>
                    </g>
                </g>
            </g>
        </g>
    </g>
</svg>