<svg xmlns="http://www.w3.org/2000/svg" id="图层_1" x="0" y="0" version="1.1" viewBox="0 0 200 200" xml:space="preserve">
  <style>
    .st0{fill:#505050}
  </style>
  <g id="Artboard">
    <path id="Shape" d="M99.8 117.1h-.2c-9.9 0-19.5-4.9-28.6-14.6l13.9-13.7-31.2-.2c-.9 0-1.8.4-2.5 1s-1 1.5-1 2.5l-.2 31.2L63.5 110c11.1 11.7 23.2 17.7 36.1 17.7h.4c27.1-.2 46.8-26.9 47.6-28.1l-8.5-6.2c-.2.2-17.5 23.6-39.3 23.7zM150.9 41L138 54c-11.7-13.4-24.7-20.1-38.5-20-27.1.2-46.8 26.9-47.6 28.1l8.5 6.2c.2-.2 17.5-23.6 39.2-23.7h.2c10.7 0 21 5.7 30.7 16.9l-14.2 14.3 31.2-.1c.9 0 1.8-.4 2.5-1 .7-.7 1-1.6 1-2.5l-.1-31.2z" class="st0"/>
    <path d="M164 4H36C18.9 4 5 17.9 5 35v92c0 17.1 13.9 31 31 31h61.8c-.5.9-.8 1.9-.8 3v23H39.2c-3.3 0-6 2.7-6 6s2.7 6 6 6h128.5c3.3 0 6-2.7 6-6s-2.7-6-6-6H109v-23c0-1.1-.3-2.1-.8-3H164c17.1 0 31-13.9 31-31V35c0-17.1-13.9-31-31-31zm19 123c0 10.5-8.5 19-19 19H36c-10.5 0-19-8.5-19-19V35c0-10.5 8.5-19 19-19h128c10.5 0 19 8.5 19 19v92z" class="st0"/>
  </g>
</svg>
