<?xml version="1.0" encoding="utf-8"?>
<!-- Generator: Adobe Illustrator 22.0.0, SVG Export Plug-In . SVG Version: 6.00 Build 0)  -->
<svg version="1.1" id="图层_1" xmlns="http://www.w3.org/2000/svg" xmlns:xlink="http://www.w3.org/1999/xlink" x="0px" y="0px"
	 viewBox="0 0 200 200" enable-background="new 0 0 200 200" xml:space="preserve">
<path fill="#505050" d="M188.932,101.832c8.63-8.64,9.63-17.446,8.331-25.672l-10.252-46.324
	c-1.293-8.235-9.096-16.028-17.304-17.336L123.436,2.258C122.33,2.084,121.166,2,119.964,2c-7.754,0-17.086,3.482-22.182,8.585
	L6.564,101.918c-5.882,5.886-5.882,15.531,0,21.426l69.743,69.812c2.944,2.944,6.826,4.418,10.707,4.418
	c3.878,0,7.756-1.472,10.696-4.418L188.932,101.832z M87.014,185.872c-0.539,0-1.571-0.129-2.429-0.986l-69.738-69.807
	c-1.325-1.327-1.327-3.566-0.004-4.891l91.22-91.335c2.787-2.792,9.154-5.151,13.901-5.151c0.61,0,1.165,0.038,1.641,0.114
	l46.273,10.242c1.484,0.24,3.32,1.306,4.797,2.784c1.48,1.481,2.544,3.324,2.777,4.811l0.001,0.007l0.002,0.007l10.25,46.317
	c0.861,5.453,0.331,10.189-5.052,15.578l-91.228,91.329C88.574,185.745,87.549,185.872,87.014,185.872z"/>
<path fill="#505050" d="M139.215,40.799c-10.32,0-18.688,8.368-18.688,18.688c0,10.33,8.368,18.689,18.693,18.689
	c10.316,0,18.688-8.377,18.684-18.689C157.895,49.167,149.527,40.799,139.215,40.799L139.215,40.799z M139.215,40.799"/>
</svg>
