<svg width="200" height="200" viewBox="0 0 200 200" fill="none" xmlns="http://www.w3.org/2000/svg">
<path d="M151.6 141.102C146.495 135.195 143.358 126.994 142.839 118.199C142.73 116.772 143.057 115.347 143.751 114.224C144.445 113.1 145.451 112.366 146.559 112.174L155.665 110.613C156.754 110.429 157.857 110.785 158.749 111.608C159.641 112.431 160.254 113.659 160.465 115.043C160.865 119.249 162.264 123.196 164.47 126.35C166.185 128.339 168.435 129.395 170.745 129.296C172.19 129.34 173.626 129 174.963 128.297C176.3 127.593 177.509 126.542 178.514 125.21C179.56 123.873 180.38 122.275 180.925 120.515C181.47 118.755 181.728 116.87 181.681 114.976C181.739 113.254 181.517 111.534 181.029 109.927C180.542 108.32 179.8 106.86 178.85 105.64C177.88 104.421 176.725 103.471 175.457 102.848C174.189 102.225 172.835 101.943 171.479 102.019C169.675 102.11 167.887 102.482 166.153 103.126C165.472 103.349 164.759 103.356 164.076 103.145C163.392 102.935 162.759 102.513 162.232 101.917C161.704 101.321 161.298 100.569 161.049 99.7256C160.8 98.8826 160.715 97.9741 160.801 97.0793L161.811 86.8238C161.954 85.3801 162.534 84.0664 163.425 83.1669C164.317 82.2674 165.449 81.8544 166.576 82.0173C166.902 82.072 167.231 82.1016 167.56 82.1059C170.437 82.1724 173.263 81.1309 175.674 79.1157C176.61 78.3287 177.358 77.2234 177.834 75.9229C178.309 74.6225 178.494 73.178 178.367 71.7508C178.408 70.5182 178.244 69.2885 177.887 68.143C177.53 66.9974 176.987 65.9623 176.295 65.1059C175.526 64.1892 174.62 63.4821 173.632 63.0271C172.644 62.5722 171.594 62.3789 170.546 62.459C169.471 62.392 168.396 62.6025 167.384 63.0781C166.373 63.5537 165.447 64.2846 164.66 65.2277C162.783 67.9 161.643 71.2891 161.414 74.874C161.328 75.6044 161.13 76.3054 160.83 76.9358C160.529 77.5661 160.134 78.1131 159.667 78.5445C159.199 78.9759 158.67 79.2829 158.108 79.4476C157.547 79.6123 156.966 79.6312 156.399 79.5033L147.293 77.4212C146.734 77.2948 146.2 77.0282 145.721 76.6367C145.243 76.2452 144.829 75.7365 144.504 75.1398C144.179 74.5415 143.949 73.8666 143.828 73.1538C143.706 72.4411 143.696 71.7046 143.797 70.9867C144.73 62.6647 147.932 55.0366 152.834 49.457C157.739 44.2237 163.963 41.4671 170.339 41.7045C174.901 41.655 179.406 43.0069 183.477 45.6472C187.427 48.1376 190.742 52.0218 193.032 56.8439C195.203 61.3945 196.353 66.6258 196.355 71.9613C196.38 77.0248 195.235 81.9842 193.067 86.2147C192.354 87.607 191.536 88.9054 190.624 90.091C192.478 91.6891 194.114 93.6685 195.466 95.9496C198.555 101.365 200.146 107.948 199.989 114.655C200.041 119.367 199.318 124.04 197.868 128.37C196.418 132.7 194.273 136.589 191.573 139.784C188.786 143.161 185.507 145.799 181.924 147.55C178.342 149.3 174.525 150.127 170.693 149.984C163.68 150.249 156.851 147.072 151.6 141.102ZM71.0481 148.301C69.927 148.302 68.8497 147.743 68.0442 146.742C67.2386 145.742 66.7681 144.378 66.7323 142.941C66.6426 139.437 67.1004 135.947 68.0788 132.674C69.6677 127.462 71.9453 122.64 74.8116 118.421C78.6146 112.928 82.7853 107.873 87.2759 103.314C93.0035 97.6921 98.2287 91.2738 102.856 84.1769C104.861 81.1393 106.069 77.3691 106.309 73.401C106.342 71.9451 106.127 70.4975 105.68 69.1587C105.233 67.82 104.564 66.6222 103.719 65.6485C102.763 64.5292 101.642 63.6665 100.422 63.1111C99.202 62.5558 97.9078 62.319 96.6154 62.4147C95.2536 62.3058 93.8889 62.5551 92.6049 63.1474C91.321 63.7397 90.1449 64.6624 89.149 65.859C88.189 67.2307 87.4524 68.8347 86.9825 70.5768C86.5126 72.319 86.3189 74.164 86.4127 76.0036C86.4074 76.7743 86.2768 77.5352 86.0292 78.2374C85.7816 78.9396 85.4225 79.5678 84.9748 80.0818C84.5271 80.5957 84.0007 80.9841 83.4293 81.222C82.858 81.4599 82.2542 81.5422 81.6566 81.4636L72.3256 80.2675C71.1933 80.119 70.1524 79.4026 69.4298 78.2742C68.7071 77.1458 68.3612 75.6968 68.4673 74.2427C68.7806 65.0512 71.8998 56.3868 77.1508 50.1215C82.6772 44.2894 89.6915 41.2908 96.8399 41.7045C104.136 41.2772 111.268 44.556 116.693 50.8302C119.142 53.7326 121.086 57.2664 122.397 61.2001C123.707 65.1337 124.355 69.3784 124.297 73.6557C124.285 78.2594 123.551 82.8129 122.14 87.0453C120.438 91.8625 118.145 96.2974 115.346 100.18C110.819 106.344 105.98 112.119 100.862 117.468C97.1851 121.422 94.7596 124.113 93.1541 125.996H120.077C121.221 125.996 122.319 126.579 123.128 127.618C123.938 128.656 124.392 130.065 124.392 131.533V142.763C124.392 144.232 123.938 145.641 123.128 146.679C122.319 147.718 121.221 148.301 120.077 148.301H71.0481ZM22.529 148.301C21.9622 148.301 21.401 148.158 20.8774 147.879C20.3538 147.601 19.878 147.193 19.4772 146.679C19.0765 146.165 18.7586 145.554 18.5417 144.883C18.3248 144.211 18.2131 143.491 18.2131 142.763V79.4922C17.5312 80.046 16.8234 80.5997 16.0897 81.1535C12.8158 83.6821 9.37588 85.8388 5.80929 87.5991C5.15763 87.9074 4.4576 88.0094 3.76865 87.8964C3.0797 87.7834 2.42219 87.4587 1.85195 86.95C1.28172 86.4412 0.815611 85.7633 0.493217 84.974C0.170822 84.1847 0.00166527 83.3072 0.000113923 82.416V71.1196C-0.00587315 70.0622 0.224237 69.0247 0.66324 68.1297C1.10224 67.2348 1.73178 66.5198 2.47743 66.0694C6.95024 63.424 11.0995 59.9582 14.795 55.7808C17.6825 52.6923 20.0922 48.9356 21.8989 44.7058C22.2636 43.7975 22.8171 43.0364 23.4981 42.5067C24.179 41.977 24.961 41.6993 25.7573 41.7045H31.6269C32.1937 41.7045 32.7549 41.8477 33.2785 42.126C33.8021 42.4043 34.2779 42.8122 34.6787 43.3264C35.0794 43.8406 35.3974 44.451 35.6142 45.1229C35.8311 45.7947 35.9428 46.5148 35.9428 47.242V142.763C35.9428 143.491 35.8311 144.211 35.6142 144.883C35.3974 145.554 35.0794 146.165 34.6787 146.679C34.2779 147.193 33.8021 147.601 33.2785 147.879C32.7549 148.158 32.1937 148.301 31.6269 148.301H22.529Z" fill="black"/>
</svg>
