<svg width="200" height="200" viewBox="0 0 200 200" fill="none" xmlns="http://www.w3.org/2000/svg">
<path d="M148.124 113.142C141.523 113.141 135.054 114.99 129.457 118.478C123.86 121.965 119.359 126.951 116.469 132.866L72.5566 111.551C74.2901 107.828 75.2565 103.677 75.2565 99.3034C75.2565 94.4486 74.06 89.8767 71.966 85.8553L127.107 59.3336C130.624 65.6005 136.373 70.3237 143.216 72.5691C150.058 74.8146 157.498 74.4187 164.062 71.4599C170.626 68.501 175.837 63.1946 178.665 56.5901C181.493 49.9855 181.731 42.5637 179.332 35.7925C176.934 29.0213 172.074 23.3936 165.713 20.0225C159.352 16.6514 151.954 15.7823 144.981 17.5871C138.008 19.3918 131.968 23.7391 128.056 29.7691C124.144 35.799 122.645 43.0727 123.855 50.1515L65.9756 77.9806C61.7618 74.0497 56.4769 71.4471 50.7843 70.4996C45.0918 69.5521 39.2453 70.3018 33.9787 72.6547C28.7121 75.0075 24.2602 78.8587 21.1818 83.7247C18.1035 88.5907 16.5358 94.2547 16.6756 100.006C16.8154 105.757 18.6565 111.338 21.9677 116.05C25.279 120.762 29.9128 124.393 35.2875 126.489C40.6623 128.585 46.5383 129.052 52.1782 127.83C57.818 126.609 62.9702 123.754 66.9881 119.625L113.447 142.171C112.558 147.216 112.787 152.394 114.12 157.341C115.453 162.288 117.856 166.885 121.161 170.808C124.465 174.731 128.592 177.885 133.25 180.049C137.908 182.212 142.984 183.334 148.124 183.333C157.462 183.333 166.418 179.636 173.021 173.054C179.624 166.472 183.334 157.545 183.334 148.237C183.334 138.929 179.624 130.003 173.021 123.421C166.418 116.839 157.462 113.142 148.124 113.142ZM152.196 27.0473C157.06 27.0533 161.722 28.9823 165.16 32.4108C168.599 35.8393 170.532 40.4873 170.536 45.3349C170.53 50.1805 168.595 54.8258 165.157 58.2514C161.719 61.6771 157.058 63.6033 152.196 63.6073C147.335 63.6033 142.674 61.6771 139.236 58.2514C135.797 54.8258 133.863 50.1805 133.857 45.3349C133.861 40.4873 135.794 35.8393 139.232 32.4108C142.671 28.9823 147.333 27.0533 152.196 27.0473ZM45.964 118.119C40.9595 118.113 36.1618 116.128 32.6231 112.601C29.0844 109.074 27.0937 104.292 27.0876 99.3034C27.0917 94.3139 29.0815 89.5297 32.6204 86.0008C36.1593 82.472 40.9582 80.4867 45.964 80.4806C50.9692 80.4887 55.7669 82.4746 59.3054 86.0031C62.8438 89.5315 64.8343 94.3145 64.8404 99.3034C64.8343 104.292 62.8436 109.074 59.3049 112.601C55.7662 116.128 50.9685 118.113 45.964 118.119ZM148.124 172.951C141.553 172.945 135.252 170.342 130.604 165.713C125.955 161.084 123.338 154.806 123.326 148.257C123.33 141.701 125.943 135.415 130.592 130.778C135.242 126.141 141.547 123.532 148.124 123.524C154.699 123.534 161.002 126.144 165.65 130.78C170.297 135.417 172.91 141.702 172.914 148.257C172.914 161.873 161.792 172.951 148.124 172.951Z" fill="black"/>
</svg>
