<svg width="200" height="200" viewBox="0 0 200 200" fill="none"
    xmlns="http://www.w3.org/2000/svg">
    <path d="M35.2318 34.3809H35.1855C32.7298 34.3809 30.3747 35.3692 28.6382 37.1285C26.9018 38.8877 25.9263 41.2738 25.9263 43.7617V156.238C25.9263 158.726 26.9018 161.112 28.6382 162.872C30.3747 164.631 32.7298 165.619 35.1855 165.619H164.815C167.271 165.619 169.626 164.631 171.362 162.872C173.099 161.112 174.074 158.726 174.074 156.238V62.4672C174.07 61.2352 173.825 60.0164 173.355 58.8801C172.886 57.7439 172.2 56.7125 171.336 55.8449C170.473 54.9773 169.45 54.2904 168.324 53.8235C167.199 53.3566 165.994 53.1189 164.778 53.1238L103.889 53.3677C101.445 53.3771 99.0233 52.8962 96.7635 51.9527C94.5037 51.0092 92.4506 49.6218 90.7226 47.8705L80.3151 37.3265C78.5905 35.5785 76.2546 34.5908 73.8151 34.5779L35.2318 34.3902V34.3809ZM35.2781 25L73.8707 25.197C78.7496 25.2228 83.4213 27.1983 86.8707 30.6942L97.2688 41.2383C98.1339 42.115 99.162 42.8094 100.294 43.2811C101.425 43.7529 102.638 43.9928 103.861 43.9869L164.741 43.743C167.173 43.7331 169.583 44.2086 171.833 45.1424C174.084 46.0761 176.131 47.4498 177.857 49.185C179.584 50.9203 180.956 52.983 181.896 55.2555C182.835 57.528 183.324 59.9658 183.334 62.4296V156.238C183.334 161.214 181.383 165.986 177.91 169.505C174.437 173.023 169.727 175 164.815 175H35.1855C30.2741 175 25.5638 173.023 22.0909 169.505C18.618 165.986 16.667 161.214 16.667 156.238V43.7617C16.667 38.7858 18.618 34.0137 22.0909 30.4952C25.5638 26.9767 30.2741 25 35.1855 25H35.2781Z" fill="black"/>
</svg>
