<svg width="200" height="200" viewBox="0 0 200 200" fill="none"
    xmlns="http://www.w3.org/2000/svg">
    <path d="M158.334 58.7301C159.623 58.7301 160.859 59.2318 161.771 60.1248C162.683 61.0178 163.195 62.229 163.195 63.492V158.73C163.195 159.993 162.683 161.204 161.771 162.097C160.859 162.99 159.623 163.492 158.334 163.492H41.6671C40.3779 163.492 39.1414 162.99 38.2298 162.097C37.3181 161.204 36.806 159.993 36.806 158.73V63.492C36.806 62.229 37.3181 61.0178 38.2298 60.1248C39.1414 59.2318 40.3779 58.7301 41.6671 58.7301H158.334ZM158.334 44.4443H41.6671C36.5101 44.4443 31.5643 46.4511 27.9178 50.0233C24.2713 53.5954 22.2227 58.4402 22.2227 63.492L22.2227 158.73C22.2227 163.782 24.2713 168.627 27.9178 172.199C31.5643 175.771 36.5101 177.778 41.6671 177.778H158.334C163.491 177.778 168.437 175.771 172.083 172.199C175.73 168.627 177.778 163.782 177.778 158.73V63.492C177.778 58.4402 175.73 53.5954 172.083 50.0233C168.437 46.4511 163.491 44.4443 158.334 44.4443Z" fill="black"/>
    <path d="M63.3517 22.2222C61.4267 22.2222 59.5806 22.9747 58.2195 24.3143C56.8583 25.6538 56.0936 27.4706 56.0936 29.365V57.9365C56.0936 59.8309 56.8583 61.6477 58.2195 62.9872C59.5806 64.3268 61.4267 65.0793 63.3517 65.0793C65.2766 65.0793 67.1228 64.3268 68.4839 62.9872C69.8451 61.6477 70.6098 59.8309 70.6098 57.9365V29.365C70.6098 27.4706 69.8451 25.6538 68.4839 24.3143C67.1228 22.9747 65.2766 22.2222 63.3517 22.2222ZM164.965 74.6031H29.4807C27.5558 74.6031 25.7096 75.3557 24.3485 76.6952C22.9873 78.0348 22.2227 79.8516 22.2227 81.746C22.2227 83.6404 22.9873 85.4572 24.3485 86.7967C25.7096 88.1363 27.5558 88.8888 29.4807 88.8888H164.965C166.89 88.8888 168.736 88.1363 170.097 86.7967C171.458 85.4572 172.223 83.6404 172.223 81.746C172.223 79.8516 171.458 78.0348 170.097 76.6952C168.736 75.3557 166.89 74.6031 164.965 74.6031Z" fill="black"/>
    <path d="M137.037 105.556H62.9631C60.9985 105.556 59.1144 106.336 57.7252 107.725C56.3361 109.114 55.5557 110.999 55.5557 112.963C55.5557 114.928 56.3361 116.812 57.7252 118.201C59.1144 119.59 60.9985 120.37 62.9631 120.37H137.037C139.002 120.37 140.886 119.59 142.275 118.201C143.664 116.812 144.445 114.928 144.445 112.963C144.445 110.999 143.664 109.114 142.275 107.725C140.886 106.336 139.002 105.556 137.037 105.556ZM137.037 135.185H62.9631C60.9985 135.185 59.1144 135.966 57.7252 137.355C56.3361 138.744 55.5557 140.628 55.5557 142.593C55.5557 144.557 56.3361 146.441 57.7252 147.831C59.1144 149.22 60.9985 150 62.9631 150H137.037C139.002 150 140.886 149.22 142.275 147.831C143.664 146.441 144.445 144.557 144.445 142.593C144.445 140.628 143.664 138.744 142.275 137.355C140.886 135.966 139.002 135.185 137.037 135.185Z" fill="black"/>
    <path d="M136.111 22.2222C133.901 22.2222 131.781 23.0026 130.218 24.3917C128.655 25.7809 127.777 27.665 127.777 29.6296V59.2592C127.777 61.2238 128.655 63.1079 130.218 64.497C131.781 65.8862 133.901 66.6666 136.111 66.6666C138.321 66.6666 140.44 65.8862 142.003 64.497C143.566 63.1079 144.444 61.2238 144.444 59.2592V29.6296C144.444 27.665 143.566 25.7809 142.003 24.3917C140.44 23.0026 138.321 22.2222 136.111 22.2222Z" fill="black"/>
</svg>
