<svg width="200" height="200" viewBox="0 0 200 200" fill="none" xmlns="http://www.w3.org/2000/svg">
<path d="M122.297 108.333H61.0357C60.3189 108.333 59.6315 108.029 59.1246 107.488C58.6178 106.947 58.333 106.214 58.333 105.449V99.6794C58.333 98.9144 58.6178 98.1806 59.1246 97.6397C59.6315 97.0987 60.3189 96.7948 61.0357 96.7948H122.297C123.014 96.7948 123.701 97.0987 124.208 97.6397C124.715 98.1806 125 98.9144 125 99.6794V105.449C125 106.214 124.715 106.947 124.208 107.488C123.701 108.029 123.014 108.333 122.297 108.333ZM122.297 69.8717H61.0357C60.3189 69.8717 59.6315 69.5678 59.1246 69.0268C58.6178 68.4859 58.333 67.7521 58.333 66.9871V61.2179C58.333 60.4528 58.6178 59.7191 59.1246 59.1781C59.6315 58.6372 60.3189 58.3333 61.0357 58.3333H122.297C123.014 58.3333 123.701 58.6372 124.208 59.1781C124.715 59.7191 125 60.4528 125 61.2179V66.9871C125 67.7521 124.715 68.4859 124.208 69.0268C123.701 69.5678 123.014 69.8717 122.297 69.8717Z" fill="black"/>
<path d="M156.11 154.608V163.799C156.11 168.925 152.129 173.094 147.236 173.094H36.0984C31.2051 173.094 27.2242 168.925 27.2242 163.799V36.2009C27.2242 31.0755 31.2051 26.9057 36.0984 26.9057H147.236C149.541 26.9057 151.734 27.8451 153.409 29.5516C155.151 31.3263 156.11 33.6881 156.11 36.2018V70.137H166.667V36.2026C166.668 31.0473 164.674 26.1779 161.054 22.491C157.368 18.735 152.46 16.6667 147.236 16.6667H36.0984C25.3837 16.6667 16.667 25.4296 16.667 36.2009V163.799C16.667 174.571 25.3837 183.333 36.0984 183.333H147.236C157.95 183.333 166.667 174.571 166.667 163.799V154.608H156.11Z" fill="black"/>
<path d="M163.373 92.9417L173.579 104.433C173.493 104.518 173.405 104.6 173.314 104.68L166.369 110.794C166.156 110.981 165.93 111.154 165.694 111.311L165.188 111.65L164.732 112.055L115.659 155.743L102.889 156.844L105.699 144.045L154.571 100.932L155.073 100.489L155.502 99.9765C155.708 99.7287 155.932 99.4969 156.173 99.2829L163.094 93.1746C163.188 93.0917 163.282 93.0141 163.373 92.9417ZM164.556 83.3333C162.341 83.3333 159.602 84.4688 157.219 86.5722L150.3 92.6788C149.725 93.1867 149.19 93.7373 148.7 94.3261L97.6657 139.347L91.667 166.667L119.36 164.281L170.632 118.634C171.199 118.255 171.74 117.839 172.252 117.387L179.176 111.291C182.988 107.92 184.453 103.343 182.41 101.063L167.784 84.5932C167.023 83.7409 165.884 83.3333 164.556 83.3333Z" fill="black"/>
</svg>
