<?xml version="1.0" encoding="UTF-8"?>
<svg width="16px" height="16px" viewBox="0 0 16 16" version="1.1" xmlns="http://www.w3.org/2000/svg" xmlns:xlink="http://www.w3.org/1999/xlink">
    <!-- Generator: Sketch 60 (88103) - https://sketch.com -->
    <title>用户</title>
    <desc>Created with Sketch.</desc>
    <g id="用户" stroke="none" stroke-width="1" fill="none" fill-rule="evenodd">
        <g id="编组-8" transform="translate(1.000000, 1.000000)" fill="#5B5D66" fill-rule="nonzero">
            <path d="M7.10714286,0.8615 C8.95828571,0.8615 10.4642857,2.36764286 10.4642857,4.219 C10.4642857,6.07035714 8.95828571,7.57657143 7.10714286,7.57657143 C6.62792857,7.57657143 6.16514286,7.478 5.7325,7.28392857 C4.52821429,6.74257143 3.75,5.53964286 3.75,4.21892857 C3.75,2.36757143 5.256,0.8615 7.10714286,0.8615 M7.10714286,0.00435714286 C4.77935714,0.00435714286 2.89285714,1.89128571 2.89285714,4.219 C2.89285714,5.93142857 3.91428571,7.4065 5.38107143,8.06571429 C5.90785714,8.30207143 6.49185714,8.43364286 7.10714286,8.43364286 C9.43571429,8.43364286 11.3214286,6.54621429 11.3214286,4.21892857 C11.3214286,1.89128571 9.43571429,0.00435714286 7.10714286,0.00435714286 L7.10714286,0.00435714286 Z" id="形状"></path>
            <path d="M7,8.4465 C10.3120714,8.4465 13.0087857,10.9760714 13.1355714,14.1428571 L14,14.1428571 C13.8727143,10.5153571 10.7894286,7.61221429 7,7.61221429 C3.21192857,7.61221429 0.127357143,10.5153571 0,14.1428571 L0.8645,14.1428571 C0.991285714,10.9760714 3.68907143,8.4465 7,8.4465 Z" id="路径"></path>
        </g>
    </g>
</svg>
