<?xml version="1.0" standalone="no"?><!DOCTYPE svg PUBLIC "-//W3C//DTD SVG 1.1//EN" "http://www.w3.org/Graphics/SVG/1.1/DTD/svg11.dtd"><svg t="1649826859913" class="icon" viewBox="0 0 1024 1024" version="1.1" xmlns="http://www.w3.org/2000/svg" p-id="4625" xmlns:xlink="http://www.w3.org/1999/xlink" width="400" height="400"><defs><style type="text/css">@font-face { font-family: feedback-iconfont; src: url("//at.alicdn.com/t/font_1031158_u69w8yhxdu.woff2?t=1630033759944") format("woff2"), url("//at.alicdn.com/t/font_1031158_u69w8yhxdu.woff?t=1630033759944") format("woff"), url("//at.alicdn.com/t/font_1031158_u69w8yhxdu.ttf?t=1630033759944") format("truetype"); }
</style></defs><path d="M349.77792 447.35488H145.58208c-54.85056 0-99.47648-44.62592-99.47648-99.47648V143.68256c0-54.85056 44.62592-99.47648 99.47648-99.47648h204.19584c54.85056 0 99.47648 44.62592 99.47648 99.47648v204.19584c0 54.85056-44.62592 99.47648-99.47648 99.47648zM145.58208 103.89504c-21.9392 0-39.78752 17.84832-39.78752 39.78752v204.19584c0 21.9392 17.84832 39.78752 39.78752 39.78752h204.19584c21.9392 0 39.78752-17.84832 39.78752-39.78752V143.68256c0-21.9392-17.84832-39.78752-39.78752-39.78752H145.58208zM875.0336 447.35488h-204.19584c-54.85056 0-99.47648-44.62592-99.47648-99.47648V143.68256c0-54.85056 44.62592-99.47648 99.47648-99.47648h204.19584c54.85056 0 99.47648 44.62592 99.47648 99.47648v204.19584c-0.00512 54.85056-44.62592 99.47648-99.47648 99.47648z m-204.19584-343.45984c-21.9392 0-39.78752 17.84832-39.78752 39.78752v204.19584c0 21.9392 17.84832 39.78752 39.78752 39.78752h204.19584c21.9392 0 39.78752-17.84832 39.78752-39.78752V143.68256c0-21.9392-17.84832-39.78752-39.78752-39.78752h-204.19584zM349.77792 977.8432H145.58208c-54.85056 0-99.47648-44.62592-99.47648-99.47648v-204.20096c0-54.85056 44.62592-99.47648 99.47648-99.47648h204.19584c54.85056 0 99.47648 44.62592 99.47648 99.47648v204.20096c0 54.85568-44.62592 99.47648-99.47648 99.47648z m-204.19584-343.46496c-21.9392 0-39.78752 17.84832-39.78752 39.78752v204.20096c0 21.9392 17.84832 39.78752 39.78752 39.78752h204.19584c21.9392 0 39.78752-17.84832 39.78752-39.78752v-204.20096c0-21.9392-17.84832-39.78752-39.78752-39.78752H145.58208zM875.0336 977.8432h-204.19584c-54.85056 0-99.47648-44.62592-99.47648-99.47648v-204.20096c0-54.85056 44.62592-99.47648 99.47648-99.47648h204.19584c54.85056 0 99.47648 44.62592 99.47648 99.47648v204.20096c-0.00512 54.85568-44.62592 99.47648-99.47648 99.47648z m-204.19584-343.46496c-21.9392 0-39.78752 17.84832-39.78752 39.78752v204.20096c0 21.9392 17.84832 39.78752 39.78752 39.78752h204.19584c21.9392 0 39.78752-17.84832 39.78752-39.78752v-204.20096c0-21.9392-17.84832-39.78752-39.78752-39.78752h-204.19584z" fill="#505050" p-id="4626"></path></svg>