<?xml version="1.0" standalone="no"?><!DOCTYPE svg PUBLIC "-//W3C//DTD SVG 1.1//EN" "http://www.w3.org/Graphics/SVG/1.1/DTD/svg11.dtd"><svg t="1764147771244" class="icon" viewBox="0 0 1024 1024" version="1.1" xmlns="http://www.w3.org/2000/svg" p-id="8034" width="32" height="32" xmlns:xlink="http://www.w3.org/1999/xlink"><path d="M960.2576 1024H63.7456A63.776 63.776 0 0 1 0.0016 959.776V64.224C0.0016 28.736 28.7376 0 63.7456 0h896C995.2976 0 1024.0016 28.736 1024.0016 64.224v896.032A64 64 0 0 1 960.2576 1024z" fill="#8080FF" p-id="8035"></path><path d="M712.5776 438.848c30.624 0 55.424-24.544 55.424-54.848V310.848C768.0016 280.544 743.2016 256 712.5776 256H311.4256C280.8016 256 256.0016 280.544 256.0016 310.848V384c0 30.304 24.8 54.848 55.424 54.848h90.88V512a18.272 18.272 0 0 0 18.24 18.272h164.608v54.88H311.4256C280.8016 585.152 256.0016 609.696 256.0016 640v73.152C256.0016 743.456 280.8016 768 311.4256 768h401.152c30.624 0 55.424-24.544 55.424-54.848V640c0-30.304-24.8-54.848-55.424-54.848h-90.88V512a18.272 18.272 0 0 0-18.24-18.272h-164.608v-54.88h273.728z m0 182.88c10.208 0 18.464 8.192 18.464 18.272v73.152a18.368 18.368 0 0 1-18.464 18.272H311.4256a18.368 18.368 0 0 1-18.464-18.272V640c0-10.08 8.256-18.272 18.464-18.272h401.152zM292.9616 384V310.848c0-10.08 8.256-18.272 18.464-18.272h401.152c10.208 0 18.464 8.192 18.464 18.272V384a18.368 18.368 0 0 1-18.464 18.272H311.4256A18.368 18.368 0 0 1 292.9616 384z" fill="#FFFFFF" p-id="8036"></path><path d="M402.2736 672h219.456a18.656 18.656 0 0 0 12.928-5.152 17.28 17.28 0 0 0 5.344-12.448 17.28 17.28 0 0 0-5.344-12.448 18.656 18.656 0 0 0-12.928-5.152H402.2416a18.656 18.656 0 0 0-12.928 5.152 17.28 17.28 0 0 0-5.344 12.448c0 4.672 1.92 9.152 5.344 12.448a18.656 18.656 0 0 0 12.928 5.152zM640.0016 337.6a17.28 17.28 0 0 0-5.344-12.448 18.656 18.656 0 0 0-12.928-5.152H402.2416a18.656 18.656 0 0 0-12.928 5.152 17.28 17.28 0 0 0-5.344 12.448c0 4.672 1.92 9.152 5.344 12.448a18.656 18.656 0 0 0 12.928 5.152h219.456a18.656 18.656 0 0 0 12.928-5.152 17.28 17.28 0 0 0 5.344-12.448z" fill="#FFFFFF" p-id="8037"></path></svg>